<svg width="186" height="58" viewBox="0 0 186 58" fill="none" xmlns="http://www.w3.org/2000/svg">
<path d="M76.8334 3.04102H76.4707V55.361H76.8334V3.04102Z" fill="#253B80"/>
<path d="M87.6836 6.82812H88.4519V13.6447H87.6836V6.82812Z" fill="#253B80"/>
<path d="M90.9355 6.82812H91.6547L95.9512 12.2925V6.82812H96.7011V13.6447H96.0864L91.6854 8.05745V13.6447H90.9355V6.82812Z" fill="#253B80"/>
<path d="M100.917 7.54113H98.6309V6.82812H103.985V7.54113H101.698V13.6447H100.917V7.54113Z" fill="#253B80"/>
<path d="M105.908 6.82812H110.838V7.52884H106.677V9.8584H110.396V10.5591H106.677V12.944H110.881V13.6447H105.902V6.82812H105.908Z" fill="#253B80"/>
<path d="M112.916 6.82812H115.848C116.684 6.82812 117.36 7.08014 117.784 7.5104C118.116 7.84232 118.313 8.3156 118.313 8.85651V8.87495C118.313 10.0059 117.532 10.6698 116.463 10.8603L118.559 13.6447H117.612L115.633 10.9955H115.614H113.684V13.6447H112.916V6.82812ZM115.78 10.3071C116.801 10.3071 117.532 9.7785 117.532 8.90568V8.88724C117.532 8.0513 116.887 7.54113 115.786 7.54113H113.684V10.3071H115.78Z" fill="#253B80"/>
<path d="M120.445 6.82812H121.164L125.461 12.2925V6.82812H126.211V13.6447H125.596L121.195 8.05745V13.6447H120.445V6.82812Z" fill="#253B80"/>
<path d="M131.134 6.7793H131.853L134.957 13.6451H134.127L133.328 11.8441H129.615L128.81 13.6451H128.023L131.134 6.7793ZM133.033 11.1557L131.484 7.6767L129.929 11.1557H133.033Z" fill="#253B80"/>
<path d="M137.724 7.54113H135.438V6.82812H140.791V7.54113H138.505V13.6447H137.724V7.54113Z" fill="#253B80"/>
<path d="M142.787 6.82812H143.555V13.6447H142.787V6.82812Z" fill="#253B80"/>
<path d="M145.738 10.2575V10.2391C145.738 8.35823 147.152 6.71094 149.223 6.71094C151.295 6.71094 152.69 8.33979 152.69 10.2145C152.702 10.2268 152.702 10.2268 152.69 10.2329C152.69 12.1138 151.276 13.755 149.205 13.755C147.127 13.7611 145.738 12.1384 145.738 10.2575ZM151.891 10.2575V10.2391C151.891 8.69015 150.76 7.42394 149.205 7.42394C147.65 7.42394 146.537 8.67171 146.537 10.2207V10.2391C146.537 11.788 147.668 13.0542 149.223 13.0542C150.779 13.0542 151.891 11.8065 151.891 10.2575Z" fill="#253B80"/>
<path d="M154.799 6.82812H155.518L159.814 12.2925V6.82812H160.564V13.6447H159.95L155.549 8.05745V13.6447H154.799V6.82812Z" fill="#253B80"/>
<path d="M165.487 6.7793H166.206L169.31 13.6451H168.481L167.681 11.8441H163.969L163.164 13.6451H162.377L165.487 6.7793ZM167.386 11.1557L165.837 7.6767L164.282 11.1557H167.386Z" fill="#253B80"/>
<path d="M171.137 6.82812H171.905V12.9317H175.741V13.6447H171.137V6.82812Z" fill="#253B80"/>
<path d="M90.1356 17.9785H90.8547L93.9588 24.8443H93.129L92.3299 23.0433H88.6174L87.8122 24.8443H87.0254L90.1356 17.9785ZM92.0349 22.3488L90.4859 18.8698L88.9308 22.3488H92.0349Z" fill="#253B80"/>
<path d="M95.2012 23.8472L95.6806 23.2817C96.3936 23.9271 97.0759 24.2467 98.0163 24.2467C98.9322 24.2467 99.5345 23.7612 99.5345 23.085V23.0666C99.5345 22.4335 99.1965 22.0708 97.7643 21.7697C96.1969 21.4316 95.4778 20.9214 95.4778 19.8027V19.7843C95.4778 18.7148 96.4243 17.9219 97.7151 17.9219C98.7109 17.9219 99.4178 18.2046 100.112 18.7578L99.6636 19.354C99.0305 18.8377 98.3974 18.6164 97.6967 18.6164C96.8116 18.6164 96.2461 19.102 96.2461 19.7167V19.7351C96.2461 20.3805 96.5964 20.737 98.0962 21.0566C99.6144 21.3886 100.315 21.9418 100.315 22.9867V23.0051C100.315 24.173 99.344 24.9352 97.9856 24.9352C96.9038 24.9413 96.0187 24.5787 95.2012 23.8472Z" fill="#253B80"/>
<path d="M101.82 23.8472L102.3 23.2817C103.013 23.9271 103.695 24.2467 104.635 24.2467C105.551 24.2467 106.154 23.7612 106.154 23.085V23.0666C106.154 22.4335 105.816 22.0708 104.383 21.7697C102.816 21.4316 102.097 20.9214 102.097 19.8027V19.7843C102.097 18.7148 103.043 17.9219 104.334 17.9219C105.33 17.9219 106.037 18.2046 106.731 18.7578L106.283 19.354C105.65 18.8377 105.017 18.6164 104.316 18.6164C103.431 18.6164 102.865 19.102 102.865 19.7167V19.7351C102.865 20.3805 103.216 20.737 104.715 21.0566C106.234 21.3886 106.934 21.9418 106.934 22.9867V23.0051C106.934 24.173 105.963 24.9352 104.605 24.9352C103.523 24.9413 102.638 24.5787 101.82 23.8472Z" fill="#253B80"/>
<path d="M108.68 21.4568V21.4383C108.68 19.5574 110.093 17.9102 112.165 17.9102C114.236 17.9102 115.632 19.539 115.632 21.4137C115.644 21.426 115.644 21.426 115.632 21.4322C115.632 23.313 114.218 24.9542 112.146 24.9542C110.075 24.9603 108.68 23.3315 108.68 21.4568ZM114.839 21.4568V21.4383C114.839 19.8894 113.708 18.6232 112.153 18.6232C110.597 18.6232 109.485 19.8709 109.485 21.4199V21.4383C109.485 22.9873 110.616 24.2535 112.171 24.2535C113.726 24.2473 114.839 22.9996 114.839 21.4568Z" fill="#253B80"/>
<path d="M117.445 21.4568V21.4383C117.445 19.5083 118.884 17.9102 120.894 17.9102C122.129 17.9102 122.873 18.3466 123.555 18.992L123.026 19.5574C122.455 19.0104 121.809 18.6232 120.881 18.6232C119.369 18.6232 118.244 19.8525 118.244 21.4199V21.4383C118.244 23.018 119.381 24.2535 120.881 24.2535C121.816 24.2535 122.43 23.8908 123.082 23.27L123.586 23.7679C122.873 24.487 122.098 24.9665 120.857 24.9665C118.896 24.9603 117.445 23.4114 117.445 21.4568Z" fill="#253B80"/>
<path d="M125.484 18.0273H126.253V24.8439H125.484V18.0273Z" fill="#253B80"/>
<path d="M131.257 17.9785H131.976L135.08 24.8443H134.25L133.451 23.0433H129.738L128.933 24.8443H128.146L131.257 17.9785ZM133.156 22.3488L131.607 18.8698L130.052 22.3488H133.156Z" fill="#253B80"/>
<path d="M137.851 18.7404H135.564V18.0273H140.918V18.7404H138.632V24.8439H137.851V18.7404Z" fill="#253B80"/>
<path d="M142.91 18.0273H143.678V24.8439H142.91V18.0273Z" fill="#253B80"/>
<path d="M145.861 21.4568V21.4383C145.861 19.5574 147.275 17.9102 149.346 17.9102C151.418 17.9102 152.813 19.539 152.813 21.4137C152.825 21.426 152.825 21.426 152.813 21.4322C152.813 23.313 151.399 24.9542 149.328 24.9542C147.257 24.9603 145.861 23.3315 145.861 21.4568ZM152.014 21.4568V21.4383C152.014 19.8894 150.883 18.6232 149.328 18.6232C147.773 18.6232 146.66 19.8709 146.66 21.4199V21.4383C146.66 22.9873 147.791 24.2535 149.346 24.2535C150.908 24.2473 152.014 22.9996 152.014 21.4568Z" fill="#253B80"/>
<path d="M154.928 18.0273H155.647L159.943 23.4917V18.0273H160.693V24.8439H160.079L155.678 19.2567V24.8439H154.928V18.0273Z" fill="#253B80"/>
<path d="M87.6152 29.2207H92.5141V29.9337H88.3836V32.3678H92.0715V33.0685H88.3836V36.0373H87.6152V29.2207Z" fill="#253B80"/>
<path d="M94.0391 32.6501V32.6317C94.0391 30.7508 95.4528 29.1035 97.5242 29.1035C99.5956 29.1035 100.991 30.7324 100.991 32.6071C101.003 32.6194 101.003 32.6194 100.991 32.6255C100.991 34.5064 99.5772 36.1475 97.5058 36.1475C95.4343 36.1537 94.0391 34.531 94.0391 32.6501ZM100.192 32.6501V32.6317C100.192 31.0827 99.0608 29.8165 97.5058 29.8165C95.9507 29.8165 94.8381 31.0643 94.8381 32.6132V32.6317C94.8381 34.1806 95.9691 35.4468 97.5242 35.4468C99.0854 35.4468 100.192 34.1991 100.192 32.6501Z" fill="#253B80"/>
<path d="M103.105 29.2207H106.037C106.873 29.2207 107.549 29.4727 107.974 29.903C108.306 30.2349 108.502 30.7082 108.502 31.2491V31.2675C108.502 32.3985 107.722 33.0623 106.652 33.2529L108.748 36.0373H107.801L105.822 33.3881H105.804H103.874V36.0373H103.105V29.2207ZM105.97 32.6997C106.99 32.6997 107.722 32.1711 107.722 31.2983V31.2798C107.722 30.4439 107.076 29.9337 105.976 29.9337H103.874V32.6997H105.97Z" fill="#253B80"/>
<path d="M115.841 29.9337H113.555V29.2207H118.908V29.9337H116.622V36.0373H115.841V29.9337Z" fill="#253B80"/>
<path d="M120.832 29.2207H121.6V32.251H125.534V29.2207H126.303V36.0373H125.534V32.9701H121.6V36.0373H120.832V29.2207Z" fill="#253B80"/>
<path d="M128.705 29.2207H133.635V29.9214H129.474V32.251H133.192V32.9517H129.474V35.3366H133.678V36.0373H128.699V29.2207H128.705Z" fill="#253B80"/>
<path d="M138.676 35.0464L139.155 34.4809C139.868 35.1263 140.55 35.446 141.491 35.446C142.407 35.446 143.009 34.9604 143.009 34.2842V34.2658C143.009 33.6327 142.671 33.2701 141.239 32.9689C139.672 32.6308 138.952 32.1206 138.952 31.002V30.9835C138.952 29.914 139.899 29.1211 141.19 29.1211C142.185 29.1211 142.892 29.4038 143.587 29.957L143.138 30.5533C142.505 30.0369 141.872 29.8157 141.171 29.8157C140.286 29.8157 139.721 30.3012 139.721 30.9159V30.9343C139.721 31.5797 140.071 31.9362 141.571 32.2559C143.089 32.5878 143.79 33.141 143.79 34.1859V34.2043C143.79 35.3722 142.819 36.1344 141.46 36.1344C140.378 36.1344 139.493 35.7779 138.676 35.0464Z" fill="#253B80"/>
<path d="M147.49 29.9337H145.203V29.2207H150.557V29.9337H148.27V36.0373H147.49V29.9337Z" fill="#253B80"/>
<path d="M152.375 33.1853V29.2207H153.143V33.1361C153.143 34.6051 153.924 35.4349 155.227 35.4349C156.481 35.4349 157.28 34.6789 157.28 33.1853V29.2207H158.048V33.1238C158.048 35.1092 156.911 36.1418 155.202 36.1418C153.524 36.1479 152.375 35.1153 152.375 33.1853Z" fill="#253B80"/>
<path d="M160.354 29.2207H162.72C164.865 29.2207 166.34 30.6897 166.34 32.6075V32.6259C166.34 34.5437 164.859 36.0311 162.72 36.0311H160.354V29.2207ZM162.72 35.3304C164.441 35.3304 165.541 34.1626 165.541 32.6505V32.6321C165.541 31.12 164.441 29.9337 162.72 29.9337H161.122V35.3304H162.72Z" fill="#253B80"/>
<path d="M169.955 33.3389L167.121 29.2207H168.055L170.354 32.6259L172.671 29.2207H173.569L170.735 33.3328V36.0373H169.955V33.3389Z" fill="#253B80"/>
<path d="M87.3145 43.8415V43.8231C87.3145 41.9422 88.7282 40.2949 90.7996 40.2949C92.871 40.2949 94.2663 41.9238 94.2663 43.7985C94.2786 43.8108 94.2786 43.8108 94.2663 43.8169C94.2663 45.6978 92.8526 47.3389 90.7811 47.3389C88.7036 47.3512 87.3145 45.7224 87.3145 43.8415ZM93.4672 43.8415V43.8231C93.4672 42.2741 92.3362 41.0079 90.7811 41.0079C89.226 41.0079 88.1135 42.2557 88.1135 43.8046V43.8231C88.1135 45.372 89.2445 46.6382 90.7996 46.6382C92.3547 46.6382 93.4672 45.3905 93.4672 43.8415Z" fill="#253B80"/>
<path d="M96.375 40.418H101.274V41.131H97.1433V43.565H100.831V44.2657H97.1433V47.2346H96.375V40.418Z" fill="#253B80"/>
<path d="M106.658 40.418H107.427V46.5216H111.262V47.2346H106.658V40.418Z" fill="#253B80"/>
<path d="M112.865 44.3825V40.418H113.634V44.3334C113.634 45.8024 114.414 46.6322 115.717 46.6322C116.971 46.6322 117.77 45.8762 117.77 44.3825V40.418H118.539V44.3211C118.539 46.3064 117.401 47.3391 115.693 47.3391C114.015 47.3391 112.865 46.3064 112.865 44.3825Z" fill="#253B80"/>
<path d="M120.85 40.418H121.569L125.865 45.8823V40.418H126.615V47.2346H126L121.599 41.6473V47.2346H120.85V40.418Z" fill="#253B80"/>
<path d="M128.73 43.8415V43.8231C128.73 41.9545 130.101 40.2949 132.148 40.2949C133.297 40.2949 134.01 40.6268 134.687 41.1985L134.189 41.7824C133.66 41.3276 133.076 41.0018 132.117 41.0018C130.605 41.0018 129.53 42.2803 129.53 43.7985V43.8169C129.53 45.4458 130.568 46.6505 132.228 46.6505C133.009 46.6505 133.728 46.3493 134.195 45.9682V44.2718H132.123V43.5834H134.939V46.3002C134.305 46.8656 133.353 47.3389 132.203 47.3389C130.052 47.3512 128.73 45.79 128.73 43.8415Z" fill="#253B80"/>
<path d="M140.256 43.8415V43.8231C140.256 41.893 141.694 40.2949 143.704 40.2949C144.94 40.2949 145.683 40.7313 146.366 41.3767L145.837 41.9422C145.265 41.3952 144.62 41.0079 143.692 41.0079C142.18 41.0079 141.055 42.2373 141.055 43.8046V43.8231C141.055 45.4028 142.192 46.6382 143.692 46.6382C144.626 46.6382 145.241 46.2756 145.892 45.6548L146.396 46.1526C145.683 46.8718 144.909 47.3512 143.667 47.3512C141.706 47.3512 140.256 45.8023 140.256 43.8415Z" fill="#253B80"/>
<path d="M150.748 40.3691H151.467L154.571 47.2349H153.742L152.943 45.434H149.242L148.437 47.2349H147.65L150.748 40.3691ZM152.648 44.7394L151.099 41.2604L149.544 44.7394H152.648Z" fill="#253B80"/>
<path d="M156.402 40.418H157.122L161.418 45.8823V40.418H162.168V47.2346H161.553L157.152 41.6473V47.2346H156.402V40.418Z" fill="#253B80"/>
<path d="M164.27 43.8415V43.8231C164.27 41.893 165.708 40.2949 167.718 40.2949C168.953 40.2949 169.697 40.7313 170.379 41.3767L169.851 41.9422C169.279 41.3952 168.634 41.0079 167.705 41.0079C166.193 41.0079 165.069 42.2373 165.069 43.8046V43.8231C165.069 45.4028 166.206 46.6382 167.705 46.6382C168.64 46.6382 169.254 46.2756 169.906 45.6548L170.41 46.1526C169.697 46.8718 168.923 47.3512 167.681 47.3512C165.72 47.3512 164.27 45.8023 164.27 43.8415Z" fill="#253B80"/>
<path d="M172.242 40.418H177.172V41.1187H173.011V43.4482H176.729V44.149H173.011V46.5339H177.215V47.2346H172.236V40.418H172.242Z" fill="#253B80"/>
<path d="M179.256 40.418H182.188C183.024 40.418 183.7 40.67 184.124 41.1002C184.456 41.4322 184.653 41.9055 184.653 42.4464V42.4648C184.653 43.5958 183.872 44.2596 182.802 44.4501L184.898 47.2346H183.952L181.973 44.5854H181.954H180.024V47.2346H179.256V40.418ZM182.12 43.8908C183.141 43.8908 183.872 43.3622 183.872 42.4894V42.4709C183.872 41.635 183.227 41.1248 182.126 41.1248H180.024V43.8908H182.12Z" fill="#253B80"/>
<path d="M5.06558 10.4056C5.06558 7.87322 5.0164 7.46754 3.60883 7.34461L3.01261 7.29544C2.87124 7.19709 2.91426 6.76683 3.06178 6.69922C4.25422 6.74839 5.07172 6.77298 6.07362 6.77298C7.03249 6.77298 7.84385 6.74839 9.03629 6.69922C9.17766 6.77298 9.22683 7.20324 9.08546 7.29544L8.48309 7.34461C7.07552 7.4614 7.02635 7.87322 7.02635 10.4056V18.9125C7.02635 21.4449 7.07552 21.783 8.48309 21.949L9.07932 22.0227C9.22069 22.1211 9.17766 22.5513 9.03014 22.6189C7.8377 22.5698 7.0202 22.5452 6.06747 22.5452C5.06558 22.5452 4.24808 22.5698 3.05564 22.6189C2.91426 22.5452 2.86509 22.1641 3.00646 22.0227L3.60268 21.949C5.01026 21.783 5.05943 21.4449 5.05943 18.9125V10.4056H5.06558Z" fill="#253B80"/>
<path d="M20.7707 16.9997C20.6048 16.4711 20.5064 16.4035 19.7934 16.4035H16.1854C15.5891 16.4035 15.4416 16.4772 15.2757 16.9751L14.4397 19.4829C14.0832 20.5586 13.9111 21.204 13.9111 21.4683C13.9111 21.7572 14.0279 21.8985 14.6057 21.9477L15.3924 22.0215C15.5584 22.1382 15.5584 22.5255 15.3433 22.6177C14.7225 22.5685 13.9787 22.5685 12.86 22.5439C12.0733 22.5439 11.2127 22.5931 10.5674 22.6177C10.426 22.5193 10.3768 22.1382 10.5182 22.0215L11.3049 21.9477C11.8766 21.8985 12.4052 21.6342 12.7371 20.7798C13.1674 19.6796 13.8374 18.1245 14.8392 15.4507L17.2795 8.99679C17.6114 8.13626 17.7589 7.68141 17.6851 7.30032C18.2568 7.13436 18.6624 6.7041 18.9267 6.39062C19.0681 6.39062 19.2402 6.4398 19.2832 6.60576C19.5967 7.65683 19.9778 8.75707 20.3343 9.80814L23.6166 19.4153C24.3112 21.4683 24.6185 21.8309 25.6511 21.9477L26.2965 22.0215C26.4625 22.1382 26.4133 22.5255 26.2965 22.6177C25.3192 22.5685 24.4771 22.5439 23.4015 22.5439C22.2521 22.5439 21.3485 22.5931 20.6539 22.6177C20.4634 22.5193 20.4388 22.1382 20.6048 22.0215L21.2993 21.9477C21.8034 21.8985 22.1353 21.7572 22.1353 21.5174C22.1353 21.2531 22.0185 20.8229 21.8218 20.2512L20.7707 16.9997ZM16.0378 14.8729C15.8473 15.42 15.8719 15.4446 16.5419 15.4446H19.4799C20.1745 15.4446 20.2237 15.3462 20.0086 14.7008L18.7178 10.81C18.5272 10.2384 18.3121 9.59301 18.1707 9.30412H18.1215C18.0478 9.4209 17.8081 9.99869 17.5499 10.7117L16.0378 14.8729Z" fill="#253B80"/>
<path d="M31.4037 22.925C29.3938 22.925 28.1276 22.3042 27.6727 22.0399C27.3838 21.5113 27.0765 19.8148 27.0273 18.6961C27.1441 18.5302 27.5068 18.481 27.599 18.6224C27.9555 19.8394 28.9389 22.1874 31.7111 22.1874C33.721 22.1874 34.6983 20.872 34.6983 19.4399C34.6983 18.3888 34.4832 17.2148 32.7375 16.0961L30.4694 14.6148C29.277 13.828 27.8879 12.4635 27.8879 10.5027C27.8879 8.23461 29.6581 6.39062 32.7621 6.39062C33.5059 6.39062 34.3664 6.50741 34.9872 6.7041C35.3007 6.77786 35.6326 6.84547 35.8231 6.84547C36.0383 7.41711 36.2534 8.75707 36.2534 9.75897C36.1551 9.90034 35.774 9.9741 35.6572 9.83273C35.3437 8.68331 34.6983 7.13437 32.4056 7.13437C30.0638 7.13437 29.5597 8.68946 29.5597 9.7897C29.5597 11.1788 30.7092 12.1561 31.5943 12.7278L33.5059 13.9264C35.0118 14.8607 36.4931 16.2436 36.4931 18.5179C36.4993 21.1363 34.5139 22.925 31.4037 22.925Z" fill="#253B80"/>
<path d="M40.3179 10.3565C40.3179 7.84864 40.2687 7.4614 38.7628 7.34461L38.1665 7.29544C38.0252 7.19709 38.0682 6.76683 38.2157 6.69922C39.5557 6.74839 40.367 6.77298 41.3259 6.77298C42.2602 6.77298 43.0715 6.74839 44.264 6.69922C44.4054 6.77298 44.4545 7.20324 44.3132 7.29544L43.7415 7.34461C42.3339 7.4614 42.2848 7.84864 42.2848 10.3565V18.6728C42.2848 20.1787 42.3585 20.7995 42.7888 21.2544C43.0531 21.5187 43.508 21.8014 45.395 21.8014C47.4295 21.8014 47.9274 21.7031 48.3085 21.488C48.7879 21.1991 49.4087 20.3385 49.8881 19.1215C50.0295 19.0047 50.4844 19.0969 50.4844 19.2629C50.4844 19.5272 49.8144 21.9613 49.4825 22.6066C48.2654 22.5575 45.9912 22.5329 43.5325 22.5329H41.3321C40.3302 22.5329 39.5618 22.5575 38.2219 22.6066C38.0805 22.5329 38.0313 22.1518 38.1727 22.0104L38.8918 21.9367C40.281 21.7953 40.324 21.4572 40.324 18.9494V10.3565H40.3179Z" fill="#253B80"/>
<path d="M53.5822 8.41929C55.3278 7.05475 57.5529 6.38477 60.0361 6.38477C61.3269 6.38477 63.1463 6.64907 64.265 6.9564C64.5539 7.03016 64.7198 7.07319 64.9349 7.05475C64.9595 7.60179 65.0763 9.10771 65.2669 10.5706C65.1501 10.7366 64.7874 10.7612 64.6215 10.6198C64.265 8.99708 63.1893 7.12851 59.7226 7.12851C56.0654 7.12851 52.9552 9.44578 52.9552 14.3938C52.9552 19.4156 56.133 22.1877 60.0545 22.1877C63.1401 22.1877 64.4985 20.1778 65.0517 18.7702C65.2177 18.6534 65.5803 18.6964 65.6725 18.8685C65.5066 20.1102 64.8858 21.6898 64.5231 22.1447C64.2342 22.1939 63.9515 22.2861 63.6872 22.3844C63.1586 22.5749 61.4375 22.9314 59.9132 22.9314C57.7618 22.9314 55.7089 22.5012 53.9632 21.3272C52.0516 20.0118 50.5703 17.8359 50.5703 14.7565C50.5703 12.1011 51.7689 9.82687 53.5822 8.41929Z" fill="#253B80"/>
<path d="M35.898 32.4645C35.9902 32.3108 36.1131 32.108 36.1131 31.8867C36.1131 31.6286 35.9963 31.4933 35.9287 31.4134C35.9349 31.4073 35.9349 31.4073 35.941 31.4011C36.0086 31.2905 36.1315 31.0938 36.1315 30.7742C36.1315 30.6021 36.107 30.2825 36.0639 30.0059C38.5103 31.2229 40.3174 35.3473 40.3174 40.2338C40.3174 41.4386 40.2068 42.6064 39.9978 43.7067H39.8134C39.7335 43.6267 39.5429 43.4915 39.1864 43.4055C38.9774 43.3563 38.7316 43.2764 38.5226 43.2088C38.2153 43.1043 38.037 43.049 37.9264 43.049C37.8526 43.049 37.828 43.0121 37.8219 43.0059L37.8157 42.9875L37.7973 42.9691C37.742 42.9137 37.6682 42.8646 37.5944 42.8154C37.5022 42.7539 37.3978 42.6863 37.3056 42.588C37.2134 42.4896 37.1027 42.3298 36.9982 42.1762C36.9122 42.0532 36.8261 41.9241 36.7401 41.8196C36.5618 41.6045 36.3221 41.1804 36.3159 41.1804C36.1869 40.953 36.0455 40.6702 36.0394 40.6026C36.0394 40.5719 36.0639 40.4797 36.0824 40.3936C36.1193 40.24 36.1684 40.0494 36.1684 39.8896C36.1684 39.7114 36.0824 39.57 36.0209 39.4655C36.0025 39.4348 35.9779 39.3917 35.9656 39.3671C35.9779 39.3426 36.0086 39.2934 36.0332 39.2504C36.1377 39.0721 36.3037 38.7955 36.3037 38.4882C36.3037 38.2116 36.1684 38.021 36.0701 37.8858C36.0394 37.8366 35.9902 37.7752 35.9902 37.7506C35.9963 37.7506 36.0209 37.7322 36.0394 37.7137C36.1316 37.64 36.2791 37.5109 36.2791 37.2035C36.2791 36.9085 36.1131 36.761 36.0025 36.6688C35.9717 36.6442 35.9164 36.595 35.9164 36.5827C35.9164 36.5397 35.9472 36.4844 35.9779 36.4168C36.0394 36.2938 36.1254 36.1279 36.1254 35.8697C36.1254 35.587 36.0332 35.4702 35.9717 35.3903C35.9533 35.3657 35.941 35.3473 35.941 35.3411C35.941 35.3104 35.984 35.212 36.0148 35.1383C36.0947 34.9416 36.1869 34.7203 36.1254 34.5544C36.0701 34.4007 35.9656 34.1425 35.9226 34.038C35.9717 33.8967 36.1008 33.491 36.1008 33.2759C36.1008 33.0238 35.9902 32.864 35.9041 32.7472C35.8611 32.6858 35.8242 32.6305 35.8242 32.5936C35.8304 32.5751 35.8672 32.5137 35.898 32.4645Z" fill="#253B80"/>
<path d="M32.6455 30.252C32.6516 30.2765 32.6578 30.295 32.6639 30.3134C32.7254 30.4794 32.6639 30.8789 32.6086 31.0879L32.6024 31.1248L32.6147 31.1617L32.6823 31.3891C32.6332 31.4936 32.5287 31.7394 32.5287 31.9423C32.5287 32.2865 32.6393 32.5078 32.7069 32.6C32.6823 32.729 32.6209 33.061 32.584 33.2945V33.3068V33.3191L32.5901 33.9768V34.0014L32.6024 34.026L32.627 34.0813C32.6578 34.1612 32.7254 34.3087 32.7254 34.3825C32.7254 34.4501 32.7008 34.5054 32.6762 34.573C32.6455 34.6406 32.6147 34.7205 32.6147 34.8189C32.6147 35.0463 32.6393 35.3659 32.6393 35.4151C32.6393 35.452 32.6332 35.6241 32.6332 35.8208C32.6332 36.0298 32.7315 36.3863 32.7622 36.4723C32.7622 36.5338 32.7622 36.7243 32.7622 37.0255C32.7622 37.2775 32.836 37.4619 32.8913 37.591C32.9159 37.6525 32.9405 37.7139 32.9405 37.7447V37.8676C32.9405 38.0397 32.9405 38.2917 32.9405 38.5683C32.9405 38.8388 32.9712 39.0416 32.9897 39.1338C32.9343 39.2322 32.8299 39.478 32.8299 39.7976C32.8299 40.0619 32.8913 40.2525 32.9343 40.3754C32.9466 40.4184 32.9651 40.4676 32.9651 40.4861C32.9651 40.5168 32.9589 40.5844 32.9466 40.6582C32.9282 40.7934 32.9098 40.9655 32.9159 41.113C32.9221 41.2605 32.9405 41.4449 32.9528 41.5556C32.8729 41.6047 32.7622 41.6908 32.6455 41.8506C32.5471 41.9858 32.4856 42.0596 32.4549 42.0903C32.3627 42.1088 32.2521 42.1825 32.123 42.3178C31.957 42.4899 31.8956 42.6558 31.8771 42.7542C31.7788 42.8095 31.6005 42.9386 31.4653 43.1721C31.3485 43.375 31.3055 43.5409 31.2932 43.6393C31.1949 43.6823 31.0228 43.7622 30.8384 43.8667C30.574 44.0204 30.4941 44.3461 30.4757 44.4691C30.4204 44.5244 30.2729 44.6535 30.027 44.7948C29.7566 44.9485 29.6152 45.1268 29.5537 45.219C29.5414 45.219 29.523 45.2251 29.5107 45.2251C29.0681 43.7253 28.8223 42.0104 28.8223 40.2095C28.8223 35.6364 30.4204 31.7148 32.6455 30.252Z" fill="#253B80"/>
<path d="M29.4123 47.8002C29.4062 47.8002 29.3632 47.8125 29.3324 47.8248C29.2218 47.8555 29.0497 47.9047 28.8592 48.0461C28.687 48.1752 28.5764 48.2796 28.4842 48.3657C28.4227 48.421 28.3736 48.4702 28.3121 48.5132C28.2691 48.5501 28.1953 48.5808 28.1154 48.6177C27.7773 48.3534 27.4577 48.0768 27.1504 47.7756C27.2426 47.7695 27.3532 47.7695 27.5007 47.7695H28.5764H28.7116C28.853 47.7695 29.1788 47.5912 29.3324 47.4191C29.3878 47.413 29.4431 47.4007 29.48 47.3945C29.4923 47.4068 29.4984 47.4191 29.4984 47.4314C29.5168 47.5175 29.4492 47.751 29.4123 47.8002Z" fill="#253B80"/>
<path d="M26.5247 33.349C27.9016 31.7448 29.7455 30.5769 31.7739 30.0176C31.0916 30.5831 30.477 31.3514 29.9422 32.3164C28.7621 34.437 28.1105 37.2521 28.1105 40.2332C28.1105 42.1018 28.3687 43.8966 28.8481 45.5009C28.7928 45.5378 28.7375 45.5869 28.6883 45.6361C28.5715 45.7529 28.4978 45.7713 28.4486 45.7713C28.3933 45.7713 28.3318 45.7468 28.2704 45.7222C28.2089 45.6976 28.1413 45.673 28.0675 45.6669C28.0183 45.6607 27.9569 45.6607 27.8893 45.6607C27.7663 45.6607 27.3484 45.673 27.0533 45.8082C27.0042 45.8328 26.912 45.8574 26.7337 45.8574C26.5616 45.8574 26.3342 45.8328 26.0945 45.7836C25.9961 45.7652 25.6888 45.673 25.4675 45.6054C24.5271 44.0134 23.9923 42.1756 23.9923 40.2332C23.98 37.707 24.8836 35.2606 26.5247 33.349Z" fill="#253B80"/>
<path d="M31.681 51.4893C31.6687 51.4893 31.6564 51.4893 31.6502 51.4893C31.5396 51.4647 31.4167 51.4524 31.2753 51.4524C30.7098 51.4524 30.0521 51.6491 29.6464 51.8458C29.1363 52.0978 28.7798 52.3068 28.4909 52.4789C28.0545 52.7371 27.8578 52.8539 27.5935 52.8539C27.5381 52.8539 27.4767 52.8477 27.4029 52.8354C27.0649 52.7801 26.106 51.5262 25.4114 49.2151C25.0549 48.0349 24.8213 46.7441 24.6738 45.6992C26.2658 48.5758 29.0318 50.6288 32.2465 51.2988C31.9207 51.4524 31.7609 51.4893 31.681 51.4893Z" fill="#253B80"/>
<path d="M29.8867 49.7248C29.899 49.7125 29.9175 49.7003 29.9297 49.688L30.3539 49.3438C30.3784 49.4482 30.3969 49.5958 30.3784 49.7494C30.3723 49.8232 30.3477 49.8785 30.3231 49.9277C30.1756 49.8662 30.0281 49.7986 29.8867 49.7248Z" fill="#253B80"/>
<path d="M33.3782 50.622C33.3414 50.5789 33.3045 50.5421 33.2676 50.5052C33.1693 50.4007 32.9664 50.2224 32.7882 50.0626C32.6591 49.9458 32.5362 49.8413 32.4931 49.7922C32.4009 49.7 32.1858 49.1345 32.2042 49.0177C32.2104 48.987 32.2227 48.9747 32.235 48.9501C32.278 48.8763 32.3149 48.8026 32.3149 48.6059C32.3149 48.4952 32.2903 48.3969 32.2657 48.3047C32.2227 48.1387 32.1797 47.9666 32.2473 47.6347C32.2719 47.5179 32.2903 47.395 32.3026 47.2659C32.3702 46.7865 32.4378 46.2886 32.8066 46.1349C33.1385 46.0735 33.3045 45.7661 33.4274 45.5387C33.4704 45.4588 33.5135 45.3851 33.5442 45.3543C33.6057 45.2929 33.704 45.2252 33.7962 45.1699C33.7962 45.2437 33.8024 45.3236 33.8024 45.4096C33.8024 45.6985 33.7225 46.0489 33.6487 46.3501C33.5872 46.6205 33.5319 46.8541 33.5319 47.0385C33.5319 47.2413 33.5872 47.4196 33.6548 47.6286C33.7286 47.8683 33.8269 48.1695 33.8577 48.5997C33.8946 49.0976 33.5626 50.1118 33.3782 50.622Z" fill="#253B80"/>
<path d="M37.3672 50.4442C37.5823 50.2659 37.7913 50.0631 37.9941 49.8418C37.9941 49.9893 37.9941 50.1245 38.0003 50.2475C37.7974 50.3212 37.5823 50.3888 37.3672 50.4442Z" fill="#253B80"/>
<path d="M38.0424 48.6556C37.0344 50.0754 35.8296 50.8253 34.5696 50.8253C34.4098 50.8253 34.2438 50.8253 34.084 50.813C34.2807 50.2721 34.6249 49.2088 34.5757 48.5511C34.5388 48.0286 34.422 47.6721 34.3421 47.4078C34.293 47.248 34.2499 47.1251 34.2499 47.039C34.2499 46.9345 34.2991 46.7194 34.3483 46.5104C34.4282 46.1662 34.5204 45.779 34.5204 45.404C34.5204 44.9492 34.4774 44.6603 34.4528 44.525C34.5757 44.3652 34.6986 44.187 34.7601 44.0333C34.7908 43.9596 34.8339 43.9473 34.883 43.9473C35.0121 43.9473 35.1842 44.0579 35.2518 44.1071C35.3871 44.273 35.7128 44.7033 35.7804 44.8693C35.928 45.2258 36.684 45.2565 36.9053 45.2565C36.9545 45.2565 37.1081 45.3487 37.2249 45.4163C37.2556 45.4347 37.2864 45.4532 37.311 45.4655C37.4032 45.6683 38.0485 47.0882 38.0485 48.0409C38.0547 48.2253 38.0547 48.422 38.0424 48.6556Z" fill="#253B80"/>
<path d="M43.932 45.1953C43.8276 45.3982 43.7108 45.5948 43.594 45.7915L43.2129 45.435C43.3297 45.3613 43.6001 45.2875 43.7907 45.226C43.8337 45.2137 43.8829 45.2015 43.932 45.1953Z" fill="#253B80"/>
<path d="M38.2324 45.7793C38.3185 45.7916 38.4168 45.81 38.5152 45.8223C38.7979 45.8653 39.1298 45.9207 39.3941 45.976C39.2036 46.5169 38.9823 47.0332 38.7364 47.5126C38.6381 46.9103 38.4107 46.2526 38.2324 45.7793Z" fill="#253B80"/>
<path d="M38.7375 49.2146C38.7436 49.1101 38.7498 48.9933 38.7498 48.8827C38.9034 48.6553 39.0571 48.4094 39.1985 48.1513C39.5242 47.5673 39.807 46.9281 40.0529 46.252C40.5077 46.5224 41.0978 46.9957 41.2084 47.5427C41.276 47.8808 41.3129 48.1697 41.3375 48.3848C40.5569 49.0302 39.6779 49.5711 38.7129 49.9829C38.7129 49.7494 38.7252 49.4789 38.7375 49.2146Z" fill="#253B80"/>
<path d="M44.1161 48.4223C43.1757 51.9566 42.1062 52.9647 41.9341 53.02C41.8542 53.0016 41.7558 52.8725 41.596 52.6758C41.3563 52.3685 41.0674 51.9812 40.4958 51.6985L40.4158 51.6555C39.4078 51.1514 39.0513 50.967 38.873 50.6843C41.5284 49.5902 43.6551 47.5311 44.8476 44.9434C44.6755 46.062 44.4357 47.2299 44.1161 48.4223Z" fill="#253B80"/>
<path d="M44.5096 43.9103C44.4296 43.732 44.3251 43.5722 44.1899 43.4923C44.1162 43.4493 44.0301 43.4247 43.9318 43.4247C43.6183 43.4247 43.2741 43.646 43.1266 43.7566C43.0897 43.732 43.0467 43.7136 42.9913 43.7075H42.9852H42.9667C42.9053 43.7075 42.8438 43.732 42.7516 43.7689C42.6041 43.8304 42.3828 43.9164 42.0386 43.941C42.0017 43.941 41.971 43.9472 41.928 43.9472C41.5961 43.9472 41.1043 43.8734 40.7048 43.812C40.9199 42.6748 41.0306 41.4762 41.0306 40.2469C41.0306 37.2597 40.379 34.4507 39.1989 32.3301C38.6641 31.3712 38.0495 30.5967 37.3672 30.0312C41.9157 31.279 45.1549 35.4771 45.1549 40.2469C45.1611 41.5131 44.9337 42.7547 44.5096 43.9103Z" fill="#253B80"/>
<path d="M31.7371 50.4385H31.7305C31.7305 50.4319 31.7305 50.4385 31.7371 50.4385Z" fill="#C5203E"/>
<path d="M31.7494 50.4382C31.7429 50.4382 31.7429 50.4316 31.7363 50.4316C31.7363 50.4382 31.7429 50.4382 31.7494 50.4382Z" fill="#C5203E"/>
<path d="M31.7241 50.4323C31.7175 50.4323 31.7109 50.4258 31.7109 50.4258C31.7175 50.4323 31.7241 50.4323 31.7241 50.4323Z" fill="#C5203E"/>
<path d="M31.7673 50.4438C31.761 50.4438 31.7547 50.4375 31.7422 50.4375C31.7547 50.4438 31.761 50.4438 31.7673 50.4438Z" fill="#C5203E"/>
<path d="M31.7123 50.4323C31.7058 50.4323 31.7058 50.4323 31.6992 50.4258C31.7058 50.4258 31.7058 50.4258 31.7123 50.4323Z" fill="#C5203E"/>
<path d="M31.577 50.3878C31.5703 50.3878 31.5703 50.3878 31.5703 50.3878C31.5703 50.3811 31.5703 50.3811 31.577 50.3878Z" fill="#C5203E"/>
<path d="M31.601 50.3948C31.5888 50.3887 31.5765 50.3887 31.5703 50.3887C31.5826 50.3887 31.5888 50.3887 31.601 50.3948Z" fill="#C5203E"/>
<path d="M68.6528 41.6965C68.6528 41.6965 64.9034 40.7929 63.3544 40.7929C62.8934 40.7929 54.9951 40.8483 45.855 40.9097C45.8673 40.6823 45.8796 40.4549 45.8796 40.2336C45.8796 34.0009 40.8087 28.9238 34.5699 28.9238C33.9491 28.9238 33.3221 28.973 32.7136 29.0775C30.1013 29.5078 27.7102 30.86 25.9769 32.8822C24.2251 34.9291 23.2601 37.5352 23.2601 40.2336C23.2601 40.5163 23.2724 40.7929 23.2908 41.0757C20.7953 41.0941 18.0539 41.1064 17.052 41.1187C17.7036 39.9201 18.6686 38.617 19.3078 38.4388C19.4308 38.4019 19.5045 38.4265 19.5721 38.4695C19.6828 38.5433 19.7074 38.6047 19.7135 38.6601C19.7504 38.8875 19.5475 39.2378 19.4492 39.3669C19.2709 39.5943 19.3078 39.9201 19.5352 40.0984C19.7627 40.2766 20.0884 40.2397 20.2667 40.0123C20.322 39.9447 20.7584 39.3669 20.7584 38.7154C20.7584 38.6416 20.7523 38.574 20.74 38.5002C20.6785 38.1315 20.4757 37.8241 20.1438 37.6028C19.8057 37.3816 19.4185 37.3201 19.0128 37.4307C17.9556 37.7319 16.9352 39.2563 16.3021 40.375C15.835 39.7234 15.0113 39.287 14.0832 39.287C13.6099 39.287 13.1674 39.3977 12.7801 39.5943C12.9399 39.1211 13.1489 38.7338 13.4009 38.4757C13.4993 38.3773 13.5485 38.2421 13.5485 38.113C13.5485 37.9778 13.4931 37.8426 13.3886 37.7381C13.1797 37.5352 12.8477 37.5414 12.651 37.7504C12.1778 38.2421 11.8151 39.0104 11.6123 39.914C11.1082 39.4345 10.3952 39.1395 9.61462 39.1395C8.45291 39.1395 7.45716 39.791 7.04534 40.713C6.70113 40.2643 6.12334 39.9754 5.45951 39.9754C4.74036 39.9754 4.10726 40.3258 3.78763 40.8483C3.51103 40.5717 3.08692 40.3934 2.61978 40.3934C1.78384 40.3934 1.10156 40.9589 1.10156 41.6535C1.10156 42.348 1.78384 42.9135 2.61978 42.9135C3.08692 42.9135 3.51103 42.7353 3.78763 42.4587C4.1134 42.9811 4.74036 43.3315 5.45951 43.3315C6.1172 43.3315 6.70113 43.0364 7.04534 42.5939C7.45716 43.5159 8.45291 44.1674 9.61462 44.1674C10.4014 44.1674 11.1144 43.8662 11.6184 43.3868C11.8213 44.2842 12.1839 45.0525 12.6572 45.5381C12.86 45.7471 13.1858 45.7532 13.3948 45.5504C13.6038 45.3476 13.6038 45.0157 13.4071 44.8128C13.1551 44.5547 12.9461 44.1736 12.7924 43.7064C13.1735 43.9031 13.6161 44.0138 14.0894 44.0138C15.0052 44.0138 15.8104 43.5958 16.2837 42.9627C16.9106 44.0875 17.9433 45.6549 19.0189 45.9561C19.4185 46.0667 19.8118 46.0114 20.1499 45.7901C20.4818 45.5689 20.6908 45.2554 20.7461 44.8927C20.7584 44.819 20.7646 44.7452 20.7646 44.6776C20.7646 44.0261 20.3282 43.4483 20.2728 43.3807C20.0946 43.1532 19.7627 43.1164 19.5414 43.2946C19.314 43.4729 19.2771 43.8048 19.4553 44.0261C19.5414 44.1305 19.7565 44.4932 19.7197 44.7329C19.7135 44.7882 19.6889 44.8497 19.5783 44.9235C19.5107 44.9665 19.4369 44.9911 19.314 44.9542C18.6563 44.7698 17.7097 43.4974 17.052 42.2804C18.0539 42.2866 20.8568 42.305 23.4506 42.3234C23.5183 42.6799 23.5982 43.0364 23.7027 43.3868C23.7272 43.7986 23.9485 46.8658 24.723 49.4474C25.2885 51.3221 26.3334 53.4119 27.2861 53.5656C27.3968 53.584 27.4951 53.5902 27.5935 53.5902C28.0483 53.5902 28.3679 53.3996 28.8535 53.1169C29.1301 52.9509 29.4805 52.7481 29.9599 52.5084C30.2857 52.3486 30.8389 52.1826 31.2691 52.1826C31.3552 52.1826 31.4351 52.1887 31.4966 52.201C31.5457 52.2133 31.6072 52.2195 31.6625 52.2195C32.0989 52.2195 32.6767 51.9183 33.3344 51.5618L33.4389 51.5003C33.8077 51.5372 34.1826 51.5557 34.5576 51.5557C35.793 51.5557 37.0101 51.3528 38.1779 50.9594C38.4545 51.5065 38.9278 51.74 40.0834 52.3178L40.1633 52.3609C40.5812 52.5698 40.8087 52.871 41.0115 53.1292C41.2205 53.3996 41.4356 53.6824 41.8106 53.75C41.8413 53.7561 41.8782 53.7561 41.9089 53.7561C42.8002 53.7561 43.9865 51.6478 44.7978 48.6237C45.5477 45.8209 45.7505 43.7556 45.8059 42.471C54.9643 42.5324 62.8812 42.5877 63.3483 42.5877C64.9034 42.5693 68.6528 41.6965 68.6528 41.6965ZM2.63207 42.2312C2.16493 42.2312 1.77769 41.9608 1.77769 41.635C1.77769 41.3154 2.17107 41.0388 2.63207 41.0388C3.09921 41.0388 3.48645 41.3093 3.48645 41.635C3.49259 41.9608 3.09921 42.2312 2.63207 42.2312ZM5.47795 42.557C4.84485 42.557 4.32853 42.1452 4.32853 41.6412C4.32853 41.1371 4.84485 40.7253 5.47795 40.7253C6.11105 40.7253 6.62737 41.1371 6.62737 41.6412C6.62737 42.1452 6.11105 42.557 5.47795 42.557ZM9.63306 43.2024C8.63116 43.2024 7.81366 42.5017 7.81366 41.6412C7.81366 40.7806 8.63116 40.0799 9.63306 40.0799C10.6042 40.0799 11.3971 40.7376 11.4463 41.5551C11.4463 41.5797 11.4463 41.6104 11.4463 41.635C11.4463 41.6658 11.4463 41.6965 11.4463 41.7211C11.3971 42.5447 10.6042 43.2024 9.63306 43.2024ZM14.1201 43.2024C13.3825 43.2024 12.7432 42.8152 12.4666 42.262H15.7797C15.4969 42.8152 14.8577 43.2024 14.1201 43.2024ZM12.4175 41.1126C12.6695 40.5102 13.3333 40.0738 14.1201 40.0738C14.9007 40.0738 15.5707 40.504 15.8227 41.1126H12.4175ZM35.8975 32.4643C35.9897 32.3106 36.1127 32.1078 36.1127 31.8865C36.1127 31.6283 35.9959 31.4931 35.9283 31.4132C35.9283 31.4071 35.9344 31.4009 35.9344 31.4009C36.002 31.2903 36.125 31.0874 36.125 30.774C36.125 30.6019 36.1004 30.2822 36.0573 30.0056C38.5037 31.2227 40.3108 35.347 40.3108 40.2336C40.3108 41.4383 40.2002 42.6062 39.9912 43.7064H39.8068C39.7207 43.6265 39.5363 43.4913 39.1798 43.4052C38.9708 43.3561 38.7311 43.2762 38.516 43.2086C38.2087 43.1041 38.0304 43.0487 37.9198 43.0487C37.8399 43.0487 37.8214 43.0119 37.8153 43.0057L37.8091 42.9873L37.7907 42.9688C37.7354 42.9135 37.6616 42.8643 37.5878 42.8152C37.4956 42.7537 37.3912 42.6861 37.2928 42.5877C37.2006 42.4894 37.09 42.3296 36.9855 42.1821C36.8994 42.0591 36.8134 41.9301 36.7273 41.8256C36.5491 41.6166 36.3094 41.1863 36.3032 41.1863C36.1741 40.965 36.0328 40.6762 36.0266 40.6085C36.0266 40.5778 36.0512 40.4856 36.0758 40.3996C36.1127 40.2459 36.1618 40.0553 36.1618 39.8955C36.1618 39.7173 36.0758 39.5759 36.0082 39.4714C35.9897 39.4407 35.9651 39.3977 35.9528 39.3731C35.9651 39.3485 35.9959 39.2993 36.0205 39.2563C36.125 39.0719 36.2909 38.8014 36.2909 38.4941C36.2909 38.2175 36.1557 38.027 36.0573 37.8917C36.0266 37.8426 35.9774 37.7811 35.9774 37.7565C35.9836 37.7565 36.0082 37.7381 36.0266 37.7196C36.1188 37.6459 36.2663 37.5168 36.2663 37.2095C36.2663 36.9144 36.1004 36.7669 35.9897 36.6747C35.959 36.6501 35.9037 36.6009 35.9037 36.5887C35.9037 36.5456 35.9344 36.4903 35.9651 36.4227C36.0266 36.2998 36.1127 36.1338 36.1127 35.8756C36.1127 35.5929 36.0205 35.4761 35.959 35.3962C35.9406 35.3716 35.9283 35.3532 35.9283 35.347C35.9283 35.3163 35.9713 35.218 36.002 35.1442C36.0819 34.9475 36.1741 34.7262 36.1127 34.5603C36.0573 34.4066 35.9528 34.1546 35.9098 34.044C35.959 33.9026 36.0881 33.5031 36.0881 33.2818C36.0881 33.0298 35.9774 32.87 35.8914 32.7532C35.8484 32.6917 35.8115 32.6364 35.8115 32.5995C35.8299 32.5749 35.8668 32.5134 35.8975 32.4643ZM36.4323 44.106C36.4569 44.0691 36.4507 44.0629 36.4384 44.0506C36.4077 44.0261 36.3893 44.0506 36.3585 44.0814C36.2479 44.192 35.9344 44.1613 35.8053 44.1367C35.7193 44.0322 35.5287 43.7802 35.498 43.7064C35.455 43.5958 35.0186 43.5651 34.828 43.5589C34.7727 43.5282 34.4408 43.3438 34.0105 43.1102C33.5987 42.8828 33.0394 42.348 32.941 42.2435C32.9594 42.1944 33.0086 42.0776 33.1131 41.9546C33.2115 41.844 33.2729 41.8317 33.2914 41.8379C33.2914 41.8379 33.2975 41.844 33.2975 41.8502V42.1575L33.3221 42.1698C33.6663 42.3173 34.2072 42.2989 34.7297 42.2866C35.0862 42.2743 35.3075 42.0837 35.4857 41.9301C35.5779 41.8502 35.6578 41.7825 35.7377 41.7518C35.9529 41.678 36.1127 41.7088 36.1372 41.7149C36.1557 41.7211 36.2602 41.7825 36.3708 41.8932C36.4753 41.9977 36.4323 42.2005 36.42 42.2374C36.3893 42.2927 36.0758 42.7537 35.8115 42.8029C35.5164 42.8582 34.9141 42.8336 34.9141 42.8336L34.8157 42.8275L34.8833 42.8951C35.0432 43.0549 35.7562 43.0303 36.0143 42.9934C36.2786 42.9565 36.6228 42.5877 36.7212 42.4771C36.7458 42.5078 36.8011 42.5755 36.8933 42.7168C37.0347 42.9381 36.8871 43.2454 36.8871 43.2454L36.8195 43.3807L36.9425 43.2885C37.0654 43.2024 37.299 43.0672 37.3789 43.0856C37.4526 43.1041 37.551 43.2516 37.6063 43.3561C37.5202 43.4544 37.1391 43.9216 37.0531 44.0875C36.967 44.2473 36.9056 44.7145 36.8871 44.8436C36.8195 44.8436 36.6474 44.8436 36.42 44.8436C36.1987 44.8436 36.0819 44.6284 36.0512 44.5608C36.2909 44.2904 36.3954 44.1736 36.4384 44.1183C36.4323 44.1121 36.4323 44.106 36.4323 44.106ZM32.4862 44.3641C32.3386 44.2166 32.2833 44.1613 32.2403 44.1613C32.2341 44.1613 32.2219 44.1613 32.2157 44.1674C32.1788 44.192 32.1911 44.2412 32.2034 44.2719C32.2464 44.4133 32.3079 44.5116 32.3571 44.5854C31.9022 44.3457 31.6748 43.8294 31.6748 43.8294C31.6564 43.7556 31.6318 43.5405 31.724 43.4483C31.8162 43.3499 31.9453 43.2823 31.9944 43.2516C32.4308 43.688 32.9533 43.7495 32.9717 43.7556L33.2852 43.7925L32.984 43.6818C32.5353 43.5159 32.2219 43.0549 32.185 42.9934C32.1788 42.9442 32.1665 42.7045 32.3141 42.6123C32.4616 42.5263 32.6091 42.471 32.6644 42.4525C32.7382 42.5263 33.0701 42.8459 33.3959 43.061C33.7278 43.2823 34.3486 43.6265 34.4777 43.7003C34.4162 44.0691 33.6847 44.8005 33.5864 44.8989H33.2176C33.0209 44.905 32.7013 44.5792 32.4862 44.3641ZM33.1684 45.2246C33.1131 45.3168 32.9779 45.5443 32.8672 45.6426C32.7443 45.7594 32.2464 45.9745 32.1481 46.0114C31.5334 45.6856 30.9372 44.6653 30.8635 44.5362C30.9802 44.1244 31.3306 44.0322 31.4351 44.0138C31.6256 44.5792 32.5107 45.0956 32.5538 45.114L32.6091 45.1447L32.6214 44.9603C32.7689 45.0771 33.0578 45.1878 33.1684 45.2246ZM35.6271 40.5594C35.5041 40.5717 34.8465 40.6577 34.4285 40.6577C34.0228 40.6577 33.4266 40.4917 33.3098 40.461C33.2914 40.3873 33.2176 40.1107 33.2176 39.8586C33.2176 39.6312 33.2852 39.4714 33.3098 39.4161C33.4389 39.4345 34.0105 39.5144 34.4162 39.5144C34.8342 39.5144 35.5164 39.5083 35.6332 39.5083C35.664 39.5452 35.7685 39.6804 35.7685 39.957C35.7685 40.2397 35.6578 40.4918 35.6271 40.5594ZM35.8606 41.0327C35.916 41.1126 35.9467 41.3092 35.959 41.4137C35.8791 41.4137 35.7254 41.426 35.5349 41.5305C35.455 41.5736 35.3812 41.6289 35.2952 41.6903C35.1046 41.8317 34.8833 41.9977 34.6006 41.9977C33.9921 41.9977 33.5987 41.9424 33.5741 41.8932C33.5803 41.8317 33.5249 41.7272 33.4327 41.5613C33.359 41.426 33.2668 41.2539 33.2668 41.174C33.2668 41.0511 33.3221 40.8237 33.3405 40.7376C33.5065 40.7806 34.158 40.9527 34.5453 40.9527C34.9448 40.9527 35.5963 40.879 35.6947 40.8728C35.7131 40.8913 35.793 40.9466 35.8606 41.0327ZM35.8668 37.1787C35.8668 37.3631 35.793 37.5598 35.7254 37.6274C35.6763 37.6766 35.4304 37.7811 35.2767 37.8364L35.08 37.9102H35.6885C35.7562 37.9102 35.9098 38.3097 35.9283 38.5802C35.9406 38.7768 35.6824 39.1456 35.6209 39.2317C35.5103 39.2255 34.951 39.201 34.4285 39.2317C33.863 39.2624 33.4143 39.0227 33.4081 39.0227C33.3836 39.0104 33.3651 38.9797 33.3528 38.9367C33.3037 38.7707 33.3405 38.4634 33.3651 38.4203C33.3836 38.3835 33.4696 38.3036 33.8138 38.2605C34.1027 38.2237 34.7604 38.1192 34.7666 38.1192L34.8772 38.1007L34.7727 38.0454C34.7666 38.0454 34.6129 37.9655 34.0535 37.9655C33.8077 37.9655 33.6233 37.9962 33.5004 38.0208C33.4143 38.0331 33.3344 38.0515 33.316 38.0331C33.3098 38.0331 33.3098 38.0208 33.3098 38.0085C33.3098 37.8856 33.3528 37.8487 33.402 37.8057C33.4082 37.7995 33.4204 37.7872 33.4266 37.7811C33.4573 37.7504 33.7647 37.6459 33.8937 37.5967C34.0597 37.5352 34.0597 37.5352 34.0535 37.4983C34.0413 37.4615 34.0167 37.4676 33.9613 37.4861C33.7524 37.5475 33.359 37.5537 33.2729 37.5537C33.1561 37.4123 33.1377 37.0128 33.1438 36.8345C33.6479 36.7177 33.863 36.8222 34.072 36.9267C34.2072 36.9943 34.3363 37.0558 34.533 37.0558C34.9817 37.0558 35.5287 36.939 35.6209 36.9144C35.6701 36.9329 35.8668 37.0251 35.8668 37.1787ZM35.7008 36.017L35.6885 36.0908C35.6394 36.3428 35.5902 36.5333 35.4242 36.7116C34.7235 36.8714 34.3363 36.6993 34.0474 36.5702C33.9183 36.5087 33.8138 36.4657 33.7032 36.4657C33.4512 36.4657 33.1869 36.4842 33.0947 36.4965C33.0824 36.4104 33.0516 36.1768 33.0209 36.0478C32.9963 35.9187 33.0639 35.6851 33.0885 35.6113C33.236 35.599 34.0228 35.5191 34.3178 35.5191C34.41 35.5191 34.5268 35.513 34.6498 35.5007C34.9694 35.4761 35.3689 35.4515 35.541 35.5499C35.7746 35.6667 35.75 35.7896 35.7008 36.017ZM34.5699 29.643C34.9141 29.643 35.246 29.6983 35.5779 29.8028C35.5472 29.9073 35.4734 30.0364 35.3443 30.0855C35.1968 30.1409 35.0862 30.147 34.871 30.1593C34.7297 30.1654 34.5391 30.1777 34.2687 30.2085C34.0351 30.2331 33.8384 30.2699 33.6786 30.3007C33.3651 30.3621 33.1992 30.3929 33.107 30.2699C33.0762 30.2331 33.0394 30.147 33.0025 30.0487C33.4942 29.7844 34.0228 29.643 34.5699 29.643ZM33.0086 30.6633C33.1131 30.6572 33.5864 30.6387 34.0781 30.5404C34.281 30.5035 34.5145 30.4728 34.742 30.4482C35.1784 30.399 35.4611 30.3621 35.5779 30.2822C35.6332 30.3314 35.7746 30.4912 35.6824 30.8539C35.5779 31.2657 35.5287 31.2657 35.2952 31.2657H35.2521C34.9632 31.2657 34.1519 31.2903 33.8569 31.3517C33.6048 31.4071 33.1746 31.364 33.0824 31.3517C33.0394 31.2903 32.8488 31.0014 33.0086 30.6633ZM33.0639 31.6345C33.3098 31.7082 33.7954 31.6775 34.5023 31.5423C35.0124 31.4439 35.6086 31.6283 35.6086 31.6283C35.6148 31.6345 35.7316 31.7082 35.7131 31.8926C35.6885 32.077 35.6148 32.3905 35.5963 32.452C35.5656 32.4704 35.4427 32.538 35.1722 32.538H34.7297V32.6118C35.0247 32.6179 35.3566 32.6425 35.4119 32.6671C35.4181 32.6794 35.4365 32.6978 35.455 32.7224C35.5226 32.8023 35.6394 32.9437 35.6517 33.1343C35.6824 33.6321 35.6578 33.7735 35.6332 33.7981C35.5841 33.8473 35.0063 33.9272 34.49 33.9272H33.863L33.8569 34.0009C33.8876 34.0071 34.5699 34.13 34.9018 34.13C35.2767 34.13 35.4857 34.1853 35.6086 34.3144C35.75 34.4619 35.7439 35.0336 35.6271 35.1503C35.541 35.2364 35.1599 35.2303 34.8526 35.2241C34.7235 35.218 34.6006 35.218 34.49 35.218C34.0904 35.2241 33.236 35.2794 33.2299 35.2794H33.0885C33.0516 35.1319 32.9902 34.8061 33.0332 34.6955C33.0947 34.548 33.2053 34.3144 33.2053 34.3083L33.2176 34.2837L33.193 34.2652C33.193 34.2652 32.9164 34.044 32.941 33.6137C32.941 33.5645 32.9472 33.5215 32.9472 33.4723C32.9656 33.0666 32.9779 32.7163 33.4143 32.6179L33.611 32.5749L33.4143 32.5442C33.3959 32.5442 32.9287 32.4643 32.9287 31.8865C32.9287 31.6959 33.0332 31.6468 33.0639 31.6345ZM32.646 30.2515C32.6521 30.2761 32.6583 30.2945 32.6706 30.313C32.732 30.4789 32.6706 30.8785 32.6152 31.0874L32.6091 31.1243L32.6214 31.1612L32.689 31.3886C32.6398 31.4931 32.5353 31.739 32.5353 31.9418C32.5353 32.286 32.646 32.5073 32.7136 32.6056C32.689 32.7347 32.6275 33.0666 32.5907 33.3002V33.3125V33.3248L32.5968 33.9825V34.0071L32.6091 34.0317L32.6337 34.087C32.6644 34.1669 32.732 34.3144 32.7259 34.3882C32.7259 34.4558 32.7013 34.5111 32.6767 34.5787C32.646 34.6463 32.6152 34.7262 32.6152 34.8246C32.6152 35.052 32.6398 35.3716 32.6398 35.4208C32.6398 35.4577 32.6337 35.6298 32.6337 35.8265C32.6337 36.0355 32.732 36.392 32.7628 36.478C32.7628 36.5395 32.7628 36.73 32.7628 37.0374C32.7628 37.2894 32.8365 37.4738 32.8918 37.6028C32.9164 37.6643 32.941 37.7258 32.941 37.7565V37.8794C32.941 38.0515 32.941 38.3036 32.941 38.5802C32.941 38.8506 32.9717 39.0534 32.9902 39.1456C32.9349 39.244 32.8304 39.4899 32.8304 39.8095C32.8304 40.0799 32.8918 40.2643 32.9349 40.3934C32.9472 40.4364 32.9656 40.4856 32.9656 40.504C32.9656 40.5348 32.9594 40.6024 32.9472 40.6761C32.9287 40.8114 32.9103 40.9835 32.9164 41.131C32.9226 41.2785 32.941 41.4629 32.9533 41.5736C32.8734 41.6227 32.7628 41.7088 32.6521 41.8686C32.5538 42.0038 32.4923 42.0776 32.4616 42.1083C32.3694 42.1267 32.2587 42.2005 32.1297 42.3357C31.9637 42.5078 31.9022 42.6738 31.8838 42.7721C31.7854 42.8336 31.6072 42.9627 31.472 43.1901C31.3552 43.393 31.3122 43.5589 31.2999 43.6573C31.2015 43.7003 31.0294 43.7802 30.845 43.8847C30.5807 44.0383 30.5008 44.3641 30.4824 44.487C30.427 44.5424 30.2857 44.6714 30.0337 44.8128C29.7632 44.9665 29.6218 45.1447 29.5604 45.2369C29.5481 45.2369 29.5296 45.2431 29.5173 45.2431C29.0748 43.7433 28.8289 42.0284 28.8289 40.2274C28.8228 35.6359 30.4209 31.7144 32.646 30.2515ZM29.21 47.0379L29.1793 47.0133L29.1547 47.044C29.0809 47.1485 28.8658 47.4251 28.7183 47.4251C28.54 47.4251 28.3126 47.1178 28.3126 46.8719L28.2389 46.8658C28.2081 47.0563 28.1159 47.3329 28.0176 47.3514C27.6672 47.4067 27.4521 47.3575 27.4029 47.2038L27.3845 47.1485L27.3414 47.1916C27.3414 47.1916 27.2124 47.3268 26.9235 47.419C26.8989 47.4251 26.8682 47.4374 26.8436 47.4436C26.4502 47.0195 26.0937 46.5707 25.7741 46.0913C25.9277 46.1282 26.0691 46.1712 26.1244 46.2327C26.2842 46.3986 26.5178 46.6875 26.5178 46.6937L26.7022 46.8842L26.5854 46.6629C26.5854 46.6629 26.4686 46.4355 26.5362 46.3064C26.5608 46.2634 26.5977 46.2327 26.6469 46.2204C26.8866 46.1589 26.9849 46.3986 26.9911 46.4048L27.028 46.497L27.0587 46.4048C27.0648 46.3925 27.1755 46.079 27.5258 46.0544C27.8946 46.0298 28.1897 46.0913 28.3065 46.2081L28.3311 46.2327L28.3556 46.2142C28.3618 46.2081 29.1608 45.7164 29.6649 45.6057C29.6403 45.7225 29.5973 45.993 29.6218 46.2511C29.6403 46.4663 29.6895 46.8351 29.8185 47.0317H29.6649L29.5296 46.9703L29.5112 46.9764C29.3084 47.0994 29.21 47.0379 29.21 47.0379ZM29.4129 47.8001C29.4067 47.8001 29.3637 47.8124 29.3329 47.8247C29.2223 47.8554 29.0502 47.9046 28.8597 48.0459C28.6876 48.175 28.5769 48.2795 28.4847 48.3656C28.4233 48.4209 28.3741 48.4701 28.3188 48.5131C28.2757 48.55 28.202 48.5807 28.1221 48.6176C27.784 48.3533 27.4644 48.0767 27.157 47.7755C27.2492 47.7693 27.3599 47.7693 27.5074 47.7693H28.5831H28.7183C28.8597 47.7693 29.1854 47.5911 29.3391 47.419C29.3944 47.4128 29.4497 47.4005 29.4866 47.3944C29.4989 47.4067 29.5051 47.419 29.5112 47.4313C29.5173 47.5173 29.4497 47.7509 29.4129 47.8001ZM26.5239 33.3494C27.9008 31.7451 29.7448 30.5773 31.7732 30.0179C31.0909 30.5834 30.4762 31.3517 29.9415 32.3168C28.7613 34.4373 28.1098 37.2463 28.1098 40.2336C28.1098 42.1022 28.3679 43.897 28.8474 45.5012C28.792 45.5381 28.7367 45.5873 28.6876 45.6365C28.5708 45.7533 28.497 45.7655 28.4478 45.7655C28.3925 45.7655 28.331 45.741 28.2696 45.7164C28.2081 45.6918 28.1405 45.6672 28.0667 45.661C28.0176 45.6549 27.9561 45.6549 27.8885 45.6549C27.7656 45.6549 27.3476 45.6672 27.0526 45.8024C27.0034 45.827 26.9112 45.8516 26.7329 45.8516C26.5608 45.8516 26.3334 45.827 26.0937 45.7778C25.9953 45.7594 25.688 45.6672 25.4667 45.5996C24.5263 44.0076 23.9915 42.1698 23.9915 40.2274C23.9792 37.7073 24.8828 35.261 26.5239 33.3494ZM31.681 51.488C31.6687 51.488 31.6564 51.488 31.6502 51.488C31.5396 51.4635 31.4105 51.4512 31.2753 51.4512C30.7098 51.4512 30.0521 51.6479 29.6464 51.8445C29.1363 52.0966 28.7798 52.3055 28.4909 52.4776C28.0545 52.7358 27.8578 52.8526 27.5935 52.8526C27.5381 52.8526 27.4767 52.8464 27.4029 52.8341C27.0587 52.7788 26.106 51.5188 25.4114 49.2138C25.0549 48.0336 24.8213 46.749 24.6738 45.6979C26.2658 48.5745 29.0318 50.6214 32.2464 51.2975C31.9207 51.4512 31.7609 51.488 31.681 51.488ZM29.8861 49.724C29.8984 49.7117 29.9169 49.6994 29.9292 49.6871L30.3533 49.3429C30.3779 49.4474 30.3963 49.5949 30.3779 49.7485C30.3717 49.8223 30.3471 49.8776 30.3287 49.9268C30.175 49.8653 30.0275 49.7977 29.8861 49.724ZM31.767 50.4493C31.4535 50.3632 31.1401 50.2587 30.8389 50.1481C31.0601 50.0497 31.1892 50.0006 31.1892 50.0006L31.2937 49.9637L31.1892 49.9268C31.0479 49.8776 30.802 49.7731 30.7651 49.7055C30.7282 49.6318 30.6975 49.3121 30.7467 49.1523C30.759 49.1093 30.7774 49.097 30.7835 49.0909C30.8266 49.0724 30.8696 49.0601 30.9126 49.0478C31.0048 49.0232 31.1032 48.9987 31.1954 48.9065L31.2568 48.7958L31.2261 48.7835C31.2138 48.7774 30.9618 48.7098 30.593 48.7835C30.3041 48.8388 29.9476 49.1523 29.7263 49.3429C29.6649 49.3982 29.6218 49.4351 29.5911 49.4535C29.5665 49.472 29.5296 49.4904 29.4866 49.515C29.1178 49.3121 28.7675 49.0909 28.4294 48.845C28.4294 48.845 28.4294 48.8389 28.4355 48.8389C28.4601 48.8204 28.6445 48.7036 28.6753 48.7159C28.8781 48.7774 29.1977 49.0294 29.3145 49.1523L29.3698 49.1032C29.2715 48.9618 29.0195 48.5561 29.0564 48.4024C29.0625 48.3779 29.0748 48.3717 29.0809 48.3656C29.2961 48.2426 29.5727 48.1504 29.6464 48.1504C29.7202 48.1504 29.7386 48.0644 29.7694 47.9414C29.7939 47.837 29.8247 47.7017 29.8984 47.6095C30.0398 47.419 30.2181 47.2284 30.4639 47.167C30.593 47.1916 30.6975 47.1731 30.7221 47.1485L30.7405 47.1239L30.7282 47.0994C30.7282 47.0809 30.6914 47.0748 30.636 47.0748C30.5746 47.0748 30.5192 47.0809 30.4639 47.0932C30.3902 47.0809 30.298 47.0502 30.2119 46.9887C29.9599 46.8166 29.8431 46.4724 29.8861 45.993C29.9046 45.8086 29.9292 45.4951 29.9906 45.3599C30.0583 45.2001 30.2611 45.114 30.3287 45.1079C30.3656 45.1079 30.4762 45.2308 30.5377 45.3107C30.6422 45.4336 30.7467 45.5504 30.8266 45.5689L30.9003 45.5873L30.8635 45.5197C30.7528 45.2923 30.6483 45.0157 30.6729 44.9665C30.6913 44.9358 30.7221 44.8866 30.7651 44.8866C30.7958 44.8866 30.8389 44.9173 30.8757 44.9788C30.9925 45.157 31.81 46.0913 31.9576 46.245C32.0682 46.3556 32.019 46.4908 31.976 46.6199C31.9637 46.6507 31.9576 46.6752 31.9514 46.706C31.9453 46.7244 31.9391 46.7367 31.9391 46.7613C31.9022 46.9027 31.8469 47.1178 31.6994 47.1178C31.6932 47.1178 31.6932 47.1178 31.6871 47.1178C31.4843 47.1055 31.0294 47.1854 31.011 47.1854L30.7344 47.2346L31.0171 47.2592C31.1769 47.2715 31.6133 47.3329 31.7363 47.4559C31.8285 47.5481 31.8285 47.7693 31.7732 47.9046C31.7547 47.9476 31.7178 48.0214 31.6502 48.0214C31.6195 48.0214 31.5765 48.0213 31.5642 48.0582C31.5519 48.1013 31.5888 48.1197 31.6748 48.1627C31.7609 48.2057 31.9145 48.2857 31.9207 48.3656C31.9207 48.3717 32.019 48.7344 31.8346 48.9249C31.6871 49.0786 31.7977 49.2691 31.8899 49.4228C31.9391 49.5088 31.9883 49.5887 31.9883 49.6502C31.9883 49.7916 31.7732 49.9391 31.6871 49.9821L31.5642 50.0497H31.7055C31.7117 50.0497 32.2833 50.062 32.5907 50.3816C32.6951 50.4861 32.7996 50.5906 32.9041 50.6828M33.3774 50.6214C33.3405 50.5783 33.3037 50.5415 33.2668 50.5046C33.1684 50.4001 32.9656 50.2218 32.7873 50.062C32.6583 49.9452 32.5353 49.8407 32.4923 49.7916C32.4001 49.6932 32.185 49.1339 32.2034 49.0171C32.2096 48.9864 32.2219 48.9741 32.2341 48.9495C32.2772 48.8757 32.3141 48.802 32.3141 48.6053C32.3141 48.4946 32.2895 48.3963 32.2649 48.3041C32.2219 48.1381 32.1788 47.966 32.2464 47.6341C32.271 47.5173 32.2895 47.3944 32.3018 47.2653C32.3694 46.7859 32.437 46.288 32.8058 46.1405C33.1377 46.079 33.3037 45.7717 33.4266 45.5443C33.4696 45.4644 33.5126 45.3906 33.5434 45.3599C33.6048 45.2984 33.7032 45.2308 33.7954 45.1755C33.8015 45.2492 33.8015 45.3291 33.8015 45.4152C33.8015 45.7041 33.7216 46.0544 33.6479 46.3556C33.5864 46.6261 33.5311 46.8596 33.5311 47.044C33.5311 47.2469 33.5864 47.4251 33.654 47.6341C33.7278 47.8738 33.8261 48.175 33.8569 48.6053C33.8937 49.097 33.5618 50.1112 33.3774 50.6214ZM37.3666 50.4493C37.5817 50.271 37.7907 50.0682 37.9935 49.8469C37.9935 49.9944 37.9935 50.1296 37.9997 50.2526C37.7968 50.3202 37.5817 50.3878 37.3666 50.4493ZM38.0427 48.6544C37.0347 50.0743 35.8299 50.8242 34.5699 50.8242C34.41 50.8242 34.2441 50.8242 34.0843 50.8119C34.281 50.271 34.6252 49.2076 34.576 48.55C34.5391 48.0275 34.4285 47.671 34.3424 47.4067C34.2933 47.2469 34.2502 47.1239 34.2502 47.0379C34.2502 46.9334 34.2994 46.7183 34.3486 46.5093C34.4285 46.1651 34.5207 45.7778 34.5207 45.4029C34.5207 44.948 34.4777 44.6592 34.4531 44.5239C34.576 44.3641 34.6989 44.1859 34.7666 44.0322C34.7973 43.9584 34.8403 43.9461 34.8895 43.9461C35.0186 43.9461 35.1907 44.0568 35.2583 44.106C35.3935 44.2719 35.7193 44.7022 35.7869 44.8681C35.9344 45.2246 36.6843 45.2554 36.9117 45.2554C36.9609 45.2554 37.1146 45.3476 37.2313 45.4152C37.2621 45.4336 37.2928 45.4521 37.3174 45.4644C37.4096 45.6672 38.055 47.0871 38.055 48.0398C38.055 48.2242 38.055 48.4209 38.0427 48.6544ZM37.1699 44.9357C37.176 44.8251 37.2191 44.3518 37.3297 44.1736L37.3666 44.1183C37.4895 43.9216 37.7722 43.4667 37.889 43.4667H37.8952C37.9013 43.4667 38.2332 43.4421 38.4176 43.6327C38.4176 43.6327 38.5037 43.7618 38.4361 44.2535C38.3685 44.7145 38.2824 44.8866 38.2701 44.9173C38.2701 44.9235 38.264 44.9235 38.264 44.9235L38.3254 44.9665C38.3254 44.9665 38.3254 44.9603 38.3316 44.9603C38.3623 44.905 38.5529 44.5731 38.6635 44.2043C38.7434 43.9339 38.7557 43.7986 38.7496 43.731C38.9401 43.7433 39.6408 43.8355 39.6408 44.401V44.7329H39.7146C39.7146 44.7268 39.7392 44.2535 40.0403 44.2289C40.2924 44.2166 40.5075 44.2535 40.7226 44.2904C40.7964 44.3027 40.864 44.3149 40.9316 44.3272C41.2021 44.3641 42.1548 44.3027 42.1978 44.2965L42.3576 44.2473C42.3638 44.3641 42.3515 44.7268 42.038 45.4398C41.7061 46.202 41.3434 46.583 41.2389 46.6875C41.1344 46.5523 40.7226 46.0544 40.1571 45.7778C39.6838 45.5504 39.315 45.5135 38.9217 45.4767C38.768 45.4644 38.6143 45.4459 38.4484 45.4213C37.9321 45.323 37.2928 44.9972 37.1699 44.9357ZM42.5666 44.1305L42.9047 44.0138L43.046 44.0691L43.2304 44.2043L43.3288 44.0015C43.3472 43.9892 43.4025 43.9584 43.4579 43.94C43.4333 44.0322 43.4148 44.2227 43.5501 44.4686L43.6177 44.5977V44.4502C43.6177 44.3027 43.6607 43.9093 43.8451 43.8171C43.9619 43.7617 44.0664 43.8048 44.1217 43.8601C44.2323 43.9707 44.3122 44.1367 44.3553 44.3026C44.2815 44.4748 44.2077 44.6469 44.1278 44.8128C43.8635 44.8313 43.4763 44.8804 43.2243 45.0402C42.8248 45.2984 42.8063 45.3414 42.8616 45.5074C42.8678 45.5258 43.003 45.9008 43.3718 46.1343C43.2673 46.288 43.1567 46.4417 43.046 46.5953C42.96 46.4663 42.8555 46.3249 42.7633 46.2265C42.6711 46.1282 42.6342 46.1159 42.6035 46.122C42.5359 46.1405 42.4928 46.8535 42.4744 47.296C42.2285 47.5726 41.9581 47.837 41.6815 48.089C41.6446 47.7263 41.577 47.2715 41.4356 46.9764C41.5401 46.8412 42.1425 46.036 42.3638 45.4521C42.5666 44.8927 42.5666 44.2719 42.5666 44.1305ZM43.9312 45.1939C43.8267 45.3967 43.7099 45.5934 43.5931 45.7901L43.212 45.4336C43.3288 45.3599 43.6054 45.2861 43.7898 45.2246C43.8328 45.2123 43.8758 45.2001 43.9312 45.1939ZM38.2271 45.7778C38.3131 45.7901 38.4115 45.8086 38.5098 45.8209C38.7926 45.8639 39.1245 45.9192 39.3888 45.9745C39.1983 46.5154 38.977 47.0317 38.7311 47.5112C38.6389 46.9088 38.4115 46.2511 38.2271 45.7778ZM38.7373 49.2138C38.7434 49.1093 38.7496 48.9925 38.7496 48.8819C38.9032 48.6545 39.0569 48.4086 39.1983 48.1504C39.524 47.5665 39.8068 46.9273 40.0526 46.2511C40.5075 46.5216 41.0976 46.9949 41.2082 47.5419C41.2758 47.88 41.3127 48.1689 41.3373 48.384C40.5567 49.0294 39.6777 49.5703 38.7127 49.9821C38.7127 49.7485 38.725 49.4781 38.7373 49.2138ZM44.1156 48.4209C43.1751 51.9552 42.1118 52.9632 41.9335 53.0185C41.8536 53.0001 41.7553 52.871 41.5954 52.6743C41.3557 52.367 41.0607 51.9798 40.4952 51.697L40.4153 51.654C39.4072 51.15 39.0507 50.9656 38.8725 50.6828C41.5278 49.5887 43.6546 47.5296 44.847 44.9419C44.6749 46.0606 44.4352 47.2284 44.1156 48.4209ZM44.5089 43.9093C44.429 43.731 44.3245 43.5712 44.1893 43.4913C44.1156 43.4483 44.0295 43.4237 43.9312 43.4237C43.6177 43.4237 43.2735 43.645 43.1259 43.7556C43.0891 43.731 43.046 43.7126 42.9907 43.7064H42.9846H42.9661C42.9047 43.7064 42.8432 43.731 42.751 43.7679C42.6035 43.8294 42.3822 43.9154 42.038 43.94C42.0011 43.94 41.9704 43.9461 41.9274 43.9461C41.5954 43.9461 41.1037 43.8724 40.7042 43.8109C40.9193 42.6738 41.0299 41.4752 41.0299 40.2459C41.0299 37.2586 40.3784 34.4496 39.1983 32.329C38.6635 31.3702 38.0488 30.5957 37.3666 30.0302C41.9151 31.278 45.1543 35.4761 45.1543 40.2459C45.1605 41.5121 44.9331 42.7537 44.5089 43.9093Z" fill="#C5203E"/>
<path d="M31.687 50.4185C31.6747 50.4124 31.6685 50.4124 31.6562 50.4062C31.6624 50.4124 31.6747 50.4185 31.687 50.4185Z" fill="#C5203E"/>
<path d="M31.6325 50.4008C31.62 50.3945 31.6137 50.3945 31.6074 50.3945C31.6074 50.3945 31.62 50.4008 31.6325 50.4008Z" fill="#C5203E"/>
<path d="M31.7006 50.4265C31.6941 50.4265 31.6875 50.4199 31.6875 50.4199C31.6941 50.4199 31.6941 50.4265 31.7006 50.4265Z" fill="#C5203E"/>
</svg>
