<svg width="236" height="34" viewBox="0 0 236 34" fill="none" xmlns="http://www.w3.org/2000/svg">
<g clip-path="url(#clip0_78_2465)">
<path d="M64.1924 13.7522C62.6589 14.6797 60.0072 15.4152 56.1929 15.4152C49.8032 15.4152 47.1071 12.1152 41.2836 12.1152C36.5348 12.1152 34.5726 13.6202 33.4979 14.3584V14.3662H33.4908H33.4846V14.3584L33.3959 14.2958L33.4571 17.5637C33.3586 17.496 33.2494 17.4213 33.1367 17.3457C33.2911 17.4491 33.4322 17.5463 33.5591 17.6314C34.6525 16.869 36.6466 15.3015 41.4921 15.3015C47.423 15.3015 50.1715 18.7231 56.6792 18.7231C60.5645 18.7231 63.2606 17.9606 64.8199 16.9992L64.1924 13.7522Z" fill="#C82B36"/>
<path d="M63.0131 7.57618C61.5257 8.4446 58.9627 9.12456 55.2833 9.12456C49.1137 9.12456 46.525 6.04688 40.8976 6.04688C36.3094 6.04688 34.4129 7.45198 33.3737 8.1389V8.14672H33.3684H33.3622V8.1389L33.2734 8.08073L33.3311 11.1202C33.3631 11.1419 33.3977 11.1654 33.4287 11.1845C34.4839 10.4741 36.4115 9.01341 41.0866 9.01341C46.8116 9.01341 49.4527 12.1996 55.7297 12.1996C59.4739 12.1996 62.0803 11.4901 63.5917 10.5957L63.0131 7.57618Z" fill="#C82B36"/>
<path d="M61.9084 1.80246C60.4654 2.60923 57.9849 3.24752 54.4325 3.24752C48.4714 3.24752 45.9767 0.373047 40.5349 0.373047C36.0913 0.373047 34.257 1.69045 33.2577 2.33134L33.1689 2.27227L33.2231 5.12244L33.318 5.18236C34.3395 4.51888 36.2014 3.15632 40.7203 3.15632C46.2527 3.15632 48.7962 6.12981 54.8575 6.12981C58.4722 6.12981 60.9917 5.46979 62.4595 4.63437L61.9084 1.80246Z" fill="#C82B36"/>
<path d="M9.73042 25.7382C16.4866 25.7382 19.2094 22.0535 25.363 22.0535C30.3869 22.0535 32.5203 23.74 33.6882 24.5615C34.8224 23.74 36.8884 22.0535 41.915 22.0535C48.0668 22.0535 50.9333 25.7382 57.6896 25.7382C61.7222 25.7382 64.523 24.9176 66.1311 23.8807L65.4628 20.3861C63.8778 21.3848 61.1302 22.1742 57.1739 22.1742C50.5437 22.1742 47.7376 18.625 41.6976 18.625C36.7739 18.625 34.7417 20.2428 33.6217 21.0366V21.0453L33.6155 21.0409C33.6135 21.0429 33.6111 21.0444 33.6084 21.0453V21.0366C32.4636 20.2428 30.3692 18.625 25.4438 18.625C19.4046 18.625 16.7342 22.1742 10.1049 22.1742C6.08829 22.1742 3.28304 21.3596 1.67408 20.341L1.1416 23.8338C2.78251 24.8915 5.63924 25.7374 9.73131 25.7374" fill="#C82B36"/>
<path d="M66.8276 27.5303C65.1884 28.6063 62.3397 29.4617 58.2281 29.4617C51.3405 29.4617 48.411 25.6328 42.1411 25.6328C37.0303 25.6328 34.9217 27.3775 33.7644 28.2329V28.2433L33.7573 28.2363L33.752 28.2433V28.2329C32.5601 27.3775 30.385 25.6328 25.275 25.6328C19.0051 25.6328 16.2229 29.4617 9.33713 29.4617C5.16608 29.4617 2.25433 28.582 0.585018 27.4834L0.00195312 31.3149C1.69966 32.4586 4.66644 33.373 8.92269 33.373C15.9478 33.373 18.7894 29.3913 25.1818 29.3913C30.3939 29.3913 32.6125 31.2046 33.8274 32.0956V32.106C33.8301 32.1051 33.8325 32.1036 33.8345 32.1017L33.8416 32.106V32.0956C35.0211 31.2055 37.1696 29.3913 42.3825 29.3913C48.7722 29.3913 51.7709 33.373 58.8005 33.373C62.9955 33.373 65.9002 32.4838 67.5686 31.3635L66.8276 27.5303Z" fill="#C82B36"/>
<path d="M33.2558 2.33047C32.2068 1.67133 30.2127 0.373047 25.8988 0.373047C20.4569 0.373047 18.075 3.24752 12.1148 3.24752C8.50195 3.24752 5.97003 2.58837 4.50306 1.76337L2.18945 16.9607C3.77534 17.9421 6.53179 18.7271 10.4748 18.7271C16.9825 18.7271 19.5987 15.3064 25.5278 15.3064C30.2314 15.3064 32.4074 16.8522 33.5531 17.6346L33.2558 2.33047ZM28.996 2.67783L29.3359 1.92403L29.6687 2.67783H30.7594L29.8773 3.14678L30.2163 3.91272L29.3288 3.43857L28.4414 3.91272L28.7866 3.14678L27.9071 2.67783H28.996ZM28.9774 5.92312L29.3226 5.14154L29.6625 5.92312H30.7736L29.8737 6.41031L30.2189 7.20492L29.3155 6.71251L28.4076 7.20492L28.7626 6.41031L27.8654 5.92312H28.9774ZM28.957 9.29347L29.312 8.47888L29.6581 9.29347H30.7931L29.8746 9.79889L30.2296 10.6265L29.3066 10.1141L28.3801 10.6265L28.7395 9.79889L27.8263 9.29347H28.957ZM6.79981 16.9356L5.91235 16.3859L4.88289 16.9356L5.37011 16.0489L4.4933 15.5044H5.66741L6.14486 14.6299L6.39157 15.5044H7.56657L6.5451 16.0489L6.79981 16.9356ZM7.01634 12.4146L7.26572 13.2656L6.39778 12.7385L5.38963 13.2656L5.86354 12.4146L5.00359 11.8935H6.15728L6.6232 11.0546L6.86725 11.89H8.02095L7.01634 12.4146ZM7.46717 8.92353L7.71389 9.74244L6.86725 9.23268L5.8804 9.73897L6.34187 8.92003L5.4979 8.41811H6.62674L7.08112 7.61133L7.32252 8.41811H8.45136L7.46717 8.92353ZM7.90114 5.56619L8.14342 6.35473L7.30654 5.86579L6.34098 6.35473L6.79182 5.56619L5.96293 5.08335H7.06959L7.51332 4.30699L7.75205 5.08335H8.86403L7.90114 5.56619ZM11.5397 17.2447L10.6398 16.6924L9.62192 17.2447L10.0861 16.3546L9.19328 15.8092H10.37L10.8253 14.9321L11.096 15.8092H12.2719L11.2637 16.3546L11.5397 17.2447ZM11.64 12.709L11.9116 13.5635L11.0241 13.0337L10.0284 13.5635L10.481 12.709L9.60506 12.1879H10.7588L11.2025 11.3464L11.4687 12.1879H12.6224L11.64 12.709ZM12.0003 9.20575L12.2665 10.0273L11.3995 9.51924L10.4233 10.0273L10.867 9.20575L10.008 8.70208H11.1368L11.5726 7.89358L11.8388 8.70208H12.9694L12.0003 9.20575ZM12.3464 5.83889L12.6127 6.62829L11.7616 6.13935L10.8067 6.62829L11.2398 5.83889L10.3958 5.35518H11.5024L11.9266 4.5736L12.1867 5.35518H13.2951L12.3464 5.83889ZM16.3089 16.6073L15.3984 16.0585L14.3991 16.6073L14.8384 15.7233L13.9359 15.1822H15.1073L15.5386 14.3138L15.8306 15.1822H17.002L16.0116 15.7233L16.3089 16.6073ZM16.2903 12.1028L16.5823 12.9521L15.6895 12.4267L14.7133 12.9521L15.1428 12.1028L14.2553 11.5817H15.4037L15.8261 10.7455L16.1137 11.5817H17.2612L16.2903 12.1028ZM16.5565 8.62392L16.8458 9.43937L15.969 8.93479L15.0097 9.43937L15.4303 8.62392L14.5597 8.12369H15.685L16.0986 7.31954L16.3817 8.12369H17.507L16.5565 8.62392ZM16.8148 5.27875L17.0996 6.06032L16.2379 5.57488L15.299 6.06032L15.709 5.27875L14.8553 4.79853H15.961L16.3639 4.02562L16.6426 4.79853H17.7475L16.8148 5.27875ZM20.6921 15.0997L19.7762 14.5613L18.8 15.0997L19.2153 14.2313L18.3066 13.699H19.4692L19.8756 12.8427L20.1871 13.699H21.3497L20.3797 14.2313L20.6921 15.0997ZM20.5678 10.6708L20.8784 11.5053L19.9786 10.9843L19.0201 11.5053L19.4266 10.6708L18.5338 10.1584H19.6742L20.0717 9.33516L20.377 10.1584H21.5165L20.5678 10.6708ZM20.7506 7.24573L21.0577 8.04989L20.1702 7.55228L19.2313 8.04989L19.6289 7.24573L18.753 6.75507H19.8703L20.2599 5.96306L20.5607 6.75507H21.6878L20.7506 7.24573ZM20.9281 3.95441L21.2281 4.72644L20.3619 4.24795L19.4408 4.72644L19.8295 3.95441L18.9713 3.48111H20.0673L20.4498 2.71952L20.7453 3.48111H21.8413L20.9281 3.95441ZM24.9181 13.1058L25.2536 13.9647L24.3307 13.4324L23.3713 13.9647L23.7618 13.1058L22.8415 12.5848H23.9952L24.3795 11.7381L24.7096 12.5848H25.8633L24.9181 13.1058ZM25.0175 9.58786L25.3477 10.4129L24.4416 9.90222L23.5018 10.4129L23.8843 9.58786L22.9853 9.08243H24.1177L24.4931 8.27046L24.8161 9.08243H25.9476L25.0175 9.58786ZM25.1152 6.20621L25.4391 6.99995L24.5516 6.50757L23.6296 6.99995L24.0032 6.20621L23.1219 5.7199H24.2313L24.5996 4.93833L24.9173 5.7199H26.0284L25.1152 6.20621ZM25.2039 2.95138L25.5216 3.71472L24.6493 3.24142L23.7449 3.71472L24.1115 2.95138L23.2462 2.4833H24.3351L24.6954 1.73125L25.0087 2.4833H26.0976L25.2039 2.95138ZM30.2305 14.1818L29.2898 13.6495L28.3455 14.1818L28.712 13.3212L27.7802 12.7941H28.9339L29.2933 11.9465L29.6483 12.7941H30.802L29.8657 13.3212L30.2305 14.1818Z" fill="#15397F"/>
<path d="M87.6473 13.0271C87.6473 13.6775 87.6695 14.1986 88.0023 14.4591C86.2831 15.4811 84.3162 16.0351 82.3048 16.064C77.2064 16.064 74.2139 12.7231 74.2139 8.9707C74.2139 5.34852 77.7167 1.26953 82.6145 1.26953C84.3093 1.31457 85.9675 1.76159 87.4468 2.57216C87.6815 3.53896 87.7341 4.53952 87.6021 5.52479C87.5799 5.67589 87.2267 5.61165 87.2267 5.54652C87.0935 3.83313 85.142 1.92347 82.0794 1.92347C78.755 1.92347 76.2506 4.24389 76.2506 8.17089C76.2506 12.9472 79.3309 15.3953 82.524 15.3953C84.8953 15.3953 85.4722 14.6571 85.5831 14.3098C85.6807 13.853 85.7251 13.3868 85.7153 12.9203C85.7153 10.1222 85.5831 9.94854 83.2304 9.77573C83.1186 9.77573 83.0068 9.34151 83.2517 9.3858C84.4677 9.50077 85.6895 9.54427 86.9107 9.51606C87.8295 9.52165 88.7479 9.47817 89.6618 9.3858C89.8393 9.34238 89.7941 9.77573 89.6849 9.77573C87.6438 9.92683 87.6438 10.2733 87.6438 13.0288" fill="#2D3436"/>
<path d="M99.3017 15.7155C98.6805 15.7155 97.6395 15.6287 96.3979 15.6287C94.7118 15.6287 92.6955 15.6287 91.4548 15.7155C91.3217 15.7155 91.3882 15.3039 91.4548 15.3039C93.141 15.1094 93.2945 14.8914 93.2945 12.8307V7.93188C93.2945 5.87111 93.1392 5.61147 91.4548 5.43692C91.3882 5.43692 91.3217 4.98099 91.4548 5.0027C92.6972 5.11126 94.6496 5.13209 96.3314 5.13209C97.5286 5.13209 98.6592 5.08955 99.6789 5.0027C99.5991 5.37381 99.5619 5.75246 99.5679 6.13164C99.5679 6.30533 99.5679 6.78211 99.5901 6.89066C99.5901 6.93408 99.1686 6.95579 99.1686 6.91324C99.0355 6.19766 98.7701 5.84942 96.6207 5.84942H95.1795C95.0993 6.51214 95.0697 7.17976 95.0907 7.84678V9.84416H96.1991C98.0628 9.84416 98.1942 9.80074 98.3708 9.10687C98.3708 9.06345 98.7923 9.0426 98.771 9.15028C98.7037 9.57366 98.674 10.0019 98.6822 10.4303V11.3639C98.5439 11.3937 98.4015 11.401 98.2607 11.3856C98.1054 10.5398 97.9732 10.4737 96.1991 10.4737H95.0907V12.6214C95.0907 14.7056 95.2007 14.8992 95.9551 14.8992H96.8204C99.37 14.8992 99.4357 14.5519 99.6798 13.4889C99.6798 13.4672 100.123 13.4672 100.123 13.5323C100.058 13.944 99.8572 15.0086 99.7685 15.3326C99.6797 15.6565 99.591 15.7234 99.2999 15.7234" fill="#2D3436"/>
<path d="M102.817 10.5528C102.889 8.97525 103.592 7.48852 104.774 6.41334C105.956 5.33817 107.522 4.76073 109.135 4.80559C110.663 4.75826 112.149 5.30014 113.273 6.31452C114.397 7.3289 115.068 8.73461 115.143 10.2289C115.07 11.8041 114.366 13.2878 113.184 14.3593C112.002 15.4307 110.436 16.0037 108.825 15.9544C107.301 16.0026 105.818 15.4639 104.694 14.454C103.571 13.4441 102.897 12.0435 102.817 10.5528ZM104.658 9.85806C104.658 13.4186 106.986 15.2596 109.203 15.2596C111.574 15.2596 113.303 13.8276 113.303 10.9175C113.303 7.35701 110.953 5.47255 108.737 5.47255C106.365 5.47255 104.654 6.92714 104.654 9.85459" fill="#2D3436"/>
<path d="M121.951 11.0311C121.737 11.0348 121.522 11.0269 121.308 11.0076V12.8313C121.308 14.7835 121.463 15.176 122.971 15.3045C123.037 15.3045 123.083 15.7587 122.948 15.7153C122.439 15.6511 121.308 15.6285 120.599 15.6285C119.674 15.61 118.749 15.639 117.827 15.7153C117.694 15.7587 117.761 15.3045 117.827 15.3045C119.268 15.1526 119.535 14.8921 119.535 12.8313V7.92991C119.535 6.04283 119.18 5.63035 118.404 5.63035C118.195 5.63404 117.987 5.65582 117.783 5.69546C117.694 5.73889 117.582 5.32728 117.717 5.30557C119.202 5.05441 120.71 4.95282 122.216 5.00246C125.208 5.00246 126.805 5.9343 126.805 7.67114C126.761 8.27216 126.538 8.84743 126.164 9.32588C125.789 9.80434 125.28 10.165 124.699 10.3632C125.586 12.576 127.691 15.5694 129.621 15.5694C129.687 15.5694 129.754 15.9819 129.621 15.9819C125.983 15.9819 123.923 13.4635 123.192 10.906C122.785 11.0009 122.367 11.0447 121.949 11.0363M121.439 5.67723C121.316 6.37178 121.272 7.07737 121.306 7.78142V10.3867C121.512 10.4044 121.72 10.4116 121.927 10.4084C124.122 10.4084 124.987 9.58427 124.987 8.10883C124.987 6.28514 123.922 5.63554 121.994 5.63554C121.809 5.63424 121.623 5.64908 121.44 5.67986" fill="#2D3436"/>
<path d="M141.182 14.7402C139.836 15.5166 138.306 15.9357 136.744 15.956C132.91 15.956 130.56 13.4376 130.56 10.6196C130.63 9.01245 131.348 7.49814 132.558 6.40837C133.767 5.31859 135.368 4.7422 137.011 4.80549C138.276 4.8302 139.513 5.17423 140.602 5.8042C140.825 6.62482 140.892 7.4783 140.801 8.32261C140.801 8.43117 140.379 8.38774 140.379 8.34432C140.215 7.49559 139.738 6.73528 139.04 6.20719C138.341 5.6791 137.469 5.41988 136.588 5.47854C134.103 5.47854 132.417 7.08336 132.417 10.0125C132.417 13.5488 134.547 15.2622 136.939 15.2622C138.668 15.2622 138.935 14.8505 139.022 14.6117C139.103 14.2702 139.141 13.9201 139.134 13.5696C139.134 11.4854 139.068 11.3985 137.294 11.27C137.227 11.27 137.16 10.8358 137.294 10.8584C138.004 10.9227 139.246 10.9669 140.222 10.9669C140.955 10.9743 141.688 10.9454 142.418 10.8801C142.551 10.8384 142.507 11.2718 142.44 11.2718C140.931 11.402 140.931 11.5965 140.931 13.6582C140.877 14.0361 140.963 14.4207 141.175 14.7411" fill="#2D3436"/>
<path d="M152.428 15.7155C151.806 15.7155 150.765 15.6287 149.524 15.6287C147.838 15.6287 145.821 15.6287 144.581 15.7155C144.448 15.7155 144.514 15.3039 144.581 15.3039C146.267 15.1094 146.42 14.8914 146.42 12.8307V7.93188C146.42 5.87111 146.265 5.61147 144.581 5.43692C144.514 5.43692 144.448 4.98099 144.581 5.0027C145.823 5.11126 147.776 5.13209 149.457 5.13209C150.655 5.13209 151.785 5.08955 152.805 5.0027C152.725 5.37381 152.688 5.75246 152.694 6.13164C152.694 6.30533 152.694 6.78211 152.716 6.89066C152.716 6.93408 152.295 6.95579 152.295 6.91324C152.161 6.19766 151.896 5.84942 149.747 5.84942H148.305C148.225 6.51214 148.196 7.17976 148.217 7.84678V9.84416H149.325C151.189 9.84416 151.32 9.80074 151.497 9.10687C151.497 9.06345 151.918 9.0426 151.897 9.15028C151.83 9.57366 151.8 10.0019 151.808 10.4303V11.3639C151.67 11.3937 151.527 11.401 151.387 11.3856C151.231 10.5398 151.099 10.4737 149.325 10.4737H148.218V12.6214C148.218 14.7056 148.328 14.8992 149.082 14.8992H149.946C152.496 14.8992 152.562 14.5519 152.806 13.4889C152.806 13.4672 153.249 13.4672 153.249 13.5323C153.184 13.944 152.983 15.0086 152.894 15.3326C152.806 15.6565 152.717 15.7234 152.428 15.7234" fill="#2D3436"/>
<path d="M177.02 5.43397L172.543 15.9115C172.521 15.9423 172.492 15.9672 172.458 15.9837C172.424 16.0002 172.386 16.0077 172.349 16.0055C172.311 16.0033 172.274 15.9915 172.242 15.9712C172.21 15.9509 172.185 15.9228 172.167 15.8897L168.815 6.69144L164.67 15.9106C164.626 16.0191 164.337 16.0617 164.27 15.8889L159.994 5.43222C158.929 2.82696 158.574 2.09141 156.826 1.9403C156.714 1.9403 156.625 1.55039 156.847 1.57036C157.634 1.66436 158.426 1.70787 159.218 1.70062C160.403 1.71806 161.588 1.67459 162.768 1.57036C162.991 1.54952 162.857 1.9403 162.79 1.9403C161.771 2.02715 161.217 2.15655 161.217 2.74273C161.382 3.65102 161.65 4.5385 162.016 5.38881L165.186 13.1117L168.469 5.69274L168.357 5.43222C167.271 2.89469 167.026 2.09141 165.34 1.9403C165.273 1.9403 165.185 1.55039 165.362 1.57036C166.149 1.66374 166.941 1.70724 167.733 1.70062C168.931 1.70062 170.615 1.67891 171.479 1.57036C171.657 1.52781 171.59 1.9403 171.524 1.9403C170.15 2.04886 169.705 2.20084 169.705 2.85129C169.81 3.72249 170.033 4.576 170.37 5.38881L173.054 13.1117L176.223 5.28198C176.624 4.48947 176.894 3.6393 177.022 2.76356C177.022 2.2208 176.667 2.04798 175.58 1.93943C175.515 1.93943 175.38 1.54951 175.603 1.56949C176.331 1.66416 177.064 1.70769 177.798 1.69974C178.495 1.72183 179.193 1.67822 179.881 1.56949C180.058 1.52693 179.97 1.93943 179.904 1.93943C178.508 2.07056 178.065 3.00325 177.022 5.43222" fill="#2D3436"/>
<path d="M176.555 15.9559C176.315 15.955 176.084 15.861 175.914 15.6944C175.743 15.5278 175.647 15.3022 175.647 15.0666C175.646 14.944 175.67 14.8224 175.717 14.7089C175.765 14.5955 175.835 14.4924 175.923 14.4056C176.012 14.3189 176.117 14.2503 176.233 14.2038C176.349 14.1573 176.473 14.1339 176.599 14.1348C176.842 14.1352 177.075 14.2283 177.249 14.3943C177.423 14.5604 177.524 14.7863 177.531 15.0241C177.524 15.2733 177.419 15.5103 177.236 15.6844C177.054 15.8585 176.809 15.956 176.554 15.9559" fill="#2D3436"/>
<path d="M189.947 15.7127C189.193 15.7127 187.686 15.6258 187.154 15.6258C186.066 15.6077 184.979 15.6509 183.896 15.7553C183.673 15.7778 183.807 15.3436 183.872 15.3436C185.846 15.1491 185.957 15.1699 185.957 11.9168V5.40801C185.957 2.15491 185.845 2.15491 183.872 1.93433C183.807 1.93433 183.673 1.54442 183.896 1.56526C184.852 1.67174 185.814 1.71525 186.776 1.69552C187.287 1.69552 188.75 1.60867 189.481 1.60867C192.008 1.60867 194.096 2.73762 194.096 4.88436C194.096 6.12186 192.898 7.44446 191.256 7.92383C193.695 8.03325 195.446 9.46529 195.446 11.3732C195.446 13.8048 193.316 15.7153 189.949 15.7153M188.419 8.31895C188.307 8.34066 188.307 7.90732 188.419 7.90732C191.101 7.90732 192.209 7.19176 192.209 5.15184C192.209 2.96082 190.856 2.19919 188.951 2.19919C188.653 2.19712 188.355 2.22624 188.064 2.28604C187.893 3.31108 187.834 4.3508 187.886 5.38803V12.0254C187.886 14.846 188.041 15.1057 189.726 15.1057C192.187 15.1057 193.472 14.2815 193.472 11.7188C193.472 9.59206 191.566 7.98462 188.413 8.31288" fill="#2D3436"/>
<path d="M208.98 11.8759C208.98 14.0877 207.272 15.9574 204.302 15.9574C201.729 15.9574 199.536 14.3743 199.536 11.7716V7.95058C199.536 5.88894 199.292 5.60584 197.85 5.43216C197.785 5.43216 197.74 4.99794 197.873 5.04223C198.787 5.13066 199.707 5.15968 200.625 5.12908C201.334 5.12908 202.442 5.10737 202.974 5.04223C203.107 4.99968 203.107 5.43216 202.997 5.43216C201.488 5.56242 201.357 5.99663 201.357 7.95058V11.4C201.357 13.9375 203.043 15.0655 204.749 15.0655C206.988 15.0655 208.163 13.8932 208.163 11.6596V7.79774C208.163 5.93237 207.919 5.60672 206.477 5.43303C206.365 5.41132 206.365 4.99882 206.5 5.04311C207.22 5.13235 207.947 5.16141 208.672 5.12996C209.316 5.13759 209.96 5.10859 210.6 5.04311C210.778 5.0214 210.689 5.43303 210.645 5.43303C209.115 5.5633 208.983 6.04092 208.983 7.79774V11.8793L208.98 11.8759Z" fill="#2D3436"/>
<path d="M213.305 14.7582C213.243 13.948 213.258 13.1341 213.349 12.3266C213.349 12.2189 213.747 12.2614 213.747 12.3049C213.88 13.9549 214.766 15.2575 216.499 15.2575C216.75 15.2861 217.005 15.2627 217.247 15.1887C217.489 15.1148 217.712 14.992 217.902 14.8282C218.092 14.6645 218.245 14.4635 218.351 14.2382C218.457 14.013 218.513 13.7685 218.516 13.5207C218.516 10.8086 213.635 10.8086 213.635 7.83685C213.683 6.99315 214.068 6.20169 214.706 5.63312C215.345 5.06455 216.187 4.7644 217.05 4.79738C217.818 4.79187 218.573 5.0029 219.222 5.40528C219.483 6.06881 219.588 6.78085 219.532 7.48949C219.532 7.55462 219.088 7.55462 219.088 7.48949C219.049 6.94461 218.801 6.43432 218.394 6.06042C217.987 5.68651 217.451 5.47646 216.893 5.47215C215.852 5.47215 215.076 5.9715 215.076 6.97018C215.076 9.57544 219.868 9.50768 219.868 12.6305C219.868 13.0774 219.776 13.5197 219.597 13.9309C219.418 14.3421 219.156 14.7138 218.827 15.0237C218.498 15.3335 218.108 15.5753 217.682 15.7344C217.255 15.8935 216.8 15.9667 216.343 15.9496C215.215 15.9339 214.133 15.509 213.306 14.7573" fill="#2D3436"/>
<path d="M230.776 15.7155C230.664 15.7373 230.707 15.3039 230.776 15.3039C232.061 15.1519 232.305 14.848 232.305 12.8307V10.6179H226.364V12.8307C226.364 14.7412 226.542 15.1954 227.873 15.3039C227.941 15.3039 227.985 15.7598 227.852 15.7155C227.319 15.6504 226.343 15.6287 225.633 15.6287C224.681 15.6287 223.438 15.6287 222.729 15.7155C222.596 15.759 222.663 15.3039 222.729 15.3039C224.415 15.1094 224.569 14.8914 224.569 12.8307V7.93188C224.569 5.87111 224.414 5.61147 222.729 5.43692C222.663 5.43692 222.618 4.98099 222.751 5.02441C223.709 5.11988 224.672 5.15613 225.634 5.13296C226.375 5.13391 227.115 5.09768 227.853 5.02441C227.985 4.98186 227.941 5.43692 227.874 5.43692C226.543 5.54547 226.365 6.00138 226.365 7.93188V9.99265H232.306V7.93188C232.306 5.89282 232.062 5.56718 230.777 5.43692C230.708 5.43692 230.665 4.98099 230.777 5.0027C231.637 5.10675 232.503 5.14998 233.37 5.13209C234.101 5.13209 235.387 5.08954 235.897 5.02354C236.03 4.98098 236.03 5.43604 235.919 5.43604C234.192 5.5663 234.102 5.97708 234.102 7.93103V12.8333C234.102 14.7855 234.191 15.1537 235.919 15.3065C236.03 15.3065 236.03 15.7624 235.897 15.7181C235.387 15.653 234.101 15.6313 233.37 15.6313C232.504 15.6137 231.638 15.6427 230.776 15.7181" fill="#2D3436"/>
<path d="M85.7071 27.4873H85.448C85.3681 27.4873 85.3681 27.1869 85.448 27.1869C85.5128 27.1869 85.6095 27.2016 85.6912 27.2016C87.6152 27.2016 88.5213 26.4418 88.5213 24.718C88.5213 23.1201 87.5983 22.2812 85.9015 22.2812C85.6633 22.2788 85.4254 22.3 85.1915 22.3446C85.0667 23.0906 85.023 23.8474 85.0611 24.6025V29.3788C85.0611 31.6367 85.0611 31.7513 86.5485 31.879C86.6283 31.879 86.6612 32.1959 86.5316 32.1638C85.8657 32.0959 85.1964 32.0643 84.5268 32.0691C83.7334 32.056 82.9399 32.0876 82.1502 32.1638C81.9887 32.1803 82.0854 31.879 82.1325 31.879C83.571 31.7209 83.6545 31.7383 83.6545 29.3788V24.6163C83.6545 22.243 83.5719 22.2586 82.1325 22.0979C82.0854 22.0979 81.9887 21.7975 82.1502 21.8131C82.847 21.8991 83.5497 21.931 84.2517 21.9086C84.6555 21.9086 85.7391 21.8452 86.3372 21.8452C88.4876 21.8452 89.959 22.8743 89.959 24.4557C89.959 26.2907 88.2941 27.4778 85.7071 27.4778" fill="#2D3436"/>
<path d="M94.1895 28.9241C94.0209 28.9241 93.9144 28.9241 93.7458 28.9111V30.1633C93.7458 31.5077 93.8532 31.7769 94.8906 31.8663C94.9368 31.8663 94.966 32.1798 94.8755 32.1512C94.5205 32.1051 93.7467 32.0912 93.2577 32.0912C92.6213 32.0782 91.9847 32.0982 91.3505 32.1512C91.2618 32.1798 91.3035 31.8663 91.3505 31.8663C92.3427 31.763 92.5255 31.5832 92.5255 30.1633V26.7895C92.5255 25.4869 92.2815 25.2064 91.7463 25.2064C91.603 25.209 91.4601 25.2241 91.3195 25.2515C91.2582 25.2819 91.1828 24.9971 91.2733 24.9832C92.296 24.8101 93.3341 24.74 94.3714 24.7739C96.4312 24.7739 97.5308 25.4166 97.5308 26.6115C97.5005 27.025 97.347 27.4208 97.0893 27.7499C96.8315 28.0789 96.4809 28.3268 96.0807 28.463C96.6913 29.987 98.1405 32.0469 99.4681 32.0469C99.5143 32.0469 99.5568 32.33 99.4681 32.33C98.4343 32.3267 97.4325 31.9788 96.628 31.3435C95.8234 30.7082 95.2641 29.8236 95.0423 28.8355C94.7629 28.9009 94.4759 28.9301 94.1886 28.9224M93.8336 25.2342C93.7499 25.7127 93.7201 26.1987 93.7449 26.6836V28.4751C93.8869 28.4871 94.0293 28.492 94.1718 28.4899C95.6804 28.4899 96.2777 27.9228 96.2777 26.9068C96.2777 25.6536 95.5456 25.2047 94.2179 25.2047C94.0901 25.2035 93.9624 25.2134 93.8363 25.2342" fill="#2D3436"/>
<path d="M105.491 32.1503C105.064 32.1503 104.346 32.0904 103.492 32.0904C102.332 32.0904 100.944 32.0904 100.089 32.1503C100 32.1503 100.043 31.8672 100.089 31.8672C101.249 31.7326 101.355 31.5832 101.355 30.1642V26.7904C101.355 25.3714 101.248 25.1916 100.089 25.0727C100.043 25.0727 100 24.7592 100.089 24.7739C100.944 24.8495 102.286 24.8608 103.445 24.8608C104.27 24.8608 105.048 24.8313 105.753 24.7739C105.698 25.0291 105.672 25.2895 105.675 25.5503C105.675 25.6693 105.675 25.9984 105.691 26.0714C105.691 26.1009 105.399 26.1174 105.399 26.0861C105.311 25.5929 105.125 25.354 103.645 25.354H102.654C102.598 25.8095 102.577 26.2685 102.592 26.727V28.1017H103.356C104.636 28.1017 104.729 28.0722 104.851 27.5937C104.851 27.5633 105.141 27.5486 105.125 27.6232C105.079 27.9148 105.059 28.2097 105.065 28.5047V29.1464C104.97 29.1673 104.872 29.1723 104.775 29.1612C104.666 28.5794 104.576 28.5342 103.355 28.5342H102.591V30.0105C102.591 31.4443 102.668 31.5789 103.187 31.5789H103.782C105.536 31.5789 105.582 31.3401 105.75 30.608C105.75 30.5932 106.054 30.5932 106.054 30.6375C106.008 30.9215 105.872 31.6536 105.81 31.8767C105.749 32.0999 105.689 32.1451 105.49 32.1451" fill="#2D3436"/>
<path d="M108.557 31.4922C108.514 30.9346 108.525 30.3744 108.587 29.8187C108.587 29.7449 108.862 29.7736 108.862 29.804C108.951 30.939 109.563 31.8343 110.754 31.8343C110.928 31.8544 111.103 31.8387 111.27 31.788C111.436 31.7373 111.59 31.6528 111.721 31.5401C111.852 31.4273 111.958 31.2889 112.03 31.1337C112.103 30.9785 112.142 30.8101 112.143 30.6394C112.143 28.7722 108.785 28.7722 108.785 26.7315C108.819 26.1511 109.084 25.6068 109.523 25.2157C109.963 24.8246 110.542 24.618 111.135 24.6403C111.664 24.637 112.184 24.7819 112.631 25.058C112.811 25.5146 112.884 26.0048 112.845 26.4926C112.845 26.5378 112.54 26.5378 112.54 26.4926C112.513 26.1177 112.343 25.7664 112.064 25.5089C111.784 25.2513 111.415 25.1064 111.031 25.1032C110.313 25.1032 109.78 25.4453 109.78 26.134C109.78 27.9255 113.077 27.8804 113.077 30.0306C113.077 30.3381 113.013 30.6425 112.89 30.9255C112.767 31.2084 112.587 31.4642 112.361 31.6775C112.134 31.8908 111.866 32.0572 111.572 32.1668C111.279 32.2764 110.966 32.327 110.651 32.3154C109.874 32.3055 109.128 32.0129 108.559 31.4948" fill="#2D3436"/>
<path d="M117.354 32.0911C116.718 32.0778 116.081 32.0978 115.447 32.151C115.325 32.1805 115.401 31.867 115.432 31.867C116.44 31.7619 116.592 31.5683 116.592 30.1632V26.7885C116.592 25.3704 116.439 25.1758 115.432 25.0716C115.402 25.0716 115.343 24.7729 115.463 24.7876C116.091 24.8537 116.723 24.8783 117.355 24.8615C117.813 24.8615 118.606 24.8319 118.958 24.7876C119.079 24.7729 119.018 25.0716 118.988 25.0716C117.935 25.1472 117.828 25.4598 117.828 26.7885V30.1597C117.828 31.4901 117.936 31.7741 118.988 31.8635C119.018 31.8635 119.077 32.1614 118.958 32.1475C118.603 32.1024 117.814 32.0876 117.355 32.0876" fill="#2D3436"/>
<path d="M122.979 32.09C122.308 32.09 121.391 32.09 120.919 32.1499C120.767 32.1629 120.858 31.8659 120.904 31.8659C121.91 31.7609 122.064 31.5663 122.064 30.163V26.79C122.064 25.371 121.91 25.1765 120.904 25.0723C120.858 25.0723 120.783 24.7588 120.934 24.7892C121.65 24.8549 122.368 24.8796 123.086 24.863C123.362 24.863 124.43 24.8178 124.841 24.8178C127.592 24.8178 129.083 26.3715 129.083 28.3723C129.083 30.4174 127.266 32.1351 124.688 32.1351C124.292 32.1351 123.253 32.09 122.978 32.09M123.391 25.3398C123.31 25.8186 123.28 26.3043 123.302 26.7892V30.5668C123.302 31.3883 123.378 31.6566 125.012 31.6566C125.392 31.6671 125.771 31.6002 126.123 31.4602C126.476 31.3202 126.795 31.1101 127.06 30.8434C127.326 30.5766 127.532 30.2588 127.665 29.9102C127.799 29.5615 127.857 29.1896 127.836 28.8178C127.836 26.4731 126.615 25.279 124.494 25.279C124.127 25.2698 123.759 25.2902 123.395 25.3398" fill="#2D3436"/>
<path d="M136.183 32.1503C135.756 32.1503 135.038 32.0904 134.184 32.0904C133.024 32.0904 131.636 32.0904 130.781 32.1503C130.693 32.1503 130.735 31.8672 130.781 31.8672C131.941 31.7326 132.048 31.5832 132.048 30.1642V26.7904C132.048 25.3714 131.94 25.1916 130.781 25.0727C130.735 25.0727 130.693 24.7592 130.781 24.7739C131.636 24.8495 132.979 24.8608 134.138 24.8608C134.962 24.8608 135.74 24.8313 136.445 24.7739C136.389 25.029 136.364 25.2895 136.368 25.5503C136.368 25.6693 136.368 25.9984 136.383 26.0714C136.383 26.1009 136.093 26.1174 136.093 26.0861C136.004 25.5929 135.818 25.354 134.338 25.354H133.347C133.291 25.8095 133.27 26.2685 133.285 26.727V28.1017H134.049C135.33 28.1017 135.423 28.0722 135.544 27.5937C135.544 27.5633 135.834 27.5486 135.818 27.6232C135.772 27.9148 135.752 28.2097 135.758 28.5047V29.1464C135.663 29.1672 135.565 29.1722 135.469 29.1612C135.361 28.5794 135.27 28.5342 134.049 28.5342H133.285V30.0105C133.285 31.4443 133.362 31.5789 133.881 31.5789H134.476C136.23 31.5789 136.276 31.3401 136.444 30.608C136.444 30.5932 136.749 30.5932 136.749 30.6375C136.702 30.9215 136.566 31.6536 136.505 31.8767C136.443 32.0999 136.381 32.1451 136.183 32.1451" fill="#2D3436"/>
<path d="M146.496 30.1605C146.496 30.7137 146.511 31.7289 146.571 32.2065C146.571 32.2516 146.389 32.3098 146.297 32.2212L140.605 26.5617V30.1605C140.605 31.3545 140.712 31.774 141.765 31.8634C141.796 31.8634 141.826 32.177 141.735 32.1466C141.324 32.1015 140.911 32.0818 140.498 32.0875C139.948 32.0743 139.397 32.094 138.85 32.1466C138.774 32.1613 138.803 31.8634 138.85 31.8634C139.857 31.7584 140.01 31.4292 140.01 30.1605V26.3229C140.01 25.8149 139.047 25.128 138.529 25.0681C138.483 25.0681 138.454 24.7546 138.544 24.7841C139.213 24.8542 139.886 24.8832 140.559 24.8709L145.9 30.2768V26.7823C145.9 25.4979 145.747 25.1688 144.755 25.0646C144.679 25.0498 144.679 24.7511 144.77 24.7815C145.265 24.8487 145.766 24.8733 146.266 24.8553C146.715 24.8571 147.164 24.8325 147.61 24.7815C147.761 24.7667 147.685 25.0646 147.654 25.0646C146.589 25.1384 146.494 25.5856 146.494 26.7823V30.1605H146.496Z" fill="#2D3436"/>
<path d="M155.188 26.2671C155.188 26.3122 154.913 26.2966 154.913 26.2671C154.807 25.7738 154.41 25.4308 153.188 25.4308H152.18V30.1646C152.18 31.4932 152.269 31.7772 153.34 31.8667C153.386 31.8667 153.416 32.1654 153.296 32.1515C152.941 32.1055 152.165 32.0916 151.678 32.0916C151.052 32.0785 150.426 32.0985 149.802 32.1515C149.679 32.1802 149.741 31.8667 149.787 31.8667C150.793 31.7633 150.947 31.5688 150.947 30.1646V25.4299H149.882C148.707 25.4299 148.249 25.7591 148.097 26.2818C148.036 26.2966 147.806 26.2966 147.821 26.2514C147.872 25.8804 147.898 25.5065 147.897 25.1321C147.902 24.9364 147.881 24.741 147.837 24.5502C147.82 24.5042 148.097 24.4903 148.111 24.5355C148.2 24.8941 148.233 24.9089 149.881 24.9089H153.192C154.825 24.9089 154.902 24.9089 154.993 24.5355C155.009 24.4903 155.299 24.5051 155.268 24.565C155.201 24.8946 155.172 25.2304 155.179 25.5663C155.179 25.7443 155.179 26.1177 155.193 26.2671" fill="#2D3436"/>
<path d="M158.024 32.0911C157.387 32.0778 156.751 32.0978 156.117 32.151C155.995 32.1805 156.07 31.867 156.102 31.867C157.11 31.7619 157.261 31.5683 157.261 30.1632V26.7885C157.261 25.3704 157.109 25.1758 156.102 25.0716C156.071 25.0716 156.013 24.7729 156.133 24.7876C156.761 24.8536 157.393 24.8783 158.025 24.8615C158.483 24.8615 159.276 24.8319 159.627 24.7876C159.749 24.7729 159.688 25.0716 159.658 25.0716C158.605 25.1472 158.498 25.4598 158.498 26.7885V30.1597C158.498 31.4901 158.605 31.7741 159.658 31.8635C159.688 31.8635 159.746 32.1614 159.627 32.1475C159.277 32.1024 158.483 32.0876 158.025 32.0876" fill="#2D3436"/>
<path d="M165.012 32.1511C164.923 32.1815 164.966 31.8672 165.012 31.8672C165.531 31.8072 165.852 31.8819 165.852 31.584C165.784 31.1011 165.65 30.6291 165.455 30.1807L165.182 29.3895H162.709L162.359 30.1807C162.125 30.6146 161.97 31.0846 161.9 31.5702C161.9 31.8246 162.191 31.8246 162.679 31.8689C162.755 31.8689 162.755 32.1824 162.664 32.1529C162.228 32.1076 161.79 32.0879 161.351 32.0938C160.928 32.0803 160.504 32.1 160.084 32.1529C159.995 32.1676 160.038 31.8689 160.084 31.8689C160.846 31.809 161.245 31.4051 161.824 30.1529L164.357 24.7322C164.387 24.6584 164.54 24.6454 164.571 24.7322L166.765 30.1512C167.209 31.2263 167.42 31.7786 168.518 31.8672C168.565 31.8672 168.595 32.1807 168.503 32.1511C167.996 32.1063 167.486 32.0866 166.976 32.0921C166.319 32.0792 165.662 32.0989 165.008 32.1511M162.888 28.938H165.008L164.062 26.4291L162.888 28.938Z" fill="#2D3436"/>
<path d="M174.335 32.1497C173.908 32.1497 173.282 32.0898 172.428 32.0898C171.268 32.0898 169.772 32.0898 168.932 32.1497C168.81 32.1645 168.886 31.8657 168.917 31.8657C170.078 31.7311 170.2 31.5818 170.2 30.1628V26.7889C170.2 25.3699 170.047 25.1754 169.039 25.0712C168.995 25.0712 168.918 24.7577 169.07 24.7872C169.689 24.853 170.312 24.8777 170.934 24.861C171.422 24.861 172.201 24.8315 172.552 24.7872C172.641 24.7568 172.613 25.0712 172.583 25.0712C171.53 25.145 171.422 25.4594 171.422 26.7889V30.0594C171.422 31.1493 171.511 31.5514 172.079 31.5514H172.628C174.413 31.5514 174.504 31.2674 174.643 30.6404C174.658 30.5952 174.932 30.6108 174.932 30.6551C174.865 31.0679 174.773 31.4764 174.657 31.8787C174.598 32.1037 174.535 32.1479 174.338 32.1479" fill="#2D3436"/>
<path d="M187.851 31.5378C186.782 32.1991 185.522 32.4993 184.262 32.3924C180.526 32.3924 178.197 29.9391 178.197 27.2018C178.299 25.6801 178.989 24.2534 180.128 23.2126C181.267 22.1717 182.769 21.5949 184.327 21.5996C185.534 21.6107 186.72 21.9036 187.788 22.4541C187.999 23.1743 188.102 23.9205 188.095 24.6695C188.095 24.7494 187.836 24.7329 187.82 24.686C187.545 23.4511 186.349 22.0738 183.938 22.0738C181.514 22.0738 179.686 23.7524 179.686 26.6165C179.686 30.1145 182.096 31.8861 184.408 31.8861C186.089 31.8861 187.755 30.9048 187.886 29.2912C187.886 29.2435 188.193 29.2279 188.193 29.3225C188.196 30.0737 188.081 30.8208 187.852 31.5378" fill="#2D3436"/>
<path d="M194.554 32.2174C194.127 32.2174 193.408 32.1575 192.555 32.1575C191.395 32.1575 190.005 32.1575 189.15 32.2174C189.062 32.2174 189.104 31.9334 189.15 31.9334C190.31 31.7988 190.418 31.6486 190.418 30.2296V26.854C190.418 25.4359 190.31 25.2553 189.15 25.1363C189.104 25.1363 189.062 24.8228 189.15 24.8385C190.005 24.9123 191.349 24.9253 192.509 24.9253C193.333 24.9253 194.112 24.8949 194.817 24.8385C194.762 25.0936 194.736 25.354 194.74 25.6148C194.74 25.7338 194.74 26.0629 194.755 26.1359C194.755 26.1645 194.465 26.181 194.465 26.1506C194.376 25.6574 194.189 25.4177 192.709 25.4177H191.717C191.662 25.8738 191.641 26.3333 191.656 26.7924V28.1671H192.42C193.7 28.1671 193.793 28.1376 193.915 27.6591C193.915 27.6287 194.205 27.6131 194.189 27.6878C194.143 27.9796 194.123 28.2748 194.129 28.5701V29.2127C194.034 29.2333 193.935 29.2383 193.838 29.2274C193.731 28.6456 193.641 28.6005 192.418 28.6005H191.654V30.0768C191.654 31.5105 191.731 31.6452 192.249 31.6452H192.843C194.599 31.6452 194.645 31.4063 194.812 30.6751C194.812 30.6586 195.117 30.6586 195.117 30.7046C195.071 30.9886 194.939 31.719 194.873 31.9439C194.806 32.1688 194.751 32.2131 194.553 32.2131" fill="#2D3436"/>
<path d="M204.251 30.1615C204.251 30.7147 204.266 31.7299 204.327 32.2076C204.327 32.2527 204.144 32.3126 204.052 32.2223L198.359 26.5619V30.1615C198.359 31.3574 198.464 31.7751 199.519 31.8645C199.549 31.8645 199.579 32.178 199.488 32.1494C199.077 32.104 198.664 32.084 198.251 32.0894C197.701 32.0759 197.15 32.0959 196.603 32.1494C196.527 32.1641 196.556 31.8645 196.603 31.8645C197.611 31.7612 197.762 31.4303 197.762 30.1615V26.324C197.762 25.8151 196.8 25.1282 196.282 25.0683C196.235 25.0683 196.205 24.7548 196.297 24.7852C196.967 24.8553 197.64 24.8843 198.313 24.872L203.655 30.2788V26.7842C203.655 25.4999 203.502 25.1707 202.509 25.0665C202.434 25.0518 202.434 24.753 202.525 24.7834C203.02 24.8507 203.521 24.8754 204.021 24.8572C204.47 24.8591 204.918 24.8345 205.364 24.7834C205.517 24.7687 205.441 25.0665 205.411 25.0665C204.346 25.1403 204.251 25.5876 204.251 26.7842V30.1615Z" fill="#2D3436"/>
<path d="M213.157 26.2654C213.157 26.3105 212.882 26.2949 212.882 26.2654C212.774 25.7721 212.378 25.4291 211.157 25.4291H210.15V30.1646C210.15 31.4941 210.239 31.7781 211.31 31.8676C211.356 31.8676 211.386 32.1663 211.264 32.1507C210.909 32.1055 210.135 32.0907 209.646 32.0907C209.019 32.0777 208.392 32.0977 207.768 32.1507C207.646 32.1802 207.707 31.8676 207.753 31.8676C208.761 31.7625 208.913 31.5688 208.913 30.1646V25.4291H207.848C206.674 25.4291 206.215 25.7582 206.063 26.281C206.001 26.2958 205.772 26.2958 205.789 26.2506C205.839 25.8795 205.864 25.5055 205.864 25.1312C205.869 24.9349 205.848 24.7388 205.802 24.5476C205.789 24.5025 206.062 24.4886 206.077 24.5329C206.166 24.8915 206.2 24.9054 207.847 24.9054H211.16C212.793 24.9054 212.87 24.9054 212.961 24.5329C212.976 24.4877 213.267 24.5025 213.236 24.5624C213.169 24.8921 213.14 25.2278 213.147 25.5637C213.147 25.7426 213.147 26.1169 213.163 26.2654" fill="#2D3436"/>
<path d="M219.341 32.1497C218.914 32.1497 218.196 32.0897 217.342 32.0897C216.182 32.0897 214.792 32.0897 213.938 32.1497C213.849 32.1497 213.891 31.8657 213.938 31.8657C215.097 31.7311 215.206 31.5808 215.206 30.1618V26.7845C215.206 25.3664 215.097 25.1858 213.938 25.0668C213.891 25.0668 213.849 24.7533 213.938 24.7681C214.792 24.8428 216.136 24.8549 217.297 24.8549C218.121 24.8549 218.899 24.8245 219.604 24.7681C219.549 25.0233 219.523 25.2836 219.527 25.5444C219.527 25.6634 219.527 25.9925 219.542 26.0655C219.542 26.0942 219.253 26.1107 219.253 26.0803C219.164 25.587 218.977 25.3473 217.497 25.3473H216.501C216.446 25.8034 216.426 26.2629 216.44 26.722V28.0967H217.204C218.485 28.0967 218.577 28.0672 218.7 27.5887C218.7 27.5583 218.989 27.5427 218.974 27.6174C218.928 27.9092 218.908 28.2044 218.914 28.4997V29.1423C218.819 29.1628 218.721 29.1678 218.624 29.1571C218.516 28.5752 218.425 28.5301 217.204 28.5301H216.44V30.0064C216.44 31.441 216.517 31.5748 217.035 31.5748H217.629C219.385 31.5748 219.431 31.3359 219.599 30.6047C219.599 30.5882 219.903 30.5882 219.903 30.6343C219.857 30.9174 219.726 31.6494 219.659 31.8735C219.592 32.0975 219.537 32.1427 219.339 32.1427" fill="#2D3436"/>
<path d="M224.288 28.9221C224.14 28.9245 223.992 28.9195 223.844 28.9073V30.1621C223.844 31.5065 223.952 31.7757 224.989 31.8651C225.035 31.8651 225.064 32.1786 224.974 32.15C224.619 32.1039 223.845 32.0892 223.356 32.0892C222.72 32.0759 222.083 32.0962 221.449 32.15C221.36 32.1786 221.402 31.8651 221.449 31.8651C222.441 31.7618 222.623 31.5811 222.623 30.1621V26.7875C222.623 25.4848 222.379 25.2043 221.846 25.2043C221.702 25.207 221.558 25.2221 221.417 25.2495C221.357 25.2799 221.28 24.9951 221.371 24.9803C222.394 24.8081 223.432 24.7383 224.47 24.7719C226.53 24.7719 227.629 25.4145 227.629 26.6094C227.599 27.023 227.446 27.4189 227.188 27.7481C226.931 28.0773 226.58 28.3255 226.18 28.4618C226.79 29.985 228.24 32.0458 229.567 32.0458C229.614 32.0458 229.656 32.3297 229.567 32.3297C228.534 32.3266 227.532 31.9787 226.727 31.3434C225.922 30.7081 225.363 29.8234 225.142 28.8352C224.862 28.9002 224.575 28.9294 224.288 28.9221ZM223.937 25.233C223.853 25.7112 223.823 26.1969 223.849 26.6815V28.4748C223.991 28.4867 224.134 28.4917 224.276 28.4896C225.785 28.4896 226.383 27.9225 226.383 26.9064C226.383 25.6516 225.651 25.2035 224.323 25.2035C224.195 25.2026 224.067 25.2125 223.941 25.233" fill="#2D3436"/>
</g>
<defs>
<clipPath id="clip0_78_2465">
<rect width="236" height="33" fill="white" transform="translate(0 0.373047)"/>
</clipPath>
</defs>
</svg>
