<svg width="157" height="92" viewBox="0 0 157 92" fill="none" xmlns="http://www.w3.org/2000/svg">
<path fill-rule="evenodd" clip-rule="evenodd" d="M86.5824 4.32922L151.632 41.6246C156.143 44.2266 156.143 48.3898 151.632 50.9918L86.5824 88.2872C82.0722 90.8892 74.7866 90.8892 70.2765 88.2872L5.22636 50.9918C0.716215 48.3898 0.716215 44.2266 5.22636 41.6246L70.2765 4.32922C74.7866 1.90068 82.0722 1.90068 86.5824 4.32922Z" fill="#24407B"/>
<path fill-rule="evenodd" clip-rule="evenodd" d="M86.236 5.54247L149.725 41.7971C155.102 44.9195 155.102 47.6949 149.725 50.8173L86.236 87.0719C81.5524 89.8474 75.1341 89.8474 70.4505 87.0719L6.9616 50.8173C1.75759 47.8684 1.75759 44.746 6.9616 41.7971L70.4505 5.54247C74.9606 2.94046 81.8993 2.767 86.236 5.54247ZM85.8891 7.62407L146.082 42.144C151.98 45.4399 152.153 47.1745 146.082 50.6439L85.8891 84.9903C81.3789 87.5923 75.3076 87.5923 70.7974 84.9903L10.7779 50.4704C5.05346 47.348 5.05346 45.0929 10.7779 41.9705L70.7974 7.62407C75.1341 5.19553 81.7259 5.02207 85.8891 7.62407Z" fill="white"/>
<path d="M136.019 45.268C135.499 41.9722 133.59 40.411 129.948 40.411C128.213 40.411 126.652 40.9314 125.438 42.1456C124.223 43.3599 123.529 44.7476 123.529 46.4823C123.529 48.217 124.223 49.6047 125.264 50.819C126.478 52.0332 127.866 52.5536 129.601 52.5536C130.988 52.5536 132.376 52.2067 133.59 51.6863C135.152 50.9924 136.019 50.1251 136.366 49.0843L138.101 50.819C137.407 52.2067 136.192 53.2475 134.631 53.9414C133.244 54.6353 131.509 54.9822 129.774 54.9822C127.346 54.9822 125.091 54.1148 123.356 52.5536C121.621 50.819 120.754 48.9108 120.754 46.4823C120.754 44.0538 121.621 41.9722 123.356 40.411C125.091 38.6763 127.346 37.9824 129.774 37.9824C132.376 37.9824 134.631 38.6763 136.019 39.7171C137.754 41.1048 138.794 43.3599 138.794 46.3088V47.3496H125.958V45.268H136.019Z" fill="white"/>
<path d="M119.363 45.268V54.9822H116.761V45.4415C116.761 44.0538 116.241 42.8395 115.374 41.9722C114.506 40.9314 113.292 40.5844 111.904 40.5844C110.517 40.5844 109.302 41.1048 108.435 41.9722C107.568 42.8395 107.047 44.0538 107.047 45.4415V54.9822H104.445V38.1559H107.221V39.8906C108.088 39.1967 108.955 38.6763 109.476 38.5028C110.343 38.1559 111.211 37.9824 112.078 37.9824C114.159 37.9824 115.721 38.6763 117.108 40.064C118.67 41.4518 119.363 43.1864 119.363 45.268Z" fill="white"/>
<path d="M99.5898 35.3796C99.5898 34.8592 99.7633 34.5122 100.11 34.3388C100.457 33.9918 100.804 33.8184 101.151 33.8184C101.671 33.8184 102.018 33.9918 102.365 34.3388C102.712 34.6857 102.886 35.0326 102.886 35.3796C102.886 35.9 102.712 36.2469 102.365 36.5938C102.018 36.9408 101.671 37.1142 101.151 37.1142C100.631 37.1142 100.284 36.9408 100.11 36.5938C99.7633 36.2469 99.5898 35.7265 99.5898 35.3796Z" fill="white"/>
<path d="M102.541 54.8084H99.7656V37.8086H102.541V54.8084Z" fill="white"/>
<path d="M69.2344 38.1562H72.3568L75.9996 43.7072L79.6424 38.1562H82.7648L77.3873 46.4827V54.8091H74.6118V46.4827L69.2344 38.1562Z" fill="white"/>
<path d="M64.8975 54.8091V40.4113H61.2547C59.52 40.4113 58.1322 40.9317 56.918 42.146C55.7037 43.3603 55.1833 44.748 55.1833 46.4827C55.1833 48.2173 55.7037 49.6051 56.918 50.6459C58.1322 51.8601 59.52 52.3805 61.2547 52.3805C62.2955 52.3805 63.1628 52.2071 64.0301 51.6867V54.4621C62.9893 54.8091 61.9485 54.9825 61.0812 54.9825C58.6527 54.9825 56.571 54.1152 54.8364 52.554C53.1017 50.9928 52.2344 48.9112 52.2344 46.4827C52.2344 45.0949 52.5813 43.8807 53.1017 42.6664C53.7956 41.2787 54.8364 40.0644 56.2241 39.3705C57.6119 38.5032 58.9996 38.1562 60.7343 38.1562H67.326V54.9825L64.8975 54.8091Z" fill="white"/>
<path d="M46.8591 40.4106C45.4714 40.4106 44.4306 40.931 43.3898 41.7983C42.5224 42.6657 42.002 43.8799 42.002 45.2677V54.8084H39.2266V37.9821H42.002V39.7167C42.8694 39.0229 43.7367 38.5025 44.2571 38.329C45.1244 37.9821 45.9918 37.8086 46.8591 37.8086C49.1142 37.8086 51.0223 38.6759 52.4101 40.4106L49.9815 41.6249C49.4611 40.931 48.2468 40.4106 46.8591 40.4106Z" fill="white"/>
<path d="M28.6431 43.8811H37.6634V44.575C37.6634 45.6158 37.4899 46.6566 37.3165 47.5239C37.143 48.3912 36.7961 49.2586 36.4491 49.9524C35.5818 51.5136 34.3675 52.9014 32.9798 53.7687C31.5921 54.4626 29.8574 54.983 28.1227 54.983C26.9084 54.983 25.6942 54.8095 24.4799 54.2891C23.2656 53.7687 22.2248 53.0749 21.3575 52.2075C20.4902 51.3402 19.7963 50.1259 19.2759 49.0851C18.7555 47.8708 18.582 46.6566 18.582 45.2688C18.582 43.8811 18.7555 42.6668 19.2759 41.4526C19.7963 40.2383 20.4902 39.1975 21.3575 38.3302C22.2248 37.4628 23.2656 36.769 24.4799 36.2486C25.6942 35.7282 26.9084 35.5547 28.2962 35.5547C29.6839 35.5547 31.0717 35.9016 32.2859 36.422C33.5002 36.9424 34.7145 37.8098 35.9287 39.024L34.1941 40.7587C33.3267 39.7179 32.2859 39.024 31.2451 38.6771C30.2043 38.1567 29.337 37.9832 28.1227 37.9832C27.4288 37.9832 26.735 38.1567 26.0411 38.3302C25.3472 38.5036 24.8268 38.8506 24.3064 39.1975C23.2656 39.8914 22.3983 40.7587 21.7044 41.973C21.184 43.0138 20.8371 44.4015 20.8371 45.6158C20.8371 46.6566 21.0106 47.5239 21.3575 48.3912C21.7044 49.2586 22.2248 50.1259 22.9187 50.8198C23.6126 51.5136 24.3064 52.0341 25.1738 52.381C26.0411 52.7279 26.9084 52.9014 27.9492 52.9014C29.6839 52.9014 31.2451 52.381 32.6329 51.1667C33.8471 49.9524 34.7145 48.3912 34.8879 46.4831H28.4696V43.8811H28.6431Z" fill="white"/>
<path d="M88.4922 33.8184H90.9207V48.7365C90.9207 49.9508 91.2677 50.9916 91.9615 51.6855C92.6554 52.3793 93.5227 52.7263 94.737 52.7263H98.2063V54.9813H95.2574C93.0023 54.9813 91.2677 54.4609 90.2269 53.4201C89.1861 52.3793 88.4922 50.6447 88.4922 48.3896V33.8184Z" fill="white"/>
</svg>
