<svg width="270" height="60" viewBox="0 0 270 60" fill="none" xmlns="http://www.w3.org/2000/svg">
<g clip-path="url(#clip0_215_4276)">
<path d="M52.6411 55.6397C51.5297 55.5657 50.4183 55.1211 49.6033 54.3802L46.5655 51.2683L46.1209 50.8237L25.6714 30.1519L28.4128 27.3364L55.8271 55.047C54.7898 55.4916 53.6784 55.7138 52.6411 55.6397ZM42.3422 55.6397C41.2308 55.5657 40.1194 55.1211 39.3044 54.3802L36.2666 51.2683L35.8221 50.8237L20.4849 35.4125L23.0041 32.8933L45.1577 55.1952C44.2686 55.5657 43.2313 55.7138 42.3422 55.6397ZM31.9693 55.6397C30.8579 55.5657 29.7465 55.1211 28.9315 54.3802L25.8937 51.2683L25.4491 50.8237L15.3726 40.599L17.8917 38.0798L34.8589 55.1952C33.8957 55.5657 32.9325 55.7138 31.9693 55.6397ZM41.0827 4.81229C42.0459 4.36774 43.1572 4.14546 44.1945 4.21955C45.3059 4.29365 46.4173 4.7382 47.2323 5.47913L50.2701 8.59101L50.7147 9.03557L71.1642 29.6333L68.4228 32.4488L41.0827 4.81229ZM54.5675 4.21955C55.6789 4.29365 56.7903 4.7382 57.6053 5.47913L60.6431 8.59101L61.0876 9.03557L76.3507 24.4468L73.8315 26.966L51.752 4.66411C52.6411 4.29364 53.6043 4.14546 54.5675 4.21955ZM64.9404 4.21955C66.0518 4.29365 67.1632 4.7382 67.9782 5.47913L71.016 8.59101L71.4606 9.03557L81.6112 19.2603L79.0921 21.7795L62.0508 4.66411C62.9399 4.29364 63.9772 4.14546 64.9404 4.21955ZM94.0588 27.4105L67.5337 54.3061C67.0891 54.6765 66.6446 54.9729 66.0518 55.1952C65.385 55.4175 64.6441 55.5657 63.9031 55.5657C63.1622 55.5657 62.4213 55.4175 61.7545 55.1952C61.2358 54.9729 60.7172 54.6765 60.2726 54.3061L30.932 24.6691L32.1175 23.4836C32.562 23.1131 34.0439 21.6313 35.6739 21.6313C36.4889 21.6313 37.1558 21.8536 37.7485 22.1499L55.2343 39.858L55.3084 39.784C56.4198 40.9694 58.1239 42.0808 60.7172 42.0808C63.1622 42.0808 65.9777 40.3026 67.0891 38.9689L86.4273 19.6308L70.6456 2.88589C69.5342 1.55222 67.6819 0.811297 65.0886 0.663112C63.2363 0.58902 60.8653 0.88539 59.2353 1.92269C58.1239 1.18176 56.6421 0.737205 54.7157 0.663112C52.8634 0.58902 50.4924 0.88539 48.8624 1.92269C47.751 1.18176 46.2691 0.737205 44.3427 0.663112C42.4163 0.58902 39.8972 0.959482 38.2671 2.07087C37.1558 1.25585 35.5998 0.737205 33.5993 0.663112H32.1175C29.5242 0.737205 27.6719 1.55222 26.5605 2.88589L0.183594 29.7815L2.85092 32.4488L29.3019 5.55322C29.7465 5.18275 30.1911 4.88638 30.7838 4.66411C31.4506 4.44183 32.1916 4.29364 32.9325 4.29364C33.6734 4.29364 34.4143 4.44183 35.0812 4.66411C35.5998 4.88638 36.1185 5.18275 36.563 5.55322L65.9036 35.1902L64.7182 36.3757C64.2736 36.7462 62.7918 38.228 61.1617 38.228C59.1612 38.3021 57.9757 36.7462 57.5312 36.3757L42.194 20.8163C41.0827 19.4826 39.2303 17.7044 36.0444 17.7044C33.5993 17.7044 30.7838 19.4826 29.6724 20.8163L10.2602 40.1544L26.2642 56.9734C27.3755 58.3071 29.2279 59.048 31.8211 59.1962C33.6734 59.2703 36.0444 58.9739 37.6744 57.9366C38.7858 58.6775 40.2676 59.1221 42.194 59.1962C44.0464 59.2703 46.4173 58.9739 48.0473 57.9366C49.1587 58.6775 50.6406 59.1221 52.567 59.1962C54.4934 59.2703 57.0125 58.8998 58.6426 57.7884C59.754 58.6034 61.3099 59.1221 63.3104 59.1962H64.7922C67.3855 59.1221 69.2378 58.3071 70.3492 56.9734L96.8002 30.0778L94.0588 27.4105Z" fill="#0680C4"/>
<path d="M111.619 25.5567C111.619 26.594 110.952 26.9645 110.137 26.9645H107.692L107.618 26.8904V19.9257C107.618 19.9257 107.618 19.7775 107.692 19.7775H110.211C110.73 19.7775 111.248 20.2221 111.248 20.6666V21.2594C111.248 21.5558 110.804 22.2967 110.211 22.2967H109.174C109.025 22.2967 108.877 22.4449 108.877 22.5931V23.7785C108.877 23.9267 109.025 24.0749 109.174 24.0749H110.359C111.47 24.149 111.767 24.7417 111.767 25.0381V25.5567H111.619ZM111.989 23.0376C111.841 23.0376 111.767 22.9635 111.767 22.8894C111.767 22.8153 111.841 22.7412 111.915 22.7412H112.211C113.249 22.5931 113.99 21.778 113.99 20.7407V19.9998C113.99 18.8884 113.101 17.9993 111.989 17.9993H103.839C103.765 17.9993 103.765 18.0734 103.765 18.0734V19.333C103.765 19.333 103.765 19.4071 103.839 19.4812H103.987C104.358 19.5553 104.95 19.8516 104.95 20.0739V26.4459C104.95 26.7422 104.432 26.9645 103.987 27.0386C103.987 27.0386 103.913 27.0386 103.839 27.1127C103.765 27.1868 103.839 27.2609 103.839 27.2609V28.5204C103.839 28.5945 103.913 28.5945 103.913 28.5945H112.063C113.471 28.5945 114.508 27.1868 114.508 26.0754V25.0381C114.434 23.9267 113.767 23.0376 111.989 23.0376ZM257.359 25.5567C257.359 26.594 256.692 26.9645 255.877 26.9645H253.432L253.358 26.8904V19.9257C253.358 19.9257 253.358 19.7775 253.432 19.7775H255.951C256.47 19.7775 256.988 20.2221 256.988 20.6666V21.2594C256.988 21.5558 256.544 22.2967 255.951 22.2967H254.914C254.765 22.2967 254.617 22.4449 254.617 22.5931V23.7785C254.617 23.9267 254.765 24.0749 254.914 24.0749H256.099C257.21 24.149 257.507 24.7417 257.507 25.0381V25.5567H257.359ZM257.729 23.0376C257.581 23.0376 257.507 22.9635 257.507 22.8894C257.507 22.8153 257.581 22.7412 257.655 22.7412H257.951C258.989 22.5931 259.73 21.778 259.73 20.7407V19.9998C259.73 18.8884 258.84 17.9993 257.729 17.9993H249.579C249.505 17.9993 249.505 18.0734 249.505 18.0734V19.333C249.505 19.333 249.505 19.4071 249.579 19.4812H249.727C250.098 19.5553 250.69 19.8516 250.69 20.0739V26.4459C250.69 26.7422 250.172 26.9645 249.727 27.0386C249.727 27.0386 249.653 27.0386 249.579 27.1127C249.505 27.1868 249.579 27.2609 249.579 27.2609V28.5204C249.579 28.5945 249.653 28.5945 249.653 28.5945H257.803C259.211 28.5945 260.248 27.1868 260.248 26.0754V25.0381C260.174 23.9267 259.507 23.0376 257.729 23.0376ZM136.217 17.9993H132.957C132.661 17.9993 132.661 17.9993 132.661 18.2957V19.0366C132.661 19.1848 132.957 19.1107 132.957 19.1107C132.957 19.1107 133.106 19.1107 133.254 19.2589L133.328 19.4071C133.328 19.4071 133.328 19.6294 133.18 19.8516C133.031 20.148 132.365 21.2594 132.068 21.7039C132.068 21.8521 131.846 21.9262 131.698 21.9262C131.55 21.9262 131.475 21.778 131.401 21.7039L130.142 19.9257C130.142 19.9257 129.92 19.5553 130.142 19.1848C130.216 19.0366 130.438 19.0366 130.512 19.0366C130.66 19.0366 130.735 19.0366 130.735 18.7402V18.0734C130.735 17.9993 130.66 17.8511 130.512 17.8511H126.363C126.215 17.8511 126.067 17.8511 126.067 18.0734V18.8884C126.067 19.1848 125.993 19.2589 126.215 19.2589C126.585 19.2589 126.956 19.6294 126.956 19.6294L129.845 23.7785V26.594C129.845 26.7422 129.549 26.8163 129.253 26.8904L128.956 26.9645C128.882 26.9645 128.882 26.9645 128.882 27.0386V28.4464C128.882 28.5204 128.956 28.5204 128.956 28.5204H133.476C133.55 28.5204 133.55 28.5204 133.55 28.4464V27.0386C133.55 26.9645 133.476 26.9645 133.476 26.9645H133.328C132.957 26.8904 132.513 26.6681 132.513 26.52V24.0749L134.884 20.3703C134.884 20.3703 135.328 19.7775 135.402 19.6294C135.551 19.4812 135.699 19.4071 135.847 19.333L136.217 19.2589C136.514 19.2589 136.514 19.1848 136.514 18.9625V18.1475C136.514 17.9993 136.44 17.9993 136.217 17.9993ZM237.65 26.9645V24.7417C237.65 24.5935 237.502 24.4454 237.354 24.4454H236.539C236.39 24.4454 236.242 24.5935 236.242 24.7417V25.1863C236.242 25.4086 236.168 25.5568 236.094 25.779C235.872 26.2236 235.353 26.594 235.131 26.6681C234.612 26.8904 233.871 26.8163 233.871 26.8163H232.76C232.612 26.7422 232.538 26.6681 232.538 26.52V20.148C232.538 19.9257 233.13 19.6294 233.575 19.5553C233.575 19.5553 233.649 19.5553 233.649 19.4812V18.1475C233.649 18.0734 233.575 18.0734 233.575 18.0734H229.203C229.129 18.0734 229.129 18.1475 229.129 18.1475V19.4812C229.129 19.5553 229.203 19.5553 229.203 19.5553C229.648 19.6294 230.241 19.8516 230.241 20.148V26.52C230.241 26.7422 229.648 27.0386 229.203 27.1127C229.203 27.1127 229.129 27.1127 229.129 27.1868V28.5204C229.129 28.5945 229.203 28.5945 229.203 28.5945H237.428C237.576 28.5945 237.724 28.4464 237.724 28.2982V27.1127C237.65 27.0386 237.65 26.9645 237.65 26.9645ZM204.16 26.9645V24.7417C204.16 24.5935 204.012 24.4454 203.864 24.4454H203.049C202.901 24.4454 202.752 24.5935 202.752 24.7417V25.1863C202.752 25.4086 202.678 25.5568 202.604 25.779C202.382 26.2236 201.863 26.594 201.641 26.6681C201.122 26.8904 200.381 26.8163 200.381 26.8163H199.27C199.122 26.7422 199.048 26.6681 199.048 26.52V20.148C199.048 19.9257 199.641 19.6294 200.085 19.5553C200.085 19.5553 200.159 19.5553 200.159 19.4812V18.1475C200.159 18.0734 200.085 18.0734 200.085 18.0734H195.714C195.64 18.0734 195.64 18.1475 195.64 18.1475V19.4812C195.64 19.5553 195.714 19.5553 195.714 19.5553C196.158 19.6294 196.751 19.8516 196.751 20.148V26.52C196.751 26.7422 196.158 27.0386 195.714 27.1127C195.714 27.1127 195.64 27.1127 195.64 27.1868V28.5204C195.64 28.5945 195.714 28.5945 195.714 28.5945H203.938C204.086 28.5945 204.234 28.4464 204.234 28.2982V27.1127C204.16 27.0386 204.16 26.9645 204.16 26.9645ZM243.059 26.8904C242.762 26.8904 242.17 26.8904 241.947 26.8163C241.651 26.7422 241.281 26.594 241.058 26.2977C240.91 26.0013 240.984 25.1863 240.984 24.8899V20.148C240.984 19.9257 241.577 19.6294 242.021 19.5553C242.021 19.5553 242.096 19.5553 242.096 19.4812V18.1475C242.096 18.0734 242.021 18.0734 242.021 18.0734H237.205C237.131 18.0734 237.131 18.1475 237.131 18.1475V19.4812C237.131 19.5553 237.205 19.5553 237.205 19.5553C237.65 19.6294 238.243 19.8516 238.243 20.148V25.6308C238.243 25.6308 238.243 26.9645 238.465 27.335C239.058 28.2982 239.947 28.8168 242.688 28.8168H243.207C245.948 28.8168 246.986 28.2982 247.578 27.335C247.801 26.9645 247.801 25.6308 247.801 25.6308V20.148C247.801 19.9257 248.393 19.6294 248.838 19.5553C248.838 19.5553 248.912 19.5553 248.912 19.4812V18.1475C248.912 18.0734 248.838 18.0734 248.838 18.0734H244.022C243.948 18.0734 243.948 18.1475 243.948 18.1475V19.4812C243.948 19.5553 244.022 19.5553 244.022 19.5553C244.467 19.6294 245.059 19.8516 245.059 20.148V24.8899C245.059 25.1863 245.133 26.0754 244.985 26.2977C244.763 26.594 244.392 26.8163 244.096 26.8163C243.948 26.8904 243.281 26.8904 243.059 26.8904ZM228.314 25.6308C228.314 25.4827 228.166 25.3345 228.018 25.3345H227.203C227.055 25.3345 226.907 25.4827 226.907 25.6308V25.779C226.907 26.2236 226.314 26.8163 226.017 26.8904C225.499 27.1127 225.277 27.1127 224.536 27.1127C223.795 27.1127 223.572 27.1127 223.054 26.8904C222.757 26.7422 222.165 26.1495 221.942 25.6308C221.794 25.2604 221.646 24.7417 221.646 23.1858C221.646 21.6298 221.72 20.8889 221.942 20.5926C222.313 20.0739 222.831 19.4812 224.165 19.4812C225.499 19.4812 225.943 19.9257 226.166 20.2962C226.166 20.2962 226.536 20.5926 226.536 20.963V21.1112C226.536 21.2594 226.684 21.4076 226.832 21.4076H227.648C227.796 21.4076 227.944 21.2594 227.944 21.1112V18.5921C227.944 18.5921 228.018 18.4439 227.796 18.2216C227.796 18.2216 226.536 17.8511 224.536 17.8511C222.831 17.8511 221.424 18.2216 220.683 18.6661C219.942 19.1107 218.608 20.4444 218.608 23.1117C218.608 25.779 219.201 26.8163 219.942 27.4832C220.535 28.0759 221.424 28.5945 223.202 28.8168C223.276 28.8909 223.721 28.8909 224.091 28.8909H224.462C224.832 28.8909 225.128 28.8909 225.425 28.8168C227.573 28.7427 228.092 28.5204 228.092 28.5204C228.24 28.5204 228.388 28.3723 228.388 28.2241L228.314 25.6308ZM177.042 25.6308V23.0376C177.042 22.8894 176.894 22.7412 176.746 22.7412H172.893C172.745 22.7412 172.597 22.8894 172.597 23.0376V24.2231C172.597 24.3713 172.745 24.5195 172.893 24.5195H174.375V26.8163C174.301 26.8904 174.227 26.8904 174.153 26.9645C173.634 27.1868 173.412 27.1868 172.671 27.1868C171.93 27.1868 171.708 27.1868 171.189 26.9645C170.893 26.8163 170.3 26.2236 170.078 25.7049C169.929 25.3345 169.781 24.8158 169.781 23.2599C169.781 21.7039 169.855 20.963 170.078 20.6666C170.448 20.148 170.967 19.5553 172.3 19.5553C173.56 19.5553 174.079 19.9998 174.301 20.3703C174.301 20.3703 174.671 20.6666 174.671 21.0371V21.1853C174.671 21.3335 174.82 21.4817 174.968 21.4817H175.783C175.931 21.4817 176.079 21.3335 176.079 21.1853V18.6661C176.079 18.6661 176.153 18.518 175.931 18.2957C175.931 18.2957 174.671 17.9252 172.671 17.9252C170.967 17.9252 169.559 18.2957 168.892 18.7402C168.151 19.1848 166.818 20.5185 166.818 23.1858C166.818 25.8531 167.41 26.8904 168.151 27.5572C168.744 28.15 169.633 28.6686 171.411 28.8909C171.485 28.965 171.93 28.965 172.3 28.965H172.671C173.041 28.965 173.338 28.965 173.634 28.8909C175.783 28.8168 176.746 28.5945 176.746 28.5945C176.894 28.5945 177.042 28.4464 177.042 28.2982V25.6308ZM123.103 25.6308C122.955 26.1495 122.288 26.7422 121.992 26.8904C121.473 27.1127 121.251 27.1127 120.51 27.1127C119.769 27.1127 119.547 27.1127 119.028 26.8904C118.732 26.7422 118.139 26.1495 117.917 25.6308C117.768 25.2604 117.62 24.7417 117.62 23.1858C117.62 21.6298 117.694 20.8889 117.917 20.5926C118.287 20.0739 118.806 19.4812 120.139 19.4812H120.88C122.362 19.4812 122.733 20.0739 123.103 20.5926C123.325 20.8889 123.399 21.6298 123.399 23.1858C123.399 24.8158 123.251 25.2604 123.103 25.6308ZM124.288 18.5921C123.622 18.1475 122.288 17.8511 120.658 17.777H120.362C118.732 17.8511 117.472 18.1475 116.731 18.5921C115.99 19.0366 114.656 20.3703 114.656 23.0376C114.656 25.7049 115.249 26.7422 115.99 27.4091C116.583 28.0018 117.472 28.5205 119.25 28.7427C119.324 28.8168 119.769 28.8168 120.139 28.8168H120.584C120.658 28.8168 121.621 28.7427 121.695 28.7427C123.473 28.5205 124.363 27.9277 124.955 27.4091C125.696 26.7422 126.289 25.779 126.289 23.0376C126.363 20.3703 125.029 19.0366 124.288 18.5921ZM109.989 40.8198C109.84 41.1903 109.396 41.7089 109.174 41.783C108.729 41.9312 108.581 41.9312 108.062 42.0053C107.469 42.0053 107.321 42.0053 106.951 41.783C106.729 41.7089 106.284 41.1903 106.136 40.8198C106.062 40.5234 105.914 40.153 105.914 38.9675C105.914 37.782 105.988 37.1893 106.136 36.967C106.432 36.5224 106.803 36.0779 107.84 36.0779H108.285C109.248 36.0779 109.692 36.5224 109.989 36.967C110.137 37.1893 110.211 37.782 110.211 38.9675C110.211 40.153 110.063 40.5234 109.989 40.8198ZM110.878 35.337C110.359 35.0406 109.322 34.7442 108.062 34.7442H107.988H107.914H107.766C106.506 34.7442 105.543 35.0406 104.95 35.337C104.432 35.7074 103.32 36.6706 103.32 38.7452C103.32 40.8198 103.765 41.5607 104.358 42.0794C104.802 42.5239 105.469 42.9685 106.877 43.1167C106.951 43.1167 107.321 43.1908 107.618 43.1908H108.062C108.359 43.1908 108.729 43.1908 108.803 43.1167C110.211 42.9685 110.878 42.5239 111.322 42.0794C111.841 41.5607 112.36 40.8198 112.36 38.7452C112.36 36.6706 111.47 35.7074 110.878 35.337ZM182.747 27.1127C182.747 27.0386 182.673 27.0386 182.673 27.0386C182.229 26.9645 181.636 26.7422 181.636 26.4459V20.0739C181.636 19.8516 182.229 19.5553 182.673 19.4812C182.673 19.4812 182.747 19.4812 182.747 19.4071V18.0734C182.747 17.9993 182.673 17.9993 182.673 17.9993H178.302C178.228 17.9993 178.228 18.0734 178.228 18.0734V19.4071C178.228 19.4812 178.302 19.4812 178.302 19.4812C178.746 19.5553 179.339 19.7775 179.339 20.0739V26.4459C179.339 26.6681 178.746 26.9645 178.302 27.0386C178.302 27.0386 178.228 27.0386 178.228 27.1127V28.4464C178.228 28.5204 178.302 28.5204 178.302 28.5204H182.673C182.747 28.5204 182.747 28.4464 182.747 28.4464V27.1868C182.822 27.1868 182.822 27.1127 182.747 27.1127ZM162.594 41.783H162.52C162.15 41.7089 161.705 41.5607 161.705 41.3385V36.4483C161.705 36.2261 162.15 36.0779 162.52 36.0038H162.594V34.9665C162.594 34.8924 162.594 34.8924 162.52 34.8924H159.112C159.038 34.8924 159.038 34.8924 159.038 34.9665V36.0038H159.112C159.482 36.0779 159.927 36.2261 159.927 36.4483V41.3385C159.927 41.5607 159.482 41.7089 159.112 41.783H159.038V42.8203C159.038 42.8944 159.038 42.8944 159.112 42.8944H162.52C162.594 42.8944 162.594 42.8944 162.594 42.8203V41.8571V41.783ZM194.973 27.1127C194.973 27.0386 194.899 27.0386 194.899 27.0386C194.454 26.9645 193.861 26.7422 193.861 26.4459V25.0381C193.861 23.9267 193.565 23.0376 191.713 23.0376H191.639C191.564 23.0376 191.49 22.9635 191.49 22.8894C191.49 22.8153 191.564 22.7412 191.639 22.7412H191.935C192.972 22.5931 193.713 21.7039 193.713 20.6666V20.0739C193.713 18.9625 192.824 18.0734 191.713 18.0734H183.637C183.562 18.0734 183.562 18.1475 183.562 18.1475V19.4812C183.562 19.5553 183.637 19.5553 183.637 19.5553C184.081 19.6294 184.674 19.8516 184.674 20.148V26.52C184.674 26.7422 184.081 27.0386 183.637 27.1127C183.637 27.1127 183.562 27.1127 183.562 27.1868V28.5204C183.562 28.5945 183.637 28.5945 183.637 28.5945H188.008C188.082 28.5945 188.082 28.5204 188.082 28.5204V27.2609V27.1868C188.082 27.1127 188.008 27.1127 188.008 27.1127C187.563 27.0386 186.971 26.8163 186.971 26.52V20.148C186.971 19.9998 187.119 19.8516 187.341 19.7775H189.86C190.379 19.7775 190.898 20.2221 190.898 20.6666V21.1112C190.898 21.4076 190.453 22.2226 189.86 22.2226H188.23C188.082 22.2226 187.934 22.3708 187.934 22.519V23.7044C187.934 23.8526 188.082 24.0008 188.23 24.0008H189.934C191.046 24.0749 190.972 24.6676 191.046 24.964V27.9277C191.046 27.9277 191.046 28.15 191.12 28.2982C191.194 28.5204 191.564 28.5204 191.564 28.5204H194.899C194.973 28.5204 194.973 28.4464 194.973 28.4464V27.1868C195.047 27.1868 195.047 27.1127 194.973 27.1127ZM158.593 41.783H158.519C158.149 41.7089 157.704 41.5607 157.704 41.3385V40.2271C157.704 39.338 157.482 38.6711 156.074 38.6711H156C155.926 38.6711 155.926 38.597 155.926 38.597C155.926 38.5229 156 38.5229 156 38.5229H156.222C157.037 38.4488 157.63 37.7079 157.63 36.8929V36.4483C157.63 35.5592 156.963 34.8924 156.074 34.8924H149.85C149.776 34.8924 149.776 34.8924 149.776 34.9665V36.0038H149.85C150.221 36.0779 150.665 36.2261 150.665 36.4483V41.3385C150.665 41.5607 150.221 41.7089 149.85 41.783H149.776V42.8203C149.776 42.8944 149.776 42.8944 149.85 42.8944H153.259C153.333 42.8944 153.333 42.8944 153.333 42.8203V41.8571V41.783H153.259C152.888 41.7089 152.444 41.5607 152.444 41.3385V36.4483C152.444 36.3743 152.592 36.2261 152.74 36.152H154.666C155.037 36.152 155.481 36.4483 155.481 36.8188V37.1893C155.481 37.4115 155.111 38.0784 154.666 38.0043H153.481C153.333 38.0043 153.259 38.1525 153.259 38.2266V39.1898C153.259 39.338 153.407 39.412 153.481 39.412H154.815C155.704 39.4861 155.63 39.9307 155.63 40.153V42.7462C155.704 42.8944 156 42.9685 156 42.9685H158.593C158.667 42.9685 158.667 42.9685 158.667 42.8944V41.9312C158.593 41.8571 158.593 41.8571 158.593 41.783ZM138.44 23.4822C139.329 23.7785 140.811 24.149 141.774 24.3713C142.812 24.5195 143.256 25.0381 143.108 25.9272C142.96 26.8163 141.923 26.9645 141.404 27.0386C141.404 27.0386 140.07 27.1127 139.552 26.8904C139.329 26.8163 138.737 26.0754 138.588 25.9272L138.366 25.4086C138.366 25.3345 138.218 25.2604 138.07 25.2604H137.106C136.958 25.2604 136.884 25.2604 136.884 25.4086V28.3723C136.884 28.6686 137.329 28.7427 138.514 28.7427H141.626C141.626 28.7427 142.96 28.8168 143.923 28.2241C144.738 27.7795 145.405 26.4459 145.405 25.4827C145.331 23.9267 145.257 23.1117 144.368 22.5931C143.627 22.1485 141.997 21.9262 141.033 21.7039C139.996 21.5558 139.181 21.4076 139.181 20.4444C139.181 19.5553 140.367 19.4071 140.885 19.333C140.885 19.333 141.552 19.2589 142.145 19.4812C142.367 19.5553 142.589 19.6294 142.886 19.9998C143.034 20.148 143.256 20.8148 143.256 20.8148C143.256 20.963 143.404 21.1112 143.553 21.1112H144.368C144.664 21.1112 144.664 21.1112 144.664 20.8148V18.0734C144.664 17.8511 143.627 17.9252 143.034 17.9252H139.552C139.552 17.9252 138.366 17.9252 137.625 18.5921C137.106 19.1107 136.588 20.0739 136.588 21.0371C136.81 22.0003 136.958 23.0376 138.44 23.4822ZM206.309 23.4822C207.198 23.7785 208.68 24.149 209.643 24.3713C210.68 24.5195 211.125 25.0381 210.977 25.9272C210.829 26.8163 209.791 26.9645 209.273 27.0386C209.273 27.0386 207.939 27.1127 207.42 26.8904C207.198 26.8163 206.605 26.0754 206.457 25.9272L206.235 25.4086C206.235 25.3345 206.087 25.2604 205.938 25.2604H204.975C204.827 25.2604 204.753 25.2604 204.753 25.4086V28.3723C204.753 28.6686 205.197 28.7427 206.383 28.7427H209.495C209.495 28.7427 210.829 28.8168 211.792 28.2241C212.607 27.7795 213.274 26.4459 213.274 25.4827C213.199 23.9267 213.125 23.1117 212.236 22.5931C211.495 22.1485 209.865 21.9262 208.902 21.7039C207.865 21.5558 207.05 21.4076 207.05 20.4444C207.05 19.5553 208.235 19.4071 208.754 19.333C208.754 19.333 209.421 19.2589 210.014 19.4812C210.236 19.5553 210.458 19.6294 210.754 19.9998C210.903 20.148 211.125 20.8148 211.125 20.8148C211.125 20.963 211.273 21.1112 211.421 21.1112H212.236C212.533 21.1112 212.533 21.1112 212.533 20.8148V18.0734C212.533 17.8511 211.495 17.9252 210.903 17.9252H207.42C207.42 17.9252 206.235 17.9252 205.494 18.5921C204.975 19.1107 204.457 20.0739 204.457 21.0371C204.679 22.0003 204.827 23.0376 206.309 23.4822ZM262.545 23.4822C263.434 23.7785 264.916 24.149 265.879 24.3713C266.917 24.5195 267.361 25.0381 267.213 25.9272C267.065 26.8163 266.027 26.9645 265.509 27.0386C265.509 27.0386 264.175 27.1127 263.656 26.8904C263.434 26.8163 262.841 26.0754 262.693 25.9272L262.471 25.4086C262.471 25.3345 262.323 25.2604 262.175 25.2604H261.211C261.063 25.2604 260.989 25.2604 260.989 25.4086V28.3723C260.989 28.6686 261.434 28.7427 262.619 28.7427H265.731C265.731 28.7427 267.065 28.8168 268.028 28.2241C268.843 27.7795 269.51 26.4459 269.51 25.4827C269.436 23.9267 269.362 23.1117 268.472 22.5931C267.732 22.1485 266.102 21.9262 265.138 21.7039C264.101 21.5558 263.286 21.4076 263.286 20.4444C263.286 19.5553 264.471 19.4071 264.99 19.333C264.99 19.333 265.657 19.2589 266.25 19.4812C266.472 19.5553 266.694 19.6294 266.991 19.9998C267.139 20.148 267.361 20.8148 267.361 20.8148C267.361 20.963 267.509 21.1112 267.657 21.1112H268.472C268.769 21.1112 268.769 21.1112 268.769 20.8148V18.0734C268.769 17.8511 267.732 17.9252 267.139 17.9252H263.656C263.656 17.9252 262.471 17.9252 261.73 18.5921C261.211 19.1107 260.693 20.0739 260.693 21.0371C260.915 22.0003 261.063 23.0376 262.545 23.4822ZM155.407 27.2609C153.036 27.1868 152.74 26.3718 152.74 25.1122C152.74 24.5195 153.036 24.0008 153.481 23.5563L157.63 26.8904C157.186 27.1127 156.296 27.2609 155.407 27.2609ZM154.889 19.2589C155.852 19.333 156.371 19.7775 156.371 20.2221C156.371 20.8148 155.037 21.3335 154.741 21.3335C154.666 21.3335 154.592 21.3335 154.518 21.2594C154.37 21.1853 154.222 21.1112 154.074 21.1112C153.629 20.8889 153.259 20.5926 153.259 20.2221C153.259 19.7775 153.925 19.2589 154.889 19.2589ZM162.965 27.7795C162.891 27.6313 162.743 27.7054 162.52 27.6313L162.076 27.4832L160.816 26.594C160.964 26.2977 161.112 25.9272 161.261 25.7049C161.409 25.3345 161.483 24.149 161.483 23.7044C161.483 23.2599 161.557 22.5931 161.409 22.4449C161.335 22.4449 161.187 22.3708 161.187 22.3708H159.482C159.482 22.3708 159.408 22.3708 159.334 22.4449C159.26 22.519 159.26 22.7412 159.26 22.7412V23.6303C159.334 24.149 159.186 24.6676 158.964 25.0381L156.371 22.8894C157.778 22.3708 158.742 21.1112 158.742 20.2221C158.667 18.4439 157.111 17.777 154.889 17.7029C152.37 17.6289 150.74 18.6661 150.74 20.2221C150.74 20.6666 150.888 21.1112 151.11 21.4076V21.4817L151.184 21.5558C151.332 21.778 151.555 22.0003 151.777 22.2226C150.665 22.9635 149.999 24.0749 149.999 25.2604C149.999 27.4091 151.036 28.965 155.259 29.1132C156.815 29.1873 158.223 28.8168 159.334 28.15L159.779 28.3723C159.927 28.5205 160.075 28.6686 160.446 28.6686H162.891C163.039 28.6686 163.187 28.5945 163.187 28.4464V28.2982C163.039 28.2241 163.039 27.8536 162.965 27.7795ZM149.406 40.6716C149.406 40.5234 149.258 40.4493 149.184 40.4493H148.517C148.369 40.4493 148.294 40.5975 148.294 40.6716L148.146 41.0421C148.146 41.1903 147.998 41.2644 147.924 41.4125C147.776 41.783 144.738 41.5607 144.738 41.5607C144.664 41.4866 144.59 41.4125 144.59 41.3385V39.1898H147.109C147.257 39.1898 147.405 39.412 147.479 39.6343V39.7084H148.369C148.369 39.7084 148.443 39.7084 148.443 39.6343V37.2634C148.443 37.2634 148.443 37.1893 148.369 37.1893H147.554H147.479V37.2634C147.405 37.5597 147.257 37.7079 147.109 37.7079H144.59V36.152C144.664 36.0779 144.812 36.0779 144.812 36.0779H147.109C147.331 36.0779 147.776 36.0779 147.85 36.2261C147.924 36.3743 147.924 36.5224 147.924 36.5224C147.924 36.6706 148.072 36.7447 148.146 36.7447H148.813C148.961 36.7447 149.035 36.5965 149.035 36.5224V35.0406C149.035 34.8924 148.887 34.8183 148.813 34.8183H141.848C141.774 34.8183 141.774 34.8183 141.774 34.8924V35.9297H141.848C142.219 36.0038 142.663 36.152 142.663 36.3743V41.2644C142.663 41.4866 142.219 41.6348 141.848 41.7089H141.774V42.7462C141.774 42.8203 141.774 42.8203 141.848 42.8203H149.184C149.332 42.8203 149.406 42.6721 149.406 42.598V40.6716ZM119.695 34.8183H113.026C112.952 34.8183 112.952 34.8183 112.952 34.8924V35.9297H113.026C113.397 36.0038 113.841 36.152 113.841 36.3743V41.2644C113.841 41.4866 113.397 41.6348 113.026 41.7089H112.952V42.7462C112.952 42.8203 112.952 42.8203 113.026 42.8203H116.435C116.509 42.8203 116.509 42.8203 116.509 42.7462V41.783V41.7089H116.435C116.212 41.7089 115.99 41.5607 115.768 41.4866H115.694L115.62 41.4125V41.3385V39.1898H117.842C117.991 39.1898 118.139 39.412 118.213 39.6343V39.7084H119.102C119.102 39.7084 119.176 39.7084 119.176 39.6343V37.4115C119.176 37.4115 119.176 37.3375 119.102 37.3375H118.287H118.213V37.4115C118.139 37.7079 117.991 37.8561 117.842 37.8561H115.62V36.152C115.694 36.0779 115.842 36.0779 115.842 36.0779H117.842C118.065 36.0779 118.509 36.0779 118.583 36.2261C118.657 36.3743 118.657 36.4483 118.657 36.4483C118.657 36.5965 118.806 36.6706 118.88 36.6706H119.547C119.695 36.6706 119.769 36.5224 119.769 36.4483V34.9665C119.991 34.9665 119.843 34.8183 119.695 34.8183ZM125.919 34.8183C125.919 34.8183 125.844 34.8183 125.77 34.8924C125.696 34.9665 125.696 35.0406 125.696 35.0406" fill="black"/>
<path d="M127.553 38.6727C127.553 38.7468 127.405 38.6727 127.405 38.6727H126.22H126.071V38.5246L126.738 36.6722L127.405 38.4505C127.479 38.4505 127.553 38.5987 127.553 38.6727ZM141.334 41.8587V41.7846H141.26C140.89 41.7105 140.445 41.5624 140.445 41.3401L139.408 36.45C139.408 36.2277 139.63 36.0795 139.927 36.0054H140.001V34.9681C140.001 34.894 140.001 34.894 139.927 34.894H137.408H137.037C136.963 34.9681 136.889 35.1904 136.889 35.1904L136.37 36.8945C136.37 36.8945 136.074 38.0059 135.926 38.0059C135.852 38.0059 135.555 36.9686 135.555 36.9686L135.037 35.3386C135.037 35.3386 134.963 35.0422 134.814 34.9681C134.74 34.894 134.37 34.894 134.37 34.894H131.851C131.777 34.894 131.777 34.894 131.777 34.9681V36.0054H131.851C132.221 36.0795 132.369 36.2277 132.369 36.45L131.332 41.3401C131.258 41.5624 131.184 41.6364 131.036 41.6364C130.887 41.6364 130.813 41.5624 130.739 41.3401L128.22 35.0422L128.146 34.894C128.072 34.8199 127.998 34.8199 127.998 34.8199H125.775C125.775 34.8199 125.701 34.8199 125.627 34.894C125.553 34.9681 125.553 35.0422 125.553 35.0422L123.034 41.3401C123.034 41.5624 122.589 41.7105 122.219 41.7846H122.145V42.8219C122.145 42.896 122.145 42.896 122.219 42.896H125.405C125.479 42.896 125.479 42.896 125.479 42.8219V41.8587V41.7846H125.405C125.034 41.7105 124.738 41.6364 124.812 41.3401L125.33 40.0805H127.924L128.442 41.3401C128.591 41.5624 128.294 41.7105 127.998 41.7846H127.924V42.8219C127.924 42.896 127.924 42.896 127.998 42.896H133.555C133.629 42.896 133.629 42.896 133.629 42.8219V41.8587V41.7846H133.555C133.184 41.7105 133.11 41.5624 133.11 41.3401L133.555 37.9318C133.555 37.9318 133.555 37.6355 133.629 37.6355C133.703 37.6355 133.851 38.1541 133.851 38.1541L134.518 40.5992C134.518 40.5992 134.592 40.8214 134.74 40.8955C134.814 40.9696 135.111 41.1178 135.111 41.1178H136.148C136.148 41.1178 136.222 41.1178 136.37 41.0437C136.518 40.9696 136.667 40.5251 136.667 40.5251L137.408 37.8577C137.408 37.8577 137.482 37.6355 137.556 37.6355C137.63 37.6355 137.704 38.0059 137.704 38.0059L138.149 41.4142C138.149 41.6364 138.074 41.7846 137.704 41.8587H137.63V42.896C137.63 42.9701 137.63 42.9701 137.704 42.9701H141.112C141.186 42.9701 141.186 42.9701 141.186 42.896L141.334 41.8587ZM173.565 38.6727C173.565 38.7468 173.417 38.6727 173.417 38.6727H172.231H172.083V38.5246L172.75 36.6722L173.417 38.4505C173.491 38.4505 173.565 38.5987 173.565 38.6727ZM177.788 41.7846H177.714C177.343 41.7105 176.899 41.5624 176.899 41.3401L174.38 35.0422L174.306 34.894C174.232 34.8199 174.157 34.8199 174.157 34.8199H171.935C171.935 34.8199 171.861 34.8199 171.787 34.894C171.712 34.9681 171.712 35.0422 171.712 35.0422L169.564 40.451C169.564 40.451 169.119 41.4883 168.526 41.6364C168.008 41.7846 167.711 41.7846 167.119 41.8587C166.526 41.8587 166.378 41.8587 165.933 41.6364C165.711 41.5624 165.266 41.0437 165.118 40.6732C165.044 40.3769 164.896 40.0064 164.896 38.8209C164.896 37.6354 164.97 37.0427 165.118 36.8204C165.415 36.3759 165.785 35.9313 166.822 35.9313C167.786 35.9313 168.156 36.3018 168.378 36.5241C168.378 36.5241 168.675 36.7463 168.675 37.0427V37.1168C168.675 37.265 168.823 37.3391 168.897 37.3391H169.564C169.712 37.3391 169.786 37.1909 169.786 37.1168V35.1904C169.786 35.1904 169.786 35.0422 169.638 34.894C169.638 34.894 168.675 34.5977 167.119 34.5977C165.785 34.5977 164.748 34.894 164.155 35.2645C163.636 35.635 162.525 36.5982 162.525 38.6727C162.525 40.7473 162.969 41.4883 163.562 42.0069C164.007 42.4515 164.525 42.7478 165.711 42.896C165.785 42.896 166.452 42.9701 166.748 42.9701H167.786C168.749 42.896 169.267 43.0442 169.564 42.9701H171.564C171.638 42.9701 171.638 42.9701 171.638 42.896V41.9328V41.8587H171.564C171.194 41.7846 170.897 41.7105 170.971 41.4142L171.49 40.1546H174.083L174.602 41.4142C174.75 41.6364 174.454 41.7846 174.157 41.8587H174.083V42.896C174.083 42.9701 174.083 42.9701 174.157 42.9701H177.714C177.788 42.9701 177.788 42.9701 177.788 42.896V41.9328V41.7846Z" fill="black"/>
</g>
<defs>
<clipPath id="clip0_215_4276">
<rect width="269.4" height="58.5331" fill="white" transform="translate(0.175781 0.658203)"/>
</clipPath>
</defs>
</svg>
