<svg width="250" height="36" viewBox="0 0 250 36" fill="none" xmlns="http://www.w3.org/2000/svg">
<g clip-path="url(#clip0_215_4318)">
<path d="M67.9773 14.5647C66.3585 15.5652 63.5594 16.3586 59.5331 16.3586C52.7882 16.3586 49.9423 12.7988 43.795 12.7988C38.7823 12.7988 36.711 14.4223 35.5766 15.2186V15.227H35.5691H35.5625V15.2186L35.4689 15.1511L35.5335 18.6762C35.4295 18.6032 35.3143 18.5226 35.1953 18.4411C35.3583 18.5526 35.5073 18.6575 35.6412 18.7493C36.7953 17.9268 38.9003 16.2359 44.0152 16.2359C50.2757 16.2359 53.177 19.9269 60.0464 19.9269C64.1477 19.9269 66.9937 19.1043 68.6396 18.0673L67.9773 14.5647Z" fill="#C82B36"/>
<path d="M66.7287 7.90361C65.1586 8.8404 62.4532 9.57389 58.5692 9.57389C52.0567 9.57389 49.3241 6.25391 43.3839 6.25391C38.5407 6.25391 36.5388 7.76963 35.4418 8.51063V8.51906H35.4362H35.4296V8.51063L35.3359 8.44788L35.3968 11.7266C35.4306 11.7501 35.4671 11.7754 35.4999 11.796C36.6137 11.0297 38.6484 9.45399 43.5834 9.45399C49.6267 9.45399 52.4145 12.891 59.0404 12.891C62.9928 12.891 65.7441 12.1257 67.3395 11.1608L66.7287 7.90361Z" fill="#C82B36"/>
<path d="M65.5635 1.67476C64.0403 2.54504 61.422 3.23358 57.672 3.23358C51.3796 3.23358 48.7463 0.132812 43.0019 0.132812C38.3114 0.132812 36.3751 1.55393 35.3202 2.24528L35.2266 2.18155L35.2837 5.25611L35.3839 5.32074C36.4622 4.60504 38.4276 3.13521 43.1977 3.13521C49.0376 3.13521 51.7225 6.34278 58.1207 6.34278C61.9363 6.34278 64.5958 5.63081 66.1453 4.72962L65.5635 1.67476Z" fill="#C82B36"/>
<path d="M10.4842 27.4974C17.616 27.4974 20.4901 23.5227 26.9858 23.5227C32.2889 23.5227 34.541 25.3419 35.7738 26.2281C36.971 25.3419 39.1518 23.5227 44.4578 23.5227C50.9516 23.5227 53.9775 27.4974 61.1092 27.4974C65.366 27.4974 68.3225 26.6122 70.02 25.4937L69.3146 21.724C67.6415 22.8013 64.7411 23.6529 60.5649 23.6529C53.5662 23.6529 50.6041 19.8242 44.2283 19.8242C39.031 19.8242 36.8857 21.5694 35.7035 22.4257V22.435L35.697 22.4303C35.6949 22.4325 35.6923 22.4341 35.6895 22.435V22.4257C34.481 21.5694 32.2702 19.8242 27.071 19.8242C20.6962 19.8242 17.8773 23.6529 10.8795 23.6529C6.63963 23.6529 3.67844 22.7742 1.98004 21.6753L1.41797 25.4431C3.15009 26.5841 6.16562 27.4965 10.4852 27.4965" fill="#C82B36"/>
<path d="M70.759 29.4277C69.0287 30.5884 66.0216 31.5112 61.6815 31.5112C54.4111 31.5112 51.3187 27.3809 44.7003 27.3809C39.3053 27.3809 37.0795 29.2629 35.858 30.1856V30.1968L35.8505 30.1893L35.8448 30.1968V30.1856C34.5867 29.2629 32.2907 27.3809 26.8966 27.3809C20.2782 27.3809 17.3414 31.5112 10.0728 31.5112C5.66993 31.5112 2.59633 30.5622 0.834225 29.3771L0.21875 33.5103C2.01083 34.744 5.14251 35.7305 9.63535 35.7305C17.051 35.7305 20.0506 31.4353 26.7983 31.4353C32.3 31.4353 34.642 33.3913 35.9245 34.3524V34.3637C35.9273 34.3627 35.9298 34.3611 35.932 34.359L35.9395 34.3637V34.3524C37.1844 33.3922 39.4524 31.4353 44.9551 31.4353C51.7 31.4353 54.8654 35.7305 62.2857 35.7305C66.7139 35.7305 69.78 34.7712 71.5412 33.5627L70.759 29.4277Z" fill="#C82B36"/>
<path d="M35.3245 2.24433C34.2172 1.53331 32.1122 0.132812 27.5585 0.132812C21.8141 0.132812 19.2998 3.23358 13.0083 3.23358C9.19464 3.23358 6.52197 2.52254 4.97346 1.6326L2.53125 18.0264C4.20529 19.085 7.11496 19.9318 11.2771 19.9318C18.1466 19.9318 20.9082 16.2418 27.1669 16.2418C32.1319 16.2418 34.4289 17.9093 35.6383 18.7533L35.3245 2.24433ZM30.8279 2.61904L31.1867 1.8059L31.538 2.61904H32.6893L31.7581 3.12492L32.116 3.95115L31.1792 3.43968L30.2424 3.95115L30.6068 3.12492L29.6785 2.61904H30.8279ZM30.8082 6.11982L31.1726 5.27672L31.5314 6.11982H32.7043L31.7544 6.64536L32.1188 7.50253L31.1651 6.97136L30.2068 7.50253L30.5815 6.64536L29.6344 6.11982H30.8082ZM30.7867 9.75551L31.1614 8.87679L31.5267 9.75551H32.7249L31.7553 10.3007L32.13 11.1935L31.1558 10.6408L30.1778 11.1935L30.5572 10.3007L29.5932 9.75551H30.7867ZM7.39788 17.9992L6.46109 17.4063L5.37441 17.9992L5.88871 17.0428L4.96315 16.4554H6.20253L6.70652 15.5121L6.96695 16.4554H8.20726L7.12901 17.0428L7.39788 17.9992ZM7.62645 13.1223L7.88968 14.0404L6.97351 13.4717L5.90931 14.0404L6.40956 13.1223L5.50181 12.5602H6.71963L7.21145 11.6553L7.46907 12.5565H8.6869L7.62645 13.1223ZM8.10234 9.35644L8.36277 10.2398L7.46907 9.68993L6.42736 10.2361L6.91449 9.35267L6.0236 8.81123H7.21519L7.69483 7.94094L7.94964 8.81123H9.14124L8.10234 9.35644ZM8.56043 5.73479L8.81617 6.58541L7.93278 6.05798L6.91355 6.58541L7.38944 5.73479L6.51448 5.21394H7.68265L8.15105 4.37646L8.40305 5.21394H9.57684L8.56043 5.73479ZM12.4013 18.3327L11.4514 17.7369L10.3769 18.3327L10.8668 17.3725L9.92439 16.7842H11.1666L11.6471 15.8381L11.9329 16.7842H13.1741L12.1099 17.3725L12.4013 18.3327ZM12.5071 13.4399L12.7938 14.3617L11.857 13.7902L10.8059 14.3617L11.2837 13.4399L10.3591 12.8778H11.5769L12.0453 11.9701L12.3263 12.8778H13.5441L12.5071 13.4399ZM12.8875 9.66088L13.1685 10.5471L12.2533 9.99906L11.2228 10.5471L11.6912 9.66088L10.7844 9.11756H11.976L12.4359 8.24541L12.717 9.11756H13.9104L12.8875 9.66088ZM13.2528 6.02897L13.5338 6.88051L12.6355 6.35308L11.6275 6.88051L12.0846 6.02897L11.1937 5.50717H12.3619L12.8097 4.66407L13.0842 5.50717H14.2542L13.2528 6.02897ZM17.4356 17.6451L16.4744 17.0531L15.4196 17.6451L15.8833 16.6915L14.9306 16.1079H16.1672L16.6224 15.1711L16.9306 16.1079H18.1672L17.1217 16.6915L17.4356 17.6451ZM17.4159 12.786L17.7241 13.7022L16.7817 13.1354L15.7512 13.7022L16.2046 12.786L15.2678 12.2239H16.48L16.926 11.3218L17.2295 12.2239H18.4407L17.4159 12.786ZM17.6969 9.03325L18.0023 9.91289L17.0768 9.36859L16.0641 9.91289L16.5081 9.03325L15.5892 8.49364H16.777L17.2135 7.62618L17.5124 8.49364H18.7002L17.6969 9.03325ZM17.9695 5.42472L18.2702 6.26782L17.3606 5.74417L16.3695 6.26782L16.8023 5.42472L15.9011 4.9067H17.0683L17.4936 4.07294L17.7878 4.9067H18.9541L17.9695 5.42472ZM22.0624 16.0189L21.0956 15.4381L20.0651 16.0189L20.5036 15.0821L19.5443 14.5078H20.7715L21.2005 13.5841L21.5293 14.5078H22.7565L21.7326 15.0821L22.0624 16.0189ZM21.9312 11.2413L22.2591 12.1415L21.3092 11.5794L20.2975 12.1415L20.7265 11.2413L19.7841 10.6886H20.9879L21.4075 9.80048L21.7298 10.6886H22.9326L21.9312 11.2413ZM22.1242 7.54656L22.4483 8.41402L21.5115 7.87724L20.5204 8.41402L20.9401 7.54656L20.0155 7.01727H21.1949L21.6062 6.1629L21.9237 7.01727H23.1134L22.1242 7.54656ZM22.3116 3.99612L22.6282 4.82894L21.7139 4.31277L20.7415 4.82894L21.1518 3.99612L20.2459 3.48556H21.4029L21.8066 2.66401L22.1186 3.48556H23.2755L22.3116 3.99612ZM26.5234 13.868L26.8775 14.7945L25.9032 14.2202L24.8905 14.7945L25.3027 13.868L24.3313 13.3059H25.5491L25.9547 12.3926L26.3032 13.3059H27.521L26.5234 13.868ZM26.6283 10.0731L26.9768 10.963L26.0203 10.4122L25.0282 10.963L25.432 10.0731L24.483 9.52786H25.6784L26.0746 8.65197L26.4156 9.52786H27.61L26.6283 10.0731ZM26.7313 6.4252L27.0733 7.28143L26.1365 6.75028L25.1631 7.28143L25.5575 6.4252L24.6273 5.90061H25.7983L26.1871 5.0575L26.5224 5.90061H27.6953L26.7313 6.4252ZM26.825 2.91413L27.1604 3.73757L26.2395 3.22701L25.2849 3.73757L25.6718 2.91413L24.7584 2.4092H25.9079L26.2882 1.59795L26.6189 2.4092H27.7683L26.825 2.91413ZM32.131 15.0287L31.138 14.4544L30.1412 15.0287L30.5281 14.1003L29.5445 13.5317H30.7623L31.1417 12.6174L31.5164 13.5317H32.7343L31.746 14.1003L32.131 15.0287Z" fill="#15397F"/>
<path d="M92.7388 13.7828C92.7388 14.4845 92.7622 15.0465 93.1135 15.3276C91.2987 16.43 89.2224 17.0276 87.0993 17.0588C81.7175 17.0588 78.5586 13.4549 78.5586 9.40706C78.5586 5.49972 82.2561 1.09961 87.4262 1.09961C89.2152 1.1482 90.9656 1.6304 92.527 2.50479C92.7748 3.5477 92.8304 4.62704 92.691 5.68987C92.6676 5.85287 92.2947 5.78357 92.2947 5.71331C92.1542 3.86503 90.0942 1.80503 86.8614 1.80503C83.3521 1.80503 80.7085 4.30813 80.7085 8.54429C80.7085 13.6966 83.9601 16.3374 87.3307 16.3374C89.8338 16.3374 90.4427 15.5412 90.5598 15.1665C90.6628 14.6737 90.7097 14.1709 90.6994 13.6676C90.6994 10.6493 90.5598 10.4619 88.0764 10.2755C87.9583 10.2755 87.8403 9.80707 88.0989 9.85485C89.3823 9.97887 90.6721 10.0258 91.9612 9.99536C92.9311 10.0014 93.9005 9.95449 94.8653 9.85485C95.0526 9.80801 95.0049 10.2755 94.8896 10.2755C92.735 10.4385 92.735 10.8123 92.735 13.7847" fill="#36333D"/>
<path d="M105.036 16.684C104.38 16.684 103.281 16.5903 101.971 16.5903C100.191 16.5903 98.0626 16.5903 96.753 16.684C96.6125 16.684 96.6827 16.24 96.753 16.24C98.5329 16.0301 98.695 15.795 98.695 13.572V8.28754C98.695 6.06454 98.531 5.78445 96.753 5.59616C96.6827 5.59616 96.6125 5.10434 96.753 5.12776C98.0645 5.24486 100.125 5.26733 101.901 5.26733C103.164 5.26733 104.358 5.22144 105.434 5.12776C105.35 5.52809 105.311 5.93654 105.317 6.34558C105.317 6.53294 105.317 7.04725 105.341 7.16435C105.341 7.21119 104.896 7.23461 104.896 7.18871C104.755 6.4168 104.475 6.04114 102.206 6.04114H100.685C100.6 6.75603 100.569 7.47621 100.591 8.19574V10.3504H101.761C103.728 10.3504 103.867 10.3035 104.053 9.55504C104.053 9.5082 104.498 9.48571 104.476 9.60187C104.405 10.0586 104.374 10.5206 104.382 10.9827V11.9898C104.236 12.0219 104.086 12.0298 103.937 12.0132C103.773 11.1007 103.634 11.0295 101.761 11.0295H100.591V13.3462C100.591 15.5945 100.707 15.8034 101.503 15.8034H102.417C105.108 15.8034 105.178 15.4287 105.435 14.2821C105.435 14.2586 105.904 14.2586 105.904 14.3289C105.834 14.7729 105.623 15.9214 105.529 16.2709C105.435 16.6203 105.341 16.6924 105.034 16.6924" fill="#36333D"/>
<path d="M108.75 11.1149C108.826 9.41311 109.567 7.80933 110.815 6.64952C112.063 5.4897 113.716 4.8668 115.419 4.91519C117.032 4.86413 118.601 5.44867 119.787 6.54291C120.973 7.63715 121.682 9.15353 121.761 10.7654C121.684 12.4647 120.941 14.0652 119.693 15.221C118.445 16.3768 116.792 16.9949 115.092 16.9417C113.483 16.9937 111.917 16.4126 110.731 15.3232C109.546 14.2338 108.834 12.7229 108.75 11.1149ZM110.693 10.3654C110.693 14.2063 113.15 16.1923 115.49 16.1923C117.993 16.1923 119.818 14.6475 119.818 11.5083C119.818 7.66747 117.338 5.63465 114.998 5.63465C112.495 5.63465 110.689 7.20377 110.689 10.3617" fill="#36333D"/>
<path d="M128.946 11.6297C128.719 11.6337 128.493 11.6252 128.267 11.6044V13.5716C128.267 15.6775 128.43 16.101 130.022 16.2396C130.092 16.2396 130.14 16.7296 129.998 16.6827C129.461 16.6134 128.267 16.589 127.518 16.589C126.542 16.5691 125.565 16.6004 124.592 16.6827C124.452 16.7296 124.523 16.2396 124.592 16.2396C126.114 16.0757 126.396 15.7946 126.396 13.5716V8.28439C126.396 6.24875 126.021 5.80379 125.201 5.80379C124.981 5.80777 124.762 5.83126 124.546 5.87403C124.452 5.92087 124.334 5.47686 124.476 5.45344C126.044 5.18251 127.636 5.07293 129.226 5.12647C132.384 5.12647 134.069 6.13167 134.069 8.00525C134.023 8.65358 133.788 9.27414 133.393 9.79026C132.997 10.3064 132.46 10.6954 131.846 10.9093C132.783 13.2962 135.005 16.5253 137.042 16.5253C137.112 16.5253 137.183 16.9703 137.042 16.9703C133.202 16.9703 131.027 14.2536 130.255 11.4948C129.826 11.5972 129.385 11.6444 128.944 11.6353M128.405 5.85436C128.276 6.60359 128.229 7.36473 128.265 8.12421V10.9346C128.483 10.9536 128.702 10.9615 128.92 10.958C131.237 10.958 132.15 10.069 132.15 8.47739C132.15 6.51013 131.026 5.80939 128.992 5.80939C128.795 5.80799 128.599 5.824 128.406 5.85719" fill="#36333D"/>
<path d="M149.244 15.6302C147.823 16.4676 146.209 16.9197 144.56 16.9417C140.512 16.9417 138.031 14.225 138.031 11.1851C138.106 9.45145 138.864 7.81792 140.14 6.64235C141.417 5.46678 143.107 4.84501 144.841 4.91329C146.176 4.93994 147.482 5.31105 148.632 5.99062C148.867 6.87584 148.938 7.79651 148.842 8.7073C148.842 8.8244 148.397 8.77755 148.397 8.73071C148.223 7.81517 147.72 6.995 146.983 6.42533C146.245 5.85567 145.325 5.57604 144.395 5.63932C141.772 5.63932 139.992 7.37049 139.992 10.5303C139.992 14.3449 142.24 16.1932 144.765 16.1932C146.591 16.1932 146.872 15.7491 146.964 15.4915C147.05 15.1231 147.089 14.7455 147.082 14.3674C147.082 12.1191 147.012 12.0254 145.14 11.8867C145.069 11.8867 144.999 11.4183 145.14 11.4427C145.889 11.512 147.201 11.5598 148.231 11.5598C149.005 11.5678 149.778 11.5365 150.549 11.4661C150.689 11.4212 150.642 11.8886 150.572 11.8886C148.979 12.0291 148.98 12.239 148.98 14.4629C148.922 14.8706 149.013 15.2855 149.237 15.6311" fill="#36333D"/>
<path d="M161.118 16.684C160.462 16.684 159.364 16.5903 158.053 16.5903C156.273 16.5903 154.145 16.5903 152.835 16.684C152.695 16.684 152.765 16.24 152.835 16.24C154.615 16.0301 154.777 15.795 154.777 13.572V8.28754C154.777 6.06454 154.613 5.78445 152.835 5.59616C152.765 5.59616 152.695 5.10434 152.835 5.12776C154.147 5.24486 156.207 5.26733 157.983 5.26733C159.246 5.26733 160.44 5.22144 161.516 5.12776C161.432 5.52809 161.393 5.93654 161.399 6.34558C161.399 6.53294 161.399 7.04725 161.423 7.16435C161.423 7.21119 160.978 7.23461 160.978 7.18871C160.837 6.4168 160.557 6.04114 158.288 6.04114H156.767C156.682 6.75603 156.651 7.47621 156.673 8.19574V10.3504H157.843C159.81 10.3504 159.949 10.3035 160.135 9.55504C160.135 9.5082 160.58 9.48571 160.558 9.60187C160.487 10.0586 160.456 10.5206 160.464 10.9827V11.9898C160.318 12.0219 160.168 12.0298 160.019 12.0132C159.855 11.1007 159.716 11.0295 157.843 11.0295H156.674V13.3462C156.674 15.5945 156.79 15.8034 157.586 15.8034H158.499C161.19 15.8034 161.26 15.4287 161.517 14.2821C161.517 14.2586 161.986 14.2586 161.986 14.3289C161.916 14.7729 161.705 15.9214 161.611 16.2709C161.517 16.6203 161.424 16.6924 161.118 16.6924" fill="#36333D"/>
<path d="M187.076 5.59197L182.349 16.8943C182.327 16.9276 182.296 16.9544 182.26 16.9722C182.225 16.99 182.185 16.9981 182.145 16.9958C182.105 16.9934 182.066 16.9806 182.032 16.9587C181.999 16.9368 181.971 16.9065 181.953 16.8709L178.415 6.94843L174.039 16.8934C173.993 17.0105 173.688 17.0564 173.617 16.87L169.103 5.59008C167.979 2.77971 167.604 1.98626 165.759 1.82325C165.641 1.82325 165.547 1.40264 165.781 1.42419C166.612 1.52559 167.448 1.57252 168.284 1.5647C169.535 1.58352 170.786 1.53662 172.032 1.42419C172.267 1.4017 172.125 1.82325 172.055 1.82325C170.979 1.91693 170.394 2.05653 170.394 2.68886C170.568 3.66865 170.851 4.626 171.237 5.54325L174.583 13.8741L178.05 5.8711L177.932 5.59008C176.785 2.85278 176.526 1.98626 174.746 1.82325C174.676 1.82325 174.583 1.40264 174.77 1.42419C175.6 1.52492 176.436 1.57185 177.273 1.5647C178.537 1.5647 180.315 1.54129 181.227 1.42419C181.414 1.37828 181.344 1.82325 181.274 1.82325C179.824 1.94035 179.354 2.1043 179.354 2.80596C179.464 3.74575 179.7 4.66645 180.056 5.54325L182.889 13.8741L186.234 5.42801C186.658 4.57311 186.943 3.656 187.077 2.71133C187.077 2.12584 186.703 1.93941 185.556 1.82231C185.487 1.82231 185.344 1.4017 185.58 1.42324C186.348 1.52537 187.122 1.57233 187.897 1.56376C188.633 1.58758 189.369 1.54053 190.096 1.42324C190.283 1.37734 190.189 1.82231 190.12 1.82231C188.646 1.96377 188.179 2.96988 187.078 5.59008" fill="#36333D"/>
<path d="M186.588 16.943C186.334 16.942 186.091 16.8406 185.911 16.661C185.731 16.4813 185.63 16.2378 185.629 15.9837C185.628 15.8514 185.653 15.7203 185.703 15.5979C185.754 15.4755 185.828 15.3643 185.921 15.2707C186.015 15.1772 186.126 15.1032 186.248 15.053C186.371 15.0029 186.502 14.9775 186.634 14.9785C186.891 14.9789 187.137 15.0794 187.321 15.2585C187.504 15.4376 187.611 15.6814 187.618 15.9378C187.611 16.2067 187.5 16.4624 187.307 16.6502C187.115 16.838 186.856 16.9431 186.587 16.943" fill="#36333D"/>
<path d="M200.721 16.6801C199.924 16.6801 198.334 16.5864 197.773 16.5864C196.625 16.5668 195.476 16.6134 194.334 16.726C194.099 16.7503 194.24 16.2819 194.308 16.2819C196.392 16.0721 196.509 16.0946 196.509 12.5853V5.56412C196.509 2.05491 196.391 2.05491 194.308 1.81696C194.239 1.81696 194.099 1.39636 194.334 1.41884C195.343 1.5337 196.358 1.58064 197.374 1.55935C197.913 1.55935 199.457 1.46567 200.229 1.46567C202.897 1.46567 205.1 2.6835 205.1 4.99924C205.1 6.33416 203.836 7.76089 202.103 8.278C204.677 8.39603 206.525 9.94081 206.525 11.9989C206.525 14.6219 204.277 16.6829 200.723 16.6829M199.108 8.70423C198.99 8.72764 198.99 8.26019 199.108 8.26019C201.939 8.26019 203.109 7.4883 203.109 5.28778C203.109 2.92426 201.681 2.10268 199.67 2.10268C199.355 2.10045 199.041 2.13186 198.733 2.19636C198.553 3.3021 198.49 4.42368 198.546 5.54256V12.7024C198.546 15.7451 198.709 16.0252 200.487 16.0252C203.085 16.0252 204.442 15.1362 204.442 12.3718C204.442 10.0776 202.429 8.34357 199.102 8.69768" fill="#36333D"/>
<path d="M220.811 12.543C220.811 14.929 219.009 16.9459 215.873 16.9459C213.157 16.9459 210.843 15.2381 210.843 12.4306V8.3087C210.843 6.08476 210.585 5.77937 209.063 5.59201C208.994 5.59201 208.947 5.12361 209.087 5.17139C210.052 5.26678 211.022 5.29808 211.991 5.26507C212.741 5.26507 213.91 5.24165 214.471 5.17139C214.611 5.12549 214.611 5.59201 214.495 5.59201C212.903 5.73253 212.764 6.20092 212.764 8.3087V12.0296C212.764 14.7669 214.544 15.9838 216.344 15.9838C218.709 15.9838 219.949 14.7191 219.949 12.3097V8.14383C219.949 6.1316 219.692 5.78031 218.169 5.59296C218.051 5.56954 218.051 5.12456 218.194 5.17233C218.954 5.2686 219.721 5.29994 220.486 5.26602C221.166 5.27425 221.846 5.24297 222.522 5.17233C222.709 5.14891 222.615 5.59296 222.569 5.59296C220.953 5.73347 220.814 6.2487 220.814 8.14383V12.5467L220.811 12.543Z" fill="#36333D"/>
<path d="M225.379 15.65C225.314 14.776 225.33 13.898 225.426 13.027C225.426 12.9108 225.846 12.9567 225.846 13.0035C225.986 14.7834 226.922 16.1886 228.75 16.1886C229.016 16.2195 229.285 16.1942 229.54 16.1144C229.796 16.0346 230.031 15.9022 230.232 15.7255C230.433 15.5489 230.594 15.3321 230.706 15.0891C230.817 14.8461 230.877 14.5824 230.88 14.3151C230.88 11.3895 225.727 11.3894 225.727 8.18375C225.778 7.27364 226.184 6.41987 226.859 5.80653C227.533 5.1932 228.421 4.86942 229.332 4.90499C230.144 4.89905 230.94 5.1267 231.625 5.56076C231.9 6.27653 232.012 7.04462 231.952 7.80904C231.952 7.8793 231.484 7.8793 231.484 7.80904C231.442 7.22127 231.181 6.67081 230.751 6.26747C230.321 5.86412 229.756 5.63754 229.166 5.63289C228.068 5.63289 227.249 6.17155 227.249 7.24885C227.249 10.0592 232.307 9.98613 232.307 13.3548C232.307 13.8369 232.21 14.314 232.021 14.7576C231.832 15.2012 231.556 15.6021 231.208 15.9364C230.861 16.2706 230.45 16.5314 229.999 16.703C229.549 16.8747 229.068 16.9536 228.586 16.9352C227.396 16.9183 226.253 16.4599 225.381 15.649" fill="#36333D"/>
<path d="M243.821 16.684C243.703 16.7074 243.749 16.24 243.821 16.24C245.178 16.076 245.435 15.7481 245.435 13.572V11.185H239.164V13.572C239.164 15.6329 239.352 16.1229 240.757 16.24C240.829 16.24 240.875 16.7318 240.734 16.684C240.172 16.6137 239.142 16.5903 238.392 16.5903C237.387 16.5903 236.076 16.5903 235.327 16.684C235.187 16.7308 235.257 16.24 235.327 16.24C237.107 16.0301 237.269 15.795 237.269 13.572V8.28754C237.269 6.06454 237.105 5.78445 235.327 5.59616C235.257 5.59616 235.21 5.10434 235.351 5.15118C236.361 5.25416 237.378 5.29327 238.393 5.26828C239.175 5.2693 239.957 5.23022 240.735 5.15118C240.875 5.10528 240.829 5.59616 240.758 5.59616C239.353 5.71326 239.165 6.20506 239.165 8.28754V10.5106H245.436V8.28754C245.436 6.08796 245.178 5.73668 243.822 5.59616C243.75 5.59616 243.704 5.10434 243.822 5.12776C244.73 5.24 245.645 5.28663 246.559 5.26733C247.331 5.26733 248.689 5.22143 249.227 5.15023C249.368 5.10433 249.368 5.59521 249.251 5.59521C247.427 5.73573 247.332 6.17885 247.332 8.28662V13.5748C247.332 15.6807 247.426 16.0779 249.251 16.2428C249.368 16.2428 249.368 16.7346 249.227 16.6868C248.689 16.6165 247.331 16.5931 246.559 16.5931C245.646 16.5741 244.731 16.6054 243.821 16.6868" fill="#36333D"/>
<path d="M90.6891 29.3814H90.4156C90.3313 29.3814 90.3313 29.0572 90.4156 29.0572C90.484 29.0572 90.5861 29.0732 90.6723 29.0732C92.7032 29.0732 93.6597 28.2535 93.6597 26.394C93.6597 24.6703 92.6854 23.7653 90.8943 23.7653C90.6428 23.7627 90.3917 23.7856 90.1449 23.8337C90.0131 24.6385 89.9669 25.4549 90.0072 26.2694V31.4217C90.0072 33.8574 90.0072 33.981 91.5772 34.1187C91.6615 34.1187 91.6962 34.4607 91.5594 34.426C90.8565 34.3527 90.15 34.3186 89.4432 34.3239C88.6057 34.3097 87.7681 34.3438 86.9345 34.426C86.764 34.4438 86.8661 34.1187 86.9158 34.1187C88.4343 33.9482 88.5223 33.967 88.5223 31.4217V26.2844C88.5223 23.7241 88.4352 23.741 86.9158 23.5677C86.8661 23.5677 86.764 23.2435 86.9345 23.2604C87.6701 23.3532 88.4118 23.3876 89.1528 23.3634C89.579 23.3634 90.7229 23.2951 91.3543 23.2951C93.6241 23.2951 95.1773 24.4052 95.1773 26.111C95.1773 28.0905 93.4199 29.3711 90.6891 29.3711" fill="#36333D"/>
<path d="M99.642 30.9292C99.464 30.9292 99.3516 30.9292 99.1736 30.9152V32.266C99.1736 33.7162 99.287 34.0066 100.382 34.1031C100.431 34.1031 100.462 34.4412 100.366 34.4103C99.9914 34.3607 99.1746 34.3457 98.6584 34.3457C97.9867 34.3317 97.3147 34.3532 96.6452 34.4103C96.5516 34.4412 96.5956 34.1031 96.6452 34.1031C97.6926 33.9916 97.8856 33.7977 97.8856 32.266V28.6266C97.8856 27.2214 97.6279 26.9188 97.063 26.9188C96.9117 26.9217 96.7609 26.938 96.6124 26.9675C96.5478 27.0003 96.4682 26.6931 96.5637 26.6781C97.6433 26.4914 98.7391 26.4157 99.8341 26.4523C102.008 26.4523 103.169 27.1455 103.169 28.4346C103.137 28.8806 102.975 29.3076 102.703 29.6625C102.431 30.0175 102.061 30.2849 101.638 30.4318C102.283 32.0758 103.813 34.2979 105.214 34.2979C105.263 34.2979 105.308 34.6033 105.214 34.6033C104.123 34.5997 103.065 34.2244 102.216 33.5391C101.367 32.8538 100.776 31.8995 100.542 30.8337C100.247 30.9042 99.9443 30.9357 99.6411 30.9274M99.2664 26.9488C99.178 27.465 99.1466 27.9893 99.1727 28.5123V30.4449C99.3225 30.4578 99.4729 30.4631 99.6233 30.4608C101.216 30.4608 101.846 29.8491 101.846 28.7531C101.846 27.4013 101.073 26.917 99.672 26.917C99.5371 26.9157 99.4023 26.9264 99.2692 26.9488" fill="#36333D"/>
<path d="M111.573 34.4127C111.123 34.4127 110.365 34.3481 109.464 34.3481C108.239 34.3481 106.774 34.3481 105.871 34.4127C105.777 34.4127 105.822 34.1073 105.871 34.1073C107.095 33.9621 107.208 33.801 107.208 32.2703V28.6308C107.208 27.1001 107.095 26.9062 105.871 26.7779C105.822 26.7779 105.777 26.4397 105.871 26.4556C106.773 26.5371 108.191 26.5493 109.414 26.5493C110.284 26.5493 111.106 26.5175 111.85 26.4556C111.791 26.7309 111.764 27.0118 111.768 27.2931C111.768 27.4214 111.768 27.7765 111.784 27.8552C111.784 27.887 111.477 27.9048 111.477 27.8711C111.383 27.339 111.187 27.0814 109.625 27.0814H108.578C108.52 27.5728 108.498 28.0678 108.513 28.5625V30.0454H109.319C110.671 30.0454 110.77 30.0136 110.898 29.4974C110.898 29.4646 111.204 29.4487 111.187 29.5292C111.139 29.8438 111.117 30.1619 111.124 30.4801V31.1724C111.023 31.1949 110.92 31.2003 110.817 31.1883C110.703 30.5606 110.608 30.5119 109.318 30.5119H108.512V32.1045C108.512 33.6511 108.593 33.7963 109.141 33.7963H109.769C111.621 33.7963 111.67 33.5387 111.847 32.749C111.847 32.733 112.168 32.733 112.168 32.7808C112.119 33.0871 111.975 33.8769 111.911 34.1176C111.846 34.3584 111.782 34.4071 111.572 34.4071" fill="#36333D"/>
<path d="M114.812 33.7036C114.767 33.1022 114.778 32.4979 114.844 31.8984C114.844 31.8188 115.135 31.8497 115.135 31.8825C115.228 33.1069 115.875 34.0727 117.132 34.0727C117.315 34.0944 117.5 34.0774 117.676 34.0227C117.852 33.968 118.014 33.8769 118.153 33.7553C118.291 33.6337 118.402 33.4843 118.479 33.3169C118.556 33.1495 118.596 32.9678 118.598 32.7836C118.598 30.7695 115.053 30.7695 115.053 28.5681C115.089 27.942 115.368 27.3549 115.832 26.933C116.296 26.5111 116.907 26.2882 117.534 26.3123C118.093 26.3087 118.641 26.4651 119.113 26.7629C119.303 27.2555 119.38 27.7842 119.339 28.3105C119.339 28.3592 119.017 28.3592 119.017 28.3105C118.989 27.9061 118.809 27.5271 118.514 27.2492C118.219 26.9714 117.83 26.8151 117.424 26.8116C116.666 26.8116 116.103 27.1807 116.103 27.9236C116.103 29.8562 119.583 29.8075 119.583 32.127C119.583 32.4587 119.516 32.787 119.386 33.0923C119.256 33.3975 119.066 33.6735 118.827 33.9035C118.588 34.1336 118.305 34.3131 117.995 34.4314C117.685 34.5496 117.355 34.6041 117.023 34.5917C116.203 34.5809 115.415 34.2654 114.814 33.7064" fill="#36333D"/>
<path d="M124.092 34.3477C123.42 34.3334 122.748 34.355 122.079 34.4124C121.949 34.4442 122.03 34.106 122.063 34.106C123.127 33.9927 123.287 33.7838 123.287 32.268V28.6277C123.287 27.0979 123.126 26.8881 122.063 26.7756C122.031 26.7756 121.969 26.4534 122.096 26.4693C122.759 26.5405 123.426 26.5672 124.093 26.549C124.576 26.549 125.413 26.5171 125.785 26.4693C125.913 26.4534 125.848 26.7756 125.817 26.7756C124.705 26.8571 124.592 27.1944 124.592 28.6277V32.2643C124.592 33.6995 124.706 34.0058 125.817 34.1023C125.848 34.1023 125.91 34.4236 125.785 34.4086C125.41 34.3599 124.577 34.344 124.093 34.344" fill="#36333D"/>
<path d="M130.037 34.3466C129.328 34.3466 128.361 34.3466 127.862 34.4112C127.702 34.4252 127.798 34.1049 127.846 34.1049C128.909 33.9915 129.071 33.7817 129.071 32.2678V28.6293C129.071 27.0986 128.909 26.8888 127.846 26.7764C127.798 26.7764 127.718 26.4382 127.878 26.471C128.633 26.5419 129.392 26.5685 130.15 26.5506C130.44 26.5506 131.568 26.5019 132.002 26.5019C134.906 26.5019 136.48 28.1778 136.48 30.3362C136.48 32.5423 134.562 34.3953 131.841 34.3953C131.422 34.3953 130.326 34.3466 130.036 34.3466M130.471 27.0649C130.386 27.5814 130.354 28.1054 130.378 28.6284V32.7034C130.378 33.5896 130.458 33.8791 132.183 33.8791C132.584 33.8903 132.984 33.8182 133.356 33.6672C133.728 33.5162 134.065 33.2896 134.345 33.0018C134.625 32.714 134.843 32.3712 134.983 31.9951C135.124 31.619 135.186 31.2178 135.164 30.8168C135.164 28.2874 133.875 26.9993 131.636 26.9993C131.248 26.9895 130.86 27.0114 130.476 27.0649" fill="#36333D"/>
<path d="M143.968 34.4127C143.517 34.4127 142.759 34.3481 141.857 34.3481C140.633 34.3481 139.168 34.3481 138.266 34.4127C138.172 34.4127 138.217 34.1073 138.266 34.1073C139.49 33.9621 139.602 33.801 139.602 32.2703V28.6308C139.602 27.1001 139.489 26.9062 138.266 26.7779C138.217 26.7779 138.172 26.4397 138.266 26.4556C139.168 26.5371 140.585 26.5493 141.809 26.5493C142.679 26.5493 143.5 26.5175 144.244 26.4556C144.185 26.7308 144.158 27.0117 144.163 27.2931C144.163 27.4214 144.163 27.7765 144.179 27.8552C144.179 27.887 143.872 27.9048 143.872 27.8711C143.779 27.339 143.583 27.0814 142.02 27.0814H140.974C140.915 27.5728 140.893 28.0678 140.908 28.5625V30.0454H141.715C143.067 30.0454 143.165 30.0136 143.293 29.4974C143.293 29.4646 143.6 29.4487 143.583 29.5292C143.534 29.8437 143.513 30.1619 143.519 30.4801V31.1724C143.419 31.1948 143.316 31.2002 143.214 31.1883C143.099 30.5606 143.004 30.5119 141.715 30.5119H140.908V32.1045C140.908 33.6511 140.99 33.7963 141.538 33.7963H142.165C144.017 33.7963 144.066 33.5387 144.243 32.749C144.243 32.733 144.565 32.733 144.565 32.7808C144.516 33.0871 144.372 33.8769 144.307 34.1176C144.242 34.3584 144.177 34.4071 143.968 34.4071" fill="#36333D"/>
<path d="M154.854 32.2657C154.854 32.8625 154.87 33.9576 154.934 34.4728C154.934 34.5216 154.741 34.5843 154.644 34.4888L148.636 28.3837V32.2657C148.636 33.5538 148.749 34.0063 149.86 34.1028C149.893 34.1028 149.925 34.441 149.828 34.4082C149.395 34.3596 148.959 34.3383 148.523 34.3445C147.943 34.3302 147.361 34.3515 146.783 34.4082C146.703 34.4241 146.734 34.1028 146.783 34.1028C147.846 33.9894 148.008 33.6344 148.008 32.2657V28.1261C148.008 27.5781 146.992 26.8371 146.445 26.7724C146.396 26.7724 146.365 26.4343 146.461 26.4661C147.167 26.5418 147.877 26.573 148.587 26.5598L154.225 32.3913V28.6217C154.225 27.2361 154.064 26.8811 153.016 26.7687C152.937 26.7528 152.937 26.4305 153.032 26.4633C153.555 26.5358 154.084 26.5624 154.612 26.5429C155.086 26.5449 155.559 26.5183 156.03 26.4633C156.19 26.4474 156.11 26.7687 156.077 26.7687C154.953 26.8483 154.852 27.3308 154.852 28.6217V32.2657H154.854Z" fill="#36333D"/>
<path d="M164.031 28.0657C164.031 28.1144 163.741 28.0976 163.741 28.0657C163.629 27.5336 163.209 27.1636 161.92 27.1636H160.856V32.2701C160.856 33.7033 160.95 34.0097 162.081 34.1061C162.129 34.1061 162.161 34.4284 162.034 34.4134C161.659 34.3638 160.84 34.3488 160.326 34.3488C159.665 34.3347 159.004 34.3563 158.346 34.4134C158.216 34.4443 158.281 34.1061 158.33 34.1061C159.392 33.9947 159.554 33.7848 159.554 32.2701V27.1627H158.43C157.19 27.1627 156.706 27.5177 156.546 28.0817C156.481 28.0976 156.239 28.0976 156.255 28.0489C156.309 27.6486 156.335 27.2452 156.335 26.8414C156.34 26.6303 156.318 26.4195 156.272 26.2137C156.254 26.1641 156.546 26.1491 156.561 26.1978C156.655 26.5847 156.689 26.6006 158.429 26.6006H161.924C163.648 26.6006 163.729 26.6006 163.826 26.1978C163.842 26.1491 164.148 26.165 164.115 26.2296C164.045 26.5853 164.014 26.9474 164.022 27.3098C164.022 27.5018 164.022 27.9046 164.037 28.0657" fill="#36333D"/>
<path d="M167.021 34.3477C166.349 34.3334 165.677 34.355 165.008 34.4124C164.88 34.4442 164.959 34.106 164.992 34.106C166.056 33.9927 166.216 33.7838 166.216 32.268V28.6277C166.216 27.0979 166.055 26.8881 164.992 26.7756C164.96 26.7756 164.898 26.4534 165.025 26.4693C165.688 26.5405 166.355 26.5671 167.022 26.549C167.506 26.549 168.343 26.5171 168.714 26.4693C168.842 26.4534 168.778 26.7756 168.746 26.7756C167.635 26.8571 167.521 27.1944 167.521 28.6277V32.2643C167.521 33.6995 167.635 34.0058 168.746 34.1023C168.778 34.1023 168.84 34.4236 168.714 34.4086C168.344 34.3599 167.506 34.344 167.022 34.344" fill="#36333D"/>
<path d="M174.401 34.4118C174.308 34.4446 174.352 34.1055 174.401 34.1055C174.949 34.0409 175.287 34.1214 175.287 33.8001C175.216 33.2791 175.075 32.77 174.869 32.2862L174.58 31.4328H171.97L171.6 32.2862C171.354 32.7543 171.19 33.2614 171.116 33.7851C171.116 34.0596 171.423 34.0596 171.938 34.1074C172.019 34.1074 172.019 34.4455 171.922 34.4137C171.462 34.3649 171 34.3436 170.537 34.35C170.09 34.3354 169.643 34.3567 169.199 34.4137C169.106 34.4296 169.15 34.1074 169.199 34.1074C170.004 34.0427 170.425 33.6071 171.036 32.2563L173.71 26.4088C173.742 26.3292 173.903 26.3152 173.936 26.4088L176.251 32.2544C176.72 33.4141 176.943 34.01 178.102 34.1055C178.151 34.1055 178.183 34.4437 178.087 34.4118C177.551 34.3635 177.012 34.3422 176.474 34.3481C175.781 34.3342 175.088 34.3555 174.397 34.4118M172.159 30.9457H174.397L173.399 28.2393L172.159 30.9457Z" fill="#36333D"/>
<path d="M184.242 34.4111C183.792 34.4111 183.131 34.3465 182.229 34.3465C181.005 34.3465 179.426 34.3465 178.539 34.4111C178.411 34.427 178.491 34.1048 178.523 34.1048C179.749 33.9596 179.878 33.7985 179.878 32.2678V28.6283C179.878 27.0976 179.716 26.8878 178.653 26.7754C178.606 26.7754 178.524 26.4372 178.685 26.469C179.339 26.54 179.996 26.5666 180.653 26.5486C181.168 26.5486 181.99 26.5168 182.36 26.469C182.454 26.4362 182.425 26.7754 182.393 26.7754C181.281 26.855 181.168 27.1941 181.168 28.6283V32.1563C181.168 33.3319 181.262 33.7657 181.861 33.7657H182.441C184.325 33.7657 184.421 33.4593 184.568 32.783C184.583 32.7343 184.873 32.7511 184.873 32.7989C184.802 33.2441 184.705 33.6849 184.583 34.1188C184.52 34.3615 184.454 34.4092 184.245 34.4092" fill="#36333D"/>
<path d="M198.507 33.7519C197.379 34.4652 196.048 34.789 194.718 34.6737C190.775 34.6737 188.316 32.0273 188.316 29.0745C188.423 27.433 189.152 25.894 190.355 24.7712C191.557 23.6483 193.142 23.0261 194.787 23.0313C196.061 23.0432 197.313 23.3592 198.44 23.9531C198.663 24.7299 198.772 25.5348 198.764 26.3428C198.764 26.429 198.491 26.4112 198.474 26.3606C198.184 25.0285 196.921 23.5428 194.376 23.5428C191.817 23.5428 189.887 25.3536 189.887 28.4431C189.887 32.2165 192.432 34.1275 194.872 34.1275C196.647 34.1275 198.406 33.069 198.543 31.3284C198.543 31.2769 198.867 31.26 198.867 31.3622C198.871 32.1724 198.749 32.9784 198.508 33.7519" fill="#36333D"/>
<path d="M205.587 34.4859C205.136 34.4859 204.378 34.4213 203.476 34.4213C202.252 34.4213 200.785 34.4213 199.883 34.4859C199.789 34.4859 199.834 34.1796 199.883 34.1796C201.107 34.0343 201.221 33.8723 201.221 32.3416V28.7003C201.221 27.1705 201.107 26.9756 199.883 26.8473C199.834 26.8473 199.789 26.5091 199.883 26.526C200.785 26.6056 202.203 26.6197 203.429 26.6197C204.298 26.6197 205.12 26.5869 205.864 26.526C205.806 26.8013 205.779 27.0822 205.783 27.3635C205.783 27.4918 205.783 27.8469 205.799 27.9256C205.799 27.9565 205.492 27.9743 205.492 27.9415C205.399 27.4094 205.202 27.1508 203.639 27.1508H202.592C202.534 27.6429 202.512 28.1385 202.527 28.6338V30.1167H203.334C204.686 30.1167 204.783 30.0848 204.912 29.5687C204.912 29.5359 205.219 29.519 205.202 29.5996C205.153 29.9144 205.132 30.2329 205.138 30.5514V31.2446C205.037 31.2668 204.933 31.2722 204.831 31.2605C204.718 30.6329 204.623 30.5842 203.332 30.5842H202.525V32.1767C202.525 33.7233 202.607 33.8686 203.153 33.8686H203.781C205.634 33.8686 205.682 33.6109 205.86 32.8222C205.86 32.8044 206.181 32.8044 206.181 32.854C206.132 33.1603 205.993 33.9482 205.923 34.1908C205.853 34.4334 205.795 34.4812 205.586 34.4812" fill="#36333D"/>
<path d="M215.822 32.2648C215.822 32.8615 215.838 33.9567 215.903 34.4719C215.903 34.5206 215.71 34.5852 215.612 34.4878L209.603 28.3818V32.2648C209.603 33.5548 209.714 34.0054 210.827 34.1018C210.859 34.1018 210.891 34.44 210.794 34.4091C210.361 34.3602 209.925 34.3386 209.489 34.3445C208.908 34.3299 208.327 34.3515 207.749 34.4091C207.669 34.425 207.7 34.1018 207.749 34.1018C208.813 33.9904 208.973 33.6335 208.973 32.2648V28.1251C208.973 27.5762 207.958 26.8352 207.411 26.7705C207.361 26.7705 207.329 26.4324 207.427 26.4652C208.133 26.5408 208.844 26.5721 209.554 26.5588L215.193 32.3913V28.6216C215.193 27.2361 215.031 26.8811 213.984 26.7687C213.904 26.7527 213.904 26.4305 214 26.4633C214.523 26.5359 215.052 26.5625 215.579 26.5429C216.053 26.5449 216.527 26.5183 216.998 26.4633C217.159 26.4474 217.078 26.7687 217.046 26.7687C215.922 26.8483 215.822 27.3307 215.822 28.6216V32.2648Z" fill="#36333D"/>
<path d="M225.223 28.064C225.223 28.1128 224.933 28.0959 224.933 28.064C224.82 27.5319 224.402 27.1619 223.113 27.1619H222.05V32.2702C222.05 33.7045 222.143 34.0108 223.274 34.1073C223.323 34.1073 223.355 34.4295 223.225 34.4127C222.851 34.364 222.034 34.348 221.518 34.348C220.856 34.3339 220.194 34.3555 219.535 34.4127C219.407 34.4445 219.471 34.1073 219.519 34.1073C220.584 33.9939 220.744 33.785 220.744 32.2702V27.1619H219.62C218.38 27.1619 217.896 27.517 217.736 28.0809C217.67 28.0968 217.428 28.0968 217.446 28.0481C217.499 27.6478 217.526 27.2444 217.526 26.8406C217.531 26.6288 217.509 26.4173 217.46 26.2111C217.446 26.1624 217.735 26.1474 217.751 26.1952C217.844 26.582 217.88 26.597 219.619 26.597H223.116C224.839 26.597 224.921 26.597 225.017 26.1952C225.033 26.1464 225.34 26.1624 225.307 26.227C225.237 26.5826 225.205 26.9448 225.213 27.3071C225.213 27.5001 225.213 27.9038 225.23 28.064" fill="#36333D"/>
<path d="M231.747 34.4086C231.296 34.4086 230.538 34.3439 229.636 34.3439C228.412 34.3439 226.945 34.3439 226.043 34.4086C225.949 34.4086 225.994 34.1022 226.043 34.1022C227.267 33.957 227.382 33.795 227.382 32.2643V28.6211C227.382 27.0913 227.267 26.8964 226.043 26.7681C225.994 26.7681 225.949 26.4299 226.043 26.4459C226.945 26.5264 228.363 26.5395 229.589 26.5395C230.459 26.5395 231.281 26.5067 232.024 26.4459C231.966 26.7211 231.939 27.002 231.943 27.2833C231.943 27.4117 231.943 27.7667 231.959 27.8454C231.959 27.8763 231.653 27.8941 231.653 27.8613C231.56 27.3292 231.363 27.0707 229.8 27.0707H228.749C228.691 27.5627 228.669 28.0584 228.685 28.5536V30.0365H229.491C230.843 30.0365 230.94 30.0047 231.07 29.4885C231.07 29.4557 231.375 29.4389 231.359 29.5195C231.311 29.8343 231.289 30.1527 231.296 30.4712V31.1645C231.195 31.1866 231.092 31.1919 230.99 31.1804C230.876 30.5527 230.78 30.504 229.491 30.504H228.685V32.0966C228.685 33.6441 228.766 33.7884 229.312 33.7884H229.94C231.793 33.7884 231.842 33.5308 232.019 32.742C232.019 32.7242 232.34 32.7242 232.34 32.7739C232.291 33.0793 232.153 33.869 232.082 34.1106C232.012 34.3523 231.954 34.4011 231.744 34.4011" fill="#36333D"/>
<path d="M236.975 30.9291C236.818 30.9317 236.662 30.9264 236.506 30.9132V32.2668C236.506 33.717 236.62 34.0074 237.715 34.1039C237.764 34.1039 237.794 34.4421 237.699 34.4111C237.324 34.3615 236.507 34.3456 235.991 34.3456C235.319 34.3312 234.647 34.3531 233.978 34.4111C233.884 34.4421 233.928 34.1039 233.978 34.1039C235.025 33.9924 235.217 33.7975 235.217 32.2668V28.6265C235.217 27.2213 234.96 26.9187 234.397 26.9187C234.245 26.9216 234.093 26.9379 233.944 26.9674C233.881 27.0002 233.8 26.693 233.896 26.677C234.976 26.4913 236.072 26.416 237.167 26.4522C239.341 26.4522 240.502 27.1454 240.502 28.4344C240.47 28.8806 240.308 29.3076 240.036 29.6628C239.764 30.0179 239.394 30.2856 238.972 30.4326C239.616 32.0758 241.146 34.2987 242.548 34.2987C242.596 34.2987 242.641 34.6051 242.548 34.6051C241.456 34.6017 240.399 34.2264 239.55 33.5411C238.7 32.8557 238.11 31.9014 237.876 30.8354C237.581 30.9056 237.278 30.937 236.975 30.9291ZM236.605 26.9496C236.516 27.4654 236.485 27.9895 236.511 28.5122V30.4467C236.661 30.4595 236.812 30.4648 236.963 30.4626C238.555 30.4626 239.187 29.8509 239.187 28.7548C239.187 27.4012 238.414 26.9178 237.012 26.9178C236.877 26.9168 236.742 26.9275 236.608 26.9496" fill="#36333D"/>
</g>
<defs>
<clipPath id="clip0_215_4318">
<rect width="249.118" height="35.598" fill="white" transform="translate(0.222656 0.130859)"/>
</clipPath>
</defs>
</svg>
