<svg width="156" height="82" viewBox="0 0 156 82" fill="none" xmlns="http://www.w3.org/2000/svg">
<g clip-path="url(#clip0_215_4321)">
<path d="M2.82422 28.0091H7.89167V29.7383C8.98875 28.6903 10.8695 28.0615 12.6457 27.9043L12.6979 32.4107L12.1755 32.4632C9.14548 32.83 7.94392 33.354 7.94392 35.2928V45.3537H2.82422V28.0091Z" fill="#03793E"/>
<path d="M25.4473 34.6135C25.2906 32.0983 23.4621 31.3122 21.9993 31.3122C20.1709 31.3122 18.6558 32.7795 18.5514 34.6135H25.4473ZM18.6558 37.7575C18.7081 41.0588 20.7978 42.1068 22.4173 42.1068C24.298 42.1068 25.1861 41.1112 26.6488 39.0675L30.4625 41.0588C28.6863 44.3076 25.9697 45.8272 22.1038 45.8272C16.7751 45.8272 13.6406 42.1068 13.6406 37.2335C13.6406 31.1026 16.8796 27.5918 22.1038 27.5918C28.3728 27.5918 30.567 32.4127 30.567 37.7575H18.6558Z" fill="#03793E"/>
<path d="M44.5693 33.1446C43.5767 31.9394 41.3825 31.3106 39.8152 31.3106C38.5614 31.3106 37.6211 31.7822 37.6211 32.6206C37.6211 35.5551 47.8605 33.1446 47.8605 39.6423C47.8605 44.2012 43.8379 45.8256 40.0765 45.8256C36.315 45.8256 34.1731 44.7776 31.6133 42.4196L34.7478 39.6947C36.315 41.1619 37.8823 42.1575 40.1809 42.1575C41.0168 42.1575 42.9498 41.9479 42.9498 40.3759C42.9498 37.6511 32.7104 39.7995 32.7104 33.6686C32.7104 29.3194 36.524 27.6426 40.0242 27.6426C42.7408 27.695 45.4051 28.5858 47.6515 30.1578L44.5693 33.1446Z" fill="#03793E"/>
<path d="M61.4395 34.6135C61.2827 32.0983 59.4543 31.3122 57.9915 31.3122C56.163 31.3122 54.648 32.7795 54.5435 34.6135H61.4395ZM54.648 37.7575C54.7003 41.0588 56.7899 42.1068 58.4094 42.1068C60.2901 42.1068 61.1783 41.1112 62.641 39.0675L66.4547 41.0588C64.6785 44.3076 61.9619 45.8272 58.096 45.8272C52.7673 45.8272 49.6328 42.1068 49.6328 37.2335C49.6328 31.1026 52.8718 27.5918 58.096 27.5918C64.365 27.5918 66.5069 32.4127 66.5592 37.7575H54.648Z" fill="#03793E"/>
<path d="M79.0963 36.9191L75.7006 37.9147C74.4468 38.2815 73.2452 38.7531 73.2452 40.1679C73.2452 41.5828 74.3945 42.1068 75.5961 42.1068C77.5813 42.1068 79.044 40.7443 79.044 38.1243L79.0963 36.9191ZM83.9548 41.74C83.9025 42.9452 84.0593 44.2028 84.425 45.3556H79.7232C79.5142 44.7792 79.4097 44.1504 79.4097 43.574H79.3575C78.5216 44.9364 75.9618 45.8272 74.1856 45.8272C70.8943 45.8272 68.3867 43.9932 68.3867 40.6919C68.3867 36.4999 71.7302 35.0851 77.2678 34.2991L79.0963 34.0371V32.5699C79.0963 31.2598 78.0515 30.7358 76.6932 30.7358C75.0737 30.7358 74.29 31.3122 74.0288 33.0415H69.1703C69.3271 28.0634 73.9243 27.5918 76.2752 27.5918C80.977 27.5918 83.9548 28.6922 83.9548 32.6223V41.74Z" fill="#03793E"/>
<path d="M86.9375 28.0091H92.005V29.7383C93.102 28.6903 94.9305 28.0615 96.759 27.9043L96.8112 32.4107L96.2365 32.4632C93.2065 32.83 92.005 33.354 92.005 35.2928V45.3537H86.9375V28.0091Z" fill="#03793E"/>
<path d="M110.127 33.8252C109.239 31.8864 107.672 31.4672 106.888 31.4672C104.015 31.4672 102.97 33.7204 102.97 36.6548C102.97 39.5893 104.224 41.8425 106.888 41.8425C108.456 41.8425 109.709 41.2661 110.493 39.3272L114.15 41.1613C112.635 43.9909 109.657 45.7201 106.47 45.7725C101.299 45.7725 97.7461 42.4713 97.7461 36.6548C97.7461 30.9432 101.56 27.5371 106.314 27.5371C109.605 27.5371 112.426 28.7423 114.098 31.7816L110.127 33.8252Z" fill="#03793E"/>
<path d="M116.297 22.1406H121.364V29.6339H121.417C122.409 28.3239 124.551 27.5379 126.171 27.5379C129.828 27.5379 131.604 29.6339 131.604 33.1448V45.3541H126.589V34.9788C126.589 32.3063 125.178 31.6775 124.081 31.6775C122.984 31.6775 121.469 32.4111 121.469 35.66V45.3541H116.297V22.1406Z" fill="#03793E"/>
<path d="M3.03689 60.6051H0.320312V58.1947H3.03689V55.2603C3.03689 51.6446 4.44742 50.125 7.63417 50.125C8.26107 50.125 8.83573 50.2298 9.41039 50.3346V52.483C8.88797 52.3782 8.36555 52.3258 7.84314 52.3258C6.95502 52.3258 5.85795 52.5878 5.85795 54.6315V58.1947H8.94021V60.6051H5.91019V74.7009H3.03689V60.6051Z" fill="#03793E"/>
<path d="M18.8616 72.8668C22.9365 72.8668 23.8769 69.1463 23.8769 66.4215C23.8769 63.6967 22.9365 59.9762 18.8616 59.9762C14.7868 59.9762 13.8464 63.6967 13.8464 66.4215C13.8464 69.1463 14.7868 72.8668 18.8616 72.8668ZM18.8616 57.7754C23.8769 57.7754 26.9069 61.4434 26.9069 66.4215C26.9069 71.3996 23.8769 75.0676 18.8616 75.0676C13.8464 75.0676 10.8164 71.3996 10.8164 66.4215C10.8164 61.4434 13.8464 57.7754 18.8616 57.7754Z" fill="#03793E"/>
<path d="M43.7284 74.6468H40.9073V72.446H40.8551C39.8103 74.1228 37.9818 75.1184 36.0488 75.066C32.7576 75.066 30.25 73.5988 30.25 69.04V58.193H33.0711V69.04C33.0711 71.398 34.5338 72.446 36.5713 72.446C39.1834 72.446 40.9596 70.7692 40.9596 68.0967V58.1406H43.7806V74.6468H43.7284Z" fill="#03793E"/>
<path d="M48.0664 58.1399H50.8875V60.3408H50.9919C52.0368 58.6639 53.8652 57.6683 55.7982 57.7207C59.0894 57.7207 61.597 59.1879 61.597 63.7468V74.5937H58.776V64.0088C58.776 61.1792 57.3132 60.3408 55.2758 60.3408C52.6637 60.3408 50.8875 62.0176 50.8875 64.69V74.6461H48.0664V58.1399Z" fill="#03793E"/>
<path d="M73.0926 72.6573C76.7495 72.6573 78.2123 69.6704 78.2123 66.4216C78.2123 63.1728 76.3316 60.1859 73.0926 60.1859C69.4357 60.1859 67.9729 63.1728 67.9729 66.4216C67.9729 69.6704 69.4357 72.6573 73.0926 72.6573ZM80.9289 74.6485H78.1078V72.6573H78.0556C76.854 74.2293 74.9733 75.0677 72.9881 75.0153C66.9281 75.0153 64.8906 70.7708 64.8906 66.3692C64.8906 61.9675 67.0848 57.7231 72.7269 57.7231C74.7643 57.6183 76.7495 58.5615 78.0033 60.1859H78.0556V50.125H80.8766L80.9289 74.6485Z" fill="#03793E"/>
<path d="M94.6646 66.6288C90.0674 67.2576 86.8806 67.7816 86.8806 70.3492C86.8806 72.3405 88.7091 72.8645 90.0674 72.8645C92.7317 72.8645 94.7169 71.2401 94.7169 68.5152V66.6288H94.6646ZM94.6646 63.2752C94.6646 60.9171 93.6198 59.9215 90.7987 59.9215C88.6568 59.9215 87.5598 61.0743 87.4553 63.2752L84.6342 63.118C84.9999 59.3975 87.1941 57.7207 90.851 57.7207C93.6198 57.7207 97.4857 58.4543 97.4857 62.8036V70.5065C97.4857 72.1309 98.1126 72.3929 98.6873 72.3929C99.0007 72.3929 99.2619 72.3405 99.5231 72.2357V74.5937C98.9485 74.7509 98.3738 74.8033 97.7469 74.8557C96.0752 74.8557 95.2915 74.1221 94.8736 72.6025C93.4108 74.2793 91.2689 75.2225 89.0225 75.1701C86.097 75.1701 83.7461 73.1789 83.7461 70.6113C83.7461 66.0524 87.821 65.214 94.5602 64.8472L94.6646 63.2752Z" fill="#03793E"/>
<path d="M100.309 58.1392H103.025V53.0039H105.846V58.1392H108.928V60.5496H105.846V71.0297C105.846 71.8157 105.846 72.6017 106.996 72.6017C107.622 72.6017 108.197 72.4969 108.772 72.2349V74.6454C107.884 74.855 106.943 74.9598 106.003 75.0122C103.077 75.0122 103.077 73.6497 103.077 71.7633V60.5496H100.361L100.309 58.1392Z" fill="#03793E"/>
<path d="M112.484 58.14H115.305V74.6462H112.484V58.14ZM112.484 50.0703H115.305V53.3191H112.484V50.0703Z" fill="#03793E"/>
<path d="M125.858 72.8668C129.933 72.8668 130.873 69.1463 130.873 66.4215C130.873 63.6967 129.933 59.9762 125.858 59.9762C121.783 59.9762 120.843 63.6967 120.843 66.4215C120.843 69.1463 121.835 72.8668 125.858 72.8668ZM125.858 57.7754C130.873 57.7754 133.903 61.4434 133.903 66.4215C133.903 71.3996 130.925 75.0676 125.858 75.0676C120.79 75.0676 117.812 71.3996 117.812 66.4215C117.812 61.4434 120.843 57.7754 125.858 57.7754Z" fill="#03793E"/>
<path d="M137.246 58.1399H140.067V60.3408H140.119C141.164 58.6639 142.993 57.6683 144.926 57.7207C148.217 57.7207 150.724 59.1879 150.724 63.7468V74.5937H147.903V64.0088C147.903 61.1792 146.441 60.3408 144.455 60.3408C141.843 60.3408 140.067 62.0176 140.067 64.69V74.6461H137.246V58.1399Z" fill="#03793E"/>
<path d="M73.6669 9.09236C73.9281 9.09236 74.1371 9.09236 74.1371 8.83036C74.1371 8.56836 73.9281 8.56836 73.7191 8.56836H73.3534V9.14476H73.6669V9.09236ZM73.4057 9.98317H73.1967V8.30635H73.8236C74.1893 8.30635 74.346 8.46356 74.346 8.77796C74.346 9.03996 74.1893 9.19716 73.9281 9.24956L74.3983 9.98317H74.1893L73.7191 9.24956H73.4057V9.98317ZM72.5176 9.19716C72.5176 9.87837 73.0922 10.4024 73.7191 10.4024C74.3983 10.4024 74.9207 9.82597 74.9207 9.19716C74.9207 8.51596 74.346 7.99195 73.7191 7.99195C73.0922 7.93955 72.5698 8.51596 72.5176 9.19716ZM75.1296 9.19716C75.1296 9.98317 74.5027 10.612 73.7191 10.612C72.9355 10.612 72.3086 9.98317 72.3086 9.19716C72.3086 8.41115 72.9355 7.78235 73.7191 7.78235C74.5027 7.72995 75.1296 8.35875 75.1296 9.19716C75.1819 9.19716 75.1819 9.14476 75.1296 9.19716Z" fill="#221F20"/>
<path d="M31.0379 15.486C30.5677 15.6956 30.0976 15.8528 29.6274 15.9052L28.0079 16.2721C26.9108 16.4817 25.9704 16.7961 25.9704 17.9489C25.9704 18.8921 26.8063 19.4685 27.9034 19.4685C29.2617 19.4685 31.0379 18.7873 31.0379 17.2153V15.486ZM33.9634 19.5733C33.9112 20.3593 34.0679 21.0929 34.3814 21.8265H31.2469C31.0901 21.4073 30.9857 20.9881 30.9857 20.5165C29.8886 21.4597 28.4781 21.9313 27.0153 21.9313C24.7166 21.9313 22.8359 20.4641 22.8359 18.1061C22.8359 15.748 24.7689 14.6476 26.5451 14.2808L27.7989 14.0188C28.896 13.8616 29.9408 13.5996 30.9857 13.2852V12.9184C30.9857 11.7132 29.9408 11.3464 28.687 11.3464C26.963 11.3464 26.4406 12.08 26.4406 13.1804H23.5151C23.5151 10.2984 25.6048 8.93597 28.7393 9.04077C31.3514 9.14557 34.0157 9.56477 34.0157 13.0756L33.9634 19.5733Z" fill="#221F20"/>
<path d="M44.5163 12.972C42.8968 11.924 42.4789 11.6096 41.1729 11.5048C39.8668 11.4 38.9265 11.9764 38.9265 12.71C38.9265 14.8585 46.606 13.0244 46.606 17.6357C46.606 20.5701 43.9939 21.9325 41.1729 21.9325C38.3518 21.9325 36.3666 20.9369 35.2695 19.6793L37.098 18.2121C38.1951 19.1029 39.6056 19.5745 41.0161 19.4697C42.4267 19.4697 43.367 18.6837 43.367 18.0549C43.367 15.9589 35.7919 17.6881 35.7919 13.0244C35.7919 10.2472 38.1951 9.04199 41.1729 9.04199C43.1058 8.93719 44.9865 9.7756 46.2403 11.2428L44.5163 12.972Z" fill="#221F20"/>
<path d="M55.6942 15.4848C55.224 15.6944 54.7538 15.8516 54.2836 15.904L52.6641 16.2184C51.567 16.428 50.6267 16.7424 50.6267 17.8952C50.6267 18.8384 51.4626 19.4148 52.5596 19.4148C53.9179 19.4148 55.6942 18.7336 55.6942 17.1616V15.4848ZM58.6197 19.572C58.5675 20.358 58.7242 21.0916 59.0899 21.7728H55.9554C55.7464 21.406 55.6419 20.9344 55.6419 20.5152C54.5448 21.4584 53.0821 21.93 51.6715 21.93C49.3729 21.93 47.4922 20.4628 47.4922 18.1048C47.4922 15.7468 49.4251 14.6463 51.2014 14.2795L52.4552 14.0175C53.5522 13.8603 54.5971 13.5983 55.6419 13.2839V12.9171C55.6419 11.7119 54.5971 11.3451 53.3433 11.3451C51.6193 11.3451 51.0969 12.0787 51.0969 13.2315H48.1191C48.1191 10.3495 50.261 8.93468 53.3433 9.09188C55.9554 9.19668 58.6197 9.61589 58.6197 13.1267V19.572Z" fill="#221F20"/>
<path d="M68.9153 13.913C68.7586 12.4982 67.557 11.5026 66.1465 11.5026C64.6837 11.4502 63.3776 12.4458 63.012 13.913H68.9153ZM63.012 16.2186C63.0642 17.8954 64.4747 19.2054 66.1465 19.2054C68.3929 19.3102 69.3855 18.5242 70.1691 17.7382L72.2065 18.9434C71.2662 20.3583 69.5422 21.9303 66.1987 21.9303C62.2283 21.9303 59.9297 19.153 59.9297 15.5374C59.9297 11.9218 62.2283 9.14453 66.1987 9.14453C70.2736 9.14453 72.0498 11.8694 72.0498 16.271L63.012 16.2186Z" fill="#221F20"/>
<path d="M11.3391 14.963L8.3091 16.9018L9.66739 13.6006C10.1376 13.915 10.5555 14.2818 10.9734 14.6486C11.0779 14.7534 11.1824 14.8582 11.3391 14.963ZM13.7945 15.1202L14.8393 14.439C14.9961 15.1726 15.0483 15.8538 15.0483 16.5874C14.7348 16.0634 14.3169 15.5394 13.7945 15.1202ZM15.8842 12.1333C15.8319 11.9237 15.7274 11.7141 15.6752 11.5569C15.623 11.3997 15.5185 11.1377 15.414 10.9805L17.6081 11.0853L15.8842 12.1333ZM13.481 9.98492H11.0779L11.966 7.36489C12.5929 8.1509 13.1153 9.04171 13.481 9.98492ZM10.8167 10.7185L13.7945 10.8757C14.1079 11.5569 14.3692 12.2381 14.5259 12.9718L12.5407 14.0722C11.7571 13.4958 10.9212 12.9718 10.0853 12.5001L10.8167 10.7185ZM3.45061 21.8275L12.3317 16.0634C14.1079 18.3166 16.4066 21.7751 16.4066 21.7751C16.9812 19.0502 16.929 16.2206 16.2499 13.4958L21.7353 9.93252H14.8393C14.1079 8.83211 13.1676 7.88889 12.0183 7.20769L12.6974 5.16406L11.6003 6.99808L9.87636 9.93252H2.5625L9.45842 10.6137L8.77928 11.8713C6.79409 11.0329 4.70441 10.4041 2.5625 9.98492C4.54769 10.7709 6.48064 11.7141 8.3091 12.8146L3.45061 21.8275Z" fill="#E65526"/>
</g>
<defs>
<clipPath id="clip0_215_4321">
<rect width="155.158" height="81.2734" fill="white" transform="translate(0.320312 0.291016)"/>
</clipPath>
</defs>
</svg>
