<svg width="482" height="73" viewBox="0 0 482 73" fill="none" xmlns="http://www.w3.org/2000/svg">
<g clip-path="url(#clip0_215_4555)">
<path d="M38.7874 9.66185V15.1331H42.5744V45.6095H34.5648V5.47129H38.8181V0H18.8428V5.47129H23.1013V45.6095H15.0045V15.1331H18.7864V9.66185H0V15.1331H4.24309V50.425L11.1509 57.4691H23.1013V65.6043H18.8633V72.6535H38.8079V65.6043H34.5648V57.4691H46.4229L53.3307 50.425V15.1331H57.5892V9.66185H38.7874Z" fill="#7A1705"/>
<path d="M80.6248 49.0747V27.0102H77.668V25.75H88.7318V27.0102H85.7954V49.0747H88.7318V50.335H77.6731V49.0747H80.6299H80.6248Z" fill="#231F20"/>
<path d="M111.52 50.586L96.8535 32.2766V46.4825C96.8535 47.671 96.9611 48.3968 97.1764 48.6598C97.3916 48.9227 97.9194 49.0611 98.7598 49.0747H100.22V50.335H92.7539V49.0747H93.7071C94.5475 49.0747 95.0821 48.9364 95.311 48.6598C95.5399 48.3831 95.6424 47.6574 95.6185 46.4825V25.75H98.2832L112.442 43.4702V29.6383C112.442 28.4361 112.335 27.7035 112.119 27.4406C111.904 27.1776 111.37 27.0393 110.515 27.0256H109.562V25.75H116.573V27.0102H115.619C114.779 27.0102 114.251 27.1486 114.036 27.4252C113.821 27.7018 113.713 28.4344 113.713 29.6229V50.586H111.535H111.52Z" fill="#231F20"/>
<path d="M123.152 49.0747V27.0102H120.195V25.75H131.7C134.221 25.75 136.059 25.9839 137.214 26.4518C138.671 27.1078 139.959 28.0872 140.98 29.3156C142.993 31.597 143.999 34.5205 143.999 38.086C144.047 40.4865 143.483 42.8598 142.359 44.9815C141.572 46.5023 140.402 47.7911 138.964 48.7203C137.526 49.6495 135.87 50.1867 134.16 50.2786C133.534 50.3162 132.723 50.335 131.725 50.335H120.195V49.0747H123.152ZM128.323 49.0747H131.725C132.632 49.1202 133.54 49.011 134.411 48.752C135.733 48.2226 136.657 47.0699 137.183 45.294C137.627 43.8152 137.849 41.3954 137.849 38.0348C137.91 35.7725 137.738 33.51 137.337 31.2828C136.951 29.5751 136.194 28.3678 135.067 27.6609C134.574 27.3417 134.011 27.1449 133.427 27.0871C132.87 27.0352 132.31 27.0113 131.751 27.0154H128.348V49.0747H128.323Z" fill="#231F20"/>
<path d="M151.285 49.0747V27.0102H148.328V25.75H159.371V27.0102H156.435V49.0747H159.371V50.335H148.333V49.0747H151.29H151.285Z" fill="#231F20"/>
<path d="M176.358 43.9039H168.672L167.349 47.6437C167.229 47.9453 167.145 48.2599 167.098 48.5812C167.098 48.9056 167.513 49.0679 168.344 49.0679H170.055V50.3281H162.445V49.073H163.562C164.464 49.073 165.066 48.9347 165.366 48.658C165.713 48.1976 165.97 47.6763 166.125 47.1212L174.032 25.7227H175.205L183.62 49.0474H186.213V50.3076H175.185V49.073H178.357L176.358 43.9039ZM175.979 42.6437L172.52 33.1714L169.107 42.6437H175.969H175.979Z" fill="#231F20"/>
<path d="M207.483 50.586L192.832 32.2766V46.4825C192.832 47.671 192.94 48.3968 193.155 48.6598C193.37 48.9227 193.895 49.0611 194.728 49.0747H196.189V50.335H188.707V49.0747H189.66C190.501 49.0747 191.035 48.9364 191.264 48.6598C191.493 48.3831 191.596 47.6574 191.572 46.4825V25.75H194.216L208.375 43.4702V29.6383C208.375 28.4361 208.267 27.7035 208.052 27.4406C207.837 27.1776 207.302 27.0393 206.448 27.0256H205.495V25.75H212.505V27.0102H211.552C210.712 27.0102 210.184 27.1486 209.969 27.4252C209.753 27.7018 209.646 28.4344 209.646 29.6229V50.586H207.468H207.483Z" fill="#231F20"/>
<path d="M227.964 43.9039H220.277L218.955 47.6437C218.835 47.9453 218.75 48.2599 218.704 48.5812C218.704 48.9056 219.119 49.0679 219.949 49.0679H221.66V50.3281H214.035V49.073H215.152C216.054 49.073 216.655 48.9347 216.956 48.658C217.303 48.1976 217.56 47.6763 217.715 47.1212L225.622 25.7227H226.795L235.215 49.073H237.777V50.3332H226.79V49.073H229.962L227.964 43.9039ZM227.584 42.6437L224.125 33.1714L220.723 42.6437H227.584Z" fill="#231F20"/>
<path d="M254.504 27.0102H251.547V25.75H262.99V27.0102H259.674V42.4661C259.651 43.5114 259.697 44.5571 259.813 45.5962C259.884 46.1675 260.076 46.7169 260.378 47.2073C260.679 47.6978 261.083 48.118 261.56 48.4395C262.546 49.053 263.695 49.3548 264.855 49.3053C267.185 49.3053 268.825 48.6324 269.775 47.2868C270.179 46.7041 270.45 46.0394 270.569 45.3401C270.714 44.3738 270.774 43.3967 270.748 42.42V29.6793C270.748 28.4532 270.641 27.7035 270.426 27.4303C270.21 27.1571 269.676 27.0188 268.822 27.0154H267.868V25.75H274.879V27.0102H273.926C273.085 27.0102 272.557 27.1486 272.342 27.4252C272.127 27.7018 272.019 28.4515 272.019 29.6742V42.4815C272.078 43.8108 271.963 45.1422 271.676 46.4415C271.435 47.1917 271.044 47.8851 270.527 48.4796C270.01 49.074 269.378 49.5571 268.668 49.8995C267.1 50.6456 265.377 51.009 263.641 50.96C261.9 50.9769 260.171 50.6712 258.542 50.0583C256.765 49.3753 255.57 48.3609 254.955 47.0153C254.678 46.3152 254.532 45.5703 254.524 44.8176C254.5 44.2779 254.488 43.4976 254.488 42.4764V27.0102H254.504Z" fill="#231F20"/>
<path d="M295.862 50.586L281.216 32.2766V46.4825C281.216 47.671 281.324 48.3968 281.539 48.6598C281.754 48.9227 282.282 49.0611 283.123 49.0747H284.583V50.335H277.086V49.0747H278.039C278.88 49.0747 279.414 48.9364 279.643 48.6598C279.872 48.3831 279.974 47.6574 279.951 46.4825V25.75H282.615L296.774 43.4702V29.6383C296.774 28.4361 296.667 27.7035 296.451 27.4406C296.236 27.1776 295.702 27.0393 294.847 27.0256H293.894V25.75H300.905V27.0102H299.951C299.111 27.0102 298.583 27.1486 298.368 27.4252C298.153 27.7018 298.045 28.4344 298.045 29.6229V50.586H295.867H295.862Z" fill="#231F20"/>
<path d="M307.672 49.0747V27.0102H304.715V25.75H315.779V27.0102H312.842V49.0747H315.779V50.335H304.715V49.0747H307.672Z" fill="#231F20"/>
<path d="M326.621 27.0102L332.853 43.0911L337.706 28.5061C337.801 28.2756 337.861 28.0321 337.885 27.7838C337.891 27.6647 337.864 27.5463 337.807 27.4414C337.75 27.3366 337.665 27.2495 337.562 27.1895C336.995 27.0237 336.403 26.9629 335.815 27.0102H335.005V25.75H342.113V27.0102H341.518C340.9 26.9724 340.289 27.1538 339.791 27.5225C339.357 28.012 339.048 28.599 338.889 29.2336L331.648 50.8216H330.583L321.2 27.0102H318.914V25.75H329.578V27.0102H326.621Z" fill="#231F20"/>
<path d="M348.088 49.0747V27.0102H345.137V25.75H364.538L365.117 32.0154H363.892C363.448 30.1199 362.799 28.805 361.945 28.0707C361.334 27.5689 360.6 27.2399 359.818 27.1178C359.072 27.0309 358.32 26.995 357.569 27.0102H353.264V37.2254H354.289C355.257 37.2908 356.224 37.085 357.082 36.6311C357.417 36.4027 357.701 36.1071 357.915 35.7631C358.129 35.4192 358.27 35.0343 358.327 34.6332C358.412 34.1096 358.46 33.5806 358.471 33.0502H359.695V43.0758H358.471C358.486 41.9907 358.264 40.9153 357.82 39.9252C357.29 38.9655 356.078 38.4856 354.181 38.4856H353.244V49.0747H356.667C358.121 49.1366 359.574 48.9352 360.956 48.4805C362.709 47.7735 363.933 45.7926 364.63 42.5379H365.891L365.379 50.335H345.137V49.0747H348.094H348.088Z" fill="#231F20"/>
<path d="M372.996 49.0731V27.0086H370.039V25.7484H380.652C382.412 25.6953 384.172 25.8518 385.894 26.2146C387.402 26.5776 388.72 27.4912 389.589 28.776C390.134 29.5965 390.416 30.563 390.399 31.5475C390.399 33.5523 389.432 35.1012 387.498 36.194C386.594 36.7116 385.596 37.0426 384.562 37.1674C384.203 37.2152 383.651 37.2579 382.907 37.2955C384.262 37.5081 385.582 37.9027 386.832 38.4686C387.506 38.7331 388.121 39.1287 388.641 39.6326C389.161 40.1365 389.575 40.7387 389.861 41.4041C390.148 42.1134 390.295 42.8722 390.291 43.6377L390.204 45.5946V45.8661C390.204 47.0547 390.426 47.9085 390.87 48.4276C391.031 48.6359 391.239 48.8033 391.477 48.9163C391.714 49.0294 391.975 49.0848 392.238 49.0782H393.192V50.3385H389.697C388.33 50.3385 387.345 50.0618 386.74 49.5086C386.313 49.1426 385.948 48.7101 385.659 48.2278C385.336 47.5802 385.188 46.8599 385.228 46.1377V42.8795C385.228 41.2094 384.808 40.0021 383.967 39.2576C383.373 38.7289 382.675 38.3294 381.918 38.0844C381.021 37.8806 380.1 37.7962 379.181 37.8334H378.156V49.0731H381.093V50.3333H370.044V49.0731H373.001H372.996ZM378.187 36.5731H380.672C381.563 36.6209 382.456 36.4992 383.301 36.2145C384.576 35.6749 385.213 34.0834 385.213 31.44C385.213 29.7938 384.84 28.5814 384.096 27.8027C383.713 27.4303 383.221 27.1899 382.691 27.1162C382.029 27.0296 381.361 26.9936 380.693 27.0086H378.187V36.5731Z" fill="#231F20"/>
<path d="M412.859 25.7488V32.3779H411.671C411.437 30.9846 410.848 29.6752 409.959 28.5767C408.914 27.2106 407.364 26.5275 405.311 26.5275C404.183 26.4975 403.07 26.7908 402.103 27.3728C401.583 27.6529 401.148 28.0693 400.847 28.5774C400.545 29.0856 400.388 29.6662 400.392 30.257C400.385 31.0296 400.66 31.7782 401.165 32.3626C401.671 32.9636 402.626 33.4862 404.03 33.9302L406.643 34.6525C408.529 35.1819 409.845 35.5968 410.589 35.8974C412.056 36.456 413.263 37.5384 413.977 38.9353C414.564 40.0953 414.861 41.3803 414.843 42.6801C414.859 44.2446 414.448 45.7837 413.654 47.132C412.867 48.4572 411.674 49.4937 410.251 50.0879C409.01 50.645 407.665 50.9331 406.305 50.9332C403.934 50.9175 401.628 50.1597 399.71 48.7662L398.485 50.3338H397.46V43.4896H398.793C399.088 44.9228 399.758 46.2522 400.735 47.342C401.441 48.0688 402.291 48.6397 403.231 49.0182C404.171 49.3967 405.18 49.5744 406.193 49.5398C407.52 49.5575 408.815 49.126 409.867 48.3154C411.08 47.4137 411.686 46.3687 411.686 45.1801C411.677 44.6613 411.566 44.1493 411.358 43.6736C411.151 43.1979 410.851 42.768 410.477 42.4086C409.678 41.6443 408.7 41.0929 407.633 40.8052C407.25 40.6959 405.713 40.2399 403.02 39.4373C402.069 39.1949 401.15 38.8389 400.284 38.3769C398.388 37.1645 397.44 35.3339 397.44 32.8851C397.397 31.8386 397.577 30.7948 397.968 29.8232C398.36 28.8516 398.953 27.9744 399.71 27.2499C401.204 25.85 403.192 25.0986 405.239 25.1597C406.669 25.1635 408.076 25.5151 409.339 26.1843C409.681 26.3653 410.108 26.618 410.62 26.9425L411.881 25.7898H412.834L412.859 25.7488Z" fill="#231F20"/>
<path d="M421.988 49.0747V27.0102H419.031V25.75H430.095V27.0102H427.159V49.0747H430.095V50.335H419.036V49.0747H421.993H421.988Z" fill="#231F20"/>
<path d="M442.126 49.0747V27.0102H441.137C440.016 26.9407 438.893 27.1318 437.858 27.5686C436.105 28.4942 435.097 30.405 434.834 33.3012H433.609L434.05 25.75H455.327L455.804 33.3012H454.579C454.505 31.6494 453.942 30.0569 452.96 28.7264C452.386 27.9691 451.573 27.4275 450.653 27.1895C449.877 27.0311 449.084 26.964 448.291 26.9898H447.302V49.0747H450.618V50.335H438.831V49.0747H442.147H442.126Z" fill="#231F20"/>
<path d="M467.715 49.0747V38.9877L460.597 27.0102H458.348V25.75H469.678V27.0102H466.526L472.384 37.1332L476.96 28.5779C477.154 28.2655 477.283 27.917 477.339 27.5533C477.342 27.4356 477.305 27.3203 477.233 27.227C477.161 27.1337 477.059 27.068 476.944 27.041C476.654 26.9899 476.358 26.971 476.063 26.9846H474.351V25.75H481.485V27.0102H480.819C480.234 26.9652 479.652 27.1167 479.163 27.4406C478.756 27.8456 478.426 28.3212 478.19 28.8443L472.886 38.9364V49.0747H476.201V50.335H464.379V49.0747H467.71H467.715Z" fill="#231F20"/>
</g>
<defs>
<clipPath id="clip0_215_4555">
<rect width="481.483" height="72.6535" fill="white"/>
</clipPath>
</defs>
</svg>
