<svg width="55" height="55" viewBox="0 0 55 55" fill="none" xmlns="http://www.w3.org/2000/svg">
<rect x="0.0869141" y="0.998047" width="54" height="54" rx="6" fill="#3196F5" fill-opacity="0.11"/>
<path d="M40.4856 29.8072L36.439 25.7605C37.1905 24.6853 37.5952 23.4135 37.5952 22.0839C37.5952 20.3496 36.9246 18.7194 35.699 17.5054C34.4735 16.2798 32.8432 15.5977 31.1205 15.5977C29.3978 15.5977 27.756 16.2798 26.542 17.5054C25.4668 18.5691 24.8193 19.9565 24.6806 21.448H16.1363C14.5986 21.448 13.3384 22.7082 13.3384 24.2575V37.5883C13.3384 39.1376 14.5986 40.3979 16.1363 40.3979H31.6293C33.1785 40.3979 34.4388 39.1376 34.4388 37.5883V27.6336C34.566 27.5758 34.6931 27.4948 34.8088 27.4023L38.8554 31.449C39.0867 31.6802 39.3757 31.7843 39.6763 31.7843C39.9769 31.7843 40.266 31.6687 40.4972 31.449C40.9481 30.9981 40.9481 30.2697 40.4972 29.8188L40.4856 29.8072ZM26.9583 22.0839C26.9583 21.8642 26.9698 21.6561 27.0161 21.448C27.1317 20.5693 27.5363 19.7715 28.1722 19.1356C28.9585 18.3494 30.0106 17.91 31.1205 17.91C32.2305 17.91 33.271 18.3494 34.0688 19.1356C34.855 19.9218 35.2828 20.9624 35.2828 22.0839C35.2828 22.9973 34.9938 23.876 34.4388 24.5928C34.3347 24.7431 34.2076 24.8818 34.0688 25.0206C33.826 25.2634 33.5601 25.4599 33.2826 25.6218C32.9242 25.8415 32.5311 25.9918 32.1264 26.0843C30.739 26.4196 29.2013 26.0611 28.1722 25.0206C27.8023 24.6506 27.5132 24.2228 27.3051 23.7603C27.1432 23.3904 27.0392 23.0088 26.9929 22.6041C26.9698 22.4307 26.9583 22.2573 26.9583 22.0839ZM32.1264 37.5883C32.1264 37.8658 31.9067 38.0855 31.6293 38.0855H16.1363C15.8704 38.0855 15.6508 37.8658 15.6508 37.5883V35.8887H19.524C20.1599 35.8887 20.6802 35.3685 20.6802 34.7325C20.6802 34.0966 20.1599 33.5764 19.524 33.5764H15.6508V32.0733H22.0445C22.6804 32.0733 23.2007 31.5646 23.2007 30.9171C23.2007 30.2697 22.6804 29.7609 22.0445 29.7609H15.6508V28.2695H24.565C25.2009 28.2695 25.7211 27.7492 25.7211 27.1133C25.7211 26.4774 25.2009 25.9571 24.565 25.9571H15.6508V24.2575C15.6508 23.98 15.8704 23.7603 16.1363 23.7603H24.8771C25.1546 24.8471 25.7211 25.8415 26.542 26.6624C27.756 27.8879 29.3862 28.5585 31.1205 28.5585C31.4558 28.5585 31.8027 28.5354 32.1264 28.466V37.5883Z" fill="#3196F5"/>
</svg>
