<svg xmlns="http://www.w3.org/2000/svg" width="12.833" height="14.192" viewBox="0 0 12.833 14.192">
  <g id="Group_49" data-name="Group 49" transform="translate(656.492 -1758.57)">
    <path id="Path_145" data-name="Path 145" d="M-650.047,1772.762h-.055c-.041-.028-.081-.059-.124-.083q-3.068-1.7-6.138-3.4a.209.209,0,0,1-.128-.213q.006-3.415,0-6.83a.2.2,0,0,1,.118-.2q3.095-1.71,6.185-3.428a.2.2,0,0,1,.226,0q3.09,1.718,6.185,3.428a.2.2,0,0,1,.118.2q0,3.415,0,6.83a.209.209,0,0,1-.128.213q-3.071,1.7-6.138,3.4C-649.967,1772.7-650.006,1772.734-650.047,1772.762Zm3.634-7.1c0-.639,0-1.277,0-1.916a.178.178,0,0,0-.109-.182q-1.73-.953-3.456-1.915a.178.178,0,0,0-.2,0q-1.726.961-3.456,1.915a.179.179,0,0,0-.108.183q0,1.9,0,3.8a.189.189,0,0,0,.115.193q1.724.95,3.443,1.909a.189.189,0,0,0,.213,0q1.719-.959,3.444-1.909a.188.188,0,0,0,.114-.193C-646.415,1766.922-646.413,1766.292-646.413,1765.663Z" fill="#7e9ab8"/>
    <path id="Path_146" data-name="Path 146" d="M-548.566,1880.754c0-.425,0-.851,0-1.276a.159.159,0,0,1,.094-.163q1.16-.637,2.315-1.282a.169.169,0,0,1,.188,0q1.155.645,2.315,1.282a.16.16,0,0,1,.095.163c0,.855,0,1.711-.005,2.567a.2.2,0,0,1-.086.148q-1.16.651-2.327,1.289a.208.208,0,0,1-.171,0c-.774-.423-1.545-.853-2.318-1.277a.169.169,0,0,1-.1-.173C-548.563,1881.605-548.566,1881.18-548.566,1880.754Z" transform="translate(-104.012 -115.104)" fill="#7e9ab8"/>
  </g>
</svg>
