<svg width="28" height="25" viewBox="0 0 28 25" fill="none" xmlns="http://www.w3.org/2000/svg">
<path d="M27.4129 14.3111L23.3662 10.2644C24.1178 9.18919 24.5224 7.91739 24.5224 6.58777C24.5224 4.85349 23.8518 3.22327 22.6263 2.00927C21.4007 0.783713 19.7705 0.101562 18.0478 0.101562C16.3251 0.101562 14.6833 0.783713 13.4693 2.00927C12.394 3.07296 11.7466 4.46039 11.6078 5.95187H3.0636C1.52587 5.95187 0.265625 7.21211 0.265625 8.7614V22.0922C0.265625 23.6415 1.52587 24.9018 3.0636 24.9018H18.5565C20.1058 24.9018 21.366 23.6415 21.366 22.0922V12.1375C21.4932 12.0797 21.6204 11.9987 21.736 11.9062L25.7827 15.9529C26.0139 16.1841 26.3029 16.2882 26.6036 16.2882C26.9042 16.2882 27.1932 16.1726 27.4245 15.9529C27.8754 15.502 27.8754 14.7736 27.4245 14.3227L27.4129 14.3111ZM13.8855 6.58777C13.8855 6.36809 13.8971 6.15998 13.9433 5.95187C14.0589 5.07317 14.4636 4.2754 15.0995 3.63949C15.8857 2.85329 16.9378 2.41394 18.0478 2.41394C19.1577 2.41394 20.1983 2.85329 20.9961 3.63949C21.7823 4.4257 22.21 5.46627 22.21 6.58777C22.21 7.50116 21.921 8.37986 21.366 9.0967C21.262 9.247 21.1348 9.38574 20.9961 9.52448C20.7533 9.76728 20.4873 9.96384 20.2098 10.1257C19.8514 10.3454 19.4583 10.4957 19.0537 10.5882C17.6662 10.9235 16.1285 10.5651 15.0995 9.52448C14.7295 9.1545 14.4405 8.72672 14.2324 8.26424C14.0705 7.89426 13.9664 7.51272 13.9202 7.10806C13.8971 6.93463 13.8855 6.7612 13.8855 6.58777ZM19.0537 22.0922C19.0537 22.3697 18.834 22.5894 18.5565 22.5894H3.0636C2.79767 22.5894 2.578 22.3697 2.578 22.0922V20.3926H6.45122C7.08713 20.3926 7.60741 19.8724 7.60741 19.2365C7.60741 18.6006 7.08713 18.0803 6.45122 18.0803H2.578V16.5772H8.97171C9.60761 16.5772 10.1279 16.0685 10.1279 15.421C10.1279 14.7736 9.60761 14.2649 8.97171 14.2649H2.578V12.7734H11.4922C12.1281 12.7734 12.6484 12.2531 12.6484 11.6172C12.6484 10.9813 12.1281 10.461 11.4922 10.461H2.578V8.7614C2.578 8.48392 2.79767 8.26424 3.0636 8.26424H11.8044C12.0818 9.35106 12.6484 10.3454 13.4693 11.1663C14.6833 12.3918 16.3135 13.0624 18.0478 13.0624C18.3831 13.0624 18.7299 13.0393 19.0537 12.9699V22.0922Z" fill="white" fill-opacity="0.95"/>
</svg>
