<svg xmlns="http://www.w3.org/2000/svg" width="12.558" height="14.192" viewBox="0 0 12.558 14.192">
  <g id="Group_48" data-name="Group 48" transform="translate(240.845 -1463.201)">
    <path id="Path_140" data-name="Path 140" d="M-229.888,1477.393h-10.783a.371.371,0,0,1-.174-.361q0-5.315,0-10.63v-.158h.183c.748,0,1.5,0,2.245,0a1.22,1.22,0,0,0,.315-.037.761.761,0,0,0,.55-.8c0-.679,0-1.358,0-2.037v-.167h7.532c.234,0,.323.092.323.331q0,1.961,0,3.922c0,.034-.006.067-.009.1-.017,0-.022,0-.025,0l-.156-.114a3.343,3.343,0,0,0-1.74-.655,3.412,3.412,0,0,0-3.3,1.609,3.353,3.353,0,0,0-.071,3.734,3.505,3.505,0,0,0,3.991,1.6c.093-.024.137-.012.185.074.354.622.714,1.24,1.069,1.861a.417.417,0,0,1,.052.194c0,.4,0,.8,0,1.206A.317.317,0,0,1-229.888,1477.393Zm-6.782-3.044h1.537c.365,0,.729,0,1.094,0a.255.255,0,0,0,.288-.236c.011-.164-.115-.267-.329-.267h-5.164a.552.552,0,0,0-.15.016.237.237,0,0,0-.174.264.231.231,0,0,0,.213.218,1.05,1.05,0,0,0,.152.005Zm-.757-1.519h1.787a1,1,0,0,0,.166-.01.23.23,0,0,0,.2-.232.226.226,0,0,0-.167-.242.569.569,0,0,0-.163-.022q-1.822,0-3.644,0a.5.5,0,0,0-.163.024.226.226,0,0,0-.159.247.225.225,0,0,0,.191.224.884.884,0,0,0,.179.011Zm-.247-3.037c.512,0,1.025,0,1.537,0a.631.631,0,0,0,.191-.023.227.227,0,0,0,.162-.245.225.225,0,0,0-.175-.223.638.638,0,0,0-.164-.018h-3.116a.646.646,0,0,0-.137.014.235.235,0,0,0-.19.288c.025.137.126.207.313.208C-238.726,1469.794-238.2,1469.793-237.674,1469.793Zm-.018,1.519q.769,0,1.537,0a.827.827,0,0,0,.192-.017.222.222,0,0,0,.178-.219.227.227,0,0,0-.158-.248.589.589,0,0,0-.191-.024q-1.544,0-3.089,0a.671.671,0,0,0-.178.02.225.225,0,0,0-.173.238.224.224,0,0,0,.192.236.94.94,0,0,0,.179.015Zm1.294-3.041c.272,0,.544.008.816,0a.372.372,0,0,0,.25-.108.319.319,0,0,0,.025-.253c-.034-.114-.146-.141-.259-.141h-1.687a.493.493,0,0,0-.082.008.24.24,0,0,0-.208.264c.01.143.114.232.289.234C-236.968,1468.273-236.683,1468.271-236.4,1468.271Zm-2.427,0c.157,0,.313,0,.47,0,.18,0,.288-.1.291-.247s-.1-.255-.292-.257q-.463-.005-.926,0c-.183,0-.288.095-.292.245s.107.256.292.26C-239.128,1468.274-238.976,1468.271-238.824,1468.271Z" transform="translate(0 0)" fill="#7e9ab8"/>
    <path id="Path_141" data-name="Path 141" d="M-56.1,1594.815a3.036,3.036,0,0,1,3.1-3.046,3.04,3.04,0,0,1,2.971,3.107,3.033,3.033,0,0,1-3.053,2.966A3.035,3.035,0,0,1-56.1,1594.815Zm5.818.085a2.772,2.772,0,0,0-2.619-2.874,2.785,2.785,0,0,0-2.943,2.59,2.791,2.791,0,0,0,2.6,2.971A2.791,2.791,0,0,0-50.281,1594.9Z" transform="translate(-178.892 -124.494)" fill="#7e9ab8"/>
    <path id="Path_142" data-name="Path 142" d="M-225.463,1473.8c0,.054.008.081.008.107,0,.6,0,1.191,0,1.786,0,.207-.088.3-.29.3-.665,0-1.329,0-1.994,0a.737.737,0,0,1-.088-.014Z" transform="translate(-12.606 -10.263)" fill="#7e9ab8"/>
    <path id="Path_143" data-name="Path 143" d="M88.759,1780.883l.433-.25c.026.039.052.075.074.113l1.528,2.65c.012.02.023.04.034.06a.254.254,0,1,1-.437.251c-.327-.562-.651-1.126-.976-1.69Z" transform="translate(-319.161 -307.375)" fill="#7e9ab8"/>
    <path id="Path_144" data-name="Path 144" d="M-27.75,1617.936a2.247,2.247,0,0,1-2.276,2.271,2.289,2.289,0,0,1-2.267-2.257,2.28,2.28,0,0,1,2.26-2.3A2.237,2.237,0,0,1-27.75,1617.936Zm-.626-.663a1.98,1.98,0,0,0-.108-.246,1.721,1.721,0,0,0-1.749-.851,2.366,2.366,0,0,0-.65.217.233.233,0,0,0-.108.33.25.25,0,0,0,.33.113c.03-.011.06-.024.089-.038a1.26,1.26,0,0,1,1.63.454,1.573,1.573,0,0,0,.1.15.206.206,0,0,0,.27.072A1.074,1.074,0,0,0-28.375,1617.273Z" transform="translate(-201.945 -147.615)" fill="#7e9ab8"/>
  </g>
</svg>
