<svg width="14" height="26" viewBox="0 0 14 26" fill="none" xmlns="http://www.w3.org/2000/svg">
<path d="M13.008 13.0032C12.9869 12.7501 12.885 12.5099 12.7174 12.3189L3.11738 1.21885C2.9123 0.966904 2.61347 0.807526 2.29004 0.779415C1.96544 0.752462 1.64435 0.856758 1.39823 1.07004C1.15331 1.28449 1.00448 1.58802 0.98807 1.91262C0.970492 2.23839 1.08651 2.55597 1.30799 2.79387L10.2237 13.1064L1.30799 23.4189C1.08651 23.6568 0.970491 23.9743 0.988071 24.3001C1.00448 24.6247 1.1533 24.9283 1.39823 25.1427C1.64432 25.356 1.96541 25.4603 2.29004 25.4333C2.61347 25.4052 2.9123 25.2458 3.11738 24.9939L12.7174 13.8939C12.9318 13.649 13.0361 13.3267 13.008 13.0032Z" fill="#3196F5"/>
</svg>
