<svg width="65" height="56" viewBox="0 0 65 56" fill="none" xmlns="http://www.w3.org/2000/svg">
<g filter="url(#filter0_d_49_317)">
<rect x="3.79297" y="1.06641" width="27.708" height="41.1426" rx="2.375" fill="white" stroke="#15293F" stroke-width="1.25"/>
<rect x="38.6992" y="20.7598" width="21.7061" height="21.4492" rx="2.375" fill="white" stroke="#15293F" stroke-width="1.25"/>
<path d="M17.3257 38.7764C19.6624 38.7764 21.5566 36.8821 21.5566 34.5454C21.5566 32.2087 19.6624 30.3145 17.3257 30.3145C14.989 30.3145 13.0947 32.2087 13.0947 34.5454C13.0947 36.8821 14.989 38.7764 17.3257 38.7764Z" stroke="#15293F" stroke-width="0.906955"/>
<path d="M15.2096 34.5451L16.6199 35.9554L19.4406 33.1348" stroke="#15293F" stroke-width="0.906955"/>
<path d="M46.667 31.2051C46.5642 31.2051 46.4671 31.2451 46.3948 31.3185L44.8633 32.8473C44.7902 32.9204 44.7499 33.0168 44.7499 33.1196C44.7499 33.2224 44.7899 33.3195 44.8633 33.3918C44.9365 33.4649 45.0335 33.5053 45.1367 33.5053C45.2395 33.5053 45.3378 33.4653 45.4101 33.3918L46.9396 31.8624C47.0127 31.7893 47.0531 31.6929 47.0531 31.5901C47.0531 31.4873 47.0131 31.3902 46.9396 31.3179C46.8673 31.2455 46.7702 31.2055 46.6674 31.2055L46.667 31.2051Z" fill="#FF6332"/>
<path d="M53.872 27.2135C53.7235 26.9919 53.4779 26.8594 53.2152 26.8594C53.1116 26.8594 53.0095 26.8803 52.9105 26.9211L47.1859 29.2742C46.8786 29.4006 46.6852 29.6976 46.6947 30.0319C46.7042 30.3639 46.9148 30.6499 47.2315 30.7584L49.3744 31.4895L50.1074 33.6323C50.2186 33.9587 50.5129 34.1692 50.8586 34.1692C51.1861 34.1692 51.4671 33.9807 51.5916 33.678L53.9454 27.9522C54.0482 27.7039 54.0208 27.4336 53.8723 27.2135L53.872 27.2135ZM50.8365 33.3848L50.0426 31.063C50.0045 30.9495 49.9151 30.8604 49.802 30.8223L47.4801 30.0296C47.4718 30.0265 47.4668 30.025 47.4649 30.0098C47.4657 29.9945 47.4695 29.9926 47.4782 29.9888L53.2011 27.6365C53.2094 27.6334 53.2132 27.6327 53.2132 27.6327C53.2171 27.6327 53.2239 27.6357 53.2292 27.6441C53.23 27.6448 53.23 27.646 53.2311 27.6471C53.233 27.649 53.233 27.6509 53.233 27.6509C53.233 27.6509 53.233 27.6547 53.23 27.6624C53.23 27.6631 53.2292 27.6643 53.2292 27.6654L50.8754 33.3863C50.8716 33.3958 50.8697 33.3985 50.8564 33.3985C50.8412 33.3992 50.8393 33.3939 50.8366 33.3851L50.8365 33.3848Z" fill="#FF6332"/>
<path d="M49.0019 33.9254L47.4731 35.4542C47.3989 35.5273 47.3582 35.6244 47.3582 35.7291C47.3582 35.8319 47.3981 35.929 47.4716 36.0002C47.5447 36.0726 47.6411 36.1125 47.745 36.1125C47.8486 36.1125 47.9461 36.0726 48.0184 35.9991L49.5479 34.4696C49.6983 34.3192 49.6983 34.0744 49.5479 33.9243C49.3975 33.7751 49.1526 33.7751 49.0026 33.9251L49.0019 33.9254Z" fill="#FF6332"/>
<path d="M47.6409 33.61C47.7445 33.61 47.8419 33.5701 47.9143 33.4966L49.1118 32.2979C49.1849 32.2248 49.2252 32.1285 49.2252 32.0257C49.2252 31.9229 49.1853 31.8258 49.1118 31.7534C48.9614 31.603 48.7165 31.603 48.5665 31.7534L47.3679 32.9521C47.2948 33.0252 47.2544 33.1215 47.2544 33.2243C47.2544 33.3271 47.2944 33.4242 47.3679 33.4966C47.441 33.5697 47.5381 33.61 47.6413 33.61H47.6409Z" fill="#FF6332"/>
<rect x="6.6377" y="5.33398" width="22.0195" height="5.50684" rx="0.5" fill="#DCDFE4"/>
<rect x="6.6377" y="17.3828" width="22.0195" height="5.50684" rx="0.5" fill="#DCDFE4"/>
<path d="M17.3252 16.9053L19.4903 13.1553H15.1601L17.3252 16.9053ZM16.9502 10.8984V13.5303H17.7002V10.8984H16.9502Z" fill="#DCDFE4"/>
<path d="M17.3252 28.8955L19.4903 25.1455H15.1601L17.3252 28.8955ZM16.9502 22.8887V25.5205H17.7002V22.8887H16.9502Z" fill="#DCDFE4"/>
<path d="M38.9648 2.42969L49.7067 10.5943" stroke="#DCDFE4" stroke-width="0.75"/>
<path d="M39.3086 15.6641L46.7852 8.70312" stroke="#DCDFE4" stroke-width="0.75"/>
<path d="M60.1201 2.42969L49.3783 10.5943" stroke="#DCDFE4" stroke-width="0.75"/>
<rect x="38.6992" y="1.06641" width="21.7061" height="15.5488" rx="2.375" stroke="#15293F" stroke-width="1.25"/>
<path d="M54.2226 5.97071C51.6284 5.97071 49.5527 8.04636 49.5527 10.6406C49.5527 13.2347 51.6284 15.3104 54.2226 15.3104C54.6375 15.3104 55.0009 15.2583 55.3643 15.1547C55.6235 15.1027 55.8312 14.7914 55.7276 14.5321C55.6756 14.2728 55.3643 14.0651 55.105 14.1687C54.8452 14.2208 54.5339 14.2728 54.2226 14.2728C52.199 14.2728 50.5903 12.6641 50.5903 10.6405C50.5903 8.61695 52.199 7.00828 54.2226 7.00828C56.1941 7.00828 57.8549 8.61695 57.8549 10.5885V10.6405C57.8549 11.5225 57.5435 12.4049 56.9729 13.0275C56.8173 13.1832 56.6616 13.1311 56.6096 13.1311C56.5575 13.1311 56.4019 13.0275 56.4019 12.8198V10.6405C56.4019 9.44731 55.4158 8.46128 54.2226 8.46128C53.0294 8.46128 52.0433 9.44731 52.0433 10.6405C52.0433 11.8338 53.0294 12.8198 54.2226 12.8198C54.6375 12.8198 55.053 12.7162 55.3643 12.5085V12.8719C55.3643 13.4425 55.7277 13.9094 56.2462 14.1172C56.7652 14.3249 57.3879 14.1692 57.7508 13.7538C58.477 12.9234 58.8924 11.8338 58.8924 10.6926V10.6405C58.8924 8.04636 56.8168 5.97071 54.2226 5.97071ZM54.2226 11.7822C53.5999 11.7822 53.0809 11.2632 53.0809 10.6406C53.0809 10.0179 53.5999 9.49887 54.2226 9.49887C54.8452 9.49887 55.3643 10.0179 55.3643 10.6406C55.3643 11.2632 54.8452 11.7822 54.2226 11.7822Z" fill="#3196F5"/>
<path d="M49.8902 38.4028C49.7437 38.2564 49.5063 38.2564 49.3598 38.4028L46.9733 40.7893C46.8269 40.9357 46.8269 41.1732 46.9733 41.3196C47.1198 41.4661 47.3572 41.4661 47.5037 41.3196L49.625 39.1983L51.7463 41.3196C51.8928 41.4661 52.1302 41.4661 52.2766 41.3196C52.4231 41.1732 52.4231 40.9357 52.2766 40.7893L49.8902 38.4028ZM16.9658 42.8399V44.192H17.7158V42.8399H16.9658ZM20.3408 47.567H46.625V46.817H20.3408V47.567ZM50 44.192V38.668H49.25V44.192H50ZM46.625 47.567C48.489 47.567 50 46.0559 50 44.192H49.25C49.25 45.6417 48.0747 46.817 46.625 46.817V47.567ZM16.9658 44.192C16.9658 46.0559 18.4769 47.567 20.3408 47.567V46.817C18.8911 46.817 17.7158 45.6417 17.7158 44.192H16.9658Z" fill="#3196F5"/>
</g>
<defs>
<filter id="filter0_d_49_317" x="0.167969" y="0.441406" width="63.8623" height="55.125" filterUnits="userSpaceOnUse" color-interpolation-filters="sRGB">
<feFlood flood-opacity="0" result="BackgroundImageFix"/>
<feColorMatrix in="SourceAlpha" type="matrix" values="0 0 0 0 0 0 0 0 0 0 0 0 0 0 0 0 0 0 127 0" result="hardAlpha"/>
<feOffset dy="5"/>
<feGaussianBlur stdDeviation="1.5"/>
<feComposite in2="hardAlpha" operator="out"/>
<feColorMatrix type="matrix" values="0 0 0 0 0.47625 0 0 0 0 0.46875 0 0 0 0 0.5625 0 0 0 0.25 0"/>
<feBlend mode="normal" in2="BackgroundImageFix" result="effect1_dropShadow_49_317"/>
<feBlend mode="normal" in="SourceGraphic" in2="effect1_dropShadow_49_317" result="shape"/>
</filter>
</defs>
</svg>
