<svg width="1440" height="615" viewBox="0 0 1440 615" fill="none" xmlns="http://www.w3.org/2000/svg">
<g clip-path="url(#clip0_75_2429)">
<rect width="1440" height="614" transform="translate(0 0.884766)" fill="white"/>
<rect opacity="0.8" x="145.889" y="305.197" width="55.5229" height="104.105" rx="7" fill="#D9D9D9" fill-opacity="0.33"/>
<g filter="url(#filter0_f_75_2429)">
<rect x="-72.7568" y="-6.86133" width="1585.94" height="481.695" fill="#143D95"/>
</g>
<rect opacity="0.8" x="127.727" y="280.627" width="55.5229" height="104.105" rx="7" fill="white" fill-opacity="0.12"/>
<rect x="1315.12" y="135.264" width="75.4385" height="102.722" rx="3" fill="#D9D9D9" fill-opacity="0.04"/>
<g filter="url(#filter1_f_75_2429)">
<rect x="1197.64" y="-279.742" width="525.58" height="457.31" rx="228.655" transform="rotate(15 1197.64 -279.742)" fill="#23FFBD" fill-opacity="0.52"/>
</g>
<g filter="url(#filter2_b_75_2429)">
<rect x="1298.98" y="117.881" width="82.8906" height="110.928" rx="4" fill="url(#paint0_linear_75_2429)" fill-opacity="0.8"/>
</g>
<path d="M1369.28 207.276L1369.67 205.065C1369.73 204.754 1369.66 204.434 1369.47 204.18C1369.29 203.942 1369.03 203.782 1368.74 203.739L1366.53 203.398L1365.51 201.364V201.36C1365.36 201.109 1365.11 200.932 1364.83 200.863C1364.54 200.772 1364.23 200.798 1363.96 200.941L1361.95 201.968L1359.94 200.863C1359.66 200.746 1359.35 200.746 1359.07 200.863C1358.79 200.958 1358.56 201.161 1358.44 201.429L1357.42 203.463L1355.2 203.804C1354.92 203.847 1354.65 204.007 1354.47 204.244C1354.3 204.486 1354.23 204.784 1354.28 205.074L1354.66 207.285L1352.99 208.866C1352.78 209.077 1352.66 209.362 1352.67 209.665C1352.67 209.958 1352.79 210.243 1352.99 210.451L1354.62 212.044L1354.23 214.255L1354.23 214.251C1354.18 214.549 1354.25 214.851 1354.43 215.093C1354.61 215.331 1354.87 215.491 1355.16 215.534L1357.37 215.866L1358.39 217.901C1358.52 218.168 1358.75 218.371 1359.03 218.466C1359.32 218.553 1359.63 218.531 1359.89 218.397L1361.91 217.292L1363.92 218.397C1364.18 218.535 1364.49 218.561 1364.78 218.466C1365.06 218.371 1365.29 218.168 1365.42 217.901L1366.44 215.866L1368.65 215.534H1368.65C1368.94 215.491 1369.21 215.331 1369.38 215.093C1369.56 214.851 1369.63 214.549 1369.58 214.251L1369.19 212.04L1370.81 210.446L1370.82 210.451C1371.03 210.243 1371.15 209.958 1371.15 209.665C1371.15 209.362 1371.03 209.077 1370.82 208.866L1369.28 207.276ZM1367.32 210.87C1367.06 211.12 1366.94 211.483 1367 211.841L1367.29 213.543L1365.59 213.798H1365.59C1365.23 213.85 1364.92 214.074 1364.76 214.394L1363.99 215.94L1362.5 215.149C1362.19 214.968 1361.8 214.968 1361.48 215.149L1359.95 215.944L1359.19 214.394C1359.02 214.074 1358.72 213.85 1358.36 213.798L1356.66 213.543L1356.95 211.841H1356.94C1357 211.483 1356.88 211.12 1356.62 210.87L1355.34 209.708L1356.58 208.49C1356.84 208.239 1356.96 207.877 1356.9 207.518L1356.61 205.816L1358.31 205.575H1358.31C1358.67 205.518 1358.98 205.289 1359.14 204.966L1359.91 203.419L1361.4 204.18C1361.74 204.378 1362.16 204.378 1362.5 204.18L1364.04 203.372L1364.81 204.918L1364.8 204.922C1364.96 205.246 1365.27 205.475 1365.63 205.527L1367.33 205.769L1367 207.496C1366.94 207.855 1367.06 208.218 1367.32 208.468L1368.56 209.708L1367.32 210.87Z" fill="white" fill-opacity="0.55"/>
<path d="M1364.01 207.078L1361.18 209.907L1359.89 208.603C1359.46 208.175 1358.77 208.175 1358.34 208.603C1357.91 209.034 1357.91 209.73 1358.34 210.162L1360.39 212.23C1360.6 212.438 1360.88 212.554 1361.18 212.554C1361.47 212.554 1361.75 212.438 1361.96 212.23L1365.57 208.603C1365.99 208.171 1365.99 207.476 1365.57 207.044C1365.12 206.625 1364.43 206.638 1364.01 207.078Z" fill="white" fill-opacity="0.55"/>
<rect x="1306.39" y="156.285" width="64.2451" height="2.71777" fill="white" fill-opacity="0.55"/>
<rect x="1306.39" y="163.617" width="64.2451" height="2.71777" fill="white" fill-opacity="0.55"/>
<rect x="1306.39" y="170.947" width="64.2451" height="2.71777" fill="white" fill-opacity="0.55"/>
<rect x="1306.39" y="178.279" width="64.2451" height="2.71777" fill="white" fill-opacity="0.55"/>
<rect x="1306.39" y="185.611" width="35.8281" height="2.71777" fill="white" fill-opacity="0.55"/>
<rect x="1306.39" y="192.943" width="35.8281" height="2.71777" fill="white" fill-opacity="0.55"/>
<path d="M1306.39 146.815C1306.39 143.037 1309.45 139.975 1313.23 139.975H1313.96C1317.74 139.975 1320.8 143.037 1320.8 146.815C1320.8 147.041 1320.62 147.225 1320.39 147.225H1306.8C1306.57 147.225 1306.39 147.041 1306.39 146.815Z" fill="white" fill-opacity="0.55"/>
<rect x="1309.06" y="129.771" width="8.86872" height="8.86872" rx="4.43436" fill="white" fill-opacity="0.55"/>
<g opacity="0.1">
<g clip-path="url(#clip1_75_2429)">
<g style="mix-blend-mode:multiply">
<path d="M476.312 187.563C801.269 223.457 1010.71 326.36 1256.07 336.032C1380.93 340.952 1513.18 322.3 1607.66 260.138C1627.18 247.314 1656.4 268.114 1636.84 281.01C1553.09 336.104 1442.45 361.298 1330.31 365.621C967.648 379.639 726.517 186.823 149.19 203.301C20.3761 206.979 -117.993 224.125 -217.387 287.53C-237.149 300.139 -266.397 279.338 -246.566 266.658C-237.768 266.658 -84.483 125.616 476.278 187.563H476.312Z" fill="url(#paint1_radial_75_2429)"/>
</g>
<g style="mix-blend-mode:multiply">
<path d="M67.874 180.925C501.058 106.511 840.45 380.26 1281.13 271.315C1397.81 242.466 1513.08 185.534 1589.17 113.652C1644.61 61.3044 1721.8 121.819 1687.09 154.608C1531.23 301.811 1276.73 390.386 1017.21 378.087C707.717 363.4 435.929 229.236 150.806 252.114C47.459 260.401 -71.0446 297.56 -131.602 368.129C-147.137 386.207 -183.052 394.732 -209.207 382.672C-234.571 370.97 -246.153 346.516 -229.553 327.173C-226.632 327.173 -154.286 219.087 67.874 180.925Z" fill="url(#paint2_radial_75_2429)"/>
</g>
<g style="mix-blend-mode:multiply">
<path d="M41.8569 186.107C469.851 97.6753 826.29 360.105 1259.58 236.926C1374.3 204.304 1485.83 143.67 1557.28 69.424C1609.31 15.3095 1690.29 73.2689 1657.7 107.156C1511.36 259.279 1262.77 356.045 1002.74 352.176C692.63 347.567 412.593 222.382 129.222 254.526C26.494 266.18 -89.5005 307.16 -145.522 379.615C-159.888 398.171 -195.219 407.867 -222.095 396.666C-248.181 385.801 -261.31 361.752 -245.947 341.883C-243.026 341.788 -177.656 231.481 41.8913 186.107H41.8569Z" fill="url(#paint3_radial_75_2429)"/>
</g>
<g style="mix-blend-mode:multiply">
<path d="M466.723 170.871C591.653 199.791 702.596 251.303 818.59 294.05C1104.02 399.246 1379.9 390.41 1612.34 301.644C1624.06 297.178 1634.47 309.907 1622.75 314.373C1399.11 399.771 1127.94 407.437 895.061 336.295C664.653 265.918 498.273 146.154 173.11 158.931C33.8826 164.399 -102.493 195.66 -219.45 250.061C-230.619 255.243 -240.964 242.491 -229.863 237.332C-222.646 237.332 66.5328 78.2603 466.688 170.871H466.723Z" fill="url(#paint4_radial_75_2429)"/>
</g>
<g style="mix-blend-mode:multiply">
<path d="M439.881 131.633C796.938 187.993 1027.14 349.524 1296.73 364.689C1433.93 372.402 1579.24 343.124 1683.1 245.546C1704.55 225.39 1736.68 258.06 1715.13 278.287C1623.09 364.76 1501.5 404.307 1378.32 411.114C979.78 433.108 714.831 130.439 80.4182 156.302C-61.1467 162.082 -213.194 188.996 -322.384 288.508C-344.105 308.282 -376.24 275.66 -354.415 255.767C-344.723 255.767 -176.282 34.3655 439.881 131.633Z" fill="url(#paint5_radial_75_2429)"/>
</g>
<g style="mix-blend-mode:multiply">
<path d="M-8.9408 121.221C467.067 4.39488 840.002 434.135 1324.26 263.099C1452.45 217.82 1579.14 128.433 1662.76 15.619C1723.66 -66.5558 1808.51 28.4431 1770.36 79.9069C1599.07 310.98 1319.45 450.04 1034.25 430.696C694.175 407.651 395.476 197.02 82.1708 232.961C-31.418 245.976 -161.607 304.317 -228.179 415.078C-245.226 443.449 -284.716 456.846 -313.448 437.932C-341.321 419.568 -354.072 381.167 -335.788 350.814C-332.557 350.814 -253.097 181.163 -8.9408 121.245V121.221Z" fill="url(#paint6_radial_75_2429)"/>
</g>
<g style="mix-blend-mode:multiply">
<path d="M-37.5352 129.365C432.801 -9.45524 824.468 402.493 1300.58 209.128C1426.64 157.927 1549.2 62.7611 1627.7 -53.8263C1684.89 -138.747 1773.87 -47.7844 1738.06 5.37492C1577.25 244.162 1304.05 396.069 1018.34 390.004C677.576 382.768 369.838 186.274 58.4568 236.711C-54.4103 255.004 -181.884 319.316 -243.473 433.061C-259.248 462.196 -298.085 477.408 -327.642 459.856C-356.306 442.805 -370.74 405.049 -353.865 373.86C-350.635 373.717 -278.804 200.531 -37.5696 129.342L-37.5352 129.365Z" fill="url(#paint7_radial_75_2429)"/>
</g>
<g style="mix-blend-mode:multiply">
<path d="M429.331 105.413C566.634 150.811 688.54 231.672 815.979 298.778C1129.63 463.916 1432.76 450.017 1688.22 310.695C1701.08 303.674 1712.56 323.662 1699.67 330.683C1453.9 464.728 1155.92 476.764 900.045 365.096C646.885 254.622 464.009 66.6302 106.711 86.6665C-46.2645 95.2398 -196.147 144.339 -324.652 229.714C-336.921 237.858 -348.297 217.821 -336.096 209.726C-328.157 209.726 -10.4178 -39.9749 429.331 105.413Z" fill="url(#paint8_radial_75_2429)"/>
</g>
</g>
</g>
<g opacity="0.5">
<g opacity="0.3">
<rect x="809.188" y="-14.1074" width="219.445" height="40.3847" fill="url(#paint9_linear_75_2429)" style="mix-blend-mode:screen"/>
</g>
<circle cx="1027.41" cy="6.08493" r="20.1924" transform="rotate(90 1027.41 6.08493)" fill="url(#paint10_linear_75_2429)"/>
</g>
<g filter="url(#filter3_f_75_2429)">
<rect x="133.611" y="-161.748" width="723.481" height="238.986" rx="119.493" transform="rotate(15 133.611 -161.748)" fill="#FF6332" fill-opacity="0.74"/>
</g>
<path d="M34.6504 -24.8301V389.413" stroke="#64B2C4" stroke-opacity="0.18"/>
<path d="M761.998 26.2773L-26.707 26.2773" stroke="#64B2C4" stroke-opacity="0.18"/>
<path d="M761.998 55.3281L-26.707 55.3281" stroke="#64B2C4" stroke-opacity="0.18"/>
<path d="M761.998 84.3789L-26.707 84.3789" stroke="#64B2C4" stroke-opacity="0.18"/>
<path d="M761.998 113.43L-26.707 113.43" stroke="#64B2C4" stroke-opacity="0.18"/>
<path d="M761.998 142.48L-26.707 142.48" stroke="#64B2C4" stroke-opacity="0.18"/>
<path d="M761.998 171.531L-26.707 171.531" stroke="#64B2C4" stroke-opacity="0.18"/>
<path d="M761.998 200.582L-26.707 200.582" stroke="#64B2C4" stroke-opacity="0.18"/>
<path d="M761.998 229.633L-26.707 229.633" stroke="#64B2C4" stroke-opacity="0.18"/>
<path d="M761.998 258.684L-26.707 258.684" stroke="#64B2C4" stroke-opacity="0.18"/>
<path d="M761.998 287.734L-26.707 287.734" stroke="#64B2C4" stroke-opacity="0.18"/>
<path d="M761.998 316.785L-26.707 316.785" stroke="#64B2C4" stroke-opacity="0.18"/>
<path d="M761.998 345.836L-26.707 345.836" stroke="#64B2C4" stroke-opacity="0.18"/>
<path d="M761.998 374.887L-26.707 374.887" stroke="#64B2C4" stroke-opacity="0.18"/>
<path d="M62.625 -24.8301V389.413" stroke="#64B2C4" stroke-opacity="0.18"/>
<path d="M90.5996 -24.8301V389.413" stroke="#64B2C4" stroke-opacity="0.18"/>
<path d="M118.575 -24.8301V389.413" stroke="#64B2C4" stroke-opacity="0.18"/>
<path d="M146.55 -24.8301V389.413" stroke="#64B2C4" stroke-opacity="0.18"/>
<path d="M174.524 -24.8301V389.413" stroke="#64B2C4" stroke-opacity="0.18"/>
<path d="M202.5 -24.8301V389.413" stroke="#64B2C4" stroke-opacity="0.18"/>
<path d="M230.475 -24.8301V389.413" stroke="#64B2C4" stroke-opacity="0.18"/>
<path d="M258.449 -24.8301V389.413" stroke="#64B2C4" stroke-opacity="0.18"/>
<path d="M286.424 -24.8301V389.413" stroke="#64B2C4" stroke-opacity="0.18"/>
<path d="M314.398 -24.8301V389.413" stroke="#64B2C4" stroke-opacity="0.18"/>
<path d="M342.374 -24.8301V389.413" stroke="#64B2C4" stroke-opacity="0.18"/>
<path d="M370.349 -24.8301V389.413" stroke="#64B2C4" stroke-opacity="0.18"/>
<path d="M398.323 -24.8301V389.413" stroke="#64B2C4" stroke-opacity="0.18"/>
<path d="M426.299 -24.8301V389.413" stroke="#64B2C4" stroke-opacity="0.18"/>
<path d="M454.273 -24.8301V389.413" stroke="#64B2C4" stroke-opacity="0.18"/>
<path d="M482.249 -24.8301V389.413" stroke="#64B2C4" stroke-opacity="0.18"/>
<path d="M510.224 -24.8301V389.413" stroke="#64B2C4" stroke-opacity="0.18"/>
<path d="M538.198 -24.8301V389.413" stroke="#64B2C4" stroke-opacity="0.18"/>
<path d="M566.174 -24.8301V389.413" stroke="#64B2C4" stroke-opacity="0.18"/>
<path d="M594.148 -24.8301V389.413" stroke="#64B2C4" stroke-opacity="0.18"/>
<path d="M622.123 -24.8301V389.413" stroke="#64B2C4" stroke-opacity="0.18"/>
<path d="M650.099 -24.8301V389.413" stroke="#64B2C4" stroke-opacity="0.18"/>
<path d="M678.073 -24.8301V389.413" stroke="#64B2C4" stroke-opacity="0.18"/>
<path d="M706.048 -24.8301V389.413" stroke="#64B2C4" stroke-opacity="0.18"/>
<path d="M734.023 -24.8301V389.413" stroke="#64B2C4" stroke-opacity="0.18"/>
<g filter="url(#filter4_f_75_2429)">
<rect x="594.439" y="-242.49" width="525.58" height="580.505" transform="rotate(15 594.439 -242.49)" fill="#0A2963"/>
</g>
<g filter="url(#filter5_f_75_2429)">
<rect x="-159.196" y="-334.115" width="525.58" height="457.31" rx="228.655" transform="rotate(15 -159.196 -334.115)" fill="#16C7FF" fill-opacity="0.56"/>
</g>
<g filter="url(#filter6_bd_75_2429)">
<rect x="-72.9707" y="-58.1191" width="1585.94" height="58.8933" fill="white" fill-opacity="0.87" shape-rendering="crispEdges"/>
</g>
<path d="M-253.176 614.462V-51.2363H1619.82V518.944C1503.16 540.062 1220.32 582.298 1021.92 582.298C773.924 582.298 527.824 535.514 287.324 535.514C46.8242 535.514 -153.176 588.146 -253.176 614.462Z" fill="url(#paint11_linear_75_2429)"/>
<g opacity="0.2">
<rect x="711.93" y="37.4062" width="202.1" height="5.14331" rx="2.57166" fill="url(#paint12_linear_75_2429)" style="mix-blend-mode:screen"/>
</g>
<g opacity="0.15">
<rect x="89.498" y="355.527" width="461.857" height="5.14331" rx="2.57166" fill="url(#paint13_linear_75_2429)" style="mix-blend-mode:screen"/>
</g>
<g opacity="0.15">
<rect x="866.867" y="75.1641" width="461.857" height="5.14331" rx="2.57166" fill="url(#paint14_linear_75_2429)" style="mix-blend-mode:screen"/>
</g>
<path d="M330.252 336.699C331.093 333.748 333.411 331.448 336.368 330.63L337.287 330.376L336.369 330.123H336.368C333.411 329.305 331.092 327.005 330.252 324.054L329.989 323.137L329.726 324.054C328.886 327.005 326.567 329.305 323.61 330.123L322.691 330.376L323.609 330.63H323.61C326.567 331.448 328.886 333.748 329.726 336.699L329.989 337.616L330.252 336.699Z" fill="#9AC1FF" fill-opacity="0.32"/>
<path d="M851.161 83.8632C851.634 82.2038 852.937 80.9101 854.601 80.4505L855.117 80.3078L854.601 80.165H854.601C852.937 79.7054 851.634 78.4116 851.161 76.7523L851.013 76.2363L850.865 76.7523C850.393 78.4118 849.089 79.7054 847.426 80.165L846.909 80.3078L847.425 80.4505H847.426C849.089 80.9102 850.393 82.2039 850.865 83.8632L851.013 84.3792L851.161 83.8632Z" fill="#A3C5FA"/>
<g opacity="0.5">
<g opacity="0.5">
<rect x="-65.4805" y="434.805" width="298.374" height="54.9101" fill="url(#paint15_linear_75_2429)" style="mix-blend-mode:screen"/>
</g>
<circle cx="231.232" cy="462.26" r="27.455" transform="rotate(90 231.232 462.26)" fill="url(#paint16_linear_75_2429)"/>
</g>
<path d="M246.408 457.253C246.484 457.755 246.126 457.395 246.126 457.395C244.668 455.556 246.38 452.482 246.38 452.482C246.6 452.129 246.821 451.81 247.048 451.518C243.581 446.55 237.782 443.293 231.2 443.293C221.074 443.293 212.786 451.023 212.036 460.822C215.867 458.99 220.043 463.523 220.043 463.523L221.687 465.132C226.632 470.004 228.056 469.964 228.771 468.844C228.771 468.844 229.762 467.425 228.111 464.548C226.109 461.073 228.304 458.501 228.304 458.501C234.13 450.69 243.457 460.625 243.457 460.625C246.752 463.869 248.843 465.084 250.164 465.43C250.335 464.399 250.432 463.347 250.432 462.268C250.432 459.981 250.019 457.789 249.269 455.76C246.717 454.898 246.36 456.934 246.408 457.259V457.253Z" fill="white" fill-opacity="0.46"/>
<path d="M237.548 466.462C233.668 462.641 231.392 461.556 230.071 461.549C229.927 461.562 228.826 461.685 229.039 462.791C229.232 463.754 232.747 468.288 228.688 472.305C223 477.035 216.892 469.862 216.892 469.862C215 468.125 212.717 465.471 212.428 466.347C214.326 474.857 222.009 481.229 231.199 481.229C238.27 481.229 244.447 477.463 247.79 471.851C242.886 472.142 237.548 466.462 237.548 466.462Z" fill="white"/>
<g opacity="0.5">
<g opacity="0.5">
<g opacity="0.3">
<rect x="551.355" y="23.6211" width="149.817" height="27.5709" fill="url(#paint17_linear_75_2429)" style="mix-blend-mode:screen"/>
</g>
<circle cx="700.339" cy="37.4066" r="13.7855" transform="rotate(90 700.339 37.4066)" fill="url(#paint18_linear_75_2429)"/>
</g>
<path d="M707.959 34.8921C707.997 35.1442 707.817 34.9636 707.817 34.9636C707.085 34.0402 707.945 32.4966 707.945 32.4966C708.055 32.3194 708.166 32.1593 708.28 32.0127C706.539 29.5184 703.628 27.8828 700.322 27.8828C695.238 27.8828 691.077 31.764 690.7 36.6845C692.624 35.7644 694.72 38.0406 694.72 38.0406L695.546 38.8482C698.029 41.2948 698.744 41.2744 699.103 40.7121C699.103 40.7121 699.601 40 698.772 38.5552C697.767 36.8105 698.868 35.5191 698.868 35.5191C701.794 31.597 706.477 36.5856 706.477 36.5856C708.131 38.2144 709.181 38.8244 709.844 38.9982C709.931 38.4802 709.979 37.952 709.979 37.4103C709.979 36.2619 709.772 35.1613 709.395 34.1424C708.114 33.7097 707.934 34.7319 707.959 34.8955V34.8921Z" fill="white" fill-opacity="0.46"/>
<path d="M703.51 39.5159C701.562 37.5974 700.418 37.0522 699.755 37.0488C699.683 37.0556 699.13 37.117 699.237 37.6724C699.334 38.1563 701.099 40.4325 699.061 42.4498C696.205 44.8248 693.138 41.223 693.138 41.223C692.188 40.3507 691.042 39.0184 690.896 39.4579C691.85 43.731 695.708 46.9307 700.322 46.9307C703.872 46.9307 706.974 45.0395 708.652 42.2215C706.19 42.368 703.51 39.5159 703.51 39.5159Z" fill="white"/>
</g>
<g opacity="0.5">
<g opacity="0.3">
<rect x="1103.8" y="361.986" width="219.445" height="40.3847" fill="url(#paint19_linear_75_2429)" style="mix-blend-mode:screen"/>
</g>
<circle cx="1322.02" cy="382.179" r="20.1924" transform="rotate(90 1322.02 382.179)" fill="url(#paint20_linear_75_2429)"/>
</g>
<path d="M1333.18 378.495C1333.24 378.865 1332.98 378.6 1332.98 378.6C1331.9 377.248 1333.16 374.987 1333.16 374.987C1333.32 374.727 1333.49 374.492 1333.65 374.278C1331.1 370.624 1326.84 368.229 1322 368.229C1314.55 368.229 1308.45 373.913 1307.9 381.121C1310.72 379.773 1313.79 383.107 1313.79 383.107L1315 384.29C1318.64 387.874 1319.69 387.844 1320.21 387.02C1320.21 387.02 1320.94 385.977 1319.73 383.861C1318.25 381.305 1319.87 379.414 1319.87 379.414C1324.15 373.669 1331.01 380.976 1331.01 380.976C1333.44 383.362 1334.97 384.255 1335.94 384.51C1336.07 383.751 1336.14 382.978 1336.14 382.184C1336.14 380.502 1335.84 378.89 1335.29 377.397C1333.41 376.763 1333.15 378.261 1333.18 378.5V378.495Z" fill="white" fill-opacity="0.65"/>
<path d="M1326.67 385.268C1323.81 382.458 1322.14 381.659 1321.17 381.654C1321.06 381.664 1320.25 381.754 1320.41 382.568C1320.55 383.276 1323.14 386.611 1320.15 389.565C1315.97 393.044 1311.47 387.769 1311.47 387.769C1310.08 386.491 1308.4 384.539 1308.19 385.183C1309.59 391.442 1315.24 396.129 1322 396.129C1327.2 396.129 1331.74 393.359 1334.2 389.231C1330.59 389.446 1326.67 385.268 1326.67 385.268Z" fill="white"/>
<path d="M1483.14 370.572C1483.33 370.377 1483.33 370.06 1483.14 369.865L1479.96 366.683C1479.76 366.488 1479.44 366.488 1479.25 366.683C1479.05 366.878 1479.05 367.195 1479.25 367.39L1482.08 370.219L1479.25 373.047C1479.05 373.242 1479.05 373.559 1479.25 373.754C1479.44 373.95 1479.76 373.95 1479.96 373.754L1483.14 370.572ZM1386.87 440.356H1384.65V441.356H1386.87V440.356ZM1380.22 440.356H1375.79V441.356H1380.22V440.356ZM1371.36 440.356H1369.14V441.356H1371.36V440.356ZM1369.14 440.356C1368.64 440.356 1368.15 440.307 1367.68 440.213L1367.49 441.194C1368.02 441.3 1368.58 441.356 1369.14 441.356V440.356ZM1364.98 439.093C1364.16 438.545 1363.46 437.841 1362.91 437.023L1362.08 437.579C1362.7 438.506 1363.49 439.304 1364.42 439.924L1364.98 439.093ZM1361.79 434.32C1361.69 433.847 1361.64 433.358 1361.64 432.856H1360.64C1360.64 433.423 1360.7 433.978 1360.81 434.514L1361.79 434.32ZM1361.64 432.856V430.905H1360.64V432.856H1361.64ZM1361.64 427.002V423.099H1360.64V427.002H1361.64ZM1361.64 419.197V415.294H1360.64V419.197H1361.64ZM1361.64 411.391V407.489H1360.64V411.391H1361.64ZM1361.64 403.586V399.683H1360.64V403.586H1361.64ZM1361.64 395.781V391.878H1360.64V395.781H1361.64ZM1361.64 387.975V384.073H1360.64V387.975H1361.64ZM1361.64 380.17V378.219H1360.64V380.17H1361.64ZM1361.64 378.219C1361.64 377.717 1361.69 377.228 1361.79 376.754L1360.81 376.56C1360.7 377.097 1360.64 377.652 1360.64 378.219H1361.64ZM1362.91 374.052C1363.46 373.234 1364.16 372.529 1364.98 371.982L1364.42 371.151C1363.49 371.771 1362.7 372.569 1362.08 373.496L1362.91 374.052ZM1367.68 370.862C1368.15 370.768 1368.64 370.719 1369.14 370.719V369.719C1368.58 369.719 1368.02 369.774 1367.49 369.881L1367.68 370.862ZM1369.14 370.719H1371.17V369.719H1369.14V370.719ZM1375.23 370.719H1379.29V369.719H1375.23V370.719ZM1383.35 370.719H1387.41V369.719H1383.35V370.719ZM1391.47 370.719H1395.53V369.719H1391.47V370.719ZM1399.58 370.719H1403.64V369.719H1399.58V370.719ZM1407.7 370.719H1411.76V369.719H1407.7V370.719ZM1415.82 370.719H1419.88V369.719H1415.82V370.719ZM1423.94 370.719H1427.99V369.719H1423.94V370.719ZM1432.05 370.719H1436.11V369.719H1432.05V370.719ZM1440.17 370.719H1444.23V369.719H1440.17V370.719ZM1448.29 370.719H1452.34V369.719H1448.29V370.719ZM1456.4 370.719H1460.46V369.719H1456.4V370.719ZM1464.52 370.719H1468.58V369.719H1464.52V370.719ZM1472.64 370.719H1476.7V369.719H1472.64V370.719ZM1480.75 370.719H1482.78V369.719H1480.75V370.719Z" fill="white" fill-opacity="0.3"/>
<path d="M1120.15 255.942C1121.46 251.333 1125.08 247.74 1129.7 246.464L1131.13 246.067L1129.7 245.671H1129.7C1125.08 244.394 1121.46 240.801 1120.15 236.193L1119.74 234.76L1119.32 236.193C1118.01 240.802 1114.39 244.395 1109.77 245.671L1108.34 246.067L1109.77 246.464H1109.77C1114.39 247.74 1118.01 251.334 1119.32 255.942L1119.74 257.375L1120.15 255.942Z" fill="#5CF8D2" fill-opacity="0.69"/>
<path d="M1157.27 261.454C1157.67 260.047 1158.77 258.949 1160.18 258.559L1160.62 258.438L1160.18 258.317H1160.18C1158.77 257.927 1157.67 256.83 1157.27 255.422L1157.14 254.984L1157.02 255.422C1156.61 256.83 1155.51 257.927 1154.1 258.317L1153.66 258.438L1154.1 258.559H1154.1C1155.51 258.949 1156.61 260.047 1157.02 261.454L1157.14 261.892L1157.27 261.454Z" fill="#75E6FF" fill-opacity="0.67"/>
<g filter="url(#filter7_b_75_2429)">
<circle cx="1140.8" cy="304.983" r="37.001" fill="url(#paint21_linear_75_2429)"/>
</g>
<path d="M1151.89 294.381C1152 293.261 1152 292.253 1152 291.02H1129.6C1129.6 292.253 1129.6 293.261 1129.71 294.381H1122.87V295.501C1122.87 305.473 1135.54 312.532 1138.56 314.099L1138.56 317.91C1138.56 319.815 1137.1 321.271 1135.2 321.271H1132.96V325.752H1148.64V321.271H1146.4C1144.5 321.271 1143.04 319.815 1143.04 317.91V314.101C1146.06 312.532 1158.73 305.473 1158.73 295.503V294.383L1151.89 294.381ZM1125.23 296.622H1129.93C1130.38 301.664 1131.61 305.251 1132.96 307.826C1129.37 305.026 1125.67 301.103 1125.23 296.622ZM1148.76 307.826C1150.1 305.248 1151.33 301.664 1151.78 296.622H1156.49C1155.93 301.103 1152.23 305.026 1148.76 307.826Z" fill="white" fill-opacity="0.66"/>
<path d="M1264.46 123.939C1264.68 123.175 1265.28 122.579 1266.05 122.367L1266.29 122.301L1266.05 122.236H1266.05C1265.28 122.024 1264.68 121.428 1264.46 120.663L1264.39 120.426L1264.33 120.663C1264.11 121.428 1263.51 122.024 1262.74 122.236L1262.5 122.301L1262.74 122.367H1262.74C1263.51 122.579 1264.11 123.175 1264.33 123.939L1264.39 124.177L1264.46 123.939Z" fill="#FFF2AE" fill-opacity="0.84"/>
<g filter="url(#filter8_b_75_2429)">
<circle cx="1253.79" cy="148.353" r="17.9783" fill="url(#paint22_linear_75_2429)"/>
</g>
<g filter="url(#filter9_b_75_2429)">
<circle cx="1253.79" cy="148.354" r="22.7585" stroke="url(#paint23_linear_75_2429)"/>
</g>
<path d="M1259.18 143.202C1259.24 142.658 1259.24 142.168 1259.24 141.568H1248.35C1248.35 142.168 1248.35 142.658 1248.4 143.202H1245.08V143.746C1245.08 148.591 1251.24 152.021 1252.71 152.782L1252.7 154.634C1252.7 155.56 1252 156.267 1251.07 156.267H1249.98V158.445H1257.6V156.267H1256.52C1255.59 156.267 1254.88 155.56 1254.88 154.634V152.783C1256.35 152.021 1262.5 148.591 1262.5 143.747V143.203L1259.18 143.202ZM1246.23 144.291H1248.51C1248.73 146.741 1249.33 148.483 1249.98 149.734C1248.24 148.374 1246.44 146.468 1246.23 144.291ZM1257.66 149.734C1258.31 148.482 1258.91 146.741 1259.13 144.291H1261.42C1261.14 146.468 1259.35 148.374 1257.66 149.734Z" fill="white" fill-opacity="0.69"/>
<path d="M52.8562 106.222C53.0739 105.458 53.6745 104.862 54.4407 104.65L54.6787 104.585L54.441 104.519H54.4407C53.6745 104.307 53.0739 103.711 52.8561 102.947L52.7881 102.709L52.72 102.947C52.5022 103.711 51.9016 104.307 51.1354 104.519L50.8975 104.585L51.1352 104.65H51.1354C51.9016 104.862 52.5022 105.458 52.72 106.222L52.7881 106.46L52.8562 106.222Z" fill="#FFF2AE" fill-opacity="0.84"/>
<g filter="url(#filter10_b_75_2429)">
<circle cx="42.1873" cy="130.637" r="17.9783" fill="url(#paint24_linear_75_2429)"/>
</g>
<g filter="url(#filter11_b_75_2429)">
<circle cx="42.1872" cy="130.637" r="22.7585" stroke="url(#paint25_linear_75_2429)"/>
</g>
<path d="M47.5773 125.485C47.6314 124.941 47.6314 124.451 47.6314 123.852H36.744C36.744 124.451 36.744 124.941 36.7981 125.485H33.4775V126.029C33.4775 130.874 39.6297 134.304 41.0996 135.066L41.0985 136.917C41.0985 137.843 40.3912 138.55 39.4653 138.55H38.3762V140.728H45.9982V138.55H44.909C43.9832 138.55 43.2758 137.843 43.2758 136.917V135.067C44.7457 134.304 50.8978 130.874 50.8978 126.03V125.486L47.5773 125.485ZM34.6208 126.574H36.9073C37.1247 129.024 37.7239 130.766 38.3772 132.018C36.6347 130.657 34.8382 128.751 34.6208 126.574ZM46.0533 132.018C46.7066 130.765 47.3058 129.024 47.5232 126.574H49.8097C49.5371 128.751 47.7406 130.657 46.0533 132.018Z" fill="white" fill-opacity="0.69"/>
<g filter="url(#filter12_bd_75_2429)">
<rect x="1199.93" y="205.986" width="115.194" height="144.095" rx="7" fill="url(#paint26_linear_75_2429)" shape-rendering="crispEdges"/>
<rect x="1200.18" y="206.236" width="114.694" height="143.595" rx="6.75" stroke="url(#paint27_linear_75_2429)" stroke-width="0.5" shape-rendering="crispEdges"/>
</g>
<g filter="url(#filter13_b_75_2429)">
<rect x="1205.71" y="211.428" width="103.639" height="133.213" rx="2" fill="url(#paint28_linear_75_2429)"/>
</g>
<rect x="1227.75" y="229.393" width="68.1325" height="3.84874" rx="1.92437" fill="#133F84" fill-opacity="0.49"/>
<rect x="1219.3" y="229.393" width="3.89177" height="3.84874" rx="1.92437" fill="#133F84" fill-opacity="0.49"/>
<rect x="1227.75" y="241.969" width="68.1325" height="3.84874" rx="1.92437" fill="#133F84" fill-opacity="0.49"/>
<rect x="1219.3" y="241.969" width="3.89177" height="3.84874" rx="1.92437" fill="#133F84" fill-opacity="0.49"/>
<rect x="1227.75" y="254.543" width="68.1325" height="3.84874" rx="1.92437" fill="#133F84" fill-opacity="0.49"/>
<rect x="1219.3" y="254.543" width="3.89177" height="3.84874" rx="1.92437" fill="#133F84" fill-opacity="0.49"/>
<rect x="1227.75" y="267.119" width="68.1325" height="3.84874" rx="1.92437" fill="#133F84" fill-opacity="0.49"/>
<rect x="1219.3" y="267.119" width="3.89177" height="3.84874" rx="1.92437" fill="#133F84" fill-opacity="0.49"/>
<rect x="1227.75" y="279.695" width="68.1325" height="3.84874" rx="1.92437" fill="#133F84" fill-opacity="0.49"/>
<rect x="1219.3" y="279.695" width="3.89177" height="3.84874" rx="1.92437" fill="#133F84" fill-opacity="0.49"/>
<rect x="1227.75" y="292.271" width="68.1325" height="3.84874" rx="1.92437" fill="#133F84" fill-opacity="0.49"/>
<rect x="1219.3" y="292.271" width="3.89177" height="3.84874" rx="1.92437" fill="#133F84" fill-opacity="0.49"/>
<circle cx="1355.76" cy="161.11" r="10.0672" fill="#D9A98D"/>
<path d="M1361.63 159.703C1361.53 159.408 1361.26 159.218 1360.94 159.218H1357.82L1356.44 155.67C1356.33 155.387 1356.07 155.209 1355.76 155.209C1355.46 155.209 1355.2 155.385 1355.09 155.67L1353.71 159.218H1350.58C1350.27 159.218 1350 159.408 1349.9 159.703C1349.8 159.998 1349.89 160.313 1350.13 160.506L1352.87 162.683L1351.66 166.041C1351.55 166.339 1351.64 166.658 1351.89 166.853C1352.14 167.049 1352.48 167.063 1352.74 166.888L1355.77 164.878L1358.79 166.888C1358.92 166.971 1359.05 167.01 1359.19 167.01C1359.35 167.01 1359.5 166.956 1359.64 166.853C1359.88 166.658 1359.98 166.339 1359.87 166.041L1358.65 162.683L1361.4 160.506C1361.64 160.313 1361.73 159.996 1361.63 159.703Z" fill="#1C57A7"/>
<rect x="1350.49" y="149.76" width="10.5504" height="1.28242" fill="#1C57A7"/>
<path fill-rule="evenodd" clip-rule="evenodd" d="M1333.59 117.881L1351.52 148.941H1360.01L1377.94 117.881H1370.62L1355.76 143.606L1340.91 117.881H1333.59Z" fill="#1C57A7"/>
<path d="M1355.12 231.428C1354.92 231.232 1354.6 231.232 1354.41 231.428L1351.23 234.61C1351.03 234.805 1351.03 235.122 1351.23 235.317C1351.42 235.512 1351.74 235.512 1351.93 235.317L1354.76 232.488L1357.59 235.317C1357.79 235.512 1358.1 235.512 1358.3 235.317C1358.49 235.122 1358.49 234.805 1358.3 234.61L1355.12 231.428ZM1315.12 310.719H1346.76V309.719H1315.12V310.719ZM1355.26 302.219V231.781H1354.26V302.219H1355.26ZM1346.76 310.719C1351.46 310.719 1355.26 306.913 1355.26 302.219H1354.26C1354.26 306.361 1350.9 309.719 1346.76 309.719V310.719Z" fill="white" fill-opacity="0.3"/>
<path d="M1227.58 147.578C1227.78 147.383 1227.78 147.066 1227.58 146.871L1224.4 143.689C1224.2 143.494 1223.89 143.494 1223.69 143.689C1223.5 143.884 1223.5 144.201 1223.69 144.396L1226.52 147.225L1223.69 150.053C1223.5 150.248 1223.5 150.565 1223.69 150.76C1223.89 150.955 1224.2 150.955 1224.4 150.76L1227.58 147.578ZM1199.35 234.261H1197.54V235.261H1199.35V234.261ZM1193.92 234.261H1190.3V235.261H1193.92V234.261ZM1186.69 234.261H1183.07V235.261H1186.69V234.261ZM1179.46 234.261H1175.84V235.261H1179.46V234.261ZM1172.22 234.261H1170.41V235.261H1172.22V234.261ZM1170.41 234.261C1169.91 234.261 1169.42 234.212 1168.95 234.119L1168.76 235.1C1169.29 235.206 1169.85 235.261 1170.41 235.261V234.261ZM1166.25 232.998C1165.43 232.451 1164.72 231.746 1164.18 230.928L1163.35 231.484C1163.97 232.411 1164.76 233.209 1165.69 233.829L1166.25 232.998ZM1163.06 228.226C1162.96 227.752 1162.91 227.263 1162.91 226.761H1161.91C1161.91 227.328 1161.97 227.883 1162.08 228.42L1163.06 228.226ZM1162.91 226.761V224.774H1161.91V226.761H1162.91ZM1162.91 220.8V216.826H1161.91V220.8H1162.91ZM1162.91 212.851V208.877H1161.91V212.851H1162.91ZM1162.91 204.903V200.929H1161.91V204.903H1162.91ZM1162.91 196.954V192.98H1161.91V196.954H1162.91ZM1162.91 189.006V185.032H1161.91V189.006H1162.91ZM1162.91 181.057V177.083H1161.91V181.057H1162.91ZM1162.91 173.109V169.135H1161.91V173.109H1162.91ZM1162.91 165.16V161.186H1161.91V165.16H1162.91ZM1162.91 157.212V155.225H1161.91V157.212H1162.91ZM1162.91 155.225C1162.91 154.723 1162.96 154.234 1163.06 153.76L1162.08 153.566C1161.97 154.103 1161.91 154.658 1161.91 155.225H1162.91ZM1164.18 151.058C1164.72 150.24 1165.43 149.535 1166.25 148.988L1165.69 148.157C1164.76 148.777 1163.97 149.575 1163.35 150.502L1164.18 151.058ZM1168.95 147.867C1169.42 147.774 1169.91 147.725 1170.41 147.725V146.725C1169.85 146.725 1169.29 146.78 1168.76 146.886L1168.95 147.867ZM1170.41 147.725H1172.44V146.725H1170.41V147.725ZM1176.5 147.725H1180.56V146.725H1176.5V147.725ZM1184.62 147.725H1188.68V146.725H1184.62V147.725ZM1192.73 147.725H1196.79V146.725H1192.73V147.725ZM1200.85 147.725H1204.91V146.725H1200.85V147.725ZM1208.97 147.725H1213.02V146.725H1208.97V147.725ZM1217.08 147.725H1221.14V146.725H1217.08V147.725ZM1225.2 147.725H1227.23V146.725H1225.2V147.725Z" fill="white" fill-opacity="0.3"/>
<g clip-path="url(#clip2_75_2429)">
<rect x="1194.31" y="204.377" width="202.352" height="23.5566" transform="rotate(45 1194.31 204.377)" fill="white" fill-opacity="0.12"/>
<rect x="1189" y="240.268" width="202.352" height="5.95827" transform="rotate(45 1189 240.268)" fill="white" fill-opacity="0.12"/>
</g>
<g clip-path="url(#clip3_75_2429)">
<path fill-rule="evenodd" clip-rule="evenodd" d="M1284.21 305.818C1284.63 305.399 1285.31 305.399 1285.73 305.818L1291.54 311.626C1291.96 312.046 1291.96 312.732 1291.54 313.151C1291.12 313.57 1290.43 313.57 1290.01 313.151L1284.21 307.343C1283.79 306.924 1283.79 306.237 1284.21 305.818Z" fill="#0F3A8A"/>
<path fill-rule="evenodd" clip-rule="evenodd" d="M1279.48 317.233C1279.48 316.64 1279.96 316.154 1280.56 316.154H1288.77C1289.36 316.154 1289.85 316.64 1289.85 317.233C1289.85 317.825 1289.36 318.311 1288.77 318.311H1280.56C1279.96 318.311 1279.48 317.825 1279.48 317.233Z" fill="#0F3A8A"/>
<path fill-rule="evenodd" clip-rule="evenodd" d="M1284.21 328.647C1283.79 328.228 1283.79 327.541 1284.21 327.122L1290.01 321.314C1290.43 320.895 1291.12 320.895 1291.54 321.314C1291.96 321.733 1291.96 322.419 1291.54 322.839L1285.73 328.647C1285.31 329.066 1284.63 329.066 1284.21 328.647Z" fill="#0F3A8A"/>
<path fill-rule="evenodd" clip-rule="evenodd" d="M1307.03 305.818C1307.45 306.237 1307.45 306.924 1307.03 307.343L1301.23 313.151C1300.81 313.57 1300.12 313.57 1299.7 313.151C1299.28 312.732 1299.28 312.046 1299.7 311.626L1305.51 305.818C1305.93 305.399 1306.62 305.399 1307.03 305.818Z" fill="#0F3A8A"/>
<path fill-rule="evenodd" clip-rule="evenodd" d="M1295.62 301.09C1296.21 301.09 1296.7 301.576 1296.7 302.168V310.381C1296.7 310.974 1296.21 311.46 1295.62 311.46C1295.03 311.46 1294.54 310.974 1294.54 310.381V302.168C1294.54 301.576 1295.03 301.09 1295.62 301.09Z" fill="#0F3A8A"/>
<path fill-rule="evenodd" clip-rule="evenodd" d="M1294.86 315.681L1316.72 325.263C1317.16 325.455 1317.21 326.056 1316.8 326.316L1312.37 329.194L1318.3 335.132C1318.54 335.365 1318.54 335.746 1318.3 335.981L1314.37 339.914C1314.14 340.148 1313.76 340.148 1313.52 339.914L1307.58 333.976L1304.7 338.417C1304.44 338.819 1303.84 338.77 1303.65 338.332L1294.07 316.472C1293.85 315.975 1294.36 315.465 1294.86 315.683L1294.86 315.681Z" fill="#0F3A8A"/>
</g>
<g filter="url(#filter14_bd_75_2429)">
<rect x="-18.5898" y="198.26" width="115.194" height="144.095" rx="7" fill="url(#paint29_linear_75_2429)" shape-rendering="crispEdges"/>
<rect x="-18.3398" y="198.51" width="114.694" height="143.595" rx="6.75" stroke="url(#paint30_linear_75_2429)" stroke-width="0.5" shape-rendering="crispEdges"/>
</g>
<g filter="url(#filter15_b_75_2429)">
<rect x="-12.8125" y="203.701" width="103.639" height="133.213" rx="2" fill="url(#paint31_linear_75_2429)"/>
</g>
<rect x="8.1582" y="275.627" width="68.1325" height="3.84874" rx="1.92437" fill="#133F84" fill-opacity="0.49"/>
<rect x="-0.287109" y="275.627" width="3.89177" height="3.84874" rx="1.92437" fill="#133F84" fill-opacity="0.49"/>
<rect x="8.1582" y="288.203" width="68.1325" height="3.84874" rx="1.92437" fill="#133F84" fill-opacity="0.49"/>
<rect x="-0.287109" y="288.203" width="3.89177" height="3.84874" rx="1.92437" fill="#133F84" fill-opacity="0.49"/>
<rect x="8.1582" y="300.777" width="68.1325" height="3.84874" rx="1.92437" fill="#133F84" fill-opacity="0.49"/>
<rect x="-0.287109" y="300.777" width="3.89177" height="3.84874" rx="1.92437" fill="#133F84" fill-opacity="0.49"/>
<g clip-path="url(#clip4_75_2429)">
<rect x="-23.8877" y="196.65" width="202.352" height="23.5566" transform="rotate(45 -23.8877 196.65)" fill="white" fill-opacity="0.12"/>
<rect x="-29.2041" y="232.541" width="202.352" height="5.95827" transform="rotate(45 -29.2041 232.541)" fill="white" fill-opacity="0.12"/>
</g>
<rect x="-0.287109" y="227.059" width="20.0547" height="26.7983" rx="2" fill="#6487C0"/>
<rect x="28.9785" y="227.059" width="20.0547" height="26.7983" rx="2" fill="#6487C0"/>
<rect x="58.248" y="227.059" width="20.0547" height="26.7983" rx="2" fill="#6487C0"/>
<path d="M137.893 254.104L140.78 249.104H135.006L137.893 254.104ZM38.25 198.386V190.574H37.25V198.386H38.25ZM45.75 183.074H129.893V182.074H45.75V183.074ZM137.393 190.574V249.604H138.393V190.574H137.393ZM129.893 183.074C134.035 183.074 137.393 186.432 137.393 190.574H138.393C138.393 185.88 134.587 182.074 129.893 182.074V183.074ZM38.25 190.574C38.25 186.432 41.6079 183.074 45.75 183.074V182.074C41.0556 182.074 37.25 185.88 37.25 190.574H38.25Z" fill="white" fill-opacity="0.3"/>
<rect x="110.131" y="256.057" width="55.5229" height="104.105" rx="7" fill="#6895E0" fill-opacity="0.74"/>
<g filter="url(#filter16_b_75_2429)">
<rect x="113.596" y="259.682" width="48.5935" height="96.8555" rx="2" fill="url(#paint32_linear_75_2429)"/>
</g>
<path d="M122.92 304.141C120.729 304.141 118.951 305.918 118.951 308.109C118.951 310.3 120.729 312.078 122.92 312.078C125.111 312.078 126.889 310.3 126.889 308.109C126.889 305.918 125.111 304.141 122.92 304.141ZM124.962 307.15L122.631 309.49C122.556 309.564 122.449 309.614 122.341 309.614C122.234 309.614 122.126 309.573 122.052 309.49L120.878 308.316C120.712 308.151 120.712 307.894 120.878 307.729C121.043 307.564 121.3 307.564 121.465 307.729L122.342 308.606L124.384 306.563C124.549 306.398 124.806 306.398 124.971 306.563C125.128 306.729 125.128 306.985 124.962 307.15L124.962 307.15Z" fill="#5A7FBC"/>
<path d="M122.92 317.631C120.729 317.631 118.951 319.409 118.951 321.6C118.951 323.791 120.729 325.568 122.92 325.568C125.111 325.568 126.889 323.791 126.889 321.6C126.889 319.409 125.111 317.631 122.92 317.631ZM124.962 320.64L122.631 322.98C122.556 323.055 122.449 323.104 122.341 323.104C122.234 323.104 122.126 323.063 122.052 322.98L120.878 321.806C120.712 321.641 120.712 321.385 120.878 321.219C121.043 321.054 121.3 321.054 121.465 321.219L122.342 322.096L124.384 320.054C124.549 319.888 124.806 319.888 124.971 320.054C125.128 320.219 125.128 320.475 124.962 320.64L124.962 320.64Z" fill="#5A7FBC"/>
<path d="M122.92 331.121C120.729 331.121 118.951 332.899 118.951 335.09C118.951 337.281 120.729 339.059 122.92 339.059C125.111 339.059 126.889 337.281 126.889 335.09C126.889 332.899 125.111 331.121 122.92 331.121ZM124.962 334.131L122.631 336.471C122.556 336.545 122.449 336.595 122.341 336.595C122.234 336.595 122.126 336.553 122.052 336.471L120.878 335.297C120.712 335.131 120.712 334.875 120.878 334.709C121.043 334.544 121.3 334.544 121.465 334.709L122.342 335.586L124.384 333.544C124.549 333.378 124.806 333.378 124.971 333.544C125.128 333.709 125.128 333.965 124.962 334.131L124.962 334.131Z" fill="#5A7FBC"/>
<rect x="118.951" y="270.672" width="16.4423" height="23.9017" rx="2" fill="#4D7BC7" fill-opacity="0.69"/>
<rect x="140.393" y="270.672" width="16.4423" height="23.9017" rx="2" fill="#4D7BC7" fill-opacity="0.69"/>
<rect x="131.588" y="306.721" width="25.2461" height="2.77648" rx="1.38824" fill="#133F84" fill-opacity="0.35"/>
<rect x="131.588" y="320.211" width="25.2461" height="2.77648" rx="1.38824" fill="#133F84" fill-opacity="0.35"/>
<rect x="131.588" y="333.701" width="25.2461" height="2.77648" rx="1.38824" fill="#133F84" fill-opacity="0.35"/>
<g opacity="0.75" clip-path="url(#clip5_75_2429)">
<rect x="74.9756" y="222.676" width="202.352" height="23.5566" transform="rotate(45 74.9756 222.676)" fill="white" fill-opacity="0.12"/>
<rect x="69.6592" y="258.564" width="202.352" height="5.95827" transform="rotate(45 69.6592 258.564)" fill="white" fill-opacity="0.12"/>
</g>
</g>
<defs>
<filter id="filter0_f_75_2429" x="-106.757" y="-40.8613" width="1653.94" height="549.695" filterUnits="userSpaceOnUse" color-interpolation-filters="sRGB">
<feFlood flood-opacity="0" result="BackgroundImageFix"/>
<feBlend mode="normal" in="SourceGraphic" in2="BackgroundImageFix" result="shape"/>
<feGaussianBlur stdDeviation="17" result="effect1_foregroundBlur_75_2429"/>
</filter>
<filter id="filter1_f_75_2429" x="896.616" y="-462.41" width="991.367" height="943.094" filterUnits="userSpaceOnUse" color-interpolation-filters="sRGB">
<feFlood flood-opacity="0" result="BackgroundImageFix"/>
<feBlend mode="normal" in="SourceGraphic" in2="BackgroundImageFix" result="shape"/>
<feGaussianBlur stdDeviation="117" result="effect1_foregroundBlur_75_2429"/>
</filter>
<filter id="filter2_b_75_2429" x="1264.98" y="83.8809" width="150.891" height="178.928" filterUnits="userSpaceOnUse" color-interpolation-filters="sRGB">
<feFlood flood-opacity="0" result="BackgroundImageFix"/>
<feGaussianBlur in="BackgroundImageFix" stdDeviation="17"/>
<feComposite in2="SourceAlpha" operator="in" result="effect1_backgroundBlur_75_2429"/>
<feBlend mode="normal" in="SourceGraphic" in2="effect1_backgroundBlur_75_2429" result="shape"/>
</filter>
<filter id="filter3_f_75_2429" x="-135.417" y="-368.922" width="1175.03" height="832.441" filterUnits="userSpaceOnUse" color-interpolation-filters="sRGB">
<feFlood flood-opacity="0" result="BackgroundImageFix"/>
<feBlend mode="normal" in="SourceGraphic" in2="BackgroundImageFix" result="shape"/>
<feGaussianBlur stdDeviation="117" result="effect1_foregroundBlur_75_2429"/>
</filter>
<filter id="filter4_f_75_2429" x="210.193" y="-476.49" width="1125.92" height="1164.75" filterUnits="userSpaceOnUse" color-interpolation-filters="sRGB">
<feFlood flood-opacity="0" result="BackgroundImageFix"/>
<feBlend mode="normal" in="SourceGraphic" in2="BackgroundImageFix" result="shape"/>
<feGaussianBlur stdDeviation="117" result="effect1_foregroundBlur_75_2429"/>
</filter>
<filter id="filter5_f_75_2429" x="-543.225" y="-599.783" width="1157.37" height="1109.09" filterUnits="userSpaceOnUse" color-interpolation-filters="sRGB">
<feFlood flood-opacity="0" result="BackgroundImageFix"/>
<feBlend mode="normal" in="SourceGraphic" in2="BackgroundImageFix" result="shape"/>
<feGaussianBlur stdDeviation="158.5" result="effect1_foregroundBlur_75_2429"/>
</filter>
<filter id="filter6_bd_75_2429" x="-85.9707" y="-67.1191" width="1611.94" height="84.8926" filterUnits="userSpaceOnUse" color-interpolation-filters="sRGB">
<feFlood flood-opacity="0" result="BackgroundImageFix"/>
<feGaussianBlur in="BackgroundImageFix" stdDeviation="4"/>
<feComposite in2="SourceAlpha" operator="in" result="effect1_backgroundBlur_75_2429"/>
<feColorMatrix in="SourceAlpha" type="matrix" values="0 0 0 0 0 0 0 0 0 0 0 0 0 0 0 0 0 0 127 0" result="hardAlpha"/>
<feOffset dy="4"/>
<feGaussianBlur stdDeviation="6.5"/>
<feComposite in2="hardAlpha" operator="out"/>
<feColorMatrix type="matrix" values="0 0 0 0 0.175678 0 0 0 0 0.173906 0 0 0 0 0.2625 0 0 0 0.09 0"/>
<feBlend mode="normal" in2="effect1_backgroundBlur_75_2429" result="effect2_dropShadow_75_2429"/>
<feBlend mode="normal" in="SourceGraphic" in2="effect2_dropShadow_75_2429" result="shape"/>
</filter>
<filter id="filter7_b_75_2429" x="1099.8" y="263.982" width="82.002" height="82.002" filterUnits="userSpaceOnUse" color-interpolation-filters="sRGB">
<feFlood flood-opacity="0" result="BackgroundImageFix"/>
<feGaussianBlur in="BackgroundImageFix" stdDeviation="2"/>
<feComposite in2="SourceAlpha" operator="in" result="effect1_backgroundBlur_75_2429"/>
<feBlend mode="normal" in="SourceGraphic" in2="effect1_backgroundBlur_75_2429" result="shape"/>
</filter>
<filter id="filter8_b_75_2429" x="1231.82" y="126.375" width="43.957" height="43.957" filterUnits="userSpaceOnUse" color-interpolation-filters="sRGB">
<feFlood flood-opacity="0" result="BackgroundImageFix"/>
<feGaussianBlur in="BackgroundImageFix" stdDeviation="2"/>
<feComposite in2="SourceAlpha" operator="in" result="effect1_backgroundBlur_75_2429"/>
<feBlend mode="normal" in="SourceGraphic" in2="effect1_backgroundBlur_75_2429" result="shape"/>
</filter>
<filter id="filter9_b_75_2429" x="1226.54" y="121.096" width="54.5166" height="54.5176" filterUnits="userSpaceOnUse" color-interpolation-filters="sRGB">
<feFlood flood-opacity="0" result="BackgroundImageFix"/>
<feGaussianBlur in="BackgroundImageFix" stdDeviation="2"/>
<feComposite in2="SourceAlpha" operator="in" result="effect1_backgroundBlur_75_2429"/>
<feBlend mode="normal" in="SourceGraphic" in2="effect1_backgroundBlur_75_2429" result="shape"/>
</filter>
<filter id="filter10_b_75_2429" x="20.209" y="108.658" width="43.957" height="43.957" filterUnits="userSpaceOnUse" color-interpolation-filters="sRGB">
<feFlood flood-opacity="0" result="BackgroundImageFix"/>
<feGaussianBlur in="BackgroundImageFix" stdDeviation="2"/>
<feComposite in2="SourceAlpha" operator="in" result="effect1_backgroundBlur_75_2429"/>
<feBlend mode="normal" in="SourceGraphic" in2="effect1_backgroundBlur_75_2429" result="shape"/>
</filter>
<filter id="filter11_b_75_2429" x="14.9287" y="103.379" width="54.5166" height="54.5176" filterUnits="userSpaceOnUse" color-interpolation-filters="sRGB">
<feFlood flood-opacity="0" result="BackgroundImageFix"/>
<feGaussianBlur in="BackgroundImageFix" stdDeviation="2"/>
<feComposite in2="SourceAlpha" operator="in" result="effect1_backgroundBlur_75_2429"/>
<feBlend mode="normal" in="SourceGraphic" in2="effect1_backgroundBlur_75_2429" result="shape"/>
</filter>
<filter id="filter12_bd_75_2429" x="1195.93" y="201.986" width="142.193" height="184.096" filterUnits="userSpaceOnUse" color-interpolation-filters="sRGB">
<feFlood flood-opacity="0" result="BackgroundImageFix"/>
<feGaussianBlur in="BackgroundImageFix" stdDeviation="2"/>
<feComposite in2="SourceAlpha" operator="in" result="effect1_backgroundBlur_75_2429"/>
<feColorMatrix in="SourceAlpha" type="matrix" values="0 0 0 0 0 0 0 0 0 0 0 0 0 0 0 0 0 0 127 0" result="hardAlpha"/>
<feOffset dx="19" dy="32"/>
<feGaussianBlur stdDeviation="2"/>
<feComposite in2="hardAlpha" operator="out"/>
<feColorMatrix type="matrix" values="0 0 0 0 0.0319739 0 0 0 0 0.0236979 0 0 0 0 0.4375 0 0 0 0.05 0"/>
<feBlend mode="normal" in2="effect1_backgroundBlur_75_2429" result="effect2_dropShadow_75_2429"/>
<feBlend mode="normal" in="SourceGraphic" in2="effect2_dropShadow_75_2429" result="shape"/>
</filter>
<filter id="filter13_b_75_2429" x="1201.71" y="207.428" width="111.639" height="141.213" filterUnits="userSpaceOnUse" color-interpolation-filters="sRGB">
<feFlood flood-opacity="0" result="BackgroundImageFix"/>
<feGaussianBlur in="BackgroundImageFix" stdDeviation="2"/>
<feComposite in2="SourceAlpha" operator="in" result="effect1_backgroundBlur_75_2429"/>
<feBlend mode="normal" in="SourceGraphic" in2="effect1_backgroundBlur_75_2429" result="shape"/>
</filter>
<filter id="filter14_bd_75_2429" x="-22.5898" y="194.26" width="142.193" height="184.096" filterUnits="userSpaceOnUse" color-interpolation-filters="sRGB">
<feFlood flood-opacity="0" result="BackgroundImageFix"/>
<feGaussianBlur in="BackgroundImageFix" stdDeviation="2"/>
<feComposite in2="SourceAlpha" operator="in" result="effect1_backgroundBlur_75_2429"/>
<feColorMatrix in="SourceAlpha" type="matrix" values="0 0 0 0 0 0 0 0 0 0 0 0 0 0 0 0 0 0 127 0" result="hardAlpha"/>
<feOffset dx="19" dy="32"/>
<feGaussianBlur stdDeviation="2"/>
<feComposite in2="hardAlpha" operator="out"/>
<feColorMatrix type="matrix" values="0 0 0 0 0.0319739 0 0 0 0 0.0236979 0 0 0 0 0.4375 0 0 0 0.05 0"/>
<feBlend mode="normal" in2="effect1_backgroundBlur_75_2429" result="effect2_dropShadow_75_2429"/>
<feBlend mode="normal" in="SourceGraphic" in2="effect2_dropShadow_75_2429" result="shape"/>
</filter>
<filter id="filter15_b_75_2429" x="-16.8125" y="199.701" width="111.639" height="141.213" filterUnits="userSpaceOnUse" color-interpolation-filters="sRGB">
<feFlood flood-opacity="0" result="BackgroundImageFix"/>
<feGaussianBlur in="BackgroundImageFix" stdDeviation="2"/>
<feComposite in2="SourceAlpha" operator="in" result="effect1_backgroundBlur_75_2429"/>
<feBlend mode="normal" in="SourceGraphic" in2="effect1_backgroundBlur_75_2429" result="shape"/>
</filter>
<filter id="filter16_b_75_2429" x="109.596" y="255.682" width="56.5938" height="104.855" filterUnits="userSpaceOnUse" color-interpolation-filters="sRGB">
<feFlood flood-opacity="0" result="BackgroundImageFix"/>
<feGaussianBlur in="BackgroundImageFix" stdDeviation="2"/>
<feComposite in2="SourceAlpha" operator="in" result="effect1_backgroundBlur_75_2429"/>
<feBlend mode="normal" in="SourceGraphic" in2="effect1_backgroundBlur_75_2429" result="shape"/>
</filter>
<linearGradient id="paint0_linear_75_2429" x1="1340.42" y1="117.881" x2="1340.42" y2="228.809" gradientUnits="userSpaceOnUse">
<stop stop-color="#B6D2FF"/>
<stop offset="1" stop-color="#D9E7FF" stop-opacity="0.36"/>
</linearGradient>
<radialGradient id="paint1_radial_75_2429" cx="0" cy="0" r="1" gradientUnits="userSpaceOnUse" gradientTransform="translate(638.808 540.648) scale(1091.07 780.873)">
<stop stop-color="#1853D4"/>
<stop offset="0.56" stop-color="#1AD0FF"/>
<stop offset="1" stop-color="white"/>
</radialGradient>
<radialGradient id="paint2_radial_75_2429" cx="0" cy="0" r="1" gradientUnits="userSpaceOnUse" gradientTransform="translate(651.043 689.316) scale(1124.24 804.609)">
<stop stop-color="#1853D4"/>
<stop offset="0.56" stop-color="#1AD0FF"/>
<stop offset="1" stop-color="white"/>
</radialGradient>
<radialGradient id="paint3_radial_75_2429" cx="0" cy="0" r="1" gradientUnits="userSpaceOnUse" gradientTransform="translate(577.735 674.016) scale(1258.79 900.909)">
<stop stop-color="#1853D4"/>
<stop offset="0.56" stop-color="#1AD0FF"/>
<stop offset="1" stop-color="white"/>
</radialGradient>
<radialGradient id="paint4_radial_75_2429" cx="0" cy="0" r="1" gradientUnits="userSpaceOnUse" gradientTransform="translate(990.159 569.083) scale(1368.67 979.547)">
<stop stop-color="#1853D4"/>
<stop offset="0.56" stop-color="#1AD0FF"/>
<stop offset="1" stop-color="white"/>
</radialGradient>
<radialGradient id="paint5_radial_75_2429" cx="0" cy="0" r="1" gradientUnits="userSpaceOnUse" gradientTransform="translate(619.238 715.297) scale(1200.14 1228.13)">
<stop stop-color="#A8EDFF"/>
<stop offset="1" stop-color="white"/>
</radialGradient>
<radialGradient id="paint6_radial_75_2429" cx="0" cy="0" r="1" gradientUnits="userSpaceOnUse" gradientTransform="translate(632.697 949.162) scale(1236.66 1265.5)">
<stop stop-color="#A8EDFF"/>
<stop offset="1" stop-color="white"/>
</radialGradient>
<radialGradient id="paint7_radial_75_2429" cx="0" cy="0" r="1" gradientUnits="userSpaceOnUse" gradientTransform="translate(552.058 925.06) scale(1384.67 1416.96)">
<stop stop-color="#A8EDFF"/>
<stop offset="1" stop-color="white"/>
</radialGradient>
<radialGradient id="paint8_radial_75_2429" cx="0" cy="0" r="1" gradientUnits="userSpaceOnUse" gradientTransform="translate(1005.69 760.02) scale(1505.53 1540.65)">
<stop stop-color="#A8EDFF"/>
<stop offset="1" stop-color="white"/>
</radialGradient>
<linearGradient id="paint9_linear_75_2429" x1="1018.37" y1="26.2773" x2="847.156" y2="26.2773" gradientUnits="userSpaceOnUse">
<stop stop-color="#89ECD8"/>
<stop offset="1" stop-color="#89ECD8" stop-opacity="0"/>
</linearGradient>
<linearGradient id="paint10_linear_75_2429" x1="1027.41" y1="-14.1074" x2="1027.41" y2="26.2773" gradientUnits="userSpaceOnUse">
<stop stop-color="#1EAFB3"/>
<stop offset="1" stop-color="#5AD7FF"/>
</linearGradient>
<linearGradient id="paint11_linear_75_2429" x1="683.324" y1="-51.2363" x2="683.324" y2="614.462" gradientUnits="userSpaceOnUse">
<stop offset="0.453125" stop-color="#3C46F4" stop-opacity="0"/>
<stop offset="0.71875" stop-color="#94CAFB" stop-opacity="0.91"/>
</linearGradient>
<linearGradient id="paint12_linear_75_2429" x1="904.58" y1="42.5496" x2="746.897" y2="42.5496" gradientUnits="userSpaceOnUse">
<stop stop-color="#78BDFD"/>
<stop offset="1" stop-color="#78BDFD" stop-opacity="0"/>
</linearGradient>
<linearGradient id="paint13_linear_75_2429" x1="529.762" y1="360.671" x2="169.408" y2="360.671" gradientUnits="userSpaceOnUse">
<stop stop-color="#78BDFD"/>
<stop offset="1" stop-color="#78BDFD" stop-opacity="0"/>
</linearGradient>
<linearGradient id="paint14_linear_75_2429" x1="1307.13" y1="80.3074" x2="946.777" y2="80.3074" gradientUnits="userSpaceOnUse">
<stop stop-color="#37C3FF"/>
<stop offset="1" stop-color="#78BDFD" stop-opacity="0"/>
</linearGradient>
<linearGradient id="paint15_linear_75_2429" x1="218.943" y1="489.715" x2="-13.8563" y2="489.715" gradientUnits="userSpaceOnUse">
<stop stop-color="#89ECD8"/>
<stop offset="1" stop-color="#89ECD8" stop-opacity="0"/>
</linearGradient>
<linearGradient id="paint16_linear_75_2429" x1="231.232" y1="434.805" x2="231.232" y2="489.715" gradientUnits="userSpaceOnUse">
<stop stop-color="#23A3FF"/>
<stop offset="1" stop-color="white"/>
</linearGradient>
<linearGradient id="paint17_linear_75_2429" x1="694.168" y1="51.192" x2="577.276" y2="51.192" gradientUnits="userSpaceOnUse">
<stop stop-color="#89ECD8"/>
<stop offset="1" stop-color="#89ECD8" stop-opacity="0"/>
</linearGradient>
<linearGradient id="paint18_linear_75_2429" x1="700.339" y1="23.6211" x2="700.339" y2="51.192" gradientUnits="userSpaceOnUse">
<stop stop-color="#23A3FF"/>
<stop offset="1" stop-color="white"/>
</linearGradient>
<linearGradient id="paint19_linear_75_2429" x1="1312.98" y1="402.371" x2="1141.77" y2="402.371" gradientUnits="userSpaceOnUse">
<stop stop-color="#F4FFFF"/>
<stop offset="1" stop-color="#89ECD8" stop-opacity="0"/>
</linearGradient>
<linearGradient id="paint20_linear_75_2429" x1="1350.8" y1="373.59" x2="1322.02" y2="402.371" gradientUnits="userSpaceOnUse">
<stop stop-color="#287EFF"/>
<stop offset="1" stop-color="#F9FDFF"/>
</linearGradient>
<linearGradient id="paint21_linear_75_2429" x1="1140.8" y1="267.982" x2="1140.8" y2="341.984" gradientUnits="userSpaceOnUse">
<stop stop-color="#62D7B2"/>
<stop offset="1" stop-color="#93E5CD" stop-opacity="0.08"/>
</linearGradient>
<linearGradient id="paint22_linear_75_2429" x1="1253.79" y1="130.375" x2="1253.79" y2="166.332" gradientUnits="userSpaceOnUse">
<stop stop-color="#FB967C"/>
<stop offset="1" stop-color="#36A8DB"/>
</linearGradient>
<linearGradient id="paint23_linear_75_2429" x1="1253.79" y1="125.096" x2="1253.79" y2="171.613" gradientUnits="userSpaceOnUse">
<stop stop-color="#E0998A"/>
<stop offset="1" stop-color="#43A7D5" stop-opacity="0"/>
</linearGradient>
<linearGradient id="paint24_linear_75_2429" x1="42.1873" y1="112.658" x2="42.1873" y2="148.615" gradientUnits="userSpaceOnUse">
<stop stop-color="#FB967C"/>
<stop offset="1" stop-color="#36A8DB"/>
</linearGradient>
<linearGradient id="paint25_linear_75_2429" x1="42.1872" y1="107.379" x2="42.1872" y2="153.896" gradientUnits="userSpaceOnUse">
<stop stop-color="#E0998A"/>
<stop offset="1" stop-color="#43A7D5" stop-opacity="0"/>
</linearGradient>
<linearGradient id="paint26_linear_75_2429" x1="1257.52" y1="205.986" x2="1257.52" y2="350.082" gradientUnits="userSpaceOnUse">
<stop stop-color="#8CB2EF"/>
<stop offset="1" stop-color="#4583E9" stop-opacity="0.13"/>
</linearGradient>
<linearGradient id="paint27_linear_75_2429" x1="1257.52" y1="205.986" x2="1257.52" y2="350.082" gradientUnits="userSpaceOnUse">
<stop stop-color="white" stop-opacity="0.69"/>
<stop offset="1" stop-color="white" stop-opacity="0"/>
</linearGradient>
<linearGradient id="paint28_linear_75_2429" x1="1257.52" y1="211.428" x2="1257.52" y2="344.641" gradientUnits="userSpaceOnUse">
<stop stop-color="#B6D2FF"/>
<stop offset="1" stop-color="#D9E7FF" stop-opacity="0.13"/>
</linearGradient>
<linearGradient id="paint29_linear_75_2429" x1="39.007" y1="198.26" x2="39.007" y2="342.355" gradientUnits="userSpaceOnUse">
<stop stop-color="#8CB2EF"/>
<stop offset="1" stop-color="#4583E9" stop-opacity="0.13"/>
</linearGradient>
<linearGradient id="paint30_linear_75_2429" x1="39.007" y1="198.26" x2="39.007" y2="342.355" gradientUnits="userSpaceOnUse">
<stop stop-color="white" stop-opacity="0.69"/>
<stop offset="1" stop-color="white" stop-opacity="0"/>
</linearGradient>
<linearGradient id="paint31_linear_75_2429" x1="39.0071" y1="203.701" x2="39.0071" y2="336.914" gradientUnits="userSpaceOnUse">
<stop stop-color="#B6D2FF"/>
<stop offset="1" stop-color="#D9E7FF" stop-opacity="0.13"/>
</linearGradient>
<linearGradient id="paint32_linear_75_2429" x1="137.892" y1="259.682" x2="137.892" y2="356.537" gradientUnits="userSpaceOnUse">
<stop stop-color="#B6D2FF"/>
<stop offset="1" stop-color="#D9E7FF" stop-opacity="0.13"/>
</linearGradient>
<clipPath id="clip0_75_2429">
<rect width="1440" height="614" fill="white" transform="translate(0 0.884766)"/>
</clipPath>
<clipPath id="clip1_75_2429">
<rect width="2141.55" height="634.711" fill="white" transform="translate(-361.701 -88.5488)"/>
</clipPath>
<clipPath id="clip2_75_2429">
<rect x="1206.03" y="213.641" width="103" height="131" rx="2" fill="white"/>
</clipPath>
<clipPath id="clip3_75_2429">
<rect width="39" height="39" fill="white" transform="translate(1279.48 301.09)"/>
</clipPath>
<clipPath id="clip4_75_2429">
<rect x="-12.1738" y="205.914" width="103" height="131" rx="2" fill="white"/>
</clipPath>
<clipPath id="clip5_75_2429">
<rect width="48" height="97" fill="white" transform="translate(114.189 259.682)"/>
</clipPath>
</defs>
</svg>
