<svg width="55" height="55" viewBox="0 0 55 55" fill="none" xmlns="http://www.w3.org/2000/svg">
<rect x="0.0869141" y="0.998047" width="54" height="54" rx="6" fill="#3196F5" fill-opacity="0.11"/>
<path d="M34.9952 28.9705C38.429 28.9705 41.2155 26.0338 41.2155 22.438C41.2155 19.1313 38.8453 16.3912 35.7814 15.9749C35.4576 15.2234 34.7408 14.7031 33.9084 14.7031H20.2538C19.4213 14.7031 18.7161 15.2234 18.3808 15.9749C15.3284 16.3796 12.9583 19.1198 12.9583 22.438C12.9583 26.0106 15.71 28.9127 19.1092 28.9705C19.6526 30.2192 20.4272 31.3407 21.41 32.254C21.884 32.6934 22.3927 33.0634 22.9246 33.3755C20.7163 34.3236 18.8664 36.0116 17.7217 38.2431C17.3864 38.8906 17.4211 39.6536 17.8027 40.278C18.1958 40.9139 18.8664 41.2954 19.6179 41.2954H34.5789C35.3189 41.2954 36.0011 40.9139 36.3826 40.278C36.7641 39.6536 36.7988 38.8906 36.4635 38.2431C35.3189 36.0001 33.4459 34.3121 31.226 33.364C32.8447 32.3812 34.1743 30.8435 35.0067 28.982L34.9952 28.9705ZM38.9031 22.438C38.9031 24.392 37.666 26.0453 35.9779 26.5194V18.3567C37.6544 18.8307 38.9031 20.4841 38.9031 22.4265V22.438ZM18.1958 26.5194C16.5193 26.0453 15.2706 24.392 15.2706 22.438C15.2706 20.4841 16.5077 18.8423 18.1958 18.3682V26.5309V26.5194ZM34.1165 38.9137H20.0572C21.514 36.4163 24.1733 34.8901 27.0869 34.8901C30.0004 34.8901 32.6597 36.4163 34.128 38.9137H34.1165ZM27.5262 32.1962C25.8729 32.3234 24.2658 31.7338 22.9824 30.5429C21.41 29.0861 20.5082 26.9125 20.5082 24.5885V17.0039H33.6656V24.2648C33.6656 28.4502 30.9716 31.9303 27.5262 32.1847V32.1962Z" fill="#3196F5"/>
<path d="M29.7576 22.3228L28.4396 22.1262C28.2893 22.1031 28.1621 22.0106 28.0927 21.8719L27.5031 20.6694C27.3297 20.3341 26.8441 20.3341 26.6822 20.6694L26.0925 21.8719C26.0232 22.0106 25.896 22.1031 25.7457 22.1262L24.4276 22.3228C24.0576 22.3806 23.9073 22.8431 24.1733 23.109L25.1329 24.0455C25.237 24.1496 25.2948 24.2999 25.2601 24.4502L25.0404 25.7682C24.971 26.1382 25.3641 26.4272 25.6994 26.2538L26.8787 25.6295C27.0175 25.5601 27.1678 25.5601 27.3065 25.6295L28.4858 26.2538C28.8211 26.4272 29.2142 26.1498 29.1449 25.7682L28.9136 24.4502C28.8905 24.2999 28.9368 24.1496 29.0408 24.0455L30.0004 23.109C30.2664 22.8431 30.1161 22.3806 29.7461 22.3343L29.7576 22.3228Z" fill="#3196F5"/>
</svg>
