<svg width="29" height="27" viewBox="0 0 29 27" fill="none" xmlns="http://www.w3.org/2000/svg">
<path d="M22.1385 14.5779C25.5724 14.5779 28.3588 11.6412 28.3588 8.04544C28.3588 4.73874 25.9886 1.99858 22.9247 1.58235C22.601 0.830831 21.8841 0.310547 21.0517 0.310547H7.3971C6.56465 0.310547 5.85937 0.830831 5.52408 1.58235C2.47175 1.98702 0.101562 4.72718 0.101562 8.04544C0.101562 11.6181 2.85329 14.5201 6.25248 14.5779C6.79588 15.8266 7.57053 16.9481 8.55329 17.8615C9.02732 18.3008 9.53605 18.6708 10.0679 18.983C7.85958 19.931 6.00968 21.6191 4.86505 23.8505C4.52976 24.498 4.56444 25.2611 4.94598 25.8854C5.33909 26.5213 6.00968 26.9028 6.7612 26.9028H21.7223C22.4622 26.9028 23.1444 26.5213 23.5259 25.8854C23.9074 25.2611 23.9421 24.498 23.6068 23.8505C22.4622 21.6075 20.5892 19.9195 18.3693 18.9714C19.988 17.9886 21.3176 16.4509 22.15 14.5895L22.1385 14.5779ZM26.0464 8.04544C26.0464 9.99939 24.8093 11.6527 23.1212 12.1268V3.9641C24.7977 4.43813 26.0464 6.09148 26.0464 8.03387V8.04544ZM5.33909 12.1268C3.66262 11.6527 2.41394 9.99939 2.41394 8.04544C2.41394 6.09148 3.65106 4.4497 5.33909 3.97566V12.1383V12.1268ZM21.2598 24.5211H7.20055C8.65734 22.0237 11.3166 20.4976 14.2302 20.4976C17.1438 20.4976 19.803 22.0237 21.2713 24.5211H21.2598ZM14.6695 17.8037C13.0162 17.9308 11.4091 17.3412 10.1257 16.1503C8.55329 14.6935 7.65146 12.5199 7.65146 10.1959V2.61136H20.8089V9.87221C20.8089 14.0576 18.115 17.5377 14.6695 17.7921V17.8037Z" fill="white" fill-opacity="0.95"/>
</svg>
