<svg width="393" height="509" viewBox="0 0 393 509" fill="none" xmlns="http://www.w3.org/2000/svg">
<g clip-path="url(#clip0_634_8219)">
<rect width="393" height="508" transform="translate(0 0.417969)" fill="white"/>
<path d="M-64.8585 534.49L-64.8594 -0.765625H507.328V500.386C471.688 507.926 385.284 523.006 324.675 523.006C248.913 523.006 173.731 506.302 100.26 506.302C26.7892 506.302 -34.3093 525.094 -64.8585 534.49Z" fill="#164B9F"/>
<rect opacity="0.8" x="68.3672" y="93.4883" width="28.8145" height="54.0273" rx="3.63277" fill="#D9D9D9" fill-opacity="0.33"/>
<g filter="url(#filter0_f_634_8219)">
<rect x="-41.8359" y="4.85742" width="823.05" height="249.984" fill="#143D95"/>
</g>
<rect opacity="0.8" x="88.293" y="427.227" width="28.8145" height="54.0273" rx="3.63277" fill="white" fill-opacity="0.12"/>
<g filter="url(#filter1_f_634_8219)">
<rect x="42.7812" y="229.027" width="375.462" height="124.026" rx="62.013" transform="rotate(15 42.7812 229.027)" fill="#FF6332" fill-opacity="0.74"/>
</g>
<path d="M13.9053 293.258V508.236" stroke="#64B2C4" stroke-opacity="0.18" stroke-width="0.518967"/>
<path d="M391.374 304.705L-17.9376 304.705" stroke="#64B2C4" stroke-opacity="0.18" stroke-width="0.518967"/>
<path d="M391.374 319.781L-17.9376 319.781" stroke="#64B2C4" stroke-opacity="0.18" stroke-width="0.518967"/>
<path d="M391.374 334.857L-17.9376 334.857" stroke="#64B2C4" stroke-opacity="0.18" stroke-width="0.518967"/>
<path d="M391.374 349.934L-17.9376 349.934" stroke="#64B2C4" stroke-opacity="0.18" stroke-width="0.518967"/>
<path d="M391.374 365.01L-17.9376 365.01" stroke="#64B2C4" stroke-opacity="0.18" stroke-width="0.518967"/>
<path d="M391.374 380.086L-17.9376 380.086" stroke="#64B2C4" stroke-opacity="0.18" stroke-width="0.518967"/>
<path d="M391.374 395.162L-17.9376 395.162" stroke="#64B2C4" stroke-opacity="0.18" stroke-width="0.518967"/>
<path d="M391.374 410.238L-17.9376 410.238" stroke="#64B2C4" stroke-opacity="0.18" stroke-width="0.518967"/>
<path d="M391.374 425.316L-17.9376 425.316" stroke="#64B2C4" stroke-opacity="0.18" stroke-width="0.518967"/>
<path d="M391.374 440.393L-17.9376 440.393" stroke="#64B2C4" stroke-opacity="0.18" stroke-width="0.518967"/>
<path d="M391.374 455.469L-17.9376 455.469" stroke="#64B2C4" stroke-opacity="0.18" stroke-width="0.518967"/>
<path d="M391.374 470.545L-17.9376 470.545" stroke="#64B2C4" stroke-opacity="0.18" stroke-width="0.518967"/>
<path d="M391.374 485.621L-17.9376 485.621" stroke="#64B2C4" stroke-opacity="0.18" stroke-width="0.518967"/>
<path d="M391.374 500.697L-17.9376 500.697" stroke="#64B2C4" stroke-opacity="0.18" stroke-width="0.518967"/>
<path d="M28.4229 293.258V508.236" stroke="#64B2C4" stroke-opacity="0.18" stroke-width="0.518967"/>
<path d="M42.9404 293.258V508.236" stroke="#64B2C4" stroke-opacity="0.18" stroke-width="0.518967"/>
<path d="M57.459 293.258V508.236" stroke="#64B2C4" stroke-opacity="0.18" stroke-width="0.518967"/>
<path d="M71.9766 293.258V508.236" stroke="#64B2C4" stroke-opacity="0.18" stroke-width="0.518967"/>
<path d="M86.4941 293.258V508.236" stroke="#64B2C4" stroke-opacity="0.18" stroke-width="0.518967"/>
<path d="M101.014 293.258V508.236" stroke="#64B2C4" stroke-opacity="0.18" stroke-width="0.518967"/>
<path d="M115.531 293.258V508.236" stroke="#64B2C4" stroke-opacity="0.18" stroke-width="0.518967"/>
<path d="M130.049 293.258V508.236" stroke="#64B2C4" stroke-opacity="0.18" stroke-width="0.518967"/>
<path d="M144.567 293.258V508.236" stroke="#64B2C4" stroke-opacity="0.18" stroke-width="0.518967"/>
<path d="M159.085 293.258V508.236" stroke="#64B2C4" stroke-opacity="0.18" stroke-width="0.518967"/>
<path d="M173.604 293.258V508.236" stroke="#64B2C4" stroke-opacity="0.18" stroke-width="0.518967"/>
<path d="M188.122 293.258V508.236" stroke="#64B2C4" stroke-opacity="0.18" stroke-width="0.518967"/>
<path d="M202.64 293.258V508.236" stroke="#64B2C4" stroke-opacity="0.18" stroke-width="0.518967"/>
<path d="M217.157 293.258V508.236" stroke="#64B2C4" stroke-opacity="0.18" stroke-width="0.518967"/>
<path d="M231.676 293.258V508.236" stroke="#64B2C4" stroke-opacity="0.18" stroke-width="0.518967"/>
<path d="M246.194 293.258V508.236" stroke="#64B2C4" stroke-opacity="0.18" stroke-width="0.518967"/>
<path d="M260.712 293.258V508.236" stroke="#64B2C4" stroke-opacity="0.18" stroke-width="0.518967"/>
<path d="M275.23 293.258V508.236" stroke="#64B2C4" stroke-opacity="0.18" stroke-width="0.518967"/>
<path d="M289.748 293.258V508.236" stroke="#64B2C4" stroke-opacity="0.18" stroke-width="0.518967"/>
<path d="M304.266 293.258V508.236" stroke="#64B2C4" stroke-opacity="0.18" stroke-width="0.518967"/>
<path d="M318.783 293.258V508.236" stroke="#64B2C4" stroke-opacity="0.18" stroke-width="0.518967"/>
<path d="M333.303 293.258V508.236" stroke="#64B2C4" stroke-opacity="0.18" stroke-width="0.518967"/>
<path d="M347.82 293.258V508.236" stroke="#64B2C4" stroke-opacity="0.18" stroke-width="0.518967"/>
<path d="M362.338 293.258V508.236" stroke="#64B2C4" stroke-opacity="0.18" stroke-width="0.518967"/>
<path d="M376.856 293.258V508.236" stroke="#64B2C4" stroke-opacity="0.18" stroke-width="0.518967"/>
<g filter="url(#filter2_f_634_8219)">
<rect x="304.416" y="107.137" width="272.759" height="301.262" transform="rotate(15 304.416 107.137)" fill="#0A2963"/>
</g>
<g filter="url(#filter3_f_634_8219)">
<rect x="-109.176" y="139.574" width="272.759" height="237.329" rx="118.664" transform="rotate(15 -109.176 139.574)" fill="#16C7FF" fill-opacity="0.56"/>
</g>
<path d="M-64.8594 517.438L-74.8223 -260.705L507.328 24.3535V517.438H324.674H100.259H-64.8594Z" fill="url(#paint0_linear_634_8219)"/>
<path d="M144.834 487.706C145.27 486.175 146.473 484.981 148.008 484.557L148.485 484.425L148.008 484.293H148.008C146.473 483.869 145.27 482.675 144.834 481.144L144.697 480.668L144.561 481.144C144.125 482.675 142.922 483.869 141.387 484.293L140.91 484.425L141.386 484.557H141.387C142.922 484.981 144.125 486.175 144.561 487.706L144.697 488.182L144.834 487.706Z" fill="#9AC1FF" fill-opacity="0.32"/>
<path d="M133.452 385.464C133.565 385.067 133.877 384.758 134.274 384.648L134.398 384.614L134.275 384.58H134.274C133.877 384.47 133.565 384.161 133.452 383.764L133.417 383.641L133.381 383.764C133.268 384.161 132.957 384.47 132.559 384.58L132.436 384.614L132.559 384.648H132.559C132.957 384.758 133.268 385.067 133.381 385.464L133.417 385.587L133.452 385.464Z" fill="#FFF2AE" fill-opacity="0.84"/>
<g filter="url(#filter4_b_634_8219)">
<circle cx="127.914" cy="398.133" r="9.33014" fill="url(#paint1_linear_634_8219)"/>
</g>
<g filter="url(#filter5_b_634_8219)">
<circle cx="127.914" cy="398.133" r="11.8109" stroke="url(#paint2_linear_634_8219)" stroke-width="0.518967"/>
</g>
<path d="M130.712 395.459C130.74 395.177 130.74 394.922 130.74 394.611H125.09C125.09 394.922 125.09 395.177 125.118 395.459H123.395V395.741C123.395 398.256 126.587 400.036 127.35 400.431L127.35 401.392C127.35 401.872 126.982 402.24 126.502 402.24H125.937V403.37H129.892V402.24H129.327C128.847 402.24 128.48 401.872 128.48 401.392V400.432C129.242 400.036 132.435 398.256 132.435 395.742V395.459L130.712 395.459ZM123.988 396.024H125.174C125.287 397.296 125.598 398.2 125.937 398.849C125.033 398.143 124.101 397.154 123.988 396.024ZM129.921 398.849C130.26 398.199 130.571 397.296 130.684 396.024H131.87C131.729 397.154 130.797 398.143 129.921 398.849Z" fill="white" fill-opacity="0.69"/>
<g filter="url(#filter6_bd_634_8219)">
<rect x="12.3555" y="384.48" width="59.7817" height="74.7806" rx="3.63277" fill="url(#paint3_linear_634_8219)" shape-rendering="crispEdges"/>
<rect x="12.4852" y="384.61" width="59.5222" height="74.5211" rx="3.50302" stroke="url(#paint4_linear_634_8219)" stroke-width="0.259483" shape-rendering="crispEdges"/>
</g>
<g filter="url(#filter7_b_634_8219)">
<rect x="15.3535" y="387.305" width="53.7853" height="69.133" rx="1.03793" fill="url(#paint5_linear_634_8219)"/>
</g>
<rect x="26.2363" y="424.631" width="35.3585" height="1.99737" rx="0.998685" fill="#133F84" fill-opacity="0.49"/>
<rect x="21.8535" y="424.631" width="2.0197" height="1.99737" rx="0.998685" fill="#133F84" fill-opacity="0.49"/>
<rect x="26.2363" y="431.158" width="35.3585" height="1.99737" rx="0.998685" fill="#133F84" fill-opacity="0.49"/>
<rect x="21.8535" y="431.158" width="2.0197" height="1.99737" rx="0.998685" fill="#133F84" fill-opacity="0.49"/>
<rect x="26.2363" y="437.684" width="35.3585" height="1.99737" rx="0.998685" fill="#133F84" fill-opacity="0.49"/>
<rect x="21.8535" y="437.684" width="2.0197" height="1.99737" rx="0.998685" fill="#133F84" fill-opacity="0.49"/>
<g clip-path="url(#clip1_634_8219)">
<rect x="9.60449" y="383.643" width="105.014" height="12.2251" transform="rotate(45 9.60449 383.643)" fill="white" fill-opacity="0.12"/>
<rect x="6.84473" y="402.27" width="105.014" height="3.09214" transform="rotate(45 6.84473 402.27)" fill="white" fill-opacity="0.12"/>
</g>
<rect x="21.8545" y="399.426" width="10.4077" height="13.9074" rx="1.03793" fill="#6487C0"/>
<rect x="37.042" y="399.426" width="10.4077" height="13.9074" rx="1.03793" fill="#6487C0"/>
<rect x="52.2324" y="399.426" width="10.4077" height="13.9074" rx="1.03793" fill="#6487C0"/>
<path d="M93.5685 413.462L95.0666 410.867H92.0703L93.5685 413.462ZM41.8571 384.546V380.492H41.3382V384.546H41.8571ZM45.7494 376.599H89.4167V376.08H45.7494V376.599ZM93.309 380.492V411.126H93.8279V380.492H93.309ZM89.4167 376.599C91.5664 376.599 93.309 378.342 93.309 380.492H93.8279C93.8279 378.055 91.853 376.08 89.4167 376.08V376.599ZM41.8571 380.492C41.8571 378.342 43.5998 376.599 45.7494 376.599V376.08C43.3131 376.08 41.3382 378.055 41.3382 380.492H41.8571Z" fill="white" fill-opacity="0.3"/>
<rect x="79.1602" y="414.477" width="28.8145" height="54.0273" rx="3.63277" fill="#6895E0" fill-opacity="0.74"/>
<g filter="url(#filter8_b_634_8219)">
<rect x="80.958" y="416.357" width="25.2184" height="50.2648" rx="1.03793" fill="url(#paint6_linear_634_8219)"/>
</g>
<path d="M85.797 439.43C84.6599 439.43 83.7373 440.352 83.7373 441.489C83.7373 442.626 84.6599 443.549 85.797 443.549C86.9341 443.549 87.8566 442.626 87.8566 441.489C87.8566 440.352 86.9341 439.43 85.797 439.43ZM86.8568 440.992L85.6468 442.206C85.6082 442.244 85.5524 442.27 85.4966 442.27C85.4408 442.27 85.385 442.249 85.3464 442.206L84.7371 441.597C84.6513 441.511 84.6513 441.378 84.7371 441.292C84.823 441.206 84.956 441.206 85.0419 441.292L85.4968 441.747L86.5566 440.687C86.6424 440.601 86.7755 440.601 86.8613 440.687C86.9426 440.773 86.9426 440.906 86.8568 440.992L86.8568 440.992Z" fill="#5A7FBC"/>
<path d="M85.797 446.432C84.6599 446.432 83.7373 447.354 83.7373 448.491C83.7373 449.628 84.6599 450.551 85.797 450.551C86.9341 450.551 87.8566 449.628 87.8566 448.491C87.8566 447.354 86.9341 446.432 85.797 446.432ZM86.8568 447.993L85.6468 449.208C85.6082 449.246 85.5524 449.272 85.4966 449.272C85.4408 449.272 85.385 449.251 85.3464 449.208L84.7371 448.599C84.6513 448.513 84.6513 448.38 84.7371 448.294C84.823 448.208 84.956 448.208 85.0419 448.294L85.4968 448.749L86.5566 447.689C86.6424 447.603 86.7755 447.603 86.8613 447.689C86.9426 447.775 86.9426 447.908 86.8568 447.994L86.8568 447.993Z" fill="#5A7FBC"/>
<path d="M85.797 453.432C84.6599 453.432 83.7373 454.354 83.7373 455.491C83.7373 456.628 84.6599 457.551 85.797 457.551C86.9341 457.551 87.8566 456.628 87.8566 455.491C87.8566 454.354 86.9341 453.432 85.797 453.432ZM86.8568 454.993L85.6468 456.208C85.6082 456.246 85.5524 456.272 85.4966 456.272C85.4408 456.272 85.385 456.251 85.3464 456.208L84.7371 455.599C84.6513 455.513 84.6513 455.38 84.7371 455.294C84.823 455.208 84.956 455.208 85.0419 455.294L85.4968 455.749L86.5566 454.689C86.6424 454.603 86.7755 454.603 86.8613 454.689C86.9426 454.775 86.9426 454.908 86.8568 454.994L86.8568 454.993Z" fill="#5A7FBC"/>
<rect x="83.7373" y="422.061" width="8.53302" height="12.4042" rx="1.03793" fill="#4D7BC7" fill-opacity="0.69"/>
<rect x="94.8652" y="422.061" width="8.53302" height="12.4042" rx="1.03793" fill="#4D7BC7" fill-opacity="0.69"/>
<rect x="90.2959" y="440.77" width="13.1019" height="1.4409" rx="0.72045" fill="#133F84" fill-opacity="0.35"/>
<rect x="90.2959" y="447.77" width="13.1019" height="1.4409" rx="0.72045" fill="#133F84" fill-opacity="0.35"/>
<rect x="90.2959" y="454.771" width="13.1019" height="1.4409" rx="0.72045" fill="#133F84" fill-opacity="0.35"/>
<g opacity="0.75" clip-path="url(#clip2_634_8219)">
<rect x="60.915" y="397.154" width="105.014" height="12.2251" transform="rotate(45 60.915 397.154)" fill="white" fill-opacity="0.12"/>
<rect x="58.1562" y="415.779" width="105.014" height="3.09214" transform="rotate(45 58.1562 415.779)" fill="white" fill-opacity="0.12"/>
</g>
<rect x="360.751" y="380.965" width="39.1501" height="53.3094" rx="1.5569" fill="#D9D9D9" fill-opacity="0.04"/>
<g filter="url(#filter9_b_634_8219)">
<rect x="352.374" y="371.943" width="43.0175" height="57.5678" rx="2.07587" fill="url(#paint7_linear_634_8219)" fill-opacity="0.8"/>
</g>
<path d="M388.861 418.337L389.062 417.189C389.096 417.028 389.058 416.862 388.959 416.73C388.867 416.606 388.733 416.523 388.581 416.501L387.433 416.324L386.904 415.268V415.266C386.826 415.136 386.698 415.044 386.55 415.008C386.4 414.961 386.238 414.975 386.102 415.049L385.057 415.582L384.013 415.008C383.869 414.948 383.708 414.948 383.564 415.008C383.419 415.058 383.3 415.163 383.233 415.302L382.704 416.358L381.556 416.535C381.406 416.557 381.269 416.64 381.177 416.763C381.088 416.889 381.05 417.043 381.074 417.194L381.276 418.341L380.409 419.161C380.299 419.271 380.236 419.419 380.238 419.576C380.238 419.728 380.301 419.876 380.409 419.984L381.251 420.811L381.05 421.959L381.052 421.956C381.025 422.111 381.063 422.268 381.155 422.393C381.247 422.517 381.381 422.6 381.534 422.622L382.681 422.795L383.21 423.85C383.278 423.989 383.396 424.095 383.542 424.144C383.69 424.189 383.851 424.178 383.99 424.108L385.035 423.534L386.079 424.108C386.216 424.18 386.377 424.193 386.525 424.144C386.671 424.095 386.792 423.989 386.859 423.85L387.388 422.795L388.536 422.622H388.534C388.686 422.6 388.823 422.517 388.912 422.393C389.004 422.268 389.042 422.111 389.015 421.956L388.814 420.809L389.656 419.982L389.659 419.984C389.769 419.876 389.831 419.728 389.831 419.576C389.831 419.419 389.771 419.271 389.659 419.161L388.861 418.337ZM387.845 420.201C387.711 420.331 387.648 420.52 387.68 420.706L387.83 421.589L386.947 421.721H386.944C386.761 421.748 386.599 421.864 386.514 422.03L386.117 422.833L385.344 422.423C385.18 422.328 384.981 422.328 384.815 422.423L384.017 422.835L383.623 422.03C383.538 421.864 383.378 421.748 383.192 421.721L382.309 421.589L382.459 420.706H382.457C382.489 420.52 382.426 420.331 382.291 420.201L381.626 419.598L382.269 418.966C382.403 418.836 382.466 418.648 382.435 418.462L382.285 417.579L383.168 417.453H383.17C383.356 417.424 383.517 417.306 383.6 417.137L383.997 416.335L384.77 416.73C384.947 416.833 385.167 416.833 385.344 416.73L386.142 416.31L386.539 417.113L386.536 417.115C386.619 417.283 386.781 417.402 386.967 417.429L387.85 417.554L387.68 418.451C387.648 418.637 387.711 418.825 387.845 418.955L388.489 419.598L387.845 420.201Z" fill="white" fill-opacity="0.55"/>
<path d="M386.124 418.233L384.656 419.701L383.99 419.024C383.766 418.802 383.405 418.802 383.181 419.024C382.959 419.248 382.959 419.609 383.181 419.833L384.248 420.907C384.356 421.014 384.503 421.075 384.656 421.075C384.808 421.075 384.954 421.014 385.064 420.907L386.933 419.024C387.155 418.8 387.155 418.439 386.933 418.215C386.704 417.998 386.344 418.004 386.124 418.233Z" fill="white" fill-opacity="0.55"/>
<rect x="356.22" y="391.873" width="33.3411" height="1.41043" fill="white" fill-opacity="0.55"/>
<rect x="356.22" y="395.678" width="33.3411" height="1.41043" fill="white" fill-opacity="0.55"/>
<rect x="356.22" y="399.482" width="33.3411" height="1.41043" fill="white" fill-opacity="0.55"/>
<rect x="356.22" y="403.287" width="33.3411" height="1.41043" fill="white" fill-opacity="0.55"/>
<rect x="356.22" y="407.092" width="18.5936" height="1.41043" fill="white" fill-opacity="0.55"/>
<rect x="356.22" y="410.896" width="18.5936" height="1.41043" fill="white" fill-opacity="0.55"/>
<path d="M356.222 386.956C356.222 384.996 357.811 383.406 359.771 383.406H360.153C362.114 383.406 363.703 384.996 363.703 386.956C363.703 387.074 363.608 387.169 363.49 387.169H356.435C356.317 387.169 356.222 387.074 356.222 386.956Z" fill="white" fill-opacity="0.55"/>
<rect x="357.606" y="378.111" width="4.60257" height="4.60257" rx="2.30128" fill="white" fill-opacity="0.55"/>
<path d="M447.946 503.082C448.047 502.981 448.047 502.816 447.946 502.715L446.295 501.064C446.193 500.962 446.029 500.962 445.928 501.064C445.826 501.165 445.826 501.329 445.928 501.431L447.396 502.898L445.928 504.366C445.826 504.468 445.826 504.632 445.928 504.733C446.029 504.835 446.193 504.835 446.295 504.733L447.946 503.082ZM397.985 539.297H396.835V539.816H397.985V539.297ZM394.536 539.297H392.237V539.816H394.536V539.297ZM389.937 539.297H388.787V539.816H389.937V539.297ZM388.787 539.297C388.527 539.297 388.273 539.272 388.028 539.223L387.927 539.732C388.205 539.787 388.493 539.816 388.787 539.816V539.297ZM386.625 538.642C386.2 538.358 385.835 537.992 385.551 537.568L385.119 537.856C385.441 538.337 385.855 538.751 386.336 539.073L386.625 538.642ZM384.969 536.165C384.921 535.919 384.895 535.665 384.895 535.405H384.376C384.376 535.699 384.405 535.987 384.46 536.266L384.969 536.165ZM384.895 535.405V534.392H384.376V535.405H384.895ZM384.895 532.367V530.342H384.376V532.367H384.895ZM384.895 528.316V526.291H384.376V528.316H384.895ZM384.895 524.266V522.24H384.376V524.266H384.895ZM384.895 520.215V518.19H384.376V520.215H384.895ZM384.895 516.164V514.139H384.376V516.164H384.895ZM384.895 512.114V510.088H384.376V512.114H384.895ZM384.895 508.063V507.05H384.376V508.063H384.895ZM384.895 507.05C384.895 506.79 384.921 506.536 384.969 506.29L384.46 506.19C384.405 506.468 384.376 506.756 384.376 507.05H384.895ZM385.551 504.888C385.835 504.463 386.2 504.098 386.625 503.813L386.336 503.382C385.855 503.704 385.441 504.118 385.119 504.599L385.551 504.888ZM388.028 503.232C388.273 503.183 388.527 503.158 388.787 503.158V502.639C388.493 502.639 388.205 502.668 387.927 502.723L388.028 503.232ZM388.787 503.158H389.841V502.639H388.787V503.158ZM391.947 503.158H394.053V502.639H391.947V503.158ZM396.159 503.158H398.266V502.639H396.159V503.158ZM400.372 503.158H402.478V502.639H400.372V503.158ZM404.584 503.158H406.691V502.639H404.584V503.158ZM408.797 503.158H410.903V502.639H408.797V503.158ZM413.009 503.158H415.116V502.639H413.009V503.158ZM417.222 503.158H419.328V502.639H417.222V503.158ZM421.434 503.158H423.541V502.639H421.434V503.158ZM425.647 503.158H427.753V502.639H425.647V503.158ZM429.859 503.158H431.966V502.639H429.859V503.158ZM434.072 503.158H436.178V502.639H434.072V503.158ZM438.285 503.158H440.391V502.639H438.285V503.158ZM442.497 503.158H444.603V502.639H442.497V503.158ZM446.71 503.158H447.763V502.639H446.71V503.158Z" fill="white" fill-opacity="0.3"/>
<path d="M259.565 443.593C260.246 441.201 262.125 439.336 264.522 438.674L265.267 438.468L264.523 438.262H264.522C262.125 437.6 260.246 435.735 259.565 433.343L259.352 432.6L259.139 433.343C258.457 435.735 256.578 437.6 254.181 438.262L253.437 438.468L254.18 438.674H254.181C256.578 439.336 258.457 441.201 259.139 443.593L259.352 444.336L259.565 443.593Z" fill="#5CF8D2" fill-opacity="0.69"/>
<path d="M278.83 446.453C279.038 445.723 279.612 445.153 280.344 444.951L280.572 444.888L280.344 444.825H280.344C279.612 444.623 279.038 444.053 278.83 443.323L278.765 443.096L278.7 443.323C278.492 444.053 277.918 444.623 277.185 444.825L276.958 444.888L277.185 444.951H277.185C277.918 445.153 278.492 445.723 278.7 446.453L278.765 446.681L278.83 446.453Z" fill="#75E6FF" fill-opacity="0.67"/>
<g filter="url(#filter10_b_634_8219)">
<circle cx="270.283" cy="469.042" r="19.2023" fill="url(#paint8_linear_634_8219)"/>
</g>
<path d="M276.04 463.539C276.098 462.958 276.098 462.435 276.098 461.795H264.469C264.469 462.435 264.469 462.958 264.527 463.539H260.98V464.12C260.98 469.296 267.551 472.959 269.121 473.772L269.12 475.75C269.12 476.739 268.365 477.495 267.376 477.495H266.213V479.82H274.354V477.495H273.19C272.201 477.495 271.446 476.739 271.446 475.75V473.774C273.016 472.959 279.587 469.296 279.587 464.122V463.54L276.04 463.539ZM262.202 464.703H264.644C264.876 467.319 265.516 469.18 266.214 470.517C264.353 469.064 262.434 467.028 262.202 464.703ZM274.412 470.517C275.11 469.179 275.75 467.319 275.982 464.703H278.425C278.133 467.028 276.215 469.064 274.412 470.517Z" fill="white" fill-opacity="0.66"/>
<path d="M334.462 375.089C334.575 374.692 334.887 374.383 335.284 374.273L335.408 374.239L335.284 374.205H335.284C334.887 374.095 334.575 373.786 334.462 373.389L334.426 373.266L334.391 373.389C334.278 373.786 333.966 374.095 333.569 374.205L333.445 374.239L333.569 374.273H333.569C333.966 374.383 334.278 374.692 334.391 375.089L334.426 375.212L334.462 375.089Z" fill="#FFF2AE" fill-opacity="0.84"/>
<g filter="url(#filter11_b_634_8219)">
<circle cx="328.925" cy="387.76" r="9.33014" fill="url(#paint9_linear_634_8219)"/>
</g>
<g filter="url(#filter12_b_634_8219)">
<circle cx="328.925" cy="387.76" r="11.8109" stroke="url(#paint10_linear_634_8219)" stroke-width="0.518967"/>
</g>
<path d="M331.723 385.086C331.751 384.804 331.751 384.549 331.751 384.238H326.1C326.1 384.549 326.1 384.804 326.129 385.086H324.405V385.368C324.405 387.883 327.598 389.663 328.361 390.058L328.36 391.019C328.36 391.499 327.993 391.867 327.513 391.867H326.947V392.996H330.903V391.867H330.338C329.857 391.867 329.49 391.499 329.49 391.019V390.059C330.253 389.663 333.446 387.883 333.446 385.369V385.086L331.723 385.086ZM324.999 385.651H326.185C326.298 386.922 326.609 387.827 326.948 388.476C326.044 387.77 325.111 386.781 324.999 385.651ZM330.932 388.476C331.271 387.826 331.582 386.922 331.694 385.651H332.881C332.74 386.781 331.807 387.77 330.932 388.476Z" fill="white" fill-opacity="0.69"/>
<g filter="url(#filter13_bd_634_8219)">
<rect x="300.972" y="417.666" width="59.7817" height="74.7806" rx="3.63277" fill="url(#paint11_linear_634_8219)" shape-rendering="crispEdges"/>
<rect x="301.101" y="417.796" width="59.5222" height="74.5211" rx="3.50302" stroke="url(#paint12_linear_634_8219)" stroke-width="0.259483" shape-rendering="crispEdges"/>
</g>
<g filter="url(#filter14_b_634_8219)">
<rect x="303.97" y="420.49" width="53.7853" height="69.133" rx="1.03793" fill="url(#paint13_linear_634_8219)"/>
</g>
<rect x="315.41" y="429.814" width="35.3585" height="1.99737" rx="0.998685" fill="#133F84" fill-opacity="0.49"/>
<rect x="311.027" y="429.814" width="2.0197" height="1.99737" rx="0.998685" fill="#133F84" fill-opacity="0.49"/>
<rect x="315.41" y="436.342" width="35.3585" height="1.99737" rx="0.998685" fill="#133F84" fill-opacity="0.49"/>
<rect x="311.027" y="436.342" width="2.0197" height="1.99737" rx="0.998685" fill="#133F84" fill-opacity="0.49"/>
<rect x="315.41" y="442.867" width="35.3585" height="1.99737" rx="0.998685" fill="#133F84" fill-opacity="0.49"/>
<rect x="311.027" y="442.867" width="2.0197" height="1.99737" rx="0.998685" fill="#133F84" fill-opacity="0.49"/>
<rect x="315.41" y="449.393" width="35.3585" height="1.99737" rx="0.998685" fill="#133F84" fill-opacity="0.49"/>
<rect x="311.027" y="449.393" width="2.0197" height="1.99737" rx="0.998685" fill="#133F84" fill-opacity="0.49"/>
<rect x="315.41" y="455.92" width="35.3585" height="1.99737" rx="0.998685" fill="#133F84" fill-opacity="0.49"/>
<rect x="311.027" y="455.92" width="2.0197" height="1.99737" rx="0.998685" fill="#133F84" fill-opacity="0.49"/>
<rect x="315.41" y="462.447" width="35.3585" height="1.99737" rx="0.998685" fill="#133F84" fill-opacity="0.49"/>
<rect x="311.027" y="462.447" width="2.0197" height="1.99737" rx="0.998685" fill="#133F84" fill-opacity="0.49"/>
<circle cx="381.846" cy="394.379" r="5.22452" fill="#D9A98D"/>
<path d="M384.89 393.649C384.836 393.496 384.697 393.397 384.535 393.397H382.914L382.196 391.556C382.139 391.409 382.005 391.316 381.847 391.316C381.689 391.316 381.555 391.408 381.498 391.556L380.78 393.397H379.158C378.996 393.397 378.858 393.496 378.803 393.649C378.749 393.802 378.797 393.965 378.924 394.065L380.346 395.195L379.717 396.938C379.661 397.092 379.708 397.258 379.839 397.36C379.968 397.461 380.14 397.468 380.278 397.377L381.847 396.334L383.418 397.377C383.482 397.42 383.554 397.441 383.625 397.441C383.706 397.441 383.787 397.413 383.856 397.36C383.985 397.258 384.033 397.092 383.977 396.938L383.347 395.195L384.769 394.065C384.896 393.965 384.943 393.801 384.89 393.649Z" fill="#1C57A7"/>
<rect x="379.108" y="388.488" width="5.47531" height="0.665533" fill="#1C57A7"/>
<path fill-rule="evenodd" clip-rule="evenodd" d="M370.339 371.945L379.645 388.064H384.05L393.356 371.945H389.555L381.847 385.295L374.14 371.945H370.339Z" fill="#1C57A7"/>
<path d="M381.507 430.871C381.405 430.77 381.241 430.77 381.14 430.871L379.488 432.523C379.387 432.624 379.387 432.788 379.488 432.89C379.59 432.991 379.754 432.991 379.855 432.89L381.323 431.422L382.791 432.89C382.892 432.991 383.057 432.991 383.158 432.89C383.259 432.788 383.259 432.624 383.158 432.523L381.507 430.871ZM360.751 472.021H377.171V471.502H360.751V472.021ZM381.583 467.609V431.055H381.064V467.609H381.583ZM377.171 472.021C379.608 472.021 381.583 470.046 381.583 467.609H381.064C381.064 469.759 379.321 471.502 377.171 471.502V472.021Z" fill="white" fill-opacity="0.3"/>
<path d="M315.32 387.355C315.422 387.254 315.422 387.09 315.32 386.988L313.669 385.337C313.568 385.236 313.404 385.236 313.302 385.337C313.201 385.438 313.201 385.603 313.302 385.704L314.77 387.172L313.302 388.64C313.201 388.741 313.201 388.905 313.302 389.007C313.404 389.108 313.568 389.108 313.669 389.007L315.32 387.355ZM300.667 432.341H299.729V432.86H300.667V432.341ZM297.852 432.341H295.975V432.86H297.852V432.341ZM294.098 432.341H292.221V432.86H294.098V432.341ZM290.345 432.341H288.468V432.86H290.345V432.341ZM286.591 432.341H285.653V432.86H286.591V432.341ZM285.653 432.341C285.392 432.341 285.138 432.316 284.893 432.267L284.792 432.776C285.071 432.831 285.358 432.86 285.653 432.86V432.341ZM283.49 431.686C283.066 431.401 282.7 431.036 282.416 430.611L281.985 430.9C282.307 431.381 282.721 431.795 283.202 432.117L283.49 431.686ZM281.835 429.209C281.786 428.963 281.76 428.709 281.76 428.449H281.241C281.241 428.743 281.27 429.031 281.325 429.309L281.835 429.209ZM281.76 428.449V427.418H281.241V428.449H281.76ZM281.76 425.355V423.292H281.241V425.355H281.76ZM281.76 421.23V419.167H281.241V421.23H281.76ZM281.76 417.105V415.042H281.241V417.105H281.76ZM281.76 412.98V410.917H281.241V412.98H281.76ZM281.76 408.855V406.792H281.241V408.855H281.76ZM281.76 404.73V402.667H281.241V404.73H281.76ZM281.76 400.605V398.542H281.241V400.605H281.76ZM281.76 396.48V394.417H281.241V396.48H281.76ZM281.76 392.355V391.324H281.241V392.355H281.76ZM281.76 391.324C281.76 391.063 281.786 390.809 281.835 390.564L281.325 390.463C281.27 390.742 281.241 391.029 281.241 391.324H281.76ZM282.416 389.161C282.7 388.737 283.066 388.371 283.49 388.087L283.202 387.656C282.721 387.978 282.307 388.392 281.985 388.872L282.416 389.161ZM284.893 387.505C285.138 387.457 285.392 387.431 285.653 387.431V386.912C285.358 386.912 285.071 386.941 284.792 386.996L284.893 387.505ZM285.653 387.431H286.706V386.912H285.653V387.431ZM288.812 387.431H290.918V386.912H288.812V387.431ZM293.024 387.431H295.13V386.912H293.024V387.431ZM297.236 387.431H299.342V386.912H297.236V387.431ZM301.448 387.431H303.554V386.912H301.448V387.431ZM305.66 387.431H307.766V386.912H305.66V387.431ZM309.872 387.431H311.978V386.912H309.872V387.431ZM314.084 387.431H315.137V386.912H314.084V387.431Z" fill="white" fill-opacity="0.3"/>
<g clip-path="url(#clip3_634_8219)">
<rect x="298.057" y="416.83" width="105.014" height="12.2251" transform="rotate(45 298.057 416.83)" fill="white" fill-opacity="0.12"/>
<rect x="295.298" y="435.457" width="105.014" height="3.09214" transform="rotate(45 295.298 435.457)" fill="white" fill-opacity="0.12"/>
</g>
<g clip-path="url(#clip4_634_8219)">
<path fill-rule="evenodd" clip-rule="evenodd" d="M344.708 469.478C344.925 469.26 345.281 469.26 345.499 469.478L348.513 472.491C348.731 472.71 348.731 473.065 348.513 473.283C348.295 473.5 347.939 473.5 347.722 473.283L344.708 470.269C344.491 470.052 344.491 469.695 344.708 469.478Z" fill="#0F3A8A"/>
<path fill-rule="evenodd" clip-rule="evenodd" d="M342.254 475.402C342.254 475.094 342.505 474.842 342.814 474.842H347.076C347.384 474.842 347.636 475.094 347.636 475.402C347.636 475.709 347.384 475.961 347.076 475.961H342.814C342.505 475.961 342.254 475.709 342.254 475.402Z" fill="#0F3A8A"/>
<path fill-rule="evenodd" clip-rule="evenodd" d="M344.708 481.324C344.491 481.106 344.491 480.75 344.708 480.532L347.722 477.519C347.939 477.301 348.295 477.301 348.513 477.519C348.731 477.736 348.731 478.092 348.513 478.31L345.499 481.324C345.281 481.541 344.925 481.541 344.708 481.324Z" fill="#0F3A8A"/>
<path fill-rule="evenodd" clip-rule="evenodd" d="M356.555 469.478C356.772 469.695 356.772 470.051 356.555 470.269L353.541 473.283C353.324 473.5 352.968 473.5 352.751 473.283C352.532 473.065 352.532 472.71 352.751 472.491L355.764 469.478C355.982 469.26 356.338 469.26 356.555 469.478Z" fill="#0F3A8A"/>
<path fill-rule="evenodd" clip-rule="evenodd" d="M350.632 467.023C350.94 467.023 351.191 467.276 351.191 467.583V471.845C351.191 472.153 350.94 472.405 350.632 472.405C350.324 472.405 350.072 472.153 350.072 471.845V467.583C350.072 467.276 350.324 467.023 350.632 467.023Z" fill="#0F3A8A"/>
<path fill-rule="evenodd" clip-rule="evenodd" d="M350.236 474.596L361.58 479.569C361.808 479.669 361.833 479.98 361.625 480.116L359.321 481.609L362.403 484.691C362.524 484.812 362.524 485.01 362.403 485.131L360.361 487.173C360.24 487.294 360.042 487.294 359.92 487.173L356.838 484.091L355.345 486.396C355.21 486.604 354.898 486.579 354.798 486.351L349.826 475.007C349.713 474.749 349.978 474.484 350.236 474.597L350.236 474.596Z" fill="#0F3A8A"/>
</g>
</g>
<defs>
<filter id="filter0_f_634_8219" x="-59.4808" y="-12.7874" width="858.34" height="285.274" filterUnits="userSpaceOnUse" color-interpolation-filters="sRGB">
<feFlood flood-opacity="0" result="BackgroundImageFix"/>
<feBlend mode="normal" in="SourceGraphic" in2="BackgroundImageFix" result="shape"/>
<feGaussianBlur stdDeviation="8.82243" result="effect1_foregroundBlur_634_8219"/>
</filter>
<filter id="filter1_f_634_8219" x="-96.8356" y="121.511" width="609.802" height="432.009" filterUnits="userSpaceOnUse" color-interpolation-filters="sRGB">
<feFlood flood-opacity="0" result="BackgroundImageFix"/>
<feBlend mode="normal" in="SourceGraphic" in2="BackgroundImageFix" result="shape"/>
<feGaussianBlur stdDeviation="60.7191" result="effect1_foregroundBlur_634_8219"/>
</filter>
<filter id="filter2_f_634_8219" x="105.005" y="-14.3015" width="584.314" height="604.468" filterUnits="userSpaceOnUse" color-interpolation-filters="sRGB">
<feFlood flood-opacity="0" result="BackgroundImageFix"/>
<feBlend mode="normal" in="SourceGraphic" in2="BackgroundImageFix" result="shape"/>
<feGaussianBlur stdDeviation="60.7191" result="effect1_foregroundBlur_634_8219"/>
</filter>
<filter id="filter3_f_634_8219" x="-308.473" y="1.70242" width="600.635" height="575.581" filterUnits="userSpaceOnUse" color-interpolation-filters="sRGB">
<feFlood flood-opacity="0" result="BackgroundImageFix"/>
<feBlend mode="normal" in="SourceGraphic" in2="BackgroundImageFix" result="shape"/>
<feGaussianBlur stdDeviation="82.2562" result="effect1_foregroundBlur_634_8219"/>
</filter>
<filter id="filter4_b_634_8219" x="116.508" y="386.727" width="22.8119" height="22.8119" filterUnits="userSpaceOnUse" color-interpolation-filters="sRGB">
<feFlood flood-opacity="0" result="BackgroundImageFix"/>
<feGaussianBlur in="BackgroundImageFix" stdDeviation="1.03793"/>
<feComposite in2="SourceAlpha" operator="in" result="effect1_backgroundBlur_634_8219"/>
<feBlend mode="normal" in="SourceGraphic" in2="effect1_backgroundBlur_634_8219" result="shape"/>
</filter>
<filter id="filter5_b_634_8219" x="113.768" y="383.987" width="28.2924" height="28.2924" filterUnits="userSpaceOnUse" color-interpolation-filters="sRGB">
<feFlood flood-opacity="0" result="BackgroundImageFix"/>
<feGaussianBlur in="BackgroundImageFix" stdDeviation="1.03793"/>
<feComposite in2="SourceAlpha" operator="in" result="effect1_backgroundBlur_634_8219"/>
<feBlend mode="normal" in="SourceGraphic" in2="effect1_backgroundBlur_634_8219" result="shape"/>
</filter>
<filter id="filter6_bd_634_8219" x="10.2796" y="382.405" width="73.7933" height="95.5399" filterUnits="userSpaceOnUse" color-interpolation-filters="sRGB">
<feFlood flood-opacity="0" result="BackgroundImageFix"/>
<feGaussianBlur in="BackgroundImageFix" stdDeviation="1.03793"/>
<feComposite in2="SourceAlpha" operator="in" result="effect1_backgroundBlur_634_8219"/>
<feColorMatrix in="SourceAlpha" type="matrix" values="0 0 0 0 0 0 0 0 0 0 0 0 0 0 0 0 0 0 127 0" result="hardAlpha"/>
<feOffset dx="9.86037" dy="16.6069"/>
<feGaussianBlur stdDeviation="1.03793"/>
<feComposite in2="hardAlpha" operator="out"/>
<feColorMatrix type="matrix" values="0 0 0 0 0.0319739 0 0 0 0 0.0236979 0 0 0 0 0.4375 0 0 0 0.05 0"/>
<feBlend mode="normal" in2="effect1_backgroundBlur_634_8219" result="effect2_dropShadow_634_8219"/>
<feBlend mode="normal" in="SourceGraphic" in2="effect2_dropShadow_634_8219" result="shape"/>
</filter>
<filter id="filter7_b_634_8219" x="13.2776" y="385.229" width="57.9369" height="73.2845" filterUnits="userSpaceOnUse" color-interpolation-filters="sRGB">
<feFlood flood-opacity="0" result="BackgroundImageFix"/>
<feGaussianBlur in="BackgroundImageFix" stdDeviation="1.03793"/>
<feComposite in2="SourceAlpha" operator="in" result="effect1_backgroundBlur_634_8219"/>
<feBlend mode="normal" in="SourceGraphic" in2="effect1_backgroundBlur_634_8219" result="shape"/>
</filter>
<filter id="filter8_b_634_8219" x="78.8821" y="414.282" width="29.3705" height="54.4174" filterUnits="userSpaceOnUse" color-interpolation-filters="sRGB">
<feFlood flood-opacity="0" result="BackgroundImageFix"/>
<feGaussianBlur in="BackgroundImageFix" stdDeviation="1.03793"/>
<feComposite in2="SourceAlpha" operator="in" result="effect1_backgroundBlur_634_8219"/>
<feBlend mode="normal" in="SourceGraphic" in2="effect1_backgroundBlur_634_8219" result="shape"/>
</filter>
<filter id="filter9_b_634_8219" x="334.729" y="354.298" width="78.3073" height="92.8581" filterUnits="userSpaceOnUse" color-interpolation-filters="sRGB">
<feFlood flood-opacity="0" result="BackgroundImageFix"/>
<feGaussianBlur in="BackgroundImageFix" stdDeviation="8.82243"/>
<feComposite in2="SourceAlpha" operator="in" result="effect1_backgroundBlur_634_8219"/>
<feBlend mode="normal" in="SourceGraphic" in2="effect1_backgroundBlur_634_8219" result="shape"/>
</filter>
<filter id="filter10_b_634_8219" x="249.005" y="447.764" width="42.556" height="42.556" filterUnits="userSpaceOnUse" color-interpolation-filters="sRGB">
<feFlood flood-opacity="0" result="BackgroundImageFix"/>
<feGaussianBlur in="BackgroundImageFix" stdDeviation="1.03793"/>
<feComposite in2="SourceAlpha" operator="in" result="effect1_backgroundBlur_634_8219"/>
<feBlend mode="normal" in="SourceGraphic" in2="effect1_backgroundBlur_634_8219" result="shape"/>
</filter>
<filter id="filter11_b_634_8219" x="317.519" y="376.354" width="22.8119" height="22.8119" filterUnits="userSpaceOnUse" color-interpolation-filters="sRGB">
<feFlood flood-opacity="0" result="BackgroundImageFix"/>
<feGaussianBlur in="BackgroundImageFix" stdDeviation="1.03793"/>
<feComposite in2="SourceAlpha" operator="in" result="effect1_backgroundBlur_634_8219"/>
<feBlend mode="normal" in="SourceGraphic" in2="effect1_backgroundBlur_634_8219" result="shape"/>
</filter>
<filter id="filter12_b_634_8219" x="314.779" y="373.614" width="28.2924" height="28.2924" filterUnits="userSpaceOnUse" color-interpolation-filters="sRGB">
<feFlood flood-opacity="0" result="BackgroundImageFix"/>
<feGaussianBlur in="BackgroundImageFix" stdDeviation="1.03793"/>
<feComposite in2="SourceAlpha" operator="in" result="effect1_backgroundBlur_634_8219"/>
<feBlend mode="normal" in="SourceGraphic" in2="effect1_backgroundBlur_634_8219" result="shape"/>
</filter>
<filter id="filter13_bd_634_8219" x="298.896" y="415.59" width="73.7933" height="95.5399" filterUnits="userSpaceOnUse" color-interpolation-filters="sRGB">
<feFlood flood-opacity="0" result="BackgroundImageFix"/>
<feGaussianBlur in="BackgroundImageFix" stdDeviation="1.03793"/>
<feComposite in2="SourceAlpha" operator="in" result="effect1_backgroundBlur_634_8219"/>
<feColorMatrix in="SourceAlpha" type="matrix" values="0 0 0 0 0 0 0 0 0 0 0 0 0 0 0 0 0 0 127 0" result="hardAlpha"/>
<feOffset dx="9.86037" dy="16.6069"/>
<feGaussianBlur stdDeviation="1.03793"/>
<feComposite in2="hardAlpha" operator="out"/>
<feColorMatrix type="matrix" values="0 0 0 0 0.0319739 0 0 0 0 0.0236979 0 0 0 0 0.4375 0 0 0 0.05 0"/>
<feBlend mode="normal" in2="effect1_backgroundBlur_634_8219" result="effect2_dropShadow_634_8219"/>
<feBlend mode="normal" in="SourceGraphic" in2="effect2_dropShadow_634_8219" result="shape"/>
</filter>
<filter id="filter14_b_634_8219" x="301.894" y="418.414" width="57.9369" height="73.2845" filterUnits="userSpaceOnUse" color-interpolation-filters="sRGB">
<feFlood flood-opacity="0" result="BackgroundImageFix"/>
<feGaussianBlur in="BackgroundImageFix" stdDeviation="1.03793"/>
<feComposite in2="SourceAlpha" operator="in" result="effect1_backgroundBlur_634_8219"/>
<feBlend mode="normal" in="SourceGraphic" in2="effect1_backgroundBlur_634_8219" result="shape"/>
</filter>
<linearGradient id="paint0_linear_634_8219" x1="221.234" y1="296.805" x2="221.234" y2="534.491" gradientUnits="userSpaceOnUse">
<stop offset="0.453125" stop-color="#3C46F4" stop-opacity="0"/>
<stop offset="0.71875" stop-color="#94CAFB" stop-opacity="0.91"/>
</linearGradient>
<linearGradient id="paint1_linear_634_8219" x1="127.914" y1="388.803" x2="127.914" y2="407.463" gradientUnits="userSpaceOnUse">
<stop stop-color="#FB967C"/>
<stop offset="1" stop-color="#36A8DB"/>
</linearGradient>
<linearGradient id="paint2_linear_634_8219" x1="127.914" y1="386.062" x2="127.914" y2="410.203" gradientUnits="userSpaceOnUse">
<stop stop-color="#E0998A"/>
<stop offset="1" stop-color="#43A7D5" stop-opacity="0"/>
</linearGradient>
<linearGradient id="paint3_linear_634_8219" x1="42.2463" y1="384.48" x2="42.2463" y2="459.261" gradientUnits="userSpaceOnUse">
<stop stop-color="#8CB2EF"/>
<stop offset="1" stop-color="#4583E9" stop-opacity="0.13"/>
</linearGradient>
<linearGradient id="paint4_linear_634_8219" x1="42.2463" y1="384.48" x2="42.2463" y2="459.261" gradientUnits="userSpaceOnUse">
<stop stop-color="white" stop-opacity="0.69"/>
<stop offset="1" stop-color="white" stop-opacity="0"/>
</linearGradient>
<linearGradient id="paint5_linear_634_8219" x1="42.2461" y1="387.305" x2="42.2461" y2="456.438" gradientUnits="userSpaceOnUse">
<stop stop-color="#B6D2FF"/>
<stop offset="1" stop-color="#D9E7FF" stop-opacity="0.13"/>
</linearGradient>
<linearGradient id="paint6_linear_634_8219" x1="93.5672" y1="416.357" x2="93.5672" y2="466.622" gradientUnits="userSpaceOnUse">
<stop stop-color="#B6D2FF"/>
<stop offset="1" stop-color="#D9E7FF" stop-opacity="0.13"/>
</linearGradient>
<linearGradient id="paint7_linear_634_8219" x1="373.883" y1="371.943" x2="373.883" y2="429.511" gradientUnits="userSpaceOnUse">
<stop stop-color="#B6D2FF"/>
<stop offset="1" stop-color="#D9E7FF" stop-opacity="0.36"/>
</linearGradient>
<linearGradient id="paint8_linear_634_8219" x1="270.283" y1="449.84" x2="270.283" y2="488.244" gradientUnits="userSpaceOnUse">
<stop stop-color="#62D7B2"/>
<stop offset="1" stop-color="#93E5CD" stop-opacity="0.08"/>
</linearGradient>
<linearGradient id="paint9_linear_634_8219" x1="328.925" y1="378.43" x2="328.925" y2="397.09" gradientUnits="userSpaceOnUse">
<stop stop-color="#FB967C"/>
<stop offset="1" stop-color="#36A8DB"/>
</linearGradient>
<linearGradient id="paint10_linear_634_8219" x1="328.925" y1="375.689" x2="328.925" y2="399.83" gradientUnits="userSpaceOnUse">
<stop stop-color="#E0998A"/>
<stop offset="1" stop-color="#43A7D5" stop-opacity="0"/>
</linearGradient>
<linearGradient id="paint11_linear_634_8219" x1="330.863" y1="417.666" x2="330.863" y2="492.447" gradientUnits="userSpaceOnUse">
<stop stop-color="#8CB2EF"/>
<stop offset="1" stop-color="#4583E9" stop-opacity="0.13"/>
</linearGradient>
<linearGradient id="paint12_linear_634_8219" x1="330.863" y1="417.666" x2="330.863" y2="492.447" gradientUnits="userSpaceOnUse">
<stop stop-color="white" stop-opacity="0.69"/>
<stop offset="1" stop-color="white" stop-opacity="0"/>
</linearGradient>
<linearGradient id="paint13_linear_634_8219" x1="330.862" y1="420.49" x2="330.862" y2="489.623" gradientUnits="userSpaceOnUse">
<stop stop-color="#B6D2FF"/>
<stop offset="1" stop-color="#D9E7FF" stop-opacity="0.13"/>
</linearGradient>
<clipPath id="clip0_634_8219">
<rect width="393" height="508" fill="white" transform="translate(0 0.417969)"/>
</clipPath>
<clipPath id="clip1_634_8219">
<rect x="15.6846" y="388.451" width="53.4536" height="67.9846" rx="1.03793" fill="white"/>
</clipPath>
<clipPath id="clip2_634_8219">
<rect width="24.9104" height="50.3398" fill="white" transform="translate(81.2666 416.357)"/>
</clipPath>
<clipPath id="clip3_634_8219">
<rect x="304.136" y="421.639" width="53.4536" height="67.9846" rx="1.03793" fill="white"/>
</clipPath>
<clipPath id="clip4_634_8219">
<rect width="20.2397" height="20.2397" fill="white" transform="translate(342.255 467.023)"/>
</clipPath>
</defs>
</svg>
