<svg width="1440" height="583" viewBox="0 0 1440 583" fill="none" xmlns="http://www.w3.org/2000/svg">
<g clip-path="url(#clip0_472_5107)">
<rect width="1440" height="582" transform="translate(0 0.582031)" fill="white"/>
<rect opacity="0.8" x="145.889" y="304.895" width="55.5229" height="104.105" rx="7" fill="#D9D9D9" fill-opacity="0.33"/>
<g filter="url(#filter0_f_472_5107)">
<rect x="-72.7568" y="-7.16406" width="1585.94" height="481.695" fill="#143D95"/>
</g>
<rect opacity="0.8" x="127.727" y="280.324" width="55.5229" height="104.105" rx="7" fill="white" fill-opacity="0.12"/>
<rect x="1315.12" y="134.961" width="75.4385" height="102.722" rx="3" fill="#D9D9D9" fill-opacity="0.04"/>
<g filter="url(#filter1_f_472_5107)">
<rect x="1197.64" y="-280.045" width="525.58" height="457.31" rx="228.655" transform="rotate(15 1197.64 -280.045)" fill="#23FFBD" fill-opacity="0.52"/>
</g>
<g filter="url(#filter2_b_472_5107)">
<rect x="1298.98" y="117.578" width="82.8906" height="110.928" rx="4" fill="url(#paint0_linear_472_5107)" fill-opacity="0.8"/>
</g>
<path d="M1369.28 206.974L1369.67 204.762C1369.73 204.451 1369.66 204.132 1369.47 203.877C1369.29 203.639 1369.03 203.48 1368.74 203.436L1366.53 203.095L1365.51 201.061V201.057C1365.36 200.806 1365.11 200.629 1364.83 200.56C1364.54 200.469 1364.23 200.495 1363.96 200.638L1361.95 201.666L1359.94 200.56C1359.66 200.444 1359.35 200.444 1359.07 200.56C1358.79 200.655 1358.56 200.858 1358.44 201.126L1357.42 203.16L1355.2 203.501C1354.92 203.544 1354.65 203.704 1354.47 203.942C1354.3 204.184 1354.23 204.482 1354.28 204.771L1354.66 206.982L1352.99 208.563C1352.78 208.774 1352.66 209.06 1352.67 209.362C1352.67 209.656 1352.79 209.941 1352.99 210.148L1354.62 211.742L1354.23 213.953L1354.23 213.948C1354.18 214.246 1354.25 214.549 1354.43 214.791C1354.61 215.028 1354.87 215.188 1355.16 215.231L1357.37 215.564L1358.39 217.598C1358.52 217.866 1358.75 218.069 1359.03 218.164C1359.32 218.25 1359.63 218.228 1359.89 218.094L1361.91 216.989L1363.92 218.094C1364.18 218.233 1364.49 218.259 1364.78 218.164C1365.06 218.069 1365.29 217.866 1365.42 217.598L1366.44 215.564L1368.65 215.231H1368.65C1368.94 215.188 1369.21 215.028 1369.38 214.791C1369.56 214.549 1369.63 214.246 1369.58 213.948L1369.19 211.737L1370.81 210.144L1370.82 210.148C1371.03 209.941 1371.15 209.656 1371.15 209.362C1371.15 209.06 1371.03 208.774 1370.82 208.563L1369.28 206.974ZM1367.32 210.567C1367.06 210.817 1366.94 211.18 1367 211.539L1367.29 213.24L1365.59 213.495H1365.59C1365.23 213.547 1364.92 213.771 1364.76 214.091L1363.99 215.637L1362.5 214.847C1362.19 214.665 1361.8 214.665 1361.48 214.847L1359.95 215.641L1359.19 214.091C1359.02 213.771 1358.72 213.547 1358.36 213.495L1356.66 213.24L1356.95 211.539H1356.94C1357 211.18 1356.88 210.817 1356.62 210.567L1355.34 209.405L1356.58 208.187C1356.84 207.937 1356.96 207.574 1356.9 207.215L1356.61 205.514L1358.31 205.272H1358.31C1358.67 205.216 1358.98 204.987 1359.14 204.663L1359.91 203.117L1361.4 203.877C1361.74 204.076 1362.16 204.076 1362.5 203.877L1364.04 203.069L1364.81 204.615L1364.8 204.62C1364.96 204.944 1365.27 205.172 1365.63 205.224L1367.33 205.466L1367 207.194C1366.94 207.552 1367.06 207.915 1367.32 208.165L1368.56 209.405L1367.32 210.567Z" fill="white" fill-opacity="0.55"/>
<path d="M1364.01 206.775L1361.18 209.604L1359.89 208.3C1359.46 207.872 1358.77 207.872 1358.34 208.3C1357.91 208.732 1357.91 209.427 1358.34 209.859L1360.39 211.928C1360.6 212.135 1360.88 212.252 1361.18 212.252C1361.47 212.252 1361.75 212.135 1361.96 211.928L1365.57 208.3C1365.99 207.868 1365.99 207.173 1365.57 206.741C1365.12 206.322 1364.43 206.335 1364.01 206.775Z" fill="white" fill-opacity="0.55"/>
<rect x="1306.39" y="155.982" width="64.2451" height="2.71777" fill="white" fill-opacity="0.55"/>
<rect x="1306.39" y="163.314" width="64.2451" height="2.71777" fill="white" fill-opacity="0.55"/>
<rect x="1306.39" y="170.645" width="64.2451" height="2.71777" fill="white" fill-opacity="0.55"/>
<rect x="1306.39" y="177.977" width="64.2451" height="2.71777" fill="white" fill-opacity="0.55"/>
<rect x="1306.39" y="185.309" width="35.8281" height="2.71777" fill="white" fill-opacity="0.55"/>
<rect x="1306.39" y="192.641" width="35.8281" height="2.71777" fill="white" fill-opacity="0.55"/>
<path d="M1306.39 146.512C1306.39 142.734 1309.45 139.672 1313.23 139.672H1313.96C1317.74 139.672 1320.8 142.734 1320.8 146.512C1320.8 146.739 1320.62 146.922 1320.39 146.922H1306.8C1306.57 146.922 1306.39 146.739 1306.39 146.512Z" fill="white" fill-opacity="0.55"/>
<rect x="1309.06" y="129.469" width="8.86872" height="8.86872" rx="4.43436" fill="white" fill-opacity="0.55"/>
<g opacity="0.1">
<g clip-path="url(#clip1_472_5107)">
<g style="mix-blend-mode:multiply">
<path d="M476.312 187.261C801.269 223.154 1010.71 326.058 1256.07 335.729C1380.93 340.649 1513.18 321.998 1607.66 259.835C1627.18 247.011 1656.4 267.812 1636.84 280.707C1553.09 335.801 1442.45 360.996 1330.31 365.318C967.648 379.336 726.517 186.52 149.19 202.998C20.3761 206.676 -117.993 223.823 -217.387 287.227C-237.149 299.836 -266.397 279.036 -246.566 266.355C-237.768 266.355 -84.483 125.313 476.278 187.261H476.312Z" fill="url(#paint1_radial_472_5107)"/>
</g>
<g style="mix-blend-mode:multiply">
<path d="M67.874 180.622C501.058 106.209 840.45 379.957 1281.13 271.012C1397.81 242.164 1513.08 185.231 1589.17 113.349C1644.61 61.0017 1721.8 121.516 1687.09 154.305C1531.23 301.508 1276.73 390.083 1017.21 377.784C707.717 363.097 435.929 228.933 150.806 251.812C47.459 260.098 -71.0446 297.257 -131.602 367.826C-147.137 385.904 -183.052 394.429 -209.207 382.369C-234.571 370.668 -246.153 346.213 -229.553 326.87C-226.632 326.87 -154.286 218.784 67.874 180.622Z" fill="url(#paint2_radial_472_5107)"/>
</g>
<g style="mix-blend-mode:multiply">
<path d="M41.8569 185.804C469.851 97.3726 826.29 359.802 1259.58 236.623C1374.3 204.002 1485.83 143.368 1557.28 69.1213C1609.31 15.0067 1690.29 72.9661 1657.7 106.853C1511.36 258.976 1262.77 355.742 1002.74 351.873C692.63 347.264 412.593 222.08 129.222 254.224C26.494 265.878 -89.5005 306.857 -145.522 379.313C-159.888 397.868 -195.219 407.564 -222.095 396.364C-248.181 385.498 -261.31 361.45 -245.947 341.581C-243.026 341.485 -177.656 231.178 41.8913 185.804H41.8569Z" fill="url(#paint3_radial_472_5107)"/>
</g>
<g style="mix-blend-mode:multiply">
<path d="M466.723 170.568C591.653 199.488 702.596 251 818.59 293.747C1104.02 398.943 1379.9 390.107 1612.34 301.341C1624.06 296.875 1634.47 309.604 1622.75 314.07C1399.11 399.469 1127.94 407.134 895.061 335.993C664.653 265.615 498.273 145.851 173.11 158.628C33.8826 164.097 -102.493 195.357 -219.45 249.758C-230.619 254.94 -240.964 242.188 -229.863 237.029C-222.646 237.029 66.5328 77.9576 466.688 170.568H466.723Z" fill="url(#paint4_radial_472_5107)"/>
</g>
<g style="mix-blend-mode:multiply">
<path d="M439.881 131.33C796.938 187.69 1027.14 349.221 1296.73 364.386C1433.93 372.1 1579.24 342.821 1683.1 245.243C1704.55 225.088 1736.68 257.757 1715.13 277.984C1623.09 364.458 1501.5 404.005 1378.32 410.811C979.78 432.805 714.831 130.136 80.4182 156C-61.1467 161.779 -213.194 188.693 -322.384 288.205C-344.105 307.979 -376.24 275.357 -354.415 255.464C-344.723 255.464 -176.282 34.0628 439.881 131.33Z" fill="url(#paint5_radial_472_5107)"/>
</g>
<g style="mix-blend-mode:multiply">
<path d="M-8.9408 120.918C467.067 4.09214 840.002 433.832 1324.26 262.796C1452.45 217.517 1579.14 128.13 1662.76 15.3162C1723.66 -66.8586 1808.51 28.1404 1770.36 79.6041C1599.07 310.677 1319.45 449.737 1034.25 430.393C694.175 407.348 395.476 196.717 82.1708 232.658C-31.418 245.673 -161.607 304.015 -228.179 414.775C-245.226 443.146 -284.716 456.543 -313.448 437.629C-341.321 419.265 -354.072 380.864 -335.788 350.511C-332.557 350.511 -253.097 180.86 -8.9408 120.942V120.918Z" fill="url(#paint6_radial_472_5107)"/>
</g>
<g style="mix-blend-mode:multiply">
<path d="M-37.5352 129.063C432.801 -9.75797 824.468 402.191 1300.58 208.826C1426.64 157.625 1549.2 62.4584 1627.7 -54.129C1684.89 -139.05 1773.87 -48.0871 1738.06 5.07218C1577.25 243.859 1304.05 395.767 1018.34 389.701C677.576 382.465 369.838 185.971 58.4568 236.408C-54.4103 254.701 -181.884 319.013 -243.473 432.758C-259.248 461.893 -298.085 477.106 -327.642 459.553C-356.306 442.502 -370.74 404.746 -353.865 373.557C-350.635 373.414 -278.804 200.228 -37.5696 129.039L-37.5352 129.063Z" fill="url(#paint7_radial_472_5107)"/>
</g>
<g style="mix-blend-mode:multiply">
<path d="M429.331 105.11C566.634 150.508 688.54 231.37 815.979 298.476C1129.63 463.613 1432.76 449.714 1688.22 310.392C1701.08 303.371 1712.56 323.36 1699.67 330.381C1453.9 464.425 1155.92 476.461 900.045 364.793C646.885 254.319 464.009 66.3275 106.711 86.3637C-46.2645 94.937 -196.147 144.037 -324.652 229.411C-336.921 237.555 -348.297 217.519 -336.096 209.423C-328.157 209.423 -10.4178 -40.2777 429.331 105.11Z" fill="url(#paint8_radial_472_5107)"/>
</g>
</g>
</g>
<g opacity="0.5">
<g opacity="0.3">
<rect x="809.188" y="-14.4102" width="219.445" height="40.3847" fill="url(#paint9_linear_472_5107)" style="mix-blend-mode:screen"/>
</g>
<circle cx="1027.41" cy="5.7822" r="20.1924" transform="rotate(90 1027.41 5.7822)" fill="url(#paint10_linear_472_5107)"/>
</g>
<g filter="url(#filter3_f_472_5107)">
<rect x="133.611" y="-162.051" width="723.481" height="238.986" rx="119.493" transform="rotate(15 133.611 -162.051)" fill="#FF6332" fill-opacity="0.74"/>
</g>
<path d="M34.6504 -25.1328V389.11" stroke="#64B2C4" stroke-opacity="0.18"/>
<path d="M761.998 25.9746L-26.707 25.9746" stroke="#64B2C4" stroke-opacity="0.18"/>
<path d="M761.998 55.0254L-26.707 55.0254" stroke="#64B2C4" stroke-opacity="0.18"/>
<path d="M761.998 84.0762L-26.707 84.0761" stroke="#64B2C4" stroke-opacity="0.18"/>
<path d="M761.998 113.127L-26.707 113.127" stroke="#64B2C4" stroke-opacity="0.18"/>
<path d="M761.998 142.178L-26.707 142.178" stroke="#64B2C4" stroke-opacity="0.18"/>
<path d="M761.998 171.229L-26.707 171.228" stroke="#64B2C4" stroke-opacity="0.18"/>
<path d="M761.998 200.279L-26.707 200.279" stroke="#64B2C4" stroke-opacity="0.18"/>
<path d="M761.998 229.33L-26.707 229.33" stroke="#64B2C4" stroke-opacity="0.18"/>
<path d="M761.998 258.381L-26.707 258.381" stroke="#64B2C4" stroke-opacity="0.18"/>
<path d="M761.998 287.432L-26.707 287.432" stroke="#64B2C4" stroke-opacity="0.18"/>
<path d="M761.998 316.482L-26.707 316.482" stroke="#64B2C4" stroke-opacity="0.18"/>
<path d="M761.998 345.533L-26.707 345.533" stroke="#64B2C4" stroke-opacity="0.18"/>
<path d="M761.998 374.584L-26.707 374.584" stroke="#64B2C4" stroke-opacity="0.18"/>
<path d="M62.625 -25.1328V389.11" stroke="#64B2C4" stroke-opacity="0.18"/>
<path d="M90.5996 -25.1328V389.11" stroke="#64B2C4" stroke-opacity="0.18"/>
<path d="M118.575 -25.1328V389.11" stroke="#64B2C4" stroke-opacity="0.18"/>
<path d="M146.55 -25.1328V389.11" stroke="#64B2C4" stroke-opacity="0.18"/>
<path d="M174.524 -25.1328V389.11" stroke="#64B2C4" stroke-opacity="0.18"/>
<path d="M202.5 -25.1328V389.11" stroke="#64B2C4" stroke-opacity="0.18"/>
<path d="M230.475 -25.1328V389.11" stroke="#64B2C4" stroke-opacity="0.18"/>
<path d="M258.449 -25.1328V389.11" stroke="#64B2C4" stroke-opacity="0.18"/>
<path d="M286.424 -25.1328V389.11" stroke="#64B2C4" stroke-opacity="0.18"/>
<path d="M314.398 -25.1328V389.11" stroke="#64B2C4" stroke-opacity="0.18"/>
<path d="M342.374 -25.1328V389.11" stroke="#64B2C4" stroke-opacity="0.18"/>
<path d="M370.349 -25.1328V389.11" stroke="#64B2C4" stroke-opacity="0.18"/>
<path d="M398.323 -25.1328V389.11" stroke="#64B2C4" stroke-opacity="0.18"/>
<path d="M426.299 -25.1328V389.11" stroke="#64B2C4" stroke-opacity="0.18"/>
<path d="M454.273 -25.1328V389.11" stroke="#64B2C4" stroke-opacity="0.18"/>
<path d="M482.249 -25.1328V389.11" stroke="#64B2C4" stroke-opacity="0.18"/>
<path d="M510.224 -25.1328V389.11" stroke="#64B2C4" stroke-opacity="0.18"/>
<path d="M538.198 -25.1328V389.11" stroke="#64B2C4" stroke-opacity="0.18"/>
<path d="M566.174 -25.1328V389.11" stroke="#64B2C4" stroke-opacity="0.18"/>
<path d="M594.148 -25.1328V389.11" stroke="#64B2C4" stroke-opacity="0.18"/>
<path d="M622.123 -25.1328V389.11" stroke="#64B2C4" stroke-opacity="0.18"/>
<path d="M650.099 -25.1328V389.11" stroke="#64B2C4" stroke-opacity="0.18"/>
<path d="M678.073 -25.1328V389.11" stroke="#64B2C4" stroke-opacity="0.18"/>
<path d="M706.048 -25.1328V389.11" stroke="#64B2C4" stroke-opacity="0.18"/>
<path d="M734.023 -25.1328V389.11" stroke="#64B2C4" stroke-opacity="0.18"/>
<g filter="url(#filter4_f_472_5107)">
<rect x="594.439" y="-242.793" width="525.58" height="580.505" transform="rotate(15 594.439 -242.793)" fill="#0A2963"/>
</g>
<g filter="url(#filter5_f_472_5107)">
<rect x="-159.196" y="-334.418" width="525.58" height="457.31" rx="228.655" transform="rotate(15 -159.196 -334.418)" fill="#16C7FF" fill-opacity="0.56"/>
</g>
<g filter="url(#filter6_bd_472_5107)">
<rect x="-72.9707" y="-58.4219" width="1585.94" height="58.8933" fill="white" fill-opacity="0.87" shape-rendering="crispEdges"/>
</g>
<path d="M-244.864 608.311L-253.176 -51.5391H1619.82V581.995H1021.92H287.324C46.8242 581.995 -144.864 581.995 -244.864 608.311Z" fill="url(#paint11_linear_472_5107)"/>
<g opacity="0.2">
<rect x="711.93" y="37.1035" width="202.1" height="5.14331" rx="2.57166" fill="url(#paint12_linear_472_5107)" style="mix-blend-mode:screen"/>
</g>
<g opacity="0.15">
<rect x="89.498" y="355.225" width="461.857" height="5.14331" rx="2.57166" fill="url(#paint13_linear_472_5107)" style="mix-blend-mode:screen"/>
</g>
<g opacity="0.15">
<rect x="866.867" y="74.8613" width="461.857" height="5.14331" rx="2.57166" fill="url(#paint14_linear_472_5107)" style="mix-blend-mode:screen"/>
</g>
<path d="M330.252 336.396C331.093 333.445 333.411 331.145 336.368 330.328L337.287 330.074L336.369 329.82H336.368C333.411 329.003 331.092 326.702 330.252 323.751L329.989 322.834L329.726 323.751C328.886 326.702 326.567 329.003 323.61 329.82L322.691 330.074L323.609 330.328H323.61C326.567 331.145 328.886 333.445 329.726 336.396L329.989 337.313L330.252 336.396Z" fill="#9AC1FF" fill-opacity="0.32"/>
<path d="M851.161 83.5605C851.634 81.901 852.937 80.6074 854.601 80.1478L855.117 80.005L854.601 79.8623H854.601C852.937 79.4026 851.634 78.1089 851.161 76.4496L851.013 75.9336L850.865 76.4496C850.393 78.109 849.089 79.4027 847.426 79.8623L846.909 80.005L847.425 80.1478H847.426C849.089 80.6074 850.393 81.9012 850.865 83.5605L851.013 84.0765L851.161 83.5605Z" fill="#A3C5FA"/>
<g opacity="0.5">
<g opacity="0.5">
<rect x="-65.4805" y="434.502" width="298.374" height="54.9101" fill="url(#paint15_linear_472_5107)" style="mix-blend-mode:screen"/>
</g>
<circle cx="231.232" cy="461.957" r="27.455" transform="rotate(90 231.232 461.957)" fill="url(#paint16_linear_472_5107)"/>
</g>
<path d="M246.408 456.95C246.484 457.452 246.126 457.092 246.126 457.092C244.668 455.253 246.38 452.179 246.38 452.179C246.6 451.826 246.821 451.507 247.048 451.215C243.581 446.248 237.782 442.99 231.2 442.99C221.074 442.99 212.786 450.72 212.036 460.52C215.867 458.687 220.043 463.221 220.043 463.221L221.687 464.829C226.632 469.702 228.056 469.661 228.771 468.541C228.771 468.541 229.762 467.123 228.111 464.245C226.109 460.771 228.304 458.199 228.304 458.199C234.13 450.387 243.457 460.323 243.457 460.323C246.752 463.567 248.843 464.781 250.164 465.128C250.335 464.096 250.432 463.044 250.432 461.965C250.432 459.678 250.019 457.486 249.269 455.457C246.717 454.595 246.36 456.631 246.408 456.957V456.95Z" fill="white" fill-opacity="0.46"/>
<path d="M237.548 466.159C233.668 462.339 231.392 461.253 230.071 461.246C229.927 461.26 228.826 461.382 229.039 462.488C229.232 463.452 232.747 467.985 228.688 472.003C223 476.733 216.892 469.559 216.892 469.559C215 467.822 212.717 465.169 212.428 466.044C214.326 474.554 222.009 480.927 231.199 480.927C238.27 480.927 244.447 477.16 247.79 471.548C242.886 471.84 237.548 466.159 237.548 466.159Z" fill="white"/>
<g opacity="0.5">
<g opacity="0.5">
<g opacity="0.3">
<rect x="551.355" y="23.3184" width="149.817" height="27.5709" fill="url(#paint17_linear_472_5107)" style="mix-blend-mode:screen"/>
</g>
<circle cx="700.339" cy="37.1038" r="13.7855" transform="rotate(90 700.339 37.1038)" fill="url(#paint18_linear_472_5107)"/>
</g>
<path d="M707.959 34.5894C707.997 34.8415 707.817 34.6609 707.817 34.6609C707.085 33.7375 707.945 32.1939 707.945 32.1939C708.055 32.0167 708.166 31.8565 708.28 31.71C706.539 29.2157 703.628 27.5801 700.322 27.5801C695.238 27.5801 691.077 31.4612 690.7 36.3817C692.624 35.4617 694.72 37.7379 694.72 37.7379L695.546 38.5455C698.029 40.9921 698.744 40.9717 699.103 40.4094C699.103 40.4094 699.601 39.6972 698.772 38.2524C697.767 36.5078 698.868 35.2163 698.868 35.2163C701.794 31.2943 706.477 36.2829 706.477 36.2829C708.131 37.9117 709.181 38.5216 709.844 38.6954C709.931 38.1775 709.979 37.6493 709.979 37.1075C709.979 35.9592 709.772 34.8586 709.395 33.8397C708.114 33.4069 707.934 34.4292 707.959 34.5928V34.5894Z" fill="white" fill-opacity="0.46"/>
<path d="M703.51 39.2131C701.562 37.2947 700.418 36.7495 699.755 36.7461C699.683 36.7529 699.13 36.8142 699.237 37.3697C699.334 37.8535 701.099 40.1298 699.061 42.147C696.205 44.5221 693.138 40.9203 693.138 40.9203C692.188 40.048 691.042 38.7156 690.896 39.1552C691.85 43.4283 695.708 46.6279 700.322 46.6279C703.872 46.6279 706.974 44.7367 708.652 41.9187C706.19 42.0652 703.51 39.2131 703.51 39.2131Z" fill="white"/>
</g>
<g opacity="0.5">
<g opacity="0.3">
<rect x="1103.8" y="361.684" width="219.445" height="40.3847" fill="url(#paint19_linear_472_5107)" style="mix-blend-mode:screen"/>
</g>
<circle cx="1322.02" cy="381.876" r="20.1924" transform="rotate(90 1322.02 381.876)" fill="url(#paint20_linear_472_5107)"/>
</g>
<path d="M1333.18 378.193C1333.24 378.562 1332.98 378.297 1332.98 378.297C1331.9 376.945 1333.16 374.684 1333.16 374.684C1333.32 374.424 1333.49 374.19 1333.65 373.975C1331.1 370.322 1326.84 367.926 1322 367.926C1314.55 367.926 1308.45 373.611 1307.9 380.818C1310.72 379.47 1313.79 382.805 1313.79 382.805L1315 383.987C1318.64 387.571 1319.69 387.541 1320.21 386.718C1320.21 386.718 1320.94 385.674 1319.73 383.558C1318.25 381.003 1319.87 379.111 1319.87 379.111C1324.15 373.366 1331.01 380.673 1331.01 380.673C1333.44 383.059 1334.97 383.953 1335.94 384.207C1336.07 383.448 1336.14 382.675 1336.14 381.881C1336.14 380.199 1335.84 378.587 1335.29 377.095C1333.41 376.461 1333.15 377.958 1333.18 378.198V378.193Z" fill="white" fill-opacity="0.65"/>
<path d="M1326.67 384.965C1323.81 382.155 1322.14 381.357 1321.17 381.352C1321.06 381.362 1320.25 381.451 1320.41 382.265C1320.55 382.974 1323.14 386.308 1320.15 389.263C1315.97 392.741 1311.47 387.466 1311.47 387.466C1310.08 386.188 1308.4 384.236 1308.19 384.88C1309.59 391.139 1315.24 395.826 1322 395.826C1327.2 395.826 1331.74 393.056 1334.2 388.928C1330.59 389.143 1326.67 384.965 1326.67 384.965Z" fill="white"/>
<path d="M1483.14 370.27C1483.33 370.074 1483.33 369.758 1483.14 369.562L1479.96 366.38C1479.76 366.185 1479.44 366.185 1479.25 366.38C1479.05 366.576 1479.05 366.892 1479.25 367.088L1482.08 369.916L1479.25 372.744C1479.05 372.94 1479.05 373.256 1479.25 373.452C1479.44 373.647 1479.76 373.647 1479.96 373.452L1483.14 370.27ZM1386.87 440.053H1384.65V441.053H1386.87V440.053ZM1380.22 440.053H1375.79V441.053H1380.22V440.053ZM1371.36 440.053H1369.14V441.053H1371.36V440.053ZM1369.14 440.053C1368.64 440.053 1368.15 440.004 1367.68 439.911L1367.49 440.892C1368.02 440.998 1368.58 441.053 1369.14 441.053V440.053ZM1364.98 438.79C1364.16 438.243 1363.46 437.538 1362.91 436.72L1362.08 437.276C1362.7 438.203 1363.49 439.001 1364.42 439.621L1364.98 438.79ZM1361.79 434.018C1361.69 433.544 1361.64 433.055 1361.64 432.553H1360.64C1360.64 433.12 1360.7 433.675 1360.81 434.212L1361.79 434.018ZM1361.64 432.553V430.602H1360.64V432.553H1361.64ZM1361.64 426.699V422.797H1360.64V426.699H1361.64ZM1361.64 418.894V414.991H1360.64V418.894H1361.64ZM1361.64 411.089V407.186H1360.64V411.089H1361.64ZM1361.64 403.283V399.381H1360.64V403.283H1361.64ZM1361.64 395.478V391.575H1360.64V395.478H1361.64ZM1361.64 387.673V383.77H1360.64V387.673H1361.64ZM1361.64 379.867V377.916H1360.64V379.867H1361.64ZM1361.64 377.916C1361.64 377.414 1361.69 376.925 1361.79 376.452L1360.81 376.258C1360.7 376.794 1360.64 377.349 1360.64 377.916H1361.64ZM1362.91 373.749C1363.46 372.931 1364.16 372.227 1364.98 371.679L1364.42 370.848C1363.49 371.468 1362.7 372.266 1362.08 373.193L1362.91 373.749ZM1367.68 370.559C1368.15 370.465 1368.64 370.416 1369.14 370.416V369.416C1368.58 369.416 1368.02 369.472 1367.49 369.578L1367.68 370.559ZM1369.14 370.416H1371.17V369.416H1369.14V370.416ZM1375.23 370.416H1379.29V369.416H1375.23V370.416ZM1383.35 370.416H1387.41V369.416H1383.35V370.416ZM1391.47 370.416H1395.53V369.416H1391.47V370.416ZM1399.58 370.416H1403.64V369.416H1399.58V370.416ZM1407.7 370.416H1411.76V369.416H1407.7V370.416ZM1415.82 370.416H1419.88V369.416H1415.82V370.416ZM1423.94 370.416H1427.99V369.416H1423.94V370.416ZM1432.05 370.416H1436.11V369.416H1432.05V370.416ZM1440.17 370.416H1444.23V369.416H1440.17V370.416ZM1448.29 370.416H1452.34V369.416H1448.29V370.416ZM1456.4 370.416H1460.46V369.416H1456.4V370.416ZM1464.52 370.416H1468.58V369.416H1464.52V370.416ZM1472.64 370.416H1476.7V369.416H1472.64V370.416ZM1480.75 370.416H1482.78V369.416H1480.75V370.416Z" fill="white" fill-opacity="0.3"/>
<path d="M1120.15 255.639C1121.46 251.031 1125.08 247.438 1129.7 246.161L1131.13 245.765L1129.7 245.368H1129.7C1125.08 244.092 1121.46 240.498 1120.15 235.89L1119.74 234.457L1119.32 235.89C1118.01 240.499 1114.39 244.092 1109.77 245.368L1108.34 245.765L1109.77 246.161H1109.77C1114.39 247.438 1118.01 251.031 1119.32 255.639L1119.74 257.072L1120.15 255.639Z" fill="#5CF8D2" fill-opacity="0.69"/>
<path d="M1157.27 261.152C1157.67 259.744 1158.77 258.646 1160.18 258.257L1160.62 258.135L1160.18 258.014H1160.18C1158.77 257.624 1157.67 256.527 1157.27 255.119L1157.14 254.682L1157.02 255.119C1156.61 256.527 1155.51 257.624 1154.1 258.014L1153.66 258.135L1154.1 258.257H1154.1C1155.51 258.646 1156.61 259.744 1157.02 261.152L1157.14 261.589L1157.27 261.152Z" fill="#75E6FF" fill-opacity="0.67"/>
<g filter="url(#filter7_b_472_5107)">
<circle cx="1140.8" cy="304.681" r="37.001" fill="url(#paint21_linear_472_5107)"/>
</g>
<path d="M1151.89 294.078C1152 292.958 1152 291.95 1152 290.717H1129.6C1129.6 291.95 1129.6 292.958 1129.71 294.078H1122.87V295.198C1122.87 305.17 1135.54 312.229 1138.56 313.796L1138.56 317.607C1138.56 319.513 1137.1 320.969 1135.2 320.969H1132.96V325.45H1148.64V320.969H1146.4C1144.5 320.969 1143.04 319.513 1143.04 317.607V313.798C1146.06 312.229 1158.73 305.17 1158.73 295.2V294.08L1151.89 294.078ZM1125.23 296.32H1129.93C1130.38 301.362 1131.61 304.948 1132.96 307.523C1129.37 304.723 1125.67 300.801 1125.23 296.32ZM1148.76 307.523C1150.1 304.946 1151.33 301.362 1151.78 296.32H1156.49C1155.93 300.801 1152.23 304.723 1148.76 307.523Z" fill="white" fill-opacity="0.66"/>
<path d="M1264.46 123.637C1264.68 122.872 1265.28 122.276 1266.05 122.064L1266.29 121.999L1266.05 121.933H1266.05C1265.28 121.721 1264.68 121.125 1264.46 120.361L1264.39 120.123L1264.33 120.361C1264.11 121.125 1263.51 121.721 1262.74 121.933L1262.5 121.999L1262.74 122.064H1262.74C1263.51 122.276 1264.11 122.872 1264.33 123.637L1264.39 123.874L1264.46 123.637Z" fill="#FFF2AE" fill-opacity="0.84"/>
<g filter="url(#filter8_b_472_5107)">
<circle cx="1253.79" cy="148.051" r="17.9783" fill="url(#paint22_linear_472_5107)"/>
</g>
<g filter="url(#filter9_b_472_5107)">
<circle cx="1253.79" cy="148.051" r="22.7585" stroke="url(#paint23_linear_472_5107)"/>
</g>
<path d="M1259.18 142.899C1259.24 142.355 1259.24 141.865 1259.24 141.266H1248.35C1248.35 141.865 1248.35 142.355 1248.4 142.899H1245.08V143.443C1245.08 148.288 1251.24 151.718 1252.71 152.48L1252.7 154.331C1252.7 155.257 1252 155.965 1251.07 155.965H1249.98V158.142H1257.6V155.965H1256.52C1255.59 155.965 1254.88 155.257 1254.88 154.331V152.481C1256.35 151.718 1262.5 148.288 1262.5 143.444V142.9L1259.18 142.899ZM1246.23 143.988H1248.51C1248.73 146.438 1249.33 148.18 1249.98 149.432C1248.24 148.071 1246.44 146.165 1246.23 143.988ZM1257.66 149.432C1258.31 148.179 1258.91 146.438 1259.13 143.988H1261.42C1261.14 146.165 1259.35 148.071 1257.66 149.432Z" fill="white" fill-opacity="0.69"/>
<path d="M52.8562 105.92C53.0739 105.155 53.6745 104.559 54.4407 104.348L54.6787 104.282L54.441 104.216H54.4407C53.6745 104.004 53.0739 103.408 52.8561 102.644L52.7881 102.406L52.72 102.644C52.5022 103.408 51.9016 104.004 51.1354 104.216L50.8975 104.282L51.1352 104.348H51.1354C51.9016 104.559 52.5022 105.155 52.72 105.92L52.7881 106.157L52.8562 105.92Z" fill="#FFF2AE" fill-opacity="0.84"/>
<g filter="url(#filter10_b_472_5107)">
<circle cx="42.1873" cy="130.334" r="17.9783" fill="url(#paint24_linear_472_5107)"/>
</g>
<g filter="url(#filter11_b_472_5107)">
<circle cx="42.1872" cy="130.335" r="22.7585" stroke="url(#paint25_linear_472_5107)"/>
</g>
<path d="M47.5773 125.182C47.6314 124.638 47.6314 124.148 47.6314 123.549H36.744C36.744 124.148 36.744 124.638 36.7981 125.182H33.4775V125.726C33.4775 130.572 39.6297 134.001 41.0996 134.763L41.0985 136.615C41.0985 137.54 40.3912 138.248 39.4653 138.248H38.3762V140.425H45.9982V138.248H44.909C43.9832 138.248 43.2758 137.54 43.2758 136.615V134.764C44.7457 134.001 50.8978 130.572 50.8978 125.727V125.183L47.5773 125.182ZM34.6208 126.271H36.9073C37.1247 128.721 37.7239 130.463 38.3772 131.715C36.6347 130.354 34.8382 128.448 34.6208 126.271ZM46.0533 131.715C46.7066 130.462 47.3058 128.721 47.5232 126.271H49.8097C49.5371 128.448 47.7406 130.354 46.0533 131.715Z" fill="white" fill-opacity="0.69"/>
<g filter="url(#filter12_bd_472_5107)">
<rect x="1199.93" y="205.684" width="115.194" height="144.095" rx="7" fill="url(#paint26_linear_472_5107)" shape-rendering="crispEdges"/>
<rect x="1200.18" y="205.934" width="114.694" height="143.595" rx="6.75" stroke="url(#paint27_linear_472_5107)" stroke-width="0.5" shape-rendering="crispEdges"/>
</g>
<g filter="url(#filter13_b_472_5107)">
<rect x="1205.71" y="211.125" width="103.639" height="133.213" rx="2" fill="url(#paint28_linear_472_5107)"/>
</g>
<rect x="1227.75" y="229.09" width="68.1325" height="3.84874" rx="1.92437" fill="#133F84" fill-opacity="0.49"/>
<rect x="1219.3" y="229.09" width="3.89177" height="3.84874" rx="1.92437" fill="#133F84" fill-opacity="0.49"/>
<rect x="1227.75" y="241.666" width="68.1325" height="3.84874" rx="1.92437" fill="#133F84" fill-opacity="0.49"/>
<rect x="1219.3" y="241.666" width="3.89177" height="3.84874" rx="1.92437" fill="#133F84" fill-opacity="0.49"/>
<rect x="1227.75" y="254.242" width="68.1325" height="3.84874" rx="1.92437" fill="#133F84" fill-opacity="0.49"/>
<rect x="1219.3" y="254.242" width="3.89177" height="3.84874" rx="1.92437" fill="#133F84" fill-opacity="0.49"/>
<rect x="1227.75" y="266.816" width="68.1325" height="3.84874" rx="1.92437" fill="#133F84" fill-opacity="0.49"/>
<rect x="1219.3" y="266.816" width="3.89177" height="3.84874" rx="1.92437" fill="#133F84" fill-opacity="0.49"/>
<rect x="1227.75" y="279.393" width="68.1325" height="3.84874" rx="1.92437" fill="#133F84" fill-opacity="0.49"/>
<rect x="1219.3" y="279.393" width="3.89177" height="3.84874" rx="1.92437" fill="#133F84" fill-opacity="0.49"/>
<rect x="1227.75" y="291.969" width="68.1325" height="3.84874" rx="1.92437" fill="#133F84" fill-opacity="0.49"/>
<rect x="1219.3" y="291.969" width="3.89177" height="3.84874" rx="1.92437" fill="#133F84" fill-opacity="0.49"/>
<circle cx="1355.76" cy="160.807" r="10.0672" fill="#D9A98D"/>
<path d="M1361.63 159.401C1361.53 159.106 1361.26 158.915 1360.94 158.915H1357.82L1356.44 155.367C1356.33 155.084 1356.07 154.906 1355.76 154.906C1355.46 154.906 1355.2 155.082 1355.09 155.367L1353.71 158.915H1350.58C1350.27 158.915 1350 159.106 1349.9 159.401C1349.8 159.696 1349.89 160.01 1350.13 160.203L1352.87 162.381L1351.66 165.739C1351.55 166.036 1351.64 166.356 1351.89 166.551C1352.14 166.746 1352.48 166.76 1352.74 166.585L1355.77 164.575L1358.79 166.585C1358.92 166.668 1359.05 166.707 1359.19 166.707C1359.35 166.707 1359.5 166.653 1359.64 166.551C1359.88 166.356 1359.98 166.036 1359.87 165.739L1358.65 162.381L1361.4 160.203C1361.64 160.01 1361.73 159.693 1361.63 159.401Z" fill="#1C57A7"/>
<rect x="1350.49" y="149.457" width="10.5504" height="1.28242" fill="#1C57A7"/>
<path fill-rule="evenodd" clip-rule="evenodd" d="M1333.59 117.578L1351.52 148.638H1360.01L1377.94 117.578H1370.62L1355.76 143.303L1340.91 117.578H1333.59Z" fill="#1C57A7"/>
<path d="M1355.12 231.125C1354.92 230.93 1354.6 230.93 1354.41 231.125L1351.23 234.307C1351.03 234.502 1351.03 234.819 1351.23 235.014C1351.42 235.209 1351.74 235.209 1351.93 235.014L1354.76 232.186L1357.59 235.014C1357.79 235.209 1358.1 235.209 1358.3 235.014C1358.49 234.819 1358.49 234.502 1358.3 234.307L1355.12 231.125ZM1315.12 310.416H1346.76V309.416H1315.12V310.416ZM1355.26 301.916V231.479H1354.26V301.916H1355.26ZM1346.76 310.416C1351.46 310.416 1355.26 306.61 1355.26 301.916H1354.26C1354.26 306.058 1350.9 309.416 1346.76 309.416V310.416Z" fill="white" fill-opacity="0.3"/>
<path d="M1227.58 147.275C1227.78 147.08 1227.78 146.764 1227.58 146.568L1224.4 143.386C1224.2 143.191 1223.89 143.191 1223.69 143.386C1223.5 143.582 1223.5 143.898 1223.69 144.093L1226.52 146.922L1223.69 149.75C1223.5 149.946 1223.5 150.262 1223.69 150.457C1223.89 150.653 1224.2 150.653 1224.4 150.457L1227.58 147.275ZM1199.35 233.959H1197.54V234.959H1199.35V233.959ZM1193.92 233.959H1190.3V234.959H1193.92V233.959ZM1186.69 233.959H1183.07V234.959H1186.69V233.959ZM1179.46 233.959H1175.84V234.959H1179.46V233.959ZM1172.22 233.959H1170.41V234.959H1172.22V233.959ZM1170.41 233.959C1169.91 233.959 1169.42 233.909 1168.95 233.816L1168.76 234.797C1169.29 234.903 1169.85 234.959 1170.41 234.959V233.959ZM1166.25 232.696C1165.43 232.148 1164.72 231.443 1164.18 230.625L1163.35 231.182C1163.97 232.108 1164.76 232.906 1165.69 233.527L1166.25 232.696ZM1163.06 227.923C1162.96 227.45 1162.91 226.96 1162.91 226.459H1161.91C1161.91 227.026 1161.97 227.58 1162.08 228.117L1163.06 227.923ZM1162.91 226.459V224.471H1161.91V226.459H1162.91ZM1162.91 220.497V216.523H1161.91V220.497H1162.91ZM1162.91 212.549V208.574H1161.91V212.549H1162.91ZM1162.91 204.6V200.626H1161.91V204.6H1162.91ZM1162.91 196.652V192.677H1161.91V196.652H1162.91ZM1162.91 188.703V184.729H1161.91V188.703H1162.91ZM1162.91 180.755V176.78H1161.91V180.755H1162.91ZM1162.91 172.806V168.832H1161.91V172.806H1162.91ZM1162.91 164.858V160.883H1161.91V164.858H1162.91ZM1162.91 156.909V154.922H1161.91V156.909H1162.91ZM1162.91 154.922C1162.91 154.42 1162.96 153.931 1163.06 153.458L1162.08 153.264C1161.97 153.8 1161.91 154.355 1161.91 154.922H1162.91ZM1164.18 150.755C1164.72 149.937 1165.43 149.233 1166.25 148.685L1165.69 147.854C1164.76 148.474 1163.97 149.272 1163.35 150.199L1164.18 150.755ZM1168.95 147.565C1169.42 147.471 1169.91 147.422 1170.41 147.422V146.422C1169.85 146.422 1169.29 146.477 1168.76 146.584L1168.95 147.565ZM1170.41 147.422H1172.44V146.422H1170.41V147.422ZM1176.5 147.422H1180.56V146.422H1176.5V147.422ZM1184.62 147.422H1188.68V146.422H1184.62V147.422ZM1192.73 147.422H1196.79V146.422H1192.73V147.422ZM1200.85 147.422H1204.91V146.422H1200.85V147.422ZM1208.97 147.422H1213.02V146.422H1208.97V147.422ZM1217.08 147.422H1221.14V146.422H1217.08V147.422ZM1225.2 147.422H1227.23V146.422H1225.2V147.422Z" fill="white" fill-opacity="0.3"/>
<g clip-path="url(#clip2_472_5107)">
<rect x="1194.31" y="204.074" width="202.352" height="23.5566" transform="rotate(45 1194.31 204.074)" fill="white" fill-opacity="0.12"/>
<rect x="1189" y="239.965" width="202.352" height="5.95827" transform="rotate(45 1189 239.965)" fill="white" fill-opacity="0.12"/>
</g>
<g clip-path="url(#clip3_472_5107)">
<path fill-rule="evenodd" clip-rule="evenodd" d="M1284.21 305.515C1284.63 305.096 1285.31 305.096 1285.73 305.515L1291.54 311.323C1291.96 311.743 1291.96 312.429 1291.54 312.848C1291.12 313.267 1290.43 313.267 1290.01 312.848L1284.21 307.04C1283.79 306.621 1283.79 305.934 1284.21 305.515Z" fill="#0F3A8A"/>
<path fill-rule="evenodd" clip-rule="evenodd" d="M1279.48 316.93C1279.48 316.338 1279.96 315.852 1280.56 315.852H1288.77C1289.36 315.852 1289.85 316.338 1289.85 316.93C1289.85 317.523 1289.36 318.009 1288.77 318.009H1280.56C1279.96 318.009 1279.48 317.523 1279.48 316.93Z" fill="#0F3A8A"/>
<path fill-rule="evenodd" clip-rule="evenodd" d="M1284.21 328.344C1283.79 327.925 1283.79 327.238 1284.21 326.819L1290.01 321.011C1290.43 320.593 1291.12 320.593 1291.54 321.011C1291.96 321.43 1291.96 322.116 1291.54 322.536L1285.73 328.344C1285.31 328.763 1284.63 328.763 1284.21 328.344Z" fill="#0F3A8A"/>
<path fill-rule="evenodd" clip-rule="evenodd" d="M1307.03 305.515C1307.45 305.934 1307.45 306.621 1307.03 307.04L1301.23 312.848C1300.81 313.267 1300.12 313.267 1299.7 312.848C1299.28 312.429 1299.28 311.743 1299.7 311.323L1305.51 305.515C1305.93 305.096 1306.62 305.096 1307.03 305.515Z" fill="#0F3A8A"/>
<path fill-rule="evenodd" clip-rule="evenodd" d="M1295.62 300.787C1296.21 300.787 1296.7 301.273 1296.7 301.866V310.079C1296.7 310.671 1296.21 311.157 1295.62 311.157C1295.03 311.157 1294.54 310.671 1294.54 310.079V301.866C1294.54 301.273 1295.03 300.787 1295.62 300.787Z" fill="#0F3A8A"/>
<path fill-rule="evenodd" clip-rule="evenodd" d="M1294.86 315.378L1316.72 324.961C1317.16 325.153 1317.21 325.753 1316.8 326.013L1312.37 328.891L1318.3 334.83C1318.54 335.063 1318.54 335.444 1318.3 335.678L1314.37 339.612C1314.14 339.845 1313.76 339.845 1313.52 339.612L1307.58 333.673L1304.7 338.114C1304.44 338.516 1303.84 338.468 1303.65 338.029L1294.07 316.169C1293.85 315.672 1294.36 315.162 1294.86 315.38L1294.86 315.378Z" fill="#0F3A8A"/>
</g>
<g filter="url(#filter14_bd_472_5107)">
<rect x="-18.5898" y="197.957" width="115.194" height="144.095" rx="7" fill="url(#paint29_linear_472_5107)" shape-rendering="crispEdges"/>
<rect x="-18.3398" y="198.207" width="114.694" height="143.595" rx="6.75" stroke="url(#paint30_linear_472_5107)" stroke-width="0.5" shape-rendering="crispEdges"/>
</g>
<g filter="url(#filter15_b_472_5107)">
<rect x="-12.8125" y="203.398" width="103.639" height="133.213" rx="2" fill="url(#paint31_linear_472_5107)"/>
</g>
<rect x="8.1582" y="275.324" width="68.1325" height="3.84874" rx="1.92437" fill="#133F84" fill-opacity="0.49"/>
<rect x="-0.287109" y="275.324" width="3.89177" height="3.84874" rx="1.92437" fill="#133F84" fill-opacity="0.49"/>
<rect x="8.1582" y="287.9" width="68.1325" height="3.84874" rx="1.92437" fill="#133F84" fill-opacity="0.49"/>
<rect x="-0.287109" y="287.9" width="3.89177" height="3.84874" rx="1.92437" fill="#133F84" fill-opacity="0.49"/>
<rect x="8.1582" y="300.477" width="68.1325" height="3.84874" rx="1.92437" fill="#133F84" fill-opacity="0.49"/>
<rect x="-0.287109" y="300.477" width="3.89177" height="3.84874" rx="1.92437" fill="#133F84" fill-opacity="0.49"/>
<g clip-path="url(#clip4_472_5107)">
<rect x="-23.8877" y="196.348" width="202.352" height="23.5566" transform="rotate(45 -23.8877 196.348)" fill="white" fill-opacity="0.12"/>
<rect x="-29.2041" y="232.238" width="202.352" height="5.95827" transform="rotate(45 -29.2041 232.238)" fill="white" fill-opacity="0.12"/>
</g>
<rect x="-0.287109" y="226.756" width="20.0547" height="26.7983" rx="2" fill="#6487C0"/>
<rect x="28.9785" y="226.756" width="20.0547" height="26.7983" rx="2" fill="#6487C0"/>
<rect x="58.248" y="226.756" width="20.0547" height="26.7983" rx="2" fill="#6487C0"/>
<path d="M137.893 253.802L140.78 248.802H135.006L137.893 253.802ZM38.25 198.083V190.271H37.25V198.083H38.25ZM45.75 182.771H129.893V181.771H45.75V182.771ZM137.393 190.271V249.302H138.393V190.271H137.393ZM129.893 182.771C134.035 182.771 137.393 186.129 137.393 190.271H138.393C138.393 185.577 134.587 181.771 129.893 181.771V182.771ZM38.25 190.271C38.25 186.129 41.6079 182.771 45.75 182.771V181.771C41.0556 181.771 37.25 185.577 37.25 190.271H38.25Z" fill="white" fill-opacity="0.3"/>
<rect x="110.131" y="255.754" width="55.5229" height="104.105" rx="7" fill="#6895E0" fill-opacity="0.74"/>
<g filter="url(#filter16_b_472_5107)">
<rect x="113.596" y="259.379" width="48.5935" height="96.8555" rx="2" fill="url(#paint32_linear_472_5107)"/>
</g>
<path d="M122.92 303.838C120.729 303.838 118.951 305.616 118.951 307.807C118.951 309.998 120.729 311.775 122.92 311.775C125.111 311.775 126.889 309.998 126.889 307.807C126.889 305.616 125.111 303.838 122.92 303.838ZM124.962 306.847L122.631 309.187C122.556 309.262 122.449 309.311 122.341 309.311C122.234 309.311 122.126 309.27 122.052 309.187L120.878 308.013C120.712 307.848 120.712 307.592 120.878 307.426C121.043 307.261 121.3 307.261 121.465 307.426L122.342 308.303L124.384 306.261C124.549 306.095 124.806 306.095 124.971 306.261C125.128 306.426 125.128 306.682 124.962 306.847L124.962 306.847Z" fill="#5A7FBC"/>
<path d="M122.92 317.328C120.729 317.328 118.951 319.106 118.951 321.297C118.951 323.488 120.729 325.266 122.92 325.266C125.111 325.266 126.889 323.488 126.889 321.297C126.889 319.106 125.111 317.328 122.92 317.328ZM124.962 320.338L122.631 322.678C122.556 322.752 122.449 322.802 122.341 322.802C122.234 322.802 122.126 322.76 122.052 322.678L120.878 321.504C120.712 321.338 120.712 321.082 120.878 320.916C121.043 320.751 121.3 320.751 121.465 320.916L122.342 321.793L124.384 319.751C124.549 319.585 124.806 319.585 124.971 319.751C125.128 319.916 125.128 320.172 124.962 320.338L124.962 320.338Z" fill="#5A7FBC"/>
<path d="M122.92 330.818C120.729 330.818 118.951 332.596 118.951 334.787C118.951 336.978 120.729 338.756 122.92 338.756C125.111 338.756 126.889 336.978 126.889 334.787C126.889 332.596 125.111 330.818 122.92 330.818ZM124.962 333.828L122.631 336.168C122.556 336.242 122.449 336.292 122.341 336.292C122.234 336.292 122.126 336.251 122.052 336.168L120.878 334.994C120.712 334.828 120.712 334.572 120.878 334.407C121.043 334.241 121.3 334.241 121.465 334.407L122.342 335.283L124.384 333.241C124.549 333.076 124.806 333.076 124.971 333.241C125.128 333.406 125.128 333.663 124.962 333.828L124.962 333.828Z" fill="#5A7FBC"/>
<rect x="118.951" y="270.369" width="16.4423" height="23.9017" rx="2" fill="#4D7BC7" fill-opacity="0.69"/>
<rect x="140.393" y="270.369" width="16.4423" height="23.9017" rx="2" fill="#4D7BC7" fill-opacity="0.69"/>
<rect x="131.588" y="306.418" width="25.2461" height="2.77648" rx="1.38824" fill="#133F84" fill-opacity="0.35"/>
<rect x="131.588" y="319.908" width="25.2461" height="2.77648" rx="1.38824" fill="#133F84" fill-opacity="0.35"/>
<rect x="131.588" y="333.398" width="25.2461" height="2.77648" rx="1.38824" fill="#133F84" fill-opacity="0.35"/>
<g opacity="0.75" clip-path="url(#clip5_472_5107)">
<rect x="74.9756" y="222.373" width="202.352" height="23.5566" transform="rotate(45 74.9756 222.373)" fill="white" fill-opacity="0.12"/>
<rect x="69.6592" y="258.262" width="202.352" height="5.95827" transform="rotate(45 69.6592 258.262)" fill="white" fill-opacity="0.12"/>
</g>
</g>
<defs>
<filter id="filter0_f_472_5107" x="-106.757" y="-41.1641" width="1653.94" height="549.695" filterUnits="userSpaceOnUse" color-interpolation-filters="sRGB">
<feFlood flood-opacity="0" result="BackgroundImageFix"/>
<feBlend mode="normal" in="SourceGraphic" in2="BackgroundImageFix" result="shape"/>
<feGaussianBlur stdDeviation="17" result="effect1_foregroundBlur_472_5107"/>
</filter>
<filter id="filter1_f_472_5107" x="896.616" y="-462.713" width="991.367" height="943.094" filterUnits="userSpaceOnUse" color-interpolation-filters="sRGB">
<feFlood flood-opacity="0" result="BackgroundImageFix"/>
<feBlend mode="normal" in="SourceGraphic" in2="BackgroundImageFix" result="shape"/>
<feGaussianBlur stdDeviation="117" result="effect1_foregroundBlur_472_5107"/>
</filter>
<filter id="filter2_b_472_5107" x="1264.98" y="83.5781" width="150.891" height="178.928" filterUnits="userSpaceOnUse" color-interpolation-filters="sRGB">
<feFlood flood-opacity="0" result="BackgroundImageFix"/>
<feGaussianBlur in="BackgroundImageFix" stdDeviation="17"/>
<feComposite in2="SourceAlpha" operator="in" result="effect1_backgroundBlur_472_5107"/>
<feBlend mode="normal" in="SourceGraphic" in2="effect1_backgroundBlur_472_5107" result="shape"/>
</filter>
<filter id="filter3_f_472_5107" x="-135.417" y="-369.225" width="1175.03" height="832.441" filterUnits="userSpaceOnUse" color-interpolation-filters="sRGB">
<feFlood flood-opacity="0" result="BackgroundImageFix"/>
<feBlend mode="normal" in="SourceGraphic" in2="BackgroundImageFix" result="shape"/>
<feGaussianBlur stdDeviation="117" result="effect1_foregroundBlur_472_5107"/>
</filter>
<filter id="filter4_f_472_5107" x="210.193" y="-476.793" width="1125.92" height="1164.75" filterUnits="userSpaceOnUse" color-interpolation-filters="sRGB">
<feFlood flood-opacity="0" result="BackgroundImageFix"/>
<feBlend mode="normal" in="SourceGraphic" in2="BackgroundImageFix" result="shape"/>
<feGaussianBlur stdDeviation="117" result="effect1_foregroundBlur_472_5107"/>
</filter>
<filter id="filter5_f_472_5107" x="-543.225" y="-600.086" width="1157.37" height="1109.09" filterUnits="userSpaceOnUse" color-interpolation-filters="sRGB">
<feFlood flood-opacity="0" result="BackgroundImageFix"/>
<feBlend mode="normal" in="SourceGraphic" in2="BackgroundImageFix" result="shape"/>
<feGaussianBlur stdDeviation="158.5" result="effect1_foregroundBlur_472_5107"/>
</filter>
<filter id="filter6_bd_472_5107" x="-85.9707" y="-67.4219" width="1611.94" height="84.8926" filterUnits="userSpaceOnUse" color-interpolation-filters="sRGB">
<feFlood flood-opacity="0" result="BackgroundImageFix"/>
<feGaussianBlur in="BackgroundImageFix" stdDeviation="4"/>
<feComposite in2="SourceAlpha" operator="in" result="effect1_backgroundBlur_472_5107"/>
<feColorMatrix in="SourceAlpha" type="matrix" values="0 0 0 0 0 0 0 0 0 0 0 0 0 0 0 0 0 0 127 0" result="hardAlpha"/>
<feOffset dy="4"/>
<feGaussianBlur stdDeviation="6.5"/>
<feComposite in2="hardAlpha" operator="out"/>
<feColorMatrix type="matrix" values="0 0 0 0 0.175678 0 0 0 0 0.173906 0 0 0 0 0.2625 0 0 0 0.09 0"/>
<feBlend mode="normal" in2="effect1_backgroundBlur_472_5107" result="effect2_dropShadow_472_5107"/>
<feBlend mode="normal" in="SourceGraphic" in2="effect2_dropShadow_472_5107" result="shape"/>
</filter>
<filter id="filter7_b_472_5107" x="1099.8" y="263.68" width="82.002" height="82.002" filterUnits="userSpaceOnUse" color-interpolation-filters="sRGB">
<feFlood flood-opacity="0" result="BackgroundImageFix"/>
<feGaussianBlur in="BackgroundImageFix" stdDeviation="2"/>
<feComposite in2="SourceAlpha" operator="in" result="effect1_backgroundBlur_472_5107"/>
<feBlend mode="normal" in="SourceGraphic" in2="effect1_backgroundBlur_472_5107" result="shape"/>
</filter>
<filter id="filter8_b_472_5107" x="1231.82" y="126.072" width="43.957" height="43.957" filterUnits="userSpaceOnUse" color-interpolation-filters="sRGB">
<feFlood flood-opacity="0" result="BackgroundImageFix"/>
<feGaussianBlur in="BackgroundImageFix" stdDeviation="2"/>
<feComposite in2="SourceAlpha" operator="in" result="effect1_backgroundBlur_472_5107"/>
<feBlend mode="normal" in="SourceGraphic" in2="effect1_backgroundBlur_472_5107" result="shape"/>
</filter>
<filter id="filter9_b_472_5107" x="1226.54" y="120.793" width="54.5166" height="54.5176" filterUnits="userSpaceOnUse" color-interpolation-filters="sRGB">
<feFlood flood-opacity="0" result="BackgroundImageFix"/>
<feGaussianBlur in="BackgroundImageFix" stdDeviation="2"/>
<feComposite in2="SourceAlpha" operator="in" result="effect1_backgroundBlur_472_5107"/>
<feBlend mode="normal" in="SourceGraphic" in2="effect1_backgroundBlur_472_5107" result="shape"/>
</filter>
<filter id="filter10_b_472_5107" x="20.209" y="108.355" width="43.957" height="43.957" filterUnits="userSpaceOnUse" color-interpolation-filters="sRGB">
<feFlood flood-opacity="0" result="BackgroundImageFix"/>
<feGaussianBlur in="BackgroundImageFix" stdDeviation="2"/>
<feComposite in2="SourceAlpha" operator="in" result="effect1_backgroundBlur_472_5107"/>
<feBlend mode="normal" in="SourceGraphic" in2="effect1_backgroundBlur_472_5107" result="shape"/>
</filter>
<filter id="filter11_b_472_5107" x="14.9287" y="103.076" width="54.5166" height="54.5176" filterUnits="userSpaceOnUse" color-interpolation-filters="sRGB">
<feFlood flood-opacity="0" result="BackgroundImageFix"/>
<feGaussianBlur in="BackgroundImageFix" stdDeviation="2"/>
<feComposite in2="SourceAlpha" operator="in" result="effect1_backgroundBlur_472_5107"/>
<feBlend mode="normal" in="SourceGraphic" in2="effect1_backgroundBlur_472_5107" result="shape"/>
</filter>
<filter id="filter12_bd_472_5107" x="1195.93" y="201.684" width="142.193" height="184.096" filterUnits="userSpaceOnUse" color-interpolation-filters="sRGB">
<feFlood flood-opacity="0" result="BackgroundImageFix"/>
<feGaussianBlur in="BackgroundImageFix" stdDeviation="2"/>
<feComposite in2="SourceAlpha" operator="in" result="effect1_backgroundBlur_472_5107"/>
<feColorMatrix in="SourceAlpha" type="matrix" values="0 0 0 0 0 0 0 0 0 0 0 0 0 0 0 0 0 0 127 0" result="hardAlpha"/>
<feOffset dx="19" dy="32"/>
<feGaussianBlur stdDeviation="2"/>
<feComposite in2="hardAlpha" operator="out"/>
<feColorMatrix type="matrix" values="0 0 0 0 0.0319739 0 0 0 0 0.0236979 0 0 0 0 0.4375 0 0 0 0.05 0"/>
<feBlend mode="normal" in2="effect1_backgroundBlur_472_5107" result="effect2_dropShadow_472_5107"/>
<feBlend mode="normal" in="SourceGraphic" in2="effect2_dropShadow_472_5107" result="shape"/>
</filter>
<filter id="filter13_b_472_5107" x="1201.71" y="207.125" width="111.639" height="141.213" filterUnits="userSpaceOnUse" color-interpolation-filters="sRGB">
<feFlood flood-opacity="0" result="BackgroundImageFix"/>
<feGaussianBlur in="BackgroundImageFix" stdDeviation="2"/>
<feComposite in2="SourceAlpha" operator="in" result="effect1_backgroundBlur_472_5107"/>
<feBlend mode="normal" in="SourceGraphic" in2="effect1_backgroundBlur_472_5107" result="shape"/>
</filter>
<filter id="filter14_bd_472_5107" x="-22.5898" y="193.957" width="142.193" height="184.096" filterUnits="userSpaceOnUse" color-interpolation-filters="sRGB">
<feFlood flood-opacity="0" result="BackgroundImageFix"/>
<feGaussianBlur in="BackgroundImageFix" stdDeviation="2"/>
<feComposite in2="SourceAlpha" operator="in" result="effect1_backgroundBlur_472_5107"/>
<feColorMatrix in="SourceAlpha" type="matrix" values="0 0 0 0 0 0 0 0 0 0 0 0 0 0 0 0 0 0 127 0" result="hardAlpha"/>
<feOffset dx="19" dy="32"/>
<feGaussianBlur stdDeviation="2"/>
<feComposite in2="hardAlpha" operator="out"/>
<feColorMatrix type="matrix" values="0 0 0 0 0.0319739 0 0 0 0 0.0236979 0 0 0 0 0.4375 0 0 0 0.05 0"/>
<feBlend mode="normal" in2="effect1_backgroundBlur_472_5107" result="effect2_dropShadow_472_5107"/>
<feBlend mode="normal" in="SourceGraphic" in2="effect2_dropShadow_472_5107" result="shape"/>
</filter>
<filter id="filter15_b_472_5107" x="-16.8125" y="199.398" width="111.639" height="141.213" filterUnits="userSpaceOnUse" color-interpolation-filters="sRGB">
<feFlood flood-opacity="0" result="BackgroundImageFix"/>
<feGaussianBlur in="BackgroundImageFix" stdDeviation="2"/>
<feComposite in2="SourceAlpha" operator="in" result="effect1_backgroundBlur_472_5107"/>
<feBlend mode="normal" in="SourceGraphic" in2="effect1_backgroundBlur_472_5107" result="shape"/>
</filter>
<filter id="filter16_b_472_5107" x="109.596" y="255.379" width="56.5938" height="104.855" filterUnits="userSpaceOnUse" color-interpolation-filters="sRGB">
<feFlood flood-opacity="0" result="BackgroundImageFix"/>
<feGaussianBlur in="BackgroundImageFix" stdDeviation="2"/>
<feComposite in2="SourceAlpha" operator="in" result="effect1_backgroundBlur_472_5107"/>
<feBlend mode="normal" in="SourceGraphic" in2="effect1_backgroundBlur_472_5107" result="shape"/>
</filter>
<linearGradient id="paint0_linear_472_5107" x1="1340.42" y1="117.578" x2="1340.42" y2="228.506" gradientUnits="userSpaceOnUse">
<stop stop-color="#B6D2FF"/>
<stop offset="1" stop-color="#D9E7FF" stop-opacity="0.36"/>
</linearGradient>
<radialGradient id="paint1_radial_472_5107" cx="0" cy="0" r="1" gradientUnits="userSpaceOnUse" gradientTransform="translate(638.808 540.345) scale(1091.07 780.873)">
<stop stop-color="#1853D4"/>
<stop offset="0.56" stop-color="#1AD0FF"/>
<stop offset="1" stop-color="white"/>
</radialGradient>
<radialGradient id="paint2_radial_472_5107" cx="0" cy="0" r="1" gradientUnits="userSpaceOnUse" gradientTransform="translate(651.043 689.013) scale(1124.24 804.609)">
<stop stop-color="#1853D4"/>
<stop offset="0.56" stop-color="#1AD0FF"/>
<stop offset="1" stop-color="white"/>
</radialGradient>
<radialGradient id="paint3_radial_472_5107" cx="0" cy="0" r="1" gradientUnits="userSpaceOnUse" gradientTransform="translate(577.735 673.713) scale(1258.79 900.909)">
<stop stop-color="#1853D4"/>
<stop offset="0.56" stop-color="#1AD0FF"/>
<stop offset="1" stop-color="white"/>
</radialGradient>
<radialGradient id="paint4_radial_472_5107" cx="0" cy="0" r="1" gradientUnits="userSpaceOnUse" gradientTransform="translate(990.159 568.78) scale(1368.67 979.547)">
<stop stop-color="#1853D4"/>
<stop offset="0.56" stop-color="#1AD0FF"/>
<stop offset="1" stop-color="white"/>
</radialGradient>
<radialGradient id="paint5_radial_472_5107" cx="0" cy="0" r="1" gradientUnits="userSpaceOnUse" gradientTransform="translate(619.238 714.994) scale(1200.14 1228.13)">
<stop stop-color="#A8EDFF"/>
<stop offset="1" stop-color="white"/>
</radialGradient>
<radialGradient id="paint6_radial_472_5107" cx="0" cy="0" r="1" gradientUnits="userSpaceOnUse" gradientTransform="translate(632.697 948.859) scale(1236.66 1265.5)">
<stop stop-color="#A8EDFF"/>
<stop offset="1" stop-color="white"/>
</radialGradient>
<radialGradient id="paint7_radial_472_5107" cx="0" cy="0" r="1" gradientUnits="userSpaceOnUse" gradientTransform="translate(552.058 924.757) scale(1384.67 1416.96)">
<stop stop-color="#A8EDFF"/>
<stop offset="1" stop-color="white"/>
</radialGradient>
<radialGradient id="paint8_radial_472_5107" cx="0" cy="0" r="1" gradientUnits="userSpaceOnUse" gradientTransform="translate(1005.69 759.718) scale(1505.53 1540.65)">
<stop stop-color="#A8EDFF"/>
<stop offset="1" stop-color="white"/>
</radialGradient>
<linearGradient id="paint9_linear_472_5107" x1="1018.37" y1="25.9746" x2="847.156" y2="25.9746" gradientUnits="userSpaceOnUse">
<stop stop-color="#89ECD8"/>
<stop offset="1" stop-color="#89ECD8" stop-opacity="0"/>
</linearGradient>
<linearGradient id="paint10_linear_472_5107" x1="1027.41" y1="-14.4102" x2="1027.41" y2="25.9745" gradientUnits="userSpaceOnUse">
<stop stop-color="#1EAFB3"/>
<stop offset="1" stop-color="#5AD7FF"/>
</linearGradient>
<linearGradient id="paint11_linear_472_5107" x1="683.324" y1="-51.5391" x2="683.324" y2="614.159" gradientUnits="userSpaceOnUse">
<stop offset="0.453125" stop-color="#3C46F4" stop-opacity="0"/>
<stop offset="0.71875" stop-color="#94CAFB" stop-opacity="0.91"/>
</linearGradient>
<linearGradient id="paint12_linear_472_5107" x1="904.58" y1="42.2468" x2="746.897" y2="42.2468" gradientUnits="userSpaceOnUse">
<stop stop-color="#78BDFD"/>
<stop offset="1" stop-color="#78BDFD" stop-opacity="0"/>
</linearGradient>
<linearGradient id="paint13_linear_472_5107" x1="529.762" y1="360.368" x2="169.408" y2="360.368" gradientUnits="userSpaceOnUse">
<stop stop-color="#78BDFD"/>
<stop offset="1" stop-color="#78BDFD" stop-opacity="0"/>
</linearGradient>
<linearGradient id="paint14_linear_472_5107" x1="1307.13" y1="80.0046" x2="946.777" y2="80.0046" gradientUnits="userSpaceOnUse">
<stop stop-color="#37C3FF"/>
<stop offset="1" stop-color="#78BDFD" stop-opacity="0"/>
</linearGradient>
<linearGradient id="paint15_linear_472_5107" x1="218.943" y1="489.412" x2="-13.8563" y2="489.412" gradientUnits="userSpaceOnUse">
<stop stop-color="#89ECD8"/>
<stop offset="1" stop-color="#89ECD8" stop-opacity="0"/>
</linearGradient>
<linearGradient id="paint16_linear_472_5107" x1="231.232" y1="434.502" x2="231.232" y2="489.412" gradientUnits="userSpaceOnUse">
<stop stop-color="#23A3FF"/>
<stop offset="1" stop-color="white"/>
</linearGradient>
<linearGradient id="paint17_linear_472_5107" x1="694.168" y1="50.8893" x2="577.276" y2="50.8893" gradientUnits="userSpaceOnUse">
<stop stop-color="#89ECD8"/>
<stop offset="1" stop-color="#89ECD8" stop-opacity="0"/>
</linearGradient>
<linearGradient id="paint18_linear_472_5107" x1="700.339" y1="23.3184" x2="700.339" y2="50.8893" gradientUnits="userSpaceOnUse">
<stop stop-color="#23A3FF"/>
<stop offset="1" stop-color="white"/>
</linearGradient>
<linearGradient id="paint19_linear_472_5107" x1="1312.98" y1="402.068" x2="1141.77" y2="402.068" gradientUnits="userSpaceOnUse">
<stop stop-color="#F4FFFF"/>
<stop offset="1" stop-color="#89ECD8" stop-opacity="0"/>
</linearGradient>
<linearGradient id="paint20_linear_472_5107" x1="1350.8" y1="373.288" x2="1322.02" y2="402.068" gradientUnits="userSpaceOnUse">
<stop stop-color="#287EFF"/>
<stop offset="1" stop-color="#F9FDFF"/>
</linearGradient>
<linearGradient id="paint21_linear_472_5107" x1="1140.8" y1="267.68" x2="1140.8" y2="341.682" gradientUnits="userSpaceOnUse">
<stop stop-color="#62D7B2"/>
<stop offset="1" stop-color="#93E5CD" stop-opacity="0.08"/>
</linearGradient>
<linearGradient id="paint22_linear_472_5107" x1="1253.79" y1="130.072" x2="1253.79" y2="166.029" gradientUnits="userSpaceOnUse">
<stop stop-color="#FB967C"/>
<stop offset="1" stop-color="#36A8DB"/>
</linearGradient>
<linearGradient id="paint23_linear_472_5107" x1="1253.79" y1="124.793" x2="1253.79" y2="171.31" gradientUnits="userSpaceOnUse">
<stop stop-color="#E0998A"/>
<stop offset="1" stop-color="#43A7D5" stop-opacity="0"/>
</linearGradient>
<linearGradient id="paint24_linear_472_5107" x1="42.1873" y1="112.355" x2="42.1873" y2="148.312" gradientUnits="userSpaceOnUse">
<stop stop-color="#FB967C"/>
<stop offset="1" stop-color="#36A8DB"/>
</linearGradient>
<linearGradient id="paint25_linear_472_5107" x1="42.1872" y1="107.076" x2="42.1872" y2="153.593" gradientUnits="userSpaceOnUse">
<stop stop-color="#E0998A"/>
<stop offset="1" stop-color="#43A7D5" stop-opacity="0"/>
</linearGradient>
<linearGradient id="paint26_linear_472_5107" x1="1257.52" y1="205.684" x2="1257.52" y2="349.779" gradientUnits="userSpaceOnUse">
<stop stop-color="#8CB2EF"/>
<stop offset="1" stop-color="#4583E9" stop-opacity="0.13"/>
</linearGradient>
<linearGradient id="paint27_linear_472_5107" x1="1257.52" y1="205.684" x2="1257.52" y2="349.779" gradientUnits="userSpaceOnUse">
<stop stop-color="white" stop-opacity="0.69"/>
<stop offset="1" stop-color="white" stop-opacity="0"/>
</linearGradient>
<linearGradient id="paint28_linear_472_5107" x1="1257.52" y1="211.125" x2="1257.52" y2="344.338" gradientUnits="userSpaceOnUse">
<stop stop-color="#B6D2FF"/>
<stop offset="1" stop-color="#D9E7FF" stop-opacity="0.13"/>
</linearGradient>
<linearGradient id="paint29_linear_472_5107" x1="39.007" y1="197.957" x2="39.007" y2="342.052" gradientUnits="userSpaceOnUse">
<stop stop-color="#8CB2EF"/>
<stop offset="1" stop-color="#4583E9" stop-opacity="0.13"/>
</linearGradient>
<linearGradient id="paint30_linear_472_5107" x1="39.007" y1="197.957" x2="39.007" y2="342.052" gradientUnits="userSpaceOnUse">
<stop stop-color="white" stop-opacity="0.69"/>
<stop offset="1" stop-color="white" stop-opacity="0"/>
</linearGradient>
<linearGradient id="paint31_linear_472_5107" x1="39.0071" y1="203.398" x2="39.0071" y2="336.611" gradientUnits="userSpaceOnUse">
<stop stop-color="#B6D2FF"/>
<stop offset="1" stop-color="#D9E7FF" stop-opacity="0.13"/>
</linearGradient>
<linearGradient id="paint32_linear_472_5107" x1="137.892" y1="259.379" x2="137.892" y2="356.234" gradientUnits="userSpaceOnUse">
<stop stop-color="#B6D2FF"/>
<stop offset="1" stop-color="#D9E7FF" stop-opacity="0.13"/>
</linearGradient>
<clipPath id="clip0_472_5107">
<rect width="1440" height="582" fill="white" transform="translate(0 0.582031)"/>
</clipPath>
<clipPath id="clip1_472_5107">
<rect width="2141.55" height="634.711" fill="white" transform="translate(-361.701 -88.8516)"/>
</clipPath>
<clipPath id="clip2_472_5107">
<rect x="1206.03" y="213.338" width="103" height="131" rx="2" fill="white"/>
</clipPath>
<clipPath id="clip3_472_5107">
<rect width="39" height="39" fill="white" transform="translate(1279.48 300.787)"/>
</clipPath>
<clipPath id="clip4_472_5107">
<rect x="-12.1738" y="205.611" width="103" height="131" rx="2" fill="white"/>
</clipPath>
<clipPath id="clip5_472_5107">
<rect width="48" height="97" fill="white" transform="translate(114.189 259.379)"/>
</clipPath>
</defs>
</svg>
