<svg width="14" height="13" viewBox="0 0 14 13" fill="none" xmlns="http://www.w3.org/2000/svg">
<path d="M1.54534 7.49805H6.14076V12.0935C6.14076 12.5605 6.52497 12.9523 6.99958 12.9523C7.47419 12.9523 7.8584 12.5605 7.8584 12.0935V7.49805H12.4538C12.9209 7.49805 13.3126 7.11384 13.3126 6.63923C13.3126 6.16462 12.9209 5.78041 12.4538 5.78041H7.8584V1.18499C7.8584 0.717913 7.47419 0.326172 6.99958 0.326172C6.52497 0.326172 6.14076 0.717913 6.14076 1.18499V5.78041H1.54534C1.07826 5.78041 0.686523 6.16462 0.686523 6.63923C0.686523 7.11384 1.07826 7.49805 1.54534 7.49805Z" fill="#3196F5"/>
</svg>
