<svg width="393" height="509" viewBox="0 0 393 509" fill="none" xmlns="http://www.w3.org/2000/svg">
<g clip-path="url(#clip0_703_5450)">
<rect width="393" height="508" transform="translate(0 0.751953)" fill="white"/>
<path d="M-64.8585 533.297L-64.8594 -1.95898H507.328V499.192C471.688 506.732 385.284 521.813 324.675 521.813C248.913 521.813 173.731 505.108 100.26 505.108C26.7892 505.108 -34.3093 523.901 -64.8585 533.297Z" fill="#164B9F"/>
<rect opacity="0.8" x="68.3672" y="92.2949" width="28.8145" height="54.0273" rx="3.63277" fill="#D9D9D9" fill-opacity="0.33"/>
<g filter="url(#filter0_f_703_5450)">
<rect x="-41.8359" y="3.66406" width="823.05" height="249.984" fill="#143D95"/>
</g>
<rect opacity="0.8" x="88.293" y="426.033" width="28.8145" height="54.0273" rx="3.63277" fill="white" fill-opacity="0.12"/>
<g filter="url(#filter1_f_703_5450)">
<rect x="42.7812" y="227.834" width="375.462" height="124.026" rx="62.013" transform="rotate(15 42.7812 227.834)" fill="#FF6332" fill-opacity="0.74"/>
</g>
<path d="M13.9043 292.064V507.043" stroke="#64B2C4" stroke-opacity="0.18" stroke-width="0.518967"/>
<path d="M391.375 303.512L-17.9366 303.512" stroke="#64B2C4" stroke-opacity="0.18" stroke-width="0.518967"/>
<path d="M391.375 318.588L-17.9366 318.588" stroke="#64B2C4" stroke-opacity="0.18" stroke-width="0.518967"/>
<path d="M391.375 333.664L-17.9366 333.664" stroke="#64B2C4" stroke-opacity="0.18" stroke-width="0.518967"/>
<path d="M391.375 348.74L-17.9366 348.74" stroke="#64B2C4" stroke-opacity="0.18" stroke-width="0.518967"/>
<path d="M391.375 363.816L-17.9366 363.816" stroke="#64B2C4" stroke-opacity="0.18" stroke-width="0.518967"/>
<path d="M391.375 378.893L-17.9366 378.893" stroke="#64B2C4" stroke-opacity="0.18" stroke-width="0.518967"/>
<path d="M391.375 393.969L-17.9366 393.969" stroke="#64B2C4" stroke-opacity="0.18" stroke-width="0.518967"/>
<path d="M391.375 409.045L-17.9366 409.045" stroke="#64B2C4" stroke-opacity="0.18" stroke-width="0.518967"/>
<path d="M391.375 424.123L-17.9366 424.123" stroke="#64B2C4" stroke-opacity="0.18" stroke-width="0.518967"/>
<path d="M391.375 439.199L-17.9366 439.199" stroke="#64B2C4" stroke-opacity="0.18" stroke-width="0.518967"/>
<path d="M391.375 454.275L-17.9366 454.275" stroke="#64B2C4" stroke-opacity="0.18" stroke-width="0.518967"/>
<path d="M391.375 469.352L-17.9366 469.352" stroke="#64B2C4" stroke-opacity="0.18" stroke-width="0.518967"/>
<path d="M391.375 484.428L-17.9366 484.428" stroke="#64B2C4" stroke-opacity="0.18" stroke-width="0.518967"/>
<path d="M391.375 499.504L-17.9366 499.504" stroke="#64B2C4" stroke-opacity="0.18" stroke-width="0.518967"/>
<path d="M28.4219 292.064V507.043" stroke="#64B2C4" stroke-opacity="0.18" stroke-width="0.518967"/>
<path d="M42.9414 292.064V507.043" stroke="#64B2C4" stroke-opacity="0.18" stroke-width="0.518967"/>
<path d="M57.459 292.064V507.043" stroke="#64B2C4" stroke-opacity="0.18" stroke-width="0.518967"/>
<path d="M71.9766 292.064V507.043" stroke="#64B2C4" stroke-opacity="0.18" stroke-width="0.518967"/>
<path d="M86.4941 292.064V507.043" stroke="#64B2C4" stroke-opacity="0.18" stroke-width="0.518967"/>
<path d="M101.014 292.064V507.043" stroke="#64B2C4" stroke-opacity="0.18" stroke-width="0.518967"/>
<path d="M115.531 292.064V507.043" stroke="#64B2C4" stroke-opacity="0.18" stroke-width="0.518967"/>
<path d="M130.049 292.064V507.043" stroke="#64B2C4" stroke-opacity="0.18" stroke-width="0.518967"/>
<path d="M144.566 292.064V507.043" stroke="#64B2C4" stroke-opacity="0.18" stroke-width="0.518967"/>
<path d="M159.084 292.064V507.043" stroke="#64B2C4" stroke-opacity="0.18" stroke-width="0.518967"/>
<path d="M173.604 292.064V507.043" stroke="#64B2C4" stroke-opacity="0.18" stroke-width="0.518967"/>
<path d="M188.121 292.064V507.043" stroke="#64B2C4" stroke-opacity="0.18" stroke-width="0.518967"/>
<path d="M202.639 292.064V507.043" stroke="#64B2C4" stroke-opacity="0.18" stroke-width="0.518967"/>
<path d="M217.158 292.064V507.043" stroke="#64B2C4" stroke-opacity="0.18" stroke-width="0.518967"/>
<path d="M231.676 292.064V507.043" stroke="#64B2C4" stroke-opacity="0.18" stroke-width="0.518967"/>
<path d="M246.193 292.064V507.043" stroke="#64B2C4" stroke-opacity="0.18" stroke-width="0.518967"/>
<path d="M260.713 292.064V507.043" stroke="#64B2C4" stroke-opacity="0.18" stroke-width="0.518967"/>
<path d="M275.23 292.064V507.043" stroke="#64B2C4" stroke-opacity="0.18" stroke-width="0.518967"/>
<path d="M289.748 292.064V507.043" stroke="#64B2C4" stroke-opacity="0.18" stroke-width="0.518967"/>
<path d="M304.266 292.064V507.043" stroke="#64B2C4" stroke-opacity="0.18" stroke-width="0.518967"/>
<path d="M318.783 292.064V507.043" stroke="#64B2C4" stroke-opacity="0.18" stroke-width="0.518967"/>
<path d="M333.303 292.064V507.043" stroke="#64B2C4" stroke-opacity="0.18" stroke-width="0.518967"/>
<path d="M347.82 292.064V507.043" stroke="#64B2C4" stroke-opacity="0.18" stroke-width="0.518967"/>
<path d="M362.338 292.064V507.043" stroke="#64B2C4" stroke-opacity="0.18" stroke-width="0.518967"/>
<path d="M376.855 292.064V507.043" stroke="#64B2C4" stroke-opacity="0.18" stroke-width="0.518967"/>
<g filter="url(#filter2_f_703_5450)">
<rect x="304.416" y="105.943" width="272.759" height="301.262" transform="rotate(15 304.416 105.943)" fill="#0A2963"/>
</g>
<g filter="url(#filter3_f_703_5450)">
<rect x="-109.176" y="138.381" width="272.759" height="237.329" rx="118.664" transform="rotate(15 -109.176 138.381)" fill="#16C7FF" fill-opacity="0.56"/>
</g>
<path d="M-64.8594 533.296L-74.8223 -261.898L507.328 23.1602V499.192C471.687 506.732 385.283 521.812 324.674 521.812C248.912 521.812 173.73 510.962 100.259 510.962C26.7883 510.962 -34.3102 523.9 -64.8594 533.296Z" fill="url(#paint0_linear_703_5450)"/>
<path d="M144.834 486.513C145.27 484.981 146.473 483.788 148.008 483.364L148.485 483.232L148.008 483.1H148.008C146.473 482.676 145.27 481.482 144.834 479.951L144.697 479.475L144.561 479.951C144.125 481.482 142.922 482.676 141.387 483.1L140.91 483.232L141.386 483.364H141.387C142.922 483.788 144.125 484.982 144.561 486.513L144.697 486.989L144.834 486.513Z" fill="#9AC1FF" fill-opacity="0.32"/>
<g opacity="0.8" filter="url(#filter4_b_703_5450)">
<g filter="url(#filter5_bd_703_5450)">
<g clip-path="url(#clip1_703_5450)">
<rect width="390" height="602" rx="7" transform="matrix(0.866025 0.5 -0.866025 0.5 278.518 265.668)" fill="url(#paint1_linear_703_5450)" shape-rendering="crispEdges"/>
<rect width="154.18" height="614.091" transform="matrix(0.866025 0.5 -0.866025 0.5 251.75 275.129)" fill="#FDFCFC" fill-opacity="0.07"/>
<g filter="url(#filter6_bd_703_5450)">
<rect width="390.168" height="24.9141" rx="2" transform="matrix(0.866025 0.5 -0.866025 0.5 278.123 265.441)" fill="url(#paint2_linear_703_5450)" shape-rendering="crispEdges"/>
</g>
<circle cx="2.78691" cy="2.78691" r="2.78691" transform="matrix(0.866025 0.5 0.866025 -0.5 277.471 280.307)" fill="#FDFCFC" fill-opacity="0.42"/>
<circle cx="2.78691" cy="2.78691" r="2.78691" transform="matrix(0.866025 0.5 0.866025 -0.5 286.24 285.369)" fill="#FDFCFC" fill-opacity="0.42"/>
<circle cx="2.78691" cy="2.78691" r="2.78691" transform="matrix(0.866025 0.5 0.866025 -0.5 295.008 290.432)" fill="#FDFCFC" fill-opacity="0.42"/>
<path d="M246.256 302.85L245.198 302.239L256.593 299.194L257.635 299.795L252.361 306.374L251.303 305.763L255.828 300.275L255.763 300.237L246.256 302.85ZM249.903 301.196L254.167 303.658L253.272 304.175L249.007 301.713L249.903 301.196Z" fill="#FDFCFC" fill-opacity="0.47"/>
<path d="M253.659 307.123L261.993 302.312L264.907 303.994C265.487 304.329 265.866 304.664 266.042 304.997C266.221 305.329 266.235 305.646 266.083 305.946C265.933 306.245 265.655 306.513 265.248 306.747C264.89 306.954 264.531 307.088 264.17 307.149C263.812 307.212 263.462 307.223 263.12 307.182C262.781 307.143 262.459 307.073 262.156 306.973L262.074 307.02C262.313 307.177 262.48 307.376 262.575 307.619C262.67 307.862 262.652 308.121 262.522 308.397C262.392 308.672 262.107 308.937 261.667 309.191C261.25 309.432 260.779 309.594 260.255 309.677C259.732 309.76 259.167 309.74 258.562 309.616C257.957 309.492 257.327 309.241 256.67 308.862L253.659 307.123ZM255.563 307.189L257.565 308.345C258.225 308.726 258.82 308.922 259.352 308.935C259.889 308.947 260.341 308.848 260.707 308.636C260.989 308.474 261.178 308.282 261.273 308.061C261.37 307.838 261.358 307.609 261.236 307.372C261.117 307.134 260.875 306.91 260.512 306.701L258.461 305.516L255.563 307.189ZM259.34 305.009L261.212 306.09C261.515 306.265 261.849 306.389 262.213 306.461C262.579 306.534 262.942 306.55 263.303 306.508C263.667 306.467 263.995 306.362 264.288 306.193C264.654 305.982 264.837 305.729 264.837 305.434C264.84 305.138 264.565 304.83 264.011 304.511L262.107 303.411L259.34 305.009Z" fill="#FDFCFC" fill-opacity="0.47"/>
<path d="M273.548 311.99L272.539 311.408C272.769 311.206 272.92 310.998 272.99 310.785C273.064 310.574 273.069 310.364 273.007 310.155C272.95 309.947 272.832 309.747 272.653 309.556C272.474 309.365 272.246 309.19 271.969 309.03C271.464 308.739 270.88 308.548 270.215 308.459C269.553 308.371 268.853 308.401 268.115 308.548C267.38 308.697 266.652 308.98 265.93 309.397C265.208 309.813 264.719 310.234 264.461 310.658C264.206 311.084 264.154 311.488 264.306 311.871C264.461 312.254 264.791 312.592 265.295 312.883C265.572 313.043 265.876 313.174 266.207 313.278C266.538 313.381 266.882 313.45 267.24 313.485C267.604 313.519 267.969 313.515 268.335 313.473C268.707 313.431 269.066 313.344 269.413 313.212L270.423 313.795C269.921 313.997 269.401 314.137 268.864 314.215C268.327 314.294 267.791 314.315 267.257 314.279C266.725 314.241 266.212 314.15 265.718 314.006C265.227 313.864 264.772 313.671 264.351 313.428C263.64 313.018 263.182 312.553 262.976 312.033C262.769 311.513 262.828 310.976 263.151 310.423C263.473 309.87 264.074 309.34 264.953 308.833C265.832 308.325 266.751 307.978 267.708 307.792C268.666 307.605 269.595 307.572 270.496 307.691C271.397 307.81 272.202 308.075 272.913 308.485C273.334 308.728 273.667 308.991 273.914 309.274C274.164 309.559 274.32 309.856 274.382 310.165C274.447 310.472 274.412 310.78 274.276 311.09C274.143 311.399 273.901 311.699 273.548 311.99Z" fill="#FDFCFC" fill-opacity="0.47"/>
<rect width="90.0098" height="2.14453" transform="matrix(0.866025 0.5 -0.866025 0.5 274.623 317.213)" fill="#FDFCFC" fill-opacity="0.47"/>
<rect width="121.973" height="2.14453" transform="matrix(0.866025 0.5 -0.866025 0.5 236.885 307.039)" fill="#FDFCFC" fill-opacity="0.47"/>
<rect width="121.973" height="2.14453" transform="matrix(0.866025 0.5 -0.866025 0.5 226.826 312.846)" fill="#FDFCFC" fill-opacity="0.47"/>
<rect width="121.973" height="2.14453" transform="matrix(0.866025 0.5 -0.866025 0.5 206.709 324.461)" fill="#FDFCFC" fill-opacity="0.47"/>
<rect width="59.9434" height="2.14453" transform="matrix(0.866025 0.5 -0.866025 0.5 159.102 351.947)" fill="#FDFCFC" fill-opacity="0.2"/>
<rect width="59.9434" height="2.14453" transform="matrix(0.866025 0.5 -0.866025 0.5 128.928 369.367)" fill="#FDFCFC" fill-opacity="0.2"/>
<rect width="59.9434" height="2.14453" transform="matrix(0.866025 0.5 -0.866025 0.5 98.7539 386.789)" fill="#FDFCFC" fill-opacity="0.2"/>
<rect width="121.973" height="2.14453" transform="matrix(0.866025 0.5 -0.866025 0.5 216.768 318.654)" fill="#FDFCFC" fill-opacity="0.47"/>
<rect width="59.9434" height="2.14453" transform="matrix(0.866025 0.5 -0.866025 0.5 169.16 346.139)" fill="#FDFCFC" fill-opacity="0.2"/>
<rect width="59.9434" height="2.14453" transform="matrix(0.866025 0.5 -0.866025 0.5 138.986 363.561)" fill="#FDFCFC" fill-opacity="0.2"/>
<rect width="59.9434" height="2.14453" transform="matrix(0.866025 0.5 -0.866025 0.5 108.811 380.982)" fill="#FDFCFC" fill-opacity="0.2"/>
<rect width="121.973" height="2.14453" transform="matrix(0.866025 0.5 -0.866025 0.5 196.65 330.268)" fill="#FDFCFC" fill-opacity="0.47"/>
<rect width="59.9434" height="2.14453" transform="matrix(0.866025 0.5 -0.866025 0.5 149.045 357.754)" fill="#FDFCFC" fill-opacity="0.2"/>
<rect width="59.9434" height="2.14453" transform="matrix(0.866025 0.5 -0.866025 0.5 118.869 375.176)" fill="#FDFCFC" fill-opacity="0.2"/>
<rect width="59.9434" height="2.14453" transform="matrix(0.866025 0.5 -0.866025 0.5 88.6953 392.596)" fill="#FDFCFC" fill-opacity="0.2"/>
<rect width="85.2588" height="2.14453" rx="1.07227" transform="matrix(-0.866026 0.5 -0.866025 -0.5 112.213 465.512)" fill="#FDFCFC" fill-opacity="0.2"/>
<g opacity="0.5">
<g opacity="0.3">
<rect width="133.981" height="24.6567" transform="matrix(0.866025 0.5 -0.866025 0.5 412.66 386.725)" fill="url(#paint3_linear_703_5450)" style="mix-blend-mode:screen"/>
</g>
</g>
<g filter="url(#filter7_d_703_5450)">
<g filter="url(#filter8_bd_703_5450)">
<rect width="76.7949" height="80.3447" rx="3" transform="matrix(0.866025 0.5 -0.866025 0.5 290.744 361.365)" fill="url(#paint4_linear_703_5450)" shape-rendering="crispEdges"/>
<rect x="-1.49012e-08" y="0.25" width="76.2949" height="79.8447" rx="2.75" transform="matrix(0.866025 0.5 -0.866025 0.5 290.961 361.49)" stroke="url(#paint5_linear_703_5450)" stroke-width="0.5" shape-rendering="crispEdges"/>
</g>
<rect width="58.2539" height="1.57936" transform="matrix(0.866025 0.5 -0.866025 0.5 256.625 390.334)" fill="#FDFCFC" fill-opacity="0.47"/>
<rect width="58.2539" height="1.57936" transform="matrix(0.866025 0.5 -0.866025 0.5 249.217 394.611)" fill="#FDFCFC" fill-opacity="0.47"/>
<rect width="27.8691" height="1.57936" transform="matrix(0.866025 0.5 -0.866025 0.5 241.809 398.887)" fill="#FDFCFC" fill-opacity="0.47"/>
<g filter="url(#filter9_b_703_5450)">
<g clip-path="url(#clip2_703_5450)">
<rect width="64.9668" height="32.1924" transform="matrix(0.866025 0.5 -0.866025 0.5 290.709 367.152)" fill="#FDFCFC" fill-opacity="0.13"/>
<path d="M320.933 404.586L325.234 424.193L286.973 402.103L320.933 404.586Z" fill="#FDFCFC" fill-opacity="0.17"/>
<path d="M304.05 389.031L309.809 415.288L258.572 385.706L304.05 389.031Z" fill="#FDFCFC" fill-opacity="0.26"/>
</g>
</g>
</g>
<g filter="url(#filter10_bd_703_5450)">
<rect width="76.7949" height="80.3447" rx="3" transform="matrix(0.866025 0.5 -0.866025 0.5 204.973 410.885)" fill="url(#paint6_linear_703_5450)" shape-rendering="crispEdges"/>
<rect x="-1.49012e-08" y="0.25" width="76.2949" height="79.8447" rx="2.75" transform="matrix(0.866025 0.5 -0.866025 0.5 205.189 411.01)" stroke="url(#paint7_linear_703_5450)" stroke-width="0.5" shape-rendering="crispEdges"/>
</g>
<rect width="58.2539" height="1.57936" transform="matrix(0.866025 0.5 -0.866025 0.5 170.854 439.854)" fill="#FDFCFC" fill-opacity="0.47"/>
<rect width="58.2539" height="1.57936" transform="matrix(0.866025 0.5 -0.866025 0.5 163.445 444.131)" fill="#FDFCFC" fill-opacity="0.47"/>
<rect width="27.8691" height="1.57936" transform="matrix(0.866025 0.5 -0.866025 0.5 156.037 448.406)" fill="#FDFCFC" fill-opacity="0.47"/>
<g filter="url(#filter11_b_703_5450)">
<g clip-path="url(#clip3_703_5450)">
<rect width="64.9668" height="32.1924" transform="matrix(0.866025 0.5 -0.866025 0.5 204.938 416.672)" fill="#FDFCFC" fill-opacity="0.13"/>
<path d="M235.162 454.106L239.463 473.713L201.201 451.623L235.162 454.106Z" fill="#FDFCFC" fill-opacity="0.17"/>
<path d="M218.279 438.551L224.038 464.807L172.801 435.225L218.279 438.551Z" fill="#FDFCFC" fill-opacity="0.26"/>
</g>
</g>
<g filter="url(#filter12_bd_703_5450)">
<rect width="76.7949" height="80.3447" rx="3" transform="matrix(0.866025 0.5 -0.866025 0.5 372.564 408.604)" fill="url(#paint8_linear_703_5450)" shape-rendering="crispEdges"/>
<rect x="-1.49012e-08" y="0.25" width="76.2949" height="79.8447" rx="2.75" transform="matrix(0.866025 0.5 -0.866025 0.5 372.781 408.729)" stroke="url(#paint9_linear_703_5450)" stroke-width="0.5" shape-rendering="crispEdges"/>
</g>
<rect width="58.2539" height="1.57936" transform="matrix(0.866025 0.5 -0.866025 0.5 338.445 437.572)" fill="#FDFCFC" fill-opacity="0.47"/>
<rect width="58.2539" height="1.57936" transform="matrix(0.866025 0.5 -0.866025 0.5 331.037 441.85)" fill="#FDFCFC" fill-opacity="0.47"/>
<rect width="27.8691" height="1.57936" transform="matrix(0.866025 0.5 -0.866025 0.5 323.629 446.125)" fill="#FDFCFC" fill-opacity="0.47"/>
<rect width="64.9668" height="32.1924" transform="matrix(0.866025 0.5 -0.866025 0.5 372.529 414.391)" fill="#FDFCFC" fill-opacity="0.13"/>
<path d="M391.82 435.735C389.004 434.109 384.438 434.109 381.621 435.735C378.804 437.362 378.804 439.998 381.621 441.624C384.438 443.25 389.004 443.25 391.82 441.624C394.637 439.998 394.637 437.362 391.82 435.735ZM387.66 436.433L389.271 440.152L382.829 439.222L387.66 436.433Z" fill="#FDFCFC" fill-opacity="0.4"/>
<g filter="url(#filter13_bd_703_5450)">
<rect width="76.7949" height="80.3447" rx="3" transform="matrix(0.866025 0.5 -0.866025 0.5 286.793 458.123)" fill="url(#paint10_linear_703_5450)" shape-rendering="crispEdges"/>
<rect x="-1.49012e-08" y="0.25" width="76.2949" height="79.8447" rx="2.75" transform="matrix(0.866025 0.5 -0.866025 0.5 287.009 458.248)" stroke="url(#paint11_linear_703_5450)" stroke-width="0.5" shape-rendering="crispEdges"/>
</g>
<rect width="58.2539" height="1.57936" transform="matrix(0.866025 0.5 -0.866025 0.5 252.674 487.092)" fill="#FDFCFC" fill-opacity="0.47"/>
<rect width="58.2539" height="1.57936" transform="matrix(0.866025 0.5 -0.866025 0.5 245.266 491.369)" fill="#FDFCFC" fill-opacity="0.47"/>
<rect width="27.8691" height="1.57936" transform="matrix(0.866025 0.5 -0.866025 0.5 237.857 495.645)" fill="#FDFCFC" fill-opacity="0.47"/>
<rect width="64.9668" height="32.1924" transform="matrix(0.866025 0.5 -0.866025 0.5 286.758 463.91)" fill="#FDFCFC" fill-opacity="0.13"/>
<path d="M306.049 485.255C303.232 483.629 298.666 483.629 295.849 485.255C293.033 486.881 293.033 489.517 295.849 491.144C298.666 492.77 303.232 492.77 306.049 491.144C308.866 489.517 308.866 486.881 306.049 485.255ZM301.889 485.952L303.499 489.671L297.057 488.742L301.889 485.952Z" fill="#FDFCFC" fill-opacity="0.4"/>
<g filter="url(#filter14_bd_703_5450)">
<rect width="76.7949" height="80.3447" rx="3" transform="matrix(0.866025 0.5 -0.866025 0.5 454.383 455.842)" fill="url(#paint12_linear_703_5450)" shape-rendering="crispEdges"/>
<rect x="-1.49012e-08" y="0.25" width="76.2949" height="79.8447" rx="2.75" transform="matrix(0.866025 0.5 -0.866025 0.5 454.599 455.967)" stroke="url(#paint13_linear_703_5450)" stroke-width="0.5" shape-rendering="crispEdges"/>
</g>
<g filter="url(#filter15_bd_703_5450)">
<rect width="76.7949" height="80.3447" rx="3" transform="matrix(0.866025 0.5 -0.866025 0.5 368.611 505.361)" fill="url(#paint14_linear_703_5450)" shape-rendering="crispEdges"/>
<rect x="-1.49012e-08" y="0.25" width="76.2949" height="79.8447" rx="2.75" transform="matrix(0.866025 0.5 -0.866025 0.5 368.828 505.486)" stroke="url(#paint15_linear_703_5450)" stroke-width="0.5" shape-rendering="crispEdges"/>
</g>
<rect width="26.4902" height="26.4902" rx="2" transform="matrix(0.866025 0.5 -0.866025 0.5 107.73 453.783)" fill="#8FB9FF"/>
<rect width="26.4902" height="26.4902" rx="2" transform="matrix(0.866025 0.5 -0.866025 0.5 70.8418 475.08)" fill="#8FB9FF"/>
<rect width="26.4902" height="26.4902" rx="2" transform="matrix(0.866025 0.5 -0.866025 0.5 33.9551 496.377)" fill="#8FB9FF"/>
<g filter="url(#filter16_b_703_5450)">
<rect width="171.271" height="118.844" rx="3" transform="matrix(0.866025 0.5 -0.866025 0.5 199.57 508.48)" fill="url(#paint16_linear_703_5450)" shape-rendering="crispEdges"/>
<rect x="-1.49012e-08" y="0.25" width="170.771" height="118.344" rx="2.75" transform="matrix(0.866025 0.5 -0.866025 0.5 199.787 508.605)" stroke="url(#paint17_linear_703_5450)" stroke-width="0.5" shape-rendering="crispEdges"/>
</g>
</g>
<rect x="-1.49012e-08" y="0.25" width="389.5" height="601.5" rx="6.75" transform="matrix(0.866025 0.5 -0.866025 0.5 278.734 265.793)" stroke="url(#paint18_linear_703_5450)" stroke-width="0.5" shape-rendering="crispEdges"/>
</g>
</g>
</g>
<defs>
<filter id="filter0_f_703_5450" x="-59.4808" y="-13.9808" width="858.339" height="285.274" filterUnits="userSpaceOnUse" color-interpolation-filters="sRGB">
<feFlood flood-opacity="0" result="BackgroundImageFix"/>
<feBlend mode="normal" in="SourceGraphic" in2="BackgroundImageFix" result="shape"/>
<feGaussianBlur stdDeviation="8.82243" result="effect1_foregroundBlur_703_5450"/>
</filter>
<filter id="filter1_f_703_5450" x="-96.8347" y="120.318" width="609.802" height="432.009" filterUnits="userSpaceOnUse" color-interpolation-filters="sRGB">
<feFlood flood-opacity="0" result="BackgroundImageFix"/>
<feBlend mode="normal" in="SourceGraphic" in2="BackgroundImageFix" result="shape"/>
<feGaussianBlur stdDeviation="60.7191" result="effect1_foregroundBlur_703_5450"/>
</filter>
<filter id="filter2_f_703_5450" x="105.005" y="-15.4948" width="584.314" height="604.468" filterUnits="userSpaceOnUse" color-interpolation-filters="sRGB">
<feFlood flood-opacity="0" result="BackgroundImageFix"/>
<feBlend mode="normal" in="SourceGraphic" in2="BackgroundImageFix" result="shape"/>
<feGaussianBlur stdDeviation="60.7191" result="effect1_foregroundBlur_703_5450"/>
</filter>
<filter id="filter3_f_703_5450" x="-308.473" y="0.509064" width="600.634" height="575.581" filterUnits="userSpaceOnUse" color-interpolation-filters="sRGB">
<feFlood flood-opacity="0" result="BackgroundImageFix"/>
<feBlend mode="normal" in="SourceGraphic" in2="BackgroundImageFix" result="shape"/>
<feGaussianBlur stdDeviation="82.2562" result="effect1_foregroundBlur_703_5450"/>
</filter>
<filter id="filter4_b_703_5450" x="-262.83" y="245.668" width="899.098" height="536" filterUnits="userSpaceOnUse" color-interpolation-filters="sRGB">
<feFlood flood-opacity="0" result="BackgroundImageFix"/>
<feGaussianBlur in="BackgroundImageFix" stdDeviation="10"/>
<feComposite in2="SourceAlpha" operator="in" result="effect1_backgroundBlur_703_5450"/>
<feBlend mode="normal" in="SourceGraphic" in2="effect1_backgroundBlur_703_5450" result="shape"/>
</filter>
<filter id="filter5_bd_703_5450" x="-246.83" y="261.668" width="886.098" height="536" filterUnits="userSpaceOnUse" color-interpolation-filters="sRGB">
<feFlood flood-opacity="0" result="BackgroundImageFix"/>
<feGaussianBlur in="BackgroundImageFix" stdDeviation="2"/>
<feComposite in2="SourceAlpha" operator="in" result="effect1_backgroundBlur_703_5450"/>
<feColorMatrix in="SourceAlpha" type="matrix" values="0 0 0 0 0 0 0 0 0 0 0 0 0 0 0 0 0 0 127 0" result="hardAlpha"/>
<feOffset dx="19" dy="32"/>
<feGaussianBlur stdDeviation="2"/>
<feComposite in2="hardAlpha" operator="out"/>
<feColorMatrix type="matrix" values="0 0 0 0 0.00882395 0 0 0 0 0 0 0 0 0 0.441198 0 0 0 0.05 0"/>
<feBlend mode="normal" in2="effect1_backgroundBlur_703_5450" result="effect2_dropShadow_703_5450"/>
<feBlend mode="normal" in="SourceGraphic" in2="effect2_dropShadow_703_5450" result="shape"/>
</filter>
<filter id="filter6_bd_703_5450" x="253.561" y="262.027" width="365.443" height="214.369" filterUnits="userSpaceOnUse" color-interpolation-filters="sRGB">
<feFlood flood-opacity="0" result="BackgroundImageFix"/>
<feGaussianBlur in="BackgroundImageFix" stdDeviation="2"/>
<feComposite in2="SourceAlpha" operator="in" result="effect1_backgroundBlur_703_5450"/>
<feColorMatrix in="SourceAlpha" type="matrix" values="0 0 0 0 0 0 0 0 0 0 0 0 0 0 0 0 0 0 127 0" result="hardAlpha"/>
<feOffset dy="1"/>
<feGaussianBlur stdDeviation="1"/>
<feComposite in2="hardAlpha" operator="out"/>
<feColorMatrix type="matrix" values="0 0 0 0 0.0938572 0 0 0 0 0 0 0 0 0 0.36099 0 0 0 0.25 0"/>
<feBlend mode="normal" in2="effect1_backgroundBlur_703_5450" result="effect2_dropShadow_703_5450"/>
<feBlend mode="normal" in="SourceGraphic" in2="effect2_dropShadow_703_5450" result="shape"/>
</filter>
<filter id="filter7_d_703_5450" x="218.686" y="362.244" width="141.043" height="96.8125" filterUnits="userSpaceOnUse" color-interpolation-filters="sRGB">
<feFlood flood-opacity="0" result="BackgroundImageFix"/>
<feColorMatrix in="SourceAlpha" type="matrix" values="0 0 0 0 0 0 0 0 0 0 0 0 0 0 0 0 0 0 127 0" result="hardAlpha"/>
<feOffset dy="16"/>
<feGaussianBlur stdDeviation="2"/>
<feComposite in2="hardAlpha" operator="out"/>
<feColorMatrix type="matrix" values="0 0 0 0 0.103333 0 0 0 0 0.0322917 0 0 0 0 0.3875 0 0 0 0.13 0"/>
<feBlend mode="normal" in2="BackgroundImageFix" result="effect1_dropShadow_703_5450"/>
<feBlend mode="normal" in="SourceGraphic" in2="effect1_dropShadow_703_5450" result="shape"/>
</filter>
<filter id="filter8_bd_703_5450" x="218.686" y="358.244" width="160.043" height="116.812" filterUnits="userSpaceOnUse" color-interpolation-filters="sRGB">
<feFlood flood-opacity="0" result="BackgroundImageFix"/>
<feGaussianBlur in="BackgroundImageFix" stdDeviation="2"/>
<feComposite in2="SourceAlpha" operator="in" result="effect1_backgroundBlur_703_5450"/>
<feColorMatrix in="SourceAlpha" type="matrix" values="0 0 0 0 0 0 0 0 0 0 0 0 0 0 0 0 0 0 127 0" result="hardAlpha"/>
<feOffset dx="19" dy="32"/>
<feGaussianBlur stdDeviation="2"/>
<feComposite in2="hardAlpha" operator="out"/>
<feColorMatrix type="matrix" values="0 0 0 0 0.00882395 0 0 0 0 0 0 0 0 0 0.441198 0 0 0 0.05 0"/>
<feBlend mode="normal" in2="effect1_backgroundBlur_703_5450" result="effect2_dropShadow_703_5450"/>
<feBlend mode="normal" in="SourceGraphic" in2="effect2_dropShadow_703_5450" result="shape"/>
</filter>
<filter id="filter9_b_703_5450" x="244.83" y="349.152" width="120.143" height="84.5801" filterUnits="userSpaceOnUse" color-interpolation-filters="sRGB">
<feFlood flood-opacity="0" result="BackgroundImageFix"/>
<feGaussianBlur in="BackgroundImageFix" stdDeviation="9"/>
<feComposite in2="SourceAlpha" operator="in" result="effect1_backgroundBlur_703_5450"/>
<feBlend mode="normal" in="SourceGraphic" in2="effect1_backgroundBlur_703_5450" result="shape"/>
</filter>
<filter id="filter10_bd_703_5450" x="132.914" y="407.764" width="160.043" height="116.812" filterUnits="userSpaceOnUse" color-interpolation-filters="sRGB">
<feFlood flood-opacity="0" result="BackgroundImageFix"/>
<feGaussianBlur in="BackgroundImageFix" stdDeviation="2"/>
<feComposite in2="SourceAlpha" operator="in" result="effect1_backgroundBlur_703_5450"/>
<feColorMatrix in="SourceAlpha" type="matrix" values="0 0 0 0 0 0 0 0 0 0 0 0 0 0 0 0 0 0 127 0" result="hardAlpha"/>
<feOffset dx="19" dy="32"/>
<feGaussianBlur stdDeviation="2"/>
<feComposite in2="hardAlpha" operator="out"/>
<feColorMatrix type="matrix" values="0 0 0 0 0.00882395 0 0 0 0 0 0 0 0 0 0.441198 0 0 0 0.05 0"/>
<feBlend mode="normal" in2="effect1_backgroundBlur_703_5450" result="effect2_dropShadow_703_5450"/>
<feBlend mode="normal" in="SourceGraphic" in2="effect2_dropShadow_703_5450" result="shape"/>
</filter>
<filter id="filter11_b_703_5450" x="159.059" y="398.672" width="120.143" height="84.5801" filterUnits="userSpaceOnUse" color-interpolation-filters="sRGB">
<feFlood flood-opacity="0" result="BackgroundImageFix"/>
<feGaussianBlur in="BackgroundImageFix" stdDeviation="9"/>
<feComposite in2="SourceAlpha" operator="in" result="effect1_backgroundBlur_703_5450"/>
<feBlend mode="normal" in="SourceGraphic" in2="effect1_backgroundBlur_703_5450" result="shape"/>
</filter>
<filter id="filter12_bd_703_5450" x="300.506" y="405.482" width="160.043" height="116.812" filterUnits="userSpaceOnUse" color-interpolation-filters="sRGB">
<feFlood flood-opacity="0" result="BackgroundImageFix"/>
<feGaussianBlur in="BackgroundImageFix" stdDeviation="2"/>
<feComposite in2="SourceAlpha" operator="in" result="effect1_backgroundBlur_703_5450"/>
<feColorMatrix in="SourceAlpha" type="matrix" values="0 0 0 0 0 0 0 0 0 0 0 0 0 0 0 0 0 0 127 0" result="hardAlpha"/>
<feOffset dx="19" dy="32"/>
<feGaussianBlur stdDeviation="2"/>
<feComposite in2="hardAlpha" operator="out"/>
<feColorMatrix type="matrix" values="0 0 0 0 0.00882395 0 0 0 0 0 0 0 0 0 0.441198 0 0 0 0.05 0"/>
<feBlend mode="normal" in2="effect1_backgroundBlur_703_5450" result="effect2_dropShadow_703_5450"/>
<feBlend mode="normal" in="SourceGraphic" in2="effect2_dropShadow_703_5450" result="shape"/>
</filter>
<filter id="filter13_bd_703_5450" x="214.734" y="455.002" width="160.043" height="116.812" filterUnits="userSpaceOnUse" color-interpolation-filters="sRGB">
<feFlood flood-opacity="0" result="BackgroundImageFix"/>
<feGaussianBlur in="BackgroundImageFix" stdDeviation="2"/>
<feComposite in2="SourceAlpha" operator="in" result="effect1_backgroundBlur_703_5450"/>
<feColorMatrix in="SourceAlpha" type="matrix" values="0 0 0 0 0 0 0 0 0 0 0 0 0 0 0 0 0 0 127 0" result="hardAlpha"/>
<feOffset dx="19" dy="32"/>
<feGaussianBlur stdDeviation="2"/>
<feComposite in2="hardAlpha" operator="out"/>
<feColorMatrix type="matrix" values="0 0 0 0 0.00882395 0 0 0 0 0 0 0 0 0 0.441198 0 0 0 0.05 0"/>
<feBlend mode="normal" in2="effect1_backgroundBlur_703_5450" result="effect2_dropShadow_703_5450"/>
<feBlend mode="normal" in="SourceGraphic" in2="effect2_dropShadow_703_5450" result="shape"/>
</filter>
<filter id="filter14_bd_703_5450" x="382.324" y="452.721" width="160.043" height="116.812" filterUnits="userSpaceOnUse" color-interpolation-filters="sRGB">
<feFlood flood-opacity="0" result="BackgroundImageFix"/>
<feGaussianBlur in="BackgroundImageFix" stdDeviation="2"/>
<feComposite in2="SourceAlpha" operator="in" result="effect1_backgroundBlur_703_5450"/>
<feColorMatrix in="SourceAlpha" type="matrix" values="0 0 0 0 0 0 0 0 0 0 0 0 0 0 0 0 0 0 127 0" result="hardAlpha"/>
<feOffset dx="19" dy="32"/>
<feGaussianBlur stdDeviation="2"/>
<feComposite in2="hardAlpha" operator="out"/>
<feColorMatrix type="matrix" values="0 0 0 0 0.00882395 0 0 0 0 0 0 0 0 0 0.441198 0 0 0 0.05 0"/>
<feBlend mode="normal" in2="effect1_backgroundBlur_703_5450" result="effect2_dropShadow_703_5450"/>
<feBlend mode="normal" in="SourceGraphic" in2="effect2_dropShadow_703_5450" result="shape"/>
</filter>
<filter id="filter15_bd_703_5450" x="296.553" y="502.24" width="160.043" height="116.812" filterUnits="userSpaceOnUse" color-interpolation-filters="sRGB">
<feFlood flood-opacity="0" result="BackgroundImageFix"/>
<feGaussianBlur in="BackgroundImageFix" stdDeviation="2"/>
<feComposite in2="SourceAlpha" operator="in" result="effect1_backgroundBlur_703_5450"/>
<feColorMatrix in="SourceAlpha" type="matrix" values="0 0 0 0 0 0 0 0 0 0 0 0 0 0 0 0 0 0 127 0" result="hardAlpha"/>
<feOffset dx="19" dy="32"/>
<feGaussianBlur stdDeviation="2"/>
<feComposite in2="hardAlpha" operator="out"/>
<feColorMatrix type="matrix" values="0 0 0 0 0.00882395 0 0 0 0 0 0 0 0 0 0.441198 0 0 0 0.05 0"/>
<feBlend mode="normal" in2="effect1_backgroundBlur_703_5450" result="effect2_dropShadow_703_5450"/>
<feBlend mode="normal" in="SourceGraphic" in2="effect2_dropShadow_703_5450" result="shape"/>
</filter>
<filter id="filter16_b_703_5450" x="94.1699" y="505.359" width="256.203" height="151.301" filterUnits="userSpaceOnUse" color-interpolation-filters="sRGB">
<feFlood flood-opacity="0" result="BackgroundImageFix"/>
<feGaussianBlur in="BackgroundImageFix" stdDeviation="2"/>
<feComposite in2="SourceAlpha" operator="in" result="effect1_backgroundBlur_703_5450"/>
<feBlend mode="normal" in="SourceGraphic" in2="effect1_backgroundBlur_703_5450" result="shape"/>
</filter>
<linearGradient id="paint0_linear_703_5450" x1="221.234" y1="295.611" x2="221.234" y2="533.297" gradientUnits="userSpaceOnUse">
<stop offset="0.453125" stop-color="#3C46F4" stop-opacity="0"/>
<stop offset="0.71875" stop-color="#94CAFB" stop-opacity="0.91"/>
</linearGradient>
<linearGradient id="paint1_linear_703_5450" x1="195" y1="0" x2="195" y2="602" gradientUnits="userSpaceOnUse">
<stop stop-color="#77ABFF"/>
<stop offset="1" stop-color="#2A7AFF" stop-opacity="0.13"/>
</linearGradient>
<linearGradient id="paint2_linear_703_5450" x1="195.084" y1="0" x2="195.084" y2="24.9141" gradientUnits="userSpaceOnUse">
<stop stop-color="#B1CFFF"/>
<stop offset="1" stop-color="#D4E4FF" stop-opacity="0.13"/>
</linearGradient>
<linearGradient id="paint3_linear_703_5450" x1="127.717" y1="24.6567" x2="23.1812" y2="24.6567" gradientUnits="userSpaceOnUse">
<stop stop-color="#71FFE2"/>
<stop offset="1" stop-color="#71FFE2" stop-opacity="0"/>
</linearGradient>
<linearGradient id="paint4_linear_703_5450" x1="38.3975" y1="0" x2="38.3975" y2="80.3447" gradientUnits="userSpaceOnUse">
<stop stop-color="#77ABFF"/>
<stop offset="1" stop-color="#2A7AFF" stop-opacity="0.13"/>
</linearGradient>
<linearGradient id="paint5_linear_703_5450" x1="38.3975" y1="0" x2="38.3975" y2="80.3447" gradientUnits="userSpaceOnUse">
<stop stop-color="#FDFCFC" stop-opacity="0.69"/>
<stop offset="1" stop-color="#FDFCFC" stop-opacity="0"/>
</linearGradient>
<linearGradient id="paint6_linear_703_5450" x1="38.3975" y1="0" x2="38.3975" y2="80.3447" gradientUnits="userSpaceOnUse">
<stop stop-color="#77ABFF"/>
<stop offset="1" stop-color="#2A7AFF" stop-opacity="0.13"/>
</linearGradient>
<linearGradient id="paint7_linear_703_5450" x1="38.3975" y1="0" x2="38.3975" y2="80.3447" gradientUnits="userSpaceOnUse">
<stop stop-color="#FDFCFC" stop-opacity="0.69"/>
<stop offset="1" stop-color="#FDFCFC" stop-opacity="0"/>
</linearGradient>
<linearGradient id="paint8_linear_703_5450" x1="38.3975" y1="0" x2="38.3975" y2="80.3447" gradientUnits="userSpaceOnUse">
<stop stop-color="#77ABFF"/>
<stop offset="1" stop-color="#2A7AFF" stop-opacity="0.13"/>
</linearGradient>
<linearGradient id="paint9_linear_703_5450" x1="38.3975" y1="0" x2="38.3975" y2="80.3447" gradientUnits="userSpaceOnUse">
<stop stop-color="#FDFCFC" stop-opacity="0.69"/>
<stop offset="1" stop-color="#FDFCFC" stop-opacity="0"/>
</linearGradient>
<linearGradient id="paint10_linear_703_5450" x1="38.3975" y1="0" x2="38.3975" y2="80.3447" gradientUnits="userSpaceOnUse">
<stop stop-color="#77ABFF"/>
<stop offset="1" stop-color="#2A7AFF" stop-opacity="0.13"/>
</linearGradient>
<linearGradient id="paint11_linear_703_5450" x1="38.3975" y1="0" x2="38.3975" y2="80.3447" gradientUnits="userSpaceOnUse">
<stop stop-color="#FDFCFC" stop-opacity="0.69"/>
<stop offset="1" stop-color="#FDFCFC" stop-opacity="0"/>
</linearGradient>
<linearGradient id="paint12_linear_703_5450" x1="38.3975" y1="0" x2="38.3975" y2="80.3447" gradientUnits="userSpaceOnUse">
<stop stop-color="#77ABFF"/>
<stop offset="1" stop-color="#2A7AFF" stop-opacity="0.13"/>
</linearGradient>
<linearGradient id="paint13_linear_703_5450" x1="38.3975" y1="0" x2="38.3975" y2="80.3447" gradientUnits="userSpaceOnUse">
<stop stop-color="#FDFCFC" stop-opacity="0.69"/>
<stop offset="1" stop-color="#FDFCFC" stop-opacity="0"/>
</linearGradient>
<linearGradient id="paint14_linear_703_5450" x1="38.3975" y1="0" x2="38.3975" y2="80.3447" gradientUnits="userSpaceOnUse">
<stop stop-color="#77ABFF"/>
<stop offset="1" stop-color="#2A7AFF" stop-opacity="0.13"/>
</linearGradient>
<linearGradient id="paint15_linear_703_5450" x1="38.3975" y1="0" x2="38.3975" y2="80.3447" gradientUnits="userSpaceOnUse">
<stop stop-color="#FDFCFC" stop-opacity="0.69"/>
<stop offset="1" stop-color="#FDFCFC" stop-opacity="0"/>
</linearGradient>
<linearGradient id="paint16_linear_703_5450" x1="85.6357" y1="0" x2="85.6357" y2="118.844" gradientUnits="userSpaceOnUse">
<stop stop-color="#77ABFF"/>
<stop offset="1" stop-color="#2A7AFF" stop-opacity="0.13"/>
</linearGradient>
<linearGradient id="paint17_linear_703_5450" x1="85.6357" y1="0" x2="85.6357" y2="118.844" gradientUnits="userSpaceOnUse">
<stop stop-color="#FDFCFC" stop-opacity="0.69"/>
<stop offset="1" stop-color="#FDFCFC" stop-opacity="0"/>
</linearGradient>
<linearGradient id="paint18_linear_703_5450" x1="195" y1="0" x2="195" y2="602" gradientUnits="userSpaceOnUse">
<stop stop-color="#FDFCFC" stop-opacity="0.69"/>
<stop offset="1" stop-color="#FDFCFC" stop-opacity="0"/>
</linearGradient>
<clipPath id="clip0_703_5450">
<rect width="393" height="508" fill="white" transform="translate(0 0.751953)"/>
</clipPath>
<clipPath id="clip1_703_5450">
<rect width="390" height="602" rx="7" transform="matrix(0.866025 0.5 -0.866025 0.5 278.518 265.668)" fill="white"/>
</clipPath>
<clipPath id="clip2_703_5450">
<rect width="64.9668" height="32.1924" fill="white" transform="matrix(0.866025 0.5 -0.866025 0.5 290.709 367.152)"/>
</clipPath>
<clipPath id="clip3_703_5450">
<rect width="64.9668" height="32.1924" fill="white" transform="matrix(0.866025 0.5 -0.866025 0.5 204.938 416.672)"/>
</clipPath>
</defs>
</svg>
