<svg width="280" height="168" viewBox="0 0 280 168" fill="none" xmlns="http://www.w3.org/2000/svg">
<path fill-rule="evenodd" clip-rule="evenodd" d="M220.88 71.991L155.47 33.6082C146.93 28.5975 133.086 28.5975 124.547 33.6082L59.1357 71.991L27.0013 71.991L27.0013 96.1727L27.0972 96.1727C27.1259 99.4341 29.2606 102.69 33.5012 105.179L124.547 158.604C133.086 163.614 146.93 163.614 155.47 158.604L246.515 105.179C250.756 102.69 252.89 99.434 252.919 96.1726L252.983 96.1727L252.983 71.991L220.88 71.991Z" fill="url(#paint0_linear_50_463)"/>
<g filter="url(#filter0_b_50_463)">
<rect width="141.993" height="141.993" rx="18" transform="matrix(0.858971 0.50404 -0.858971 0.50404 140.01 0.421875)" fill="url(#paint1_linear_50_463)"/>
<rect x="-2.98023e-08" y="0.50404" width="140.993" height="140.993" rx="17.5" transform="matrix(0.858971 0.50404 -0.858971 0.50404 140.443 0.671859)" stroke="white"/>
</g>
<path d="M120.993 52.0206C119.995 52.4473 121.229 52.4416 121.229 52.4416C126.906 52.0462 129.291 47.2839 129.291 47.2839C129.525 46.714 129.7 46.1779 129.816 45.6622C144.342 44.1278 159.901 46.6054 171.168 53.1107C188.499 63.1168 189.318 79.0264 173.653 89.5527C170.264 83.9367 155.276 84.3373 155.276 84.3373L149.681 84.3188C132.788 84.2968 130.421 82.8491 131.133 81.024C131.133 81.024 131.891 78.6288 139.693 77.387C149.129 75.8955 149.822 71.1588 149.822 71.1588C153.359 57.6014 120.21 58.3047 120.21 58.3047C108.96 58.2879 103.28 57.4344 100.421 56.4749C101.91 55.2749 103.565 54.1293 105.431 53.0519C109.387 50.7682 113.884 48.9872 118.677 47.7019C124.536 49.3632 121.627 51.7497 120.981 52.0274L120.993 52.0206Z" fill="#76C4D5"/>
<path d="M120.23 69.972C133.479 69.9907 139.254 71.1564 141.526 72.4548C141.75 72.6111 143.423 73.8207 141.144 74.7145C139.148 75.4865 125.291 76.5396 125.289 84.5619C126.845 94.9068 149.707 93.7803 149.707 93.7803C155.949 93.9148 164.447 93.522 163.428 94.6817C145.46 101.303 121.287 100.074 105.557 90.992C93.4537 84.0041 89.395 74.1388 93.3797 65.231C101.27 70.3691 120.23 69.972 120.23 69.972Z" fill="#007496"/>
<defs>
<filter id="filter0_b_50_463" x="3.09924" y="-18.2637" width="273.822" height="180.512" filterUnits="userSpaceOnUse" color-interpolation-filters="sRGB">
<feFlood flood-opacity="0" result="BackgroundImageFix"/>
<feGaussianBlur in="BackgroundImageFix" stdDeviation="12"/>
<feComposite in2="SourceAlpha" operator="in" result="effect1_backgroundBlur_50_463"/>
<feBlend mode="normal" in="SourceGraphic" in2="effect1_backgroundBlur_50_463" result="shape"/>
</filter>
<linearGradient id="paint0_linear_50_463" x1="257.017" y1="86.3154" x2="23.9865" y2="79.1043" gradientUnits="userSpaceOnUse">
<stop offset="0.385533" stop-color="#BCDBEE"/>
<stop offset="0.513417" stop-color="#CDE4F2"/>
<stop offset="0.613176" stop-color="#9FCDF2"/>
</linearGradient>
<linearGradient id="paint1_linear_50_463" x1="136.722" y1="5.27146" x2="4.10754" y2="137.886" gradientUnits="userSpaceOnUse">
<stop offset="0.421875" stop-color="#EEEEEE"/>
<stop offset="0.688098" stop-color="white"/>
</linearGradient>
</defs>
</svg>
