<svg width="68" height="47" viewBox="0 0 68 47" fill="none" xmlns="http://www.w3.org/2000/svg">
<g clip-path="url(#clip0_335_492)">
<path d="M57.3459 23.252C53.7096 23.252 51.1252 24.7651 49.4873 27.132C47.9662 29.3227 47.252 32.2391 47.252 35.3637C47.252 38.4884 47.9524 40.8885 49.1748 42.7679C50.8837 45.3912 53.6134 46.8185 56.9029 46.8185C64.417 46.8185 67.0414 40.3197 67.0414 34.709C67.0414 30.0781 65.1678 23.3527 57.5233 23.2542C57.4626 23.2531 57.4042 23.2531 57.3459 23.2531M57.1295 42.1922C55.6542 42.1922 54.6699 41.106 54.2418 39.3685C53.9785 38.1862 53.9488 36.9375 53.9488 35.7265C53.9488 33.4958 54.0781 30.5714 54.932 29.1304C55.5523 28.1129 56.5069 27.7192 57.2623 27.7192C58.8372 27.7192 59.6579 28.9965 59.9841 30.4078C60.3137 31.8213 60.3801 34.281 60.3801 35.2985C60.3801 38.5158 59.8879 42.1922 57.1295 42.1922Z" fill="#1D1D1B"/>
<path d="M33.7244 27.1377C32.296 24.899 29.9279 23.2233 26.1417 23.1741C22.9953 23.1306 20.6272 24.2099 18.9607 25.9909L18.7066 28.3933H17.3148C16.7997 29.4337 16.4289 30.5863 16.1897 31.8133C18.4525 33.1112 19.8889 35.3568 19.8889 38.1713C19.8889 39.9923 19.2606 41.8316 18.187 43.2498C19.9061 45.516 22.4733 46.7372 25.5179 46.7372C29.2846 46.7372 31.8198 45.1062 33.4165 42.7748C32.1895 40.892 31.4914 38.398 31.4914 35.366C31.4914 32.3341 32.2079 29.325 33.7244 27.1377ZM25.7479 42.1121C24.2715 42.1121 23.2871 41.0259 22.8602 39.2884C22.597 38.1061 22.5672 36.8619 22.5672 35.6464C22.5672 33.4134 22.6954 30.4936 23.5492 29.0503C24.1742 28.0316 25.1253 27.6391 25.8796 27.6391C27.4556 27.6391 28.2751 28.9187 28.6025 30.3288C28.9321 31.74 28.9974 34.2008 28.9974 35.2184C28.9974 38.4369 28.5075 42.1109 25.7479 42.1109" fill="#FFDD00"/>
<path d="M41.5006 27.721C40.7452 27.721 39.7963 28.1147 39.1714 29.1322C38.3164 30.5755 38.1882 33.4941 38.1882 35.7283C38.1882 36.9427 38.2214 38.1891 38.4835 39.3703C38.9093 41.1112 39.8948 42.1928 41.3724 42.1928C44.1285 42.1928 44.6218 38.5188 44.6218 35.3003C44.6218 34.2827 44.5543 31.8231 44.2269 30.4118C43.8996 28.9994 43.0778 27.721 41.5017 27.721M41.1412 46.8214C37.8551 46.8214 35.1242 45.3965 33.4188 42.7743C35.0052 40.4508 35.6587 37.428 35.6587 34.6295C35.6587 32.2912 35.1837 29.4218 33.7256 27.1372C35.3692 24.7703 37.9501 23.2549 41.5876 23.2549C41.6459 23.2549 41.7066 23.2549 41.765 23.256C45.5867 23.3041 47.9651 25.0095 49.3889 27.2803C47.9365 29.4527 47.2532 32.3095 47.2532 35.3632C47.2532 38.4169 47.9387 40.8365 49.1394 42.7079C47.5496 45.1195 44.9846 46.8203 41.1412 46.8203" fill="#0075BF"/>
<path d="M49.1371 42.7091C47.9364 40.8378 47.2509 38.361 47.2509 35.3645C47.2509 32.368 47.9353 29.4528 49.3866 27.2793C50.8127 29.5547 51.2809 32.3955 51.2809 34.7098C51.2809 37.4522 50.6536 40.4051 49.1371 42.7091Z" fill="#0075BF"/>
<path d="M33.7244 27.1369C32.2079 29.3253 31.4937 32.2405 31.4937 35.3674C31.4937 38.4944 32.1918 40.8922 33.4165 42.7739C35.0063 40.4504 35.6587 37.4277 35.6587 34.6269C35.6587 32.292 35.1814 29.4203 33.7244 27.1357" fill="#6AA426"/>
<path d="M16.1897 31.814C14.8151 31.0265 13.136 30.5916 11.291 30.5916C10.0755 30.5916 8.59898 30.8217 7.61465 31.2165C7.3846 31.3138 7.15454 31.4443 6.92563 31.5771L7.25412 28.3929H17.316C17.7578 27.5001 18.3037 26.6909 18.9596 25.9893L19.1999 23.7002H2.46183L1.21426 35.9092L6.82605 36.5983C7.21978 36.0077 7.74514 35.155 9.5833 35.155C11.9125 35.155 13.0284 36.6315 13.0284 38.6665C13.0284 40.4394 12.0773 42.1769 9.68288 42.1769C8.33687 42.1769 7.25412 41.5554 6.85924 40.2735C6.69443 39.7481 6.69443 39.1907 6.69443 38.6322L-0.00012207 39.3212C0.362704 41.0254 0.688905 42.6027 2.13334 44.1135C4.69259 46.7059 8.43531 46.7059 9.64854 46.7059C11.552 46.7059 15.0646 46.5411 17.5254 44.015C17.7623 43.7781 17.9821 43.5217 18.187 43.2493C16.7197 41.3162 15.8692 38.6241 15.8692 35.2832C15.8692 34.0871 15.9745 32.9208 16.1897 31.8129" fill="#DD2515"/>
<path d="M18.7066 28.3927L18.9584 25.9902C18.3037 26.6896 17.7566 27.4999 17.3148 28.3927H18.7066Z" fill="#F07E26"/>
<path d="M16.1897 31.8135C15.9746 32.9214 15.8693 34.0877 15.8693 35.2838C15.8693 38.6248 16.7197 41.3156 18.187 43.25C19.2629 41.8318 19.889 39.9925 19.889 38.1715C19.889 35.3548 18.4514 33.1091 16.1897 31.8135Z" fill="#F07E26"/>
<path d="M5.95386 19.5405V15.3881H8.44214V4.95194H5.95386V0.482422H19.2171V4.95194H16.7299V15.3846H19.2171V19.5405H5.95386Z" fill="#1D1D1B"/>
<path d="M31.1881 19.5405V15.3858H33.1109V11.0364C33.1109 9.72592 32.177 9.13876 30.9752 9.13876C29.4506 9.13876 28.3015 10.2616 28.3015 11.7838V15.3858H30.2804V19.5405H19.9038V15.3858H21.7775V9.1193H19.9038V4.95996H28.0863V7.82824C28.2202 7.72065 28.3541 7.56041 28.4606 7.42649C29.9576 5.71423 31.6699 5.10074 33.9155 5.10074C37.0688 5.10074 39.6372 6.3838 39.6372 9.8873V15.3835H41.3209V19.5394H31.1881V19.5405Z" fill="#1D1D1B"/>
<path d="M57.8198 11.1112L52.2206 11.727C52.1519 10.1727 51.8326 8.53021 49.9383 8.53021C47.5324 8.53021 47.3459 10.5355 47.3459 12.4618V12.5018C47.3459 14.427 47.5324 16.4323 49.9383 16.4323C51.2019 16.4323 52.3167 15.7089 52.3167 14.1775H52.4998L57.893 14.1821L57.8472 14.6628C56.9259 19.1964 52.8352 19.906 49.8845 19.906C45.2605 19.906 40.7131 17.6341 40.7131 12.4732V12.4881C40.7131 7.32727 45.2605 5.05532 49.8845 5.05532C49.8845 5.05532 57.1365 4.5849 57.8198 11.1123" fill="#1D1D1B"/>
<path d="M62.1565 17.2483C62.1565 18.5531 61.099 19.6095 59.7953 19.6095C58.4917 19.6095 57.4341 18.5519 57.4341 17.2483C57.4341 15.9446 58.4917 14.8848 59.7953 14.8848C61.099 14.8848 62.1565 15.9435 62.1565 17.2483Z" fill="#1D1D1B"/>
</g>
<defs>
<clipPath id="clip0_335_492">
<rect width="67.0416" height="46.3388" fill="white" transform="translate(-0.00012207 0.482422)"/>
</clipPath>
</defs>
</svg>
