<svg width="86" height="20" viewBox="0 0 86 20" fill="none" xmlns="http://www.w3.org/2000/svg">
<path d="M0.572876 7.84257H8.34034H13.0573V3.16797L0.572876 7.84257Z" fill="#FF9D28"/>
<path d="M13.0573 3.16798V19.6915L18.9605 0.964844L13.0573 3.16798Z" fill="#68C5ED"/>
<path d="M13.0573 7.8418H8.34033L13.0573 19.6766V7.8418Z" fill="#044D80"/>
<path d="M0.572876 7.8418L9.55489 10.8782L8.34034 7.8418H0.572876Z" fill="#E54747"/>
<path d="M29.1855 15.3282C29.1149 15.3988 29.0019 15.4835 28.8466 15.5824C28.6912 15.6812 28.4794 15.7942 28.2252 15.8931C27.971 15.9919 27.6603 16.0908 27.279 16.1614C26.9118 16.232 26.4881 16.2744 26.0079 16.2744C25.0899 16.2744 24.285 16.119 23.6071 15.8366C22.9292 15.54 22.3784 15.1305 21.9406 14.5938C21.5028 14.0571 21.178 13.4357 20.9803 12.7155C20.7684 11.9952 20.6696 11.1902 20.6696 10.3288C20.6696 9.46727 20.7825 8.66228 21.0085 7.9279C21.2345 7.19352 21.5593 6.558 22.0112 6.02134C22.449 5.48468 23.0139 5.061 23.6777 4.76443C24.3414 4.46785 25.1323 4.3125 26.0362 4.3125C26.474 4.3125 26.8835 4.35487 27.2366 4.42548C27.5897 4.51022 27.9145 4.59495 28.1828 4.70793C28.4511 4.82091 28.6771 4.9339 28.8466 5.04688C29.0302 5.15986 29.1573 5.27284 29.242 5.34345C29.3409 5.42819 29.4397 5.54117 29.5103 5.66828C29.581 5.79538 29.6233 5.93661 29.6233 6.07783C29.6233 6.30379 29.5386 6.52976 29.3691 6.75572C29.1996 6.98168 29.016 7.19352 28.8042 7.39124C28.663 7.25001 28.5076 7.10878 28.3382 6.96756C28.1687 6.82633 27.971 6.69923 27.7591 6.58625C27.5473 6.47327 27.3072 6.38853 27.0389 6.31792C26.7705 6.24731 26.474 6.20494 26.135 6.20494C25.556 6.20494 25.0617 6.31792 24.6663 6.558C24.2708 6.79809 23.9601 7.09466 23.7201 7.47597C23.48 7.85729 23.3105 8.28097 23.2116 8.76114C23.1128 9.24131 23.0563 9.7356 23.0563 10.244C23.0563 10.7807 23.1128 11.2891 23.2116 11.7834C23.3105 12.2777 23.4941 12.7014 23.7483 13.0827C24.0025 13.464 24.3273 13.7606 24.7369 13.9865C25.1464 14.2125 25.6407 14.3255 26.248 14.3255C26.5728 14.3255 26.8553 14.2831 27.1236 14.2125C27.3919 14.1277 27.632 14.0289 27.8297 13.9159C28.0416 13.8029 28.2111 13.6758 28.3664 13.5628C28.5218 13.4357 28.6489 13.3228 28.7477 13.238C28.8183 13.3228 28.8889 13.4216 28.9878 13.5346C29.0867 13.6476 29.1714 13.7747 29.242 13.8877C29.3267 14.0148 29.3832 14.1419 29.4538 14.269C29.5103 14.3961 29.5386 14.5091 29.5386 14.6079C29.5386 14.7633 29.5103 14.8762 29.4538 14.9892C29.3974 15.0881 29.2985 15.2011 29.1855 15.3282ZM37.9981 14.0148C37.9981 14.9186 38.1252 15.5824 38.3935 15.9919C38.1817 16.0767 37.9981 16.1332 37.8145 16.1614C37.6309 16.1897 37.4473 16.2179 37.2496 16.2179C36.84 16.2179 36.5293 16.1332 36.3175 15.9778C36.1056 15.8225 35.9644 15.5824 35.9079 15.2858C35.6537 15.5541 35.3289 15.7801 34.9052 15.9637C34.4956 16.1473 33.9872 16.232 33.3941 16.232C33.0834 16.232 32.7727 16.1897 32.462 16.1049C32.1513 16.0202 31.8688 15.879 31.6146 15.6812C31.3604 15.4835 31.1627 15.2293 30.9932 14.9045C30.8379 14.5797 30.7531 14.1842 30.7531 13.7182C30.7531 13.1392 30.8944 12.659 31.1768 12.2918C31.4593 11.9246 31.8123 11.6422 32.236 11.4303C32.6597 11.2185 33.1257 11.0773 33.6059 10.9925C34.1002 10.9078 34.5521 10.8654 34.9617 10.8372C35.1029 10.823 35.23 10.823 35.3712 10.823H35.7384V10.5123C35.7384 10.0745 35.6255 9.76385 35.3854 9.56613C35.1453 9.38254 34.764 9.28368 34.2414 9.28368C33.7471 9.28368 33.3093 9.36841 32.928 9.52376C32.5467 9.67911 32.1654 9.8627 31.7982 10.0745C31.6429 9.87683 31.5016 9.66499 31.4169 9.4249C31.318 9.18482 31.2757 9.01535 31.2757 8.90236C31.2757 8.74701 31.3604 8.59167 31.544 8.43632C31.7276 8.28097 31.9677 8.15386 32.2784 8.02676C32.5891 7.89965 32.9421 7.81492 33.3517 7.73019C33.7471 7.65957 34.1708 7.6172 34.6227 7.6172C35.2441 7.6172 35.7667 7.67369 36.1904 7.8008C36.614 7.9279 36.9671 8.12562 37.2354 8.37982C37.5038 8.64815 37.7015 8.97298 37.8145 9.36841C37.9274 9.76384 37.9839 10.2299 37.9839 10.7524L37.9981 14.0148ZM35.7949 12.0235H35.5548C35.4701 12.0235 35.3995 12.0235 35.3148 12.0376C35.0323 12.0658 34.7498 12.0941 34.4674 12.1365C34.1849 12.1788 33.9307 12.2636 33.7189 12.3765C33.5071 12.4895 33.3235 12.6449 33.1822 12.8285C33.041 13.0121 32.9704 13.2521 32.9704 13.5346C32.9704 13.8594 33.0551 14.1277 33.2387 14.3537C33.4223 14.5797 33.733 14.6927 34.1708 14.6927C34.3827 14.6927 34.5945 14.6644 34.7922 14.6079C34.9899 14.5514 35.1594 14.4808 35.3148 14.382C35.4701 14.2831 35.5831 14.1842 35.6678 14.0854C35.7526 13.9724 35.7949 13.8735 35.7949 13.7888V12.0235ZM42.2772 8.63403C42.4608 8.42219 42.7433 8.19623 43.1387 7.97027C43.5341 7.74431 44.0143 7.63132 44.6075 7.63132C45.0311 7.63132 45.4407 7.70194 45.822 7.84316C46.2033 7.98439 46.5423 8.22448 46.8388 8.53517C47.1354 8.86 47.3755 9.28368 47.545 9.80621C47.7286 10.3288 47.8133 10.9784 47.8133 11.7551C47.8133 12.6449 47.7145 13.3934 47.5026 13.9724C47.2908 14.5514 47.0366 15.0175 46.7117 15.3423C46.3869 15.6812 46.0197 15.9213 45.6243 16.0626C45.2289 16.2038 44.8193 16.2744 44.4239 16.2744C44.099 16.2744 43.8025 16.232 43.5624 16.1614C43.3223 16.0908 43.1105 16.0061 42.941 15.9072C42.7715 15.8225 42.6444 15.7236 42.5456 15.6389C42.4608 15.5541 42.3902 15.4835 42.3761 15.4553V19.6921H40.0317V7.88553C40.0882 7.87141 40.1588 7.85729 40.2436 7.85729C40.3142 7.84317 40.3989 7.84316 40.4836 7.82904C40.5825 7.82904 40.6814 7.81492 40.8085 7.81492C41.1898 7.81492 41.5146 7.87141 41.7829 7.99851C42.0371 8.12562 42.2066 8.33746 42.2772 8.63403ZM45.3842 11.8116C45.3842 11.4727 45.356 11.1479 45.2995 10.8513C45.243 10.5547 45.1441 10.3005 45.017 10.0745C44.8899 9.8627 44.7063 9.69323 44.4804 9.56613C44.2544 9.43903 43.9861 9.38253 43.6612 9.38253C43.1811 9.38253 42.8421 9.48139 42.6585 9.65086C42.4749 9.83446 42.3761 10.0322 42.3761 10.2581V13.9159C42.4608 14.0148 42.6303 14.1136 42.8704 14.2407C43.1105 14.3678 43.3788 14.4243 43.6895 14.4243C44.2685 14.4243 44.6922 14.1984 44.9747 13.7323C45.243 13.2804 45.3842 12.6449 45.3842 11.8116ZM49.621 14.7774C49.5363 14.5514 49.4939 14.3113 49.4657 14.0571C49.4374 13.8029 49.4374 13.5487 49.4374 13.2945V5.31521C49.5222 5.30109 49.6069 5.28696 49.6916 5.28696C49.7764 5.27284 49.8611 5.27284 49.9458 5.25872C50.0306 5.25872 50.1294 5.2446 50.2142 5.2446C50.3978 5.2446 50.5813 5.25872 50.7649 5.30109C50.9485 5.32933 51.118 5.39994 51.2592 5.51293C51.4146 5.61178 51.5276 5.75301 51.6264 5.93661C51.7112 6.1202 51.7677 6.34616 51.7677 6.62862V7.85729H54.1826V9.59437H51.7818V13.2663C51.7818 14.0713 52.1066 14.4667 52.7562 14.4667C52.9116 14.4667 53.0669 14.4384 53.2082 14.3961C53.3494 14.3396 53.4765 14.2831 53.5895 14.2266C53.7025 14.1701 53.8013 14.0995 53.8861 14.0289C53.9708 13.9583 54.0273 13.9018 54.0696 13.8735C54.2391 14.1277 54.3803 14.3396 54.4651 14.5232C54.5498 14.7068 54.6063 14.8762 54.6063 15.0457C54.6063 15.2011 54.5498 15.3423 54.4227 15.4835C54.2956 15.6248 54.1261 15.766 53.9143 15.879C53.7025 16.0061 53.4341 16.1049 53.1234 16.1755C52.8127 16.2461 52.4738 16.2885 52.1066 16.2885C51.4005 16.2885 50.8356 16.1473 50.4401 15.879C50.0729 15.5824 49.7905 15.2293 49.621 14.7774ZM60.1141 14.5514C60.3966 14.5514 60.6508 14.5232 60.8768 14.4526C61.0886 14.3961 61.2863 14.3113 61.4699 14.2266C61.6394 14.1419 61.7947 14.0289 61.9218 13.93C62.0489 13.817 62.1619 13.7182 62.2608 13.6335C62.402 13.8029 62.5432 14.0289 62.6986 14.2972C62.8539 14.5656 62.9246 14.7915 62.9246 14.961C62.9246 15.2152 62.7833 15.4412 62.5009 15.653C62.2608 15.8366 61.9219 15.9919 61.4699 16.1332C61.0321 16.2603 60.5096 16.3309 59.9164 16.3309C59.3798 16.3309 58.8431 16.2603 58.3206 16.119C57.798 15.9778 57.332 15.7377 56.9224 15.3988C56.5129 15.0598 56.188 14.5938 55.9338 14.0148C55.6796 13.4357 55.5525 12.7014 55.5525 11.8258C55.5525 11.1055 55.6655 10.4841 55.8915 9.96156C56.1174 9.43903 56.414 9.00122 56.7812 8.66228C57.1484 8.32333 57.5721 8.06913 58.0522 7.89965C58.5183 7.74431 58.9985 7.65957 59.4928 7.65957C60.1283 7.65957 60.6791 7.75843 61.131 7.95614C61.5829 8.15386 61.936 8.42219 62.2184 8.76114C62.5009 9.10008 62.6986 9.48139 62.8257 9.9192C62.9528 10.357 63.0093 10.8089 63.0093 11.2891V11.5292C63.0093 11.628 63.0093 11.7128 62.9952 11.8258C62.9952 11.9246 62.981 12.0235 62.981 12.1223C62.981 12.2212 62.9669 12.2918 62.9528 12.3483H57.8828C57.9251 12.9838 58.1229 13.5064 58.4759 13.93C58.8149 14.3396 59.3656 14.5514 60.1141 14.5514ZM60.905 11.0631C60.905 10.5123 60.792 10.0604 60.5802 9.72148C60.3684 9.38253 59.987 9.19894 59.4363 9.19894C58.9561 9.19894 58.5889 9.36841 58.3064 9.69323C58.024 10.0181 57.8828 10.47 57.8828 11.0631H60.905ZM67.0907 8.6764C67.1614 8.57754 67.2461 8.46456 67.3591 8.33746C67.472 8.21035 67.6133 8.09737 67.7827 7.99851C67.9522 7.89966 68.1358 7.81492 68.3335 7.7443C68.5313 7.67369 68.7431 7.64545 68.9832 7.64545C69.1244 7.64545 69.2656 7.65957 69.421 7.67369C69.5763 7.70194 69.7176 7.74431 69.8447 7.8008C69.9718 7.85729 70.0847 7.94202 70.1695 8.055C70.2542 8.16799 70.2966 8.29509 70.2966 8.45044C70.2966 8.70465 70.2401 8.9871 70.113 9.31192C69.9859 9.63674 69.8588 9.91919 69.7317 10.1452C69.534 9.98981 69.3362 9.86271 69.1526 9.77797C68.9549 9.69323 68.729 9.65086 68.4606 9.65086C68.1076 9.65086 67.811 9.74972 67.5709 9.96156C67.3308 10.1734 67.2037 10.4135 67.2037 10.7101V16.2744H64.8594V7.87141C64.9159 7.85729 64.9865 7.84316 65.0712 7.84316C65.1418 7.82904 65.2265 7.82904 65.3113 7.81492C65.396 7.81492 65.509 7.8008 65.6361 7.8008C66.0033 7.8008 66.3281 7.87141 66.5965 8.01264C66.8507 8.16799 67.0201 8.37983 67.0907 8.6764ZM73.7425 8.6764C73.8131 8.57754 73.8979 8.46456 74.0108 8.33746C74.1238 8.21035 74.2651 8.09737 74.4345 7.99851C74.604 7.89966 74.7876 7.81492 74.9853 7.7443C75.183 7.67369 75.3949 7.64545 75.635 7.64545C75.7762 7.64545 75.9174 7.65957 76.0728 7.67369C76.2281 7.70194 76.3693 7.74431 76.4964 7.8008C76.6235 7.85729 76.7365 7.94202 76.8213 8.055C76.906 8.16799 76.9484 8.29509 76.9484 8.45044C76.9484 8.70465 76.8919 8.9871 76.7648 9.31192C76.6377 9.63674 76.5106 9.91919 76.3834 10.1452C76.1857 9.98981 75.988 9.86271 75.8044 9.77797C75.6067 9.69323 75.3807 9.65086 75.1124 9.65086C74.7593 9.65086 74.4628 9.74972 74.2227 9.96156C73.9826 10.1734 73.8555 10.4135 73.8555 10.7101V16.2744H71.5111V7.87141C71.5676 7.85729 71.6382 7.84316 71.723 7.84316C71.7936 7.82904 71.8783 7.82904 71.9631 7.81492C72.0478 7.81492 72.1608 7.8008 72.2879 7.8008C72.6551 7.8008 72.9799 7.87141 73.2482 8.01264C73.5024 8.16799 73.6719 8.37983 73.7425 8.6764ZM84.9135 14.0148C84.9135 14.9186 85.0406 15.5824 85.309 15.9919C85.0971 16.0767 84.9135 16.1332 84.7299 16.1614C84.5463 16.1897 84.3628 16.2179 84.165 16.2179C83.7555 16.2179 83.4448 16.1332 83.2329 15.9778C83.0211 15.8225 82.8799 15.5824 82.8234 15.2858C82.5692 15.5541 82.2444 15.7801 81.8207 15.9637C81.4111 16.1473 80.9027 16.232 80.3095 16.232C79.9989 16.232 79.6882 16.1897 79.3775 16.1049C79.0668 16.0202 78.7843 15.879 78.5301 15.6812C78.2759 15.4835 78.0782 15.2293 77.9087 14.9045C77.7533 14.5797 77.6686 14.1842 77.6686 13.7182C77.6686 13.1392 77.8098 12.659 78.0923 12.2918C78.3747 11.9246 78.7278 11.6422 79.1515 11.4303C79.5752 11.2185 80.0412 11.0773 80.5214 10.9925C81.0157 10.9078 81.4676 10.8654 81.8772 10.8372C82.0184 10.823 82.1455 10.823 82.2867 10.823H82.6539V10.5123C82.6539 10.0745 82.5409 9.76385 82.3008 9.56613C82.0608 9.38254 81.6794 9.28368 81.1569 9.28368C80.6626 9.28368 80.2248 9.36841 79.8435 9.52376C79.4622 9.67911 79.0809 9.8627 78.7137 10.0745C78.5583 9.87683 78.4171 9.66499 78.3324 9.4249C78.2335 9.18482 78.1912 9.01535 78.1912 8.90236C78.1912 8.74701 78.2759 8.59167 78.4595 8.43632C78.6431 8.28097 78.8832 8.15386 79.1939 8.02676C79.5046 7.89965 79.8576 7.81492 80.2672 7.73019C80.6626 7.65957 81.0863 7.6172 81.5382 7.6172C82.1596 7.6172 82.6822 7.67369 83.1058 7.8008C83.5295 7.9279 83.8826 8.12562 84.1509 8.37982C84.4192 8.64815 84.617 8.97298 84.7299 9.36841C84.8429 9.76384 84.8994 10.2299 84.8994 10.7524L84.9135 14.0148ZM82.7104 12.0235H82.4703C82.3856 12.0235 82.315 12.0235 82.2302 12.0376C81.9478 12.0658 81.6653 12.0941 81.3829 12.1365C81.1004 12.1788 80.8462 12.2636 80.6344 12.3765C80.4225 12.4895 80.2389 12.6449 80.0977 12.8285C79.9565 13.0121 79.8859 13.2521 79.8859 13.5346C79.8859 13.8594 79.9706 14.1277 80.1542 14.3537C80.3378 14.5797 80.6485 14.6927 81.0863 14.6927C81.2981 14.6927 81.51 14.6644 81.7077 14.6079C81.9054 14.5514 82.0749 14.4808 82.2302 14.382C82.3856 14.2831 82.4986 14.1842 82.5833 14.0854C82.668 13.9724 82.7104 13.8735 82.7104 13.7888V12.0235Z" fill="#044D80"/>
</svg>
