<svg width="64" height="63" viewBox="0 0 64 63" fill="none" xmlns="http://www.w3.org/2000/svg">
<g filter="url(#filter0_d_49_278)">
<path d="M47.4578 40.3155C47.6043 40.462 47.8417 40.462 47.9881 40.3155L50.3746 37.9291C50.5211 37.7826 50.5211 37.5452 50.3746 37.3987C50.2282 37.2523 49.9907 37.2523 49.8443 37.3987L47.723 39.5201L45.6017 37.3987C45.4552 37.2523 45.2178 37.2523 45.0713 37.3987C44.9249 37.5452 44.9249 37.7826 45.0713 37.9291L47.4578 40.3155ZM37.8438 33.5273H46.723V32.7773H37.8438V33.5273ZM47.348 34.1523V40.0504H48.098V34.1523H47.348ZM46.723 33.5273C47.0682 33.5273 47.348 33.8072 47.348 34.1523H48.098C48.098 33.393 47.4824 32.7773 46.723 32.7773V33.5273Z" fill="#3196F5"/>
<path d="M22.2275 12.8555H31.1068C31.6591 12.8555 32.1068 13.3032 32.1068 13.8555V31.5088" stroke="#15293F" stroke-width="0.75"/>
<path d="M16.6997 40.3155C16.5533 40.462 16.3158 40.462 16.1694 40.3155L13.7829 37.9291C13.6365 37.7826 13.6365 37.5452 13.7829 37.3987C13.9293 37.2523 14.1668 37.2523 14.3132 37.3987L16.4346 39.5201L18.5559 37.3987C18.7023 37.2523 18.9398 37.2523 19.0862 37.3987C19.2327 37.5452 19.2327 37.7826 19.0862 37.9291L16.6997 40.3155ZM37.8438 33.5273H17.4346V32.7773H37.8438V33.5273ZM16.8096 34.1523V40.0504H16.0596V34.1523H16.8096ZM17.4346 33.5273C17.0894 33.5273 16.8096 33.8072 16.8096 34.1523H16.0596C16.0596 33.393 16.6752 32.7773 17.4346 32.7773V33.5273Z" fill="#3196F5"/>
<rect x="4.44238" y="0.734375" width="23.9863" height="27.0029" rx="2.375" fill="#FCFCFD" stroke="#15293F" stroke-width="1.25"/>
<rect x="4.44238" y="40.6758" width="23.9859" height="13.1475" rx="1.375" fill="#FCFCFD" stroke="#15293F" stroke-width="1.25"/>
<rect x="35.7305" y="40.6758" width="23.9859" height="13.1475" rx="1.375" fill="#FCFCFD" stroke="#15293F" stroke-width="1.25"/>
<mask id="path-7-inside-1_49_278" fill="white">
<rect width="7.0001" height="7.0001" rx="1" transform="matrix(0.729256 0.684241 -0.729256 0.684241 32.1064 28.3633)"/>
</mask>
<rect width="7.0001" height="7.0001" rx="1" transform="matrix(0.729256 0.684241 -0.729256 0.684241 32.1064 28.3633)" fill="#FCFCFD" stroke="#15293F" stroke-width="2.5" mask="url(#path-7-inside-1_49_278)"/>
<rect x="9.02246" y="22.7949" width="13.0928" height="1.37091" rx="0.5" fill="#DCDFE4"/>
<rect x="7.40234" y="46.1406" width="10.2295" height="1.23828" rx="0.5" fill="#DCDFE4"/>
<rect x="7.40234" y="43.25" width="16.4453" height="1.23828" rx="0.5" fill="#DCDFE4"/>
<path d="M47.7227 50.9395C49.7608 50.9395 51.4131 49.2872 51.4131 47.249C51.4131 45.2109 49.7608 43.5586 47.7227 43.5586C45.6845 43.5586 44.0322 45.2109 44.0322 47.249C44.0322 49.2872 45.6845 50.9395 47.7227 50.9395Z" stroke="#FF6332" stroke-width="0.75"/>
<path d="M45.8762 47.2497L47.1064 48.4798L49.5667 46.0195" stroke="#FF6332" stroke-width="0.75"/>
<rect x="9.02246" y="12.8867" width="14.8252" height="7.27298" rx="0.5" fill="#DCDFE4"/>
<path d="M15.4856 6.32028C15.2428 6.09116 14.8651 6.09116 14.6229 6.32028C14.3937 6.5631 14.3937 6.92707 14.6229 7.16989L20.4073 12.9543C20.785 13.3589 21.0141 13.8982 21.0141 14.4376C21.0141 15.0038 20.7981 15.5301 20.4073 15.9477C19.5714 16.7705 18.223 16.7705 17.414 15.9477L11.6426 10.1633C11.4266 9.93413 11.2918 9.62389 11.2918 9.31364C11.2918 9.0034 11.4266 8.69315 11.6426 8.46403C12.1008 8.00578 12.8967 8.00578 13.3818 8.46403L19.1394 14.2354C19.2474 14.3297 19.2474 14.5319 19.1394 14.6536C18.9909 14.7885 18.816 14.7885 18.6943 14.6536L15.0541 11.0261C14.8381 10.7701 14.4336 10.7701 14.2045 11.0261C13.9754 11.2552 13.9754 11.6466 14.2045 11.862L17.8315 15.5165C18.4114 16.0964 19.3684 16.0964 19.9484 15.5165C20.5552 14.896 20.5552 13.9796 19.9484 13.3728L14.2181 7.5878C13.7462 7.14271 13.1662 6.88673 12.5058 6.88673C11.8584 6.88673 11.2516 7.14271 10.7934 7.5878C10.3478 8.05974 10.0918 8.66653 10.0918 9.30016C10.0918 9.94751 10.3478 10.5543 10.7929 11.0125L16.5642 16.7707C17.2116 17.418 18.0743 17.7414 18.9102 17.7414C19.7598 17.7414 20.6226 17.418 21.2562 16.7707C21.8635 16.1502 22.2275 15.3142 22.2275 14.4242C22.2275 13.534 21.8635 12.698 21.2567 12.0913L15.4856 6.32028Z" fill="#15293F"/>
</g>
<defs>
<filter id="filter0_d_49_278" x="0.817383" y="0.109375" width="62.5239" height="62.3398" filterUnits="userSpaceOnUse" color-interpolation-filters="sRGB">
<feFlood flood-opacity="0" result="BackgroundImageFix"/>
<feColorMatrix in="SourceAlpha" type="matrix" values="0 0 0 0 0 0 0 0 0 0 0 0 0 0 0 0 0 0 127 0" result="hardAlpha"/>
<feOffset dy="5"/>
<feGaussianBlur stdDeviation="1.5"/>
<feComposite in2="hardAlpha" operator="out"/>
<feColorMatrix type="matrix" values="0 0 0 0 0.47625 0 0 0 0 0.46875 0 0 0 0 0.5625 0 0 0 0.25 0"/>
<feBlend mode="normal" in2="BackgroundImageFix" result="effect1_dropShadow_49_278"/>
<feBlend mode="normal" in="SourceGraphic" in2="effect1_dropShadow_49_278" result="shape"/>
</filter>
</defs>
</svg>
