<svg width="904" height="267" viewBox="0 0 904 267" fill="none" xmlns="http://www.w3.org/2000/svg">
<g filter="url(#filter0_d_213_17730)">
<rect x="694.77" y="0.785156" width="195.824" height="198" rx="9" fill="white"/>
<path d="M737.532 167.389V151.564H747.824V153.967H740.399V158.263H747.291V160.666H740.399V164.986H747.886V167.389H737.532ZM752.912 155.521L755.307 159.902L757.741 155.521H760.7L757.123 161.455L760.762 167.389H757.818L755.307 163.116L752.819 167.389H749.852L753.468 161.455L749.945 155.521H752.912ZM767.594 167.62C766.41 167.62 765.392 167.36 764.542 166.84C763.698 166.32 763.046 165.601 762.588 164.684C762.134 163.762 761.908 162.701 761.908 161.501C761.908 160.296 762.139 159.232 762.603 158.31C763.067 157.383 763.721 156.662 764.566 156.146C765.415 155.626 766.42 155.366 767.579 155.366C768.542 155.366 769.395 155.544 770.136 155.899C770.883 156.249 771.478 156.747 771.921 157.39C772.364 158.029 772.617 158.776 772.679 159.631H770.005C769.897 159.059 769.639 158.583 769.232 158.202C768.831 157.815 768.292 157.622 767.618 157.622C767.046 157.622 766.544 157.777 766.111 158.086C765.678 158.39 765.341 158.828 765.099 159.399C764.862 159.971 764.743 160.656 764.743 161.455C764.743 162.263 764.862 162.959 765.099 163.541C765.336 164.118 765.668 164.563 766.095 164.878C766.528 165.187 767.035 165.341 767.618 165.341C768.03 165.341 768.398 165.264 768.722 165.109C769.052 164.95 769.328 164.72 769.549 164.422C769.771 164.123 769.923 163.76 770.005 163.332H772.679C772.612 164.172 772.364 164.916 771.937 165.565C771.509 166.209 770.927 166.714 770.191 167.08C769.454 167.44 768.589 167.62 767.594 167.62ZM780.229 167.62C779.039 167.62 778.012 167.373 777.146 166.879C776.286 166.379 775.624 165.673 775.161 164.762C774.697 163.845 774.465 162.766 774.465 161.524C774.465 160.303 774.697 159.232 775.161 158.31C775.629 157.383 776.284 156.662 777.123 156.146C777.963 155.626 778.949 155.366 780.083 155.366C780.814 155.366 781.504 155.484 782.153 155.721C782.808 155.953 783.384 156.314 783.884 156.803C784.389 157.293 784.786 157.916 785.074 158.673C785.362 159.425 785.507 160.321 785.507 161.362V162.22H775.779V160.334H782.826C782.82 159.799 782.704 159.322 782.478 158.905C782.251 158.482 781.934 158.15 781.527 157.908C781.126 157.666 780.657 157.545 780.121 157.545C779.549 157.545 779.047 157.684 778.615 157.962C778.182 158.235 777.844 158.596 777.602 159.044C777.365 159.487 777.244 159.974 777.239 160.504V162.15C777.239 162.84 777.365 163.433 777.618 163.927C777.87 164.416 778.223 164.793 778.676 165.055C779.13 165.313 779.66 165.442 780.268 165.442C780.675 165.442 781.043 165.385 781.373 165.272C781.703 165.153 781.988 164.981 782.231 164.754C782.473 164.527 782.656 164.247 782.779 163.912L785.391 164.205C785.226 164.896 784.912 165.498 784.448 166.013C783.99 166.523 783.402 166.92 782.686 167.203C781.97 167.481 781.151 167.62 780.229 167.62ZM790.67 151.564V167.389H787.873V151.564H790.67ZM796.343 151.564V167.389H793.546V151.564H796.343ZM804.474 167.62C803.284 167.62 802.256 167.373 801.391 166.879C800.531 166.379 799.869 165.673 799.405 164.762C798.941 163.845 798.71 162.766 798.71 161.524C798.71 160.303 798.941 159.232 799.405 158.31C799.874 157.383 800.528 156.662 801.368 156.146C802.207 155.626 803.194 155.366 804.327 155.366C805.058 155.366 805.749 155.484 806.398 155.721C807.052 155.953 807.629 156.314 808.128 156.803C808.633 157.293 809.03 157.916 809.318 158.673C809.607 159.425 809.751 160.321 809.751 161.362V162.22H800.023V160.334H807.07C807.065 159.799 806.949 159.322 806.722 158.905C806.495 158.482 806.179 158.15 805.772 157.908C805.37 157.666 804.901 157.545 804.366 157.545C803.794 157.545 803.292 157.684 802.859 157.962C802.426 158.235 802.089 158.596 801.847 159.044C801.61 159.487 801.489 159.974 801.483 160.504V162.15C801.483 162.84 801.61 163.433 801.862 163.927C802.114 164.416 802.467 164.793 802.921 165.055C803.374 165.313 803.904 165.442 804.512 165.442C804.919 165.442 805.288 165.385 805.617 165.272C805.947 165.153 806.233 164.981 806.475 164.754C806.717 164.527 806.9 164.247 807.023 163.912L809.635 164.205C809.47 164.896 809.156 165.498 808.692 166.013C808.234 166.523 807.647 166.92 806.931 167.203C806.215 167.481 805.396 167.62 804.474 167.62ZM814.914 160.435V167.389H812.117V155.521H814.791V157.537H814.93C815.203 156.873 815.638 156.345 816.236 155.953C816.838 155.562 817.583 155.366 818.469 155.366C819.288 155.366 820.001 155.541 820.609 155.891C821.222 156.242 821.696 156.749 822.031 157.414C822.371 158.078 822.538 158.884 822.533 159.832V167.389H819.736V160.265C819.736 159.471 819.53 158.851 819.118 158.403C818.711 157.954 818.147 157.73 817.425 157.73C816.936 157.73 816.501 157.839 816.12 158.055C815.744 158.266 815.447 158.573 815.231 158.974C815.02 159.376 814.914 159.863 814.914 160.435ZM830.553 167.62C829.368 167.62 828.351 167.36 827.501 166.84C826.656 166.32 826.005 165.601 825.546 164.684C825.093 163.762 824.866 162.701 824.866 161.501C824.866 160.296 825.098 159.232 825.562 158.31C826.025 157.383 826.679 156.662 827.524 156.146C828.374 155.626 829.379 155.366 830.538 155.366C831.501 155.366 832.353 155.544 833.095 155.899C833.842 156.249 834.437 156.747 834.88 157.39C835.323 158.029 835.575 158.776 835.637 159.631H832.964C832.856 159.059 832.598 158.583 832.191 158.202C831.789 157.815 831.251 157.622 830.576 157.622C830.004 157.622 829.502 157.777 829.07 158.086C828.637 158.39 828.299 158.828 828.057 159.399C827.82 159.971 827.702 160.656 827.702 161.455C827.702 162.263 827.82 162.959 828.057 163.541C828.294 164.118 828.627 164.563 829.054 164.878C829.487 165.187 829.994 165.341 830.576 165.341C830.988 165.341 831.357 165.264 831.681 165.109C832.011 164.95 832.286 164.72 832.508 164.422C832.729 164.123 832.881 163.76 832.964 163.332H835.637C835.57 164.172 835.323 164.916 834.895 165.565C834.468 166.209 833.886 166.714 833.149 167.08C832.413 167.44 831.547 167.62 830.553 167.62ZM843.188 167.62C841.998 167.62 840.971 167.373 840.105 166.879C839.245 166.379 838.583 165.673 838.119 164.762C837.656 163.845 837.424 162.766 837.424 161.524C837.424 160.303 837.656 159.232 838.119 158.31C838.588 157.383 839.242 156.662 840.082 156.146C840.922 155.626 841.908 155.366 843.041 155.366C843.773 155.366 844.463 155.484 845.112 155.721C845.766 155.953 846.343 156.314 846.843 156.803C847.348 157.293 847.744 157.916 848.033 158.673C848.321 159.425 848.465 160.321 848.465 161.362V162.22H838.738V160.334H845.784C845.779 159.799 845.663 159.322 845.437 158.905C845.21 158.482 844.893 158.15 844.486 157.908C844.084 157.666 843.616 157.545 843.08 157.545C842.508 157.545 842.006 157.684 841.573 157.962C841.14 158.235 840.803 158.596 840.561 159.044C840.324 159.487 840.203 159.974 840.198 160.504V162.15C840.198 162.84 840.324 163.433 840.576 163.927C840.829 164.416 841.182 164.793 841.635 165.055C842.088 165.313 842.619 165.442 843.227 165.442C843.634 165.442 844.002 165.385 844.332 165.272C844.661 165.153 844.947 164.981 845.189 164.754C845.431 164.527 845.614 164.247 845.738 163.912L848.349 164.205C848.185 164.896 847.87 165.498 847.407 166.013C846.948 166.523 846.361 166.92 845.645 167.203C844.929 167.481 844.11 167.62 843.188 167.62Z" fill="#15293F"/>
<rect x="240.527" y="0.785156" width="195.824" height="198" rx="9" fill="white"/>
<path d="M302.221 156.904H299.331C299.249 156.43 299.097 156.01 298.875 155.644C298.654 155.273 298.378 154.959 298.049 154.702C297.719 154.444 297.343 154.251 296.921 154.122C296.503 153.988 296.053 153.921 295.568 153.921C294.708 153.921 293.946 154.137 293.281 154.57C292.617 154.998 292.097 155.626 291.72 156.455C291.344 157.28 291.156 158.287 291.156 159.477C291.156 160.687 291.344 161.707 291.72 162.536C292.102 163.361 292.622 163.984 293.281 164.406C293.946 164.823 294.706 165.032 295.561 165.032C296.035 165.032 296.478 164.97 296.89 164.847C297.307 164.718 297.68 164.53 298.01 164.283C298.345 164.035 298.626 163.731 298.852 163.371C299.084 163.01 299.244 162.598 299.331 162.135L302.221 162.15C302.113 162.902 301.878 163.608 301.518 164.267C301.162 164.926 300.696 165.509 300.119 166.013C299.542 166.513 298.868 166.904 298.095 167.188C297.322 167.466 296.465 167.605 295.522 167.605C294.131 167.605 292.89 167.283 291.798 166.639C290.706 165.995 289.845 165.066 289.217 163.85C288.589 162.634 288.274 161.176 288.274 159.477C288.274 157.772 288.591 156.314 289.225 155.103C289.858 153.888 290.721 152.958 291.813 152.314C292.905 151.67 294.142 151.348 295.522 151.348C296.403 151.348 297.222 151.472 297.979 151.719C298.736 151.966 299.411 152.329 300.003 152.808C300.596 153.282 301.083 153.864 301.464 154.555C301.85 155.24 302.103 156.023 302.221 156.904ZM304.723 167.389V155.521H307.435V157.499H307.558C307.775 156.813 308.145 156.285 308.671 155.915C309.201 155.539 309.807 155.351 310.487 155.351C310.641 155.351 310.814 155.358 311.004 155.374C311.2 155.384 311.362 155.402 311.491 155.428V158.001C311.373 157.96 311.185 157.924 310.927 157.893C310.675 157.857 310.43 157.839 310.193 157.839C309.683 157.839 309.225 157.949 308.818 158.171C308.416 158.387 308.099 158.688 307.867 159.075C307.635 159.461 307.52 159.907 307.52 160.412V167.389H304.723ZM318.115 167.62C316.925 167.62 315.897 167.373 315.032 166.879C314.172 166.379 313.51 165.673 313.046 164.762C312.582 163.845 312.351 162.766 312.351 161.524C312.351 160.303 312.582 159.232 313.046 158.31C313.515 157.383 314.169 156.662 315.009 156.146C315.848 155.626 316.835 155.366 317.968 155.366C318.699 155.366 319.39 155.484 320.039 155.721C320.693 155.953 321.27 156.314 321.769 156.803C322.274 157.293 322.671 157.916 322.959 158.673C323.248 159.425 323.392 160.321 323.392 161.362V162.22H313.664V160.334H320.711C320.706 159.799 320.59 159.322 320.363 158.905C320.137 158.482 319.82 158.15 319.413 157.908C319.011 157.666 318.542 157.545 318.007 157.545C317.435 157.545 316.933 157.684 316.5 157.962C316.067 158.235 315.73 158.596 315.488 159.044C315.251 159.487 315.13 159.974 315.125 160.504V162.15C315.125 162.84 315.251 163.433 315.503 163.927C315.756 164.416 316.108 164.793 316.562 165.055C317.015 165.313 317.546 165.442 318.153 165.442C318.56 165.442 318.929 165.385 319.258 165.272C319.588 165.153 319.874 164.981 320.116 164.754C320.358 164.527 320.541 164.247 320.665 163.912L323.276 164.205C323.111 164.896 322.797 165.498 322.333 166.013C321.875 166.523 321.288 166.92 320.572 167.203C319.856 167.481 319.037 167.62 318.115 167.62ZM329.173 167.628C328.421 167.628 327.744 167.494 327.141 167.226C326.544 166.953 326.07 166.552 325.72 166.021C325.375 165.49 325.202 164.836 325.202 164.058C325.202 163.389 325.326 162.835 325.573 162.397C325.82 161.959 326.158 161.609 326.585 161.346C327.013 161.084 327.494 160.885 328.03 160.751C328.571 160.612 329.13 160.512 329.707 160.45C330.402 160.378 330.966 160.314 331.399 160.257C331.831 160.195 332.146 160.102 332.341 159.979C332.542 159.85 332.643 159.652 332.643 159.384V159.338C332.643 158.755 332.47 158.305 332.125 157.985C331.78 157.666 331.283 157.506 330.634 157.506C329.949 157.506 329.405 157.656 329.003 157.954C328.607 158.253 328.339 158.606 328.2 159.013L325.588 158.642C325.794 157.921 326.134 157.318 326.608 156.834C327.082 156.345 327.662 155.979 328.347 155.737C329.032 155.49 329.789 155.366 330.618 155.366C331.19 155.366 331.759 155.433 332.326 155.567C332.893 155.701 333.41 155.922 333.879 156.231C334.348 156.535 334.724 156.95 335.007 157.475C335.296 158.001 335.44 158.658 335.44 159.446V167.389H332.751V165.758H332.658C332.488 166.088 332.249 166.397 331.94 166.686C331.636 166.969 331.252 167.198 330.788 167.373C330.33 167.543 329.792 167.628 329.173 167.628ZM329.9 165.573C330.461 165.573 330.948 165.462 331.36 165.241C331.772 165.014 332.089 164.715 332.311 164.344C332.537 163.973 332.65 163.569 332.65 163.131V161.733C332.563 161.805 332.414 161.872 332.202 161.934C331.996 161.995 331.764 162.05 331.507 162.096C331.249 162.142 330.994 162.183 330.742 162.22C330.49 162.256 330.271 162.287 330.085 162.312C329.668 162.369 329.295 162.462 328.965 162.59C328.635 162.719 328.375 162.899 328.184 163.131C327.994 163.358 327.899 163.652 327.899 164.012C327.899 164.527 328.087 164.916 328.463 165.179C328.839 165.442 329.318 165.573 329.9 165.573ZM344.179 155.521V157.684H337.356V155.521H344.179ZM339.04 152.677H341.837V163.819C341.837 164.195 341.894 164.483 342.007 164.684C342.126 164.88 342.28 165.014 342.471 165.086C342.662 165.158 342.873 165.194 343.105 165.194C343.28 165.194 343.439 165.181 343.584 165.156C343.733 165.13 343.846 165.107 343.924 165.086L344.395 167.273C344.246 167.324 344.032 167.381 343.754 167.443C343.481 167.505 343.146 167.541 342.749 167.551C342.049 167.572 341.418 167.466 340.856 167.234C340.295 166.997 339.849 166.631 339.519 166.137C339.195 165.642 339.035 165.024 339.04 164.283V152.677ZM346.518 167.389V155.521H349.315V167.389H346.518ZM347.924 153.836C347.481 153.836 347.1 153.689 346.781 153.396C346.461 153.097 346.302 152.739 346.302 152.322C346.302 151.899 346.461 151.541 346.781 151.248C347.1 150.949 347.481 150.8 347.924 150.8C348.372 150.8 348.753 150.949 349.068 151.248C349.387 151.541 349.547 151.899 349.547 152.322C349.547 152.739 349.387 153.097 349.068 153.396C348.753 153.689 348.372 153.836 347.924 153.836ZM362.792 155.521L358.566 167.389H355.475L351.249 155.521H354.231L356.959 164.337H357.082L359.817 155.521H362.792ZM364.728 167.389V155.521H367.525V167.389H364.728ZM366.134 153.836C365.691 153.836 365.31 153.689 364.99 153.396C364.671 153.097 364.511 152.739 364.511 152.322C364.511 151.899 364.671 151.541 364.99 151.248C365.31 150.949 365.691 150.8 366.134 150.8C366.582 150.8 366.963 150.949 367.277 151.248C367.597 151.541 367.756 151.899 367.756 152.322C367.756 152.739 367.597 153.097 367.277 153.396C366.963 153.689 366.582 153.836 366.134 153.836ZM376.327 155.521V157.684H369.505V155.521H376.327ZM371.189 152.677H373.986V163.819C373.986 164.195 374.043 164.483 374.156 164.684C374.275 164.88 374.429 165.014 374.62 165.086C374.81 165.158 375.021 165.194 375.253 165.194C375.428 165.194 375.588 165.181 375.732 165.156C375.882 165.13 375.995 165.107 376.072 165.086L376.544 167.273C376.394 167.324 376.18 167.381 375.902 167.443C375.629 167.505 375.294 167.541 374.898 167.551C374.197 167.572 373.566 167.466 373.005 167.234C372.443 166.997 371.998 166.631 371.668 166.137C371.344 165.642 371.184 165.024 371.189 164.283V152.677ZM380.405 171.839C380.024 171.839 379.671 171.808 379.346 171.747C379.027 171.69 378.772 171.623 378.582 171.546L379.231 169.367C379.638 169.485 380.001 169.542 380.32 169.537C380.639 169.532 380.92 169.431 381.162 169.235C381.409 169.045 381.618 168.725 381.788 168.277L382.028 167.636L377.724 155.521H380.691L383.426 164.483H383.55L386.293 155.521H389.267L384.516 168.826C384.294 169.454 384 169.993 383.635 170.441C383.269 170.894 382.821 171.239 382.29 171.476C381.765 171.718 381.136 171.839 380.405 171.839Z" fill="#15293F"/>
<rect x="467.648" y="29.7852" width="195.824" height="198" rx="9" fill="white"/>
<path d="M514.765 180.564V196.389H511.898V180.564H514.765ZM520.542 189.435V196.389H517.745V184.521H520.419V186.537H520.558C520.831 185.873 521.266 185.345 521.864 184.953C522.466 184.562 523.211 184.366 524.097 184.366C524.916 184.366 525.629 184.541 526.237 184.891C526.85 185.242 527.324 185.749 527.659 186.414C527.999 187.078 528.166 187.884 528.161 188.832V196.389H525.364V189.265C525.364 188.471 525.158 187.851 524.746 187.403C524.339 186.954 523.775 186.73 523.054 186.73C522.564 186.73 522.129 186.839 521.748 187.055C521.372 187.266 521.076 187.573 520.859 187.974C520.648 188.376 520.542 188.863 520.542 189.435ZM533.801 189.435V196.389H531.004V184.521H533.678V186.537H533.817C534.09 185.873 534.525 185.345 535.123 184.953C535.725 184.562 536.47 184.366 537.356 184.366C538.175 184.366 538.888 184.541 539.496 184.891C540.109 185.242 540.583 185.749 540.918 186.414C541.258 187.078 541.425 187.884 541.42 188.832V196.389H538.623V189.265C538.623 188.471 538.417 187.851 538.005 187.403C537.598 186.954 537.034 186.73 536.313 186.73C535.823 186.73 535.388 186.839 535.007 187.055C534.631 187.266 534.334 187.573 534.118 187.974C533.907 188.376 533.801 188.863 533.801 189.435ZM549.44 196.62C548.281 196.62 547.277 196.365 546.427 195.856C545.577 195.346 544.917 194.632 544.449 193.715C543.985 192.798 543.753 191.727 543.753 190.501C543.753 189.275 543.985 188.201 544.449 187.279C544.917 186.357 545.577 185.641 546.427 185.131C547.277 184.621 548.281 184.366 549.44 184.366C550.599 184.366 551.604 184.621 552.453 185.131C553.303 185.641 553.96 186.357 554.424 187.279C554.893 188.201 555.127 189.275 555.127 190.501C555.127 191.727 554.893 192.798 554.424 193.715C553.96 194.632 553.303 195.346 552.453 195.856C551.604 196.365 550.599 196.62 549.44 196.62ZM549.456 194.38C550.084 194.38 550.609 194.207 551.032 193.862C551.454 193.512 551.768 193.043 551.974 192.456C552.186 191.869 552.291 191.214 552.291 190.493C552.291 189.767 552.186 189.11 551.974 188.523C551.768 187.931 551.454 187.459 551.032 187.109C550.609 186.759 550.084 186.584 549.456 186.584C548.812 186.584 548.276 186.759 547.848 187.109C547.426 187.459 547.109 187.931 546.898 188.523C546.692 189.11 546.589 189.767 546.589 190.493C546.589 191.214 546.692 191.869 546.898 192.456C547.109 193.043 547.426 193.512 547.848 193.862C548.276 194.207 548.812 194.38 549.456 194.38ZM567.698 184.521L563.472 196.389H560.381L556.155 184.521H559.137L561.865 193.337H561.988L564.723 184.521H567.698ZM572.709 196.628C571.957 196.628 571.279 196.494 570.677 196.226C570.079 195.953 569.605 195.552 569.255 195.021C568.91 194.49 568.737 193.836 568.737 193.058C568.737 192.389 568.861 191.835 569.108 191.397C569.356 190.959 569.693 190.609 570.12 190.346C570.548 190.084 571.03 189.885 571.565 189.751C572.106 189.612 572.665 189.512 573.242 189.45C573.937 189.378 574.501 189.314 574.934 189.257C575.367 189.195 575.681 189.102 575.877 188.979C576.078 188.85 576.178 188.652 576.178 188.384V188.338C576.178 187.755 576.006 187.305 575.66 186.985C575.315 186.666 574.818 186.506 574.169 186.506C573.484 186.506 572.941 186.656 572.539 186.954C572.142 187.253 571.874 187.606 571.735 188.013L569.124 187.642C569.33 186.921 569.67 186.318 570.144 185.834C570.618 185.345 571.197 184.979 571.882 184.737C572.567 184.49 573.324 184.366 574.154 184.366C574.726 184.366 575.295 184.433 575.861 184.567C576.428 184.701 576.946 184.922 577.414 185.231C577.883 185.535 578.259 185.95 578.542 186.475C578.831 187.001 578.975 187.658 578.975 188.446V196.389H576.286V194.758H576.194C576.024 195.088 575.784 195.397 575.475 195.686C575.171 195.969 574.787 196.198 574.324 196.373C573.865 196.543 573.327 196.628 572.709 196.628ZM573.435 194.573C573.997 194.573 574.483 194.462 574.896 194.241C575.308 194.014 575.624 193.715 575.846 193.344C576.073 192.973 576.186 192.569 576.186 192.131V190.733C576.098 190.805 575.949 190.872 575.738 190.934C575.532 190.995 575.3 191.05 575.042 191.096C574.785 191.142 574.53 191.183 574.277 191.22C574.025 191.256 573.806 191.287 573.621 191.312C573.203 191.369 572.83 191.462 572.5 191.59C572.171 191.719 571.91 191.899 571.72 192.131C571.529 192.358 571.434 192.652 571.434 193.012C571.434 193.527 571.622 193.916 571.998 194.179C572.374 194.442 572.853 194.573 573.435 194.573ZM587.714 184.521V186.684H580.891V184.521H587.714ZM582.576 181.677H585.373V192.819C585.373 193.195 585.43 193.483 585.543 193.684C585.661 193.88 585.816 194.014 586.006 194.086C586.197 194.158 586.408 194.194 586.64 194.194C586.815 194.194 586.975 194.181 587.119 194.156C587.268 194.13 587.382 194.107 587.459 194.086L587.93 196.273C587.781 196.324 587.567 196.381 587.289 196.443C587.016 196.505 586.681 196.541 586.285 196.551C585.584 196.572 584.953 196.466 584.392 196.234C583.83 195.997 583.385 195.631 583.055 195.137C582.73 194.642 582.571 194.024 582.576 193.283V181.677ZM590.053 196.389V184.521H592.85V196.389H590.053ZM591.46 182.836C591.017 182.836 590.635 182.689 590.316 182.396C589.997 182.097 589.837 181.739 589.837 181.322C589.837 180.899 589.997 180.541 590.316 180.248C590.635 179.949 591.017 179.8 591.46 179.8C591.908 179.8 592.289 179.949 592.603 180.248C592.922 180.541 593.082 180.899 593.082 181.322C593.082 181.739 592.922 182.097 592.603 182.396C592.289 182.689 591.908 182.836 591.46 182.836ZM600.903 196.62C599.744 196.62 598.74 196.365 597.89 195.856C597.04 195.346 596.381 194.632 595.912 193.715C595.448 192.798 595.217 191.727 595.217 190.501C595.217 189.275 595.448 188.201 595.912 187.279C596.381 186.357 597.04 185.641 597.89 185.131C598.74 184.621 599.744 184.366 600.903 184.366C602.062 184.366 603.067 184.621 603.917 185.131C604.767 185.641 605.424 186.357 605.887 187.279C606.356 188.201 606.59 189.275 606.59 190.501C606.59 191.727 606.356 192.798 605.887 193.715C605.424 194.632 604.767 195.346 603.917 195.856C603.067 196.365 602.062 196.62 600.903 196.62ZM600.919 194.38C601.547 194.38 602.073 194.207 602.495 193.862C602.917 193.512 603.232 193.043 603.438 192.456C603.649 191.869 603.755 191.214 603.755 190.493C603.755 189.767 603.649 189.11 603.438 188.523C603.232 187.931 602.917 187.459 602.495 187.109C602.073 186.759 601.547 186.584 600.919 186.584C600.275 186.584 599.739 186.759 599.312 187.109C598.889 187.459 598.573 187.931 598.361 188.523C598.155 189.11 598.052 189.767 598.052 190.493C598.052 191.214 598.155 191.869 598.361 192.456C598.573 193.043 598.889 193.512 599.312 193.862C599.739 194.207 600.275 194.38 600.919 194.38ZM611.761 189.435V196.389H608.964V184.521H611.638V186.537H611.777C612.05 185.873 612.485 185.345 613.083 184.953C613.685 184.562 614.43 184.366 615.316 184.366C616.135 184.366 616.848 184.541 617.456 184.891C618.069 185.242 618.543 185.749 618.878 186.414C619.218 187.078 619.385 187.884 619.38 188.832V196.389H616.583V189.265C616.583 188.471 616.377 187.851 615.965 187.403C615.558 186.954 614.994 186.73 614.272 186.73C613.783 186.73 613.348 186.839 612.967 187.055C612.591 187.266 612.294 187.573 612.078 187.974C611.867 188.376 611.761 188.863 611.761 189.435Z" fill="#15293F"/>
<path d="M567.305 143.619C567.305 144.051 567.641 144.389 568.075 144.389H575.292C575.724 144.389 576.063 144.053 576.063 143.619V139.721H567.305L567.305 143.619Z" fill="#3196F5"/>
<path d="M588.086 117.205C587.845 116.82 587.413 116.532 586.932 116.435C586.306 116.339 585.68 116.579 585.297 117.107L582.121 121.582C582.217 121.678 582.266 121.774 582.313 121.872C583.179 123.123 583.083 124.807 582.072 125.961L581.88 126.202C580.582 127.694 579.138 129.088 577.646 130.34L576.348 131.349C575.915 131.686 575.336 131.639 575 131.205C574.664 130.772 574.711 130.193 575.145 129.857L576.396 128.846C577.84 127.692 579.187 126.345 580.437 124.948L580.678 124.708C581.11 124.226 581.159 123.505 580.773 122.975C580.533 122.638 580.243 122.445 579.86 122.349C579.475 122.3 579.09 122.349 578.802 122.59L571.826 127.451C571.055 127.981 570.478 128.75 570.238 129.665L567.688 137.893H576.733L582.796 134.189C583.854 133.563 584.625 132.505 584.912 131.351L588.329 118.602C588.425 118.07 588.375 117.589 588.086 117.205Z" fill="#3196F5"/>
<path d="M560.807 129.615C560.518 128.749 559.99 127.931 559.219 127.401L552.292 122.592C551.955 122.352 551.619 122.303 551.234 122.352C550.849 122.4 550.512 122.641 550.32 122.977C549.935 123.507 549.984 124.229 550.416 124.71L550.657 124.951C551.86 126.345 553.207 127.646 554.697 128.849L555.949 129.86C556.141 130.004 556.286 130.245 556.286 130.486C556.334 130.726 556.237 130.967 556.094 131.207C555.949 131.399 555.709 131.544 555.468 131.544C555.227 131.592 554.987 131.495 554.746 131.352L553.495 130.341C551.955 129.089 550.512 127.695 549.26 126.202L549.02 125.962C548.009 124.808 547.913 123.124 548.779 121.872C548.828 121.777 548.924 121.681 548.971 121.583L545.795 117.108C545.41 116.578 544.784 116.338 544.16 116.435C543.679 116.531 543.293 116.772 543.006 117.206C542.765 117.591 542.67 118.072 542.814 118.553L546.231 131.303C546.567 132.506 547.289 133.517 548.347 134.141L554.41 137.845H563.456L560.807 129.615Z" fill="#3196F5"/>
<path d="M554.942 143.619C554.942 144.051 555.278 144.389 555.712 144.389H562.929C563.361 144.389 563.746 144.053 563.746 143.619V139.721H554.941L554.942 143.619Z" fill="#3196F5"/>
<path d="M577.838 111.333C577.838 104.55 572.305 99.0176 565.521 99.0176C558.736 99.0176 553.203 104.55 553.203 111.333C553.203 116.866 556.86 121.486 561.912 123.071L564.318 127.883C564.799 128.894 566.242 128.894 566.772 127.883L569.178 123.071C574.181 121.485 577.838 116.866 577.838 111.333ZM565.713 118.407C564.895 118.407 564.22 117.734 564.22 116.915C564.22 116.097 564.893 115.423 565.713 115.423C566.53 115.423 567.205 116.095 567.205 116.915C567.205 117.732 566.532 118.407 565.713 118.407ZM567.735 112.393C567.254 112.729 567.013 112.874 566.964 113.692C566.915 114.028 566.628 114.318 566.291 114.318H565.233C564.848 114.318 564.512 113.981 564.561 113.547C564.705 111.671 565.427 110.997 566.34 110.371C566.726 110.13 567.013 109.89 567.398 109.409C567.735 108.928 567.784 108.302 567.494 107.725C567.303 107.339 566.821 106.714 565.619 106.714C564.079 106.714 563.598 107.676 563.454 108.446C563.405 108.783 563.117 109.023 562.781 109.023H561.723C561.291 109.023 560.952 108.638 561.05 108.253C561.339 106.232 562.83 104.259 565.669 104.259C567.449 104.259 568.988 105.126 569.759 106.616C570.481 108.01 570.336 109.647 569.423 110.85C568.744 111.671 568.167 112.055 567.735 112.393Z" fill="#3196F5"/>
<path d="M237.648 104.785L222.648 96.1249V113.445L237.648 104.785ZM208.648 106.285H224.148V103.285H208.648V106.285Z" fill="#15293F"/>
<path d="M464.648 104.785L449.648 96.1249V113.445L464.648 104.785ZM435.648 106.285H451.148V103.285H435.648V106.285Z" fill="#15293F"/>
<path d="M691.648 104.785L676.648 96.1249V113.445L691.648 104.785ZM662.648 106.285H678.148V103.285H662.648V106.285Z" fill="#15293F"/>
<rect x="13.4062" y="29.7852" width="195.824" height="198" rx="9" fill="white"/>
<path d="M71.2636 180.564V196.389H68.397V180.564H71.2636ZM77.0412 189.435V196.389H74.2442V184.521H76.9176V186.537H77.0567C77.3297 185.873 77.765 185.345 78.3625 184.953C78.9652 184.562 79.7095 184.366 80.5955 184.366C81.4145 184.366 82.1279 184.541 82.7358 184.891C83.3488 185.242 83.8227 185.749 84.1575 186.414C84.4974 187.078 84.6649 187.884 84.6597 188.832V196.389H81.8627V189.265C81.8627 188.471 81.6566 187.851 81.2445 187.403C80.8376 186.954 80.2735 186.73 79.5524 186.73C79.063 186.73 78.6278 186.839 78.2466 187.055C77.8706 187.266 77.5744 187.573 77.358 187.974C77.1468 188.376 77.0412 188.863 77.0412 189.435ZM93.4295 184.521V186.684H86.6068V184.521H93.4295ZM88.2912 181.677H91.0883V192.819C91.0883 193.195 91.1449 193.483 91.2583 193.684C91.3767 193.88 91.5313 194.014 91.7219 194.086C91.9125 194.158 92.1236 194.194 92.3554 194.194C92.5306 194.194 92.6903 194.181 92.8345 194.156C92.9839 194.13 93.0972 194.107 93.1745 194.086L93.6458 196.273C93.4964 196.324 93.2826 196.381 93.0045 196.443C92.7315 196.505 92.3967 196.541 92 196.551C91.2995 196.572 90.6685 196.466 90.107 196.234C89.5455 195.997 89.1 195.631 88.7703 195.137C88.4458 194.642 88.2861 194.024 88.2912 193.283V181.677ZM100.895 196.62C99.7054 196.62 98.6778 196.373 97.8124 195.879C96.9522 195.379 96.2902 194.673 95.8266 193.762C95.363 192.845 95.1312 191.766 95.1312 190.524C95.1312 189.303 95.363 188.232 95.8266 187.31C96.2954 186.383 96.9496 185.662 97.7892 185.146C98.6288 184.626 99.6153 184.366 100.749 184.366C101.48 184.366 102.17 184.484 102.819 184.721C103.473 184.953 104.05 185.314 104.55 185.803C105.055 186.293 105.451 186.916 105.74 187.673C106.028 188.425 106.173 189.321 106.173 190.362V191.22H96.4448V189.334H103.491C103.486 188.799 103.37 188.322 103.144 187.905C102.917 187.482 102.6 187.15 102.193 186.908C101.792 186.666 101.323 186.545 100.787 186.545C100.215 186.545 99.7131 186.684 99.2805 186.962C98.8478 187.235 98.5104 187.596 98.2683 188.044C98.0313 188.487 97.9103 188.974 97.9051 189.504V191.15C97.9051 191.84 98.0313 192.433 98.2837 192.927C98.5361 193.416 98.889 193.793 99.3423 194.055C99.7956 194.313 100.326 194.442 100.934 194.442C101.341 194.442 101.709 194.385 102.039 194.272C102.369 194.153 102.654 193.981 102.897 193.754C103.139 193.527 103.321 193.247 103.445 192.912L106.057 193.205C105.892 193.896 105.578 194.498 105.114 195.013C104.656 195.523 104.068 195.92 103.352 196.203C102.636 196.481 101.817 196.62 100.895 196.62ZM113.7 201.086C112.696 201.086 111.833 200.95 111.112 200.677C110.391 200.409 109.811 200.049 109.373 199.595C108.936 199.142 108.632 198.64 108.462 198.089L110.981 197.478C111.094 197.71 111.259 197.939 111.475 198.166C111.691 198.398 111.982 198.588 112.348 198.738C112.719 198.892 113.185 198.969 113.747 198.969C114.54 198.969 115.197 198.776 115.717 198.39C116.237 198.009 116.497 197.38 116.497 196.505V194.256H116.358C116.214 194.545 116.003 194.841 115.725 195.145C115.452 195.449 115.089 195.704 114.635 195.91C114.187 196.116 113.623 196.219 112.943 196.219C112.031 196.219 111.205 196.005 110.463 195.577C109.726 195.145 109.139 194.501 108.701 193.646C108.268 192.785 108.052 191.709 108.052 190.416C108.052 189.113 108.268 188.013 108.701 187.117C109.139 186.215 109.729 185.533 110.471 185.069C111.212 184.6 112.039 184.366 112.951 184.366C113.646 184.366 114.218 184.484 114.666 184.721C115.119 184.953 115.48 185.234 115.748 185.564C116.016 185.888 116.219 186.195 116.358 186.483H116.513V184.521H119.271V196.582C119.271 197.597 119.029 198.436 118.545 199.101C118.061 199.765 117.399 200.262 116.559 200.592C115.72 200.922 114.767 201.086 113.7 201.086ZM113.723 194.024C114.316 194.024 114.821 193.88 115.238 193.592C115.655 193.303 115.972 192.889 116.188 192.348C116.405 191.807 116.513 191.158 116.513 190.401C116.513 189.654 116.405 188.999 116.188 188.438C115.977 187.876 115.663 187.441 115.246 187.132C114.834 186.818 114.326 186.661 113.723 186.661C113.1 186.661 112.58 186.823 112.163 187.148C111.745 187.472 111.431 187.918 111.22 188.484C111.009 189.046 110.903 189.685 110.903 190.401C110.903 191.127 111.009 191.763 111.22 192.309C111.436 192.85 111.753 193.272 112.17 193.576C112.593 193.875 113.111 194.024 113.723 194.024ZM122.138 196.389V184.521H124.85V186.499H124.973C125.19 185.813 125.561 185.285 126.086 184.915C126.617 184.539 127.222 184.351 127.902 184.351C128.056 184.351 128.229 184.358 128.42 184.374C128.615 184.384 128.778 184.402 128.906 184.428V187.001C128.788 186.96 128.6 186.924 128.342 186.893C128.09 186.857 127.845 186.839 127.608 186.839C127.098 186.839 126.64 186.949 126.233 187.171C125.831 187.387 125.514 187.688 125.283 188.075C125.051 188.461 124.935 188.907 124.935 189.412V196.389H122.138ZM130.765 196.389V184.521H133.562V196.389H130.765ZM132.171 182.836C131.728 182.836 131.347 182.689 131.027 182.396C130.708 182.097 130.548 181.739 130.548 181.322C130.548 180.899 130.708 180.541 131.027 180.248C131.347 179.949 131.728 179.8 132.171 179.8C132.619 179.8 133 179.949 133.314 180.248C133.634 180.541 133.793 180.899 133.793 181.322C133.793 181.739 133.634 182.097 133.314 182.396C133 182.689 132.619 182.836 132.171 182.836ZM142.364 184.521V186.684H135.542V184.521H142.364ZM137.226 181.677H140.023V192.819C140.023 193.195 140.08 193.483 140.193 193.684C140.312 193.88 140.466 194.014 140.657 194.086C140.847 194.158 141.058 194.194 141.29 194.194C141.465 194.194 141.625 194.181 141.769 194.156C141.919 194.13 142.032 194.107 142.109 194.086L142.581 196.273C142.431 196.324 142.217 196.381 141.939 196.443C141.666 196.505 141.331 196.541 140.935 196.551C140.234 196.572 139.603 196.466 139.042 196.234C138.48 195.997 138.035 195.631 137.705 195.137C137.381 194.642 137.221 194.024 137.226 193.283V181.677ZM146.442 200.839C146.061 200.839 145.708 200.808 145.383 200.747C145.064 200.69 144.809 200.623 144.618 200.546L145.268 198.367C145.674 198.485 146.038 198.542 146.357 198.537C146.676 198.532 146.957 198.431 147.199 198.235C147.446 198.045 147.655 197.725 147.825 197.277L148.065 196.636L143.761 184.521H146.728L149.463 193.483H149.587L152.33 184.521H155.304L150.553 197.826C150.331 198.454 150.037 198.993 149.672 199.441C149.306 199.894 148.858 200.239 148.327 200.476C147.802 200.718 147.173 200.839 146.442 200.839Z" fill="#15293F"/>
<path d="M112.529 121.133C114.543 120.771 115.99 120.152 117.023 119.48C115.37 117.517 112.993 116.225 110.36 115.967C108.655 116.845 106.744 117.361 104.73 117.361C102.717 117.361 100.804 116.897 99.1007 115.967C94.0378 116.536 90.0078 120.874 90.0078 126.145V132.241C90.0078 132.758 90.4215 133.172 90.9381 133.172H108.555C108.502 132.758 108.502 132.344 108.502 131.933V125.734C108.553 123.457 110.205 121.496 112.53 121.133L112.529 121.133Z" fill="#3196F5"/>
<path d="M113.666 105.014C113.666 109.921 109.687 113.898 104.779 113.898C99.8737 113.898 95.8945 109.921 95.8945 105.014C95.8945 100.106 99.8738 96.1289 104.779 96.1289C109.687 96.1289 113.666 100.106 113.666 105.014Z" fill="#3196F5"/>
<path d="M131.382 124.438C126.888 123.716 124.408 121.7 123.219 120.306C122.703 119.737 121.772 119.737 121.256 120.306C120.017 121.7 117.587 123.716 113.093 124.438C112.421 124.541 111.957 125.11 111.957 125.782V131.981C111.957 138.852 119.292 143.707 121.617 145.051C122.03 145.31 122.547 145.31 122.961 145.051C125.233 143.708 132.62 138.852 132.62 131.981V125.782C132.57 125.11 132.054 124.541 131.382 124.438ZM127.457 130.74L122.188 136.009C121.877 136.32 121.466 136.525 121 136.525C120.535 136.525 120.122 136.37 119.811 136.009L117.073 133.271C116.401 132.599 116.401 131.515 117.073 130.893C117.745 130.221 118.828 130.221 119.45 130.893L121 132.443L125.08 128.363C125.752 127.691 126.835 127.691 127.457 128.363C128.076 128.984 128.076 130.068 127.457 130.74Z" fill="#3196F5"/>
<path fill-rule="evenodd" clip-rule="evenodd" d="M815.781 92.7394L814.291 97.3303H809.463C808.728 97.3303 808.076 97.8045 807.85 98.501C807.622 99.2005 807.871 99.9651 808.467 100.398L812.373 103.234L810.882 107.825C810.654 108.525 810.903 109.289 811.499 109.722C812.095 110.155 812.898 110.155 813.493 109.722L817.4 106.886L821.306 109.722C821.902 110.155 822.705 110.155 823.3 109.722C823.896 109.289 824.145 108.525 823.917 107.825L822.426 103.234L826.332 100.398C826.928 99.9651 827.174 99.2005 826.949 98.501C826.721 97.8016 826.072 97.3303 825.337 97.3303H820.509L819.018 92.7394C818.79 92.04 818.141 91.5687 817.406 91.5687C816.671 91.5687 816.019 92.0429 815.793 92.7394H815.781ZM766.343 92.7394L764.852 97.3303H760.024C759.289 97.3303 758.637 97.8045 758.412 98.501C758.184 99.2005 758.433 99.9651 759.028 100.398L762.935 103.234L761.444 107.825C761.216 108.525 761.465 109.289 762.06 109.722C762.656 110.155 763.459 110.155 764.055 109.722L767.961 106.886L771.867 109.722C772.463 110.155 773.266 110.155 773.862 109.722C774.458 109.289 774.707 108.525 774.478 107.825L772.988 103.234L776.894 100.398C777.49 99.9651 777.736 99.2005 777.51 98.501C777.282 97.8016 776.633 97.3303 775.898 97.3303H771.07L769.579 92.7394C769.351 92.04 768.702 91.5687 767.967 91.5687C767.232 91.5687 766.58 92.0429 766.355 92.7394H766.343ZM791.165 78.291L787.881 88.4003H777.253C776.518 88.4003 775.866 88.8745 775.64 89.574C775.412 90.2734 775.661 91.0381 776.257 91.4708L784.855 97.7184L781.571 107.828C781.343 108.527 781.591 109.292 782.187 109.724C782.783 110.157 783.586 110.157 784.182 109.724L792.78 103.477L801.381 109.724C801.976 110.157 802.78 110.157 803.375 109.724C803.971 109.292 804.22 108.527 803.992 107.828L800.708 97.7184L809.306 91.4708C809.901 91.0381 810.147 90.2734 809.922 89.574C809.694 88.8745 809.045 88.4003 808.31 88.4003H797.682L794.398 78.291C794.17 77.5916 793.521 77.1203 792.786 77.1203C792.05 77.1203 791.399 77.5945 791.173 78.291H791.165ZM767.033 82.4403V86.1065C767.033 86.7585 767.564 87.289 768.219 87.289C768.874 87.289 769.404 86.7585 769.404 86.1065V82.4403C769.404 81.7853 768.874 81.2548 768.219 81.2548C767.564 81.2548 767.033 81.7853 767.033 82.4403ZM815.921 82.4403V86.1065C815.921 86.7585 816.452 87.289 817.107 87.289C817.762 87.289 818.292 86.7585 818.292 86.1065V82.4403C818.292 81.7853 817.762 81.2548 817.107 81.2548C816.452 81.2548 815.921 81.7853 815.921 82.4403ZM809.051 83.2791L810.886 86.4533C811.212 87.0194 811.938 87.212 812.504 86.886C813.07 86.56 813.263 85.8339 812.937 85.2678L811.102 82.0936C810.776 81.5275 810.05 81.3349 809.484 81.6609C808.918 81.9869 808.725 82.713 809.051 83.2791ZM774.218 82.0936L772.383 85.2678C772.057 85.8339 772.25 86.557 772.816 86.886C773.382 87.212 774.105 87.0194 774.434 86.4533L776.269 83.2791C776.595 82.713 776.402 81.9899 775.836 81.6609C775.27 81.3349 774.547 81.5275 774.218 82.0936ZM823.106 82.0936L821.271 85.2678C820.945 85.8339 821.138 86.557 821.704 86.886C822.27 87.212 822.993 87.0194 823.322 86.4533L825.157 83.2791C825.483 82.713 825.29 81.9899 824.724 81.6609C824.158 81.3349 823.435 81.5275 823.106 82.0936ZM760.164 83.2791L761.999 86.4533C762.325 87.0194 763.051 87.212 763.617 86.886C764.183 86.56 764.376 85.8339 764.05 85.2678L762.215 82.0936C761.889 81.5275 761.163 81.3349 760.597 81.6609C760.031 81.9869 759.838 82.713 760.164 83.2791ZM791.477 70.0371V73.7032C791.477 74.3553 792.007 74.8858 792.662 74.8858C793.317 74.8858 793.848 74.3553 793.848 73.7032V70.0371C793.848 69.3821 793.317 68.8516 792.662 68.8516C792.007 68.8516 791.477 69.3821 791.477 70.0371ZM784.607 70.8758L786.441 74.05C786.767 74.6161 787.493 74.8088 788.059 74.4828C788.626 74.1567 788.818 73.4306 788.492 72.8645L786.658 69.6903C786.332 69.1243 785.605 68.9316 785.039 69.2576C784.473 69.5836 784.281 70.3098 784.607 70.8758ZM798.661 69.6903L796.826 72.8645C796.5 73.4306 796.693 74.1538 797.259 74.4827C797.825 74.8088 798.548 74.6161 798.877 74.05L800.711 70.8758C801.037 70.3098 800.845 69.5866 800.279 69.2576C799.713 68.9316 798.989 69.1243 798.661 69.6903Z" fill="#3196F5"/>
</g>
<path d="M355.429 92.2499L352.378 88.6893H352.376C352.226 88.5144 352.143 88.2926 352.141 88.0632V85.1756C352.145 80.5189 350.043 76.1103 346.422 73.1832C342.801 70.2561 338.05 69.1243 333.497 70.1057C328.946 71.0852 325.083 74.0724 322.986 78.231C320.892 82.3895 320.79 87.2718 322.712 91.5152C323.4 92.8819 324.272 94.1509 325.304 95.2826C325.69 95.7639 326.088 96.2452 326.474 96.7265H326.475C327.895 98.5143 328.965 100.556 329.626 102.742C330.126 104.56 330.403 106.431 330.45 108.315C330.47 108.832 330.895 109.24 331.412 109.24H341.071C341.327 109.24 341.572 109.138 341.752 108.958C341.933 108.777 342.034 108.533 342.034 108.277V106.352C342.034 104.758 343.327 103.464 344.922 103.464H349.253C350.847 103.464 352.141 102.171 352.141 100.577V94.8013C352.141 94.2692 352.571 93.8387 353.103 93.8387H354.696C355.072 93.8387 355.414 93.6207 355.57 93.2785C355.728 92.9382 355.671 92.5357 355.429 92.2499ZM341.13 87.5293C340.368 88.1159 339.929 89.0277 339.945 89.9883V93.8385C339.945 94.3499 339.742 94.8387 339.381 95.1996C339.02 95.5606 338.532 95.7636 338.02 95.7636H335.133C334.069 95.7636 333.208 94.9026 333.208 93.8385V89.9883C333.225 89.0258 332.783 88.1102 332.019 87.5237C330.264 86.2359 329.134 84.2638 328.914 82.0963C328.692 79.9306 329.399 77.7705 330.86 76.1536C332.32 74.5386 334.396 73.6156 336.575 73.6156C338.752 73.6156 340.829 74.5387 342.288 76.1536C343.749 77.7704 344.455 79.9305 344.236 82.0963C344.014 84.264 342.886 86.2361 341.13 87.5237V87.5293Z" fill="#3196F5"/>
<path d="M335.133 90.9512H338.02V93.8388H335.133V90.9512Z" fill="#3196F5"/>
<path d="M340.428 77.0223C339.203 75.9112 337.558 75.3848 335.915 75.5784C333.301 75.8886 331.226 77.9172 330.855 80.5211C330.553 82.6267 331.44 84.7248 333.16 85.9749C334.151 86.7175 334.822 87.8079 335.042 89.0261H338.114C338.33 87.8079 339.001 86.7175 339.99 85.9749C341.481 84.8958 342.361 83.1663 342.353 81.3257C342.353 79.6826 341.652 78.1183 340.428 77.0223Z" fill="#3196F5"/>
<defs>
<filter id="filter0_d_213_17730" x="0.40625" y="0.785156" width="903.188" height="266" filterUnits="userSpaceOnUse" color-interpolation-filters="sRGB">
<feFlood flood-opacity="0" result="BackgroundImageFix"/>
<feColorMatrix in="SourceAlpha" type="matrix" values="0 0 0 0 0 0 0 0 0 0 0 0 0 0 0 0 0 0 127 0" result="hardAlpha"/>
<feOffset dy="26"/>
<feGaussianBlur stdDeviation="6.5"/>
<feColorMatrix type="matrix" values="0 0 0 0 0.0895833 0 0 0 0 0.179875 0 0 0 0 0.5 0 0 0 0.09 0"/>
<feBlend mode="multiply" in2="BackgroundImageFix" result="effect1_dropShadow_213_17730"/>
<feBlend mode="normal" in="SourceGraphic" in2="effect1_dropShadow_213_17730" result="shape"/>
</filter>
</defs>
</svg>
