<svg width="54" height="55" viewBox="0 0 54 55" fill="none" xmlns="http://www.w3.org/2000/svg">
<rect x="0.335938" y="0.488281" width="53.6172" height="53.6172" rx="5" fill="#3196F5"/>
<path d="M41.6328 26.6348C42.5554 25.7476 43.1371 24.5117 43.1371 23.1247C43.1371 20.4478 40.9524 18.2616 38.2741 18.2616C35.5972 18.2616 33.4111 20.4464 33.4111 23.1247C33.4111 24.504 33.9928 25.7491 34.9154 26.6348C34.485 26.6795 34.0653 26.7952 33.661 26.9572C32.8819 26.0253 31.771 25.3896 30.5089 25.2462C31.4315 24.359 32.0132 23.1231 32.0132 21.7361C32.0132 19.0592 29.8285 16.873 27.1502 16.873C24.4733 16.873 22.2872 19.0578 22.2872 21.7361C22.2872 23.1154 22.8689 24.3605 23.7915 25.2462C22.5294 25.3989 21.4185 26.0346 20.6393 26.9572C20.2367 26.7968 19.8155 26.6888 19.385 26.6348C20.3076 25.7476 20.8893 24.5117 20.8893 23.1247C20.8893 20.4478 18.7046 18.2616 16.0263 18.2616C13.3494 18.2616 11.1632 20.4464 11.1632 23.1247C11.1632 24.504 11.7449 25.7491 12.6676 26.6348C10.2638 26.931 8.38281 28.9723 8.38281 31.4626V37.0232C8.38281 37.4089 8.69602 37.7221 9.08173 37.7221H45.2072C45.5929 37.7221 45.9061 37.4089 45.9061 37.0232V31.4626C45.9246 28.9817 44.0439 26.931 41.634 26.6348H41.6328ZM12.5724 23.1247C12.5724 21.2084 14.1307 19.65 16.047 19.65C17.9633 19.65 19.5216 21.2084 19.5216 23.1247C19.5216 25.041 17.9633 26.5993 16.047 26.5993C14.1307 26.5993 12.5724 25.041 12.5724 23.1247ZM19.5233 30.074V36.3242L9.79685 36.3257V31.4627C9.79685 29.5464 11.3552 27.9881 13.2715 27.9881H18.8336C19.2008 27.9881 19.568 28.0513 19.9167 28.1578C19.6575 28.758 19.5233 29.4028 19.5233 30.074ZM23.6876 21.7363C23.6876 19.82 25.2459 18.2617 27.1622 18.2617C29.0785 18.2617 30.6368 19.82 30.6368 21.7363C30.6368 23.6526 29.0785 25.2109 27.1622 25.2109C25.2444 25.2125 23.6876 23.6541 23.6876 21.7363ZM33.4124 36.3262H32.0238V32.1619C32.0238 31.7761 31.7106 31.4629 31.3249 31.4629C30.9392 31.4629 30.626 31.7761 30.626 32.1619V36.3262H23.6783V32.1619C23.6783 31.7761 23.3651 31.4629 22.9793 31.4629C22.5936 31.4629 22.2804 31.7761 22.2804 32.1619V36.3262H20.8918L20.8934 30.0744C20.8934 29.5914 21.0091 29.1255 21.1896 28.678C21.7265 27.4514 22.9454 26.5998 24.3695 26.5998H29.9396C31.3544 26.5998 32.581 27.4499 33.1195 28.678C33.2985 29.1255 33.4157 29.5914 33.4157 30.0744L33.4124 36.3262ZM34.801 23.1251C34.801 21.2088 36.3594 19.6504 38.2757 19.6504C40.1919 19.6504 41.7503 21.2088 41.7503 23.1251C41.7503 25.0414 40.1919 26.5997 38.2757 26.5997C36.3578 26.5997 34.801 25.0414 34.801 23.1251ZM44.5354 36.3262H34.801V30.0744C34.801 29.4032 34.6575 28.7583 34.4153 28.1674C34.764 28.0594 35.1312 27.9976 35.4984 27.9976H41.059C42.9753 27.9976 44.5336 29.556 44.5336 31.4723L44.5354 36.3262Z" fill="#F3F3F3"/>
</svg>
