<svg width="268" height="47" viewBox="0 0 268 47" fill="none" xmlns="http://www.w3.org/2000/svg">
<g clip-path="url(#clip0_213_15525)">
<path d="M70.5552 37.1917C59.6507 37.1917 54.75 30.2311 54.75 20.6486C54.75 11.066 59.8358 3.74023 70.5552 3.74023C81.2745 3.74023 86.3159 10.9272 86.3159 20.6486C86.3159 30.3699 81.504 37.1917 70.5552 37.1917ZM70.5552 34.3432C79.6237 34.3432 82.881 27.8355 82.881 20.6047C82.881 13.374 79.5793 6.58872 70.5552 6.58872C61.531 6.58872 58.1849 13.2352 58.1849 20.6047C58.1849 27.9743 61.531 34.3432 70.5552 34.3432Z" fill="white"/>
<path d="M93.14 33.3503V45.7375C93.14 46.8258 92.9105 47.0011 91.8593 47.0011H91.1708C90.1196 47.0011 89.8901 46.8185 89.8901 45.7375V18.3482H89.4755C88.0542 18.3482 87.5508 17.2161 87.5508 16.2667C87.5508 15.6824 87.7803 15.6823 88.602 15.6823H90.5267C92.3627 15.6823 93.14 16.4493 93.14 18.2168V19.2539C94.6502 16.997 97.1745 15.4121 100.972 15.4121C107.435 15.4121 111.055 19.8893 111.055 26.3094C111.055 32.7294 107.479 36.9803 100.928 36.9803C97.1227 36.9803 94.6502 35.5341 93.14 33.3649V33.3503ZM100.284 34.0733C105.229 34.0733 107.613 30.6844 107.613 26.251C107.613 21.8175 105.229 18.2971 100.328 18.2971C95.1017 18.2971 92.9031 22.2266 92.9031 26.3021C92.9031 30.3776 95.0129 34.0733 100.276 34.0733H100.284Z" fill="white"/>
<path d="M116.914 27.6089C117.284 32.8092 120.393 34.2115 125.301 34.2115C128.507 34.2115 130.846 33.4008 132.63 32.4513C133.319 32.1372 133.593 32.1811 133.593 32.8165C133.593 33.3132 133.504 34.8031 131.757 35.6212C130.38 36.4319 128.181 37.1111 125.02 37.1111C118.328 37.1111 113.523 34.5329 113.523 26.7178C113.523 19.3045 117.188 15.375 123.739 15.375C130.291 15.375 133.681 19.582 133.681 25.7683C133.681 26.7616 133.408 27.6235 131.942 27.6235H116.914V27.6089ZM116.958 25.0306H130.476C130.387 20.7798 128.366 18.0701 123.88 18.0701C119.668 18.0701 117.417 20.6484 116.958 25.0306Z" fill="white"/>
<path d="M156.723 34.62C157.545 34.62 157.641 34.62 157.641 35.0729C157.641 36.0662 156.952 36.7893 155.124 36.7893C153.11 36.7893 152.103 35.6133 152.103 33.4879V23.7227C152.103 20.4652 150.778 18.1645 146.929 18.1645C143.079 18.1645 141.251 20.5602 140.925 23.9053V35.3431C140.925 36.4314 140.74 36.6067 139.644 36.6067H139C137.949 36.6067 137.72 36.4241 137.72 35.3431V18.3471H137.261C135.839 18.3471 135.336 17.2151 135.336 16.2656C135.336 15.6813 135.565 15.6813 136.343 15.6813H138.356C140.14 15.6813 140.925 16.4482 140.925 18.2157V18.5297C142.161 16.7695 144.36 15.3672 147.795 15.3672C153.155 15.3672 155.353 18.5297 155.353 23.5036V32.4508C155.353 34.211 155.672 34.62 156.73 34.62H156.723Z" fill="white"/>
<path d="M167.63 32.1296L174.685 5.86512C175.003 4.73303 175.188 4.60156 176.38 4.60156H177.202C178.349 4.60156 178.579 4.78416 178.897 5.86512L186.137 32.1734L192.963 7.04103L191.911 6.95339C191.223 6.72697 190.401 6.36908 190.401 5.19317C190.401 4.69651 190.675 4.60887 191.364 4.60887H194.895C196.131 4.60887 196.731 4.69651 196.731 5.60218C196.731 6.0112 196.59 6.5955 196.361 7.41353L188.069 35.6208C187.795 36.5703 187.566 36.7967 186.744 36.7967H185.463C184.546 36.7967 184.316 36.5703 184.042 35.6647L176.758 9.0861L169.429 35.7523C169.199 36.563 168.925 36.7894 168.007 36.7894H166.86C165.986 36.7894 165.713 36.563 165.483 35.7523L157.096 7.13598L155.445 6.90957C154.801 6.72697 154.164 6.14267 154.164 5.19317C154.164 4.65269 154.438 4.60887 155.126 4.60887H157.74C159.753 4.60887 159.938 4.69651 160.671 7.45735L167.637 32.1369L167.63 32.1296Z" fill="white"/>
<path d="M198.826 15.6738H205.059C211.84 15.6738 214.542 18.2521 214.542 23.9929V32.9912C214.586 34.3497 214.912 34.6637 215.919 34.6637C216.741 34.6637 216.837 34.6637 216.837 35.1166C216.837 36.1099 216.148 36.833 214.32 36.833C212.669 36.833 211.662 36.0661 211.388 34.6199C210.152 35.5694 207.857 36.8768 203.504 36.8768C198.737 36.8768 196.449 34.7952 196.449 30.7781C196.449 26.761 199.107 25.2199 204.652 25.2199C206.576 25.2199 209.093 25.3587 211.292 25.6289V24.453C211.292 19.6617 209.367 18.442 205.111 18.442H200.439C198.7 18.442 197.782 17.4487 197.782 16.2727C197.782 15.7323 197.967 15.6884 198.833 15.6884L198.826 15.6738ZM205.288 27.7397C201.809 27.7397 199.655 28.1487 199.655 30.8146C199.655 33.4805 201.394 34.2985 204.281 34.2985C208.087 34.2985 209.959 33.2103 211.292 32.217V28.1049C209.367 27.7908 206.939 27.7397 205.288 27.7397Z" fill="white"/>
<path d="M223.107 10.7083V15.6822H228.556C229.429 15.6822 229.607 15.726 229.607 16.2665C229.607 17.3547 228.645 18.4357 226.491 18.4357H223.1V29.6909C223.1 33.3062 224.477 34.0293 226.261 34.0293C227.638 34.0293 228.504 33.8029 229.563 33.2186C230.155 32.9922 230.296 33.2186 230.296 33.9417C230.296 34.4822 230.207 34.8912 229.977 35.2491C229.244 36.2862 227.734 36.8778 225.121 36.8778C221.086 36.8778 219.895 34.4383 219.895 30.5527V14.1849C219.895 10.9274 220.946 9.57617 222.412 9.57617C223.056 9.57617 223.1 9.80259 223.1 10.7083H223.107Z" fill="white"/>
<path d="M235.336 27.6089C235.706 32.8092 238.815 34.2115 243.723 34.2115C246.929 34.2115 249.268 33.4008 251.052 32.4513C251.741 32.1372 252.015 32.1811 252.015 32.8165C252.015 33.3132 251.926 34.8031 250.179 35.6212C248.802 36.4319 246.603 37.1111 243.442 37.1111C236.75 37.1111 231.945 34.5329 231.945 26.7178C231.945 19.3045 235.61 15.375 242.161 15.375C248.713 15.375 252.103 19.582 252.103 25.7683C252.103 26.7616 251.829 27.6235 250.364 27.6235H235.336V27.6089ZM235.38 25.0306H248.898C248.809 20.7798 246.788 18.0701 242.302 18.0701C238.09 18.0701 235.839 20.6484 235.38 25.0306Z" fill="white"/>
<path d="M259.389 26.9801V35.343C259.389 36.4312 259.159 36.6065 258.108 36.6065H257.42C256.369 36.6065 256.139 36.4239 256.139 35.343V18.347H255.636C254.214 18.347 253.711 17.2149 253.711 16.2654C253.711 15.6811 253.94 15.6811 254.762 15.6811H256.872C258.612 15.7249 259.389 16.4918 259.389 18.2155V19.2088C260.44 16.1778 262.232 15.1406 264.519 15.1406C266.807 15.1406 267.495 16.1339 267.495 17.4925C267.495 18.1717 267.406 18.3543 266.762 18.2155C265.985 17.9891 265.482 17.8503 264.564 17.8503C261.129 17.8503 259.478 21.3269 259.389 26.9801Z" fill="white"/>
<path d="M37.4922 15.0239C37.5737 15.5644 37.1887 15.1773 37.1887 15.1773C35.6193 13.198 37.4626 9.88936 37.4626 9.88936C37.6995 9.50956 37.9364 9.16628 38.1807 8.85221C34.4496 3.50583 28.209 0 21.1244 0C10.2274 0 1.30691 8.31904 0.5 18.8657C4.62341 16.8937 9.11696 21.7726 9.11696 21.7726L10.8863 23.5037C16.2089 28.7478 17.7413 28.704 18.5112 27.4988C18.5112 27.4988 19.5772 25.9723 17.8006 22.8755C15.6463 19.136 18.0078 16.3678 18.0078 16.3678C24.2781 7.96115 34.3164 18.6539 34.3164 18.6539C37.8624 22.1451 40.1129 23.4525 41.5342 23.825C41.7193 22.7148 41.8229 21.5828 41.8229 20.4214C41.8229 17.9601 41.3788 15.6009 40.5718 13.4171C37.8254 12.4895 37.4404 14.6807 37.4922 15.0312V15.0239Z" fill="#76C4D5"/>
<path d="M27.9572 24.9344C23.782 20.8224 21.3316 19.6538 19.9103 19.6465C19.7548 19.6611 18.5704 19.7926 18.7999 20.9831C19.0071 22.0202 22.79 26.8992 18.4223 31.223C12.3001 36.3138 5.72635 28.5936 5.72635 28.5936C3.69056 26.7239 1.2328 23.8681 0.921875 24.8103C2.96507 33.9693 11.2341 40.8275 21.1244 40.8275C28.7345 40.8275 35.3823 36.7739 38.9801 30.7337C33.7019 31.0477 27.9572 24.9344 27.9572 24.9344Z" fill="#007496"/>
</g>
<defs>
<clipPath id="clip0_213_15525">
<rect width="267" height="47" fill="white" transform="translate(0.5)"/>
</clipPath>
</defs>
</svg>
