<svg width="395" height="432" viewBox="0 0 395 432" fill="none" xmlns="http://www.w3.org/2000/svg">
<g filter="url(#filter0_d_705_6195)">
<rect x="210.051" y="195.688" width="169.865" height="171.752" rx="7.80692" fill="white"/>
<path d="M247.145 340.254V326.527H256.073V328.612H249.632V332.338H255.61V334.423H249.632V338.169H256.127V340.254H247.145ZM260.486 329.959L262.564 333.759L264.675 329.959H267.242L264.139 335.106L267.296 340.254H264.742L262.564 336.547L260.406 340.254H257.832L260.969 335.106L257.913 329.959H260.486ZM273.223 340.455C272.195 340.455 271.312 340.229 270.575 339.778C269.842 339.327 269.277 338.703 268.879 337.908C268.486 337.108 268.29 336.188 268.29 335.147C268.29 334.101 268.491 333.178 268.893 332.379C269.295 331.574 269.862 330.949 270.595 330.502C271.333 330.051 272.204 329.825 273.209 329.825C274.045 329.825 274.784 329.979 275.428 330.287C276.076 330.591 276.592 331.023 276.976 331.581C277.36 332.135 277.579 332.783 277.633 333.525H275.314C275.22 333.029 274.996 332.615 274.643 332.285C274.295 331.95 273.828 331.782 273.243 331.782C272.747 331.782 272.311 331.916 271.936 332.184C271.56 332.448 271.268 332.828 271.058 333.324C270.852 333.82 270.749 334.414 270.749 335.106C270.749 335.808 270.852 336.411 271.058 336.916C271.263 337.417 271.551 337.803 271.922 338.076C272.298 338.344 272.738 338.478 273.243 338.478C273.6 338.478 273.92 338.411 274.201 338.277C274.487 338.138 274.726 337.939 274.918 337.68C275.11 337.421 275.242 337.106 275.314 336.735H277.633C277.575 337.463 277.36 338.109 276.989 338.672C276.618 339.231 276.114 339.669 275.475 339.986C274.836 340.299 274.085 340.455 273.223 340.455ZM284.183 340.455C283.15 340.455 282.259 340.241 281.508 339.812C280.762 339.378 280.188 338.766 279.786 337.975C279.384 337.18 279.183 336.244 279.183 335.167C279.183 334.108 279.384 333.178 279.786 332.379C280.193 331.574 280.76 330.949 281.488 330.502C282.217 330.051 283.072 329.825 284.055 329.825C284.69 329.825 285.289 329.928 285.852 330.133C286.419 330.334 286.919 330.647 287.353 331.072C287.791 331.496 288.135 332.037 288.385 332.694C288.635 333.346 288.76 334.123 288.76 335.026V335.77H280.322V334.135H286.435C286.43 333.67 286.33 333.257 286.133 332.895C285.936 332.528 285.662 332.24 285.309 332.03C284.96 331.82 284.554 331.715 284.089 331.715C283.593 331.715 283.157 331.836 282.782 332.077C282.407 332.314 282.114 332.627 281.904 333.015C281.698 333.4 281.593 333.822 281.589 334.282V335.71C281.589 336.308 281.698 336.822 281.917 337.251C282.136 337.676 282.442 338.002 282.835 338.23C283.229 338.453 283.689 338.565 284.216 338.565C284.569 338.565 284.889 338.516 285.175 338.417C285.461 338.315 285.709 338.165 285.919 337.968C286.129 337.772 286.287 337.528 286.394 337.238L288.66 337.493C288.517 338.091 288.244 338.614 287.842 339.061C287.444 339.503 286.935 339.847 286.314 340.093C285.693 340.334 284.982 340.455 284.183 340.455ZM293.239 326.527V340.254H290.813V326.527H293.239ZM298.16 326.527V340.254H295.734V326.527H298.16ZM305.213 340.455C304.181 340.455 303.289 340.241 302.539 339.812C301.793 339.378 301.218 338.766 300.816 337.975C300.414 337.18 300.213 336.244 300.213 335.167C300.213 334.108 300.414 333.178 300.816 332.379C301.223 331.574 301.79 330.949 302.519 330.502C303.247 330.051 304.103 329.825 305.086 329.825C305.72 329.825 306.319 329.928 306.882 330.133C307.449 330.334 307.95 330.647 308.383 331.072C308.821 331.496 309.165 332.037 309.415 332.694C309.666 333.346 309.791 334.123 309.791 335.026V335.77H301.352V334.135H307.465C307.461 333.67 307.36 333.257 307.163 332.895C306.967 332.528 306.692 332.24 306.339 332.03C305.99 331.82 305.584 331.715 305.119 331.715C304.623 331.715 304.188 331.836 303.812 332.077C303.437 332.314 303.144 332.627 302.934 333.015C302.729 333.4 302.624 333.822 302.619 334.282V335.71C302.619 336.308 302.729 336.822 302.948 337.251C303.167 337.676 303.473 338.002 303.866 338.23C304.259 338.453 304.719 338.565 305.247 338.565C305.6 338.565 305.919 338.516 306.205 338.417C306.491 338.315 306.739 338.165 306.949 337.968C307.159 337.772 307.318 337.528 307.425 337.238L309.69 337.493C309.547 338.091 309.275 338.614 308.873 339.061C308.475 339.503 307.965 339.847 307.344 340.093C306.723 340.334 306.013 340.455 305.213 340.455ZM314.27 334.222V340.254H311.843V329.959H314.162V331.708H314.283C314.52 331.132 314.897 330.674 315.416 330.334C315.938 329.995 316.584 329.825 317.353 329.825C318.063 329.825 318.682 329.977 319.209 330.281C319.741 330.585 320.152 331.025 320.442 331.601C320.737 332.178 320.883 332.877 320.878 333.699V340.254H318.452V334.074C318.452 333.386 318.273 332.848 317.916 332.459C317.563 332.07 317.073 331.876 316.448 331.876C316.023 331.876 315.646 331.97 315.315 332.157C314.989 332.341 314.732 332.607 314.544 332.955C314.361 333.304 314.27 333.726 314.27 334.222ZM327.835 340.455C326.807 340.455 325.925 340.229 325.188 339.778C324.455 339.327 323.89 338.703 323.492 337.908C323.099 337.108 322.902 336.188 322.902 335.147C322.902 334.101 323.103 333.178 323.505 332.379C323.908 331.574 324.475 330.949 325.208 330.502C325.945 330.051 326.816 329.825 327.822 329.825C328.657 329.825 329.397 329.979 330.04 330.287C330.688 330.591 331.204 331.023 331.589 331.581C331.973 332.135 332.192 332.783 332.245 333.525H329.926C329.832 333.029 329.609 332.615 329.256 332.285C328.908 331.95 328.441 331.782 327.855 331.782C327.359 331.782 326.924 331.916 326.548 332.184C326.173 332.448 325.88 332.828 325.67 333.324C325.465 333.82 325.362 334.414 325.362 335.106C325.362 335.808 325.465 336.411 325.67 336.916C325.876 337.417 326.164 337.803 326.535 338.076C326.91 338.344 327.35 338.478 327.855 338.478C328.213 338.478 328.532 338.411 328.814 338.277C329.1 338.138 329.339 337.939 329.531 337.68C329.723 337.421 329.855 337.106 329.926 336.735H332.245C332.187 337.463 331.973 338.109 331.602 338.672C331.231 339.231 330.726 339.669 330.087 339.986C329.448 340.299 328.698 340.455 327.835 340.455ZM338.795 340.455C337.763 340.455 336.872 340.241 336.121 339.812C335.375 339.378 334.801 338.766 334.398 337.975C333.996 337.18 333.795 336.244 333.795 335.167C333.795 334.108 333.996 333.178 334.398 332.379C334.805 331.574 335.373 330.949 336.101 330.502C336.829 330.051 337.685 329.825 338.668 329.825C339.302 329.825 339.901 329.928 340.464 330.133C341.032 330.334 341.532 330.647 341.965 331.072C342.403 331.496 342.747 332.037 342.998 332.694C343.248 333.346 343.373 334.123 343.373 335.026V335.77H334.935V334.135H341.047C341.043 333.67 340.942 333.257 340.746 332.895C340.549 332.528 340.274 332.24 339.921 332.03C339.573 331.82 339.166 331.715 338.701 331.715C338.205 331.715 337.77 331.836 337.394 332.077C337.019 332.314 336.726 332.627 336.516 333.015C336.311 333.4 336.206 333.822 336.201 334.282V335.71C336.201 336.308 336.311 336.822 336.53 337.251C336.749 337.676 337.055 338.002 337.448 338.23C337.841 338.453 338.302 338.565 338.829 338.565C339.182 338.565 339.501 338.516 339.787 338.417C340.073 338.315 340.321 338.165 340.531 337.968C340.741 337.772 340.9 337.528 341.007 337.238L343.272 337.493C343.129 338.091 342.857 338.614 342.455 339.061C342.057 339.503 341.548 339.847 340.927 340.093C340.306 340.334 339.595 340.455 338.795 340.455Z" fill="#15293F"/>
<rect x="211.555" y="0.386719" width="169.865" height="171.752" rx="7.80692" fill="white"/>
<path d="M265.067 135.858H262.56C262.489 135.447 262.357 135.083 262.165 134.766C261.973 134.444 261.734 134.171 261.448 133.948C261.162 133.724 260.836 133.557 260.469 133.445C260.107 133.329 259.716 133.271 259.296 133.271C258.55 133.271 257.889 133.459 257.312 133.834C256.736 134.205 256.285 134.75 255.958 135.469C255.632 136.184 255.469 137.058 255.469 138.09C255.469 139.14 255.632 140.025 255.958 140.744C256.289 141.459 256.74 142 257.312 142.366C257.889 142.728 258.548 142.909 259.29 142.909C259.701 142.909 260.085 142.855 260.442 142.748C260.804 142.636 261.128 142.473 261.414 142.259C261.705 142.044 261.948 141.781 262.145 141.468C262.346 141.155 262.484 140.798 262.56 140.396L265.067 140.409C264.973 141.061 264.77 141.673 264.457 142.245C264.149 142.817 263.744 143.322 263.244 143.76C262.744 144.194 262.158 144.533 261.488 144.779C260.818 145.02 260.074 145.141 259.256 145.141C258.05 145.141 256.973 144.862 256.025 144.303C255.078 143.744 254.332 142.938 253.787 141.883C253.242 140.829 252.969 139.564 252.969 138.09C252.969 136.611 253.244 135.346 253.794 134.296C254.343 133.242 255.092 132.435 256.039 131.877C256.986 131.318 258.059 131.039 259.256 131.039C260.02 131.039 260.731 131.146 261.387 131.361C262.044 131.575 262.63 131.89 263.143 132.306C263.657 132.717 264.08 133.222 264.41 133.82C264.745 134.415 264.964 135.094 265.067 135.858ZM267.237 144.953V134.658H269.589V136.374H269.697C269.884 135.78 270.206 135.322 270.662 135C271.122 134.674 271.647 134.511 272.237 134.511C272.371 134.511 272.521 134.518 272.686 134.531C272.856 134.54 272.996 134.556 273.108 134.578V136.81C273.005 136.774 272.842 136.743 272.619 136.716C272.4 136.685 272.188 136.669 271.982 136.669C271.54 136.669 271.142 136.765 270.789 136.957C270.441 137.145 270.166 137.406 269.965 137.741C269.764 138.076 269.663 138.463 269.663 138.901V144.953H267.237ZM278.854 145.154C277.822 145.154 276.93 144.94 276.18 144.511C275.433 144.077 274.859 143.465 274.457 142.674C274.055 141.879 273.854 140.943 273.854 139.866C273.854 138.807 274.055 137.878 274.457 137.078C274.864 136.274 275.431 135.648 276.159 135.201C276.888 134.75 277.743 134.524 278.726 134.524C279.361 134.524 279.96 134.627 280.523 134.833C281.09 135.034 281.591 135.346 282.024 135.771C282.462 136.195 282.806 136.736 283.056 137.393C283.306 138.045 283.431 138.823 283.431 139.725V140.469H274.993V138.834H281.106C281.101 138.369 281.001 137.956 280.804 137.594C280.608 137.228 280.333 136.939 279.98 136.729C279.631 136.519 279.225 136.414 278.76 136.414C278.264 136.414 277.828 136.535 277.453 136.776C277.078 137.013 276.785 137.326 276.575 137.715C276.369 138.099 276.264 138.521 276.26 138.981V140.409C276.26 141.008 276.369 141.522 276.588 141.95C276.807 142.375 277.113 142.701 277.507 142.929C277.9 143.152 278.36 143.264 278.887 143.264C279.24 143.264 279.56 143.215 279.846 143.117C280.132 143.014 280.38 142.864 280.59 142.668C280.8 142.471 280.958 142.227 281.066 141.937L283.331 142.192C283.188 142.79 282.915 143.313 282.513 143.76C282.116 144.202 281.606 144.547 280.985 144.792C280.364 145.034 279.654 145.154 278.854 145.154ZM288.447 145.161C287.794 145.161 287.207 145.045 286.684 144.812C286.165 144.576 285.754 144.227 285.451 143.767C285.151 143.307 285.002 142.739 285.002 142.064C285.002 141.484 285.109 141.003 285.323 140.623C285.538 140.244 285.83 139.94 286.201 139.712C286.572 139.484 286.99 139.312 287.455 139.196C287.924 139.075 288.409 138.988 288.909 138.934C289.512 138.872 290.001 138.816 290.377 138.767C290.752 138.713 291.025 138.633 291.195 138.526C291.369 138.414 291.456 138.242 291.456 138.009V137.969C291.456 137.464 291.306 137.073 291.007 136.796C290.707 136.519 290.276 136.381 289.713 136.381C289.119 136.381 288.648 136.51 288.299 136.77C287.955 137.029 287.723 137.335 287.602 137.688L285.337 137.366C285.515 136.74 285.81 136.218 286.221 135.798C286.632 135.373 287.135 135.056 287.729 134.846C288.324 134.631 288.98 134.524 289.7 134.524C290.196 134.524 290.69 134.582 291.181 134.698C291.673 134.815 292.122 135.007 292.528 135.275C292.935 135.539 293.261 135.898 293.507 136.354C293.757 136.81 293.882 137.379 293.882 138.063V144.953H291.55V143.539H291.469C291.322 143.825 291.114 144.093 290.846 144.343C290.582 144.589 290.249 144.788 289.847 144.94C289.45 145.087 288.983 145.161 288.447 145.161ZM289.077 143.378C289.564 143.378 289.986 143.282 290.343 143.09C290.701 142.893 290.976 142.634 291.168 142.312C291.364 141.991 291.463 141.64 291.463 141.26V140.047C291.387 140.11 291.257 140.168 291.074 140.221C290.895 140.275 290.694 140.322 290.471 140.362C290.247 140.402 290.026 140.438 289.807 140.469C289.588 140.501 289.398 140.527 289.237 140.55C288.875 140.599 288.552 140.679 288.266 140.791C287.98 140.903 287.754 141.059 287.589 141.26C287.423 141.457 287.341 141.711 287.341 142.024C287.341 142.471 287.504 142.808 287.83 143.036C288.156 143.264 288.572 143.378 289.077 143.378ZM301.463 134.658V136.535H295.544V134.658H301.463ZM297.005 132.192H299.432V141.857C299.432 142.183 299.481 142.433 299.579 142.607C299.682 142.777 299.816 142.893 299.981 142.956C300.147 143.018 300.33 143.05 300.531 143.05C300.683 143.05 300.821 143.038 300.946 143.016C301.076 142.994 301.174 142.974 301.241 142.956L301.65 144.853C301.521 144.897 301.335 144.946 301.094 145C300.857 145.054 300.567 145.085 300.223 145.094C299.615 145.112 299.068 145.02 298.581 144.819C298.093 144.614 297.707 144.296 297.421 143.867C297.14 143.438 297.001 142.902 297.005 142.259V132.192ZM303.492 144.953V134.658H305.918V144.953H303.492ZM304.712 133.197C304.327 133.197 303.997 133.07 303.72 132.815C303.443 132.556 303.304 132.245 303.304 131.884C303.304 131.517 303.443 131.207 303.72 130.952C303.997 130.693 304.327 130.563 304.712 130.563C305.1 130.563 305.431 130.693 305.703 130.952C305.98 131.207 306.119 131.517 306.119 131.884C306.119 132.245 305.98 132.556 305.703 132.815C305.431 133.07 305.1 133.197 304.712 133.197ZM317.609 134.658L313.942 144.953H311.261L307.595 134.658H310.182L312.548 142.306H312.656L315.028 134.658H317.609ZM319.288 144.953V134.658H321.714V144.953H319.288ZM320.507 133.197C320.123 133.197 319.792 133.07 319.515 132.815C319.238 132.556 319.1 132.245 319.1 131.884C319.1 131.517 319.238 131.207 319.515 130.952C319.792 130.693 320.123 130.563 320.507 130.563C320.896 130.563 321.227 130.693 321.499 130.952C321.776 131.207 321.915 131.517 321.915 131.884C321.915 132.245 321.776 132.556 321.499 132.815C321.227 133.07 320.896 133.197 320.507 133.197ZM329.349 134.658V136.535H323.431V134.658H329.349ZM324.892 132.192H327.319V141.857C327.319 142.183 327.368 142.433 327.466 142.607C327.569 142.777 327.703 142.893 327.868 142.956C328.034 143.018 328.217 143.05 328.418 143.05C328.57 143.05 328.708 143.038 328.833 143.016C328.963 142.994 329.061 142.974 329.128 142.956L329.537 144.853C329.408 144.897 329.222 144.946 328.981 145C328.744 145.054 328.454 145.085 328.109 145.094C327.502 145.112 326.954 145.02 326.467 144.819C325.98 144.614 325.594 144.296 325.308 143.867C325.026 143.438 324.888 142.902 324.892 142.259V132.192ZM332.887 148.814C332.556 148.814 332.25 148.787 331.968 148.733C331.691 148.684 331.47 148.626 331.305 148.559L331.868 146.669C332.221 146.772 332.536 146.821 332.813 146.816C333.09 146.812 333.333 146.725 333.543 146.555C333.758 146.39 333.939 146.113 334.086 145.724L334.294 145.168L330.561 134.658H333.135L335.507 142.433H335.614L337.994 134.658H340.574L336.452 146.2C336.26 146.745 336.005 147.212 335.688 147.601C335.371 147.994 334.982 148.293 334.522 148.499C334.066 148.709 333.521 148.814 332.887 148.814Z" fill="#15293F"/>
<rect x="13.0391" y="220.842" width="169.865" height="171.752" rx="7.80692" fill="white"/>
<path d="M53.9104 351.682V365.408H51.4238V351.682H53.9104ZM58.9221 359.376V365.408H56.4959V355.113H58.8149V356.863H58.9355C59.1723 356.286 59.5499 355.828 60.0682 355.489C60.591 355.149 61.2367 354.979 62.0052 354.979C62.7157 354.979 63.3345 355.131 63.8618 355.435C64.3935 355.739 64.8046 356.179 65.095 356.755C65.3899 357.332 65.5351 358.031 65.5306 358.853V365.408H63.1044V359.229C63.1044 358.541 62.9257 358.002 62.5682 357.613C62.2152 357.225 61.7259 357.03 61.1004 357.03C60.6759 357.03 60.2983 357.124 59.9677 357.312C59.6415 357.495 59.3846 357.761 59.1969 358.109C59.0137 358.458 58.9221 358.88 58.9221 359.376ZM70.4234 359.376V365.408H67.9971V355.113H70.3161V356.863H70.4368C70.6736 356.286 71.0512 355.828 71.5695 355.489C72.0923 355.149 72.7379 354.979 73.5065 354.979C74.2169 354.979 74.8358 355.131 75.363 355.435C75.8947 355.739 76.3058 356.179 76.5963 356.755C76.8912 357.332 77.0364 358.031 77.0319 358.853V365.408H74.6057V359.229C74.6057 358.541 74.4269 358.002 74.0695 357.613C73.7165 357.225 73.2272 357.03 72.6016 357.03C72.1772 357.03 71.7996 357.124 71.4689 357.312C71.1428 357.495 70.8858 357.761 70.6982 358.109C70.515 358.458 70.4234 358.88 70.4234 359.376ZM83.989 365.609C82.9836 365.609 82.1123 365.388 81.3751 364.946C80.6378 364.503 80.0659 363.885 79.6592 363.089C79.2571 362.294 79.056 361.364 79.056 360.301C79.056 359.238 79.2571 358.306 79.6592 357.506C80.0659 356.706 80.6378 356.085 81.3751 355.643C82.1123 355.2 82.9836 354.979 83.989 354.979C84.9943 354.979 85.8656 355.2 86.6029 355.643C87.3402 356.085 87.9099 356.706 88.312 357.506C88.7186 358.306 88.9219 359.238 88.9219 360.301C88.9219 361.364 88.7186 362.294 88.312 363.089C87.9099 363.885 87.3402 364.503 86.6029 364.946C85.8656 365.388 84.9943 365.609 83.989 365.609ZM84.0024 363.666C84.5475 363.666 85.0033 363.516 85.3697 363.217C85.7361 362.913 86.0086 362.506 86.1874 361.997C86.3706 361.487 86.4622 360.92 86.4622 360.294C86.4622 359.664 86.3706 359.095 86.1874 358.585C86.0086 358.071 85.7361 357.662 85.3697 357.359C85.0033 357.055 84.5475 356.903 84.0024 356.903C83.4439 356.903 82.9792 357.055 82.6083 357.359C82.2419 357.662 81.9671 358.071 81.7839 358.585C81.6052 359.095 81.5158 359.664 81.5158 360.294C81.5158 360.92 81.6052 361.487 81.7839 361.997C81.9671 362.506 82.2419 362.913 82.6083 363.217C82.9792 363.516 83.4439 363.666 84.0024 363.666ZM99.8267 355.113L96.1605 365.408H93.4795L89.8133 355.113H92.4005L94.7664 362.761H94.8736L97.2463 355.113H99.8267ZM104.173 365.616C103.521 365.616 102.933 365.5 102.41 365.267C101.892 365.031 101.481 364.682 101.177 364.222C100.878 363.762 100.728 363.194 100.728 362.519C100.728 361.939 100.835 361.458 101.05 361.078C101.264 360.699 101.557 360.395 101.928 360.167C102.299 359.939 102.717 359.767 103.181 359.651C103.65 359.53 104.135 359.443 104.636 359.389C105.239 359.327 105.728 359.271 106.103 359.222C106.479 359.168 106.751 359.088 106.921 358.981C107.095 358.869 107.183 358.697 107.183 358.465V358.424C107.183 357.919 107.033 357.528 106.733 357.251C106.434 356.974 106.003 356.836 105.44 356.836C104.846 356.836 104.374 356.965 104.026 357.225C103.682 357.484 103.449 357.79 103.329 358.143L101.063 357.821C101.242 357.196 101.537 356.673 101.948 356.253C102.359 355.828 102.862 355.511 103.456 355.301C104.05 355.087 104.707 354.979 105.427 354.979C105.922 354.979 106.416 355.037 106.908 355.154C107.399 355.27 107.848 355.462 108.255 355.73C108.662 355.994 108.988 356.353 109.233 356.809C109.484 357.265 109.609 357.835 109.609 358.518V365.408H107.276V363.994H107.196C107.048 364.28 106.841 364.548 106.573 364.798C106.309 365.044 105.976 365.243 105.574 365.395C105.176 365.542 104.709 365.616 104.173 365.616ZM104.803 363.833C105.29 363.833 105.712 363.737 106.07 363.545C106.427 363.348 106.702 363.089 106.894 362.767C107.091 362.446 107.189 362.095 107.189 361.715V360.502C107.113 360.565 106.984 360.623 106.8 360.676C106.622 360.73 106.421 360.777 106.197 360.817C105.974 360.857 105.753 360.893 105.534 360.924C105.315 360.956 105.125 360.982 104.964 361.005C104.602 361.054 104.278 361.134 103.992 361.246C103.706 361.358 103.481 361.514 103.315 361.715C103.15 361.912 103.067 362.166 103.067 362.479C103.067 362.926 103.23 363.263 103.557 363.491C103.883 363.719 104.298 363.833 104.803 363.833ZM117.189 355.113V356.99H111.271V355.113H117.189ZM112.732 352.647H115.158V362.312C115.158 362.638 115.208 362.888 115.306 363.062C115.409 363.232 115.543 363.348 115.708 363.411C115.873 363.473 116.056 363.505 116.258 363.505C116.409 363.505 116.548 363.494 116.673 363.471C116.803 363.449 116.901 363.429 116.968 363.411L117.377 365.308C117.247 365.352 117.062 365.402 116.821 365.455C116.584 365.509 116.293 365.54 115.949 365.549C115.342 365.567 114.794 365.475 114.307 365.274C113.82 365.069 113.434 364.751 113.148 364.322C112.866 363.893 112.728 363.357 112.732 362.714V352.647ZM119.218 365.408V355.113H121.645V365.408H119.218ZM120.438 353.652C120.054 353.652 119.723 353.525 119.446 353.27C119.169 353.011 119.031 352.701 119.031 352.339C119.031 351.972 119.169 351.662 119.446 351.407C119.723 351.148 120.054 351.018 120.438 351.018C120.827 351.018 121.158 351.148 121.43 351.407C121.707 351.662 121.846 351.972 121.846 352.339C121.846 352.701 121.707 353.011 121.43 353.27C121.158 353.525 120.827 353.652 120.438 353.652ZM128.63 365.609C127.625 365.609 126.753 365.388 126.016 364.946C125.279 364.503 124.707 363.885 124.3 363.089C123.898 362.294 123.697 361.364 123.697 360.301C123.697 359.238 123.898 358.306 124.3 357.506C124.707 356.706 125.279 356.085 126.016 355.643C126.753 355.2 127.625 354.979 128.63 354.979C129.635 354.979 130.507 355.2 131.244 355.643C131.981 356.085 132.551 356.706 132.953 357.506C133.36 358.306 133.563 359.238 133.563 360.301C133.563 361.364 133.36 362.294 132.953 363.089C132.551 363.885 131.981 364.503 131.244 364.946C130.507 365.388 129.635 365.609 128.63 365.609ZM128.644 363.666C129.189 363.666 129.644 363.516 130.011 363.217C130.377 362.913 130.65 362.506 130.828 361.997C131.012 361.487 131.103 360.92 131.103 360.294C131.103 359.664 131.012 359.095 130.828 358.585C130.65 358.071 130.377 357.662 130.011 357.359C129.644 357.055 129.189 356.903 128.644 356.903C128.085 356.903 127.62 357.055 127.249 357.359C126.883 357.662 126.608 358.071 126.425 358.585C126.246 359.095 126.157 359.664 126.157 360.294C126.157 360.92 126.246 361.487 126.425 361.997C126.608 362.506 126.883 362.913 127.249 363.217C127.62 363.516 128.085 363.666 128.644 363.666ZM138.049 359.376V365.408H135.622V355.113H137.941V356.863H138.062C138.299 356.286 138.676 355.828 139.195 355.489C139.718 355.149 140.363 354.979 141.132 354.979C141.842 354.979 142.461 355.131 142.988 355.435C143.52 355.739 143.931 356.179 144.222 356.755C144.516 357.332 144.662 358.031 144.657 358.853V365.408H142.231V359.229C142.231 358.541 142.052 358.002 141.695 357.613C141.342 357.225 140.852 357.03 140.227 357.03C139.802 357.03 139.425 357.124 139.094 357.312C138.768 357.495 138.511 357.761 138.323 358.109C138.14 358.458 138.049 358.88 138.049 359.376Z" fill="#15293F"/>
<path d="M99.4883 319.584C99.4883 319.959 99.7801 320.253 100.157 320.253H106.417C106.792 320.253 107.085 319.961 107.085 319.584V316.203H99.4884L99.4883 319.584Z" fill="#3196F5"/>
<path d="M117.515 296.673C117.306 296.338 116.931 296.089 116.514 296.004C115.971 295.921 115.428 296.13 115.096 296.588L112.34 300.469C112.424 300.553 112.466 300.636 112.507 300.72C113.258 301.806 113.175 303.267 112.298 304.268L112.132 304.476C111.005 305.771 109.753 306.981 108.459 308.066L107.332 308.942C106.957 309.234 106.455 309.193 106.164 308.816C105.872 308.441 105.912 307.939 106.289 307.647L107.375 306.77C108.627 305.769 109.796 304.6 110.88 303.389L111.088 303.18C111.463 302.763 111.506 302.137 111.172 301.677C110.963 301.386 110.712 301.218 110.379 301.134C110.045 301.092 109.711 301.134 109.461 301.343L103.41 305.56C102.742 306.02 102.241 306.687 102.033 307.481L99.8203 314.618H107.667L112.926 311.405C113.844 310.862 114.512 309.944 114.762 308.943L117.725 297.884C117.808 297.422 117.766 297.005 117.515 296.673Z" fill="#3196F5"/>
<path d="M93.8503 307.438C93.5992 306.686 93.1412 305.977 92.4728 305.517L86.4639 301.345C86.1721 301.137 85.8803 301.094 85.5461 301.137C85.2119 301.179 84.9201 301.388 84.7538 301.68C84.4197 302.139 84.462 302.765 84.837 303.183L85.0457 303.391C86.089 304.601 87.2579 305.729 88.5506 306.772L89.6364 307.65C89.8027 307.775 89.9282 307.984 89.9282 308.192C89.9706 308.401 89.8858 308.61 89.7619 308.818C89.6364 308.985 89.4277 309.11 89.219 309.11C89.0104 309.153 88.8017 309.068 88.593 308.944L87.5073 308.067C86.1721 306.981 84.9201 305.772 83.8344 304.477L83.6257 304.268C82.7486 303.267 82.6655 301.807 83.417 300.721C83.4594 300.638 83.5426 300.555 83.5833 300.47L80.8282 296.588C80.494 296.129 79.9511 295.92 79.4099 296.005C78.9926 296.088 78.6584 296.297 78.409 296.673C78.2003 297.007 78.1172 297.425 78.2427 297.842L81.2065 308.902C81.4983 309.945 82.1243 310.822 83.0421 311.363L88.3014 314.576H96.1477L93.8503 307.438Z" fill="#3196F5"/>
<path d="M88.7618 319.584C88.7618 319.959 89.0536 320.253 89.4302 320.253H95.6903C96.0652 320.253 96.3994 319.961 96.3994 319.584V316.203H88.7617L88.7618 319.584Z" fill="#3196F5"/>
<path d="M108.623 291.579C108.623 285.696 103.824 280.896 97.9386 280.896C92.0533 280.896 87.2539 285.696 87.2539 291.579C87.2539 296.379 90.4263 300.386 94.8085 301.762L96.8952 305.935C97.3126 306.812 98.5646 306.812 99.0243 305.935L101.111 301.762C105.45 300.386 108.623 296.379 108.623 291.579ZM98.1051 297.716C97.3959 297.716 96.8107 297.132 96.8107 296.421C96.8107 295.712 97.3943 295.127 98.1051 295.127C98.8142 295.127 99.3995 295.71 99.3995 296.421C99.3995 297.13 98.8159 297.716 98.1051 297.716ZM99.8592 292.499C99.4419 292.791 99.2332 292.916 99.1908 293.625C99.1484 293.917 98.899 294.168 98.6072 294.168H97.6894C97.3552 294.168 97.0634 293.876 97.1058 293.5C97.2313 291.873 97.8573 291.288 98.6496 290.745C98.9838 290.536 99.2332 290.327 99.5674 289.91C99.8592 289.493 99.9016 288.95 99.6505 288.449C99.4843 288.115 99.0669 287.572 98.0236 287.572C96.6884 287.572 96.2711 288.407 96.1456 289.075C96.1032 289.367 95.8538 289.576 95.562 289.576H94.6442C94.2692 289.576 93.9758 289.242 94.0606 288.907C94.3116 287.155 95.6044 285.443 98.0677 285.443C99.6115 285.443 100.947 286.195 101.615 287.487C102.241 288.697 102.115 290.117 101.323 291.16C100.735 291.873 100.234 292.205 99.8592 292.499Z" fill="#3196F5"/>
<rect x="14.543" y="25.543" width="169.865" height="171.752" rx="7.80692" fill="white"/>
<path d="M64.7314 156.385V170.111H62.2449V156.385H64.7314ZM69.7431 164.079V170.111H67.3169V159.816H69.6359V161.566H69.7566C69.9934 160.989 70.3709 160.531 70.8893 160.192C71.412 159.852 72.0577 159.682 72.8262 159.682C73.5367 159.682 74.1555 159.834 74.6828 160.138C75.2145 160.442 75.6256 160.882 75.916 161.459C76.2109 162.035 76.3562 162.734 76.3517 163.556V170.111H73.9254V163.932C73.9254 163.244 73.7467 162.705 73.3892 162.316C73.0362 161.928 72.547 161.733 71.9214 161.733C71.4969 161.733 71.1194 161.827 70.7887 162.015C70.4625 162.198 70.2056 162.464 70.0179 162.812C69.8347 163.161 69.7431 163.583 69.7431 164.079ZM83.9589 159.816V161.693H78.0407V159.816H83.9589ZM79.5018 157.35H81.9281V167.015C81.9281 167.341 81.9772 167.591 82.0755 167.765C82.1783 167.935 82.3123 168.051 82.4777 168.114C82.643 168.177 82.8262 168.208 83.0272 168.208C83.1792 168.208 83.3177 168.197 83.4428 168.174C83.5724 168.152 83.6707 168.132 83.7377 168.114L84.1465 170.011C84.017 170.055 83.8315 170.105 83.5902 170.158C83.3534 170.212 83.063 170.243 82.7189 170.252C82.1113 170.27 81.5639 170.178 81.0769 169.977C80.5898 169.772 80.2033 169.454 79.9173 169.026C79.6358 168.597 79.4973 168.06 79.5018 167.417V157.35ZM90.435 170.312C89.4029 170.312 88.5115 170.098 87.7608 169.669C87.0146 169.236 86.4404 168.623 86.0383 167.833C85.6361 167.037 85.4351 166.101 85.4351 165.024C85.4351 163.965 85.6361 163.036 86.0383 162.236C86.4449 161.432 87.0124 160.806 87.7407 160.359C88.469 159.908 89.3247 159.682 90.3077 159.682C90.9422 159.682 91.5409 159.785 92.1039 159.991C92.6714 160.192 93.1718 160.505 93.6053 160.929C94.0432 161.354 94.3872 161.894 94.6374 162.551C94.8877 163.203 95.0128 163.981 95.0128 164.883V165.627H86.5745V163.992H92.687C92.6826 163.527 92.582 163.114 92.3854 162.752C92.1888 162.386 91.914 162.098 91.561 161.888C91.2125 161.678 90.8059 161.573 90.3412 161.573C89.8452 161.573 89.4096 161.693 89.0342 161.934C88.6589 162.171 88.3662 162.484 88.1562 162.873C87.9507 163.257 87.8457 163.679 87.8412 164.14V165.567C87.8412 166.166 87.9507 166.68 88.1696 167.109C88.3886 167.533 88.6947 167.859 89.0879 168.087C89.4811 168.311 89.9413 168.422 90.4686 168.422C90.8215 168.422 91.141 168.373 91.427 168.275C91.713 168.172 91.961 168.022 92.171 167.826C92.381 167.629 92.5396 167.386 92.6468 167.095L94.9122 167.35C94.7692 167.949 94.4967 168.471 94.0945 168.918C93.6969 169.361 93.1875 169.705 92.5664 169.95C91.9453 170.192 91.2349 170.312 90.435 170.312ZM101.543 174.186C100.671 174.186 99.9228 174.068 99.2973 173.831C98.6717 173.599 98.169 173.286 97.7892 172.893C97.4094 172.5 97.1458 172.064 96.9983 171.586L99.1833 171.056C99.2816 171.257 99.4246 171.456 99.6123 171.653C99.7999 171.854 100.052 172.019 100.37 172.149C100.691 172.283 101.096 172.35 101.583 172.35C102.271 172.35 102.841 172.182 103.292 171.847C103.743 171.517 103.969 170.971 103.969 170.212V168.261H103.848C103.723 168.512 103.54 168.769 103.299 169.032C103.062 169.296 102.747 169.517 102.354 169.696C101.965 169.875 101.476 169.964 100.886 169.964C100.095 169.964 99.3777 169.778 98.7343 169.408C98.0953 169.032 97.5859 168.474 97.2061 167.732C96.8308 166.986 96.6431 166.052 96.6431 164.93C96.6431 163.8 96.8308 162.846 97.2061 162.068C97.5859 161.287 98.0975 160.694 98.741 160.292C99.3844 159.886 100.102 159.682 100.892 159.682C101.496 159.682 101.992 159.785 102.38 159.991C102.774 160.192 103.086 160.435 103.319 160.721C103.551 161.003 103.728 161.269 103.848 161.519H103.982V159.816H106.375V170.279C106.375 171.159 106.165 171.887 105.745 172.464C105.325 173.04 104.751 173.471 104.022 173.757C103.294 174.043 102.467 174.186 101.543 174.186ZM101.563 168.06C102.077 168.06 102.514 167.935 102.876 167.685C103.238 167.435 103.513 167.075 103.701 166.606C103.888 166.137 103.982 165.574 103.982 164.917C103.982 164.269 103.888 163.702 103.701 163.215C103.518 162.728 103.245 162.35 102.883 162.082C102.526 161.809 102.085 161.673 101.563 161.673C101.022 161.673 100.571 161.814 100.209 162.095C99.8468 162.377 99.5743 162.763 99.3911 163.255C99.2079 163.742 99.1163 164.296 99.1163 164.917C99.1163 165.547 99.2079 166.099 99.3911 166.572C99.5788 167.042 99.8535 167.408 100.215 167.672C100.582 167.931 101.031 168.06 101.563 168.06ZM108.862 170.111V159.816H111.214V161.532H111.321C111.509 160.938 111.831 160.48 112.286 160.158C112.747 159.832 113.272 159.669 113.862 159.669C113.996 159.669 114.145 159.676 114.311 159.689C114.48 159.698 114.621 159.714 114.733 159.736V161.968C114.63 161.932 114.467 161.901 114.244 161.874C114.025 161.843 113.812 161.827 113.607 161.827C113.164 161.827 112.767 161.923 112.414 162.115C112.065 162.303 111.79 162.564 111.589 162.9C111.388 163.235 111.288 163.621 111.288 164.059V170.111H108.862ZM116.345 170.111V159.816H118.771V170.111H116.345ZM117.565 158.355C117.18 158.355 116.85 158.228 116.573 157.973C116.296 157.714 116.157 157.404 116.157 157.042C116.157 156.675 116.296 156.365 116.573 156.11C116.85 155.851 117.18 155.721 117.565 155.721C117.953 155.721 118.284 155.851 118.557 156.11C118.834 156.365 118.972 156.675 118.972 157.042C118.972 157.404 118.834 157.714 118.557 157.973C118.284 158.228 117.953 158.355 117.565 158.355ZM126.407 159.816V161.693H120.488V159.816H126.407ZM121.95 157.35H124.376V167.015C124.376 167.341 124.425 167.591 124.523 167.765C124.626 167.935 124.76 168.051 124.925 168.114C125.091 168.177 125.274 168.208 125.475 168.208C125.627 168.208 125.765 168.197 125.891 168.174C126.02 168.152 126.118 168.132 126.185 168.114L126.594 170.011C126.465 170.055 126.279 170.105 126.038 170.158C125.801 170.212 125.511 170.243 125.167 170.252C124.559 170.27 124.012 170.178 123.525 169.977C123.038 169.772 122.651 169.454 122.365 169.026C122.084 168.597 121.945 168.06 121.95 167.417V157.35ZM129.944 173.972C129.613 173.972 129.307 173.945 129.026 173.891C128.749 173.842 128.527 173.784 128.362 173.717L128.925 171.827C129.278 171.93 129.593 171.979 129.87 171.975C130.147 171.97 130.391 171.883 130.601 171.713C130.815 171.548 130.996 171.271 131.144 170.882L131.351 170.326L127.618 159.816H130.192L132.564 167.591H132.672L135.051 159.816H137.631L133.51 171.358C133.317 171.903 133.063 172.37 132.745 172.759C132.428 173.152 132.039 173.451 131.579 173.657C131.123 173.867 130.578 173.972 129.944 173.972Z" fill="#15293F"/>
<path d="M100.524 104.784C102.271 104.47 103.526 103.933 104.422 103.35C102.989 101.647 100.927 100.527 98.6427 100.303C97.1636 101.064 95.506 101.512 93.7593 101.512C92.0124 101.512 90.353 101.11 88.8758 100.303C84.484 100.796 80.9883 104.56 80.9883 109.132V114.42C80.9883 114.868 81.3471 115.227 81.7952 115.227H97.0765C97.031 114.868 97.031 114.509 97.031 114.152V108.775C97.0747 106.8 98.5083 105.099 100.525 104.784L100.524 104.784Z" fill="#3196F5"/>
<path d="M101.509 90.8007C101.509 95.0577 98.0576 98.5076 93.8007 98.5076C89.5455 98.5076 86.0938 95.0576 86.0938 90.8007C86.0938 86.5438 89.5455 83.0938 93.8007 83.0938C98.0577 83.0938 101.509 86.5438 101.509 90.8007Z" fill="#3196F5"/>
<path d="M116.877 107.65C112.979 107.024 110.828 105.275 109.796 104.066C109.348 103.572 108.541 103.572 108.093 104.066C107.019 105.275 104.911 107.024 101.013 107.65C100.43 107.74 100.027 108.233 100.027 108.816V114.193C100.027 120.154 106.39 124.365 108.406 125.531C108.765 125.755 109.213 125.755 109.572 125.531C111.543 124.365 117.951 120.154 117.951 114.193V108.816C117.908 108.233 117.46 107.74 116.877 107.65ZM113.472 113.117L108.902 117.687C108.633 117.957 108.276 118.135 107.871 118.135C107.469 118.135 107.11 118 106.84 117.687L104.465 115.312C103.882 114.729 103.882 113.789 104.465 113.25C105.048 112.667 105.988 112.667 106.527 113.25L107.871 114.594L111.41 111.055C111.993 110.472 112.933 110.472 113.472 111.055C114.01 111.594 114.01 112.534 113.472 113.117Z" fill="#3196F5"/>
<path fill-rule="evenodd" clip-rule="evenodd" d="M315.021 275.452L313.728 279.434H309.54C308.902 279.434 308.336 279.845 308.141 280.449C307.943 281.056 308.159 281.72 308.676 282.095L312.064 284.555L310.771 288.537C310.573 289.144 310.789 289.808 311.306 290.183C311.823 290.558 312.519 290.558 313.036 290.183L316.424 287.723L319.813 290.183C320.33 290.558 321.026 290.558 321.543 290.183C322.06 289.808 322.276 289.144 322.078 288.537L320.785 284.555L324.173 282.095C324.69 281.719 324.903 281.056 324.708 280.449C324.51 279.843 323.947 279.434 323.309 279.434H319.121L317.828 275.452C317.63 274.845 317.067 274.436 316.429 274.436C315.792 274.436 315.226 274.847 315.031 275.452H315.021ZM272.136 275.452L270.843 279.434H266.655C266.017 279.434 265.452 279.845 265.256 280.449C265.058 281.056 265.274 281.72 265.791 282.095L269.179 284.555L267.886 288.537C267.688 289.144 267.904 289.808 268.421 290.183C268.938 290.558 269.634 290.558 270.151 290.183L273.54 287.723L276.928 290.183C277.445 290.558 278.141 290.558 278.658 290.183C279.175 289.808 279.391 289.144 279.193 288.537L277.9 284.555L281.288 282.095C281.805 281.719 282.018 281.056 281.823 280.449C281.625 279.843 281.062 279.434 280.424 279.434H276.236L274.943 275.452C274.745 274.845 274.182 274.436 273.545 274.436C272.907 274.436 272.342 274.847 272.146 275.452H272.136ZM293.667 262.919L290.819 271.688H281.599C280.962 271.688 280.396 272.099 280.201 272.706C280.003 273.313 280.219 273.976 280.735 274.351L288.194 279.771L285.345 288.54C285.147 289.146 285.363 289.81 285.88 290.185C286.397 290.56 287.093 290.56 287.61 290.185L295.068 284.766L302.529 290.185C303.046 290.56 303.742 290.56 304.259 290.185C304.776 289.81 304.992 289.146 304.794 288.54L301.945 279.771L309.403 274.351C309.92 273.976 310.134 273.313 309.938 272.706C309.74 272.099 309.177 271.688 308.54 271.688H299.32L296.472 262.919C296.274 262.312 295.711 261.903 295.073 261.903C294.436 261.903 293.87 262.314 293.675 262.919H293.667ZM272.735 266.518V269.698C272.735 270.264 273.195 270.724 273.763 270.724C274.331 270.724 274.792 270.264 274.792 269.698V266.518C274.792 265.95 274.331 265.49 273.763 265.49C273.195 265.49 272.735 265.95 272.735 266.518ZM315.142 266.518V269.698C315.142 270.264 315.602 270.724 316.17 270.724C316.738 270.724 317.198 270.264 317.198 269.698V266.518C317.198 265.95 316.738 265.49 316.17 265.49C315.602 265.49 315.142 265.95 315.142 266.518ZM309.182 267.245L310.774 269.999C311.057 270.49 311.686 270.657 312.178 270.374C312.669 270.091 312.836 269.462 312.553 268.971L310.961 266.217C310.679 265.726 310.049 265.559 309.558 265.842C309.067 266.125 308.9 266.754 309.182 267.245ZM278.967 266.217L277.376 268.971C277.093 269.462 277.26 270.089 277.751 270.374C278.242 270.657 278.869 270.49 279.155 269.999L280.746 267.245C281.029 266.754 280.862 266.127 280.371 265.842C279.88 265.559 279.252 265.726 278.967 266.217ZM321.374 266.217L319.783 268.971C319.5 269.462 319.667 270.089 320.158 270.374C320.649 270.657 321.276 270.49 321.562 269.999L323.153 267.245C323.436 266.754 323.269 266.127 322.778 265.842C322.287 265.559 321.659 265.726 321.374 266.217ZM266.776 267.245L268.368 269.999C268.65 270.49 269.28 270.657 269.771 270.374C270.262 270.091 270.429 269.462 270.147 268.971L268.555 266.217C268.272 265.726 267.643 265.559 267.151 265.842C266.66 266.125 266.493 266.754 266.776 267.245ZM293.938 255.759V258.939C293.938 259.505 294.398 259.965 294.966 259.965C295.534 259.965 295.995 259.505 295.995 258.939V255.759C295.995 255.191 295.534 254.73 294.966 254.73C294.398 254.73 293.938 255.191 293.938 255.759ZM287.979 256.486L289.57 259.24C289.853 259.731 290.483 259.898 290.974 259.615C291.465 259.332 291.632 258.703 291.349 258.211L289.758 255.458C289.475 254.967 288.845 254.8 288.354 255.083C287.863 255.366 287.696 255.995 287.979 256.486ZM300.169 255.458L298.578 258.211C298.295 258.703 298.462 259.33 298.953 259.615C299.444 259.898 300.072 259.731 300.357 259.24L301.948 256.486C302.231 255.995 302.064 255.368 301.573 255.083C301.082 254.8 300.455 254.967 300.169 255.458Z" fill="#3196F5"/>
<path d="M311.222 79.4634L308.576 76.4289H308.574C308.444 76.2799 308.372 76.0909 308.37 75.8954V73.4345C308.374 69.466 306.55 65.7089 303.409 63.2144C300.269 60.7198 296.147 59.7553 292.198 60.5917C288.25 61.4264 284.899 63.9722 283.08 67.5162C281.264 71.0602 281.176 75.2209 282.842 78.8372C283.439 80.002 284.196 81.0834 285.091 82.0479C285.426 82.4581 285.771 82.8682 286.106 83.2784H286.107C287.338 84.802 288.266 86.5419 288.84 88.4052C289.274 89.9545 289.514 91.5487 289.555 93.154C289.573 93.5946 289.941 93.9422 290.39 93.9422H298.768C298.99 93.9422 299.202 93.8557 299.359 93.7019C299.515 93.5481 299.603 93.3398 299.603 93.1219V91.4813C299.603 90.1227 300.725 89.0204 302.108 89.0204H305.865C307.248 89.0204 308.37 87.9181 308.37 86.5595V81.6377C308.37 81.1843 308.744 80.8174 309.205 80.8174H310.586C310.913 80.8174 311.209 80.6316 311.345 80.3399C311.482 80.05 311.433 79.7069 311.222 79.4634ZM298.819 75.4404C298.158 75.9403 297.777 76.7173 297.792 77.536V80.8172C297.792 81.253 297.615 81.6695 297.302 81.9772C296.989 82.2848 296.565 82.4578 296.122 82.4578H293.617C292.694 82.4578 291.947 81.724 291.947 80.8172V77.536C291.962 76.7157 291.578 75.9355 290.916 75.4356C289.393 74.3381 288.413 72.6575 288.222 70.8103C288.03 68.9646 288.643 67.1238 289.91 65.7458C291.177 64.3695 292.978 63.5829 294.868 63.5829C296.756 63.5829 298.558 64.3696 299.823 65.7458C301.091 67.1236 301.704 68.9645 301.513 70.8103C301.32 72.6576 300.342 74.3383 298.819 75.4356V75.4404Z" fill="#3196F5"/>
<path d="M293.617 78.3574H296.122V80.8183H293.617V78.3574Z" fill="#3196F5"/>
<path d="M298.21 66.4886C297.147 65.5418 295.72 65.0932 294.295 65.2582C292.028 65.5225 290.228 67.2513 289.906 69.4704C289.644 71.2648 290.413 73.0528 291.906 74.1182C292.765 74.7511 293.347 75.6803 293.538 76.7185H296.203C296.39 75.6803 296.972 74.7511 297.83 74.1182C299.123 73.1986 299.886 71.7247 299.88 70.1561C299.88 68.7558 299.272 67.4227 298.21 66.4886Z" fill="#3196F5"/>
</g>
<defs>
<filter id="filter0_d_705_6195" x="0.0390625" y="0.386719" width="394.379" height="431.207" filterUnits="userSpaceOnUse" color-interpolation-filters="sRGB">
<feFlood flood-opacity="0" result="BackgroundImageFix"/>
<feColorMatrix in="SourceAlpha" type="matrix" values="0 0 0 0 0 0 0 0 0 0 0 0 0 0 0 0 0 0 127 0" result="hardAlpha"/>
<feOffset dy="26"/>
<feGaussianBlur stdDeviation="6.5"/>
<feColorMatrix type="matrix" values="0 0 0 0 0.0895833 0 0 0 0 0.179875 0 0 0 0 0.5 0 0 0 0.09 0"/>
<feBlend mode="multiply" in2="BackgroundImageFix" result="effect1_dropShadow_705_6195"/>
<feBlend mode="normal" in="SourceGraphic" in2="effect1_dropShadow_705_6195" result="shape"/>
</filter>
</defs>
</svg>
