<svg width="61" height="60" viewBox="0 0 61 60" fill="none" xmlns="http://www.w3.org/2000/svg">
<g filter="url(#filter0_d_49_340)">
<rect x="4.47363" y="0.994141" width="30.4175" height="20.3405" rx="2.375" fill="#FCFCFD" stroke="#15293F" stroke-width="1.25"/>
<rect x="31.8434" y="30.5098" width="24.5873" height="20.3405" rx="2.375" fill="white" stroke="#15293F" stroke-width="1.25"/>
<path d="M7.61182 35.2301H23.313C23.4812 35.2301 23.5743 35.035 23.4684 34.9042L20.6157 31.3809" stroke="#15293F" stroke-width="1.25"/>
<path d="M23.733 38.9867H8.03188C7.86364 38.9867 7.77058 39.1818 7.87644 39.3126L10.7291 42.8359" stroke="#15293F" stroke-width="1.25"/>
<rect x="7.61182" y="4.52539" width="6.4428" height="13.7436" rx="0.5" fill="#DCDFE4"/>
<rect x="16.155" y="4.52539" width="6.4428" height="13.7436" rx="0.5" fill="#DCDFE4"/>
<path d="M25.4503 10.0957C25.3817 10.1391 25.3353 10.2194 25.3409 10.301L25.8337 18.5255C25.8393 18.6097 25.8971 18.6879 25.9756 18.7187C26.0542 18.7491 26.1497 18.7304 26.2109 18.6722L28.4094 16.5822L29.1293 18.0162C29.1835 18.1247 29.3351 18.1703 29.4401 18.1104L30.4083 17.5521C30.5146 17.4922 30.5524 17.3363 30.4851 17.2347L29.6007 15.8984L32.5121 15.0436C32.5942 15.0206 32.6593 14.9472 32.6727 14.863C32.6858 14.7792 32.6463 14.6889 32.5751 14.642L25.6868 10.1026C25.5926 10.0505 25.5253 10.0552 25.4502 10.096L25.4503 10.0957Z" fill="#FF6332"/>
<path d="M44.3528 29.6843C44.4993 29.8307 44.7367 29.8307 44.8831 29.6843L47.2696 27.2978C47.4161 27.1513 47.4161 26.9139 47.2696 26.7674C47.1232 26.621 46.8857 26.621 46.7393 26.7674L44.618 28.8888L42.4967 26.7674C42.3502 26.621 42.1128 26.621 41.9663 26.7674C41.8199 26.9139 41.8199 27.1513 41.9663 27.2978L44.3528 29.6843ZM35.3676 11.498H41.618V10.748H35.3676V11.498ZM44.243 14.123V29.4191H44.993V14.123H44.243ZM41.618 11.498C43.0677 11.498 44.243 12.6733 44.243 14.123H44.993C44.993 12.2591 43.4819 10.748 41.618 10.748V11.498Z" fill="#3196F5"/>
<path d="M44.137 46.2962C47.2391 46.2962 49.7538 43.7815 49.7538 40.6794C49.7538 37.5773 47.2391 35.0625 44.137 35.0625C41.0349 35.0625 38.5201 37.5773 38.5201 40.6794C38.5201 43.7815 41.0349 46.2962 44.137 46.2962Z" stroke="#15293F" stroke-width="1.11483"/>
<path d="M41.3278 40.6789L43.2 42.5512L46.9446 38.8066" stroke="#15293F" stroke-width="1.11483"/>
</g>
<defs>
<filter id="filter0_d_49_340" x="0.848633" y="0.369141" width="59.207" height="59.1055" filterUnits="userSpaceOnUse" color-interpolation-filters="sRGB">
<feFlood flood-opacity="0" result="BackgroundImageFix"/>
<feColorMatrix in="SourceAlpha" type="matrix" values="0 0 0 0 0 0 0 0 0 0 0 0 0 0 0 0 0 0 127 0" result="hardAlpha"/>
<feOffset dy="5"/>
<feGaussianBlur stdDeviation="1.5"/>
<feComposite in2="hardAlpha" operator="out"/>
<feColorMatrix type="matrix" values="0 0 0 0 0.47625 0 0 0 0 0.46875 0 0 0 0 0.5625 0 0 0 0.25 0"/>
<feBlend mode="normal" in2="BackgroundImageFix" result="effect1_dropShadow_49_340"/>
<feBlend mode="normal" in="SourceGraphic" in2="effect1_dropShadow_49_340" result="shape"/>
</filter>
</defs>
</svg>
