<svg xmlns="http://www.w3.org/2000/svg" width="13.201" height="14.825" viewBox="0 0 13.201 14.825">
  <g id="Group_54" data-name="Group 54" transform="translate(-726.375 -3196.895)">
    <path id="Path_167" data-name="Path 167" d="M781.115,3196.9c.245.048.493.084.733.147a4.116,4.116,0,0,1,3.007,3.515.333.333,0,0,0,.09.183.889.889,0,0,1,.278.646q0,1.063,0,2.126a.9.9,0,0,1-.258.625.311.311,0,0,0-.082.2,2.691,2.691,0,0,1-.266,1.361,2.483,2.483,0,0,1-2.254,1.415c-.5.014-.993,0-1.49,0a.513.513,0,1,1,0-1.023c.473,0,.945,0,1.418,0a1.5,1.5,0,0,0,1.53-1.214,3.768,3.768,0,0,0,.034-.6.147.147,0,0,0-.037-.089c-.062-.073-.129-.142-.2-.219-.073.161-.133.328-.22.479a6.672,6.672,0,0,1-.412.643.8.8,0,0,1-.681.318c-.439,0-.878.01-1.316,0a1.27,1.27,0,0,0-1.166.563,3.387,3.387,0,0,1-1.9-2.009l-.091.112a.858.858,0,0,1-.941.268.842.842,0,0,1-.576-.775c-.007-.738-.005-1.476,0-2.213a.852.852,0,0,1,.265-.592.365.365,0,0,0,.1-.194,4.118,4.118,0,0,1,3.646-3.637.614.614,0,0,0,.1-.025Zm2.482,4.074a2.351,2.351,0,0,0,.173-.211.264.264,0,0,0,.051-.162,3.083,3.083,0,0,0-6.112.015.178.178,0,0,0,.025.118c.063.083.136.159.205.238a2.953,2.953,0,0,1,5.657,0Z" transform="translate(-47.789)" fill="#7e9ab8"/>
    <path id="Path_168" data-name="Path 168" d="M737.163,3408.085a4.756,4.756,0,0,1,1.287,1.087,4.879,4.879,0,0,1,1.121,3.435.746.746,0,0,1-.776.717c-.96,0-1.919,0-2.879,0-2.845,0-5.69-.012-8.535.009a.873.873,0,0,1-1-1.015,4.891,4.891,0,0,1,1.613-3.645,4.761,4.761,0,0,1,2.056-1.1.208.208,0,0,1,.229.059,3.931,3.931,0,0,0,1.546.959.273.273,0,0,1,.138.126,1.14,1.14,0,0,0,1.013.688,18.34,18.34,0,0,0,1.893-.019,3.072,3.072,0,0,0,2.212-1.195Z" transform="translate(0 -201.613)" fill="#7e9ab8"/>
  </g>
</svg>
