<svg xmlns="http://www.w3.org/2000/svg" width="14.194" height="14.192" viewBox="0 0 14.194 14.192">
  <g id="Group_47" data-name="Group 47" transform="translate(762.071 -1182.75)">
    <path id="Path_132" data-name="Path 132" d="M-657.807,1182.75c.043.343.084.686.132,1.027a.148.148,0,0,0,.086.09,2.965,2.965,0,0,1,.88.514.146.146,0,0,0,.175.015c.3-.125.6-.245.917-.371l.594,1.028c-.262.2-.514.405-.771.6a.172.172,0,0,0-.079.2c.026.134.031.273.045.421h-1.014a1.6,1.6,0,0,0-.617-1.194,1.55,1.55,0,0,0-.957-.31,1.538,1.538,0,0,0-1.094.426,1.638,1.638,0,0,0-.481,1.08H-661a3.711,3.711,0,0,1,.042-.41.2.2,0,0,0-.1-.228c-.251-.187-.5-.383-.75-.582l.594-1.028c.308.124.607.241.9.367a.174.174,0,0,0,.21-.026,2.751,2.751,0,0,1,.833-.485c.044-.016.1-.063.109-.1.051-.342.09-.685.134-1.027Z" transform="translate(-96.556)" fill="#7e9ab8"/>
    <path id="Path_133" data-name="Path 133" d="M-520.5,1539.712l.162-1.033c.013,0,.062,0,.111,0h4.857c.046,0,.091.008.137.012v.582a.7.7,0,0,1-.443.443Z" transform="translate(-232.643 -342.77)" fill="#7e9ab8"/>
    <path id="Path_134" data-name="Path 134" d="M-761.625,1539.913c-.483-.2-.468-.463-.429-1.03h5.091l.161,1.03Z" transform="translate(0 -342.971)" fill="#7e9ab8"/>
    <path id="Path_135" data-name="Path 135" d="M-599.667,1539.929c-.485-.2-.469-.457-.431-1.029h2.182c.061.552.058.837-.421,1.029Z" transform="translate(-155.97 -342.987)" fill="#7e9ab8"/>
    <path id="Path_136" data-name="Path 136" d="M-724.043,1301.007v7.943h-12.3v-7.943Zm-7.18,6.155a.438.438,0,0,0-.01-.062q-.761-2-1.526-4.005a.172.172,0,0,0-.128-.084c-.175-.01-.351,0-.526-.006-.1,0-.135.031-.167.119q-.718,1.945-1.443,3.888c-.017.046-.032.092-.053.151.283,0,.546,0,.808,0a.149.149,0,0,0,.1-.081c.06-.139.113-.282.161-.427a.123.123,0,0,1,.137-.1c.48,0,.96,0,1.44.006a.175.175,0,0,1,.125.089c.065.142.112.293.173.437a.139.139,0,0,0,.092.079C-731.769,1307.165-731.5,1307.162-731.223,1307.162Zm1.719-1.328c.193,0,.364,0,.534,0a1.44,1.44,0,0,0,1.443-1.444,1.409,1.409,0,0,0-1.449-1.382c-.415,0-.831,0-1.247,0a.86.86,0,0,0-.1.011v4.136h.82Zm3.015-2.872v4.192h.813v-4.192Z" transform="translate(-24.776 -113.886)" fill="#7e9ab8"/>
    <path id="Path_137" data-name="Path 137" d="M-589.463,1260.267a.693.693,0,0,1,.7-.68.707.707,0,0,1,.749.68Z" transform="translate(-166.228 -73.997)" fill="#7e9ab8"/>
    <path id="Path_138" data-name="Path 138" d="M-662.456,1393.6h-1l.493-1.331Z" transform="translate(-94.97 -201.779)" fill="#7e9ab8"/>
    <path id="Path_139" data-name="Path 139" d="M-551.011,1378.866V1377.7a5.26,5.26,0,0,1,.678.006.542.542,0,0,1,.456.546.562.562,0,0,1-.462.573A6.31,6.31,0,0,1-551.011,1378.866Z" transform="translate(-203.26 -187.74)" fill="#7e9ab8"/>
  </g>
</svg>
