<svg xmlns="http://www.w3.org/2000/svg" width="13.201" height="14.846" viewBox="0 0 13.201 14.846">
  <g id="Group_53" data-name="Group 53" transform="translate(-354.632 -2863.322)">
    <path id="Path_158" data-name="Path 158" d="M372.016,2997.5v-.1q0-2.522,0-5.045a.934.934,0,0,1,.942-.964v.223c0,.385,0,.77,0,1.155a.7.7,0,0,0,.737.735c.141,0,.282,0,.432,0l.021.146a.2.2,0,0,0,.051.021c.18.024.361.054.542.068a.145.145,0,0,1,.153.131.4.4,0,0,0,.048.143.384.384,0,0,1-.084.552,2.5,2.5,0,0,0-.207.261l1.233,1.227c.12-.092.263-.2.4-.309a.147.147,0,0,1,.189-.022,2.841,2.841,0,0,0,.389.168.149.149,0,0,1,.115.151c.016.171.044.34.069.52h1.726c.024-.174.053-.348.07-.523a.148.148,0,0,1,.118-.149,1.293,1.293,0,0,0,.32-.135.229.229,0,0,1,.318.037c.113.1.238.187.351.274l1.227-1.231c-.111-.141-.238-.292-.35-.453a.272.272,0,0,1-.022-.185c.013-.073.069-.138.08-.211.029-.2.145-.259.329-.265.151,0,.3-.034.455-.053l.021-.143a.117.117,0,0,1,.039-.015l.38,0a.709.709,0,0,0,.754-.75c0-.4,0-.8,0-1.2v-.163a.935.935,0,0,1,.942.964q0,2.052,0,4.1v1.044Z" transform="translate(-16.679 -122.88)" fill="#7e9ab8"/>
    <path id="Path_159" data-name="Path 159" d="M436.335,2947.683c.186-.023.372-.04.555-.074a.218.218,0,0,0,.132-.109q.178-.367.337-.743a.184.184,0,0,0-.012-.152c-.117-.165-.244-.322-.361-.472l.639-.639c.147.114.308.234.464.363a.176.176,0,0,0,.226.024,4.848,4.848,0,0,1,.644-.26.167.167,0,0,0,.14-.162c.022-.205.05-.41.076-.621h.9c.026.21.053.415.075.62a.168.168,0,0,0,.14.163,5.852,5.852,0,0,1,.658.267.158.158,0,0,0,.2-.019c.156-.129.318-.249.463-.362l.642.643-.388.5c.128.307.244.6.372.88a.2.2,0,0,0,.136.084c.179.03.361.047.549.07v.9c-.177.023-.351.051-.525.068-.078.008-.1.037-.13.113-.093.277-.195.551-.309.819a.15.15,0,0,0,.02.185c.1.121.194.246.28.356l-.642.641c-.1-.077-.223-.167-.339-.264a.133.133,0,0,0-.171-.012q-.423.2-.859.372c-.072.028-.106.054-.113.13-.014.141-.037.28-.058.432h-.894c-.02-.142-.035-.292-.067-.437a.2.2,0,0,0-.1-.115q-.432-.2-.872-.379a.189.189,0,0,0-.154.011c-.126.084-.242.182-.35.265l-.64-.641.312-.405c-.118-.35-.221-.665-.333-.977a.169.169,0,0,0-.114-.086c-.169-.031-.34-.049-.523-.073Zm3.284,1.945a1.4,1.4,0,1,0-1.394-1.4A1.394,1.394,0,0,0,439.619,2949.628Z" transform="translate(-78.392 -78.211)" fill="#7e9ab8"/>
    <path id="Path_160" data-name="Path 160" d="M372.024,3154.351h11.811a4.809,4.809,0,0,1-.082.765.9.9,0,0,1-.927.64h-9.765a.95.95,0,0,1-1.037-1.038C372.024,3154.6,372.024,3154.486,372.024,3154.351Z" transform="translate(-16.687 -279.236)" fill="#7e9ab8"/>
    <path id="Path_161" data-name="Path 161" d="M441.486,3200.982v.7h.171c.258,0,.517,0,.775,0a.231.231,0,1,1,0,.462c-.045,0-.091,0-.137,0h-5.941c-.187,0-.292-.087-.29-.234s.108-.23.295-.231h.88v-.7Z" transform="translate(-78.134 -323.978)" fill="#7e9ab8"/>
    <path id="Path_162" data-name="Path 162" d="M610.656,2942.63v-.466l.235-.017v-.168q0-1.17,0-2.34c0-.235.075-.311.306-.311.263,0,.527,0,.79,0a.167.167,0,0,0,.175-.1.694.694,0,0,1,.872-.321.714.714,0,0,1,.436.8.7.7,0,0,1-.741.564.666.666,0,0,1-.57-.372.15.15,0,0,0-.161-.1c-.206.008-.413,0-.638,0v.2q0,1.147,0,2.294c0,.274-.066.339-.342.34Z" transform="translate(-245.649 -72.472)" fill="#7e9ab8"/>
    <path id="Path_163" data-name="Path 163" d="M356.757,2939.821c-.251,0-.478-.006-.7.006-.039,0-.081.074-.109.122a.706.706,0,1,1-.009-.722.225.225,0,0,0,.236.129c.253-.007.506,0,.759,0,.214,0,.294.079.294.292q0,1.177,0,2.354v.172l.229.016v.461c-.164,0-.326.009-.486,0-.144-.011-.208-.1-.209-.265,0-.481,0-.961,0-1.442C356.757,2940.573,356.757,2940.21,356.757,2939.821Z" transform="translate(0 -72.498)" fill="#7e9ab8"/>
    <path id="Path_164" data-name="Path 164" d="M390.933,2892.811h1.135c.236,0,.312.073.312.3,0,.521,0,1.042,0,1.563a.34.34,0,0,1-.081.2,1.977,1.977,0,0,1-.377.349v-1.946c-.328,0-.635,0-.942.005-.035,0-.074.069-.1.113a.7.7,0,0,1-1.3-.213.7.7,0,0,1,1.307-.473C390.9,2892.74,390.914,2892.772,390.933,2892.811Z" transform="translate(-33.514 -27.842)" fill="#7e9ab8"/>
    <path id="Path_165" data-name="Path 165" d="M576.308,2893.332v1.964c-.169-.171-.314-.313-.452-.462-.022-.023-.014-.077-.014-.117q0-.79,0-1.58c0-.214.079-.292.293-.293.339,0,.679,0,1.018,0a.186.186,0,0,0,.2-.114.692.692,0,0,1,.864-.309.707.707,0,0,1-.29,1.363.658.658,0,0,1-.577-.361.184.184,0,0,0-.2-.113c-.258.007-.516,0-.775,0A.36.36,0,0,0,576.308,2893.332Z" transform="translate(-212.245 -27.874)" fill="#7e9ab8"/>
    <path id="Path_166" data-name="Path 166" d="M500.983,2866.146h-.468c0-.051-.008-.1-.008-.147,0-.389,0-.779,0-1.168a.184.184,0,0,0-.112-.2.686.686,0,0,1-.336-.789.707.707,0,0,1,1.364,0,.69.69,0,0,1-.345.8.166.166,0,0,0-.1.175c0,.384,0,.769,0,1.153Z" transform="translate(-139.512)" fill="#7e9ab8"/>
  </g>
</svg>
