<svg width="27" height="28" viewBox="0 0 27 28" fill="none" xmlns="http://www.w3.org/2000/svg">
<path d="M24.8683 0.478516H1.97575C0.91206 0.478516 0.0449219 1.33409 0.0449219 2.39779V5.26513C0.0449219 6.32882 0.91206 7.19596 1.97575 7.19596H2.5076V11.0114C2.5076 12.0404 3.07413 12.9653 4.01064 13.4278L9.01692 15.8789L11.3293 17.012L11.6877 17.1854L11.0403 18.5035L8.34633 18.8966C7.84917 18.9659 7.44452 19.3128 7.29422 19.7868C7.13235 20.2609 7.25953 20.7812 7.61795 21.1164L9.57189 23.0242L9.10942 25.7181C9.02849 26.2152 9.23661 26.7008 9.64128 26.9899C9.86095 27.1633 10.1269 27.2442 10.4043 27.2442C10.6125 27.2442 10.8206 27.198 11.0056 27.0939L13.422 25.8221L15.8384 27.0939C16.2778 27.3252 16.8096 27.2905 17.2143 26.9899C17.619 26.7008 17.8155 26.2152 17.7346 25.7181L17.2721 23.0242L19.2261 21.1164C19.5845 20.7696 19.7117 20.2609 19.5498 19.7868C19.3995 19.3128 18.9948 18.9659 18.4977 18.8966L15.8037 18.5035L15.1563 17.1854L15.5263 17.012L17.8386 15.8789L22.8449 13.4278C23.7699 12.9653 24.348 12.0404 24.348 11.0114V7.19596H24.8683C25.9319 7.19596 26.7991 6.32882 26.7991 5.26513V2.39779C26.7991 1.33409 25.9319 0.478516 24.8683 0.478516ZM24.4867 4.88359H2.3573V2.79089H24.4867V4.88359ZM5.03965 11.3582C4.90091 11.2889 4.81997 11.1617 4.81997 11.0114V7.19596H9.01692V13.3006L5.03965 11.3582ZM15.2719 21.7408C14.9597 22.053 14.821 22.4807 14.9019 22.897L15.11 24.0994L14.0232 23.5213C13.8382 23.4288 13.6301 23.3826 13.422 23.3826C13.2139 23.3826 13.0058 23.4288 12.8208 23.5329L11.734 24.0994L11.9421 22.9085C12.023 22.4807 11.8843 22.053 11.5721 21.7408L10.6934 20.8852L11.8958 20.7118C12.3236 20.654 12.6936 20.3881 12.8786 19.9949L13.422 18.9081L13.9538 19.9949C14.1504 20.3881 14.5204 20.654 14.9482 20.7118L16.1506 20.8852L15.2719 21.7408ZM13.6879 15.3355C13.6879 15.3355 13.6764 15.3471 13.6648 15.3471C13.5839 15.3355 13.5029 15.324 13.422 15.324C13.3411 15.324 13.2601 15.3355 13.1908 15.3471C13.1792 15.3355 13.1561 15.3355 13.1445 15.324L11.3293 14.4337V7.19596H15.5263V14.4337L13.6879 15.3355ZM22.0356 11.0114C22.0356 11.1617 21.9547 11.2889 21.8159 11.3582L17.8386 13.3006V7.19596H22.0356V11.0114Z" fill="white" fill-opacity="0.95"/>
</svg>
