<svg width="55" height="55" viewBox="0 0 55 55" fill="none" xmlns="http://www.w3.org/2000/svg">
<rect x="0.946289" y="0.998047" width="54" height="54" rx="6" fill="#3196F5" fill-opacity="0.11"/>
<path d="M39.3924 14.6152H16.4999C15.4362 14.6152 14.5691 15.4708 14.5691 16.5345V19.4018C14.5691 20.4655 15.4362 21.3327 16.4999 21.3327H17.0318V25.1481C17.0318 26.1771 17.5983 27.1021 18.5348 27.5645L23.5411 30.0156L25.8535 31.1487L26.2119 31.3221L25.5644 32.6402L22.8705 33.0333C22.3733 33.1027 21.9687 33.4495 21.8184 33.9236C21.6565 34.3976 21.7837 34.9179 22.1421 35.2532L24.0961 37.1609L23.6336 39.8548C23.5527 40.3519 23.7608 40.8375 24.1654 41.1266C24.3851 41.3 24.651 41.381 24.9285 41.381C25.1366 41.381 25.3447 41.3347 25.5297 41.2306L27.9462 39.9588L30.3626 41.2306C30.802 41.4619 31.3338 41.4272 31.7385 41.1266C32.1431 40.8375 32.3397 40.3519 32.2588 39.8548L31.7963 37.1609L33.7502 35.2532C34.1086 34.9063 34.2358 34.3976 34.074 33.9236C33.9237 33.4495 33.519 33.1027 33.0218 33.0333L30.3279 32.6402L29.6804 31.3221L30.0504 31.1487L32.3628 30.0156L37.3691 27.5645C38.294 27.1021 38.8721 26.1771 38.8721 25.1481V21.3327H39.3924C40.4561 21.3327 41.3233 20.4655 41.3233 19.4018V16.5345C41.3233 15.4708 40.4561 14.6152 39.3924 14.6152ZM39.0109 19.0203H16.8815V16.9276H39.0109V19.0203ZM19.5638 25.495C19.4251 25.4256 19.3441 25.2984 19.3441 25.1481V21.3327H23.5411V27.4373L19.5638 25.495ZM29.7961 35.8775C29.4839 36.1897 29.3451 36.6175 29.4261 37.0337L29.6342 38.2361L28.5474 37.658C28.3624 37.5655 28.1543 37.5193 27.9462 37.5193C27.7381 37.5193 27.5299 37.5655 27.345 37.6696L26.2581 38.2361L26.4662 37.0453C26.5472 36.6175 26.4084 36.1897 26.0963 35.8775L25.2176 35.0219L26.42 34.8485C26.8478 34.7907 27.2178 34.5248 27.4028 34.1317L27.9462 33.0448L28.478 34.1317C28.6746 34.5248 29.0445 34.7907 29.4723 34.8485L30.6748 35.0219L29.7961 35.8775ZM28.2121 29.4722C28.2121 29.4722 28.2005 29.4838 28.189 29.4838C28.108 29.4722 28.0271 29.4607 27.9462 29.4607C27.8652 29.4607 27.7843 29.4722 27.7149 29.4838C27.7034 29.4722 27.6803 29.4722 27.6687 29.4607L25.8535 28.5704V21.3327H30.0504V28.5704L28.2121 29.4722ZM36.5598 25.1481C36.5598 25.2984 36.4788 25.4256 36.3401 25.495L32.3628 27.4373V21.3327H36.5598V25.1481Z" fill="#3196F5"/>
</svg>
