<svg width="54" height="55" viewBox="0 0 54 55" fill="none" xmlns="http://www.w3.org/2000/svg">
<rect y="0.125" width="54" height="54" rx="6" fill="#E8F4FE"/>
<path d="M38.4867 27.3421H33.781C34.1047 27.1224 34.3128 26.7524 34.3128 26.3477V21.6767L35.5268 21.2027V24.4285C35.5268 25.0991 36.0702 25.6425 36.7524 25.6425C37.4345 25.6425 37.9664 25.0991 37.9664 24.4285V20.2546L38.4057 20.0812C38.8798 19.9078 39.1804 19.4453 39.1804 18.9481C39.1804 18.451 38.8798 18.0001 38.4057 17.8151L27.4451 13.5487C27.1676 13.4447 26.8439 13.4447 26.5664 13.5487L15.6057 17.8151C15.1317 18.0001 14.8195 18.451 14.8195 18.9481C14.8195 19.4453 15.1317 19.9078 15.6057 20.0812L19.6986 21.6767V26.3477C19.6986 26.7524 19.8952 27.1224 20.2305 27.3421H15.5132C14.4958 27.3421 13.6633 28.1745 13.6633 29.192V33.7358C13.6633 34.7532 14.4958 35.5741 15.5132 35.5741H21.7913C21.8029 38.4414 24.1499 40.7769 27.0173 40.7769C29.8846 40.7769 32.2317 38.4414 32.2432 35.5741H38.4867C39.5157 35.5741 40.3366 34.7532 40.3366 33.7358V29.192C40.3366 28.1745 39.5157 27.3421 38.4867 27.3421ZM22.1266 25.6425V22.6248L26.5664 24.3475C26.8439 24.4516 27.1676 24.4516 27.4451 24.3475L31.8733 22.6248V25.6425C31.0061 26.0818 29.1794 26.868 27.0057 26.868C24.8321 26.868 23.0053 26.0818 22.1266 25.6425ZM19.398 18.9481L27.0057 15.9883L34.6019 18.9481L27.0057 21.908L19.398 18.9481ZM27.0173 38.4646C25.4217 38.4646 24.1153 37.1696 24.1037 35.5741V35.551C24.1037 34.626 24.543 33.7936 25.2252 33.2617C25.7224 32.8686 26.3351 32.6374 27.0173 32.6374C27.6994 32.6374 28.3122 32.8686 28.8094 33.2617C29.4915 33.7936 29.9309 34.626 29.9309 35.551V35.5741C29.9193 37.1696 28.6128 38.4646 27.0173 38.4646ZM38.0242 33.2617H31.723C30.8674 31.5159 29.0869 30.325 27.0173 30.325C24.9477 30.325 23.1672 31.5159 22.3232 33.2617H15.9757V29.6544H38.0242V33.2617Z" fill="#3196F5"/>
<path d="M28.5552 34.9487L27.7921 34.8446C27.7112 34.8215 27.6303 34.7753 27.5956 34.6943L27.2603 34.0006C27.1562 33.8156 26.8787 33.8156 26.7862 34.0122L26.4394 34.6943C26.4047 34.7753 26.3353 34.8331 26.2428 34.8446L25.4797 34.9487C25.2716 34.9834 25.1791 35.2493 25.341 35.3996L25.5144 35.573L25.8844 35.943C25.9538 36.0008 25.9769 36.0817 25.9653 36.1742L25.8382 36.9258C25.8035 37.1454 26.0232 37.3073 26.2197 37.2032L26.9019 36.8448C26.9712 36.8101 27.0637 36.8101 27.1447 36.8448L27.8268 37.2032C28.0234 37.3073 28.243 37.1454 28.2083 36.9258L28.0812 36.1627C28.058 36.0817 28.0927 36.0008 28.1505 35.9314L28.5205 35.573L28.7055 35.3996C28.8558 35.2493 28.7749 34.9834 28.5552 34.9487Z" fill="#3196F5"/>
</svg>
