<svg width="54" height="55" viewBox="0 0 54 55" fill="none" xmlns="http://www.w3.org/2000/svg">
<rect y="0.125" width="54" height="54" rx="6" fill="#E8F4FE"/>
<path d="M40.3987 28.9341L36.3521 24.8875C37.1036 23.8122 37.5083 22.5404 37.5083 21.2108C37.5083 19.4765 36.8377 17.8463 35.6121 16.6323C34.3866 15.4068 32.7563 14.7246 31.0336 14.7246C29.3109 14.7246 27.6691 15.4068 26.4551 16.6323C25.3799 17.696 24.7324 19.0834 24.5937 20.5749H16.0494C14.5117 20.5749 13.2515 21.8352 13.2515 23.3844V36.7153C13.2515 38.2646 14.5117 39.5248 16.0494 39.5248H31.5423C33.0916 39.5248 34.3519 38.2646 34.3519 36.7153V26.7605C34.4791 26.7027 34.6062 26.6218 34.7219 26.5293L38.7685 30.5759C38.9997 30.8072 39.2888 30.9112 39.5894 30.9112C39.89 30.9112 40.1791 30.7956 40.4103 30.5759C40.8612 30.125 40.8612 29.3966 40.4103 28.9457L40.3987 28.9341ZM26.8713 21.2108C26.8713 20.9911 26.8829 20.783 26.9291 20.5749C27.0448 19.6962 27.4494 18.8984 28.0853 18.2625C28.8715 17.4763 29.9237 17.037 31.0336 17.037C32.1436 17.037 33.1841 17.4763 33.9819 18.2625C34.7681 19.0487 35.1959 20.0893 35.1959 21.2108C35.1959 22.1242 34.9068 23.0029 34.3519 23.7197C34.2478 23.87 34.1206 24.0088 33.9819 24.1475C33.7391 24.3903 33.4732 24.5869 33.1957 24.7487C32.8373 24.9684 32.4442 25.1187 32.0395 25.2112C30.6521 25.5465 29.1143 25.1881 28.0853 24.1475C27.7154 23.7776 27.4263 23.3498 27.2182 22.8873C27.0563 22.5173 26.9523 22.1358 26.906 21.7311C26.8829 21.5577 26.8713 21.3842 26.8713 21.2108ZM32.0395 36.7153C32.0395 36.9928 31.8198 37.2124 31.5423 37.2124H16.0494C15.7835 37.2124 15.5638 36.9928 15.5638 36.7153V35.0157H19.4371C20.073 35.0157 20.5932 34.4954 20.5932 33.8595C20.5932 33.2236 20.073 32.7033 19.4371 32.7033H15.5638V31.2003H21.9576C22.5935 31.2003 23.1137 30.6915 23.1137 30.0441C23.1137 29.3966 22.5935 28.8879 21.9576 28.8879H15.5638V27.3964H24.478C25.1139 27.3964 25.6342 26.8761 25.6342 26.2402C25.6342 25.6043 25.1139 25.084 24.478 25.084H15.5638V23.3844C15.5638 23.107 15.7835 22.8873 16.0494 22.8873H24.7902C25.0677 23.9741 25.6342 24.9684 26.4551 25.7893C27.6691 27.0149 29.2993 27.6855 31.0336 27.6855C31.3689 27.6855 31.7158 27.6623 32.0395 27.593V36.7153Z" fill="#3196F5"/>
</svg>
