<svg width="397" height="351" viewBox="0 0 397 351" fill="none" xmlns="http://www.w3.org/2000/svg">
<rect y="0.226562" width="397" height="350" rx="11" fill="#E8F4FE"/>
<g filter="url(#filter0_d_855_5859)">
<rect x="87.75" y="85.3672" width="239.514" height="155.738" rx="8" fill="#FEFEFE"/>
</g>
<rect x="87.75" y="112.83" width="239.514" height="128.275" rx="11" fill="#C8DBEC" fill-opacity="0.15"/>
<g filter="url(#filter1_d_855_5859)">
<rect x="69.7356" y="125.479" width="154.053" height="65.3027" rx="8" fill="#FEFEFE"/>
</g>
<g filter="url(#filter2_d_855_5859)">
<rect x="232.759" y="125.479" width="66.5107" height="65.3027" rx="8" fill="#FEFEFE"/>
</g>
<g filter="url(#filter3_d_855_5859)">
<rect x="232.759" y="199.781" width="66.5107" height="65.3027" rx="8" fill="#FEFEFE"/>
</g>
<rect x="246.008" y="228.791" width="4.58677" height="17.276" rx="0.795942" fill="#C8DBEC" fill-opacity="0.33"/>
<rect x="254.865" y="236.141" width="4.58677" height="9.92634" rx="0.795942" fill="#C8DBEC" fill-opacity="0.33"/>
<rect x="263.72" y="223.312" width="4.58677" height="22.7543" rx="0.795942" fill="#C8DBEC" fill-opacity="0.33"/>
<rect x="272.577" y="232.771" width="4.58677" height="13.2963" rx="0.795942" fill="#C8DBEC" fill-opacity="0.33"/>
<rect x="281.433" y="228.791" width="4.58677" height="17.276" rx="0.795942" fill="#C8DBEC" fill-opacity="0.33"/>
<g filter="url(#filter4_d_855_5859)">
<rect x="69.7356" y="199.781" width="154.053" height="65.3027" rx="8" fill="#FEFEFE"/>
</g>
<rect width="7.20864" height="7.20864" rx="3.60432" transform="matrix(1 0 0 -1 283.605 101.643)" fill="#C8DBEC"/>
<rect width="7.20864" height="7.20864" rx="3.60432" transform="matrix(1 0 0 -1 296.033 101.643)" fill="#C8DBEC"/>
<rect width="7.20864" height="7.20864" rx="3.60432" transform="matrix(1 0 0 -1 308.461 101.643)" fill="#C8DBEC"/>
<path d="M112.594 98.0492C112.623 98.2449 112.485 98.1048 112.485 98.1048C111.924 97.3883 112.583 96.1908 112.583 96.1908C112.668 96.0533 112.752 95.9291 112.84 95.8154C111.506 93.8803 109.277 92.6113 106.745 92.6113C102.851 92.6113 99.6638 95.6224 99.3755 99.4398C100.849 98.726 102.455 100.492 102.455 100.492L103.087 101.118C104.989 103.017 105.536 103.001 105.811 102.565C105.811 102.565 106.192 102.012 105.557 100.891C104.788 99.5376 105.631 98.5357 105.631 98.5357C107.872 95.4929 111.459 99.3631 111.459 99.3631C112.726 100.627 113.53 101.1 114.038 101.235C114.104 100.833 114.141 100.423 114.141 100.003C114.141 99.112 113.982 98.2581 113.694 97.4676C112.713 97.1319 112.575 97.925 112.594 98.0519V98.0492Z" fill="#76C4D5"/>
<path d="M109.187 101.639C107.695 100.15 106.819 99.7273 106.311 99.7246C106.256 99.7299 105.833 99.7775 105.915 100.208C105.989 100.584 107.34 102.35 105.78 103.915C103.592 105.757 101.243 102.963 101.243 102.963C100.516 102.286 99.6375 101.253 99.5264 101.594C100.256 104.909 103.211 107.391 106.745 107.391C109.464 107.391 111.84 105.924 113.125 103.738C111.239 103.851 109.187 101.639 109.187 101.639Z" fill="#007496"/>
<rect x="119.576" y="96.3691" width="48.1826" height="6.71094" rx="1" fill="#C8DBEC"/>
<g filter="url(#filter5_d_855_5859)">
<path d="M268.295 146.158C267.805 146.093 267.317 146.296 267.016 146.69L261.655 153.734L255.876 156.078C252.917 157.278 251.488 160.659 252.688 163.618C253.743 166.22 256.49 167.635 259.15 167.12L261.375 170.269C261.754 170.804 262.437 170.985 263.017 170.752C263.114 170.712 263.208 170.662 263.297 170.599C263.917 170.161 264.065 169.3 263.625 168.678L261.839 166.151L266.008 164.461L274.761 165.779C275.01 165.818 275.258 165.785 275.484 165.695C275.701 165.606 275.897 165.461 276.048 165.272C276.355 164.882 276.428 164.358 276.244 163.901L269.389 147.006C269.202 146.548 268.787 146.224 268.295 146.158L268.295 146.158ZM255.241 162.582C254.611 161.034 255.362 159.26 256.911 158.631L261.763 156.662L264.046 162.284L259.191 164.252C257.642 164.882 255.868 164.131 255.241 162.582L255.241 162.582ZM272.781 162.697L266.82 161.798L264.095 155.077L267.744 150.28L272.781 162.697Z" fill="#C8DBEC"/>
<path d="M278.379 150.852L275.308 152.096C274.605 152.383 274.265 153.186 274.55 153.892C274.836 154.596 275.639 154.935 276.345 154.65L279.415 153.403C280.122 153.118 280.46 152.316 280.175 151.611C279.887 150.904 279.086 150.564 278.379 150.852L278.379 150.852ZM274.098 149.023C274.271 148.951 274.433 148.844 274.572 148.7L276.34 146.853C276.866 146.304 276.848 145.431 276.298 144.906C275.75 144.379 274.877 144.401 274.352 144.947L272.583 146.795C272.058 147.344 272.075 148.215 272.626 148.741C273.029 149.128 273.611 149.221 274.098 149.023L274.098 149.023ZM280.738 157.694L278.183 157.6C277.423 157.572 276.784 158.166 276.756 158.926C276.729 159.687 277.324 160.326 278.083 160.354L280.639 160.446C280.839 160.454 281.03 160.419 281.205 160.347C281.693 160.151 282.044 159.68 282.064 159.121C282.092 158.359 281.499 157.721 280.738 157.694L280.738 157.694Z" fill="#C8DBEC"/>
</g>
<g filter="url(#filter6_d_855_5859)">
<g filter="url(#filter7_b_855_5859)">
<circle cx="12.9884" cy="12.9884" r="12.9884" transform="matrix(-1 0 0 1 300.184 193.541)" fill="white" fill-opacity="0.01"/>
</g>
<g filter="url(#filter8_d_855_5859)">
<circle cx="12.9884" cy="12.9884" r="11.4884" transform="matrix(-1 0 0 1 300.184 193.541)" stroke="white" stroke-width="3"/>
</g>
<g filter="url(#filter9_d_855_5859)">
<circle cx="10.4969" cy="10.4969" r="9.99695" transform="matrix(-1 0 0 1 297.693 196.033)" stroke="#ECF1F7"/>
</g>
</g>
<g filter="url(#filter10_d_855_5859)">
<rect width="3.85632" height="16.7107" rx="1.92816" transform="matrix(-0.707107 0.707107 0.707107 0.707107 296.645 212.246)" fill="white"/>
</g>
<rect x="83.6711" y="139.561" width="30.8027" height="11.6119" rx="1" fill="#EBF1F8"/>
<rect x="83.6711" y="153.439" width="30.8027" height="1.00882" rx="0.50441" fill="#EBF1F8"/>
<rect x="83.6711" y="163.236" width="30.8027" height="11.6119" rx="1" fill="#EBF1F8"/>
<rect x="83.6711" y="177.115" width="30.8027" height="1.00882" rx="0.50441" fill="#EBF1F8"/>
<rect x="130.188" y="139.561" width="30.8027" height="11.6119" rx="1" fill="#EBF1F8"/>
<rect x="130.188" y="153.439" width="30.8027" height="1.00882" rx="0.50441" fill="#EBF1F8"/>
<rect x="130.188" y="163.236" width="30.8027" height="11.6119" rx="1" fill="#EBF1F8"/>
<rect x="130.188" y="177.115" width="30.8027" height="1.00882" rx="0.50441" fill="#EBF1F8"/>
<rect x="176.704" y="139.561" width="30.8027" height="11.6119" rx="1" fill="#EBF1F8"/>
<rect x="176.704" y="153.439" width="30.8027" height="1.00882" rx="0.50441" fill="#EBF1F8"/>
<rect x="176.704" y="163.236" width="30.8027" height="11.6119" rx="1" fill="#EBF1F8"/>
<rect x="176.704" y="177.115" width="30.8027" height="1.00882" rx="0.50441" fill="#EBF1F8"/>
<circle cx="99.0727" cy="234.688" r="16.0224" fill="#C8DBEC"/>
<path d="M119.824 234.689C119.824 239.044 118.453 243.289 115.907 246.822C113.36 250.355 109.767 252.997 105.635 254.375L99.0726 234.689H119.824Z" fill="#EBF1F8"/>
<rect x="132.311" y="231.473" width="3.87453" height="14.5934" rx="0.795942" fill="#ECF2F8"/>
<rect x="139.793" y="237.682" width="3.87453" height="8.38498" rx="0.795942" fill="#ECF2F8"/>
<rect x="147.274" y="226.846" width="3.87453" height="19.221" rx="0.795942" fill="#ECF2F8"/>
<rect x="154.755" y="234.834" width="3.87453" height="11.2316" rx="0.795942" fill="#ECF2F8"/>
<rect x="162.236" y="231.473" width="3.87453" height="14.5934" rx="0.795942" fill="#ECF2F8"/>
<rect x="169.811" y="231.473" width="3.87453" height="14.5934" rx="0.795942" fill="#ECF2F8"/>
<rect x="177.293" y="237.682" width="3.87453" height="8.38498" rx="0.795942" fill="#ECF2F8"/>
<rect x="184.773" y="226.846" width="3.87453" height="19.221" rx="0.795942" fill="#ECF2F8"/>
<rect x="192.255" y="234.834" width="3.87453" height="11.2316" rx="0.795942" fill="#ECF2F8"/>
<rect x="199.736" y="231.473" width="3.87453" height="14.5934" rx="0.795942" fill="#ECF2F8"/>
<g filter="url(#filter11_d_855_5859)">
<rect x="176.704" y="163.236" width="50.8423" height="56.4668" rx="7" fill="#15293F"/>
</g>
<path d="M211.111 180.125C211.202 179.218 211.202 178.401 211.202 177.402H193.049C193.049 178.401 193.049 179.218 193.14 180.125H187.604V181.032C187.604 189.111 197.861 194.83 200.311 196.099L200.31 199.186C200.31 200.73 199.13 201.909 197.587 201.909H195.771V205.539H208.479V201.909H206.663C205.119 201.909 203.94 200.73 203.94 199.186V196.101C206.39 194.829 216.648 189.111 216.648 181.034V180.127L211.111 180.125ZM189.51 181.941H193.322C193.684 186.026 194.683 188.931 195.772 191.017C192.867 188.749 189.872 185.571 189.51 181.941ZM208.571 191.017C209.66 188.929 210.659 186.026 211.021 181.941H214.833C214.379 185.571 211.384 188.749 208.571 191.017Z" fill="#3196F5"/>
<path d="M216.768 175.255C217.153 173.903 218.215 172.85 219.569 172.475L219.99 172.359L219.57 172.243H219.569C218.215 171.868 217.153 170.815 216.768 169.463L216.648 169.043L216.527 169.463C216.142 170.815 215.08 171.868 213.726 172.243L213.305 172.359L213.725 172.475H213.726C215.08 172.85 216.142 173.903 216.527 175.255L216.648 175.675L216.768 175.255Z" fill="#C2CCD8" fill-opacity="0.81"/>
<defs>
<filter id="filter0_d_855_5859" x="77.75" y="85.3672" width="259.514" height="196.738" filterUnits="userSpaceOnUse" color-interpolation-filters="sRGB">
<feFlood flood-opacity="0" result="BackgroundImageFix"/>
<feColorMatrix in="SourceAlpha" type="matrix" values="0 0 0 0 0 0 0 0 0 0 0 0 0 0 0 0 0 0 127 0" result="hardAlpha"/>
<feOffset dy="31"/>
<feGaussianBlur stdDeviation="5"/>
<feComposite in2="hardAlpha" operator="out"/>
<feColorMatrix type="matrix" values="0 0 0 0 0.0875 0 0 0 0 0.47175 0 0 0 0 0.75 0 0 0 0.06 0"/>
<feBlend mode="normal" in2="BackgroundImageFix" result="effect1_dropShadow_855_5859"/>
<feBlend mode="normal" in="SourceGraphic" in2="effect1_dropShadow_855_5859" result="shape"/>
</filter>
<filter id="filter1_d_855_5859" x="48.7356" y="114.479" width="196.053" height="107.303" filterUnits="userSpaceOnUse" color-interpolation-filters="sRGB">
<feFlood flood-opacity="0" result="BackgroundImageFix"/>
<feColorMatrix in="SourceAlpha" type="matrix" values="0 0 0 0 0 0 0 0 0 0 0 0 0 0 0 0 0 0 127 0" result="hardAlpha"/>
<feOffset dy="10"/>
<feGaussianBlur stdDeviation="10.5"/>
<feComposite in2="hardAlpha" operator="out"/>
<feColorMatrix type="matrix" values="0 0 0 0 0.0875 0 0 0 0 0.47175 0 0 0 0 0.75 0 0 0 0.13 0"/>
<feBlend mode="normal" in2="BackgroundImageFix" result="effect1_dropShadow_855_5859"/>
<feBlend mode="normal" in="SourceGraphic" in2="effect1_dropShadow_855_5859" result="shape"/>
</filter>
<filter id="filter2_d_855_5859" x="211.759" y="114.479" width="108.511" height="107.303" filterUnits="userSpaceOnUse" color-interpolation-filters="sRGB">
<feFlood flood-opacity="0" result="BackgroundImageFix"/>
<feColorMatrix in="SourceAlpha" type="matrix" values="0 0 0 0 0 0 0 0 0 0 0 0 0 0 0 0 0 0 127 0" result="hardAlpha"/>
<feOffset dy="10"/>
<feGaussianBlur stdDeviation="10.5"/>
<feComposite in2="hardAlpha" operator="out"/>
<feColorMatrix type="matrix" values="0 0 0 0 0.0875 0 0 0 0 0.47175 0 0 0 0 0.75 0 0 0 0.13 0"/>
<feBlend mode="normal" in2="BackgroundImageFix" result="effect1_dropShadow_855_5859"/>
<feBlend mode="normal" in="SourceGraphic" in2="effect1_dropShadow_855_5859" result="shape"/>
</filter>
<filter id="filter3_d_855_5859" x="211.759" y="188.781" width="108.511" height="107.303" filterUnits="userSpaceOnUse" color-interpolation-filters="sRGB">
<feFlood flood-opacity="0" result="BackgroundImageFix"/>
<feColorMatrix in="SourceAlpha" type="matrix" values="0 0 0 0 0 0 0 0 0 0 0 0 0 0 0 0 0 0 127 0" result="hardAlpha"/>
<feOffset dy="10"/>
<feGaussianBlur stdDeviation="10.5"/>
<feComposite in2="hardAlpha" operator="out"/>
<feColorMatrix type="matrix" values="0 0 0 0 0.0875 0 0 0 0 0.47175 0 0 0 0 0.75 0 0 0 0.13 0"/>
<feBlend mode="normal" in2="BackgroundImageFix" result="effect1_dropShadow_855_5859"/>
<feBlend mode="normal" in="SourceGraphic" in2="effect1_dropShadow_855_5859" result="shape"/>
</filter>
<filter id="filter4_d_855_5859" x="48.7356" y="188.781" width="196.053" height="107.303" filterUnits="userSpaceOnUse" color-interpolation-filters="sRGB">
<feFlood flood-opacity="0" result="BackgroundImageFix"/>
<feColorMatrix in="SourceAlpha" type="matrix" values="0 0 0 0 0 0 0 0 0 0 0 0 0 0 0 0 0 0 127 0" result="hardAlpha"/>
<feOffset dy="10"/>
<feGaussianBlur stdDeviation="10.5"/>
<feComposite in2="hardAlpha" operator="out"/>
<feColorMatrix type="matrix" values="0 0 0 0 0.0875 0 0 0 0 0.47175 0 0 0 0 0.75 0 0 0 0.13 0"/>
<feBlend mode="normal" in2="BackgroundImageFix" result="effect1_dropShadow_855_5859"/>
<feBlend mode="normal" in="SourceGraphic" in2="effect1_dropShadow_855_5859" result="shape"/>
</filter>
<filter id="filter5_d_855_5859" x="248.738" y="144.523" width="46.8514" height="48.4926" filterUnits="userSpaceOnUse" color-interpolation-filters="sRGB">
<feFlood flood-opacity="0" result="BackgroundImageFix"/>
<feColorMatrix in="SourceAlpha" type="matrix" values="0 0 0 0 0 0 0 0 0 0 0 0 0 0 0 0 0 0 127 0" result="hardAlpha"/>
<feOffset dx="5" dy="13.6397"/>
<feGaussianBlur stdDeviation="4.2624"/>
<feComposite in2="hardAlpha" operator="out"/>
<feColorMatrix type="matrix" values="0 0 0 0 0.37625 0 0 0 0 0.381289 0 0 0 0 0.5375 0 0 0 0.18 0"/>
<feBlend mode="normal" in2="BackgroundImageFix" result="effect1_dropShadow_855_5859"/>
<feBlend mode="normal" in="SourceGraphic" in2="effect1_dropShadow_855_5859" result="shape"/>
</filter>
<filter id="filter6_d_855_5859" x="270.207" y="193.541" width="33.9768" height="38.9766" filterUnits="userSpaceOnUse" color-interpolation-filters="sRGB">
<feFlood flood-opacity="0" result="BackgroundImageFix"/>
<feColorMatrix in="SourceAlpha" type="matrix" values="0 0 0 0 0 0 0 0 0 0 0 0 0 0 0 0 0 0 127 0" result="hardAlpha"/>
<feOffset dy="9"/>
<feGaussianBlur stdDeviation="2"/>
<feComposite in2="hardAlpha" operator="out"/>
<feColorMatrix type="matrix" values="0 0 0 0 0.8 0 0 0 0 0.894118 0 0 0 0 0.960784 0 0 0 0.48 0"/>
<feBlend mode="normal" in2="BackgroundImageFix" result="effect1_dropShadow_855_5859"/>
<feBlend mode="normal" in="SourceGraphic" in2="effect1_dropShadow_855_5859" result="shape"/>
</filter>
<filter id="filter7_b_855_5859" x="272.207" y="191.541" width="29.9768" height="29.9766" filterUnits="userSpaceOnUse" color-interpolation-filters="sRGB">
<feFlood flood-opacity="0" result="BackgroundImageFix"/>
<feGaussianBlur in="BackgroundImageFix" stdDeviation="1"/>
<feComposite in2="SourceAlpha" operator="in" result="effect1_backgroundBlur_855_5859"/>
<feBlend mode="normal" in="SourceGraphic" in2="effect1_backgroundBlur_855_5859" result="shape"/>
</filter>
<filter id="filter8_d_855_5859" x="242.177" y="172.95" width="101.478" height="101.478" filterUnits="userSpaceOnUse" color-interpolation-filters="sRGB">
<feFlood flood-opacity="0" result="BackgroundImageFix"/>
<feColorMatrix in="SourceAlpha" type="matrix" values="0 0 0 0 0 0 0 0 0 0 0 0 0 0 0 0 0 0 127 0" result="hardAlpha"/>
<feOffset dx="5.71977" dy="17.1593"/>
<feGaussianBlur stdDeviation="18.8753"/>
<feColorMatrix type="matrix" values="0 0 0 0 0.237639 0 0 0 0 0.2478 0 0 0 0 0.491667 0 0 0 0.18 0"/>
<feBlend mode="normal" in2="BackgroundImageFix" result="effect1_dropShadow_855_5859"/>
<feBlend mode="normal" in="SourceGraphic" in2="effect1_dropShadow_855_5859" result="shape"/>
</filter>
<filter id="filter9_d_855_5859" x="244.668" y="175.442" width="96.4949" height="96.4952" filterUnits="userSpaceOnUse" color-interpolation-filters="sRGB">
<feFlood flood-opacity="0" result="BackgroundImageFix"/>
<feColorMatrix in="SourceAlpha" type="matrix" values="0 0 0 0 0 0 0 0 0 0 0 0 0 0 0 0 0 0 127 0" result="hardAlpha"/>
<feOffset dx="5.71977" dy="17.1593"/>
<feGaussianBlur stdDeviation="18.8753"/>
<feColorMatrix type="matrix" values="0 0 0 0 0.237639 0 0 0 0 0.2478 0 0 0 0 0.491667 0 0 0 0.18 0"/>
<feBlend mode="normal" in2="BackgroundImageFix" result="effect1_dropShadow_855_5859"/>
<feBlend mode="normal" in="SourceGraphic" in2="effect1_dropShadow_855_5859" result="shape"/>
</filter>
<filter id="filter10_d_855_5859" x="290.717" y="213.045" width="20.9458" height="25.9453" filterUnits="userSpaceOnUse" color-interpolation-filters="sRGB">
<feFlood flood-opacity="0" result="BackgroundImageFix"/>
<feColorMatrix in="SourceAlpha" type="matrix" values="0 0 0 0 0 0 0 0 0 0 0 0 0 0 0 0 0 0 127 0" result="hardAlpha"/>
<feOffset dy="9"/>
<feGaussianBlur stdDeviation="2"/>
<feComposite in2="hardAlpha" operator="out"/>
<feColorMatrix type="matrix" values="0 0 0 0 0.8 0 0 0 0 0.894118 0 0 0 0 0.960784 0 0 0 0.48 0"/>
<feBlend mode="normal" in2="BackgroundImageFix" result="effect1_dropShadow_855_5859"/>
<feBlend mode="normal" in="SourceGraphic" in2="effect1_dropShadow_855_5859" result="shape"/>
</filter>
<filter id="filter11_d_855_5859" x="163.704" y="161.236" width="76.8423" height="82.4668" filterUnits="userSpaceOnUse" color-interpolation-filters="sRGB">
<feFlood flood-opacity="0" result="BackgroundImageFix"/>
<feColorMatrix in="SourceAlpha" type="matrix" values="0 0 0 0 0 0 0 0 0 0 0 0 0 0 0 0 0 0 127 0" result="hardAlpha"/>
<feOffset dy="11"/>
<feGaussianBlur stdDeviation="6.5"/>
<feComposite in2="hardAlpha" operator="out"/>
<feColorMatrix type="matrix" values="0 0 0 0 0.112604 0 0 0 0 0.214331 0 0 0 0 0.575 0 0 0 0.37 0"/>
<feBlend mode="normal" in2="BackgroundImageFix" result="effect1_dropShadow_855_5859"/>
<feBlend mode="normal" in="SourceGraphic" in2="effect1_dropShadow_855_5859" result="shape"/>
</filter>
</defs>
</svg>
