<svg width="54" height="55" viewBox="0 0 54 55" fill="none" xmlns="http://www.w3.org/2000/svg">
<rect y="0.125" width="54" height="54" rx="6" fill="#E8F4FE"/>
<path d="M40.1839 29.5056C39.2243 28.7078 37.86 28.5922 36.7847 29.2281L30.7032 32.8354C30.4141 33.0088 30.0788 33.1013 29.7435 33.1013H24.321C24.0898 33.1013 23.9048 32.9163 23.9048 32.6851C23.9048 32.4539 24.0898 32.2689 24.321 32.2689H28.5411C30.2985 32.2689 31.7322 30.8352 31.7322 29.0778C31.7322 27.3204 30.2985 25.8867 28.5411 25.8867H22.7486C21.1068 25.8867 19.5229 26.4186 18.2279 27.3551C17.8117 26.962 17.2452 26.7192 16.6208 26.7192H15.1293C13.8344 26.7192 12.7707 27.7713 12.7707 29.0778V37.7723C12.7707 39.0672 13.8229 40.1309 15.1293 40.1309H16.6208C17.1411 40.1309 17.6151 39.9575 18.0082 39.6685C19.3494 40.7206 21.0028 41.3103 22.7486 41.3103H29.3042C31.2235 41.3103 33.0502 40.5934 34.4608 39.2985L40.4267 33.795C40.9817 33.2054 41.2707 32.4076 41.2245 31.5983C41.1782 30.789 40.7967 30.0259 40.1723 29.5056H40.1839ZM15.0947 37.7723L15.1409 29.0431L16.6786 29.0894V37.7839C16.6786 37.7839 16.6555 37.8301 16.6324 37.8301L15.0947 37.7839V37.7723ZM38.808 32.1417L32.8999 37.5873C31.9172 38.4892 30.6454 38.9863 29.3042 38.9863H22.7486C21.3265 38.9863 19.9738 38.4313 18.9794 37.4486V29.7484C19.9738 28.7656 21.3265 28.2107 22.7486 28.2107H28.5411C29.0267 28.2107 29.4198 28.6038 29.4198 29.0894C29.4198 29.575 29.0267 29.9681 28.5411 29.9681H24.321C22.818 29.9681 21.5924 31.1936 21.5924 32.6967C21.5924 34.1997 22.818 35.4253 24.321 35.4253H29.7435C30.4951 35.4253 31.235 35.2287 31.8825 34.8356L37.964 31.2283C38.1953 31.0896 38.4959 31.1127 38.6924 31.2861C38.8774 31.4364 38.9121 31.633 38.9237 31.737C38.9237 31.8411 38.9237 32.0376 38.808 32.1533V32.1417Z" fill="#3196F5"/>
<path d="M34.299 25.8194C37.8485 25.8194 40.7389 22.9289 40.7389 19.3794C40.7389 15.8299 37.8485 12.9395 34.299 12.9395C30.7495 12.9395 27.859 15.8299 27.859 19.3794C27.859 22.9289 30.7495 25.8194 34.299 25.8194ZM34.299 15.2403C36.5767 15.2403 38.4266 17.0902 38.4266 19.3679C38.4266 21.6455 36.5767 23.4954 34.299 23.4954C32.0213 23.4954 30.1714 21.6455 30.1714 19.3679C30.1714 17.0902 32.0213 15.2403 34.299 15.2403Z" fill="#3196F5"/>
<path d="M32.0097 19.2054C32.1138 19.3095 32.2294 19.3904 32.3797 19.4598C32.5185 19.5176 32.6688 19.5523 32.8306 19.5523C32.9925 19.5523 33.1428 19.5176 33.2815 19.4598C33.4203 19.402 33.5475 19.3211 33.6515 19.2054C33.7556 19.1014 33.8365 18.9742 33.8943 18.8355C33.9521 18.6967 33.9868 18.5464 33.9868 18.3845C33.9868 18.2227 33.9521 18.0724 33.8943 17.9336C33.8365 17.7949 33.7556 17.6677 33.6515 17.5637C33.5475 17.4596 33.4318 17.3787 33.2815 17.3093C33.1428 17.2515 32.9925 17.2168 32.8306 17.2168C32.6688 17.2168 32.5185 17.2515 32.3797 17.3093C32.241 17.3671 32.1138 17.448 32.0097 17.5637C31.9057 17.6677 31.8247 17.7949 31.7669 17.9336C31.7091 18.0724 31.6744 18.2227 31.6744 18.3845C31.6744 18.5464 31.7091 18.6967 31.7669 18.8355C31.8247 18.9742 31.9057 19.1014 32.0097 19.2054ZM32.426 17.9914C32.53 17.8874 32.6688 17.8296 32.8191 17.8296C32.9694 17.8296 33.1081 17.8874 33.2122 17.9914C33.3162 18.0955 33.374 18.2342 33.374 18.3845C33.374 18.5348 33.3162 18.6736 33.2122 18.7776C33.1081 18.8817 32.9694 18.9395 32.8191 18.9395C32.6688 18.9395 32.53 18.8817 32.426 18.7776C32.3219 18.6736 32.2641 18.5348 32.2641 18.3845C32.2641 18.2342 32.3219 18.0955 32.426 17.9914Z" fill="#3196F5"/>
<path d="M34.9578 19.5305C34.8538 19.6345 34.7729 19.7617 34.7151 19.9004C34.6572 20.0392 34.6226 20.1895 34.6226 20.3513C34.6226 20.5132 34.6572 20.6635 34.7151 20.8023C34.7729 20.941 34.8538 21.0682 34.9578 21.1722C35.0619 21.2763 35.1775 21.3572 35.3278 21.4266C35.4666 21.4844 35.6169 21.5191 35.7787 21.5191C35.9406 21.5191 36.0909 21.4844 36.2297 21.4266C36.3684 21.3688 36.4956 21.2879 36.5996 21.1722C36.7037 21.0682 36.7846 20.941 36.8424 20.8023C36.9002 20.6635 36.9349 20.5132 36.9349 20.3513C36.9349 20.1895 36.9002 20.0392 36.8424 19.9004C36.7846 19.7617 36.7037 19.6345 36.5996 19.5305C36.4956 19.4264 36.38 19.3455 36.2297 19.2761C36.0909 19.2183 35.9406 19.1836 35.7787 19.1836C35.6169 19.1836 35.4666 19.2183 35.3278 19.2761C35.1891 19.3339 35.0619 19.4148 34.9578 19.5305ZM35.7787 19.7848C35.9406 19.7848 36.0678 19.8426 36.1718 19.9467C36.2759 20.0507 36.3337 20.1895 36.3337 20.3398C36.3337 20.4901 36.2759 20.6404 36.1718 20.7444C36.0678 20.8485 35.929 20.9063 35.7787 20.9063C35.6284 20.9063 35.4897 20.8485 35.3856 20.7444C35.2816 20.6404 35.2238 20.5016 35.2238 20.3398C35.2238 20.1779 35.2816 20.0507 35.3856 19.9467C35.4897 19.8426 35.6284 19.7848 35.7787 19.7848Z" fill="#3196F5"/>
<path d="M33.316 21.634L35.744 17.3908L35.2468 17.1133L32.8766 21.3796L33.316 21.634Z" fill="#3196F5"/>
</svg>
