<svg width="55" height="55" viewBox="0 0 55 55" fill="none" xmlns="http://www.w3.org/2000/svg">
<rect x="0.859375" y="0.125" width="54" height="54" rx="6" fill="#E8F4FE"/>
<path d="M39.3055 13.7422H16.413C15.3493 13.7422 14.4822 14.5978 14.4822 15.6615V18.5288C14.4822 19.5925 15.3493 20.4596 16.413 20.4596H16.9449V24.275C16.9449 25.3041 17.5114 26.229 18.4479 26.6915L23.4542 29.1426L25.7666 30.2757L26.125 30.4491L25.4775 31.7671L22.7836 32.1602C22.2864 32.2296 21.8818 32.5765 21.7315 33.0505C21.5696 33.5245 21.6968 34.0448 22.0552 34.3801L24.0091 36.2878L23.5467 38.9817C23.4657 39.4789 23.6739 39.9645 24.0785 40.2535C24.2982 40.427 24.5641 40.5079 24.8416 40.5079C25.0497 40.5079 25.2578 40.4617 25.4428 40.3576L27.8593 39.0858L30.2757 40.3576C30.715 40.5888 31.2469 40.5542 31.6515 40.2535C32.0562 39.9645 32.2528 39.4789 32.1718 38.9817L31.7094 36.2878L33.6633 34.3801C34.0217 34.0333 34.1489 33.5245 33.987 33.0505C33.8367 32.5765 33.4321 32.2296 32.9349 32.1602L30.241 31.7671L29.5935 30.4491L29.9635 30.2757L32.2759 29.1426L37.2822 26.6915C38.2071 26.229 38.7852 25.3041 38.7852 24.275V20.4596H39.3055C40.3692 20.4596 41.2363 19.5925 41.2363 18.5288V15.6615C41.2363 14.5978 40.3692 13.7422 39.3055 13.7422ZM38.924 18.1473H16.7946V16.0546H38.924V18.1473ZM19.4769 24.6219C19.3382 24.5525 19.2572 24.4254 19.2572 24.275V20.4596H23.4542V26.5643L19.4769 24.6219ZM29.7092 35.0045C29.397 35.3166 29.2582 35.7444 29.3392 36.1606L29.5473 37.3631L28.4605 36.785C28.2755 36.6925 28.0674 36.6462 27.8593 36.6462C27.6511 36.6462 27.443 36.6925 27.258 36.7965L26.1712 37.3631L26.3793 36.1722C26.4603 35.7444 26.3215 35.3166 26.0094 35.0045L25.1306 34.1489L26.3331 33.9755C26.7609 33.9176 27.1309 33.6517 27.3158 33.2586L27.8593 32.1718L28.3911 33.2586C28.5877 33.6517 28.9576 33.9176 29.3854 33.9755L30.5879 34.1489L29.7092 35.0045ZM28.1252 28.5992C28.1252 28.5992 28.1136 28.6107 28.1021 28.6107C28.0211 28.5992 27.9402 28.5876 27.8593 28.5876C27.7783 28.5876 27.6974 28.5992 27.628 28.6107C27.6165 28.5992 27.5933 28.5992 27.5818 28.5876L25.7666 27.6974V20.4596H29.9635V27.6974L28.1252 28.5992ZM36.4729 24.275C36.4729 24.4254 36.3919 24.5525 36.2532 24.6219L32.2759 26.5643V20.4596H36.4729V24.275Z" fill="#3196F5"/>
</svg>
