<svg width="54" height="55" viewBox="0 0 54 55" fill="none" xmlns="http://www.w3.org/2000/svg">
<rect y="0.125" width="54" height="54" rx="6" fill="#E8F4FE"/>
<path d="M34.9083 28.0974C38.3421 28.0974 41.1285 25.1607 41.1285 21.565C41.1285 18.2583 38.7584 15.5181 35.6945 15.1019C35.3707 14.3504 34.6539 13.8301 33.8214 13.8301H20.1669C19.3344 13.8301 18.6291 14.3504 18.2939 15.1019C15.2415 15.5065 12.8713 18.2467 12.8713 21.565C12.8713 25.1376 15.6231 28.0396 19.0223 28.0974C19.5657 29.3461 20.3403 30.4676 21.3231 31.381C21.7971 31.8203 22.3058 32.1903 22.8377 32.5025C20.6294 33.4506 18.7795 35.1386 17.6348 37.37C17.2995 38.0175 17.3342 38.7806 17.7158 39.4049C18.1089 40.0408 18.7795 40.4224 19.531 40.4224H34.492C35.232 40.4224 35.9141 40.0408 36.2957 39.4049C36.6772 38.7806 36.7119 38.0175 36.3766 37.37C35.232 35.127 33.359 33.439 31.1391 32.4909C32.7577 31.5082 34.0874 29.9704 34.9198 28.109L34.9083 28.0974ZM38.8162 21.565C38.8162 23.5189 37.579 25.1723 35.891 25.6463V17.4836C37.5675 17.9577 38.8162 19.611 38.8162 21.5534V21.565ZM18.1089 25.6463C16.4324 25.1723 15.1837 23.5189 15.1837 21.565C15.1837 19.611 16.4208 17.9692 18.1089 17.4952V25.6579V25.6463ZM34.0296 38.0406H19.9703C21.4271 35.5433 24.0863 34.0171 26.9999 34.0171C29.9135 34.0171 32.5728 35.5433 34.0411 38.0406H34.0296ZM27.4393 31.3232C25.7859 31.4504 24.1788 30.8607 22.8955 29.6698C21.3231 28.213 20.4212 26.0394 20.4212 23.7155V16.1309H33.5786V23.3917C33.5786 27.5771 30.8847 31.0573 27.4393 31.3116V31.3232Z" fill="#3196F5"/>
<path d="M29.6708 21.4497L28.3527 21.2532C28.2024 21.2301 28.0752 21.1376 28.0059 20.9988L27.4162 19.7964C27.2428 19.4611 26.7572 19.4611 26.5953 19.7964L26.0056 20.9988C25.9363 21.1376 25.8091 21.2301 25.6588 21.2532L24.3407 21.4497C23.9708 21.5075 23.8205 21.97 24.0864 22.2359L25.046 23.1725C25.1501 23.2765 25.2079 23.4268 25.1732 23.5771L24.9535 24.8952C24.8841 25.2652 25.2773 25.5542 25.6125 25.3808L26.7919 24.7564C26.9306 24.6871 27.0809 24.6871 27.2196 24.7564L28.399 25.3808C28.7342 25.5542 29.1274 25.2767 29.058 24.8952L28.8267 23.5771C28.8036 23.4268 28.8499 23.2765 28.9539 23.1725L29.9136 22.2359C30.1795 21.97 30.0292 21.5075 29.6592 21.4613L29.6708 21.4497Z" fill="#3196F5"/>
</svg>
