<svg width="359" height="352" viewBox="0 0 359 352" fill="none" xmlns="http://www.w3.org/2000/svg">
<path d="M67.7109 71.0576V46.7031C67.7109 29.5823 81.5901 15.7031 98.7109 15.7031H258.129C275.25 15.7031 289.129 29.5823 289.129 46.7031V79.7406" stroke="black" stroke-opacity="0.34" stroke-dasharray="6 6"/>
<path d="M67.7109 275.003V250.648C67.7109 233.528 81.5901 219.648 98.7109 219.648H258.129C275.25 219.648 289.129 233.528 289.129 250.648V283.686" stroke="#314562" stroke-opacity="0.42" stroke-dasharray="6 6"/>
<path d="M67.7109 96.583V120.937C67.7109 138.058 81.5901 151.938 98.7109 151.938H258.129C275.25 151.938 289.129 138.058 289.129 120.937V87.9001" stroke="#314562" stroke-opacity="0.42" stroke-dasharray="6 6"/>
<g filter="url(#filter0_d_211_12473)">
<rect x="149.152" y="55.9219" width="57.6982" height="57.4658" rx="28.7329" fill="white"/>
</g>
<g filter="url(#filter1_d_211_12473)">
<rect x="149.152" y="195.877" width="57.6982" height="57.4658" rx="28.7329" fill="white"/>
</g>
<rect x="167.016" y="142.82" width="22.8066" height="23.5059" fill="white"/>
<path d="M179.129 186.584C178.738 186.975 178.105 186.975 177.715 186.584L171.351 180.22C170.96 179.83 170.96 179.196 171.351 178.806C171.741 178.415 172.374 178.415 172.765 178.806L178.422 184.463L184.079 178.806C184.469 178.415 185.102 178.415 185.493 178.806C185.883 179.196 185.883 179.83 185.493 180.22L179.129 186.584ZM177.422 185.877L177.422 123.268L179.422 123.268L179.422 185.877L177.422 185.877Z" fill="#6C839C"/>
<circle cx="178" cy="310.796" r="29.7925" fill="#51CFA3" fill-opacity="0.23"/>
<circle cx="178" cy="310.796" r="40.2417" fill="#51CFA3" fill-opacity="0.05"/>
<path d="M178 292.346C173.026 292.346 168.258 294.321 164.742 297.838C161.225 301.353 159.25 306.122 159.25 311.096C159.25 316.069 161.225 320.838 164.742 324.354C168.258 327.871 173.026 329.846 178 329.846C182.974 329.846 187.742 327.871 191.258 324.354C194.775 320.838 196.75 316.069 196.75 311.096C196.75 306.122 194.775 301.354 191.258 297.838C187.742 294.321 182.974 292.346 178 292.346ZM174.25 319.846C173.917 319.847 173.598 319.718 173.362 319.483L165.862 311.908C165.372 311.417 165.372 310.624 165.862 310.133C166.353 309.642 167.147 309.642 167.637 310.133L174.25 316.821L188.362 302.708C188.853 302.218 189.647 302.218 190.137 302.708C190.628 303.199 190.628 303.993 190.137 304.483L175.137 319.483C174.901 319.718 174.583 319.847 174.25 319.846Z" fill="#23D395"/>
<path d="M194.994 78.9718C195.079 79.5416 194.678 79.1335 194.678 79.1335C193.045 77.047 194.963 73.5594 194.963 73.5594C195.21 73.159 195.456 72.7971 195.71 72.4661C191.828 66.8303 185.333 63.1348 177.961 63.1348C166.621 63.1348 157.338 71.904 156.498 83.0216C160.789 80.9428 165.465 86.0858 165.465 86.0858L167.306 87.9105C172.845 93.4384 174.44 93.3922 175.241 92.1219C175.241 92.1219 176.351 90.5128 174.502 87.2484C172.26 83.3064 174.718 80.3885 174.718 80.3885C181.243 71.5268 191.689 82.7983 191.689 82.7983C195.379 86.4785 197.721 87.8566 199.2 88.2492C199.393 87.079 199.501 85.8856 199.501 84.6615C199.501 82.0669 199.038 79.5801 198.199 77.278C195.341 76.3002 194.94 78.61 194.994 78.9795V78.9718Z" fill="#76C4D5"/>
<path d="M185.07 89.4218C180.725 85.0872 178.175 83.8554 176.696 83.8477C176.534 83.8631 175.301 84.0016 175.54 85.2566C175.756 86.3499 179.693 91.4929 175.147 96.0507C168.776 101.417 161.935 93.2791 161.935 93.2791C159.817 91.3081 157.259 88.2977 156.936 89.2909C159.062 98.9456 167.667 106.175 177.959 106.175C185.879 106.175 192.797 101.902 196.541 95.5349C191.048 95.866 185.07 89.4218 185.07 89.4218Z" fill="#007496"/>
<circle cx="178.001" cy="224.61" r="28.8506" fill="white"/>
<circle cx="178" cy="224.61" r="24.2951" fill="#B6E9F4"/>
<mask id="mask0_211_12473" style="mask-type:alpha" maskUnits="userSpaceOnUse" x="153" y="200" width="50" height="49">
<circle cx="178.001" cy="224.608" r="24.2937" fill="#C4C4C4"/>
</mask>
<g mask="url(#mask0_211_12473)">
<path d="M188.364 243.83C182.555 241.492 180.641 238.586 181.136 234.406H177.582H177.156H174.745C175.241 238.586 173.327 241.492 167.517 243.83C161.708 246.167 160.928 248.72 160.928 248.72H176.478H177.579H194.951C194.954 248.72 194.177 246.167 188.364 243.83Z" fill="#E79392"/>
<path d="M177.901 241.217C179.577 241.217 181.161 240.794 182.569 240.04C181.283 238.447 180.88 236.602 181.141 234.406H177.587H177.16H174.75C175.011 236.618 174.601 238.473 173.295 240.073C174.687 240.807 176.251 241.217 177.901 241.217Z" fill="#D17675"/>
<path d="M188.364 243.829C186.351 243.019 184.807 242.14 183.666 241.164L178.31 246.14L172.275 241.111C171.131 242.11 169.567 243.003 167.517 243.829C161.708 246.167 160.928 248.719 160.928 248.719H176.478H177.579H194.951C194.954 248.719 194.177 246.167 188.364 243.829Z" fill="#76C4D5"/>
<path d="M169.687 226.816C170.758 228.862 170.308 231.213 168.685 232.063C167.062 232.913 164.876 231.941 163.805 229.891C162.733 227.844 163.183 225.493 164.807 224.643C166.433 223.794 168.616 224.766 169.687 226.816Z" fill="#E79392"/>
<path d="M168.747 230.725C168.74 230.642 168.724 230.569 168.717 230.49C168.731 230.55 168.737 230.596 168.74 230.635C168.731 230.219 168.671 229.878 168.565 229.611C167.719 226.142 164.479 225.795 164.479 225.795C166.122 226.787 167.147 227.881 167.782 228.787C166.614 228.311 164.816 229.32 164.816 229.32C166.955 228.754 167.927 229.224 168.373 229.766C168.661 230.348 168.747 230.725 168.747 230.725Z" fill="#D17675"/>
<path d="M186.107 226.816C185.036 228.862 185.486 231.213 187.109 232.063C188.733 232.913 190.918 231.941 191.99 229.891C193.061 227.844 192.611 225.493 190.988 224.643C189.364 223.794 187.179 224.766 186.107 226.816Z" fill="#E79392"/>
<path d="M187.051 230.725C187.057 230.642 187.074 230.569 187.081 230.49C187.067 230.55 187.061 230.596 187.057 230.635C187.067 230.219 187.127 229.878 187.233 229.611C188.079 226.142 191.319 225.795 191.319 225.795C189.676 226.787 188.651 227.881 188.016 228.787C189.18 228.311 190.982 229.32 190.982 229.32C188.846 228.754 187.871 229.224 187.424 229.766C187.133 230.348 187.051 230.725 187.051 230.725Z" fill="#D17675"/>
<path d="M190.642 218.121C191.961 215.235 193.571 210.136 187.048 207.16C187.094 207.184 184.257 204.793 179.215 209.141C177.608 210.553 175.452 211.171 173.409 210.493C171.372 209.815 168.687 209.895 167.183 213.591C166.779 214.583 166.65 215.473 166.717 216.26C166.244 215.665 165.599 215.278 164.997 216.223C164.511 216.974 164.911 220.3 166.088 223.306C166.088 223.306 166.776 230.527 170.066 231.648L173.306 227.204C175.991 227.141 179.34 227.055 182.091 226.992L185.487 231.648C187.838 230.848 188.86 226.939 189.253 224.767C189.382 224.625 189.508 224.483 189.637 224.341C191.154 222.667 191.726 220.346 190.797 218.425C190.754 218.32 190.701 218.22 190.642 218.121Z" fill="#1F2027"/>
<path d="M173.412 210.493C171.376 209.815 168.691 209.895 167.186 213.591C167.028 213.981 166.912 214.355 166.836 214.712L166.919 214.917C166.915 214.917 168.909 210.262 173.412 210.493Z" fill="#4D4E62"/>
<path d="M187.044 207.16C187.08 207.18 185.368 205.735 182.227 207.147C182.842 207.14 190.688 207.23 191.699 214.917C192.172 212.269 191.541 209.21 187.044 207.16Z" fill="#4D4E62"/>
<path d="M174.906 215.163C171.143 215.163 168.082 218.191 168.042 221.954L167.973 228.497C167.973 234.482 172.416 239.332 177.895 239.332C183.377 239.332 187.818 234.482 187.818 228.497L187.798 221.557C187.788 218.023 185.516 213.152 181.982 213.152L174.906 215.163Z" fill="#FDB193"/>
<path opacity="0.39" d="M178.686 234.675C178.686 234.675 180.464 234.732 181.099 233.316C181.099 233.316 181.605 234.345 180.392 234.95C179.182 235.558 178.686 234.675 178.686 234.675Z" fill="#FF8282"/>
<path opacity="0.55" d="M187.809 221.553C187.799 218.019 185.528 213.148 181.993 213.148L174.911 215.159C171.148 215.159 168.086 218.187 168.047 221.95L168.014 225.051L169.009 223.349C169.016 223.319 169.697 220.403 175.982 220.323C178.178 220.294 180.852 219.652 182.588 217.133C183.213 219.011 184.258 220.7 185.501 221.715C186.225 222.304 186.999 222.658 187.806 222.777L187.809 221.553Z" fill="#FDB193"/>
<path d="M177.895 237.923C173.808 237.923 170.267 235.533 168.518 232.041C169.863 236.283 173.55 239.332 177.895 239.332C182.239 239.332 185.926 236.283 187.272 232.041C185.522 235.533 181.981 237.923 177.895 237.923Z" fill="#FDD5C5"/>
<path d="M180.92 230.383C181.036 230.697 181.099 231.037 181.099 231.395C181.099 232.988 179.839 234.281 178.285 234.281C176.926 234.281 175.792 233.292 175.527 231.98L180.92 230.383Z" fill="#230F0B"/>
<path d="M178.278 234.281C177.796 234.281 177.346 234.155 176.949 233.937C177.207 232.684 178.388 231.738 179.803 231.738C180.242 231.738 180.656 231.831 181.029 231.993C180.765 233.299 179.634 234.281 178.278 234.281Z" fill="#E8132C"/>
<path d="M179.313 228.66C179.313 229.599 178.679 230.359 177.895 230.359C177.111 230.359 176.477 229.599 176.477 228.66C176.477 227.721 177.111 226.547 177.895 226.547C178.679 226.544 179.313 227.717 179.313 228.66Z" fill="#FC7F7D"/>
<path d="M182.992 225.639C182.992 226.416 182.727 227.048 182.403 227.048C182.079 227.048 181.814 226.416 181.814 225.639C181.814 224.862 182.079 224.23 182.403 224.23C182.727 224.227 182.992 224.859 182.992 225.639Z" fill="#25110D"/>
<path d="M185.183 224.095C185.259 224.052 181.995 221.989 179.982 222.065C179.955 222.098 180.022 220.266 182.693 221.225C185.282 222.29 185.16 224.125 185.183 224.095Z" fill="#1F2027"/>
<path d="M173.383 227.048C173.709 227.048 173.972 226.417 173.972 225.639C173.972 224.861 173.709 224.23 173.383 224.23C173.058 224.23 172.795 224.861 172.795 225.639C172.795 226.417 173.058 227.048 173.383 227.048Z" fill="#25110D"/>
<path d="M170.308 224.095C170.232 224.052 173.495 221.989 175.509 222.065C175.535 222.098 175.469 220.266 172.798 221.225C170.205 222.29 170.331 224.125 170.308 224.095Z" fill="#1F2027"/>
<path d="M171.956 230.422C171.919 230.422 171.88 230.412 171.843 230.396C171.714 230.333 171.658 230.178 171.721 230.049L172.544 228.346C172.607 228.217 172.763 228.164 172.892 228.224C173.021 228.286 173.077 228.442 173.014 228.571L172.191 230.274C172.144 230.369 172.052 230.422 171.956 230.422Z" fill="#FC7F7D"/>
<path d="M170.315 230.422C170.279 230.422 170.239 230.412 170.203 230.396C170.074 230.333 170.018 230.178 170.08 230.049L170.904 228.346C170.967 228.217 171.122 228.164 171.251 228.224C171.38 228.286 171.436 228.442 171.373 228.571L170.55 230.274C170.507 230.369 170.414 230.422 170.315 230.422Z" fill="#FC7F7D"/>
<path d="M183.67 230.424C183.574 230.424 183.482 230.371 183.436 230.275L182.612 228.572C182.549 228.443 182.602 228.288 182.735 228.225C182.864 228.162 183.019 228.218 183.082 228.347L183.905 230.05C183.968 230.179 183.915 230.334 183.783 230.397C183.746 230.417 183.707 230.424 183.67 230.424Z" fill="#FC7F7D"/>
<path d="M185.311 230.424C185.215 230.424 185.123 230.371 185.076 230.275L184.253 228.572C184.19 228.443 184.243 228.288 184.375 228.225C184.504 228.162 184.66 228.218 184.722 228.347L185.546 230.05C185.609 230.179 185.556 230.334 185.423 230.397C185.387 230.417 185.347 230.424 185.311 230.424Z" fill="#FC7F7D"/>
<path d="M188.247 218.729L183.589 210.764L172.33 214.173L166.293 221.49C167.596 222.455 168.035 223.176 168.035 223.176C168.035 223.176 168.687 219.42 175.974 219.327C180.755 219.264 182.339 216.269 182.964 213.845C183.096 216.672 184.472 219.588 186.131 220.941C187.361 221.946 188.552 221.962 189.52 221.642L188.247 218.729Z" fill="#1F2027"/>
</g>
<g filter="url(#filter2_d_211_12473)">
<rect x="125.258" y="3.54492" width="112.486" height="24.3137" rx="4" fill="#314562" shape-rendering="crispEdges"/>
<path d="M164.948 20.7012V11.027H166.12V19.662H170.617V20.7012H164.948ZM175.322 20.8523C174.622 20.8523 174.019 20.698 173.512 20.3894C173.009 20.0776 172.62 19.6431 172.346 19.0857C172.075 18.5251 171.939 17.8732 171.939 17.13C171.939 16.3868 172.075 15.7318 172.346 15.165C172.62 14.595 173.001 14.1509 173.489 13.8329C173.98 13.5117 174.553 13.3511 175.208 13.3511C175.586 13.3511 175.959 13.414 176.328 13.54C176.696 13.666 177.032 13.8707 177.334 14.1541C177.636 14.4344 177.877 14.806 178.057 15.2689C178.236 15.7318 178.326 16.3018 178.326 16.9789V17.4513H172.733V16.4876H177.192C177.192 16.0782 177.11 15.7129 176.947 15.3917C176.786 15.0705 176.556 14.817 176.257 14.6312C175.961 14.4454 175.611 14.3525 175.208 14.3525C174.764 14.3525 174.38 14.4627 174.056 14.6832C173.734 14.9004 173.487 15.1839 173.314 15.5334C173.141 15.883 173.054 16.2577 173.054 16.6577V17.3001C173.054 17.848 173.149 18.3125 173.338 18.6936C173.53 19.0715 173.796 19.3596 174.136 19.558C174.476 19.7533 174.871 19.8509 175.322 19.8509C175.614 19.8509 175.879 19.81 176.115 19.7281C176.354 19.6431 176.561 19.5171 176.734 19.3502C176.907 19.1801 177.041 18.9691 177.135 18.7172L178.212 19.0195C178.099 19.3848 177.909 19.706 177.641 19.9832C177.373 20.2571 177.043 20.4713 176.649 20.6256C176.255 20.7768 175.813 20.8523 175.322 20.8523ZM182.157 20.8712C181.697 20.8712 181.28 20.7846 180.905 20.6114C180.53 20.4351 180.233 20.1816 180.012 19.8509C179.792 19.5171 179.682 19.114 179.682 18.6416C179.682 18.2259 179.763 17.889 179.927 17.6308C180.091 17.3694 180.31 17.1647 180.584 17.0167C180.858 16.8687 181.16 16.7584 181.491 16.686C181.825 16.6104 182.16 16.5506 182.497 16.5065C182.938 16.4498 183.295 16.4073 183.569 16.379C183.846 16.3475 184.048 16.2955 184.174 16.2231C184.303 16.1507 184.367 16.0247 184.367 15.8452V15.8074C184.367 15.3413 184.24 14.9792 183.985 14.7209C183.733 14.4627 183.35 14.3336 182.837 14.3336C182.305 14.3336 181.888 14.4501 181.585 14.6832C181.283 14.9162 181.07 15.165 180.948 15.4295L179.889 15.0516C180.078 14.6107 180.33 14.2675 180.645 14.0218C180.963 13.7731 181.31 13.5998 181.684 13.5022C182.062 13.4015 182.434 13.3511 182.799 13.3511C183.032 13.3511 183.3 13.3794 183.602 13.4361C183.908 13.4896 184.202 13.6014 184.486 13.7715C184.772 13.9415 185.01 14.1982 185.199 14.5414C185.388 14.8847 185.482 15.3445 185.482 15.9208V20.7012H184.367V19.7186H184.311C184.235 19.8761 184.109 20.0446 183.933 20.2241C183.757 20.4036 183.522 20.5563 183.229 20.6823C182.936 20.8082 182.579 20.8712 182.157 20.8712ZM182.327 19.8698C182.768 19.8698 183.139 19.7832 183.442 19.61C183.747 19.4368 183.977 19.2132 184.131 18.9392C184.289 18.6652 184.367 18.3771 184.367 18.0748V17.0545C184.32 17.1111 184.216 17.1631 184.056 17.2103C183.898 17.2544 183.716 17.2938 183.508 17.3284C183.303 17.3599 183.103 17.3883 182.908 17.4135C182.716 17.4355 182.56 17.4544 182.44 17.4701C182.15 17.5079 181.88 17.5693 181.628 17.6544C181.379 17.7363 181.177 17.8606 181.023 18.0275C180.872 18.1913 180.796 18.4149 180.796 18.6983C180.796 19.0857 180.94 19.3785 181.226 19.5769C181.516 19.7722 181.883 19.8698 182.327 19.8698ZM187.517 20.7012V13.4455H188.594V14.5414H188.67C188.802 14.1824 189.041 13.8911 189.388 13.6676C189.734 13.444 190.125 13.3322 190.559 13.3322C190.641 13.3322 190.743 13.3337 190.866 13.3369C190.989 13.34 191.082 13.3448 191.145 13.3511V14.4848C191.107 14.4753 191.02 14.4611 190.885 14.4422C190.753 14.4202 190.613 14.4092 190.465 14.4092C190.112 14.4092 189.797 14.4832 189.52 14.6312C189.246 14.7761 189.029 14.9776 188.868 15.2358C188.711 15.4909 188.632 15.7822 188.632 16.1097V20.7012H187.517ZM193.581 16.3365V20.7012H192.466V13.4455H193.543V14.5792H193.638C193.808 14.2108 194.066 13.9148 194.412 13.6912C194.759 13.4644 195.206 13.3511 195.754 13.3511C196.245 13.3511 196.675 13.4518 197.044 13.6534C197.412 13.8518 197.699 14.1541 197.903 14.5603C198.108 14.9634 198.21 15.4736 198.21 16.0908V20.7012H197.096V16.1664C197.096 15.5964 196.948 15.1524 196.652 14.8343C196.355 14.5131 195.949 14.3525 195.433 14.3525C195.077 14.3525 194.759 14.4296 194.479 14.584C194.201 14.7383 193.983 14.9634 193.822 15.2594C193.661 15.5555 193.581 15.9145 193.581 16.3365Z" fill="white"/>
</g>
<g filter="url(#filter3_d_211_12473)">
<rect x="11.625" y="72.498" width="113.486" height="24.3137" rx="4" fill="#314562" shape-rendering="crispEdges"/>
<path d="M54.1254 89.6543H51.14V79.9801H54.2576C55.1961 79.9801 55.9991 80.1738 56.6667 80.5611C57.3343 80.9453 57.8461 81.498 58.2019 82.2192C58.5578 82.9372 58.7357 83.7969 58.7357 84.7983C58.7357 85.806 58.5562 86.6736 58.1972 87.4011C57.8382 88.1254 57.3154 88.6828 56.6289 89.0733C55.9424 89.4606 55.1079 89.6543 54.1254 89.6543ZM52.3114 88.6151H54.0498C54.8497 88.6151 55.5126 88.4608 56.0385 88.1522C56.5644 87.8435 56.9564 87.4042 57.2147 86.8342C57.4729 86.2642 57.602 85.5856 57.602 84.7983C57.602 84.0173 57.4745 83.345 57.2194 82.7813C56.9643 82.2144 56.5833 81.7799 56.0763 81.4775C55.5692 81.1721 54.9378 81.0193 54.182 81.0193H52.3114V88.6151ZM63.5917 89.8055C62.8926 89.8055 62.2895 89.6511 61.7825 89.3425C61.2786 89.0308 60.8897 88.5962 60.6157 88.0388C60.3449 87.4782 60.2095 86.8264 60.2095 86.0832C60.2095 85.34 60.3449 84.6849 60.6157 84.1181C60.8897 83.5481 61.2708 83.1041 61.7589 82.786C62.2502 82.4648 62.8233 82.3042 63.4783 82.3042C63.8562 82.3042 64.2294 82.3672 64.5978 82.4931C64.9663 82.6191 65.3017 82.8238 65.604 83.1072C65.9063 83.3875 66.1472 83.7591 66.3267 84.222C66.5062 84.6849 66.596 85.2549 66.596 85.932V86.4044H61.0031V85.4407H65.4623C65.4623 85.0314 65.3804 84.666 65.2166 84.3448C65.056 84.0236 64.8262 83.7701 64.527 83.5843C64.231 83.3985 63.8814 83.3056 63.4783 83.3056C63.0343 83.3056 62.6501 83.4158 62.3257 83.6363C62.0045 83.8536 61.7573 84.137 61.5841 84.4865C61.4109 84.8361 61.3243 85.2109 61.3243 85.6108V86.2532C61.3243 86.8012 61.4188 87.2657 61.6077 87.6467C61.7998 88.0246 62.0659 88.3128 62.406 88.5112C62.7461 88.7064 63.1414 88.804 63.5917 88.804C63.8846 88.804 64.1491 88.7631 64.3853 88.6812C64.6246 88.5962 64.8309 88.4702 65.0041 88.3033C65.1773 88.1333 65.3111 87.9223 65.4056 87.6703L66.4826 87.9727C66.3692 88.338 66.1787 88.6592 65.911 88.9363C65.6434 89.2103 65.3127 89.4244 64.9191 89.5787C64.5254 89.7299 64.083 89.8055 63.5917 89.8055ZM68.2918 89.6543V82.3987H69.3688V83.5324H69.4633C69.6144 83.145 69.8585 82.8443 70.1954 82.6301C70.5324 82.4128 70.9371 82.3042 71.4094 82.3042C71.8881 82.3042 72.2865 82.4128 72.6045 82.6301C72.9258 82.8443 73.1761 83.145 73.3556 83.5324H73.4312C73.617 83.1576 73.8957 82.86 74.2673 82.6396C74.6389 82.416 75.0845 82.3042 75.6041 82.3042C76.2528 82.3042 76.7835 82.5073 77.196 82.9135C77.6085 83.3166 77.8148 83.9449 77.8148 84.7983V89.6543H76.7V84.7983C76.7 84.263 76.5536 83.8803 76.2607 83.6504C75.9678 83.4206 75.623 83.3056 75.2262 83.3056C74.716 83.3056 74.3208 83.4599 74.0406 83.7685C73.7603 84.074 73.6201 84.4614 73.6201 84.9306V89.6543H72.4865V84.6849C72.4865 84.2724 72.3526 83.9402 72.0849 83.6882C71.8173 83.4332 71.4724 83.3056 71.0504 83.3056C70.7607 83.3056 70.4899 83.3828 70.238 83.5371C69.9892 83.6914 69.7876 83.9055 69.6333 84.1795C69.4822 84.4503 69.4066 84.7637 69.4066 85.1195V89.6543H68.2918ZM82.8007 89.8055C82.1457 89.8055 81.571 89.6496 81.0765 89.3378C80.5853 89.026 80.2011 88.5899 79.924 88.0293C79.65 87.4688 79.513 86.8138 79.513 86.0643C79.513 85.3085 79.65 84.6487 79.924 84.085C80.2011 83.5213 80.5853 83.0836 81.0765 82.7718C81.571 82.4601 82.1457 82.3042 82.8007 82.3042C83.4557 82.3042 84.0289 82.4601 84.5201 82.7718C85.0145 83.0836 85.3987 83.5213 85.6727 84.085C85.9498 84.6487 86.0884 85.3085 86.0884 86.0643C86.0884 86.8138 85.9498 87.4688 85.6727 88.0293C85.3987 88.5899 85.0145 89.026 84.5201 89.3378C84.0289 89.6496 83.4557 89.8055 82.8007 89.8055ZM82.8007 88.804C83.2983 88.804 83.7076 88.6765 84.0289 88.4214C84.3501 88.1663 84.5878 87.8309 84.7421 87.4153C84.8965 86.9996 84.9736 86.5492 84.9736 86.0643C84.9736 85.5793 84.8965 85.1274 84.7421 84.7086C84.5878 84.2897 84.3501 83.9512 84.0289 83.693C83.7076 83.4347 83.2983 83.3056 82.8007 83.3056C82.3031 83.3056 81.8937 83.4347 81.5725 83.693C81.2513 83.9512 81.0136 84.2897 80.8592 84.7086C80.7049 85.1274 80.6278 85.5793 80.6278 86.0643C80.6278 86.5492 80.7049 86.9996 80.8592 87.4153C81.0136 87.8309 81.2513 88.1663 81.5725 88.4214C81.8937 88.6765 82.3031 88.804 82.8007 88.804Z" fill="white"/>
</g>
<g filter="url(#filter4_d_211_12473)">
<rect x="12" y="277.771" width="113" height="24.3137" rx="4" fill="#314562" shape-rendering="crispEdges"/>
<path d="M38.2097 291.905H39.4946L40.5716 293.322L40.855 293.7L42.4611 295.835H41.1762L40.1181 294.418L39.8536 294.059L38.2097 291.905ZM42.8579 290.091C42.8579 291.111 42.6737 291.993 42.3052 292.736C41.9368 293.479 41.4313 294.052 40.7889 294.455C40.1465 294.858 39.4127 295.06 38.5876 295.06C37.7626 295.06 37.0288 294.858 36.3864 294.455C35.744 294.052 35.2385 293.479 34.8701 292.736C34.5016 291.993 34.3174 291.111 34.3174 290.091C34.3174 289.07 34.5016 288.189 34.8701 287.445C35.2385 286.702 35.744 286.129 36.3864 285.726C37.0288 285.323 37.7626 285.121 38.5876 285.121C39.4127 285.121 40.1465 285.323 40.7889 285.726C41.4313 286.129 41.9368 286.702 42.3052 287.445C42.6737 288.189 42.8579 289.07 42.8579 290.091ZM41.7242 290.091C41.7242 289.253 41.5841 288.546 41.3038 287.97C41.0267 287.393 40.6503 286.957 40.1748 286.661C39.7024 286.365 39.1734 286.217 38.5876 286.217C38.0019 286.217 37.4713 286.365 36.9957 286.661C36.5234 286.957 36.1471 287.393 35.8668 287.97C35.5897 288.546 35.4511 289.253 35.4511 290.091C35.4511 290.928 35.5897 291.635 35.8668 292.212C36.1471 292.788 36.5234 293.224 36.9957 293.52C37.4713 293.816 38.0019 293.964 38.5876 293.964C39.1734 293.964 39.7024 293.816 40.1748 293.52C40.6503 293.224 41.0267 292.788 41.3038 292.212C41.5841 291.635 41.7242 290.928 41.7242 290.091ZM49.2491 291.961V287.672H50.3639V294.928H49.2491V293.7H49.1735C49.0034 294.068 48.7389 294.381 48.3799 294.64C48.0209 294.895 47.5674 295.022 47.0195 295.022C46.566 295.022 46.1629 294.923 45.8102 294.725C45.4575 294.523 45.1804 294.221 44.9788 293.818C44.7773 293.411 44.6765 292.9 44.6765 292.282V287.672H45.7913V292.207C45.7913 292.736 45.9393 293.158 46.2353 293.473C46.5345 293.788 46.9156 293.945 47.3785 293.945C47.6556 293.945 47.9375 293.874 48.224 293.733C48.5137 293.591 48.7562 293.374 48.9515 293.081C49.1499 292.788 49.2491 292.415 49.2491 291.961ZM55.4478 295.079C54.7487 295.079 54.1456 294.925 53.6386 294.616C53.1347 294.304 52.7458 293.87 52.4718 293.312C52.201 292.752 52.0656 292.1 52.0656 291.357C52.0656 290.613 52.201 289.958 52.4718 289.392C52.7458 288.822 53.1269 288.378 53.615 288.059C54.1062 287.738 54.6794 287.578 55.3344 287.578C55.7123 287.578 56.0855 287.641 56.4539 287.767C56.8224 287.893 57.1578 288.097 57.4601 288.381C57.7624 288.661 58.0033 289.033 58.1828 289.495C58.3623 289.958 58.4521 290.528 58.4521 291.205V291.678H52.8592V290.714H57.3184C57.3184 290.305 57.2365 289.939 57.0727 289.618C56.9121 289.297 56.6822 289.044 56.3831 288.858C56.087 288.672 55.7375 288.579 55.3344 288.579C54.8904 288.579 54.5062 288.689 54.1818 288.91C53.8606 289.127 53.6134 289.41 53.4402 289.76C53.267 290.11 53.1804 290.484 53.1804 290.884V291.527C53.1804 292.075 53.2749 292.539 53.4638 292.92C53.6559 293.298 53.922 293.586 54.2621 293.785C54.6022 293.98 54.9974 294.077 55.4478 294.077C55.7406 294.077 56.0052 294.037 56.2414 293.955C56.4807 293.87 56.687 293.744 56.8602 293.577C57.0334 293.407 57.1672 293.196 57.2617 292.944L58.3387 293.246C58.2253 293.611 58.0348 293.933 57.7671 294.21C57.4994 294.484 57.1688 294.698 56.7751 294.852C56.3815 295.003 55.939 295.079 55.4478 295.079ZM65.2873 289.297L64.2859 289.58C64.2229 289.414 64.13 289.251 64.0072 289.094C63.8875 288.933 63.7237 288.801 63.5159 288.697C63.308 288.593 63.0419 288.541 62.7176 288.541C62.2735 288.541 61.9035 288.644 61.6075 288.848C61.3146 289.05 61.1682 289.307 61.1682 289.618C61.1682 289.895 61.269 290.114 61.4705 290.275C61.6721 290.435 61.987 290.569 62.4153 290.676L63.4923 290.941C64.141 291.098 64.6244 291.339 64.9424 291.664C65.2605 291.985 65.4195 292.399 65.4195 292.906C65.4195 293.322 65.2999 293.693 65.0605 294.021C64.8244 294.348 64.4937 294.607 64.0686 294.795C63.6434 294.984 63.149 295.079 62.5853 295.079C61.8453 295.079 61.2328 294.918 60.7478 294.597C60.2628 294.276 59.9558 293.807 59.8267 293.189L60.8848 292.925C60.9855 293.315 61.1761 293.608 61.4563 293.803C61.7398 293.999 62.1098 294.096 62.5664 294.096C63.086 294.096 63.4986 293.986 63.804 293.766C64.1126 293.542 64.267 293.274 64.267 292.963C64.267 292.711 64.1788 292.5 64.0024 292.33C63.8261 292.156 63.5552 292.027 63.1899 291.942L61.9807 291.659C61.3162 291.501 60.8281 291.257 60.5163 290.927C60.2077 290.593 60.0534 290.176 60.0534 289.675C60.0534 289.266 60.1683 288.903 60.3982 288.589C60.6313 288.274 60.9478 288.026 61.3477 287.847C61.7508 287.667 62.2074 287.578 62.7176 287.578C63.4356 287.578 63.9993 287.735 64.4087 288.05C64.8212 288.365 65.1141 288.781 65.2873 289.297ZM70.2531 287.672V288.617H66.493V287.672H70.2531ZM67.5889 285.934H68.7037V292.849C68.7037 293.164 68.7494 293.4 68.8407 293.558C68.9352 293.712 69.0548 293.816 69.1997 293.87C69.3477 293.92 69.5036 293.945 69.6674 293.945C69.7902 293.945 69.8909 293.939 69.9697 293.926C70.0484 293.911 70.1114 293.898 70.1586 293.889L70.3854 294.89C70.3098 294.918 70.2043 294.947 70.0689 294.975C69.9335 295.006 69.7618 295.022 69.554 295.022C69.2391 295.022 68.9305 294.955 68.6281 294.819C68.329 294.684 68.0802 294.477 67.8818 294.2C67.6865 293.923 67.5889 293.574 67.5889 293.152V285.934ZM71.93 294.928V287.672H73.0448V294.928H71.93ZM72.4969 286.463C72.2796 286.463 72.0922 286.389 71.9347 286.241C71.7804 286.093 71.7033 285.915 71.7033 285.707C71.7033 285.499 71.7804 285.321 71.9347 285.173C72.0922 285.025 72.2796 284.951 72.4969 284.951C72.7141 284.951 72.8999 285.025 73.0543 285.173C73.2117 285.321 73.2904 285.499 73.2904 285.707C73.2904 285.915 73.2117 286.093 73.0543 286.241C72.8999 286.389 72.7141 286.463 72.4969 286.463ZM78.0342 295.079C77.3792 295.079 76.8045 294.923 76.3101 294.611C75.8188 294.299 75.4346 293.863 75.1575 293.303C74.8835 292.742 74.7465 292.087 74.7465 291.338C74.7465 290.582 74.8835 289.922 75.1575 289.358C75.4346 288.795 75.8188 288.357 76.3101 288.045C76.8045 287.734 77.3792 287.578 78.0342 287.578C78.6893 287.578 79.2624 287.734 79.7537 288.045C80.2481 288.357 80.6323 288.795 80.9063 289.358C81.1834 289.922 81.3219 290.582 81.3219 291.338C81.3219 292.087 81.1834 292.742 80.9063 293.303C80.6323 293.863 80.2481 294.299 79.7537 294.611C79.2624 294.923 78.6893 295.079 78.0342 295.079ZM78.0342 294.077C78.5318 294.077 78.9412 293.95 79.2624 293.695C79.5836 293.44 79.8214 293.104 79.9757 292.689C80.13 292.273 80.2071 291.823 80.2071 291.338C80.2071 290.853 80.13 290.401 79.9757 289.982C79.8214 289.563 79.5836 289.225 79.2624 288.966C78.9412 288.708 78.5318 288.579 78.0342 288.579C77.5367 288.579 77.1273 288.708 76.8061 288.966C76.4849 289.225 76.2471 289.563 76.0928 289.982C75.9385 290.401 75.8613 290.853 75.8613 291.338C75.8613 291.823 75.9385 292.273 76.0928 292.689C76.2471 293.104 76.4849 293.44 76.8061 293.695C77.1273 293.95 77.5367 294.077 78.0342 294.077ZM84.1385 290.563V294.928H83.0237V287.672H84.1007V288.806H84.1951C84.3652 288.437 84.6234 288.141 84.9698 287.918C85.3162 287.691 85.7634 287.578 86.3114 287.578C86.8026 287.578 87.2325 287.678 87.6009 287.88C87.9694 288.078 88.256 288.381 88.4607 288.787C88.6654 289.19 88.7677 289.7 88.7677 290.317V294.928H87.6529V290.393C87.6529 289.823 87.5049 289.379 87.2089 289.061C86.9129 288.74 86.5066 288.579 85.9902 288.579C85.6343 288.579 85.3162 288.656 85.036 288.811C84.7588 288.965 84.54 289.19 84.3794 289.486C84.2188 289.782 84.1385 290.141 84.1385 290.563ZM95.9442 289.297L94.9428 289.58C94.8798 289.414 94.7869 289.251 94.6641 289.094C94.5444 288.933 94.3807 288.801 94.1728 288.697C93.965 288.593 93.6989 288.541 93.3745 288.541C92.9305 288.541 92.5605 288.644 92.2644 288.848C91.9716 289.05 91.8251 289.307 91.8251 289.618C91.8251 289.895 91.9259 290.114 92.1275 290.275C92.329 290.435 92.6439 290.569 93.0722 290.676L94.1492 290.941C94.7979 291.098 95.2813 291.339 95.5994 291.664C95.9175 291.985 96.0765 292.399 96.0765 292.906C96.0765 293.322 95.9568 293.693 95.7175 294.021C95.4813 294.348 95.1506 294.607 94.7255 294.795C94.3004 294.984 93.8059 295.079 93.2423 295.079C92.5022 295.079 91.8897 294.918 91.4047 294.597C90.9198 294.276 90.6127 293.807 90.4836 293.189L91.5417 292.925C91.6425 293.315 91.833 293.608 92.1133 293.803C92.3967 293.999 92.7667 294.096 93.2234 294.096C93.743 294.096 94.1555 293.986 94.461 293.766C94.7696 293.542 94.9239 293.274 94.9239 292.963C94.9239 292.711 94.8357 292.5 94.6594 292.33C94.483 292.156 94.2122 292.027 93.8469 291.942L92.6376 291.659C91.9731 291.501 91.485 291.257 91.1733 290.927C90.8646 290.593 90.7103 290.176 90.7103 289.675C90.7103 289.266 90.8253 288.903 91.0552 288.589C91.2882 288.274 91.6047 288.026 92.0046 287.847C92.4077 287.667 92.8644 287.578 93.3745 287.578C94.0925 287.578 94.6562 287.735 95.0656 288.05C95.4781 288.365 95.771 288.781 95.9442 289.297ZM99.2095 292.207V292.15C99.2158 291.549 99.2788 291.07 99.3984 290.714C99.5181 290.358 99.6882 290.07 99.9086 289.85C100.129 289.629 100.394 289.426 100.702 289.24C100.888 289.127 101.055 288.993 101.203 288.839C101.351 288.681 101.467 288.5 101.552 288.296C101.641 288.091 101.685 287.864 101.685 287.615C101.685 287.307 101.612 287.039 101.467 286.812C101.323 286.586 101.129 286.411 100.886 286.288C100.644 286.165 100.375 286.104 100.079 286.104C99.8204 286.104 99.5716 286.157 99.3323 286.264C99.093 286.372 98.893 286.54 98.7324 286.77C98.5718 287 98.4789 287.301 98.4537 287.672H97.2633C97.2885 287.137 97.4271 286.679 97.679 286.297C97.9341 285.916 98.2695 285.625 98.6852 285.424C99.104 285.222 99.5685 285.121 100.079 285.121C100.633 285.121 101.115 285.232 101.524 285.452C101.937 285.672 102.255 285.975 102.478 286.359C102.705 286.743 102.818 287.181 102.818 287.672C102.818 288.019 102.765 288.332 102.658 288.612C102.554 288.892 102.403 289.143 102.204 289.363C102.009 289.584 101.773 289.779 101.496 289.949C101.219 290.122 100.997 290.305 100.83 290.497C100.663 290.686 100.542 290.911 100.466 291.172C100.39 291.434 100.349 291.76 100.343 292.15V292.207H99.2095ZM99.8141 295.003C99.5811 295.003 99.3811 294.92 99.2142 294.753C99.0473 294.586 98.9639 294.386 98.9639 294.153C98.9639 293.92 99.0473 293.72 99.2142 293.553C99.3811 293.386 99.5811 293.303 99.8141 293.303C100.047 293.303 100.247 293.386 100.414 293.553C100.581 293.72 100.664 293.92 100.664 294.153C100.664 294.307 100.625 294.449 100.546 294.578C100.471 294.707 100.368 294.811 100.239 294.89C100.113 294.966 99.9716 295.003 99.8141 295.003Z" fill="white"/>
</g>
<g filter="url(#filter5_d_211_12473)">
<rect x="238.891" y="72.498" width="108.486" height="24.3137" rx="4" fill="#314562" shape-rendering="crispEdges"/>
<path d="M278.484 89.6543V79.9801H284.285V81.0193H279.656V84.2882H283.85V85.3274H279.656V89.6543H278.484ZM286.062 89.6543V82.3987H287.139V83.4946H287.215C287.347 83.1356 287.586 82.8443 287.933 82.6207C288.279 82.3971 288.67 82.2853 289.104 82.2853C289.186 82.2853 289.288 82.2869 289.411 82.29C289.534 82.2932 289.627 82.2979 289.69 82.3042V83.4379C289.652 83.4284 289.566 83.4143 289.43 83.3954C289.298 83.3733 289.158 83.3623 289.01 83.3623C288.657 83.3623 288.342 83.4363 288.065 83.5843C287.791 83.7292 287.574 83.9307 287.413 84.189C287.256 84.444 287.177 84.7353 287.177 85.0628V89.6543H286.062ZM293.833 89.8055C293.134 89.8055 292.531 89.6511 292.024 89.3425C291.52 89.0308 291.131 88.5962 290.857 88.0388C290.586 87.4782 290.451 86.8264 290.451 86.0832C290.451 85.34 290.586 84.6849 290.857 84.1181C291.131 83.5481 291.512 83.1041 292 82.786C292.491 82.4648 293.064 82.3042 293.719 82.3042C294.097 82.3042 294.47 82.3672 294.839 82.4931C295.207 82.6191 295.543 82.8238 295.845 83.1072C296.147 83.3875 296.388 83.7591 296.568 84.222C296.747 84.6849 296.837 85.2549 296.837 85.932V86.4044H291.244V85.4407H295.703C295.703 85.0314 295.621 84.666 295.458 84.3448C295.297 84.0236 295.067 83.7701 294.768 83.5843C294.472 83.3985 294.122 83.3056 293.719 83.3056C293.275 83.3056 292.891 83.4158 292.567 83.6363C292.246 83.8536 291.998 84.137 291.825 84.4865C291.652 84.8361 291.565 85.2109 291.565 85.6108V86.2532C291.565 86.8012 291.66 87.2657 291.849 87.6467C292.041 88.0246 292.307 88.3128 292.647 88.5112C292.987 88.7064 293.382 88.804 293.833 88.804C294.126 88.804 294.39 88.7631 294.626 88.6812C294.866 88.5962 295.072 88.4702 295.245 88.3033C295.418 88.1333 295.552 87.9223 295.647 87.6703L296.724 87.9727C296.61 88.338 296.42 88.6592 296.152 88.9363C295.884 89.2103 295.554 89.4244 295.16 89.5787C294.766 89.7299 294.324 89.8055 293.833 89.8055ZM301.575 89.8055C300.876 89.8055 300.273 89.6511 299.766 89.3425C299.262 89.0308 298.873 88.5962 298.599 88.0388C298.328 87.4782 298.193 86.8264 298.193 86.0832C298.193 85.34 298.328 84.6849 298.599 84.1181C298.873 83.5481 299.254 83.1041 299.742 82.786C300.233 82.4648 300.806 82.3042 301.462 82.3042C301.839 82.3042 302.213 82.3672 302.581 82.4931C302.949 82.6191 303.285 82.8238 303.587 83.1072C303.889 83.3875 304.13 83.7591 304.31 84.222C304.489 84.6849 304.579 85.2549 304.579 85.932V86.4044H298.986V85.4407H303.445C303.445 85.0314 303.364 84.666 303.2 84.3448C303.039 84.0236 302.809 83.7701 302.51 83.5843C302.214 83.3985 301.865 83.3056 301.462 83.3056C301.017 83.3056 300.633 83.4158 300.309 83.6363C299.988 83.8536 299.74 84.137 299.567 84.4865C299.394 84.8361 299.307 85.2109 299.307 85.6108V86.2532C299.307 86.8012 299.402 87.2657 299.591 87.6467C299.783 88.0246 300.049 88.3128 300.389 88.5112C300.729 88.7064 301.125 88.804 301.575 88.804C301.868 88.804 302.132 88.7631 302.368 88.6812C302.608 88.5962 302.814 88.4702 302.987 88.3033C303.16 88.1333 303.294 87.9223 303.389 87.6703L304.466 87.9727C304.352 88.338 304.162 88.6592 303.894 88.9363C303.627 89.2103 303.296 89.4244 302.902 89.5787C302.509 89.7299 302.066 89.8055 301.575 89.8055ZM307.749 79.9801L307.654 86.9334H306.558L306.464 79.9801H307.749ZM307.106 89.7299C306.873 89.7299 306.673 89.6464 306.506 89.4795C306.34 89.3126 306.256 89.1126 306.256 88.8796C306.256 88.6466 306.34 88.4466 306.506 88.2797C306.673 88.1128 306.873 88.0293 307.106 88.0293C307.339 88.0293 307.539 88.1128 307.706 88.2797C307.873 88.4466 307.957 88.6466 307.957 88.8796C307.957 89.0339 307.917 89.1756 307.839 89.3047C307.763 89.4339 307.661 89.5378 307.531 89.6165C307.406 89.6921 307.264 89.7299 307.106 89.7299Z" fill="white"/>
</g>
<g filter="url(#filter6_d_211_12473)">
<rect x="239" y="277.771" width="108" height="24.3137" rx="4" fill="#314562" shape-rendering="crispEdges"/>
<path d="M264.365 294.928V285.254H267.748C268.422 285.254 268.977 285.37 269.415 285.603C269.853 285.833 270.179 286.143 270.393 286.534C270.607 286.921 270.714 287.351 270.714 287.823C270.714 288.239 270.64 288.582 270.492 288.853C270.347 289.124 270.155 289.338 269.916 289.495C269.68 289.653 269.423 289.769 269.146 289.845V289.939C269.442 289.958 269.739 290.062 270.039 290.251C270.338 290.44 270.588 290.711 270.79 291.064C270.991 291.416 271.092 291.848 271.092 292.358C271.092 292.843 270.982 293.279 270.761 293.667C270.541 294.054 270.193 294.361 269.717 294.588C269.242 294.814 268.623 294.928 267.861 294.928H264.365ZM265.537 293.889H267.861C268.626 293.889 269.169 293.741 269.491 293.444C269.815 293.145 269.977 292.783 269.977 292.358C269.977 292.031 269.894 291.728 269.727 291.451C269.56 291.171 269.322 290.947 269.014 290.78C268.705 290.61 268.34 290.525 267.918 290.525H265.537V293.889ZM265.537 289.505H267.71C268.063 289.505 268.381 289.436 268.664 289.297C268.951 289.158 269.177 288.963 269.344 288.711C269.514 288.459 269.599 288.163 269.599 287.823C269.599 287.398 269.451 287.038 269.155 286.742C268.859 286.442 268.39 286.293 267.748 286.293H265.537V289.505ZM275.908 295.079C275.209 295.079 274.606 294.925 274.099 294.616C273.595 294.304 273.206 293.87 272.932 293.312C272.661 292.752 272.526 292.1 272.526 291.357C272.526 290.613 272.661 289.958 272.932 289.392C273.206 288.822 273.587 288.378 274.075 288.059C274.566 287.738 275.139 287.578 275.794 287.578C276.172 287.578 276.546 287.641 276.914 287.767C277.282 287.893 277.618 288.097 277.92 288.381C278.222 288.661 278.463 289.033 278.643 289.495C278.822 289.958 278.912 290.528 278.912 291.205V291.678H273.319V290.714H277.778C277.778 290.305 277.697 289.939 277.533 289.618C277.372 289.297 277.142 289.044 276.843 288.858C276.547 288.672 276.198 288.579 275.794 288.579C275.35 288.579 274.966 288.689 274.642 288.91C274.321 289.127 274.073 289.41 273.9 289.76C273.727 290.11 273.64 290.484 273.64 290.884V291.527C273.64 292.075 273.735 292.539 273.924 292.92C274.116 293.298 274.382 293.586 274.722 293.785C275.062 293.98 275.457 294.077 275.908 294.077C276.201 294.077 276.465 294.037 276.701 293.955C276.941 293.87 277.147 293.744 277.32 293.577C277.493 293.407 277.627 293.196 277.722 292.944L278.799 293.246C278.685 293.611 278.495 293.933 278.227 294.21C277.959 294.484 277.629 294.698 277.235 294.852C276.842 295.003 276.399 295.079 275.908 295.079ZM283.537 297.8C282.998 297.8 282.535 297.73 282.148 297.592C281.761 297.456 281.438 297.277 281.179 297.053C280.924 296.833 280.721 296.597 280.57 296.345L281.458 295.721C281.559 295.854 281.686 296.005 281.841 296.175C281.995 296.348 282.206 296.498 282.474 296.624C282.745 296.753 283.099 296.817 283.537 296.817C284.122 296.817 284.606 296.676 284.987 296.392C285.368 296.109 285.558 295.665 285.558 295.06V293.586H285.464C285.382 293.718 285.266 293.882 285.114 294.077C284.966 294.27 284.752 294.441 284.472 294.592C284.195 294.74 283.82 294.814 283.348 294.814C282.762 294.814 282.236 294.676 281.77 294.399C281.307 294.122 280.94 293.718 280.669 293.189C280.402 292.66 280.268 292.018 280.268 291.262C280.268 290.519 280.398 289.872 280.66 289.321C280.921 288.766 281.285 288.338 281.751 288.036C282.217 287.73 282.756 287.578 283.367 287.578C283.839 287.578 284.214 287.656 284.491 287.814C284.771 287.968 284.985 288.144 285.133 288.343C285.284 288.538 285.401 288.699 285.483 288.825H285.596V287.672H286.673V295.136C286.673 295.759 286.531 296.266 286.248 296.657C285.968 297.05 285.59 297.338 285.114 297.521C284.642 297.707 284.116 297.8 283.537 297.8ZM283.499 293.813C283.946 293.813 284.324 293.711 284.633 293.506C284.941 293.301 285.176 293.007 285.336 292.623C285.497 292.238 285.577 291.779 285.577 291.243C285.577 290.72 285.499 290.259 285.341 289.859C285.184 289.459 284.951 289.146 284.642 288.919C284.333 288.692 283.952 288.579 283.499 288.579C283.026 288.579 282.633 288.699 282.318 288.938C282.006 289.177 281.772 289.499 281.614 289.902C281.46 290.305 281.383 290.752 281.383 291.243C281.383 291.747 281.461 292.193 281.619 292.58C281.779 292.964 282.016 293.267 282.327 293.487C282.642 293.704 283.033 293.813 283.499 293.813ZM288.714 294.928V287.672H289.829V294.928H288.714ZM289.281 286.463C289.063 286.463 288.876 286.389 288.719 286.241C288.564 286.093 288.487 285.915 288.487 285.707C288.487 285.499 288.564 285.321 288.719 285.173C288.876 285.025 289.063 284.951 289.281 284.951C289.498 284.951 289.684 285.025 289.838 285.173C289.996 285.321 290.074 285.499 290.074 285.707C290.074 285.915 289.996 286.093 289.838 286.241C289.684 286.389 289.498 286.463 289.281 286.463ZM292.985 290.563V294.928H291.87V287.672H292.947V288.806H293.042C293.212 288.437 293.47 288.141 293.817 287.918C294.163 287.691 294.61 287.578 295.158 287.578C295.649 287.578 296.079 287.678 296.448 287.88C296.816 288.078 297.103 288.381 297.307 288.787C297.512 289.19 297.614 289.7 297.614 290.317V294.928H296.5V290.393C296.5 289.823 296.352 289.379 296.056 289.061C295.76 288.74 295.353 288.579 294.837 288.579C294.481 288.579 294.163 288.656 293.883 288.811C293.606 288.965 293.387 289.19 293.226 289.486C293.066 289.782 292.985 290.141 292.985 290.563ZM300.766 290.563V294.928H299.652V287.672H300.729V288.806H300.823C300.993 288.437 301.251 288.141 301.598 287.918C301.944 287.691 302.391 287.578 302.939 287.578C303.431 287.578 303.86 287.678 304.229 287.88C304.597 288.078 304.884 288.381 305.089 288.787C305.293 289.19 305.396 289.7 305.396 290.317V294.928H304.281V290.393C304.281 289.823 304.133 289.379 303.837 289.061C303.541 288.74 303.135 288.579 302.618 288.579C302.262 288.579 301.944 288.656 301.664 288.811C301.387 288.965 301.168 289.19 301.007 289.486C300.847 289.782 300.766 290.141 300.766 290.563ZM310.475 295.079C309.776 295.079 309.173 294.925 308.666 294.616C308.162 294.304 307.773 293.87 307.499 293.312C307.228 292.752 307.093 292.1 307.093 291.357C307.093 290.613 307.228 289.958 307.499 289.392C307.773 288.822 308.154 288.378 308.642 288.059C309.133 287.738 309.706 287.578 310.361 287.578C310.739 287.578 311.113 287.641 311.481 287.767C311.849 287.893 312.185 288.097 312.487 288.381C312.789 288.661 313.03 289.033 313.21 289.495C313.389 289.958 313.479 290.528 313.479 291.205V291.678H307.886V290.714H312.345C312.345 290.305 312.264 289.939 312.1 289.618C311.939 289.297 311.709 289.044 311.41 288.858C311.114 288.672 310.765 288.579 310.361 288.579C309.917 288.579 309.533 288.689 309.209 288.91C308.888 289.127 308.64 289.41 308.467 289.76C308.294 290.11 308.207 290.484 308.207 290.884V291.527C308.207 292.075 308.302 292.539 308.491 292.92C308.683 293.298 308.949 293.586 309.289 293.785C309.629 293.98 310.024 294.077 310.475 294.077C310.768 294.077 311.032 294.037 311.268 293.955C311.508 293.87 311.714 293.744 311.887 293.577C312.06 293.407 312.194 293.196 312.289 292.944L313.366 293.246C313.252 293.611 313.062 293.933 312.794 294.21C312.526 294.484 312.196 294.698 311.802 294.852C311.409 295.003 310.966 295.079 310.475 295.079ZM315.175 294.928V287.672H316.252V288.768H316.327C316.46 288.409 316.699 288.118 317.046 287.894C317.392 287.671 317.782 287.559 318.217 287.559C318.299 287.559 318.401 287.56 318.524 287.563C318.647 287.567 318.74 287.571 318.803 287.578V288.711C318.765 288.702 318.678 288.688 318.543 288.669C318.411 288.647 318.271 288.636 318.123 288.636C317.77 288.636 317.455 288.71 317.178 288.858C316.904 289.003 316.687 289.204 316.526 289.462C316.368 289.717 316.29 290.009 316.29 290.336V294.928H315.175ZM321.598 285.254L321.504 292.207H320.408L320.313 285.254H321.598ZM320.956 295.003C320.723 295.003 320.523 294.92 320.356 294.753C320.189 294.586 320.105 294.386 320.105 294.153C320.105 293.92 320.189 293.72 320.356 293.553C320.523 293.386 320.723 293.303 320.956 293.303C321.189 293.303 321.389 293.386 321.555 293.553C321.722 293.72 321.806 293.92 321.806 294.153C321.806 294.307 321.766 294.449 321.688 294.578C321.612 294.707 321.51 294.811 321.381 294.89C321.255 294.966 321.113 295.003 320.956 295.003Z" fill="white"/>
</g>
<defs>
<filter id="filter0_d_211_12473" x="138.152" y="55.9219" width="79.6992" height="81.4648" filterUnits="userSpaceOnUse" color-interpolation-filters="sRGB">
<feFlood flood-opacity="0" result="BackgroundImageFix"/>
<feColorMatrix in="SourceAlpha" type="matrix" values="0 0 0 0 0 0 0 0 0 0 0 0 0 0 0 0 0 0 127 0" result="hardAlpha"/>
<feOffset dy="13"/>
<feGaussianBlur stdDeviation="5.5"/>
<feComposite in2="hardAlpha" operator="out"/>
<feColorMatrix type="matrix" values="0 0 0 0 0.242222 0 0 0 0 0.36515 0 0 0 0 0.454167 0 0 0 0.25 0"/>
<feBlend mode="normal" in2="BackgroundImageFix" result="effect1_dropShadow_211_12473"/>
<feBlend mode="normal" in="SourceGraphic" in2="effect1_dropShadow_211_12473" result="shape"/>
</filter>
<filter id="filter1_d_211_12473" x="138.152" y="195.877" width="79.6992" height="81.4648" filterUnits="userSpaceOnUse" color-interpolation-filters="sRGB">
<feFlood flood-opacity="0" result="BackgroundImageFix"/>
<feColorMatrix in="SourceAlpha" type="matrix" values="0 0 0 0 0 0 0 0 0 0 0 0 0 0 0 0 0 0 127 0" result="hardAlpha"/>
<feOffset dy="13"/>
<feGaussianBlur stdDeviation="5.5"/>
<feComposite in2="hardAlpha" operator="out"/>
<feColorMatrix type="matrix" values="0 0 0 0 0.242222 0 0 0 0 0.36515 0 0 0 0 0.454167 0 0 0 0.25 0"/>
<feBlend mode="normal" in2="BackgroundImageFix" result="effect1_dropShadow_211_12473"/>
<feBlend mode="normal" in="SourceGraphic" in2="effect1_dropShadow_211_12473" result="shape"/>
</filter>
<filter id="filter2_d_211_12473" x="114.258" y="0.544922" width="134.486" height="46.3145" filterUnits="userSpaceOnUse" color-interpolation-filters="sRGB">
<feFlood flood-opacity="0" result="BackgroundImageFix"/>
<feColorMatrix in="SourceAlpha" type="matrix" values="0 0 0 0 0 0 0 0 0 0 0 0 0 0 0 0 0 0 127 0" result="hardAlpha"/>
<feOffset dy="8"/>
<feGaussianBlur stdDeviation="5.5"/>
<feComposite in2="hardAlpha" operator="out"/>
<feColorMatrix type="matrix" values="0 0 0 0 0.192157 0 0 0 0 0.270588 0 0 0 0 0.384314 0 0 0 0.22 0"/>
<feBlend mode="normal" in2="BackgroundImageFix" result="effect1_dropShadow_211_12473"/>
<feBlend mode="normal" in="SourceGraphic" in2="effect1_dropShadow_211_12473" result="shape"/>
</filter>
<filter id="filter3_d_211_12473" x="0.625" y="69.498" width="135.486" height="46.3145" filterUnits="userSpaceOnUse" color-interpolation-filters="sRGB">
<feFlood flood-opacity="0" result="BackgroundImageFix"/>
<feColorMatrix in="SourceAlpha" type="matrix" values="0 0 0 0 0 0 0 0 0 0 0 0 0 0 0 0 0 0 127 0" result="hardAlpha"/>
<feOffset dy="8"/>
<feGaussianBlur stdDeviation="5.5"/>
<feComposite in2="hardAlpha" operator="out"/>
<feColorMatrix type="matrix" values="0 0 0 0 0.192157 0 0 0 0 0.270588 0 0 0 0 0.384314 0 0 0 0.22 0"/>
<feBlend mode="normal" in2="BackgroundImageFix" result="effect1_dropShadow_211_12473"/>
<feBlend mode="normal" in="SourceGraphic" in2="effect1_dropShadow_211_12473" result="shape"/>
</filter>
<filter id="filter4_d_211_12473" x="1" y="274.771" width="135" height="46.3145" filterUnits="userSpaceOnUse" color-interpolation-filters="sRGB">
<feFlood flood-opacity="0" result="BackgroundImageFix"/>
<feColorMatrix in="SourceAlpha" type="matrix" values="0 0 0 0 0 0 0 0 0 0 0 0 0 0 0 0 0 0 127 0" result="hardAlpha"/>
<feOffset dy="8"/>
<feGaussianBlur stdDeviation="5.5"/>
<feComposite in2="hardAlpha" operator="out"/>
<feColorMatrix type="matrix" values="0 0 0 0 0.192157 0 0 0 0 0.270588 0 0 0 0 0.384314 0 0 0 0.22 0"/>
<feBlend mode="normal" in2="BackgroundImageFix" result="effect1_dropShadow_211_12473"/>
<feBlend mode="normal" in="SourceGraphic" in2="effect1_dropShadow_211_12473" result="shape"/>
</filter>
<filter id="filter5_d_211_12473" x="227.891" y="69.498" width="130.486" height="46.3145" filterUnits="userSpaceOnUse" color-interpolation-filters="sRGB">
<feFlood flood-opacity="0" result="BackgroundImageFix"/>
<feColorMatrix in="SourceAlpha" type="matrix" values="0 0 0 0 0 0 0 0 0 0 0 0 0 0 0 0 0 0 127 0" result="hardAlpha"/>
<feOffset dy="8"/>
<feGaussianBlur stdDeviation="5.5"/>
<feComposite in2="hardAlpha" operator="out"/>
<feColorMatrix type="matrix" values="0 0 0 0 0.192157 0 0 0 0 0.270588 0 0 0 0 0.384314 0 0 0 0.22 0"/>
<feBlend mode="normal" in2="BackgroundImageFix" result="effect1_dropShadow_211_12473"/>
<feBlend mode="normal" in="SourceGraphic" in2="effect1_dropShadow_211_12473" result="shape"/>
</filter>
<filter id="filter6_d_211_12473" x="228" y="274.771" width="130" height="46.3145" filterUnits="userSpaceOnUse" color-interpolation-filters="sRGB">
<feFlood flood-opacity="0" result="BackgroundImageFix"/>
<feColorMatrix in="SourceAlpha" type="matrix" values="0 0 0 0 0 0 0 0 0 0 0 0 0 0 0 0 0 0 127 0" result="hardAlpha"/>
<feOffset dy="8"/>
<feGaussianBlur stdDeviation="5.5"/>
<feComposite in2="hardAlpha" operator="out"/>
<feColorMatrix type="matrix" values="0 0 0 0 0.192157 0 0 0 0 0.270588 0 0 0 0 0.384314 0 0 0 0.22 0"/>
<feBlend mode="normal" in2="BackgroundImageFix" result="effect1_dropShadow_211_12473"/>
<feBlend mode="normal" in="SourceGraphic" in2="effect1_dropShadow_211_12473" result="shape"/>
</filter>
</defs>
</svg>
