<svg width="30" height="29" viewBox="0 0 30 29" fill="none" xmlns="http://www.w3.org/2000/svg">
<path d="M28.0187 16.8708C27.059 16.073 25.6947 15.9574 24.6195 16.5933L18.5379 20.2006C18.2489 20.3741 17.9136 20.4666 17.5783 20.4666H12.1558C11.9245 20.4666 11.7395 20.2816 11.7395 20.0503C11.7395 19.8191 11.9245 19.6341 12.1558 19.6341H16.3759C18.1333 19.6341 19.5669 18.2004 19.5669 16.443C19.5669 14.6856 18.1333 13.252 16.3759 13.252H10.5834C8.94158 13.252 7.3576 13.7838 6.06267 14.7203C5.64644 14.3272 5.07991 14.0844 4.45557 14.0844H2.96409C1.66916 14.0844 0.605469 15.1365 0.605469 16.443V25.1376C0.605469 26.4325 1.6576 27.4962 2.96409 27.4962H4.45557C4.97585 27.4962 5.44989 27.3227 5.84299 27.0337C7.18417 28.0858 8.83752 28.6755 10.5834 28.6755H17.1389C19.0582 28.6755 20.885 27.9586 22.2955 26.6637L28.2615 21.1603C28.8164 20.5706 29.1055 19.7728 29.0592 18.9635C29.013 18.1542 28.6314 17.3911 28.0071 16.8708H28.0187ZM2.9294 25.1376L2.97565 16.4083L4.51338 16.4546V25.1491C4.51338 25.1491 4.49026 25.1954 4.46713 25.1954L2.9294 25.1491V25.1376ZM26.6428 19.5069L20.7347 24.9526C19.7519 25.8544 18.4801 26.3516 17.1389 26.3516H10.5834C9.16125 26.3516 7.80851 25.7966 6.81419 24.8138V17.1136C7.80851 16.1309 9.16125 15.5759 10.5834 15.5759H16.3759C16.8615 15.5759 17.2546 15.969 17.2546 16.4546C17.2546 16.9402 16.8615 17.3333 16.3759 17.3333H12.1558C10.6527 17.3333 9.42718 18.5589 9.42718 20.0619C9.42718 21.5649 10.6527 22.7905 12.1558 22.7905H17.5783C18.3298 22.7905 19.0698 22.5939 19.7172 22.2008L25.7988 18.5935C26.03 18.4548 26.3306 18.4779 26.5272 18.6513C26.7122 18.8017 26.7469 18.9982 26.7584 19.1023C26.7584 19.2063 26.7584 19.4029 26.6428 19.5185V19.5069Z" fill="white" fill-opacity="0.95"/>
<path d="M22.1337 13.1846C25.6832 13.1846 28.5736 10.2941 28.5736 6.74465C28.5736 3.19515 25.6832 0.304688 22.1337 0.304688C18.5842 0.304688 15.6937 3.19515 15.6937 6.74465C15.6937 10.2941 18.5842 13.1846 22.1337 13.1846ZM22.1337 2.6055C24.4114 2.6055 26.2613 4.4554 26.2613 6.73309C26.2613 9.01077 24.4114 10.8607 22.1337 10.8607C19.856 10.8607 18.0061 9.01077 18.0061 6.73309C18.0061 4.4554 19.856 2.6055 22.1337 2.6055Z" fill="white" fill-opacity="0.95"/>
<path d="M19.8445 6.57067C19.9485 6.67473 20.0641 6.75566 20.2144 6.82503C20.3532 6.88284 20.5035 6.91753 20.6653 6.91753C20.8272 6.91753 20.9775 6.88284 21.1163 6.82503C21.255 6.76722 21.3822 6.68629 21.4862 6.57067C21.5903 6.46662 21.6712 6.33944 21.729 6.20069C21.7868 6.06195 21.8215 5.91165 21.8215 5.74978C21.8215 5.58791 21.7868 5.43761 21.729 5.29887C21.6712 5.16012 21.5903 5.03294 21.4862 4.92889C21.3822 4.82483 21.2666 4.7439 21.1163 4.67453C20.9775 4.61672 20.8272 4.58203 20.6653 4.58203C20.5035 4.58203 20.3532 4.61672 20.2144 4.67453C20.0757 4.73234 19.9485 4.81327 19.8445 4.92889C19.7404 5.03294 19.6595 5.16012 19.6017 5.29887C19.5438 5.43761 19.5092 5.58791 19.5092 5.74978C19.5092 5.91165 19.5438 6.06195 19.6017 6.20069C19.6595 6.33944 19.7404 6.46662 19.8445 6.57067ZM20.2607 5.35668C20.3647 5.25262 20.5035 5.19481 20.6538 5.19481C20.8041 5.19481 20.9428 5.25262 21.0469 5.35668C21.1509 5.46073 21.2088 5.59948 21.2088 5.74978C21.2088 5.90008 21.1509 6.03883 21.0469 6.14288C20.9428 6.24694 20.8041 6.30475 20.6538 6.30475C20.5035 6.30475 20.3647 6.24694 20.2607 6.14288C20.1566 6.03883 20.0988 5.90008 20.0988 5.74978C20.0988 5.59948 20.1566 5.46073 20.2607 5.35668Z" fill="white" fill-opacity="0.95"/>
<path d="M22.7926 6.89568C22.6885 6.99974 22.6076 7.12692 22.5498 7.26566C22.492 7.40441 22.4573 7.55471 22.4573 7.71658C22.4573 7.87844 22.492 8.02875 22.5498 8.16749C22.6076 8.30623 22.6885 8.43341 22.7926 8.53747C22.8966 8.64153 23.0122 8.72246 23.1625 8.79183C23.3013 8.84964 23.4516 8.88433 23.6135 8.88433C23.7753 8.88433 23.9256 8.84964 24.0644 8.79183C24.2031 8.73402 24.3303 8.65309 24.4344 8.53747C24.5384 8.43341 24.6193 8.30623 24.6772 8.16749C24.735 8.02875 24.7696 7.87844 24.7696 7.71658C24.7696 7.55471 24.735 7.40441 24.6772 7.26566C24.6193 7.12692 24.5384 6.99974 24.4344 6.89568C24.3303 6.79163 24.2147 6.71069 24.0644 6.64132C23.9256 6.58351 23.7753 6.54883 23.6135 6.54883C23.4516 6.54883 23.3013 6.58351 23.1625 6.64132C23.0238 6.69913 22.8966 6.78007 22.7926 6.89568ZM23.6135 7.15005C23.7753 7.15005 23.9025 7.20785 24.0066 7.31191C24.1106 7.41597 24.1684 7.55471 24.1684 7.70501C24.1684 7.85532 24.1106 8.00562 24.0066 8.10968C23.9025 8.21374 23.7638 8.27155 23.6135 8.27155C23.4632 8.27155 23.3244 8.21374 23.2204 8.10968C23.1163 8.00562 23.0585 7.86688 23.0585 7.70501C23.0585 7.54315 23.1163 7.41597 23.2204 7.31191C23.3244 7.20785 23.4632 7.15005 23.6135 7.15005Z" fill="white" fill-opacity="0.95"/>
<path d="M21.1507 8.99921L23.5786 4.756L23.0815 4.47852L20.7113 8.74484L21.1507 8.99921Z" fill="white" fill-opacity="0.95"/>
</svg>
