<svg width="55" height="55" viewBox="0 0 55 55" fill="none" xmlns="http://www.w3.org/2000/svg">
<rect x="0.0869141" y="0.998047" width="54" height="54" rx="6" fill="#3196F5" fill-opacity="0.11"/>
<path d="M40.2709 30.3786C39.3112 29.5809 37.9469 29.4652 36.8717 30.1011L30.7901 33.7084C30.5011 33.8819 30.1658 33.9744 29.8305 33.9744H24.408C24.1767 33.9744 23.9917 33.7894 23.9917 33.5581C23.9917 33.3269 24.1767 33.1419 24.408 33.1419H28.6281C30.3855 33.1419 31.8191 31.7082 31.8191 29.9508C31.8191 28.1934 30.3855 26.7598 28.6281 26.7598H22.8356C21.1938 26.7598 19.6098 27.2916 18.3149 28.2281C17.8986 27.835 17.3321 27.5922 16.7078 27.5922H15.2163C13.9214 27.5922 12.8577 28.6444 12.8577 29.9508V38.6454C12.8577 39.9403 13.9098 41.004 15.2163 41.004H16.7078C17.228 41.004 17.7021 40.8306 18.0952 40.5415C19.4364 41.5936 21.0897 42.1833 22.8356 42.1833H29.3911C31.3104 42.1833 33.1372 41.4665 34.5477 40.1715L40.5137 34.6681C41.0686 34.0784 41.3577 33.2807 41.3114 32.4713C41.2652 31.662 40.8836 30.8989 40.2593 30.3786H40.2709ZM15.1816 38.6454L15.2278 29.9162L16.7656 29.9624V38.6569C16.7656 38.6569 16.7425 38.7032 16.7193 38.7032L15.1816 38.6569V38.6454ZM38.895 33.0147L32.9869 38.4604C32.0041 39.3622 30.7323 39.8594 29.3911 39.8594H22.8356C21.4134 39.8594 20.0607 39.3044 19.0664 38.3216V30.6214C20.0607 29.6387 21.4134 29.0837 22.8356 29.0837H28.6281C29.1137 29.0837 29.5068 29.4768 29.5068 29.9624C29.5068 30.448 29.1137 30.8411 28.6281 30.8411H24.408C22.9049 30.8411 21.6794 32.0667 21.6794 33.5697C21.6794 35.0727 22.9049 36.2983 24.408 36.2983H29.8305C30.582 36.2983 31.322 36.1018 31.9694 35.7087L38.051 32.1013C38.2822 31.9626 38.5828 31.9857 38.7794 32.1592C38.9644 32.3095 38.999 32.506 39.0106 32.6101C39.0106 32.7141 39.0106 32.9107 38.895 33.0263V33.0147Z" fill="#3196F5"/>
<path d="M34.3858 26.6924C37.9353 26.6924 40.8257 23.802 40.8257 20.2525C40.8257 16.703 37.9353 13.8125 34.3858 13.8125C30.8363 13.8125 27.9458 16.703 27.9458 20.2525C27.9458 23.802 30.8363 26.6924 34.3858 26.6924ZM34.3858 16.1133C36.6634 16.1133 38.5133 17.9632 38.5133 20.2409C38.5133 22.5186 36.6634 24.3685 34.3858 24.3685C32.1081 24.3685 30.2582 22.5186 30.2582 20.2409C30.2582 17.9632 32.1081 16.1133 34.3858 16.1133Z" fill="#3196F5"/>
<path d="M32.0968 20.0785C32.2008 20.1825 32.3164 20.2635 32.4667 20.3328C32.6055 20.3907 32.7558 20.4253 32.9177 20.4253C33.0795 20.4253 33.2298 20.3907 33.3686 20.3328C33.5073 20.275 33.6345 20.1941 33.7386 20.0785C33.8426 19.9744 33.9235 19.8472 33.9814 19.7085C34.0392 19.5698 34.0738 19.4195 34.0738 19.2576C34.0738 19.0957 34.0392 18.9454 33.9814 18.8067C33.9235 18.6679 33.8426 18.5408 33.7386 18.4367C33.6345 18.3326 33.5189 18.2517 33.3686 18.1823C33.2298 18.1245 33.0795 18.0898 32.9177 18.0898C32.7558 18.0898 32.6055 18.1245 32.4667 18.1823C32.328 18.2401 32.2008 18.3211 32.0968 18.4367C31.9927 18.5408 31.9118 18.6679 31.854 18.8067C31.7962 18.9454 31.7615 19.0957 31.7615 19.2576C31.7615 19.4195 31.7962 19.5698 31.854 19.7085C31.9118 19.8472 31.9927 19.9744 32.0968 20.0785ZM32.513 18.8645C32.6171 18.7604 32.7558 18.7026 32.9061 18.7026C33.0564 18.7026 33.1951 18.7604 33.2992 18.8645C33.4033 18.9685 33.4611 19.1073 33.4611 19.2576C33.4611 19.4079 33.4033 19.5466 33.2992 19.6507C33.1951 19.7548 33.0564 19.8126 32.9061 19.8126C32.7558 19.8126 32.6171 19.7548 32.513 19.6507C32.4089 19.5466 32.3511 19.4079 32.3511 19.2576C32.3511 19.1073 32.4089 18.9685 32.513 18.8645Z" fill="#3196F5"/>
<path d="M35.0448 20.4035C34.9407 20.5076 34.8598 20.6347 34.802 20.7735C34.7442 20.9122 34.7095 21.0625 34.7095 21.2244C34.7095 21.3863 34.7442 21.5366 34.802 21.6753C34.8598 21.814 34.9407 21.9412 35.0448 22.0453C35.1488 22.1493 35.2644 22.2303 35.4147 22.2996C35.5535 22.3575 35.7038 22.3921 35.8657 22.3921C36.0275 22.3921 36.1778 22.3575 36.3166 22.2996C36.4553 22.2418 36.5825 22.1609 36.6866 22.0453C36.7906 21.9412 36.8715 21.814 36.9293 21.6753C36.9872 21.5366 37.0218 21.3863 37.0218 21.2244C37.0218 21.0625 36.9872 20.9122 36.9293 20.7735C36.8715 20.6347 36.7906 20.5076 36.6866 20.4035C36.5825 20.2994 36.4669 20.2185 36.3166 20.1491C36.1778 20.0913 36.0275 20.0566 35.8657 20.0566C35.7038 20.0566 35.5535 20.0913 35.4147 20.1491C35.276 20.2069 35.1488 20.2879 35.0448 20.4035ZM35.8657 20.6579C36.0275 20.6579 36.1547 20.7157 36.2588 20.8197C36.3628 20.9238 36.4206 21.0625 36.4206 21.2128C36.4206 21.3631 36.3628 21.5134 36.2588 21.6175C36.1547 21.7216 36.016 21.7794 35.8657 21.7794C35.7154 21.7794 35.5766 21.7216 35.4726 21.6175C35.3685 21.5134 35.3107 21.3747 35.3107 21.2128C35.3107 21.051 35.3685 20.9238 35.4726 20.8197C35.5766 20.7157 35.7154 20.6579 35.8657 20.6579Z" fill="#3196F5"/>
<path d="M33.403 22.507L35.831 18.2638L35.3338 17.9863L32.9636 22.2527L33.403 22.507Z" fill="#3196F5"/>
</svg>
