<svg width="355" height="402" viewBox="0 0 355 402" fill="none" xmlns="http://www.w3.org/2000/svg">
<path d="M65.7109 70.0596V45.7051C65.7109 28.5843 79.5901 14.7051 96.7109 14.7051H256.129C273.25 14.7051 287.129 28.5843 287.129 45.7051V78.7425" stroke="black" stroke-opacity="0.34" stroke-dasharray="6 6"/>
<path d="M65.7109 274.005V249.65C65.7109 232.53 79.5901 218.65 96.7109 218.65H256.129C273.25 218.65 287.129 232.53 287.129 249.65V282.688" stroke="#314562" stroke-opacity="0.42" stroke-dasharray="6 6"/>
<path d="M65.7109 95.585V119.939C65.7109 137.06 79.5901 150.939 96.7109 150.939H256.129C273.25 150.939 287.129 137.06 287.129 119.939V86.902" stroke="#314562" stroke-opacity="0.42" stroke-dasharray="6 6"/>
<g filter="url(#filter0_d_784_9087)">
<rect x="147.152" y="54.9238" width="57.6982" height="57.4658" rx="28.7329" fill="white"/>
</g>
<g filter="url(#filter1_d_784_9087)">
<rect x="147.152" y="194.879" width="57.6982" height="57.4658" rx="28.7329" fill="white"/>
</g>
<rect x="165.016" y="141.822" width="22.8066" height="23.5059" fill="white"/>
<path d="M177.129 185.586C176.738 185.977 176.105 185.977 175.715 185.586L169.351 179.222C168.96 178.832 168.96 178.198 169.351 177.808C169.741 177.417 170.374 177.417 170.765 177.808L176.422 183.465L182.079 177.808C182.469 177.417 183.102 177.417 183.493 177.808C183.883 178.198 183.883 178.832 183.493 179.222L177.129 185.586ZM175.422 184.879L175.422 122.27L177.422 122.27L177.422 184.879L175.422 184.879Z" fill="#6C839C"/>
<path d="M192.994 77.9738C193.079 78.5435 192.678 78.1355 192.678 78.1355C191.045 76.049 192.963 72.5613 192.963 72.5613C193.21 72.161 193.456 71.7991 193.71 71.468C189.828 65.8323 183.333 62.1367 175.961 62.1367C164.621 62.1367 155.338 70.906 154.498 82.0235C158.789 79.9447 163.465 85.0877 163.465 85.0877L165.306 86.9124C170.845 92.4404 172.44 92.3942 173.241 91.1238C173.241 91.1238 174.351 89.5147 172.502 86.2503C170.26 82.3084 172.718 79.3904 172.718 79.3904C179.243 70.5287 189.689 81.8002 189.689 81.8002C193.379 85.4804 195.721 86.8585 197.2 87.2512C197.393 86.0809 197.501 84.8876 197.501 83.6634C197.501 81.0688 197.038 78.582 196.199 76.28C193.341 75.3022 192.94 77.6119 192.994 77.9815V77.9738Z" fill="#76C4D5"/>
<path d="M183.07 88.4238C178.725 84.0892 176.175 82.8573 174.696 82.8496C174.534 82.865 173.301 83.0036 173.54 84.2585C173.756 85.3518 177.693 90.4948 173.147 95.0527C166.776 100.419 159.935 92.281 159.935 92.281C157.817 90.31 155.259 87.2997 154.936 88.2929C157.062 97.9476 165.667 105.177 175.959 105.177C183.879 105.177 190.797 100.904 194.541 94.5369C189.048 94.8679 183.07 88.4238 183.07 88.4238Z" fill="#007496"/>
<circle cx="176.001" cy="223.612" r="28.8506" fill="white"/>
<circle cx="176" cy="223.611" r="24.2951" fill="#B6E9F4"/>
<mask id="mask0_784_9087" style="mask-type:alpha" maskUnits="userSpaceOnUse" x="151" y="199" width="50" height="49">
<circle cx="176.001" cy="223.61" r="24.2937" fill="#C4C4C4"/>
</mask>
<g mask="url(#mask0_784_9087)">
<path d="M186.364 242.831C180.555 240.494 178.641 237.588 179.136 233.408H175.582H175.156H172.745C173.241 237.588 171.327 240.494 165.517 242.831C159.708 245.169 158.928 247.722 158.928 247.722H174.478H175.579H192.951C192.954 247.722 192.177 245.169 186.364 242.831Z" fill="#E79392"/>
<path d="M175.901 240.219C177.577 240.219 179.161 239.796 180.569 239.042C179.283 237.449 178.88 235.604 179.141 233.408H175.587H175.16H172.75C173.011 235.62 172.601 237.475 171.295 239.075C172.687 239.809 174.251 240.219 175.901 240.219Z" fill="#D17675"/>
<path d="M186.364 242.831C184.351 242.021 182.807 241.142 181.666 240.166L176.31 245.142L170.275 240.113C169.131 241.112 167.567 242.005 165.517 242.831C159.708 245.169 158.928 247.721 158.928 247.721H174.478H175.579H192.951C192.954 247.721 192.177 245.169 186.364 242.831Z" fill="#76C4D5"/>
<path d="M167.687 225.818C168.758 227.864 168.308 230.215 166.685 231.065C165.062 231.915 162.876 230.943 161.805 228.893C160.733 226.846 161.183 224.495 162.807 223.645C164.433 222.796 166.616 223.768 167.687 225.818Z" fill="#E79392"/>
<path d="M166.747 229.727C166.74 229.644 166.724 229.571 166.717 229.492C166.731 229.551 166.737 229.598 166.74 229.637C166.731 229.221 166.671 228.88 166.565 228.612C165.719 225.144 162.479 224.797 162.479 224.797C164.122 225.789 165.147 226.883 165.782 227.789C164.614 227.313 162.816 228.322 162.816 228.322C164.955 227.756 165.927 228.226 166.373 228.768C166.661 229.35 166.747 229.727 166.747 229.727Z" fill="#D17675"/>
<path d="M184.107 225.818C183.036 227.864 183.486 230.215 185.109 231.065C186.733 231.915 188.918 230.943 189.99 228.893C191.061 226.846 190.611 224.495 188.988 223.645C187.364 222.796 185.179 223.768 184.107 225.818Z" fill="#E79392"/>
<path d="M185.051 229.727C185.057 229.644 185.074 229.571 185.081 229.492C185.067 229.551 185.061 229.598 185.057 229.637C185.067 229.221 185.127 228.88 185.233 228.612C186.079 225.144 189.319 224.797 189.319 224.797C187.676 225.789 186.651 226.883 186.016 227.789C187.18 227.313 188.982 228.322 188.982 228.322C186.846 227.756 185.871 228.226 185.424 228.768C185.133 229.35 185.051 229.727 185.051 229.727Z" fill="#D17675"/>
<path d="M188.642 217.123C189.961 214.237 191.571 209.138 185.048 206.162C185.094 206.186 182.257 203.795 177.215 208.143C175.608 209.555 173.452 210.173 171.409 209.495C169.372 208.817 166.687 208.897 165.183 212.593C164.779 213.585 164.65 214.475 164.717 215.262C164.244 214.666 163.599 214.28 162.997 215.225C162.511 215.976 162.911 219.302 164.088 222.308C164.088 222.308 164.776 229.529 168.066 230.65L171.306 226.206C173.991 226.143 177.34 226.057 180.091 225.994L183.487 230.65C185.838 229.849 186.86 225.941 187.253 223.769C187.382 223.627 187.508 223.485 187.637 223.342C189.154 221.669 189.726 219.348 188.797 217.427C188.754 217.322 188.701 217.222 188.642 217.123Z" fill="#1F2027"/>
<path d="M171.412 209.495C169.376 208.817 166.691 208.896 165.186 212.593C165.028 212.983 164.912 213.357 164.836 213.714L164.919 213.919C164.915 213.919 166.909 209.263 171.412 209.495Z" fill="#4D4E62"/>
<path d="M185.044 206.162C185.08 206.182 183.368 204.737 180.227 206.149C180.842 206.142 188.688 206.232 189.699 213.919C190.172 211.271 189.541 208.212 185.044 206.162Z" fill="#4D4E62"/>
<path d="M172.906 214.165C169.143 214.165 166.082 217.193 166.042 220.956L165.973 227.499C165.973 233.484 170.416 238.334 175.895 238.334C181.377 238.334 185.818 233.484 185.818 227.499L185.798 220.559C185.788 217.025 183.516 212.154 179.982 212.154L172.906 214.165Z" fill="#FDB193"/>
<path opacity="0.39" d="M176.686 233.677C176.686 233.677 178.464 233.734 179.099 232.318C179.099 232.318 179.605 233.347 178.392 233.952C177.182 234.56 176.686 233.677 176.686 233.677Z" fill="#FF8282"/>
<path opacity="0.55" d="M185.809 220.555C185.799 217.021 183.528 212.15 179.993 212.15L172.911 214.161C169.148 214.161 166.086 217.189 166.047 220.952L166.014 224.053L167.009 222.351C167.016 222.321 167.697 219.405 173.982 219.325C176.178 219.296 178.852 218.654 180.588 216.135C181.213 218.013 182.258 219.702 183.501 220.717C184.225 221.306 184.999 221.66 185.806 221.779L185.809 220.555Z" fill="#FDB193"/>
<path d="M175.895 236.925C171.808 236.925 168.267 234.535 166.518 231.043C167.863 235.285 171.55 238.334 175.895 238.334C180.239 238.334 183.926 235.285 185.272 231.043C183.522 234.535 179.981 236.925 175.895 236.925Z" fill="#FDD5C5"/>
<path d="M178.92 229.385C179.036 229.699 179.099 230.039 179.099 230.397C179.099 231.99 177.839 233.283 176.285 233.283C174.926 233.283 173.792 232.294 173.527 230.982L178.92 229.385Z" fill="#230F0B"/>
<path d="M176.278 233.283C175.796 233.283 175.346 233.157 174.949 232.939C175.207 231.686 176.388 230.74 177.803 230.74C178.242 230.74 178.656 230.833 179.029 230.995C178.765 232.301 177.634 233.283 176.278 233.283Z" fill="#E8132C"/>
<path d="M177.313 227.662C177.313 228.601 176.679 229.361 175.895 229.361C175.111 229.361 174.477 228.601 174.477 227.662C174.477 226.723 175.111 225.549 175.895 225.549C176.679 225.546 177.313 226.719 177.313 227.662Z" fill="#FC7F7D"/>
<path d="M180.992 224.641C180.992 225.418 180.727 226.049 180.403 226.049C180.079 226.049 179.814 225.418 179.814 224.641C179.814 223.864 180.079 223.232 180.403 223.232C180.727 223.229 180.992 223.861 180.992 224.641Z" fill="#25110D"/>
<path d="M183.183 223.097C183.259 223.054 179.995 220.991 177.982 221.067C177.955 221.1 178.022 219.268 180.693 220.227C183.282 221.292 183.16 223.127 183.183 223.097Z" fill="#1F2027"/>
<path d="M171.383 226.049C171.709 226.049 171.972 225.419 171.972 224.641C171.972 223.863 171.709 223.232 171.383 223.232C171.058 223.232 170.795 223.863 170.795 224.641C170.795 225.419 171.058 226.049 171.383 226.049Z" fill="#25110D"/>
<path d="M168.308 223.097C168.232 223.054 171.495 220.991 173.509 221.067C173.535 221.1 173.469 219.268 170.798 220.227C168.205 221.292 168.331 223.127 168.308 223.097Z" fill="#1F2027"/>
<path d="M169.956 229.424C169.919 229.424 169.88 229.414 169.843 229.398C169.714 229.335 169.658 229.18 169.721 229.051L170.544 227.348C170.607 227.219 170.763 227.166 170.892 227.226C171.021 227.288 171.077 227.444 171.014 227.573L170.191 229.275C170.144 229.371 170.052 229.424 169.956 229.424Z" fill="#FC7F7D"/>
<path d="M168.315 229.424C168.279 229.424 168.239 229.414 168.203 229.398C168.074 229.335 168.018 229.18 168.08 229.051L168.904 227.348C168.967 227.219 169.122 227.166 169.251 227.226C169.38 227.288 169.436 227.444 169.373 227.573L168.55 229.275C168.507 229.371 168.414 229.424 168.315 229.424Z" fill="#FC7F7D"/>
<path d="M181.67 229.426C181.574 229.426 181.482 229.373 181.436 229.277L180.612 227.574C180.549 227.445 180.602 227.29 180.735 227.227C180.864 227.164 181.019 227.22 181.082 227.349L181.905 229.052C181.968 229.181 181.915 229.336 181.783 229.399C181.746 229.419 181.707 229.426 181.67 229.426Z" fill="#FC7F7D"/>
<path d="M183.311 229.426C183.215 229.426 183.123 229.373 183.076 229.277L182.253 227.574C182.19 227.445 182.243 227.29 182.375 227.227C182.504 227.164 182.66 227.22 182.722 227.349L183.546 229.052C183.609 229.181 183.556 229.336 183.423 229.399C183.387 229.419 183.347 229.426 183.311 229.426Z" fill="#FC7F7D"/>
<path d="M186.247 217.731L181.589 209.766L170.33 213.175L164.293 220.492C165.596 221.457 166.035 222.178 166.035 222.178C166.035 222.178 166.687 218.422 173.974 218.329C178.755 218.266 180.339 215.271 180.964 212.847C181.096 215.674 182.472 218.59 184.131 219.943C185.361 220.948 186.552 220.964 187.52 220.644L186.247 217.731Z" fill="#1F2027"/>
</g>
<g filter="url(#filter2_d_784_9087)">
<rect x="123" y="3" width="106" height="24.3137" rx="4" fill="#314562" shape-rendering="crispEdges"/>
<path d="M166.939 12.9006C166.882 12.4219 166.652 12.0503 166.249 11.7858C165.846 11.5213 165.352 11.389 164.766 11.389C164.338 11.389 163.963 11.4583 163.642 11.5969C163.324 11.7354 163.075 11.926 162.895 12.1684C162.719 12.4109 162.631 12.6865 162.631 12.9951C162.631 13.2533 162.692 13.4753 162.815 13.6611C162.941 13.8438 163.101 13.9965 163.297 14.1193C163.492 14.239 163.697 14.3382 163.911 14.4169C164.125 14.4925 164.322 14.5539 164.501 14.6012L165.484 14.8657C165.736 14.9318 166.016 15.0231 166.325 15.1397C166.636 15.2562 166.934 15.4152 167.217 15.6168C167.504 15.8152 167.74 16.0702 167.926 16.382C168.112 16.6938 168.205 17.0764 168.205 17.5299C168.205 18.0526 168.068 18.525 167.794 18.947C167.523 19.369 167.126 19.7043 166.603 19.9531C166.084 20.2019 165.452 20.3263 164.709 20.3263C164.016 20.3263 163.416 20.2145 162.909 19.9909C162.406 19.7673 162.009 19.4556 161.719 19.0556C161.432 18.6557 161.27 18.1912 161.232 17.6621H162.442C162.473 18.0274 162.596 18.3297 162.81 18.5691C163.027 18.8053 163.301 18.9816 163.632 19.0981C163.966 19.2115 164.325 19.2682 164.709 19.2682C165.156 19.2682 165.558 19.1958 165.914 19.0509C166.27 18.9029 166.551 18.6982 166.759 18.4368C166.967 18.1723 167.071 17.8637 167.071 17.511C167.071 17.1898 166.981 16.9284 166.802 16.7268C166.622 16.5253 166.386 16.3615 166.093 16.2356C165.8 16.1096 165.484 15.9994 165.144 15.9049L163.953 15.5648C163.198 15.3475 162.599 15.0373 162.158 14.6342C161.717 14.2311 161.497 13.7036 161.497 13.0518C161.497 12.5101 161.643 12.0378 161.936 11.6347C162.232 11.2284 162.629 10.9135 163.127 10.6899C163.627 10.4632 164.186 10.3498 164.804 10.3498C165.427 10.3498 165.981 10.4616 166.466 10.6852C166.951 10.9056 167.336 11.208 167.619 11.5921C167.906 11.9763 168.057 12.4125 168.072 12.9006H166.939ZM173.135 12.9006V13.8454H169.375V12.9006H173.135ZM170.471 11.1623H171.586V18.0778C171.586 18.3927 171.631 18.6289 171.723 18.7864C171.817 18.9407 171.937 19.0446 172.082 19.0981C172.23 19.1485 172.386 19.1737 172.549 19.1737C172.672 19.1737 172.773 19.1674 172.852 19.1548C172.93 19.1391 172.993 19.1265 173.041 19.117L173.267 20.1185C173.192 20.1468 173.086 20.1751 172.951 20.2035C172.815 20.235 172.644 20.2507 172.436 20.2507C172.121 20.2507 171.812 20.183 171.51 20.0476C171.211 19.9122 170.962 19.7059 170.764 19.4288C170.569 19.1517 170.471 18.8021 170.471 18.3801V11.1623ZM176.947 20.3263C176.487 20.3263 176.07 20.2397 175.695 20.0665C175.321 19.8901 175.023 19.6366 174.803 19.306C174.582 18.9722 174.472 18.5691 174.472 18.0967C174.472 17.681 174.554 17.3441 174.718 17.0858C174.881 16.8245 175.1 16.6198 175.374 16.4717C175.648 16.3237 175.95 16.2135 176.281 16.1411C176.615 16.0655 176.95 16.0057 177.287 15.9616C177.728 15.9049 178.086 15.8624 178.359 15.834C178.637 15.8026 178.838 15.7506 178.964 15.6782C179.093 15.6057 179.158 15.4798 179.158 15.3003V15.2625C179.158 14.7964 179.03 14.4343 178.775 14.176C178.523 13.9178 178.141 13.7887 177.627 13.7887C177.095 13.7887 176.678 13.9052 176.376 14.1382C176.073 14.3713 175.861 14.6201 175.738 14.8846L174.68 14.5067C174.869 14.0658 175.121 13.7225 175.436 13.4769C175.754 13.2281 176.1 13.0549 176.475 12.9573C176.853 12.8565 177.224 12.8061 177.59 12.8061C177.823 12.8061 178.09 12.8345 178.393 12.8912C178.698 12.9447 178.992 13.0565 179.276 13.2266C179.562 13.3966 179.8 13.6533 179.989 13.9965C180.178 14.3398 180.273 14.7996 180.273 15.3758V20.1562H179.158V19.1737H179.101C179.026 19.3312 178.9 19.4997 178.723 19.6792C178.547 19.8587 178.312 20.0114 178.019 20.1374C177.727 20.2633 177.369 20.3263 176.947 20.3263ZM177.117 19.3249C177.558 19.3249 177.93 19.2383 178.232 19.0651C178.537 18.8919 178.767 18.6683 178.922 18.3943C179.079 18.1203 179.158 17.8322 179.158 17.5299V16.5095C179.111 16.5662 179.007 16.6182 178.846 16.6654C178.689 16.7095 178.506 16.7489 178.298 16.7835C178.093 16.815 177.893 16.8433 177.698 16.8685C177.506 16.8906 177.35 16.9095 177.231 16.9252C176.941 16.963 176.67 17.0244 176.418 17.1095C176.169 17.1913 175.968 17.3157 175.813 17.4826C175.662 17.6464 175.587 17.87 175.587 18.1534C175.587 18.5407 175.73 18.8336 176.017 19.032C176.306 19.2273 176.673 19.3249 177.117 19.3249ZM182.307 20.1562V12.9006H183.384V13.9965H183.46C183.592 13.6375 183.832 13.3462 184.178 13.1226C184.524 12.899 184.915 12.7872 185.349 12.7872C185.431 12.7872 185.534 12.7888 185.656 12.792C185.779 12.7951 185.872 12.7998 185.935 12.8061V13.9398C185.897 13.9304 185.811 13.9162 185.675 13.8973C185.543 13.8753 185.403 13.8643 185.255 13.8643C184.902 13.8643 184.587 13.9383 184.31 14.0863C184.036 14.2311 183.819 14.4327 183.658 14.6909C183.501 14.946 183.422 15.2373 183.422 15.5648V20.1562H182.307ZM190.867 12.9006V13.8454H187.107V12.9006H190.867ZM188.203 11.1623H189.317V18.0778C189.317 18.3927 189.363 18.6289 189.454 18.7864C189.549 18.9407 189.668 19.0446 189.813 19.0981C189.961 19.1485 190.117 19.1737 190.281 19.1737C190.404 19.1737 190.505 19.1674 190.583 19.1548C190.662 19.1391 190.725 19.1265 190.772 19.117L190.999 20.1185C190.923 20.1468 190.818 20.1751 190.682 20.2035C190.547 20.235 190.375 20.2507 190.168 20.2507C189.853 20.2507 189.544 20.183 189.242 20.0476C188.943 19.9122 188.694 19.7059 188.495 19.4288C188.3 19.1517 188.203 18.8021 188.203 18.3801V11.1623Z" fill="white"/>
</g>
<g filter="url(#filter3_d_784_9087)">
<rect x="11" y="71.002" width="108" height="24.3137" rx="4" fill="#314562" shape-rendering="crispEdges"/>
<path d="M41.8443 80.9026C41.7876 80.4239 41.5578 80.0523 41.1547 79.7878C40.7516 79.5232 40.2572 79.391 39.6714 79.391C39.2431 79.391 38.8684 79.4603 38.5472 79.5988C38.2291 79.7374 37.9803 79.9279 37.8008 80.1704C37.6245 80.4129 37.5363 80.6884 37.5363 80.997C37.5363 81.2553 37.5977 81.4773 37.7205 81.6631C37.8465 81.8457 38.0071 81.9985 38.2023 82.1213C38.3976 82.241 38.6023 82.3402 38.8164 82.4189C39.0306 82.4945 39.2274 82.5559 39.4069 82.6031L40.3894 82.8676C40.6414 82.9338 40.9216 83.0251 41.2302 83.1416C41.542 83.2581 41.8396 83.4172 42.123 83.6187C42.4096 83.8171 42.6458 84.0722 42.8316 84.384C43.0174 84.6957 43.1103 85.0783 43.1103 85.5318C43.1103 86.0546 42.9733 86.5269 42.6993 86.9489C42.4285 87.3709 42.0317 87.7063 41.5089 87.9551C40.9893 88.2039 40.3579 88.3283 39.6147 88.3283C38.9219 88.3283 38.322 88.2165 37.815 87.9929C37.3111 87.7693 36.9143 87.4575 36.6246 87.0576C36.338 86.6576 36.1759 86.1931 36.1381 85.6641H37.3473C37.3788 86.0294 37.5017 86.3317 37.7158 86.571C37.9331 86.8072 38.2071 86.9836 38.5377 87.1001C38.8715 87.2135 39.2305 87.2701 39.6147 87.2701C40.0619 87.2701 40.4634 87.1977 40.8193 87.0529C41.1751 86.9048 41.457 86.7001 41.6648 86.4388C41.8727 86.1742 41.9766 85.8656 41.9766 85.5129C41.9766 85.1917 41.8868 84.9303 41.7073 84.7288C41.5278 84.5272 41.2917 84.3635 40.9988 84.2375C40.7059 84.1116 40.3894 84.0013 40.0493 83.9069L38.8589 83.5667C38.1031 83.3495 37.5048 83.0393 37.0639 82.6362C36.623 82.2331 36.4026 81.7056 36.4026 81.0537C36.4026 80.5121 36.549 80.0397 36.8419 79.6366C37.1379 79.2304 37.5347 78.9155 38.0323 78.6919C38.533 78.4651 39.092 78.3518 39.7092 78.3518C40.3327 78.3518 40.887 78.4636 41.372 78.6871C41.8569 78.9076 42.2411 79.2099 42.5245 79.5941C42.8111 79.9783 42.9623 80.4145 42.978 80.9026H41.8443ZM47.0203 88.3283C46.5606 88.3283 46.1433 88.2417 45.7686 88.0685C45.3938 87.8921 45.0962 87.6386 44.8758 87.3079C44.6553 86.9741 44.5451 86.571 44.5451 86.0987C44.5451 85.683 44.627 85.346 44.7907 85.0878C44.9545 84.8264 45.1734 84.6217 45.4473 84.4737C45.7213 84.3257 46.0236 84.2155 46.3543 84.143C46.6881 84.0675 47.0235 84.0076 47.3605 83.9635C47.8013 83.9069 48.1588 83.8643 48.4327 83.836C48.7099 83.8045 48.9114 83.7525 49.0374 83.6801C49.1665 83.6077 49.231 83.4817 49.231 83.3022V83.2644C49.231 82.7984 49.1035 82.4362 48.8484 82.178C48.5965 81.9197 48.2139 81.7906 47.7006 81.7906C47.1684 81.7906 46.7511 81.9071 46.4488 82.1402C46.1465 82.3732 45.9339 82.622 45.8111 82.8865L44.753 82.5086C44.9419 82.0678 45.1938 81.7245 45.5088 81.4789C45.8268 81.2301 46.1732 81.0569 46.548 80.9593C46.9259 80.8585 47.2975 80.8081 47.6628 80.8081C47.8958 80.8081 48.1635 80.8364 48.4658 80.8931C48.7713 80.9467 49.0657 81.0585 49.3491 81.2285C49.6357 81.3986 49.8735 81.6552 50.0624 81.9985C50.2514 82.3417 50.3458 82.8015 50.3458 83.3778V88.1582H49.231V87.1757H49.1744C49.0988 87.3331 48.9728 87.5016 48.7965 87.6811C48.6201 87.8606 48.3855 88.0133 48.0926 88.1393C47.7998 88.2653 47.4423 88.3283 47.0203 88.3283ZM47.1904 87.3268C47.6313 87.3268 48.0029 87.2402 48.3052 87.067C48.6107 86.8938 48.8406 86.6702 48.9949 86.3963C49.1523 86.1223 49.231 85.8341 49.231 85.5318V84.5115C49.1838 84.5682 49.0799 84.6201 48.9193 84.6674C48.7618 84.7115 48.5792 84.7508 48.3713 84.7855C48.1666 84.817 47.9667 84.8453 47.7714 84.8705C47.5793 84.8925 47.4234 84.9114 47.3038 84.9272C47.014 84.965 46.7432 85.0264 46.4913 85.1114C46.2425 85.1933 46.041 85.3177 45.8867 85.4846C45.7355 85.6483 45.6599 85.8719 45.6599 86.1553C45.6599 86.5427 45.8032 86.8356 46.0898 87.034C46.3795 87.2292 46.7464 87.3268 47.1904 87.3268ZM53.4954 83.7935V88.1582H52.3806V80.9026H53.4576V82.0363H53.5521C53.7221 81.6678 53.9803 81.3718 54.3268 81.1482C54.6732 80.9215 55.1203 80.8081 55.6683 80.8081C56.1596 80.8081 56.5894 80.9089 56.9579 81.1104C57.3263 81.3088 57.6129 81.6111 57.8176 82.0174C58.0223 82.4205 58.1246 82.9306 58.1246 83.5479V88.1582H57.0098V83.6234C57.0098 83.0534 56.8618 82.6094 56.5658 82.2913C56.2698 81.9701 55.8635 81.8095 55.3471 81.8095C54.9912 81.8095 54.6732 81.8867 54.3929 82.041C54.1158 82.1953 53.8969 82.4205 53.7363 82.7165C53.5757 83.0125 53.4954 83.3715 53.4954 83.7935ZM62.9015 88.3094C62.2969 88.3094 61.7631 88.1566 61.3001 87.8512C60.8372 87.5425 60.4751 87.108 60.2137 86.5474C59.9523 85.9837 59.8216 85.3177 59.8216 84.5493C59.8216 83.7872 59.9523 83.1259 60.2137 82.5653C60.4751 82.0048 60.8388 81.5718 61.3049 81.2663C61.7709 80.9608 62.3094 80.8081 62.9204 80.8081C63.3928 80.8081 63.7659 80.8868 64.0399 81.0443C64.317 81.1986 64.528 81.3749 64.6729 81.5733C64.8209 81.7686 64.9358 81.9292 65.0177 82.0552H65.1122V78.484H66.227V88.1582H65.15V87.0434H65.0177C64.9358 87.1757 64.8193 87.3426 64.6682 87.5441C64.517 87.7425 64.3013 87.9204 64.021 88.0779C63.7407 88.2322 63.3676 88.3094 62.9015 88.3094ZM63.0526 87.3079C63.4998 87.3079 63.8777 87.1914 64.1863 86.9584C64.495 86.7222 64.7296 86.3963 64.8902 85.9806C65.0508 85.5617 65.1311 85.0783 65.1311 84.5304C65.1311 83.9887 65.0524 83.5148 64.8949 83.1085C64.7374 82.6992 64.5044 82.3811 64.1958 82.1544C63.8872 81.9245 63.5061 81.8095 63.0526 81.8095C62.5803 81.8095 62.1866 81.9308 61.8717 82.1733C61.56 82.4126 61.3253 82.7385 61.1679 83.1511C61.0136 83.5604 60.9364 84.0202 60.9364 84.5304C60.9364 85.0468 61.0151 85.5161 61.1726 85.9381C61.3332 86.3569 61.5694 86.6907 61.8812 86.9395C62.1961 87.1851 62.5866 87.3079 63.0526 87.3079ZM72.3159 88.1582V78.484H75.698C76.372 78.484 76.9278 78.6005 77.3655 78.8336C77.8032 79.0635 78.1292 79.3737 78.3433 79.7642C78.5575 80.1515 78.6645 80.5814 78.6645 81.0537C78.6645 81.4694 78.5905 81.8127 78.4425 82.0835C78.2977 82.3543 78.1056 82.5685 77.8662 82.7259C77.63 82.8834 77.3734 82.9999 77.0963 83.0755V83.17C77.3923 83.1889 77.6899 83.2928 77.989 83.4817C78.2882 83.6707 78.5386 83.9415 78.7401 84.2942C78.9417 84.6469 79.0424 85.0783 79.0424 85.5885C79.0424 86.0735 78.9322 86.5096 78.7118 86.897C78.4913 87.2843 78.1434 87.5914 77.6678 87.8181C77.1923 88.0448 76.5735 88.1582 75.8114 88.1582H72.3159ZM73.4873 87.119H75.8114C76.5767 87.119 77.1199 86.971 77.4411 86.675C77.7655 86.3758 77.9276 86.0136 77.9276 85.5885C77.9276 85.261 77.8442 84.9587 77.6773 84.6815C77.5104 84.4013 77.2726 84.1777 76.964 84.0108C76.6554 83.8407 76.2901 83.7557 75.8681 83.7557H73.4873V87.119ZM73.4873 82.7354H75.6603C76.013 82.7354 76.331 82.6661 76.6144 82.5275C76.901 82.389 77.1278 82.1937 77.2947 81.9418C77.4647 81.6899 77.5497 81.3938 77.5497 81.0537C77.5497 80.6286 77.4017 80.268 77.1057 79.972C76.8097 79.6728 76.3405 79.5232 75.698 79.5232H73.4873V82.7354ZM83.7638 88.3094C83.1088 88.3094 82.5341 88.1535 82.0396 87.8417C81.5484 87.5299 81.1642 87.0938 80.887 86.5332C80.6131 85.9727 80.4761 85.3177 80.4761 84.5682C80.4761 83.8124 80.6131 83.1526 80.887 82.5889C81.1642 82.0252 81.5484 81.5875 82.0396 81.2757C82.5341 80.964 83.1088 80.8081 83.7638 80.8081C84.4188 80.8081 84.992 80.964 85.4832 81.2757C85.9776 81.5875 86.3618 82.0252 86.6358 82.5889C86.9129 83.1526 87.0515 83.8124 87.0515 84.5682C87.0515 85.3177 86.9129 85.9727 86.6358 86.5332C86.3618 87.0938 85.9776 87.5299 85.4832 87.8417C84.992 88.1535 84.4188 88.3094 83.7638 88.3094ZM83.7638 87.3079C84.2614 87.3079 84.6707 87.1804 84.992 86.9253C85.3132 86.6702 85.5509 86.3348 85.7052 85.9192C85.8595 85.5035 85.9367 85.0531 85.9367 84.5682C85.9367 84.0832 85.8595 83.6313 85.7052 83.2125C85.5509 82.7936 85.3132 82.4551 84.992 82.1969C84.6707 81.9386 84.2614 81.8095 83.7638 81.8095C83.2662 81.8095 82.8568 81.9386 82.5356 82.1969C82.2144 82.4551 81.9767 82.7936 81.8223 83.2125C81.668 83.6313 81.5909 84.0832 81.5909 84.5682C81.5909 85.0531 81.668 85.5035 81.8223 85.9192C81.9767 86.3348 82.2144 86.6702 82.5356 86.9253C82.8568 87.1804 83.2662 87.3079 83.7638 87.3079ZM89.2858 80.9026L91.0241 83.8691L92.7625 80.9026H94.0473L91.7044 84.5304L94.0473 88.1582H92.7625L91.0241 85.3429L89.2858 88.1582H88.001L90.3061 84.5304L88.001 80.9026H89.2858Z" fill="white"/>
</g>
<g filter="url(#filter4_d_784_9087)">
<rect x="11" y="277.002" width="108" height="24.3137" rx="4" fill="#314562" shape-rendering="crispEdges"/>
<path d="M34.7097 291.135H35.9946L37.0716 292.552L37.355 292.93L38.9611 295.065H37.6762L36.6181 293.648L36.3536 293.289L34.7097 291.135ZM39.3579 289.321C39.3579 290.341 39.1737 291.223 38.8052 291.966C38.4368 292.71 37.9313 293.283 37.2889 293.686C36.6465 294.089 35.9127 294.29 35.0876 294.29C34.2626 294.29 33.5288 294.089 32.8864 293.686C32.244 293.283 31.7385 292.71 31.3701 291.966C31.0016 291.223 30.8174 290.341 30.8174 289.321C30.8174 288.301 31.0016 287.419 31.3701 286.676C31.7385 285.933 32.244 285.359 32.8864 284.956C33.5288 284.553 34.2626 284.352 35.0876 284.352C35.9127 284.352 36.6465 284.553 37.2889 284.956C37.9313 285.359 38.4368 285.933 38.8052 286.676C39.1737 287.419 39.3579 288.301 39.3579 289.321ZM38.2242 289.321C38.2242 288.483 38.0841 287.776 37.8038 287.2C37.5267 286.624 37.1503 286.188 36.6748 285.892C36.2024 285.596 35.6734 285.448 35.0876 285.448C34.5019 285.448 33.9713 285.596 33.4957 285.892C33.0234 286.188 32.6471 286.624 32.3668 287.2C32.0897 287.776 31.9511 288.483 31.9511 289.321C31.9511 290.159 32.0897 290.866 32.3668 291.442C32.6471 292.018 33.0234 292.455 33.4957 292.751C33.9713 293.047 34.5019 293.195 35.0876 293.195C35.6734 293.195 36.2024 293.047 36.6748 292.751C37.1503 292.455 37.5267 292.018 37.8038 291.442C38.0841 290.866 38.2242 290.159 38.2242 289.321ZM45.7491 291.192V286.903H46.8639V294.158H45.7491V292.93H45.6735C45.5034 293.298 45.2389 293.612 44.8799 293.87C44.5209 294.125 44.0674 294.253 43.5195 294.253C43.066 294.253 42.6629 294.153 42.3102 293.955C41.9575 293.754 41.6804 293.451 41.4788 293.048C41.2773 292.642 41.1765 292.13 41.1765 291.513V286.903H42.2913V291.437C42.2913 291.966 42.4393 292.388 42.7353 292.703C43.0345 293.018 43.4156 293.176 43.8785 293.176C44.1556 293.176 44.4375 293.105 44.724 292.963C45.0137 292.821 45.2562 292.604 45.4515 292.311C45.6499 292.018 45.7491 291.645 45.7491 291.192ZM51.9478 294.309C51.2487 294.309 50.6456 294.155 50.1386 293.846C49.6347 293.535 49.2458 293.1 48.9718 292.543C48.701 291.982 48.5656 291.33 48.5656 290.587C48.5656 289.844 48.701 289.189 48.9718 288.622C49.2458 288.052 49.6269 287.608 50.115 287.29C50.6062 286.969 51.1794 286.808 51.8344 286.808C52.2123 286.808 52.5855 286.871 52.9539 286.997C53.3224 287.123 53.6578 287.328 53.9601 287.611C54.2624 287.891 54.5033 288.263 54.6828 288.726C54.8623 289.189 54.9521 289.759 54.9521 290.436V290.908H49.3592V289.945H53.8184C53.8184 289.535 53.7365 289.17 53.5727 288.849C53.4121 288.528 53.1822 288.274 52.8831 288.088C52.587 287.902 52.2375 287.81 51.8344 287.81C51.3904 287.81 51.0062 287.92 50.6818 288.14C50.3606 288.357 50.1134 288.641 49.9402 288.99C49.767 289.34 49.6804 289.715 49.6804 290.115V290.757C49.6804 291.305 49.7749 291.77 49.9638 292.151C50.1559 292.529 50.422 292.817 50.7621 293.015C51.1022 293.21 51.4974 293.308 51.9478 293.308C52.2406 293.308 52.5052 293.267 52.7414 293.185C52.9807 293.1 53.187 292.974 53.3602 292.807C53.5334 292.637 53.6672 292.426 53.7617 292.174L54.8387 292.477C54.7253 292.842 54.5348 293.163 54.2671 293.44C53.9994 293.714 53.6688 293.928 53.2751 294.083C52.8815 294.234 52.439 294.309 51.9478 294.309ZM61.7873 288.528L60.7859 288.811C60.7229 288.644 60.63 288.482 60.5072 288.324C60.3875 288.164 60.2237 288.032 60.0159 287.928C59.808 287.824 59.5419 287.772 59.2176 287.772C58.7735 287.772 58.4035 287.874 58.1075 288.079C57.8146 288.28 57.6682 288.537 57.6682 288.849C57.6682 289.126 57.769 289.345 57.9705 289.505C58.1721 289.666 58.487 289.8 58.9153 289.907L59.9923 290.171C60.641 290.329 61.1244 290.57 61.4424 290.894C61.7605 291.215 61.9195 291.629 61.9195 292.136C61.9195 292.552 61.7999 292.924 61.5605 293.251C61.3244 293.579 60.9937 293.837 60.5686 294.026C60.1434 294.215 59.649 294.309 59.0853 294.309C58.3453 294.309 57.7328 294.149 57.2478 293.828C56.7628 293.506 56.4558 293.037 56.3267 292.42L57.3848 292.155C57.4855 292.546 57.6761 292.839 57.9563 293.034C58.2398 293.229 58.6098 293.327 59.0664 293.327C59.586 293.327 59.9986 293.217 60.304 292.996C60.6126 292.773 60.767 292.505 60.767 292.193C60.767 291.941 60.6788 291.73 60.5024 291.56C60.3261 291.387 60.0552 291.258 59.6899 291.173L58.4807 290.889C57.8162 290.732 57.3281 290.488 57.0163 290.157C56.7077 289.823 56.5534 289.406 56.5534 288.905C56.5534 288.496 56.6683 288.134 56.8982 287.819C57.1313 287.504 57.4478 287.257 57.8477 287.077C58.2508 286.898 58.7074 286.808 59.2176 286.808C59.9356 286.808 60.4993 286.966 60.9087 287.28C61.3212 287.595 61.6141 288.011 61.7873 288.528ZM66.7531 286.903V287.847H62.993V286.903H66.7531ZM64.0889 285.164H65.2037V292.08C65.2037 292.395 65.2494 292.631 65.3407 292.788C65.4352 292.943 65.5548 293.047 65.6997 293.1C65.8477 293.15 66.0036 293.176 66.1674 293.176C66.2902 293.176 66.3909 293.169 66.4697 293.157C66.5484 293.141 66.6114 293.128 66.6586 293.119L66.8854 294.12C66.8098 294.149 66.7043 294.177 66.5689 294.205C66.4335 294.237 66.2618 294.253 66.054 294.253C65.7391 294.253 65.4305 294.185 65.1281 294.05C64.829 293.914 64.5802 293.708 64.3818 293.431C64.1865 293.154 64.0889 292.804 64.0889 292.382V285.164ZM68.43 294.158V286.903H69.5448V294.158H68.43ZM68.9969 285.693C68.7796 285.693 68.5922 285.619 68.4347 285.471C68.2804 285.323 68.2033 285.145 68.2033 284.938C68.2033 284.73 68.2804 284.552 68.4347 284.404C68.5922 284.256 68.7796 284.182 68.9969 284.182C69.2141 284.182 69.3999 284.256 69.5543 284.404C69.7117 284.552 69.7904 284.73 69.7904 284.938C69.7904 285.145 69.7117 285.323 69.5543 285.471C69.3999 285.619 69.2141 285.693 68.9969 285.693ZM74.5342 294.309C73.8792 294.309 73.3045 294.153 72.8101 293.842C72.3188 293.53 71.9346 293.094 71.6575 292.533C71.3835 291.973 71.2465 291.318 71.2465 290.568C71.2465 289.812 71.3835 289.153 71.6575 288.589C71.9346 288.025 72.3188 287.588 72.8101 287.276C73.3045 286.964 73.8792 286.808 74.5342 286.808C75.1893 286.808 75.7624 286.964 76.2537 287.276C76.7481 287.588 77.1323 288.025 77.4063 288.589C77.6834 289.153 77.8219 289.812 77.8219 290.568C77.8219 291.318 77.6834 291.973 77.4063 292.533C77.1323 293.094 76.7481 293.53 76.2537 293.842C75.7624 294.153 75.1893 294.309 74.5342 294.309ZM74.5342 293.308C75.0318 293.308 75.4412 293.18 75.7624 292.925C76.0836 292.67 76.3214 292.335 76.4757 291.919C76.63 291.503 76.7071 291.053 76.7071 290.568C76.7071 290.083 76.63 289.631 76.4757 289.212C76.3214 288.794 76.0836 288.455 75.7624 288.197C75.4412 287.939 75.0318 287.81 74.5342 287.81C74.0367 287.81 73.6273 287.939 73.3061 288.197C72.9849 288.455 72.7471 288.794 72.5928 289.212C72.4385 289.631 72.3613 290.083 72.3613 290.568C72.3613 291.053 72.4385 291.503 72.5928 291.919C72.7471 292.335 72.9849 292.67 73.3061 292.925C73.6273 293.18 74.0367 293.308 74.5342 293.308ZM80.6385 289.793V294.158H79.5237V286.903H80.6007V288.036H80.6951C80.8652 287.668 81.1234 287.372 81.4698 287.148C81.8162 286.921 82.2634 286.808 82.8114 286.808C83.3026 286.808 83.7325 286.909 84.1009 287.11C84.4694 287.309 84.756 287.611 84.9607 288.017C85.1654 288.42 85.2677 288.931 85.2677 289.548V294.158H84.1529V289.623C84.1529 289.053 84.0049 288.609 83.7089 288.291C83.4129 287.97 83.0066 287.81 82.4902 287.81C82.1343 287.81 81.8162 287.887 81.536 288.041C81.2588 288.195 81.04 288.42 80.8794 288.716C80.7188 289.012 80.6385 289.372 80.6385 289.793ZM92.4442 288.528L91.4428 288.811C91.3798 288.644 91.2869 288.482 91.1641 288.324C91.0444 288.164 90.8807 288.032 90.6728 287.928C90.465 287.824 90.1989 287.772 89.8745 287.772C89.4305 287.772 89.0605 287.874 88.7644 288.079C88.4716 288.28 88.3251 288.537 88.3251 288.849C88.3251 289.126 88.4259 289.345 88.6275 289.505C88.829 289.666 89.1439 289.8 89.5722 289.907L90.6492 290.171C91.2979 290.329 91.7813 290.57 92.0994 290.894C92.4175 291.215 92.5765 291.629 92.5765 292.136C92.5765 292.552 92.4568 292.924 92.2175 293.251C91.9813 293.579 91.6506 293.837 91.2255 294.026C90.8004 294.215 90.3059 294.309 89.7423 294.309C89.0022 294.309 88.3897 294.149 87.9047 293.828C87.4198 293.506 87.1127 293.037 86.9836 292.42L88.0417 292.155C88.1425 292.546 88.333 292.839 88.6133 293.034C88.8967 293.229 89.2667 293.327 89.7234 293.327C90.243 293.327 90.6555 293.217 90.961 292.996C91.2696 292.773 91.4239 292.505 91.4239 292.193C91.4239 291.941 91.3357 291.73 91.1594 291.56C90.983 291.387 90.7122 291.258 90.3469 291.173L89.1376 290.889C88.4731 290.732 87.985 290.488 87.6733 290.157C87.3646 289.823 87.2103 289.406 87.2103 288.905C87.2103 288.496 87.3253 288.134 87.5552 287.819C87.7882 287.504 88.1047 287.257 88.5046 287.077C88.9077 286.898 89.3644 286.808 89.8745 286.808C90.5925 286.808 91.1562 286.966 91.5656 287.28C91.9781 287.595 92.271 288.011 92.4442 288.528ZM95.7095 291.437V291.381C95.7158 290.779 95.7788 290.3 95.8984 289.945C96.0181 289.589 96.1882 289.301 96.4086 289.08C96.629 288.86 96.8936 288.657 97.2022 288.471C97.388 288.357 97.5549 288.224 97.7029 288.069C97.8509 287.912 97.9674 287.731 98.0525 287.526C98.1406 287.321 98.1847 287.095 98.1847 286.846C98.1847 286.537 98.1123 286.27 97.9674 286.043C97.8226 285.816 97.6289 285.641 97.3864 285.519C97.1439 285.396 96.8747 285.334 96.5787 285.334C96.3204 285.334 96.0716 285.388 95.8323 285.495C95.593 285.602 95.393 285.77 95.2324 286C95.0718 286.23 94.9789 286.531 94.9537 286.903H93.7633C93.7885 286.367 93.9271 285.909 94.179 285.528C94.4341 285.147 94.7695 284.856 95.1852 284.654C95.604 284.453 96.0685 284.352 96.5787 284.352C97.1329 284.352 97.6147 284.462 98.0241 284.682C98.4367 284.903 98.7547 285.205 98.9783 285.589C99.205 285.974 99.3184 286.411 99.3184 286.903C99.3184 287.249 99.2649 287.562 99.1578 287.843C99.0539 288.123 98.9027 288.373 98.7043 288.594C98.5091 288.814 98.2729 289.009 97.9958 289.179C97.7186 289.353 97.4966 289.535 97.3297 289.727C97.1628 289.916 97.0416 290.141 96.966 290.403C96.8904 290.664 96.8495 290.99 96.8432 291.381V291.437H95.7095ZM96.3141 294.234C96.0811 294.234 95.8811 294.15 95.7142 293.983C95.5473 293.817 95.4639 293.617 95.4639 293.384C95.4639 293.15 95.5473 292.951 95.7142 292.784C95.8811 292.617 96.0811 292.533 96.3141 292.533C96.5472 292.533 96.7471 292.617 96.914 292.784C97.0809 292.951 97.1644 293.15 97.1644 293.384C97.1644 293.538 97.125 293.68 97.0463 293.809C96.9707 293.938 96.8684 294.042 96.7393 294.12C96.6133 294.196 96.4716 294.234 96.3141 294.234Z" fill="white"/>
</g>
<g filter="url(#filter5_d_784_9087)">
<rect x="233" y="71.002" width="108" height="24.3137" rx="4" fill="#314562" shape-rendering="crispEdges"/>
<path d="M270.703 81.5072H269.532C269.462 81.1702 269.341 80.8742 269.168 80.6191C268.998 80.3641 268.79 80.1499 268.544 79.9767C268.302 79.8004 268.033 79.6681 267.737 79.5799C267.441 79.4918 267.132 79.4477 266.811 79.4477C266.225 79.4477 265.694 79.5957 265.219 79.8917C264.747 80.1877 264.37 80.6239 264.09 81.2002C263.813 81.7765 263.674 82.4834 263.674 83.3211C263.674 84.1588 263.813 84.8658 264.09 85.4421C264.37 86.0184 264.747 86.4545 265.219 86.7505C265.694 87.0466 266.225 87.1946 266.811 87.1946C267.132 87.1946 267.441 87.1505 267.737 87.0623C268.033 86.9741 268.302 86.8434 268.544 86.6702C268.79 86.4939 268.998 86.2782 269.168 86.0231C269.341 85.7649 269.462 85.4688 269.532 85.135H270.703C270.615 85.6294 270.454 86.0719 270.221 86.4624C269.988 86.8529 269.699 87.1851 269.352 87.4591C269.006 87.7299 268.617 87.9362 268.185 88.0779C267.757 88.2196 267.299 88.2905 266.811 88.2905C265.986 88.2905 265.252 88.0889 264.61 87.6858C263.967 87.2827 263.462 86.7096 263.093 85.9664C262.725 85.2232 262.541 84.3414 262.541 83.3211C262.541 82.3008 262.725 81.419 263.093 80.6758C263.462 79.9326 263.967 79.3595 264.61 78.9564C265.252 78.5533 265.986 78.3518 266.811 78.3518C267.299 78.3518 267.757 78.4226 268.185 78.5643C268.617 78.706 269.006 78.9139 269.352 79.1879C269.699 79.4587 269.988 79.7893 270.221 80.1798C270.454 80.5672 270.615 81.0096 270.703 81.5072ZM275.393 88.3094C274.738 88.3094 274.163 88.1535 273.668 87.8417C273.177 87.5299 272.793 87.0938 272.516 86.5332C272.242 85.9727 272.105 85.3177 272.105 84.5682C272.105 83.8124 272.242 83.1526 272.516 82.5889C272.793 82.0252 273.177 81.5875 273.668 81.2757C274.163 80.964 274.738 80.8081 275.393 80.8081C276.048 80.8081 276.621 80.964 277.112 81.2757C277.606 81.5875 277.991 82.0252 278.265 82.5889C278.542 83.1526 278.68 83.8124 278.68 84.5682C278.68 85.3177 278.542 85.9727 278.265 86.5332C277.991 87.0938 277.606 87.5299 277.112 87.8417C276.621 88.1535 276.048 88.3094 275.393 88.3094ZM275.393 87.3079C275.89 87.3079 276.3 87.1804 276.621 86.9253C276.942 86.6702 277.18 86.3348 277.334 85.9192C277.488 85.5035 277.566 85.0531 277.566 84.5682C277.566 84.0832 277.488 83.6313 277.334 83.2125C277.18 82.7936 276.942 82.4551 276.621 82.1969C276.3 81.9386 275.89 81.8095 275.393 81.8095C274.895 81.8095 274.486 81.9386 274.164 82.1969C273.843 82.4551 273.605 82.7936 273.451 83.2125C273.297 83.6313 273.22 84.0832 273.22 84.5682C273.22 85.0531 273.297 85.5035 273.451 85.9192C273.605 86.3348 273.843 86.6702 274.164 86.9253C274.486 87.1804 274.895 87.3079 275.393 87.3079ZM281.497 83.7935V88.1582H280.382V80.9026H281.459V82.0363H281.554C281.724 81.6678 281.982 81.3718 282.328 81.1482C282.675 80.9215 283.122 80.8081 283.67 80.8081C284.161 80.8081 284.591 80.9089 284.959 81.1104C285.328 81.3088 285.614 81.6111 285.819 82.0174C286.024 82.4205 286.126 82.9306 286.126 83.5479V88.1582H285.011V83.6234C285.011 83.0534 284.863 82.6094 284.567 82.2913C284.271 81.9701 283.865 81.8095 283.349 81.8095C282.993 81.8095 282.675 81.8867 282.394 82.041C282.117 82.1953 281.898 82.4205 281.738 82.7165C281.577 83.0125 281.497 83.3715 281.497 83.7935ZM291.319 80.9026V81.8473H287.559V80.9026H291.319ZM288.654 79.1642H289.769V86.0798C289.769 86.3947 289.815 86.6309 289.906 86.7883C290.001 86.9426 290.12 87.0466 290.265 87.1001C290.413 87.1505 290.569 87.1757 290.733 87.1757C290.856 87.1757 290.957 87.1694 291.035 87.1568C291.114 87.141 291.177 87.1284 291.224 87.119L291.451 88.1204C291.375 88.1488 291.27 88.1771 291.134 88.2054C290.999 88.2369 290.827 88.2527 290.62 88.2527C290.305 88.2527 289.996 88.185 289.694 88.0496C289.395 87.9141 289.146 87.7079 288.947 87.4308C288.752 87.1536 288.654 86.8041 288.654 86.3821V79.1642ZM295.96 88.3094C295.261 88.3094 294.658 88.1551 294.151 87.8464C293.647 87.5347 293.258 87.1001 292.984 86.5427C292.713 85.9821 292.578 85.3303 292.578 84.5871C292.578 83.8439 292.713 83.1889 292.984 82.622C293.258 82.052 293.639 81.608 294.127 81.2899C294.618 80.9687 295.191 80.8081 295.846 80.8081C296.224 80.8081 296.597 80.8711 296.966 80.997C297.334 81.123 297.67 81.3277 297.972 81.6111C298.274 81.8914 298.515 82.263 298.695 82.7259C298.874 83.1889 298.964 83.7588 298.964 84.4359V84.9083H293.371V83.9446H297.83C297.83 83.5353 297.748 83.17 297.585 82.8487C297.424 82.5275 297.194 82.274 296.895 82.0882C296.599 81.9024 296.249 81.8095 295.846 81.8095C295.402 81.8095 295.018 81.9197 294.694 82.1402C294.373 82.3575 294.125 82.6409 293.952 82.9905C293.779 83.34 293.692 83.7148 293.692 84.1147V84.7571C293.692 85.3051 293.787 85.7696 293.976 86.1506C294.168 86.5285 294.434 86.8167 294.774 87.0151C295.114 87.2103 295.509 87.3079 295.96 87.3079C296.253 87.3079 296.517 87.267 296.753 87.1851C296.993 87.1001 297.199 86.9741 297.372 86.8072C297.545 86.6372 297.679 86.4262 297.774 86.1742L298.851 86.4766C298.737 86.8419 298.547 87.1631 298.279 87.4402C298.011 87.7142 297.681 87.9283 297.287 88.0826C296.893 88.2338 296.451 88.3094 295.96 88.3094ZM301.775 83.7935V88.1582H300.66V80.9026H301.737V82.0363H301.831C302.001 81.6678 302.26 81.3718 302.606 81.1482C302.952 80.9215 303.4 80.8081 303.948 80.8081C304.439 80.8081 304.869 80.9089 305.237 81.1104C305.606 81.3088 305.892 81.6111 306.097 82.0174C306.302 82.4205 306.404 82.9306 306.404 83.5479V88.1582H305.289V83.6234C305.289 83.0534 305.141 82.6094 304.845 82.2913C304.549 81.9701 304.143 81.8095 303.626 81.8095C303.27 81.8095 302.952 81.8867 302.672 82.041C302.395 82.1953 302.176 82.4205 302.016 82.7165C301.855 83.0125 301.775 83.3715 301.775 83.7935ZM311.596 80.9026V81.8473H307.836V80.9026H311.596ZM308.932 79.1642H310.047V86.0798C310.047 86.3947 310.093 86.6309 310.184 86.7883C310.278 86.9426 310.398 87.0466 310.543 87.1001C310.691 87.1505 310.847 87.1757 311.011 87.1757C311.133 87.1757 311.234 87.1694 311.313 87.1568C311.392 87.141 311.455 87.1284 311.502 87.119L311.729 88.1204C311.653 88.1488 311.548 88.1771 311.412 88.2054C311.277 88.2369 311.105 88.2527 310.897 88.2527C310.582 88.2527 310.274 88.185 309.971 88.0496C309.672 87.9141 309.423 87.7079 309.225 87.4308C309.03 87.1536 308.932 86.8041 308.932 86.3821V79.1642Z" fill="white"/>
</g>
<g filter="url(#filter6_d_784_9087)">
<rect x="235.498" y="276.773" width="108" height="24.3137" rx="4" fill="#314562" shape-rendering="crispEdges"/>
<path d="M272.649 287.279H271.478C271.408 286.942 271.287 286.646 271.114 286.391C270.944 286.136 270.736 285.921 270.49 285.748C270.248 285.572 269.979 285.44 269.683 285.351C269.387 285.263 269.078 285.219 268.757 285.219C268.171 285.219 267.64 285.367 267.165 285.663C266.693 285.959 266.316 286.395 266.036 286.972C265.759 287.548 265.62 288.255 265.62 289.093C265.62 289.93 265.759 290.637 266.036 291.214C266.316 291.79 266.693 292.226 267.165 292.522C267.64 292.818 268.171 292.966 268.757 292.966C269.078 292.966 269.387 292.922 269.683 292.834C269.979 292.746 270.248 292.615 270.49 292.442C270.736 292.265 270.944 292.05 271.114 291.795C271.287 291.536 271.408 291.24 271.478 290.907H272.649C272.561 291.401 272.4 291.843 272.167 292.234C271.934 292.624 271.645 292.957 271.298 293.231C270.952 293.501 270.563 293.708 270.131 293.849C269.703 293.991 269.245 294.062 268.757 294.062C267.932 294.062 267.198 293.86 266.556 293.457C265.913 293.054 265.408 292.481 265.039 291.738C264.671 290.995 264.487 290.113 264.487 289.093C264.487 288.072 264.671 287.191 265.039 286.447C265.408 285.704 265.913 285.131 266.556 284.728C267.198 284.325 267.932 284.123 268.757 284.123C269.245 284.123 269.703 284.194 270.131 284.336C270.563 284.478 270.952 284.685 271.298 284.959C271.645 285.23 271.934 285.561 272.167 285.951C272.4 286.339 272.561 286.781 272.649 287.279ZM277.433 294.081C276.734 294.081 276.131 293.927 275.624 293.618C275.12 293.306 274.731 292.872 274.457 292.314C274.186 291.754 274.051 291.102 274.051 290.359C274.051 289.615 274.186 288.96 274.457 288.393C274.731 287.823 275.112 287.379 275.6 287.061C276.092 286.74 276.665 286.58 277.32 286.58C277.698 286.58 278.071 286.643 278.439 286.769C278.808 286.894 279.143 287.099 279.445 287.383C279.748 287.663 279.989 288.034 280.168 288.497C280.348 288.96 280.437 289.53 280.437 290.207V290.68H274.844V289.716H279.304C279.304 289.307 279.222 288.941 279.058 288.62C278.897 288.299 278.668 288.046 278.368 287.86C278.072 287.674 277.723 287.581 277.32 287.581C276.876 287.581 276.491 287.691 276.167 287.912C275.846 288.129 275.599 288.412 275.425 288.762C275.252 289.111 275.166 289.486 275.166 289.886V290.529C275.166 291.077 275.26 291.541 275.449 291.922C275.641 292.3 275.907 292.588 276.247 292.787C276.588 292.982 276.983 293.079 277.433 293.079C277.726 293.079 277.99 293.038 278.227 292.957C278.466 292.872 278.672 292.746 278.845 292.579C279.019 292.409 279.153 292.198 279.247 291.946L280.324 292.248C280.211 292.613 280.02 292.935 279.752 293.212C279.485 293.486 279.154 293.7 278.76 293.854C278.367 294.005 277.924 294.081 277.433 294.081ZM282.133 293.93V286.674H283.21V287.77H283.286C283.418 287.411 283.657 287.12 284.004 286.896C284.35 286.672 284.741 286.561 285.175 286.561C285.257 286.561 285.359 286.562 285.482 286.565C285.605 286.569 285.698 286.573 285.761 286.58V287.713C285.723 287.704 285.637 287.69 285.501 287.671C285.369 287.649 285.229 287.638 285.081 287.638C284.728 287.638 284.413 287.712 284.136 287.86C283.862 288.005 283.645 288.206 283.484 288.464C283.327 288.719 283.248 289.011 283.248 289.338V293.93H282.133ZM290.693 286.674V287.619H286.932V286.674H290.693ZM288.028 284.936H289.143V291.851C289.143 292.166 289.189 292.402 289.28 292.56C289.375 292.714 289.494 292.818 289.639 292.872C289.787 292.922 289.943 292.947 290.107 292.947C290.23 292.947 290.33 292.941 290.409 292.928C290.488 292.913 290.551 292.9 290.598 292.89L290.825 293.892C290.749 293.92 290.644 293.949 290.508 293.977C290.373 294.008 290.201 294.024 289.993 294.024C289.679 294.024 289.37 293.956 289.068 293.821C288.768 293.686 288.52 293.479 288.321 293.202C288.126 292.925 288.028 292.576 288.028 292.154V284.936ZM295.601 286.674V287.619H291.689V286.674H295.601ZM292.861 293.93V285.673C292.861 285.257 292.958 284.911 293.154 284.633C293.349 284.356 293.602 284.148 293.914 284.01C294.226 283.871 294.555 283.802 294.901 283.802C295.175 283.802 295.399 283.824 295.572 283.868C295.745 283.912 295.874 283.953 295.96 283.991L295.638 284.955C295.582 284.936 295.503 284.912 295.402 284.884C295.304 284.855 295.175 284.841 295.015 284.841C294.646 284.841 294.38 284.934 294.216 285.12C294.056 285.306 293.976 285.578 293.976 285.937V293.93H292.861ZM297.163 293.93V286.674H298.278V293.93H297.163ZM297.73 285.465C297.512 285.465 297.325 285.391 297.168 285.243C297.013 285.095 296.936 284.917 296.936 284.709C296.936 284.501 297.013 284.323 297.168 284.175C297.325 284.027 297.512 283.953 297.73 283.953C297.947 283.953 298.133 284.027 298.287 284.175C298.445 284.323 298.523 284.501 298.523 284.709C298.523 284.917 298.445 285.095 298.287 285.243C298.133 285.391 297.947 285.465 297.73 285.465ZM303.362 294.081C302.662 294.081 302.059 293.927 301.552 293.618C301.049 293.306 300.66 292.872 300.386 292.314C300.115 291.754 299.979 291.102 299.979 290.359C299.979 289.615 300.115 288.96 300.386 288.393C300.66 287.823 301.041 287.379 301.529 287.061C302.02 286.74 302.593 286.58 303.248 286.58C303.626 286.58 303.999 286.643 304.368 286.769C304.736 286.894 305.072 287.099 305.374 287.383C305.676 287.663 305.917 288.034 306.097 288.497C306.276 288.96 306.366 289.53 306.366 290.207V290.68H300.773V289.716H305.232C305.232 289.307 305.15 288.941 304.987 288.62C304.826 288.299 304.596 288.046 304.297 287.86C304.001 287.674 303.651 287.581 303.248 287.581C302.804 287.581 302.42 287.691 302.096 287.912C301.774 288.129 301.527 288.412 301.354 288.762C301.181 289.111 301.094 289.486 301.094 289.886V290.529C301.094 291.077 301.189 291.541 301.378 291.922C301.57 292.3 301.836 292.588 302.176 292.787C302.516 292.982 302.911 293.079 303.362 293.079C303.654 293.079 303.919 293.038 304.155 292.957C304.394 292.872 304.601 292.746 304.774 292.579C304.947 292.409 305.081 292.198 305.175 291.946L306.252 292.248C306.139 292.613 305.949 292.935 305.681 293.212C305.413 293.486 305.083 293.7 304.689 293.854C304.295 294.005 303.853 294.081 303.362 294.081ZM310.801 294.081C310.197 294.081 309.663 293.928 309.2 293.623C308.737 293.314 308.375 292.879 308.114 292.319C307.852 291.755 307.722 291.089 307.722 290.321C307.722 289.559 307.852 288.897 308.114 288.337C308.375 287.776 308.739 287.343 309.205 287.038C309.671 286.732 310.209 286.58 310.82 286.58C311.293 286.58 311.666 286.658 311.94 286.816C312.217 286.97 312.428 287.146 312.573 287.345C312.721 287.54 312.836 287.701 312.918 287.827H313.012V284.256H314.127V293.93H313.05V292.815H312.918C312.836 292.947 312.719 293.114 312.568 293.316C312.417 293.514 312.201 293.692 311.921 293.849C311.641 294.004 311.268 294.081 310.801 294.081ZM310.953 293.079C311.4 293.079 311.778 292.963 312.086 292.73C312.395 292.494 312.63 292.168 312.79 291.752C312.951 291.333 313.031 290.85 313.031 290.302C313.031 289.76 312.952 289.286 312.795 288.88C312.637 288.471 312.404 288.153 312.096 287.926C311.787 287.696 311.406 287.581 310.953 287.581C310.48 287.581 310.087 287.702 309.772 287.945C309.46 288.184 309.225 288.51 309.068 288.923C308.914 289.332 308.836 289.792 308.836 290.302C308.836 290.818 308.915 291.288 309.073 291.71C309.233 292.128 309.469 292.462 309.781 292.711C310.096 292.957 310.487 293.079 310.953 293.079Z" fill="white"/>
</g>
<g filter="url(#filter7_b_784_9087)">
<rect x="134.555" y="290.85" width="82.8906" height="110.928" rx="7" fill="url(#paint0_linear_784_9087)" fill-opacity="0.8"/>
</g>
<path d="M204.857 380.245L205.246 378.034C205.31 377.723 205.237 377.403 205.047 377.148C204.87 376.911 204.611 376.751 204.317 376.708L202.106 376.367L201.086 374.333V374.328C200.935 374.078 200.689 373.901 200.404 373.832C200.115 373.741 199.804 373.767 199.54 373.909L197.528 374.937L195.515 373.832C195.239 373.715 194.928 373.715 194.651 373.832C194.371 373.927 194.142 374.13 194.012 374.397L192.993 376.431L190.782 376.773C190.492 376.816 190.229 376.976 190.052 377.213C189.879 377.455 189.806 377.753 189.853 378.042L190.242 380.254L188.571 381.834C188.359 382.046 188.238 382.331 188.242 382.633C188.242 382.927 188.363 383.212 188.571 383.419L190.194 385.013L189.806 387.224L189.81 387.22C189.758 387.518 189.832 387.82 190.009 388.062C190.186 388.3 190.445 388.459 190.739 388.503L192.95 388.835L193.969 390.869C194.099 391.137 194.328 391.34 194.608 391.435C194.893 391.521 195.204 391.5 195.472 391.366L197.485 390.26L199.497 391.366C199.761 391.504 200.072 391.53 200.357 391.435C200.637 391.34 200.871 391.137 201 390.869L202.019 388.835L204.231 388.503H204.226C204.52 388.459 204.783 388.3 204.956 388.062C205.133 387.82 205.207 387.518 205.155 387.22L204.766 385.009L206.39 383.415L206.394 383.419C206.606 383.212 206.727 382.927 206.727 382.633C206.727 382.331 206.61 382.046 206.394 381.834L204.857 380.245ZM202.9 383.838C202.641 384.089 202.52 384.452 202.581 384.81L202.87 386.512L201.169 386.766H201.164C200.81 386.818 200.499 387.043 200.335 387.362L199.571 388.909L198.081 388.118C197.765 387.937 197.381 387.937 197.061 388.118L195.524 388.913L194.764 387.362C194.6 387.043 194.293 386.818 193.934 386.766L192.233 386.512L192.522 384.81H192.518C192.578 384.452 192.457 384.089 192.198 383.838L190.916 382.676L192.155 381.459C192.414 381.208 192.535 380.845 192.475 380.487L192.185 378.785L193.887 378.543H193.891C194.25 378.487 194.561 378.258 194.72 377.934L195.485 376.388L196.975 377.148C197.316 377.347 197.739 377.347 198.081 377.148L199.618 376.341L200.382 377.887L200.378 377.891C200.538 378.215 200.849 378.444 201.207 378.496L202.909 378.738L202.581 380.465C202.52 380.824 202.641 381.186 202.9 381.437L204.14 382.676L202.9 383.838Z" fill="#23D3AC"/>
<path d="M199.583 380.047L196.754 382.876L195.472 381.571C195.04 381.144 194.344 381.144 193.912 381.571C193.485 382.003 193.485 382.699 193.912 383.13L195.968 385.199C196.176 385.407 196.461 385.523 196.754 385.523C197.048 385.523 197.329 385.407 197.54 385.199L201.142 381.571C201.57 381.14 201.57 380.444 201.142 380.012C200.702 379.593 200.007 379.606 199.583 380.047Z" fill="#23D3AC"/>
<rect x="141.963" y="329.254" width="64.2451" height="2.71777" fill="white" fill-opacity="0.55"/>
<rect x="141.963" y="336.586" width="64.2451" height="2.71777" fill="white" fill-opacity="0.55"/>
<rect x="141.963" y="343.916" width="64.2451" height="2.71777" fill="white" fill-opacity="0.55"/>
<rect x="141.963" y="351.248" width="64.2451" height="2.71777" fill="white" fill-opacity="0.55"/>
<rect x="141.963" y="358.58" width="35.8281" height="2.71777" fill="white" fill-opacity="0.55"/>
<rect x="141.963" y="365.912" width="35.8281" height="2.71777" fill="white" fill-opacity="0.55"/>
<path d="M141.963 319.783C141.963 316.006 145.025 312.943 148.803 312.943H149.539C153.316 312.943 156.379 316.006 156.379 319.783C156.379 320.01 156.195 320.194 155.969 320.194H142.373C142.147 320.194 141.963 320.01 141.963 319.783Z" fill="white" fill-opacity="0.55"/>
<rect x="144.633" y="302.74" width="8.86872" height="8.86872" rx="4.43436" fill="white" fill-opacity="0.55"/>
<circle cx="188.29" cy="334.079" r="10.0672" fill="#F38042"/>
<path d="M194.155 332.672C194.052 332.377 193.784 332.187 193.472 332.187H190.348L188.965 328.639C188.856 328.356 188.597 328.178 188.292 328.178C187.987 328.178 187.729 328.353 187.619 328.639L186.237 332.187H183.11C182.798 332.187 182.532 332.377 182.427 332.672C182.323 332.967 182.415 333.282 182.659 333.474L185.4 335.652L184.188 339.01C184.081 339.308 184.171 339.627 184.422 339.822C184.671 340.017 185.003 340.032 185.268 339.856L188.292 337.847L191.319 339.856C191.443 339.939 191.582 339.978 191.719 339.978C191.875 339.978 192.031 339.925 192.162 339.822C192.411 339.627 192.504 339.308 192.397 339.01L191.182 335.652L193.923 333.474C194.167 333.282 194.257 332.965 194.155 332.672Z" fill="white"/>
<rect x="183.016" y="322.729" width="10.5504" height="1.28242" fill="#1C44A7"/>
<path fill-rule="evenodd" clip-rule="evenodd" d="M166.115 290.85L184.048 321.909H192.537L210.469 290.85H203.145L188.292 316.575L173.44 290.85H166.115Z" fill="#1C44A7"/>
<defs>
<filter id="filter0_d_784_9087" x="136.152" y="54.9238" width="79.6992" height="81.4648" filterUnits="userSpaceOnUse" color-interpolation-filters="sRGB">
<feFlood flood-opacity="0" result="BackgroundImageFix"/>
<feColorMatrix in="SourceAlpha" type="matrix" values="0 0 0 0 0 0 0 0 0 0 0 0 0 0 0 0 0 0 127 0" result="hardAlpha"/>
<feOffset dy="13"/>
<feGaussianBlur stdDeviation="5.5"/>
<feComposite in2="hardAlpha" operator="out"/>
<feColorMatrix type="matrix" values="0 0 0 0 0.242222 0 0 0 0 0.36515 0 0 0 0 0.454167 0 0 0 0.25 0"/>
<feBlend mode="normal" in2="BackgroundImageFix" result="effect1_dropShadow_784_9087"/>
<feBlend mode="normal" in="SourceGraphic" in2="effect1_dropShadow_784_9087" result="shape"/>
</filter>
<filter id="filter1_d_784_9087" x="136.152" y="194.879" width="79.6992" height="81.4648" filterUnits="userSpaceOnUse" color-interpolation-filters="sRGB">
<feFlood flood-opacity="0" result="BackgroundImageFix"/>
<feColorMatrix in="SourceAlpha" type="matrix" values="0 0 0 0 0 0 0 0 0 0 0 0 0 0 0 0 0 0 127 0" result="hardAlpha"/>
<feOffset dy="13"/>
<feGaussianBlur stdDeviation="5.5"/>
<feComposite in2="hardAlpha" operator="out"/>
<feColorMatrix type="matrix" values="0 0 0 0 0.242222 0 0 0 0 0.36515 0 0 0 0 0.454167 0 0 0 0.25 0"/>
<feBlend mode="normal" in2="BackgroundImageFix" result="effect1_dropShadow_784_9087"/>
<feBlend mode="normal" in="SourceGraphic" in2="effect1_dropShadow_784_9087" result="shape"/>
</filter>
<filter id="filter2_d_784_9087" x="112" y="0" width="128" height="46.3145" filterUnits="userSpaceOnUse" color-interpolation-filters="sRGB">
<feFlood flood-opacity="0" result="BackgroundImageFix"/>
<feColorMatrix in="SourceAlpha" type="matrix" values="0 0 0 0 0 0 0 0 0 0 0 0 0 0 0 0 0 0 127 0" result="hardAlpha"/>
<feOffset dy="8"/>
<feGaussianBlur stdDeviation="5.5"/>
<feComposite in2="hardAlpha" operator="out"/>
<feColorMatrix type="matrix" values="0 0 0 0 0.192157 0 0 0 0 0.270588 0 0 0 0 0.384314 0 0 0 0.22 0"/>
<feBlend mode="normal" in2="BackgroundImageFix" result="effect1_dropShadow_784_9087"/>
<feBlend mode="normal" in="SourceGraphic" in2="effect1_dropShadow_784_9087" result="shape"/>
</filter>
<filter id="filter3_d_784_9087" x="0" y="68.002" width="130" height="46.3145" filterUnits="userSpaceOnUse" color-interpolation-filters="sRGB">
<feFlood flood-opacity="0" result="BackgroundImageFix"/>
<feColorMatrix in="SourceAlpha" type="matrix" values="0 0 0 0 0 0 0 0 0 0 0 0 0 0 0 0 0 0 127 0" result="hardAlpha"/>
<feOffset dy="8"/>
<feGaussianBlur stdDeviation="5.5"/>
<feComposite in2="hardAlpha" operator="out"/>
<feColorMatrix type="matrix" values="0 0 0 0 0.192157 0 0 0 0 0.270588 0 0 0 0 0.384314 0 0 0 0.22 0"/>
<feBlend mode="normal" in2="BackgroundImageFix" result="effect1_dropShadow_784_9087"/>
<feBlend mode="normal" in="SourceGraphic" in2="effect1_dropShadow_784_9087" result="shape"/>
</filter>
<filter id="filter4_d_784_9087" x="0" y="274.002" width="130" height="46.3145" filterUnits="userSpaceOnUse" color-interpolation-filters="sRGB">
<feFlood flood-opacity="0" result="BackgroundImageFix"/>
<feColorMatrix in="SourceAlpha" type="matrix" values="0 0 0 0 0 0 0 0 0 0 0 0 0 0 0 0 0 0 127 0" result="hardAlpha"/>
<feOffset dy="8"/>
<feGaussianBlur stdDeviation="5.5"/>
<feComposite in2="hardAlpha" operator="out"/>
<feColorMatrix type="matrix" values="0 0 0 0 0.192157 0 0 0 0 0.270588 0 0 0 0 0.384314 0 0 0 0.22 0"/>
<feBlend mode="normal" in2="BackgroundImageFix" result="effect1_dropShadow_784_9087"/>
<feBlend mode="normal" in="SourceGraphic" in2="effect1_dropShadow_784_9087" result="shape"/>
</filter>
<filter id="filter5_d_784_9087" x="222" y="68.002" width="130" height="46.3145" filterUnits="userSpaceOnUse" color-interpolation-filters="sRGB">
<feFlood flood-opacity="0" result="BackgroundImageFix"/>
<feColorMatrix in="SourceAlpha" type="matrix" values="0 0 0 0 0 0 0 0 0 0 0 0 0 0 0 0 0 0 127 0" result="hardAlpha"/>
<feOffset dy="8"/>
<feGaussianBlur stdDeviation="5.5"/>
<feComposite in2="hardAlpha" operator="out"/>
<feColorMatrix type="matrix" values="0 0 0 0 0.192157 0 0 0 0 0.270588 0 0 0 0 0.384314 0 0 0 0.22 0"/>
<feBlend mode="normal" in2="BackgroundImageFix" result="effect1_dropShadow_784_9087"/>
<feBlend mode="normal" in="SourceGraphic" in2="effect1_dropShadow_784_9087" result="shape"/>
</filter>
<filter id="filter6_d_784_9087" x="224.498" y="273.773" width="130" height="46.3145" filterUnits="userSpaceOnUse" color-interpolation-filters="sRGB">
<feFlood flood-opacity="0" result="BackgroundImageFix"/>
<feColorMatrix in="SourceAlpha" type="matrix" values="0 0 0 0 0 0 0 0 0 0 0 0 0 0 0 0 0 0 127 0" result="hardAlpha"/>
<feOffset dy="8"/>
<feGaussianBlur stdDeviation="5.5"/>
<feComposite in2="hardAlpha" operator="out"/>
<feColorMatrix type="matrix" values="0 0 0 0 0.192157 0 0 0 0 0.270588 0 0 0 0 0.384314 0 0 0 0.22 0"/>
<feBlend mode="normal" in2="BackgroundImageFix" result="effect1_dropShadow_784_9087"/>
<feBlend mode="normal" in="SourceGraphic" in2="effect1_dropShadow_784_9087" result="shape"/>
</filter>
<filter id="filter7_b_784_9087" x="100.555" y="256.85" width="150.891" height="178.928" filterUnits="userSpaceOnUse" color-interpolation-filters="sRGB">
<feFlood flood-opacity="0" result="BackgroundImageFix"/>
<feGaussianBlur in="BackgroundImageFix" stdDeviation="17"/>
<feComposite in2="SourceAlpha" operator="in" result="effect1_backgroundBlur_784_9087"/>
<feBlend mode="normal" in="SourceGraphic" in2="effect1_backgroundBlur_784_9087" result="shape"/>
</filter>
<linearGradient id="paint0_linear_784_9087" x1="176" y1="290.85" x2="176" y2="401.777" gradientUnits="userSpaceOnUse">
<stop stop-color="#64C5F1"/>
<stop offset="1" stop-color="#D9E2FF" stop-opacity="0.36"/>
</linearGradient>
</defs>
</svg>
