<svg width="255" height="62" viewBox="0 0 255 62" fill="none" xmlns="http://www.w3.org/2000/svg">
<path d="M180.592 26.1738V22.3868L190.087 7.42749H193.352V12.6694H191.42L185.434 22.1425V22.3202H198.927V26.1738H180.592ZM191.508 30.1719V25.0189L191.597 23.3419V7.42749H196.106V30.1719H191.508ZM204.513 30.4606C203.78 30.4606 203.151 30.2015 202.625 29.6832C202.107 29.1576 201.848 28.5282 201.848 27.7953C201.848 27.0697 202.107 26.4478 202.625 25.9295C203.151 25.4112 203.78 25.1521 204.513 25.1521C205.224 25.1521 205.846 25.4112 206.379 25.9295C206.912 26.4478 207.178 27.0697 207.178 27.7953C207.178 28.2839 207.053 28.7318 206.801 29.139C206.557 29.5389 206.234 29.8609 205.835 30.1052C205.435 30.3422 204.994 30.4606 204.513 30.4606ZM218.82 7.11653C219.99 7.11653 221.115 7.31273 222.196 7.70513C223.284 8.09753 224.254 8.72315 225.106 9.58199C225.965 10.4408 226.642 11.581 227.138 13.0025C227.642 14.4166 227.897 16.1528 227.904 18.2111C227.904 20.1435 227.686 21.8685 227.249 23.3863C226.82 24.8967 226.202 26.1812 225.395 27.24C224.587 28.2987 223.614 29.1057 222.474 29.661C221.334 30.2089 220.06 30.4828 218.653 30.4828C217.136 30.4828 215.796 30.1904 214.633 29.6055C213.471 29.0132 212.534 28.2099 211.823 27.1956C211.12 26.1738 210.694 25.0263 210.546 23.7528H215.288C215.473 24.582 215.862 25.2262 216.454 25.6852C217.047 26.1368 217.78 26.3626 218.653 26.3626C220.134 26.3626 221.259 25.7185 222.029 24.4303C222.799 23.1346 223.188 21.3614 223.196 19.1106H223.04C222.7 19.777 222.24 20.3508 221.663 20.832C221.086 21.3059 220.423 21.6723 219.675 21.9315C218.935 22.1906 218.146 22.3202 217.31 22.3202C215.969 22.3202 214.774 22.0055 213.722 21.3762C212.671 20.7469 211.842 19.8806 211.235 18.7775C210.628 17.6743 210.324 16.4157 210.324 15.0015C210.317 13.4764 210.668 12.1178 211.379 10.9258C212.09 9.73376 213.082 8.80089 214.355 8.12715C215.636 7.446 217.124 7.10913 218.82 7.11653ZM218.853 10.8925C218.105 10.8925 217.439 11.0701 216.854 11.4255C216.277 11.7809 215.818 12.2585 215.477 12.8582C215.144 13.4579 214.981 14.1279 214.988 14.8683C214.988 15.6161 215.151 16.2898 215.477 16.8895C215.81 17.4818 216.262 17.9557 216.832 18.311C217.41 18.659 218.068 18.833 218.809 18.833C219.364 18.833 219.879 18.7293 220.353 18.522C220.826 18.3147 221.237 18.0297 221.585 17.6669C221.941 17.2967 222.218 16.871 222.418 16.3898C222.618 15.9085 222.718 15.3976 222.718 14.8572C222.711 14.139 222.54 13.4801 222.207 12.8804C221.874 12.2807 221.415 11.7994 220.83 11.4366C220.245 11.0738 219.586 10.8925 218.853 10.8925ZM241.187 6.36135L233.857 33.5924H229.781L237.111 6.36135H241.187ZM248.245 30.3761C247.214 30.3761 246.295 30.1865 245.488 29.8072C244.686 29.4278 244.049 28.9051 243.577 28.2388C243.105 27.5726 242.86 26.8091 242.84 25.9484H245.904C245.938 26.5271 246.181 26.9964 246.633 27.3562C247.086 27.7161 247.623 27.896 248.245 27.896C248.741 27.896 249.179 27.7866 249.558 27.5678C249.943 27.3441 250.242 27.0353 250.456 26.6414C250.674 26.2426 250.784 25.7855 250.784 25.27C250.784 24.7448 250.672 24.2828 250.448 23.8841C250.229 23.4853 249.925 23.1741 249.536 22.9504C249.147 22.7267 248.702 22.6124 248.202 22.6075C247.764 22.6075 247.338 22.6975 246.925 22.8774C246.517 23.0574 246.198 23.3029 245.969 23.6142L243.161 23.1109L243.869 15.2329H253.001V17.8151H246.473L246.086 21.5571H246.174C246.436 21.1876 246.833 20.8812 247.363 20.638C247.893 20.3949 248.486 20.2733 249.143 20.2733C250.042 20.2733 250.845 20.4849 251.55 20.9079C252.255 21.331 252.812 21.9121 253.22 22.6513C253.629 23.3856 253.83 24.2318 253.826 25.1898C253.83 26.1964 253.597 27.0912 253.125 27.8741C252.658 28.6522 252.004 29.2649 251.163 29.7123C250.327 30.1549 249.354 30.3761 248.245 30.3761Z" fill="#2D3436"/>
<path fill-rule="evenodd" clip-rule="evenodd" d="M14.3871 3.38254L17.6071 10.722L25.1172 11.7252C25.8126 11.8212 26.3213 12.5087 26.232 13.2541C26.1869 13.6175 26.0176 13.9324 25.7768 14.1528L20.31 19.638L21.7369 27.6079C21.8703 28.3532 21.4158 29.0699 20.7197 29.2132C20.4167 29.2704 20.1135 29.2132 19.8637 29.0603L13.2275 25.152L6.60097 29.0603C5.97687 29.4329 5.20081 29.1847 4.86206 28.525C4.71009 28.2288 4.6746 27.9038 4.72835 27.6079L6.14609 19.638L0.625767 14.0856C0.116778 13.5695 0.0898987 12.7003 0.571664 12.1553C0.785667 11.9068 1.06273 11.7732 1.34773 11.7348V11.7252L8.85747 10.722L12.0772 3.38254C12.3718 2.69467 13.1303 2.40815 13.772 2.72347C14.0573 2.86673 14.2627 3.10562 14.3871 3.38254Z" fill="url(#paint0_linear_763_5724)"/>
<path fill-rule="evenodd" clip-rule="evenodd" d="M47.4027 3.38254L50.6228 10.722L58.1329 11.7252C58.8282 11.8212 59.337 12.5087 59.2476 13.2541C59.2025 13.6175 59.0332 13.9324 58.7924 14.1528L53.3256 19.638L54.7526 27.6079C54.8859 28.3532 54.4314 29.0699 53.7353 29.2132C53.4323 29.2704 53.1292 29.2132 52.8793 29.0603L46.2431 25.152L39.6166 29.0603C38.9925 29.4329 38.2164 29.1847 37.8777 28.525C37.7257 28.2288 37.6902 27.9038 37.744 27.6079L39.1617 19.638L33.6414 14.0856C33.1324 13.5695 33.1055 12.7003 33.5873 12.1553C33.8013 11.9068 34.0784 11.7732 34.3634 11.7348V11.7252L41.8731 10.722L45.0928 3.38254C45.3874 2.69467 46.1459 2.40815 46.7876 2.72347C47.0729 2.86673 47.2783 3.10562 47.4027 3.38254Z" fill="url(#paint1_linear_763_5724)"/>
<path fill-rule="evenodd" clip-rule="evenodd" d="M82.2543 3.38254L85.4743 10.722L92.9844 11.7252C93.6797 11.8212 94.1885 12.5087 94.0992 13.2541C94.0541 13.6175 93.8848 13.9324 93.644 14.1528L88.1772 19.638L89.6041 27.6079C89.7375 28.3532 89.283 29.0699 88.5869 29.2132C88.2839 29.2704 87.9807 29.2132 87.7309 29.0603L81.0947 25.152L74.4682 29.0603C73.8441 29.4329 73.068 29.1847 72.7292 28.525C72.5773 28.2288 72.5418 27.9038 72.5955 27.6079L74.0133 19.638L68.493 14.0856C67.984 13.5695 67.9571 12.7003 68.4389 12.1553C68.6529 11.9068 68.9299 11.7732 69.2149 11.7348V11.7252L76.7247 10.722L79.9444 3.38254C80.239 2.69467 80.9975 2.40815 81.6391 2.72347C81.9245 2.86673 82.1299 3.10562 82.2543 3.38254Z" fill="url(#paint2_linear_763_5724)"/>
<path fill-rule="evenodd" clip-rule="evenodd" d="M115.266 3.38254L118.486 10.722L125.996 11.7252C126.691 11.8212 127.2 12.5087 127.111 13.2541C127.066 13.6175 126.897 13.9324 126.656 14.1528L121.189 19.638L122.616 27.6079C122.749 28.3532 122.295 29.0699 121.599 29.2132C121.296 29.2704 120.992 29.2132 120.743 29.0603L114.106 25.152L107.48 29.0603C106.856 29.4329 106.08 29.1847 105.741 28.525C105.589 28.2288 105.554 27.9038 105.607 27.6079L107.025 19.638L101.505 14.0856C100.996 13.5695 100.969 12.7003 101.451 12.1553C101.665 11.9068 101.942 11.7732 102.227 11.7348V11.7252L109.736 10.722L112.956 3.38254C113.251 2.69467 114.009 2.40815 114.651 2.72347C114.936 2.86673 115.142 3.10562 115.266 3.38254Z" fill="url(#paint3_linear_763_5724)"/>
<path fill-rule="evenodd" clip-rule="evenodd" d="M150.114 3.38254L153.334 10.722L160.844 11.7252C161.539 11.8212 162.048 12.5087 161.959 13.2541C161.913 13.6175 161.744 13.9324 161.503 14.1528L156.037 19.638L157.463 27.6079C157.597 28.3532 157.142 29.0699 156.446 29.2132C156.143 29.2704 155.84 29.2132 155.59 29.0603L148.954 25.152L142.328 29.0603C141.703 29.4329 140.927 29.1847 140.589 28.525C140.437 28.2288 140.401 27.9038 140.455 27.6079L141.873 19.638L136.352 14.0856C135.843 13.5695 135.816 12.7003 136.298 12.1553C136.512 11.9068 136.789 11.7732 137.074 11.7348V11.7252L144.584 10.722L147.804 3.38254C148.098 2.69467 148.857 2.40815 149.499 2.72347C149.784 2.86673 149.989 3.10562 150.114 3.38254Z" fill="url(#paint4_linear_763_5724)"/>
<path d="M1.69141 57.3926V43.0762H7.0625C8.15625 43.0762 9.0319 43.2227 9.68945 43.5156C10.3535 43.8021 10.8711 44.248 11.2422 44.8535C11.6198 45.4525 11.8086 46.0807 11.8086 46.7383C11.8086 47.3503 11.6426 47.9264 11.3105 48.4668C10.9785 49.0072 10.4772 49.4434 9.80664 49.7754C10.6725 50.0293 11.3366 50.4622 11.7988 51.0742C12.2676 51.6862 12.502 52.4089 12.502 53.2422C12.502 53.9128 12.3587 54.5378 12.0723 55.1172C11.7923 55.6901 11.444 56.1328 11.0273 56.4453C10.6107 56.7578 10.0866 56.9954 9.45508 57.1582C8.83008 57.3145 8.06185 57.3926 7.15039 57.3926H1.69141ZM3.58594 49.0918H6.68164C7.52148 49.0918 8.1237 49.0365 8.48828 48.9258C8.97005 48.7826 9.33138 48.5449 9.57227 48.2129C9.81966 47.8809 9.94336 47.4642 9.94336 46.9629C9.94336 46.4876 9.82943 46.071 9.60156 45.7129C9.3737 45.3483 9.04818 45.1009 8.625 44.9707C8.20182 44.834 7.47591 44.7656 6.44727 44.7656H3.58594V49.0918ZM3.58594 55.7031H7.15039C7.76237 55.7031 8.19206 55.6803 8.43945 55.6348C8.87565 55.5566 9.24023 55.4264 9.5332 55.2441C9.82617 55.0618 10.0671 54.7982 10.2559 54.4531C10.4447 54.1016 10.5391 53.6979 10.5391 53.2422C10.5391 52.7083 10.4023 52.2461 10.1289 51.8555C9.85547 51.4583 9.47461 51.1816 8.98633 51.0254C8.50456 50.8626 7.80794 50.7812 6.89648 50.7812H3.58594V55.7031ZM21.6523 56.1133C21.0013 56.6667 20.373 57.0573 19.7676 57.2852C19.1686 57.513 18.5241 57.627 17.834 57.627C16.6947 57.627 15.819 57.3503 15.207 56.7969C14.5951 56.237 14.2891 55.5241 14.2891 54.6582C14.2891 54.1504 14.403 53.6882 14.6309 53.2715C14.8652 52.8483 15.168 52.5098 15.5391 52.2559C15.9167 52.002 16.3398 51.8099 16.8086 51.6797C17.1536 51.5885 17.6745 51.5007 18.3711 51.416C19.7904 51.2467 20.8353 51.0449 21.5059 50.8105C21.5124 50.5697 21.5156 50.4167 21.5156 50.3516C21.5156 49.6354 21.3496 49.1309 21.0176 48.8379C20.5684 48.4408 19.901 48.2422 19.0156 48.2422C18.1888 48.2422 17.5768 48.3887 17.1797 48.6816C16.7891 48.9681 16.4993 49.4792 16.3105 50.2148L14.5918 49.9805C14.748 49.2448 15.0052 48.6523 15.3633 48.2031C15.7214 47.7474 16.2389 47.3991 16.916 47.1582C17.5931 46.9108 18.3776 46.7871 19.2695 46.7871C20.1549 46.7871 20.8743 46.8913 21.4277 47.0996C21.9811 47.3079 22.388 47.5716 22.6484 47.8906C22.9089 48.2031 23.0911 48.6003 23.1953 49.082C23.2539 49.3815 23.2832 49.9219 23.2832 50.7031V53.0469C23.2832 54.681 23.319 55.7161 23.3906 56.1523C23.4688 56.582 23.6185 56.9954 23.8398 57.3926H22.0039C21.8216 57.028 21.7044 56.6016 21.6523 56.1133ZM21.5059 52.1875C20.8678 52.4479 19.9108 52.6693 18.6348 52.8516C17.9121 52.9557 17.401 53.0729 17.1016 53.2031C16.8021 53.3333 16.571 53.5254 16.4082 53.7793C16.2454 54.0267 16.1641 54.3034 16.1641 54.6094C16.1641 55.0781 16.3398 55.4688 16.6914 55.7812C17.0495 56.0938 17.5703 56.25 18.2539 56.25C18.931 56.25 19.5332 56.1035 20.0605 55.8105C20.5879 55.5111 20.9753 55.1042 21.2227 54.5898C21.4115 54.1927 21.5059 53.6068 21.5059 52.832V52.1875ZM25.3145 54.2969L27.0527 54.0234C27.1504 54.7201 27.4206 55.2539 27.8633 55.625C28.3125 55.9961 28.9375 56.1816 29.7383 56.1816C30.5456 56.1816 31.1445 56.0189 31.5352 55.6934C31.9258 55.3613 32.1211 54.974 32.1211 54.5312C32.1211 54.1341 31.9486 53.8216 31.6035 53.5938C31.3626 53.4375 30.7637 53.2389 29.8066 52.998C28.5176 52.6725 27.6224 52.3926 27.1211 52.1582C26.6263 51.9173 26.2487 51.5885 25.9883 51.1719C25.7344 50.7487 25.6074 50.2832 25.6074 49.7754C25.6074 49.3132 25.7116 48.8867 25.9199 48.4961C26.1348 48.099 26.4245 47.7702 26.7891 47.5098C27.0625 47.3079 27.4336 47.1387 27.9023 47.002C28.3776 46.8587 28.8854 46.7871 29.4258 46.7871C30.2396 46.7871 30.9525 46.9043 31.5645 47.1387C32.1829 47.373 32.6387 47.6921 32.9316 48.0957C33.2246 48.4928 33.4264 49.0267 33.5371 49.6973L31.8184 49.9316C31.7402 49.3978 31.5124 48.9811 31.1348 48.6816C30.7637 48.3822 30.2363 48.2324 29.5527 48.2324C28.7454 48.2324 28.1693 48.3659 27.8242 48.6328C27.4792 48.8997 27.3066 49.2122 27.3066 49.5703C27.3066 49.7982 27.3783 50.0033 27.5215 50.1855C27.6647 50.3743 27.8893 50.5306 28.1953 50.6543C28.3711 50.7194 28.8887 50.8691 29.748 51.1035C30.9915 51.4355 31.8574 51.709 32.3457 51.9238C32.8405 52.1322 33.2279 52.4382 33.5078 52.8418C33.7878 53.2454 33.9277 53.7467 33.9277 54.3457C33.9277 54.9316 33.7552 55.485 33.4102 56.0059C33.0716 56.5202 32.5801 56.9206 31.9355 57.207C31.291 57.487 30.5618 57.627 29.748 57.627C28.4004 57.627 27.3717 57.347 26.6621 56.7871C25.959 56.2272 25.5098 55.3971 25.3145 54.2969ZM43.1172 54.0527L44.9336 54.2773C44.6471 55.3385 44.1165 56.1621 43.3418 56.748C42.5671 57.334 41.5775 57.627 40.373 57.627C38.8561 57.627 37.6517 57.1615 36.7598 56.2305C35.8743 55.293 35.4316 53.9811 35.4316 52.2949C35.4316 50.5501 35.8809 49.196 36.7793 48.2324C37.6777 47.2689 38.8431 46.7871 40.2754 46.7871C41.6621 46.7871 42.7949 47.2591 43.6738 48.2031C44.5527 49.1471 44.9922 50.4753 44.9922 52.1875C44.9922 52.2917 44.9889 52.4479 44.9824 52.6562H37.248C37.3132 53.7956 37.6354 54.668 38.2148 55.2734C38.7943 55.8789 39.5169 56.1816 40.3828 56.1816C41.0273 56.1816 41.5775 56.0124 42.0332 55.6738C42.4889 55.3353 42.8503 54.7949 43.1172 54.0527ZM37.3457 51.2109H43.1367C43.0586 50.3385 42.8372 49.6842 42.4727 49.248C41.9128 48.571 41.1868 48.2324 40.2949 48.2324C39.4876 48.2324 38.8073 48.5026 38.2539 49.043C37.707 49.5833 37.4043 50.306 37.3457 51.2109ZM53.8789 57.3926V56.084C53.2214 57.1126 52.2546 57.627 50.9785 57.627C50.1517 57.627 49.39 57.3991 48.6934 56.9434C48.0033 56.4876 47.4661 55.8529 47.082 55.0391C46.7044 54.2188 46.5156 53.278 46.5156 52.2168C46.5156 51.1816 46.6882 50.2441 47.0332 49.4043C47.3783 48.5579 47.8958 47.9102 48.5859 47.4609C49.276 47.0117 50.0475 46.7871 50.9004 46.7871C51.5254 46.7871 52.082 46.9206 52.5703 47.1875C53.0586 47.4479 53.4557 47.7897 53.7617 48.2129V43.0762H55.5098V57.3926H53.8789ZM48.3223 52.2168C48.3223 53.5449 48.6022 54.5378 49.1621 55.1953C49.722 55.8529 50.3828 56.1816 51.1445 56.1816C51.9128 56.1816 52.5638 55.8691 53.0977 55.2441C53.638 54.6126 53.9082 53.6523 53.9082 52.3633C53.9082 50.944 53.6348 49.9023 53.0879 49.2383C52.541 48.5742 51.8672 48.2422 51.0664 48.2422C50.2852 48.2422 49.6309 48.5612 49.1035 49.1992C48.5827 49.8372 48.3223 50.8431 48.3223 52.2168ZM63.1953 52.207C63.1953 50.2865 63.7292 48.8639 64.7969 47.9395C65.6888 47.1712 66.776 46.7871 68.0586 46.7871C69.4844 46.7871 70.6497 47.2559 71.5547 48.1934C72.4596 49.1243 72.9121 50.4134 72.9121 52.0605C72.9121 53.3952 72.7103 54.4466 72.3066 55.2148C71.9095 55.9766 71.3268 56.569 70.5586 56.9922C69.7969 57.4154 68.9635 57.627 68.0586 57.627C66.6068 57.627 65.4316 57.1615 64.5332 56.2305C63.6413 55.2995 63.1953 53.9583 63.1953 52.207ZM65.002 52.207C65.002 53.5352 65.2917 54.5312 65.8711 55.1953C66.4505 55.8529 67.1797 56.1816 68.0586 56.1816C68.931 56.1816 69.6569 55.8496 70.2363 55.1855C70.8158 54.5215 71.1055 53.5091 71.1055 52.1484C71.1055 50.8659 70.8125 49.8958 70.2266 49.2383C69.6471 48.5742 68.9245 48.2422 68.0586 48.2422C67.1797 48.2422 66.4505 48.571 65.8711 49.2285C65.2917 49.8861 65.002 50.8789 65.002 52.207ZM74.9824 57.3926V47.0215H76.5645V48.4961C77.3262 47.3568 78.4264 46.7871 79.8652 46.7871C80.4902 46.7871 81.0632 46.901 81.584 47.1289C82.1113 47.3503 82.5052 47.6432 82.7656 48.0078C83.026 48.3724 83.2083 48.8053 83.3125 49.3066C83.3776 49.6322 83.4102 50.2018 83.4102 51.0156V57.3926H81.6523V51.084C81.6523 50.3678 81.584 49.834 81.4473 49.4824C81.3105 49.1243 81.0664 48.8411 80.7148 48.6328C80.3698 48.418 79.9629 48.3105 79.4941 48.3105C78.7454 48.3105 78.0977 48.5482 77.5508 49.0234C77.0104 49.4987 76.7402 50.4004 76.7402 51.7285V57.3926H74.9824ZM90.9785 54.2969L92.7168 54.0234C92.8145 54.7201 93.0846 55.2539 93.5273 55.625C93.9766 55.9961 94.6016 56.1816 95.4023 56.1816C96.2096 56.1816 96.8086 56.0189 97.1992 55.6934C97.5898 55.3613 97.7852 54.974 97.7852 54.5312C97.7852 54.1341 97.6126 53.8216 97.2676 53.5938C97.0267 53.4375 96.4277 53.2389 95.4707 52.998C94.1816 52.6725 93.2865 52.3926 92.7852 52.1582C92.2904 51.9173 91.9128 51.5885 91.6523 51.1719C91.3984 50.7487 91.2715 50.2832 91.2715 49.7754C91.2715 49.3132 91.3757 48.8867 91.584 48.4961C91.7988 48.099 92.0885 47.7702 92.4531 47.5098C92.7266 47.3079 93.0977 47.1387 93.5664 47.002C94.0417 46.8587 94.5495 46.7871 95.0898 46.7871C95.9036 46.7871 96.6165 46.9043 97.2285 47.1387C97.847 47.373 98.3027 47.6921 98.5957 48.0957C98.8887 48.4928 99.0905 49.0267 99.2012 49.6973L97.4824 49.9316C97.4043 49.3978 97.1764 48.9811 96.7988 48.6816C96.4277 48.3822 95.9004 48.2324 95.2168 48.2324C94.4095 48.2324 93.8333 48.3659 93.4883 48.6328C93.1432 48.8997 92.9707 49.2122 92.9707 49.5703C92.9707 49.7982 93.0423 50.0033 93.1855 50.1855C93.3288 50.3743 93.5534 50.5306 93.8594 50.6543C94.0352 50.7194 94.5527 50.8691 95.4121 51.1035C96.6556 51.4355 97.5215 51.709 98.0098 51.9238C98.5046 52.1322 98.8919 52.4382 99.1719 52.8418C99.4518 53.2454 99.5918 53.7467 99.5918 54.3457C99.5918 54.9316 99.4193 55.485 99.0742 56.0059C98.7357 56.5202 98.2441 56.9206 97.5996 57.207C96.9551 57.487 96.2259 57.627 95.4121 57.627C94.0645 57.627 93.0358 57.347 92.3262 56.7871C91.623 56.2272 91.1738 55.3971 90.9785 54.2969ZM105.52 55.8203L105.773 57.373C105.279 57.4772 104.836 57.5293 104.445 57.5293C103.807 57.5293 103.312 57.4284 102.961 57.2266C102.609 57.0247 102.362 56.7611 102.219 56.4355C102.076 56.1035 102.004 55.4102 102.004 54.3555V48.3887H100.715V47.0215H102.004V44.4531L103.752 43.3984V47.0215H105.52V48.3887H103.752V54.4531C103.752 54.9544 103.781 55.2767 103.84 55.4199C103.905 55.5632 104.006 55.6771 104.143 55.7617C104.286 55.8464 104.488 55.8887 104.748 55.8887C104.943 55.8887 105.201 55.8659 105.52 55.8203ZM114.348 54.0527L116.164 54.2773C115.878 55.3385 115.347 56.1621 114.572 56.748C113.798 57.334 112.808 57.627 111.604 57.627C110.087 57.627 108.882 57.1615 107.99 56.2305C107.105 55.293 106.662 53.9811 106.662 52.2949C106.662 50.5501 107.111 49.196 108.01 48.2324C108.908 47.2689 110.074 46.7871 111.506 46.7871C112.893 46.7871 114.025 47.2591 114.904 48.2031C115.783 49.1471 116.223 50.4753 116.223 52.1875C116.223 52.2917 116.219 52.4479 116.213 52.6562H108.479C108.544 53.7956 108.866 54.668 109.445 55.2734C110.025 55.8789 110.747 56.1816 111.613 56.1816C112.258 56.1816 112.808 56.0124 113.264 55.6738C113.719 55.3353 114.081 54.7949 114.348 54.0527ZM108.576 51.2109H114.367C114.289 50.3385 114.068 49.6842 113.703 49.248C113.143 48.571 112.417 48.2324 111.525 48.2324C110.718 48.2324 110.038 48.5026 109.484 49.043C108.938 49.5833 108.635 50.306 108.576 51.2109ZM118.342 57.3926V43.0762H120.1V57.3926H118.342ZM122.795 57.3926V43.0762H124.553V57.3926H122.795ZM134.055 56.1133C133.404 56.6667 132.775 57.0573 132.17 57.2852C131.571 57.513 130.926 57.627 130.236 57.627C129.097 57.627 128.221 57.3503 127.609 56.7969C126.997 56.237 126.691 55.5241 126.691 54.6582C126.691 54.1504 126.805 53.6882 127.033 53.2715C127.268 52.8483 127.57 52.5098 127.941 52.2559C128.319 52.002 128.742 51.8099 129.211 51.6797C129.556 51.5885 130.077 51.5007 130.773 51.416C132.193 51.2467 133.238 51.0449 133.908 50.8105C133.915 50.5697 133.918 50.4167 133.918 50.3516C133.918 49.6354 133.752 49.1309 133.42 48.8379C132.971 48.4408 132.303 48.2422 131.418 48.2422C130.591 48.2422 129.979 48.3887 129.582 48.6816C129.191 48.9681 128.902 49.4792 128.713 50.2148L126.994 49.9805C127.15 49.2448 127.408 48.6523 127.766 48.2031C128.124 47.7474 128.641 47.3991 129.318 47.1582C129.995 46.9108 130.78 46.7871 131.672 46.7871C132.557 46.7871 133.277 46.8913 133.83 47.0996C134.383 47.3079 134.79 47.5716 135.051 47.8906C135.311 48.2031 135.493 48.6003 135.598 49.082C135.656 49.3815 135.686 49.9219 135.686 50.7031V53.0469C135.686 54.681 135.721 55.7161 135.793 56.1523C135.871 56.582 136.021 56.9954 136.242 57.3926H134.406C134.224 57.028 134.107 56.6016 134.055 56.1133ZM133.908 52.1875C133.27 52.4479 132.313 52.6693 131.037 52.8516C130.314 52.9557 129.803 53.0729 129.504 53.2031C129.204 53.3333 128.973 53.5254 128.811 53.7793C128.648 54.0267 128.566 54.3034 128.566 54.6094C128.566 55.0781 128.742 55.4688 129.094 55.7812C129.452 56.0938 129.973 56.25 130.656 56.25C131.333 56.25 131.936 56.1035 132.463 55.8105C132.99 55.5111 133.378 55.1042 133.625 54.5898C133.814 54.1927 133.908 53.6068 133.908 52.832V52.1875ZM138.4 57.3926V47.0215H139.982V48.5938C140.386 47.8581 140.757 47.373 141.096 47.1387C141.441 46.9043 141.818 46.7871 142.229 46.7871C142.821 46.7871 143.423 46.9759 144.035 47.3535L143.43 48.9844C143 48.7305 142.57 48.6035 142.141 48.6035C141.757 48.6035 141.411 48.7207 141.105 48.9551C140.799 49.1829 140.581 49.502 140.451 49.9121C140.256 50.5371 140.158 51.2207 140.158 51.9629V57.3926H138.4ZM150.627 57.3926V47.0215H152.209V48.5938C152.613 47.8581 152.984 47.373 153.322 47.1387C153.667 46.9043 154.045 46.7871 154.455 46.7871C155.048 46.7871 155.65 46.9759 156.262 47.3535L155.656 48.9844C155.227 48.7305 154.797 48.6035 154.367 48.6035C153.983 48.6035 153.638 48.7207 153.332 48.9551C153.026 49.1829 152.808 49.502 152.678 49.9121C152.482 50.5371 152.385 51.2207 152.385 51.9629V57.3926H150.627ZM164.406 54.0527L166.223 54.2773C165.936 55.3385 165.406 56.1621 164.631 56.748C163.856 57.334 162.867 57.627 161.662 57.627C160.145 57.627 158.941 57.1615 158.049 56.2305C157.163 55.293 156.721 53.9811 156.721 52.2949C156.721 50.5501 157.17 49.196 158.068 48.2324C158.967 47.2689 160.132 46.7871 161.564 46.7871C162.951 46.7871 164.084 47.2591 164.963 48.2031C165.842 49.1471 166.281 50.4753 166.281 52.1875C166.281 52.2917 166.278 52.4479 166.271 52.6562H158.537C158.602 53.7956 158.924 54.668 159.504 55.2734C160.083 55.8789 160.806 56.1816 161.672 56.1816C162.316 56.1816 162.867 56.0124 163.322 55.6738C163.778 55.3353 164.139 54.7949 164.406 54.0527ZM158.635 51.2109H164.426C164.348 50.3385 164.126 49.6842 163.762 49.248C163.202 48.571 162.476 48.2324 161.584 48.2324C160.777 48.2324 160.096 48.5026 159.543 49.043C158.996 49.5833 158.693 50.306 158.635 51.2109ZM171.32 57.3926L167.375 47.0215H169.23L171.457 53.2324C171.698 53.903 171.919 54.5996 172.121 55.3223C172.277 54.7754 172.495 54.1178 172.775 53.3496L175.08 47.0215H176.887L172.961 57.3926H171.32ZM178.449 45.0977V43.0762H180.207V45.0977H178.449ZM178.449 57.3926V47.0215H180.207V57.3926H178.449ZM189.992 54.0527L191.809 54.2773C191.522 55.3385 190.992 56.1621 190.217 56.748C189.442 57.334 188.452 57.627 187.248 57.627C185.731 57.627 184.527 57.1615 183.635 56.2305C182.749 55.293 182.307 53.9811 182.307 52.2949C182.307 50.5501 182.756 49.196 183.654 48.2324C184.553 47.2689 185.718 46.7871 187.15 46.7871C188.537 46.7871 189.67 47.2591 190.549 48.2031C191.428 49.1471 191.867 50.4753 191.867 52.1875C191.867 52.2917 191.864 52.4479 191.857 52.6562H184.123C184.188 53.7956 184.51 54.668 185.09 55.2734C185.669 55.8789 186.392 56.1816 187.258 56.1816C187.902 56.1816 188.452 56.0124 188.908 55.6738C189.364 55.3353 189.725 54.7949 189.992 54.0527ZM184.221 51.2109H190.012C189.934 50.3385 189.712 49.6842 189.348 49.248C188.788 48.571 188.062 48.2324 187.17 48.2324C186.363 48.2324 185.682 48.5026 185.129 49.043C184.582 49.5833 184.279 50.306 184.221 51.2109ZM195.939 57.3926L192.766 47.0215H194.582L196.232 53.0078L196.848 55.2344C196.874 55.1237 197.053 54.4108 197.385 53.0957L199.035 47.0215H200.842L202.395 53.0371L202.912 55.0195L203.508 53.0176L205.285 47.0215H206.994L203.752 57.3926H201.926L200.275 51.1816L199.875 49.4141L197.775 57.3926H195.939ZM207.775 54.2969L209.514 54.0234C209.611 54.7201 209.882 55.2539 210.324 55.625C210.773 55.9961 211.398 56.1816 212.199 56.1816C213.007 56.1816 213.605 56.0189 213.996 55.6934C214.387 55.3613 214.582 54.974 214.582 54.5312C214.582 54.1341 214.41 53.8216 214.064 53.5938C213.824 53.4375 213.225 53.2389 212.268 52.998C210.979 52.6725 210.083 52.3926 209.582 52.1582C209.087 51.9173 208.71 51.5885 208.449 51.1719C208.195 50.7487 208.068 50.2832 208.068 49.7754C208.068 49.3132 208.173 48.8867 208.381 48.4961C208.596 48.099 208.885 47.7702 209.25 47.5098C209.523 47.3079 209.895 47.1387 210.363 47.002C210.839 46.8587 211.346 46.7871 211.887 46.7871C212.701 46.7871 213.413 46.9043 214.025 47.1387C214.644 47.373 215.1 47.6921 215.393 48.0957C215.686 48.4928 215.887 49.0267 215.998 49.6973L214.279 49.9316C214.201 49.3978 213.973 48.9811 213.596 48.6816C213.225 48.3822 212.697 48.2324 212.014 48.2324C211.206 48.2324 210.63 48.3659 210.285 48.6328C209.94 48.8997 209.768 49.2122 209.768 49.5703C209.768 49.7982 209.839 50.0033 209.982 50.1855C210.126 50.3743 210.35 50.5306 210.656 50.6543C210.832 50.7194 211.35 50.8691 212.209 51.1035C213.452 51.4355 214.318 51.709 214.807 51.9238C215.301 52.1322 215.689 52.4382 215.969 52.8418C216.249 53.2454 216.389 53.7467 216.389 54.3457C216.389 54.9316 216.216 55.485 215.871 56.0059C215.533 56.5202 215.041 56.9206 214.396 57.207C213.752 57.487 213.023 57.627 212.209 57.627C210.861 57.627 209.833 57.347 209.123 56.7871C208.42 56.2272 207.971 55.3971 207.775 54.2969ZM223.391 52.207C223.391 50.2865 223.924 48.8639 224.992 47.9395C225.884 47.1712 226.971 46.7871 228.254 46.7871C229.68 46.7871 230.845 47.2559 231.75 48.1934C232.655 49.1243 233.107 50.4134 233.107 52.0605C233.107 53.3952 232.906 54.4466 232.502 55.2148C232.105 55.9766 231.522 56.569 230.754 56.9922C229.992 57.4154 229.159 57.627 228.254 57.627C226.802 57.627 225.627 57.1615 224.729 56.2305C223.837 55.2995 223.391 53.9583 223.391 52.207ZM225.197 52.207C225.197 53.5352 225.487 54.5312 226.066 55.1953C226.646 55.8529 227.375 56.1816 228.254 56.1816C229.126 56.1816 229.852 55.8496 230.432 55.1855C231.011 54.5215 231.301 53.5091 231.301 52.1484C231.301 50.8659 231.008 49.8958 230.422 49.2383C229.842 48.5742 229.12 48.2422 228.254 48.2422C227.375 48.2422 226.646 48.571 226.066 49.2285C225.487 49.8861 225.197 50.8789 225.197 52.207ZM235.178 57.3926V47.0215H236.76V48.4961C237.521 47.3568 238.622 46.7871 240.061 46.7871C240.686 46.7871 241.258 46.901 241.779 47.1289C242.307 47.3503 242.701 47.6432 242.961 48.0078C243.221 48.3724 243.404 48.8053 243.508 49.3066C243.573 49.6322 243.605 50.2018 243.605 51.0156V57.3926H241.848V51.084C241.848 50.3678 241.779 49.834 241.643 49.4824C241.506 49.1243 241.262 48.8411 240.91 48.6328C240.565 48.418 240.158 48.3105 239.689 48.3105C238.941 48.3105 238.293 48.5482 237.746 49.0234C237.206 49.4987 236.936 50.4004 236.936 51.7285V57.3926H235.178Z" fill="#7C828D"/>
<defs>
<linearGradient id="paint0_linear_763_5724" x1="0.226562" y1="2.5957" x2="0.226562" y2="29.235" gradientUnits="userSpaceOnUse">
<stop stop-color="#23C3F5"/>
<stop offset="1" stop-color="#4986FB"/>
</linearGradient>
<linearGradient id="paint1_linear_763_5724" x1="33.2422" y1="2.5957" x2="33.2422" y2="29.235" gradientUnits="userSpaceOnUse">
<stop stop-color="#23C3F5"/>
<stop offset="1" stop-color="#4986FB"/>
</linearGradient>
<linearGradient id="paint2_linear_763_5724" x1="68.0938" y1="2.5957" x2="68.0938" y2="29.235" gradientUnits="userSpaceOnUse">
<stop stop-color="#23C3F5"/>
<stop offset="1" stop-color="#4986FB"/>
</linearGradient>
<linearGradient id="paint3_linear_763_5724" x1="101.105" y1="2.5957" x2="101.105" y2="29.235" gradientUnits="userSpaceOnUse">
<stop stop-color="#23C3F5"/>
<stop offset="1" stop-color="#4986FB"/>
</linearGradient>
<linearGradient id="paint4_linear_763_5724" x1="135.953" y1="2.5957" x2="135.953" y2="29.235" gradientUnits="userSpaceOnUse">
<stop stop-color="#23C3F5"/>
<stop offset="1" stop-color="#4986FB"/>
</linearGradient>
</defs>
</svg>
