<svg width="868" height="161" viewBox="0 0 868 161" fill="none" xmlns="http://www.w3.org/2000/svg">
<g filter="url(#filter0_f_762_5683)">
<ellipse cx="433.68" cy="80.3837" rx="153.809" ry="28.0087" fill="url(#paint0_radial_762_5683)" fill-opacity="0.57"/>
</g>
<circle cx="433.68" cy="80.3828" r="44" fill="white"/>
<path d="M463.32 70.481C463.467 71.4739 462.769 70.7628 462.769 70.7628C459.92 67.1269 463.266 61.0491 463.266 61.0491C463.696 60.3514 464.126 59.7208 464.569 59.1439C457.797 49.3228 446.471 42.8828 433.613 42.8828C413.835 42.8828 397.644 58.1645 396.18 77.5382C403.664 73.9157 411.819 82.8781 411.819 82.8781L415.03 86.0579C424.691 95.6911 427.472 95.6106 428.87 93.3968C428.87 93.3968 430.804 90.5927 427.58 84.904C423.67 78.0347 427.956 72.9497 427.956 72.9497C439.336 57.5071 457.556 77.1492 457.556 77.1492C463.991 83.5624 468.076 85.9639 470.656 86.6482C470.992 84.6089 471.18 82.5293 471.18 80.396C471.18 75.8746 470.374 71.541 468.909 67.5294C463.924 65.8254 463.226 69.8505 463.32 70.4945V70.481Z" fill="#76C4D5"/>
<path d="M446.014 88.6883C438.436 81.1347 433.988 78.988 431.409 78.9746C431.127 79.0014 428.977 79.2429 429.393 81.4299C429.77 83.335 436.635 92.2974 428.708 100.24C417.597 109.592 405.665 95.4101 405.665 95.4101C401.97 91.9754 397.51 86.7295 396.945 88.4602C400.654 105.285 415.662 117.883 433.612 117.883C447.425 117.883 459.49 110.437 466.02 99.3412C456.44 99.9181 446.014 88.6883 446.014 88.6883Z" fill="#007496"/>
<g opacity="0.5">
<rect width="148.318" height="6.05117" transform="matrix(1 0 0 -1 547.207 74.332)" fill="url(#paint1_linear_762_5683)"/>
<rect width="6.05117" height="6.05117" transform="matrix(1 0 0 -1 547.207 74.332)" fill="#7CEAFF"/>
</g>
<g opacity="0.5">
<rect width="148.318" height="6.05117" transform="matrix(1 0 0 -1 570.719 51.998)" fill="url(#paint2_linear_762_5683)"/>
<rect width="6.05117" height="6.05117" transform="matrix(1 0 0 -1 570.719 51.998)" fill="#7D7CFF"/>
</g>
<g opacity="0.5">
<rect width="148.318" height="6.05117" transform="matrix(1 0 0 -1 613.922 97.373)" fill="url(#paint3_linear_762_5683)"/>
<rect width="6.05117" height="6.05117" transform="matrix(1 0 0 -1 613.922 97.373)" fill="#DEB4AC"/>
</g>
<g opacity="0.5">
<rect width="148.318" height="6.05117" transform="matrix(1 0 0 -1 719.035 80.3828)" fill="url(#paint4_linear_762_5683)"/>
<rect width="6.05117" height="6.05117" transform="matrix(1 0 0 -1 719.035 80.3828)" fill="#8BECFF"/>
</g>
<g opacity="0.5">
<rect x="320.145" y="74.332" width="148.318" height="6.05117" transform="rotate(180 320.145 74.332)" fill="url(#paint5_linear_762_5683)"/>
<rect x="320.145" y="74.332" width="6.05117" height="6.05117" transform="rotate(180 320.145 74.332)" fill="#7CEAFF"/>
</g>
<g opacity="0.5">
<rect x="296.633" y="51.998" width="148.318" height="6.05117" transform="rotate(180 296.633 51.998)" fill="url(#paint6_linear_762_5683)"/>
<rect x="296.633" y="51.998" width="6.05117" height="6.05117" transform="rotate(180 296.633 51.998)" fill="#7D7CFF"/>
</g>
<g opacity="0.5">
<rect x="253.43" y="97.373" width="148.318" height="6.05117" transform="rotate(180 253.43 97.373)" fill="url(#paint7_linear_762_5683)"/>
<rect x="253.43" y="97.373" width="6.05117" height="6.05117" transform="rotate(180 253.43 97.373)" fill="#DEB4AC"/>
</g>
<g opacity="0.5">
<rect x="148.316" y="80.3828" width="148.318" height="6.05117" transform="rotate(180 148.316 80.3828)" fill="url(#paint8_linear_762_5683)"/>
<rect x="148.316" y="80.3828" width="6.05117" height="6.05117" transform="rotate(180 148.316 80.3828)" fill="#8BECFF"/>
</g>
<defs>
<filter id="filter0_f_762_5683" x="227.871" y="0.375" width="411.617" height="160.018" filterUnits="userSpaceOnUse" color-interpolation-filters="sRGB">
<feFlood flood-opacity="0" result="BackgroundImageFix"/>
<feBlend mode="normal" in="SourceGraphic" in2="BackgroundImageFix" result="shape"/>
<feGaussianBlur stdDeviation="26" result="effect1_foregroundBlur_762_5683"/>
</filter>
<radialGradient id="paint0_radial_762_5683" cx="0" cy="0" r="1" gradientUnits="userSpaceOnUse" gradientTransform="translate(433.68 108.392) scale(140.463 771.346)">
<stop stop-color="#1EEDFA"/>
<stop offset="1" stop-color="#1E83FA" stop-opacity="0.35"/>
</radialGradient>
<linearGradient id="paint1_linear_762_5683" x1="1.91153e-07" y1="6.61373" x2="148.318" y2="6.61373" gradientUnits="userSpaceOnUse">
<stop stop-color="#7CEAFF" stop-opacity="0.46"/>
<stop offset="1" stop-color="#7CEAFF" stop-opacity="0"/>
</linearGradient>
<linearGradient id="paint2_linear_762_5683" x1="1.91153e-07" y1="6.61373" x2="148.318" y2="6.61373" gradientUnits="userSpaceOnUse">
<stop stop-color="#7D7CFF" stop-opacity="0.46"/>
<stop offset="1" stop-color="#7D7CFF" stop-opacity="0"/>
</linearGradient>
<linearGradient id="paint3_linear_762_5683" x1="1.91153e-07" y1="6.61373" x2="148.318" y2="6.61373" gradientUnits="userSpaceOnUse">
<stop stop-color="#DEB4AC" stop-opacity="0.46"/>
<stop offset="1" stop-color="#DEB4AC" stop-opacity="0"/>
</linearGradient>
<linearGradient id="paint4_linear_762_5683" x1="1.91153e-07" y1="6.61373" x2="148.318" y2="6.61373" gradientUnits="userSpaceOnUse">
<stop stop-color="#8BECFF" stop-opacity="0.46"/>
<stop offset="1" stop-color="#8BECFF" stop-opacity="0"/>
</linearGradient>
<linearGradient id="paint5_linear_762_5683" x1="320.145" y1="80.9458" x2="468.462" y2="80.9458" gradientUnits="userSpaceOnUse">
<stop stop-color="#7CEAFF" stop-opacity="0.46"/>
<stop offset="1" stop-color="#7CEAFF" stop-opacity="0"/>
</linearGradient>
<linearGradient id="paint6_linear_762_5683" x1="296.633" y1="58.6118" x2="444.95" y2="58.6118" gradientUnits="userSpaceOnUse">
<stop stop-color="#7D7CFF" stop-opacity="0.46"/>
<stop offset="1" stop-color="#7D7CFF" stop-opacity="0"/>
</linearGradient>
<linearGradient id="paint7_linear_762_5683" x1="253.43" y1="103.987" x2="401.747" y2="103.987" gradientUnits="userSpaceOnUse">
<stop stop-color="#DEB4AC" stop-opacity="0.46"/>
<stop offset="1" stop-color="#DEB4AC" stop-opacity="0"/>
</linearGradient>
<linearGradient id="paint8_linear_762_5683" x1="148.316" y1="86.9965" x2="296.634" y2="86.9965" gradientUnits="userSpaceOnUse">
<stop stop-color="#8BECFF" stop-opacity="0.46"/>
<stop offset="1" stop-color="#8BECFF" stop-opacity="0"/>
</linearGradient>
</defs>
</svg>
