<svg width="1441" height="583" viewBox="0 0 1441 583" fill="none" xmlns="http://www.w3.org/2000/svg">
<g clip-path="url(#clip0_472_5341)">
<rect width="1440" height="582" transform="translate(0.623047 0.582031)" fill="white"/>
<rect opacity="0.8" x="146.512" y="293.172" width="55.5229" height="104.105" rx="7" fill="#D9D9D9" fill-opacity="0.33"/>
<g filter="url(#filter0_f_472_5341)">
<rect x="-72.1338" y="-6.81836" width="1585.94" height="481.695" fill="#143D95"/>
</g>
<g filter="url(#filter1_b_472_5341)">
<rect x="56.2451" y="372.828" width="40.937" height="35.1553" rx="3" fill="url(#paint0_linear_472_5341)" fill-opacity="0.8"/>
</g>
<path d="M76.7135 377.33C72.5743 377.33 69.2422 380.687 69.2422 384.801C69.2422 388.915 72.599 392.273 76.7135 392.273C80.827 392.273 84.1848 388.916 84.1848 384.801C84.1848 380.688 80.853 377.33 76.7135 377.33ZM75.2752 388.486L75.1997 388.537L72.1455 385.458L73.5839 384.044L75.2245 385.71L79.843 381.091L81.2814 382.53L75.2752 388.486Z" fill="white" fill-opacity="0.58"/>
<rect x="62.2891" y="395.814" width="27.8704" height="1.73672" rx="0.868358" fill="white" fill-opacity="0.58"/>
<rect x="62.2891" y="399.555" width="23.7258" height="1.73672" rx="0.868358" fill="white" fill-opacity="0.52"/>
<rect x="62.2891" y="403.297" width="28.8492" height="1.73672" rx="0.868358" fill="white" fill-opacity="0.58"/>
<path d="M1339.11 217.18C1338.9 216.976 1338.57 216.976 1338.37 217.18L1335.05 220.503C1334.84 220.707 1334.84 221.038 1335.05 221.242C1335.25 221.446 1335.58 221.446 1335.78 221.242L1338.74 218.287L1341.69 221.242C1341.9 221.446 1342.23 221.446 1342.43 221.242C1342.64 221.038 1342.64 220.707 1342.43 220.503L1339.11 217.18ZM1284.54 313.599H1330.38V312.555H1284.54V313.599ZM1339.26 304.721V217.549H1338.22V304.721H1339.26ZM1330.38 313.599C1335.29 313.599 1339.26 309.624 1339.26 304.721H1338.22C1338.22 309.047 1334.71 312.555 1330.38 312.555V313.599Z" fill="white" fill-opacity="0.3"/>
<path d="M1207.18 217.814L1201.96 214.799V220.83L1207.18 217.814ZM1177.34 298.028H1175.4V299.072H1177.34V298.028ZM1171.5 298.028H1167.6V299.072H1171.5V298.028ZM1163.71 298.028H1159.81V299.072H1163.71V298.028ZM1155.92 298.028H1152.02V299.072H1155.92V298.028ZM1148.12 298.028H1146.18V299.072H1148.12V298.028ZM1146.18 298.028C1145.65 298.028 1145.14 297.976 1144.65 297.879L1144.44 298.903C1145.01 299.014 1145.58 299.072 1146.18 299.072V298.028ZM1141.82 296.708C1140.97 296.136 1140.23 295.401 1139.66 294.546L1138.79 295.127C1139.44 296.095 1140.28 296.928 1141.24 297.576L1141.82 296.708ZM1138.49 291.723C1138.39 291.229 1138.34 290.717 1138.34 290.194H1137.3C1137.3 290.786 1137.36 291.365 1137.47 291.926L1138.49 291.723ZM1138.34 290.194V288.193H1137.3V290.194H1138.34ZM1138.34 284.191V280.19H1137.3V284.191H1138.34ZM1138.34 276.189V272.187H1137.3V276.189H1138.34ZM1138.34 268.186V264.184H1137.3V268.186H1138.34ZM1138.34 260.183V256.181H1137.3V260.183H1138.34ZM1138.34 252.18V248.179H1137.3V252.18H1138.34ZM1138.34 244.177V240.176H1137.3V244.177H1138.34ZM1138.34 236.174V232.173H1137.3V236.174H1138.34ZM1138.34 228.171V226.171H1137.3V228.171H1138.34ZM1138.34 226.171C1138.34 225.647 1138.39 225.136 1138.49 224.641L1137.47 224.439C1137.36 224.999 1137.3 225.578 1137.3 226.171H1138.34ZM1139.66 221.818C1140.23 220.964 1140.97 220.228 1141.82 219.656L1141.24 218.788C1140.28 219.436 1139.44 220.269 1138.79 221.237L1139.66 221.818ZM1144.65 218.486C1145.14 218.388 1145.65 218.337 1146.18 218.337V217.292C1145.58 217.292 1145.01 217.35 1144.44 217.461L1144.65 218.486ZM1146.18 218.337H1148.36V217.292H1146.18V218.337ZM1152.71 218.337H1157.07V217.292H1152.71V218.337ZM1161.43 218.337H1165.79V217.292H1161.43V218.337ZM1170.14 218.337H1174.5V217.292H1170.14V218.337ZM1178.86 218.337H1183.22V217.292H1178.86V218.337ZM1187.57 218.337H1191.93V217.292H1187.57V218.337ZM1196.29 218.337H1200.65V217.292H1196.29V218.337Z" fill="white" fill-opacity="0.3"/>
<g filter="url(#filter2_b_472_5341)">
<rect x="1215.34" y="204.412" width="42.8942" height="26.8152" rx="2" fill="url(#paint1_linear_472_5341)"/>
</g>
<path d="M1216.44 205.92L1235.34 223.968C1236.15 224.738 1237.42 224.738 1238.23 223.968L1257.13 205.92" stroke="white" stroke-opacity="0.3" stroke-width="1.04454"/>
<path d="M1216.35 229.844L1228.92 218.648" stroke="white" stroke-opacity="0.3" stroke-width="1.04454"/>
<path d="M1257.13 229.844L1244.57 218.648" stroke="white" stroke-opacity="0.3" stroke-width="1.04454"/>
<path d="M1237.03 218.13C1236.23 218.13 1235.51 218.019 1234.89 217.799C1234.27 217.581 1233.75 217.259 1233.32 216.833C1232.89 216.41 1232.57 215.891 1232.35 215.275C1232.13 214.66 1232.02 213.958 1232.02 213.168C1232.02 212.4 1232.13 211.709 1232.35 211.097C1232.58 210.484 1232.9 209.962 1233.33 209.531C1233.76 209.097 1234.28 208.766 1234.89 208.538C1235.5 208.31 1236.2 208.195 1236.98 208.195C1237.72 208.195 1238.38 208.312 1238.95 208.546C1239.52 208.779 1239.99 209.1 1240.38 209.508C1240.77 209.915 1241.06 210.383 1241.26 210.91C1241.46 211.437 1241.56 211.994 1241.56 212.58C1241.56 212.991 1241.53 213.392 1241.48 213.784C1241.43 214.173 1241.33 214.526 1241.19 214.843C1241.05 215.157 1240.85 215.409 1240.59 215.598C1240.33 215.785 1239.99 215.883 1239.58 215.891C1239.36 215.898 1239.14 215.872 1238.93 215.813C1238.73 215.753 1238.55 215.657 1238.41 215.524C1238.26 215.389 1238.17 215.218 1238.14 215.01H1238.09C1238.03 215.164 1237.93 215.306 1237.78 215.439C1237.64 215.569 1237.45 215.672 1237.23 215.75C1237 215.826 1236.74 215.857 1236.45 215.844C1236.12 215.831 1235.82 215.757 1235.56 215.622C1235.3 215.487 1235.08 215.3 1234.89 215.061C1234.7 214.822 1234.56 214.539 1234.46 214.212C1234.37 213.885 1234.32 213.521 1234.32 213.122C1234.32 212.737 1234.37 212.393 1234.48 212.09C1234.6 211.783 1234.75 211.52 1234.94 211.299C1235.13 211.076 1235.36 210.899 1235.61 210.769C1235.86 210.64 1236.13 210.558 1236.41 210.524C1236.68 210.493 1236.93 210.501 1237.16 210.547C1237.39 210.594 1237.58 210.666 1237.73 210.762C1237.88 210.858 1237.98 210.963 1238.02 211.077H1238.07V210.641H1239.02V214.255C1239.02 214.46 1239.08 214.634 1239.18 214.777C1239.29 214.92 1239.45 214.991 1239.65 214.991C1239.88 214.991 1240.07 214.904 1240.2 214.73C1240.34 214.556 1240.43 214.289 1240.48 213.928C1240.54 213.567 1240.57 213.105 1240.57 212.541C1240.57 212.147 1240.52 211.776 1240.41 211.428C1240.31 211.077 1240.15 210.76 1239.95 210.477C1239.74 210.192 1239.5 209.946 1239.2 209.741C1238.9 209.536 1238.57 209.378 1238.19 209.266C1237.81 209.155 1237.39 209.099 1236.94 209.099C1236.32 209.099 1235.76 209.195 1235.28 209.387C1234.8 209.577 1234.39 209.85 1234.06 210.209C1233.73 210.567 1233.48 210.997 1233.31 211.498C1233.14 211.996 1233.05 212.556 1233.05 213.176C1233.05 213.823 1233.14 214.396 1233.32 214.897C1233.49 215.396 1233.75 215.817 1234.09 216.159C1234.43 216.502 1234.85 216.762 1235.35 216.938C1235.85 217.117 1236.43 217.207 1237.08 217.207C1237.37 217.207 1237.66 217.181 1237.94 217.129C1238.22 217.08 1238.47 217.022 1238.69 216.958C1238.91 216.895 1239.07 216.845 1239.18 216.806L1239.45 217.659C1239.29 217.734 1239.08 217.808 1238.81 217.881C1238.55 217.953 1238.26 218.013 1237.95 218.06C1237.64 218.106 1237.33 218.13 1237.03 218.13ZM1236.67 214.89C1237.01 214.89 1237.28 214.822 1237.49 214.687C1237.69 214.552 1237.84 214.351 1237.93 214.084C1238.03 213.814 1238.07 213.476 1238.07 213.071C1238.07 212.676 1238.02 212.362 1237.92 212.129C1237.83 211.892 1237.68 211.724 1237.47 211.622C1237.27 211.518 1237.01 211.467 1236.69 211.467C1236.39 211.467 1236.14 211.538 1235.94 211.681C1235.73 211.824 1235.57 212.017 1235.47 212.261C1235.36 212.505 1235.3 212.776 1235.3 213.075C1235.3 213.389 1235.35 213.685 1235.43 213.963C1235.52 214.238 1235.66 214.461 1235.86 214.633C1236.06 214.804 1236.33 214.89 1236.67 214.89Z" fill="white" fill-opacity="0.66"/>
<g filter="url(#filter3_bd_472_5341)">
<rect x="1172.75" y="255.422" width="128.073" height="91.8345" rx="8.28507" fill="url(#paint2_linear_472_5341)" shape-rendering="crispEdges"/>
<rect x="1173.04" y="255.718" width="127.481" height="91.2427" rx="7.98917" stroke="url(#paint3_linear_472_5341)" stroke-width="0.591791" shape-rendering="crispEdges"/>
</g>
<g filter="url(#filter4_b_472_5341)">
<rect x="1176.21" y="258.615" width="121.154" height="85.4507" rx="5.91791" fill="url(#paint4_linear_472_5341)"/>
</g>
<g filter="url(#filter5_bd_472_5341)">
<mask id="path-18-inside-1_472_5341" fill="white">
<path fill-rule="evenodd" clip-rule="evenodd" d="M1167.12 348.561C1166.46 348.561 1165.93 349.09 1165.93 349.744V352.7C1165.93 357.072 1169.48 360.617 1173.85 360.617H1299.72C1304.1 360.617 1307.64 357.072 1307.64 352.7V349.744C1307.64 349.09 1307.11 348.561 1306.46 348.561H1167.12ZM1223.21 348.561C1223.04 348.561 1222.9 348.698 1222.9 348.868C1222.9 350.004 1223.82 350.924 1224.96 350.924H1248.62C1249.76 350.924 1250.68 350.004 1250.68 348.868C1250.68 348.698 1250.54 348.561 1250.37 348.561H1223.21Z"/>
</mask>
<path fill-rule="evenodd" clip-rule="evenodd" d="M1167.12 348.561C1166.46 348.561 1165.93 349.09 1165.93 349.744V352.7C1165.93 357.072 1169.48 360.617 1173.85 360.617H1299.72C1304.1 360.617 1307.64 357.072 1307.64 352.7V349.744C1307.64 349.09 1307.11 348.561 1306.46 348.561H1167.12ZM1223.21 348.561C1223.04 348.561 1222.9 348.698 1222.9 348.868C1222.9 350.004 1223.82 350.924 1224.96 350.924H1248.62C1249.76 350.924 1250.68 350.004 1250.68 348.868C1250.68 348.698 1250.54 348.561 1250.37 348.561H1223.21Z" fill="url(#paint5_linear_472_5341)" shape-rendering="crispEdges"/>
<path d="M1166.53 349.744C1166.53 349.417 1166.79 349.152 1167.12 349.152V347.969C1166.14 347.969 1165.34 348.764 1165.34 349.744H1166.53ZM1166.53 352.7V349.744H1165.34V352.7H1166.53ZM1173.85 360.025C1169.8 360.025 1166.53 356.746 1166.53 352.7H1165.34C1165.34 357.399 1169.15 361.208 1173.85 361.208V360.025ZM1299.72 360.025H1173.85V361.208H1299.72V360.025ZM1307.05 352.7C1307.05 356.746 1303.77 360.025 1299.72 360.025V361.208C1304.42 361.208 1308.23 357.399 1308.23 352.7H1307.05ZM1307.05 349.744V352.7H1308.23V349.744H1307.05ZM1306.46 349.152C1306.78 349.152 1307.05 349.417 1307.05 349.744H1308.23C1308.23 348.764 1307.44 347.969 1306.46 347.969V349.152ZM1167.12 349.152H1306.46V347.969H1167.12V349.152ZM1223.49 348.868C1223.49 349.025 1223.36 349.152 1223.21 349.152V347.969C1222.71 347.969 1222.31 348.371 1222.31 348.868H1223.49ZM1224.96 350.332C1224.15 350.332 1223.49 349.677 1223.49 348.868H1222.31C1222.31 350.33 1223.49 351.516 1224.96 351.516V350.332ZM1248.62 350.332H1224.96V351.516H1248.62V350.332ZM1250.09 348.868C1250.09 349.677 1249.43 350.332 1248.62 350.332V351.516C1250.09 351.516 1251.27 350.33 1251.27 348.868H1250.09ZM1250.37 349.152C1250.21 349.152 1250.09 349.025 1250.09 348.868H1251.27C1251.27 348.371 1250.87 347.969 1250.37 347.969V349.152ZM1223.21 349.152H1250.37V347.969H1223.21V349.152Z" fill="url(#paint6_linear_472_5341)" fill-opacity="0.5" mask="url(#path-18-inside-1_472_5341)"/>
</g>
<path d="M1226.36 257.393H1247.21V260.017C1247.21 260.671 1246.68 261.201 1246.03 261.201H1227.54C1226.89 261.201 1226.36 260.671 1226.36 260.017V257.393Z" fill="#89B0EE"/>
<path fill-rule="evenodd" clip-rule="evenodd" d="M1197.53 278.42C1197.53 276.459 1199.12 274.869 1201.08 274.869H1231.25C1233.21 274.869 1234.8 276.459 1234.8 278.42V295.453C1234.8 297.414 1233.21 299.003 1231.25 299.003H1201.08C1199.12 299.003 1197.53 297.414 1197.53 295.453V278.42ZM1221.81 282.144C1221.81 285.262 1219.28 287.789 1216.16 287.789C1213.04 287.789 1210.51 285.262 1210.51 282.144C1210.51 279.025 1213.04 276.499 1216.16 276.499C1219.28 276.499 1221.81 279.026 1221.81 282.144ZM1225.74 298.169C1225.74 298.629 1225.37 299.002 1224.91 299.002H1207.41C1206.95 299.002 1206.58 298.629 1206.58 298.169C1206.58 292.885 1210.88 288.585 1216.16 288.585C1221.45 288.585 1225.74 292.885 1225.74 298.169Z" fill="#3F67A8"/>
<path fill-rule="evenodd" clip-rule="evenodd" d="M1197.53 307.227C1197.53 305.266 1199.12 303.676 1201.08 303.676H1231.25C1233.21 303.676 1234.8 305.266 1234.8 307.227V324.259C1234.8 326.22 1233.21 327.81 1231.25 327.81H1201.08C1199.12 327.81 1197.53 326.22 1197.53 324.259V307.227ZM1221.81 310.951C1221.81 314.068 1219.28 316.595 1216.16 316.595C1213.04 316.595 1210.51 314.068 1210.51 310.951C1210.51 307.832 1213.04 305.305 1216.16 305.305C1219.28 305.305 1221.81 307.832 1221.81 310.951ZM1225.74 326.975C1225.74 327.435 1225.37 327.809 1224.91 327.809H1207.41C1206.95 327.809 1206.58 327.435 1206.58 326.975C1206.58 321.691 1210.88 317.392 1216.16 317.392C1221.45 317.392 1225.74 321.691 1225.74 326.975Z" fill="#3F67A8"/>
<path fill-rule="evenodd" clip-rule="evenodd" d="M1238.78 278.42C1238.78 276.459 1240.37 274.869 1242.33 274.869H1272.5C1274.46 274.869 1276.05 276.459 1276.05 278.42V295.453C1276.05 297.414 1274.46 299.003 1272.5 299.003H1266.19C1266.64 298.99 1267 298.622 1267 298.17C1267 292.886 1262.7 288.587 1257.41 288.587C1252.13 288.587 1247.83 292.886 1247.83 298.17C1247.83 298.622 1248.19 298.99 1248.64 299.003H1242.33C1240.37 299.003 1238.78 297.414 1238.78 295.453V278.42ZM1263.06 282.146C1263.06 285.263 1260.53 287.79 1257.41 287.79C1254.29 287.79 1251.77 285.263 1251.77 282.146C1251.77 279.027 1254.29 276.5 1257.41 276.5C1260.53 276.5 1263.06 279.027 1263.06 282.146Z" fill="#3F67A8"/>
<path fill-rule="evenodd" clip-rule="evenodd" d="M1238.78 307.227C1238.78 305.266 1240.37 303.676 1242.33 303.676H1272.5C1274.46 303.676 1276.05 305.266 1276.05 307.227V324.259C1276.05 326.22 1274.46 327.81 1272.5 327.81H1242.33C1240.37 327.81 1238.78 326.22 1238.78 324.259V307.227ZM1263.06 310.951C1263.06 314.068 1260.53 316.595 1257.42 316.595C1254.3 316.595 1251.77 314.068 1251.77 310.951C1251.77 307.832 1254.3 305.305 1257.42 305.305C1260.53 305.305 1263.06 307.832 1263.06 310.951ZM1267 326.975C1267 327.435 1266.63 327.809 1266.17 327.809H1248.67C1248.21 327.809 1247.83 327.435 1247.83 326.975C1247.83 321.691 1252.13 317.392 1257.42 317.392C1262.7 317.392 1267 321.691 1267 326.975Z" fill="#3F67A8"/>
<g filter="url(#filter6_bd_472_5341)">
<path fill-rule="evenodd" clip-rule="evenodd" d="M1316.44 263.576C1318.17 263.576 1319.58 264.979 1319.58 266.71V277.759C1319.58 279.489 1318.17 280.892 1316.44 280.892H1274.45L1269.89 286.545C1269.27 287.312 1268.03 286.875 1268.03 285.889V280.892H1266.75C1265.01 280.892 1263.61 279.489 1263.61 277.759V266.71C1263.61 264.979 1265.01 263.576 1266.75 263.576H1316.44Z" fill="url(#paint7_linear_472_5341)"/>
</g>
<rect x="1272.96" y="268.609" width="38.7062" height="2.70786" fill="#C7E8FA"/>
<rect x="1272.96" y="273.234" width="30.9156" height="2.70786" fill="#C7E8FA"/>
<rect opacity="0.8" x="128.35" y="268.602" width="55.5229" height="104.105" rx="7" fill="white" fill-opacity="0.12"/>
<g filter="url(#filter7_f_472_5341)">
<rect x="1198.27" y="-279.699" width="525.58" height="457.31" rx="228.655" transform="rotate(15 1198.27 -279.699)" fill="#23FFBD" fill-opacity="0.52"/>
</g>
<g opacity="0.1">
<g clip-path="url(#clip1_472_5341)">
<g style="mix-blend-mode:multiply">
<path d="M476.935 187.606C801.892 223.5 1011.34 326.403 1256.69 336.075C1381.56 340.995 1513.81 322.343 1608.29 260.181C1627.81 247.357 1657.02 268.157 1637.47 281.053C1553.71 336.147 1443.08 361.341 1330.93 365.664C968.271 379.682 727.14 186.866 149.813 203.344C20.9991 207.022 -117.37 224.168 -216.764 287.573C-236.526 300.182 -265.774 279.381 -245.943 266.701C-237.145 266.701 -83.86 125.659 476.901 187.606H476.935Z" fill="url(#paint8_radial_472_5341)"/>
</g>
<g style="mix-blend-mode:multiply">
<path d="M68.4971 180.968C501.681 106.554 841.073 380.303 1281.75 271.358C1398.43 242.509 1513.7 185.577 1589.8 113.695C1645.23 61.3474 1722.43 121.862 1687.71 154.651C1531.85 301.854 1277.35 390.429 1017.83 378.13C708.34 363.443 436.552 229.279 151.429 252.157C48.082 260.444 -70.4215 297.603 -130.979 368.172C-146.514 386.25 -182.429 394.775 -208.584 382.715C-233.948 371.013 -245.53 346.559 -228.93 327.215C-226.009 327.215 -153.663 219.13 68.4971 180.968Z" fill="url(#paint9_radial_472_5341)"/>
</g>
<g style="mix-blend-mode:multiply">
<path d="M42.4799 186.15C470.474 97.7183 826.913 360.148 1260.2 236.969C1374.92 204.347 1486.45 143.713 1557.9 69.467C1609.94 15.3524 1690.91 73.3118 1658.33 107.199C1511.99 259.322 1263.4 356.088 1003.36 352.219C693.253 347.61 413.216 222.425 129.845 254.569C27.1171 266.223 -88.8775 307.203 -144.899 379.658C-159.265 398.214 -194.596 407.91 -221.472 396.709C-247.558 385.844 -260.687 361.795 -245.324 341.926C-242.403 341.831 -177.033 231.524 42.5143 186.15H42.4799Z" fill="url(#paint10_radial_472_5341)"/>
</g>
<g style="mix-blend-mode:multiply">
<path d="M467.346 170.914C592.276 199.834 703.219 251.346 819.213 294.093C1104.65 399.289 1380.52 390.453 1612.96 301.687C1624.68 297.221 1635.09 309.95 1623.37 314.416C1399.74 399.814 1128.57 407.48 895.684 336.338C665.276 265.961 498.896 146.197 173.733 158.974C34.5056 164.442 -101.87 195.703 -218.827 250.104C-229.996 255.286 -240.341 242.534 -229.24 237.375C-222.023 237.375 67.1559 78.3033 467.311 170.914H467.346Z" fill="url(#paint11_radial_472_5341)"/>
</g>
<g style="mix-blend-mode:multiply">
<path d="M440.504 131.676C797.561 188.036 1027.76 349.567 1297.35 364.732C1434.55 372.445 1579.86 343.167 1683.73 245.589C1705.17 225.433 1737.31 258.103 1715.76 278.33C1623.72 364.803 1502.12 404.35 1378.94 411.157C980.403 433.151 715.454 130.482 81.0413 156.345C-60.5237 162.125 -212.571 189.039 -321.761 288.551C-343.482 308.325 -375.617 275.703 -353.792 255.81C-344.1 255.81 -175.659 34.4085 440.504 131.676Z" fill="url(#paint12_radial_472_5341)"/>
</g>
<g style="mix-blend-mode:multiply">
<path d="M-8.31775 121.264C467.69 4.43785 840.625 434.178 1324.88 263.142C1453.08 217.863 1579.76 128.476 1663.38 15.662C1724.28 -66.5129 1809.14 28.4861 1770.99 79.9498C1599.69 311.023 1320.07 450.083 1034.88 430.739C694.798 407.694 396.099 197.063 82.7938 233.004C-30.7949 246.019 -160.984 304.36 -227.556 415.121C-244.603 443.492 -284.093 456.889 -312.825 437.975C-340.698 419.611 -353.449 381.21 -335.165 350.857C-331.934 350.857 -252.473 181.206 -8.31775 121.288V121.264Z" fill="url(#paint13_radial_472_5341)"/>
</g>
<g style="mix-blend-mode:multiply">
<path d="M-36.9122 129.408C433.424 -9.41227 825.091 402.536 1301.2 209.171C1427.27 157.97 1549.83 62.8041 1628.32 -53.7833C1685.51 -138.704 1774.49 -47.7414 1738.68 5.41788C1577.87 244.205 1304.67 396.112 1018.97 390.047C678.199 382.811 370.461 186.317 59.0798 236.754C-53.7873 255.047 -181.261 319.359 -242.85 433.104C-258.625 462.239 -297.462 477.451 -327.019 459.899C-355.683 442.848 -370.117 405.092 -353.242 373.903C-350.012 373.76 -278.181 200.574 -36.9466 129.385L-36.9122 129.408Z" fill="url(#paint14_radial_472_5341)"/>
</g>
<g style="mix-blend-mode:multiply">
<path d="M429.954 105.456C567.257 150.854 689.163 231.715 816.602 298.821C1130.25 463.959 1433.38 450.06 1688.85 310.738C1701.7 303.717 1713.18 323.705 1700.29 330.726C1454.52 464.771 1156.54 476.807 900.668 365.139C647.508 254.665 464.632 66.6732 107.334 86.7094C-45.6414 95.2827 -195.524 144.382 -324.028 229.757C-336.298 237.901 -347.674 217.864 -335.473 209.769C-327.534 209.769 -9.79477 -39.932 429.954 105.456Z" fill="url(#paint15_radial_472_5341)"/>
</g>
</g>
</g>
<g opacity="0.5">
<g opacity="0.3">
<rect x="809.812" y="-14.0645" width="219.445" height="40.3847" fill="url(#paint16_linear_472_5341)" style="mix-blend-mode:screen"/>
</g>
<circle cx="1028.04" cy="6.1279" r="20.1924" transform="rotate(90 1028.04 6.1279)" fill="url(#paint17_linear_472_5341)"/>
</g>
<g filter="url(#filter8_f_472_5341)">
<rect x="134.234" y="-161.705" width="723.481" height="238.986" rx="119.493" transform="rotate(15 134.234 -161.705)" fill="#FF6332" fill-opacity="0.74"/>
</g>
<path d="M35.2734 -24.7871V389.456" stroke="#64B2C4" stroke-opacity="0.18"/>
<path d="M762.621 26.3203L-26.084 26.3203" stroke="#64B2C4" stroke-opacity="0.18"/>
<path d="M762.621 55.3711L-26.084 55.3711" stroke="#64B2C4" stroke-opacity="0.18"/>
<path d="M762.621 84.4219L-26.084 84.4218" stroke="#64B2C4" stroke-opacity="0.18"/>
<path d="M762.621 113.473L-26.084 113.473" stroke="#64B2C4" stroke-opacity="0.18"/>
<path d="M762.621 142.523L-26.084 142.523" stroke="#64B2C4" stroke-opacity="0.18"/>
<path d="M762.621 171.574L-26.084 171.574" stroke="#64B2C4" stroke-opacity="0.18"/>
<path d="M762.621 200.625L-26.084 200.625" stroke="#64B2C4" stroke-opacity="0.18"/>
<path d="M762.621 229.676L-26.084 229.676" stroke="#64B2C4" stroke-opacity="0.18"/>
<path d="M762.621 258.727L-26.084 258.727" stroke="#64B2C4" stroke-opacity="0.18"/>
<path d="M762.621 287.777L-26.084 287.777" stroke="#64B2C4" stroke-opacity="0.18"/>
<path d="M762.621 316.828L-26.084 316.828" stroke="#64B2C4" stroke-opacity="0.18"/>
<path d="M762.621 345.879L-26.084 345.879" stroke="#64B2C4" stroke-opacity="0.18"/>
<path d="M762.621 374.93L-26.084 374.93" stroke="#64B2C4" stroke-opacity="0.18"/>
<path d="M63.248 -24.7871V389.456" stroke="#64B2C4" stroke-opacity="0.18"/>
<path d="M91.2227 -24.7871V389.456" stroke="#64B2C4" stroke-opacity="0.18"/>
<path d="M119.198 -24.7871V389.456" stroke="#64B2C4" stroke-opacity="0.18"/>
<path d="M147.173 -24.7871V389.456" stroke="#64B2C4" stroke-opacity="0.18"/>
<path d="M175.147 -24.7871V389.456" stroke="#64B2C4" stroke-opacity="0.18"/>
<path d="M203.123 -24.7871V389.456" stroke="#64B2C4" stroke-opacity="0.18"/>
<path d="M231.098 -24.7871V389.456" stroke="#64B2C4" stroke-opacity="0.18"/>
<path d="M259.072 -24.7871V389.456" stroke="#64B2C4" stroke-opacity="0.18"/>
<path d="M287.047 -24.7871V389.456" stroke="#64B2C4" stroke-opacity="0.18"/>
<path d="M315.021 -24.7871V389.456" stroke="#64B2C4" stroke-opacity="0.18"/>
<path d="M342.997 -24.7871V389.456" stroke="#64B2C4" stroke-opacity="0.18"/>
<path d="M370.972 -24.7871V389.456" stroke="#64B2C4" stroke-opacity="0.18"/>
<path d="M398.946 -24.7871V389.456" stroke="#64B2C4" stroke-opacity="0.18"/>
<path d="M426.922 -24.7871V389.456" stroke="#64B2C4" stroke-opacity="0.18"/>
<path d="M454.896 -24.7871V389.456" stroke="#64B2C4" stroke-opacity="0.18"/>
<path d="M482.872 -24.7871V389.456" stroke="#64B2C4" stroke-opacity="0.18"/>
<path d="M510.847 -24.7871V389.456" stroke="#64B2C4" stroke-opacity="0.18"/>
<path d="M538.821 -24.7871V389.456" stroke="#64B2C4" stroke-opacity="0.18"/>
<path d="M566.797 -24.7871V389.456" stroke="#64B2C4" stroke-opacity="0.18"/>
<path d="M594.771 -24.7871V389.456" stroke="#64B2C4" stroke-opacity="0.18"/>
<path d="M622.746 -24.7871V389.456" stroke="#64B2C4" stroke-opacity="0.18"/>
<path d="M650.722 -24.7871V389.456" stroke="#64B2C4" stroke-opacity="0.18"/>
<path d="M678.696 -24.7871V389.456" stroke="#64B2C4" stroke-opacity="0.18"/>
<path d="M706.671 -24.7871V389.456" stroke="#64B2C4" stroke-opacity="0.18"/>
<path d="M734.646 -24.7871V389.456" stroke="#64B2C4" stroke-opacity="0.18"/>
<g filter="url(#filter9_f_472_5341)">
<rect x="595.062" y="-242.447" width="525.58" height="545.661" transform="rotate(15 595.062 -242.447)" fill="#0A2963"/>
</g>
<g filter="url(#filter10_f_472_5341)">
<rect x="-158.573" y="-334.072" width="525.58" height="457.31" rx="228.655" transform="rotate(15 -158.573 -334.072)" fill="#16C7FF" fill-opacity="0.56"/>
</g>
<g filter="url(#filter11_bd_472_5341)">
<rect x="-72.3477" y="-58.0762" width="1585.94" height="58.8933" fill="white" fill-opacity="0.87" shape-rendering="crispEdges"/>
</g>
<path d="M-252.553 586.547V-0.203125H1620.45V586.547H1022.55H287.947H-252.553Z" fill="url(#paint18_linear_472_5341)"/>
<g opacity="0.2">
<rect x="712.553" y="37.4492" width="202.1" height="5.14331" rx="2.57166" fill="url(#paint19_linear_472_5341)" style="mix-blend-mode:screen"/>
</g>
<g opacity="0.15">
<rect x="90.1211" y="355.57" width="461.857" height="5.14331" rx="2.57166" fill="url(#paint20_linear_472_5341)" style="mix-blend-mode:screen"/>
</g>
<g opacity="0.15">
<rect x="867.49" y="75.207" width="461.857" height="5.14331" rx="2.57166" fill="url(#paint21_linear_472_5341)" style="mix-blend-mode:screen"/>
</g>
<path d="M330.875 336.742C331.716 333.791 334.034 331.491 336.991 330.673L337.91 330.419L336.992 330.166H336.991C334.034 329.348 331.715 327.048 330.875 324.097L330.612 323.18L330.349 324.097C329.509 327.048 327.19 329.348 324.233 330.166L323.314 330.419L324.232 330.673H324.233C327.19 331.491 329.509 333.791 330.349 336.742L330.612 337.659L330.875 336.742Z" fill="#9AC1FF" fill-opacity="0.32"/>
<path d="M851.783 83.9062C852.256 82.2467 853.56 80.9531 855.223 80.4935L855.739 80.3507L855.223 80.208H855.223C853.56 79.7483 852.256 78.4546 851.783 76.7953L851.635 76.2793L851.487 76.7953C851.015 78.4547 849.711 79.7484 848.048 80.208L847.531 80.3507L848.047 80.4935H848.048C849.711 80.9531 851.015 82.2469 851.487 83.9062L851.635 84.4222L851.783 83.9062Z" fill="#A3C5FA"/>
<g opacity="0.5">
<g opacity="0.5">
<g opacity="0.3">
<rect x="551.979" y="23.6641" width="149.817" height="27.5709" fill="url(#paint22_linear_472_5341)" style="mix-blend-mode:screen"/>
</g>
<circle cx="700.962" cy="37.4495" r="13.7855" transform="rotate(90 700.962 37.4495)" fill="url(#paint23_linear_472_5341)"/>
</g>
<path d="M708.582 34.9351C708.62 35.1872 708.44 35.0066 708.44 35.0066C707.708 34.0832 708.568 32.5396 708.568 32.5396C708.678 32.3624 708.789 32.2022 708.903 32.0557C707.162 29.5614 704.251 27.9258 700.945 27.9258C695.861 27.9258 691.7 31.807 691.323 36.7274C693.247 35.8074 695.343 38.0836 695.343 38.0836L696.169 38.8912C698.652 41.3378 699.367 41.3174 699.726 40.7551C699.726 40.7551 700.224 40.0429 699.395 38.5982C698.39 36.8535 699.491 35.562 699.491 35.562C702.417 31.64 707.1 36.6286 707.1 36.6286C708.754 38.2574 709.804 38.8673 710.467 39.0411C710.554 38.5232 710.602 37.995 710.602 37.4532C710.602 36.3049 710.395 35.2043 710.018 34.1854C708.737 33.7526 708.557 34.7749 708.582 34.9385V34.9351Z" fill="white" fill-opacity="0.46"/>
<path d="M704.133 39.5588C702.185 37.6404 701.042 37.0952 700.378 37.0918C700.306 37.0986 699.753 37.1599 699.86 37.7154C699.957 38.1992 701.722 40.4755 699.684 42.4927C696.828 44.8678 693.761 41.266 693.761 41.266C692.811 40.3937 691.665 39.0613 691.52 39.5009C692.473 43.774 696.331 46.9736 700.945 46.9736C704.495 46.9736 707.597 45.0824 709.275 42.2644C706.813 42.4109 704.133 39.5588 704.133 39.5588Z" fill="white"/>
</g>
<g opacity="0.5">
<g opacity="0.3">
<rect x="1104.42" y="406.393" width="219.445" height="40.3847" fill="url(#paint24_linear_472_5341)" style="mix-blend-mode:screen"/>
</g>
<circle cx="1322.65" cy="426.585" r="20.1924" transform="rotate(90 1322.65 426.585)" fill="url(#paint25_linear_472_5341)"/>
</g>
<path d="M1333.81 422.902C1333.86 423.271 1333.6 423.006 1333.6 423.006C1332.53 421.654 1333.79 419.393 1333.79 419.393C1333.95 419.133 1334.11 418.899 1334.28 418.684C1331.73 415.031 1327.46 412.635 1322.62 412.635C1315.17 412.635 1309.08 418.32 1308.53 425.527C1311.34 424.179 1314.41 427.514 1314.41 427.514L1315.62 428.696C1319.26 432.28 1320.31 432.25 1320.83 431.427C1320.83 431.427 1321.56 430.383 1320.35 428.267C1318.88 425.712 1320.49 423.82 1320.49 423.82C1324.78 418.075 1331.64 425.382 1331.64 425.382C1334.06 427.768 1335.6 428.662 1336.57 428.916C1336.69 428.157 1336.77 427.384 1336.77 426.59C1336.77 424.908 1336.46 423.296 1335.91 421.804C1334.03 421.17 1333.77 422.667 1333.81 422.907V422.902Z" fill="white" fill-opacity="0.65"/>
<path d="M1327.29 429.674C1324.44 426.864 1322.76 426.066 1321.79 426.061C1321.68 426.071 1320.87 426.16 1321.03 426.974C1321.17 427.683 1323.76 431.017 1320.77 433.972C1316.59 437.45 1312.1 432.175 1312.1 432.175C1310.71 430.897 1309.03 428.945 1308.81 429.589C1310.21 435.848 1315.86 440.535 1322.62 440.535C1327.82 440.535 1332.36 437.765 1334.82 433.637C1331.22 433.852 1327.29 429.674 1327.29 429.674Z" fill="white"/>
<g filter="url(#filter12_bd_472_5341)">
<rect x="-17.9668" y="186.234" width="115.194" height="144.095" rx="7" fill="url(#paint26_linear_472_5341)" shape-rendering="crispEdges"/>
<rect x="-17.7168" y="186.484" width="114.694" height="143.595" rx="6.75" stroke="url(#paint27_linear_472_5341)" stroke-width="0.5" shape-rendering="crispEdges"/>
</g>
<g filter="url(#filter13_b_472_5341)">
<rect x="-12.1895" y="191.676" width="103.639" height="133.213" rx="2" fill="url(#paint28_linear_472_5341)"/>
</g>
<rect x="8.78125" y="263.602" width="68.1325" height="3.84874" rx="1.92437" fill="#133F84" fill-opacity="0.49"/>
<rect x="0.335938" y="263.602" width="3.89177" height="3.84874" rx="1.92437" fill="#133F84" fill-opacity="0.49"/>
<rect x="8.78125" y="276.178" width="68.1325" height="3.84874" rx="1.92437" fill="#133F84" fill-opacity="0.49"/>
<rect x="0.335938" y="276.178" width="3.89177" height="3.84874" rx="1.92437" fill="#133F84" fill-opacity="0.49"/>
<rect x="8.78125" y="288.754" width="68.1325" height="3.84874" rx="1.92437" fill="#133F84" fill-opacity="0.49"/>
<rect x="0.335938" y="288.754" width="3.89177" height="3.84874" rx="1.92437" fill="#133F84" fill-opacity="0.49"/>
<g clip-path="url(#clip2_472_5341)">
<rect x="-23.2646" y="184.625" width="202.352" height="23.5566" transform="rotate(45 -23.2646 184.625)" fill="white" fill-opacity="0.12"/>
<rect x="-28.5811" y="220.516" width="202.352" height="5.95827" transform="rotate(45 -28.5811 220.516)" fill="white" fill-opacity="0.12"/>
</g>
<rect x="0.335938" y="215.033" width="20.0547" height="26.7983" rx="2" fill="#6487C0"/>
<rect x="29.6016" y="215.033" width="20.0547" height="26.7983" rx="2" fill="#6487C0"/>
<rect x="58.8711" y="215.033" width="20.0547" height="26.7983" rx="2" fill="#6487C0"/>
<path d="M138.516 242.079L141.403 237.079H135.629L138.516 242.079ZM38.873 186.361V178.549H37.873V186.361H38.873ZM46.373 171.049H130.516V170.049H46.373V171.049ZM138.016 178.549V237.579H139.016V178.549H138.016ZM130.516 171.049C134.658 171.049 138.016 174.407 138.016 178.549H139.016C139.016 173.854 135.21 170.049 130.516 170.049V171.049ZM38.873 178.549C38.873 174.407 42.2309 171.049 46.373 171.049V170.049C41.6786 170.049 37.873 173.854 37.873 178.549H38.873Z" fill="white" fill-opacity="0.3"/>
<rect x="110.754" y="244.031" width="55.5229" height="104.105" rx="7" fill="#6895E0" fill-opacity="0.74"/>
<g filter="url(#filter14_b_472_5341)">
<rect x="114.219" y="247.656" width="48.5935" height="96.8555" rx="2" fill="url(#paint29_linear_472_5341)"/>
</g>
<path d="M123.543 292.115C121.352 292.115 119.574 293.893 119.574 296.084C119.574 298.275 121.352 300.053 123.543 300.053C125.734 300.053 127.512 298.275 127.512 296.084C127.512 293.893 125.734 292.115 123.543 292.115ZM125.585 295.125L123.254 297.465C123.179 297.539 123.072 297.589 122.964 297.589C122.857 297.589 122.749 297.547 122.675 297.465L121.501 296.291C121.335 296.125 121.335 295.869 121.501 295.704C121.666 295.538 121.923 295.538 122.088 295.704L122.965 296.58L125.007 294.538C125.172 294.373 125.429 294.373 125.594 294.538C125.751 294.703 125.751 294.959 125.585 295.125L125.585 295.125Z" fill="#5A7FBC"/>
<path d="M123.543 305.605C121.352 305.605 119.574 307.383 119.574 309.574C119.574 311.765 121.352 313.543 123.543 313.543C125.734 313.543 127.512 311.765 127.512 309.574C127.512 307.383 125.734 305.605 123.543 305.605ZM125.585 308.615L123.254 310.955C123.179 311.029 123.072 311.079 122.964 311.079C122.857 311.079 122.749 311.038 122.675 310.955L121.501 309.781C121.335 309.616 121.335 309.359 121.501 309.194C121.666 309.028 121.923 309.028 122.088 309.194L122.965 310.07L125.007 308.028C125.172 307.863 125.429 307.863 125.594 308.028C125.751 308.194 125.751 308.45 125.585 308.615L125.585 308.615Z" fill="#5A7FBC"/>
<path d="M123.543 319.096C121.352 319.096 119.574 320.873 119.574 323.064C119.574 325.256 121.352 327.033 123.543 327.033C125.734 327.033 127.512 325.256 127.512 323.064C127.512 320.873 125.734 319.096 123.543 319.096ZM125.585 322.105L123.254 324.445C123.179 324.519 123.072 324.569 122.964 324.569C122.857 324.569 122.749 324.528 122.675 324.445L121.501 323.271C121.335 323.106 121.335 322.849 121.501 322.684C121.666 322.519 121.923 322.519 122.088 322.684L122.965 323.561L125.007 321.518C125.172 321.353 125.429 321.353 125.594 321.518C125.751 321.684 125.751 321.94 125.585 322.105L125.585 322.105Z" fill="#5A7FBC"/>
<rect x="119.574" y="258.646" width="16.4423" height="23.9017" rx="2" fill="#4D7BC7" fill-opacity="0.69"/>
<rect x="141.016" y="258.646" width="16.4423" height="23.9017" rx="2" fill="#4D7BC7" fill-opacity="0.69"/>
<rect x="132.211" y="294.695" width="25.2461" height="2.77648" rx="1.38824" fill="#133F84" fill-opacity="0.35"/>
<rect x="132.211" y="308.186" width="25.2461" height="2.77648" rx="1.38824" fill="#133F84" fill-opacity="0.35"/>
<rect x="132.211" y="321.676" width="25.2461" height="2.77648" rx="1.38824" fill="#133F84" fill-opacity="0.35"/>
<g opacity="0.75" clip-path="url(#clip3_472_5341)">
<rect x="75.5986" y="210.65" width="202.352" height="23.5566" transform="rotate(45 75.5986 210.65)" fill="white" fill-opacity="0.12"/>
<rect x="70.2822" y="246.539" width="202.352" height="5.95827" transform="rotate(45 70.2822 246.539)" fill="white" fill-opacity="0.12"/>
</g>
<g filter="url(#filter15_b_472_5341)">
<circle cx="85.3484" cy="130.252" r="17.9783" fill="url(#paint30_linear_472_5341)"/>
</g>
<g filter="url(#filter16_b_472_5341)">
<circle cx="85.3484" cy="130.253" r="22.7585" stroke="url(#paint31_linear_472_5341)"/>
</g>
<path d="M96.1946 126.673C96.2487 127.032 95.993 126.775 95.993 126.775C94.9506 125.46 96.175 123.262 96.175 123.262C96.3323 123.01 96.4897 122.782 96.6519 122.573C94.1736 119.022 90.0284 116.693 85.3225 116.693C78.0843 116.693 72.159 122.219 71.623 129.225C74.362 127.915 77.3467 131.156 77.3467 131.156L78.522 132.305C82.0575 135.789 83.0754 135.76 83.5868 134.959C83.5868 134.959 84.2948 133.945 83.1147 131.888C81.6838 129.404 83.2524 127.565 83.2524 127.565C87.4173 121.981 94.0851 129.084 94.0851 129.084C96.4405 131.403 97.9353 132.271 98.8795 132.519C99.0024 131.781 99.0712 131.029 99.0712 130.258C99.0712 128.623 98.7762 127.056 98.2402 125.605C96.4159 124.989 96.1602 126.445 96.1946 126.678V126.673Z" fill="white" fill-opacity="0.46"/>
<path d="M89.8602 133.257C87.0869 130.525 85.4592 129.749 84.5151 129.744C84.4119 129.754 83.6251 129.841 83.7775 130.632C83.9152 131.321 86.4279 134.562 83.5268 137.434C79.4602 140.815 75.0936 135.687 75.0936 135.687C73.7414 134.445 72.1089 132.548 71.9023 133.174C73.2595 139.258 78.7521 143.813 85.3216 143.813C90.3765 143.813 94.7922 141.121 97.182 137.109C93.676 137.317 89.8602 133.257 89.8602 133.257Z" fill="white"/>
<rect x="1293.36" y="145.066" width="77.661" height="84.7772" rx="3.13362" fill="#D9D9D9" fill-opacity="0.04"/>
<g filter="url(#filter17_b_472_5341)">
<rect x="1288.04" y="130.803" width="73.1248" height="89.2637" rx="4.17815" fill="url(#paint32_linear_472_5341)" fill-opacity="0.8"/>
</g>
<rect x="1298.57" y="163.354" width="52.0731" height="6.48477" rx="3.24238" stroke="white" stroke-opacity="0.55"/>
<rect x="1298.57" y="151.523" width="52.0731" height="6.48477" rx="3.24238" stroke="white" stroke-opacity="0.55"/>
<rect x="1298.07" y="181.588" width="53.0731" height="2.55947" rx="1.27974" fill="white" fill-opacity="0.55"/>
<rect x="1298.07" y="191.945" width="53.0731" height="2.55947" rx="1.27974" fill="white" fill-opacity="0.55"/>
<rect x="1298.07" y="202.303" width="29.5977" height="2.55947" rx="1.27974" fill="white" fill-opacity="0.55"/>
<path d="M1348.84 189.033L1343.85 184.043L1345.04 182.852L1350.03 187.842L1348.84 189.033Z" fill="#0F3A8A"/>
<path d="M1335.55 202.335L1330.56 197.344L1342.98 184.926L1347.97 189.917L1335.55 202.335Z" fill="#0F3A8A"/>
<path d="M1352 185.935C1352.8 185.133 1352.8 183.85 1352 183.048L1349.91 180.963C1349.11 180.161 1347.75 180.161 1347.03 180.963L1345.98 182.005L1351.04 187.058L1352 185.935Z" fill="#0F3A8A"/>
<path d="M1327.7 204.38C1327.62 204.621 1327.7 204.861 1327.86 205.022C1327.94 205.102 1328.1 205.182 1328.26 205.182H1328.5L1334.51 203.017L1329.86 198.365L1327.7 204.38Z" fill="#0F3A8A"/>
<path opacity="0.55" d="M1303.73 153.432V155.867H1303.39L1302.16 154.081H1302.13V155.867H1301.77V153.432H1302.11L1303.34 155.22H1303.37V153.432H1303.73ZM1304.82 155.908C1304.7 155.908 1304.6 155.886 1304.5 155.843C1304.41 155.8 1304.34 155.737 1304.28 155.654C1304.23 155.572 1304.2 155.471 1304.2 155.351C1304.2 155.248 1304.22 155.163 1304.26 155.097C1304.3 155.03 1304.35 154.977 1304.42 154.939C1304.49 154.9 1304.56 154.87 1304.65 154.851C1304.73 154.831 1304.81 154.816 1304.9 154.805C1305.01 154.793 1305.1 154.782 1305.17 154.775C1305.24 154.766 1305.28 154.752 1305.32 154.733C1305.35 154.714 1305.36 154.683 1305.36 154.64V154.632C1305.36 154.528 1305.33 154.448 1305.27 154.39C1305.22 154.333 1305.13 154.305 1305.01 154.305C1304.9 154.305 1304.8 154.331 1304.73 154.385C1304.66 154.437 1304.62 154.495 1304.59 154.559L1304.26 154.483C1304.3 154.372 1304.35 154.283 1304.43 154.215C1304.51 154.146 1304.6 154.096 1304.7 154.065C1304.8 154.033 1304.9 154.017 1305.01 154.017C1305.08 154.017 1305.16 154.026 1305.24 154.043C1305.32 154.06 1305.4 154.091 1305.47 154.136C1305.54 154.181 1305.6 154.246 1305.65 154.33C1305.7 154.413 1305.72 154.521 1305.72 154.654V155.867H1305.37V155.618H1305.36C1305.33 155.663 1305.3 155.709 1305.25 155.753C1305.21 155.797 1305.15 155.834 1305.08 155.864C1305 155.893 1304.92 155.908 1304.82 155.908ZM1304.89 155.622C1304.99 155.622 1305.08 155.603 1305.15 155.564C1305.22 155.525 1305.27 155.474 1305.31 155.412C1305.34 155.348 1305.36 155.281 1305.36 155.208V154.973C1305.35 154.986 1305.33 154.998 1305.29 155.009C1305.25 155.019 1305.21 155.028 1305.17 155.036C1305.12 155.043 1305.08 155.05 1305.03 155.056C1304.99 155.062 1304.95 155.067 1304.92 155.071C1304.85 155.079 1304.79 155.094 1304.73 155.115C1304.68 155.135 1304.63 155.165 1304.6 155.204C1304.57 155.242 1304.55 155.293 1304.55 155.356C1304.55 155.444 1304.58 155.51 1304.65 155.556C1304.71 155.6 1304.79 155.622 1304.89 155.622ZM1306.24 155.867V154.041H1306.58V154.338H1306.6C1306.64 154.238 1306.7 154.159 1306.79 154.103C1306.88 154.046 1306.98 154.017 1307.1 154.017C1307.22 154.017 1307.33 154.046 1307.41 154.103C1307.49 154.16 1307.55 154.238 1307.59 154.338H1307.61C1307.65 154.241 1307.72 154.163 1307.82 154.105C1307.91 154.046 1308.03 154.017 1308.16 154.017C1308.32 154.017 1308.46 154.069 1308.56 154.173C1308.67 154.277 1308.72 154.433 1308.72 154.643V155.867H1308.37V154.676C1308.37 154.552 1308.33 154.463 1308.27 154.407C1308.2 154.352 1308.12 154.324 1308.02 154.324C1307.91 154.324 1307.82 154.36 1307.75 154.431C1307.69 154.501 1307.66 154.592 1307.66 154.703V155.867H1307.3V154.653C1307.3 154.554 1307.27 154.475 1307.21 154.414C1307.15 154.354 1307.07 154.324 1306.97 154.324C1306.9 154.324 1306.84 154.342 1306.78 154.377C1306.73 154.412 1306.68 154.461 1306.65 154.524C1306.61 154.586 1306.6 154.659 1306.6 154.741V155.867H1306.24ZM1310.03 155.904C1309.85 155.904 1309.7 155.866 1309.57 155.789C1309.44 155.711 1309.34 155.602 1309.27 155.462C1309.2 155.321 1309.17 155.155 1309.17 154.966C1309.17 154.779 1309.2 154.614 1309.27 154.471C1309.34 154.329 1309.44 154.217 1309.56 154.137C1309.69 154.057 1309.84 154.017 1310.01 154.017C1310.11 154.017 1310.21 154.034 1310.31 154.068C1310.41 154.102 1310.49 154.156 1310.57 154.229C1310.65 154.302 1310.71 154.396 1310.75 154.513C1310.8 154.629 1310.82 154.769 1310.82 154.935V155.061H1309.37V154.795H1310.47C1310.47 154.701 1310.45 154.618 1310.41 154.546C1310.37 154.473 1310.32 154.416 1310.25 154.374C1310.18 154.332 1310.1 154.311 1310.01 154.311C1309.91 154.311 1309.82 154.335 1309.75 154.385C1309.68 154.433 1309.62 154.496 1309.58 154.575C1309.54 154.652 1309.52 154.737 1309.52 154.828V155.036C1309.52 155.158 1309.54 155.262 1309.58 155.348C1309.63 155.433 1309.69 155.499 1309.77 155.544C1309.84 155.588 1309.93 155.61 1310.04 155.61C1310.11 155.61 1310.17 155.601 1310.22 155.582C1310.28 155.562 1310.33 155.533 1310.37 155.494C1310.41 155.455 1310.44 155.407 1310.46 155.35L1310.8 155.411C1310.77 155.51 1310.72 155.596 1310.65 155.671C1310.58 155.745 1310.49 155.802 1310.39 155.843C1310.29 155.884 1310.17 155.904 1310.03 155.904Z" fill="white"/>
<path opacity="0.55" d="M1301.77 167.5V165.065H1303.29V165.381H1302.13V166.123H1303.21V166.438H1302.13V167.184H1303.31V167.5H1301.77ZM1303.8 167.5V165.674H1304.14V165.971H1304.17C1304.2 165.87 1304.27 165.792 1304.35 165.736C1304.44 165.678 1304.54 165.65 1304.66 165.65C1304.79 165.65 1304.89 165.678 1304.97 165.736C1305.05 165.793 1305.11 165.871 1305.15 165.971H1305.17C1305.22 165.873 1305.29 165.796 1305.38 165.738C1305.48 165.679 1305.59 165.65 1305.72 165.65C1305.89 165.65 1306.02 165.702 1306.13 165.806C1306.23 165.91 1306.28 166.066 1306.28 166.275V167.5H1305.93V166.309C1305.93 166.185 1305.9 166.095 1305.83 166.04C1305.76 165.984 1305.68 165.957 1305.59 165.957C1305.47 165.957 1305.38 165.992 1305.32 166.064C1305.25 166.134 1305.22 166.225 1305.22 166.336V167.5H1304.87V166.286C1304.87 166.187 1304.84 166.107 1304.77 166.047C1304.71 165.987 1304.63 165.957 1304.53 165.957C1304.46 165.957 1304.4 165.975 1304.35 166.01C1304.29 166.045 1304.24 166.094 1304.21 166.156C1304.17 166.219 1304.16 166.292 1304.16 166.374V167.5H1303.8ZM1307.34 167.54C1307.22 167.54 1307.12 167.519 1307.03 167.476C1306.93 167.433 1306.86 167.37 1306.8 167.287C1306.75 167.205 1306.72 167.104 1306.72 166.984C1306.72 166.881 1306.74 166.796 1306.78 166.73C1306.82 166.663 1306.88 166.61 1306.94 166.571C1307.01 166.533 1307.09 166.503 1307.17 166.483C1307.25 166.464 1307.34 166.449 1307.42 166.438C1307.53 166.426 1307.62 166.415 1307.69 166.407C1307.76 166.399 1307.81 166.385 1307.84 166.366C1307.87 166.347 1307.89 166.316 1307.89 166.273V166.265C1307.89 166.161 1307.86 166.08 1307.8 166.023C1307.74 165.966 1307.65 165.938 1307.54 165.938C1307.42 165.938 1307.32 165.964 1307.25 166.017C1307.19 166.07 1307.14 166.128 1307.11 166.192L1306.78 166.116C1306.82 166.005 1306.88 165.915 1306.95 165.847C1307.03 165.778 1307.12 165.728 1307.22 165.698C1307.32 165.666 1307.42 165.65 1307.53 165.65C1307.61 165.65 1307.68 165.659 1307.77 165.676C1307.85 165.693 1307.92 165.724 1308 165.769C1308.07 165.814 1308.13 165.879 1308.17 165.963C1308.22 166.046 1308.24 166.154 1308.24 166.287V167.5H1307.89V167.25H1307.88C1307.86 167.296 1307.82 167.341 1307.78 167.386C1307.73 167.43 1307.67 167.467 1307.6 167.496C1307.53 167.526 1307.44 167.54 1307.34 167.54ZM1307.42 167.255C1307.52 167.255 1307.6 167.236 1307.67 167.197C1307.74 167.158 1307.79 167.107 1307.83 167.045C1307.87 166.981 1307.89 166.913 1307.89 166.841V166.606C1307.87 166.619 1307.85 166.63 1307.81 166.642C1307.78 166.652 1307.74 166.661 1307.69 166.669C1307.64 166.676 1307.6 166.683 1307.56 166.689C1307.51 166.695 1307.48 166.699 1307.45 166.703C1307.38 166.712 1307.31 166.727 1307.26 166.747C1307.2 166.768 1307.16 166.798 1307.12 166.837C1307.09 166.875 1307.07 166.925 1307.07 166.989C1307.07 167.077 1307.1 167.143 1307.17 167.188C1307.23 167.233 1307.32 167.255 1307.42 167.255ZM1308.76 167.5V165.674H1309.12V167.5H1308.76ZM1308.94 165.392C1308.88 165.392 1308.83 165.371 1308.78 165.33C1308.74 165.288 1308.72 165.238 1308.72 165.18C1308.72 165.122 1308.74 165.072 1308.78 165.031C1308.83 164.988 1308.88 164.967 1308.94 164.967C1309 164.967 1309.06 164.988 1309.1 165.031C1309.15 165.072 1309.17 165.122 1309.17 165.18C1309.17 165.238 1309.15 165.288 1309.1 165.33C1309.06 165.371 1309 165.392 1308.94 165.392ZM1310 165.065V167.5H1309.64V165.065H1310Z" fill="white"/>
<g filter="url(#filter18_d_472_5341)">
<g filter="url(#filter19_b_472_5341)">
<path d="M1310.21 215.424C1305.06 220.573 1296.71 220.573 1291.56 215.424C1286.41 210.275 1286.41 201.927 1291.56 196.778C1296.71 191.629 1305.06 191.629 1310.21 196.778C1315.36 201.927 1315.36 210.275 1310.21 215.424ZM1293.61 198.82C1289.58 202.841 1289.58 209.361 1293.61 213.382C1297.63 217.403 1304.15 217.403 1308.17 213.382C1312.19 209.361 1312.19 202.841 1308.17 198.82C1304.15 194.8 1297.63 194.8 1293.61 198.82Z" fill="url(#paint33_linear_472_5341)" fill-opacity="0.8"/>
</g>
<g filter="url(#filter20_b_472_5341)">
<circle cx="1300.89" cy="206.1" r="10.7204" transform="rotate(45 1300.89 206.1)" fill="#196F9F" fill-opacity="0.25"/>
</g>
<path fill-rule="evenodd" clip-rule="evenodd" d="M1291.85 203.938C1291.68 204.632 1291.59 205.356 1291.59 206.101C1291.59 211.232 1295.75 215.392 1300.89 215.392C1306.02 215.392 1310.18 211.232 1310.18 206.101C1310.18 205.356 1310.09 204.632 1309.92 203.938C1308.95 208.025 1305.27 211.064 1300.89 211.064C1296.5 211.064 1292.82 208.025 1291.85 203.938Z" fill="url(#paint34_linear_472_5341)" fill-opacity="0.5"/>
<g filter="url(#filter21_b_472_5341)">
<path d="M1311.41 214.061L1320.54 223.195C1321.25 223.903 1321.25 225.05 1320.54 225.757C1319.83 226.465 1318.69 226.465 1317.98 225.757L1308.84 216.622L1311.41 214.061Z" fill="url(#paint35_linear_472_5341)" fill-opacity="0.8"/>
</g>
</g>
<path d="M1304.76 204.787C1305.12 203.514 1306.12 202.521 1307.4 202.168L1307.8 202.058L1307.4 201.949H1307.4C1306.12 201.596 1305.12 200.603 1304.76 199.33L1304.65 198.934L1304.53 199.33C1304.17 200.603 1303.17 201.596 1301.89 201.949L1301.5 202.058L1301.89 202.168H1301.89C1303.17 202.521 1304.17 203.514 1304.53 204.787L1304.65 205.183L1304.76 204.787Z" fill="white" fill-opacity="0.72"/>
</g>
<defs>
<filter id="filter0_f_472_5341" x="-106.134" y="-40.8184" width="1653.94" height="549.695" filterUnits="userSpaceOnUse" color-interpolation-filters="sRGB">
<feFlood flood-opacity="0" result="BackgroundImageFix"/>
<feBlend mode="normal" in="SourceGraphic" in2="BackgroundImageFix" result="shape"/>
<feGaussianBlur stdDeviation="17" result="effect1_foregroundBlur_472_5341"/>
</filter>
<filter id="filter1_b_472_5341" x="40.577" y="357.16" width="72.2727" height="66.4924" filterUnits="userSpaceOnUse" color-interpolation-filters="sRGB">
<feFlood flood-opacity="0" result="BackgroundImageFix"/>
<feGaussianBlur in="BackgroundImageFix" stdDeviation="7.83404"/>
<feComposite in2="SourceAlpha" operator="in" result="effect1_backgroundBlur_472_5341"/>
<feBlend mode="normal" in="SourceGraphic" in2="effect1_backgroundBlur_472_5341" result="shape"/>
</filter>
<filter id="filter2_b_472_5341" x="1211.16" y="200.234" width="51.2508" height="35.1708" filterUnits="userSpaceOnUse" color-interpolation-filters="sRGB">
<feFlood flood-opacity="0" result="BackgroundImageFix"/>
<feGaussianBlur in="BackgroundImageFix" stdDeviation="2.08908"/>
<feComposite in2="SourceAlpha" operator="in" result="effect1_backgroundBlur_472_5341"/>
<feBlend mode="normal" in="SourceGraphic" in2="effect1_backgroundBlur_472_5341" result="shape"/>
</filter>
<filter id="filter3_bd_472_5341" x="1168.01" y="250.688" width="160.029" height="139.177" filterUnits="userSpaceOnUse" color-interpolation-filters="sRGB">
<feFlood flood-opacity="0" result="BackgroundImageFix"/>
<feGaussianBlur in="BackgroundImageFix" stdDeviation="2.36716"/>
<feComposite in2="SourceAlpha" operator="in" result="effect1_backgroundBlur_472_5341"/>
<feColorMatrix in="SourceAlpha" type="matrix" values="0 0 0 0 0 0 0 0 0 0 0 0 0 0 0 0 0 0 127 0" result="hardAlpha"/>
<feOffset dx="22.488" dy="37.8746"/>
<feGaussianBlur stdDeviation="2.36716"/>
<feComposite in2="hardAlpha" operator="out"/>
<feColorMatrix type="matrix" values="0 0 0 0 0.0319739 0 0 0 0 0.0236979 0 0 0 0 0.4375 0 0 0 0.05 0"/>
<feBlend mode="normal" in2="effect1_backgroundBlur_472_5341" result="effect2_dropShadow_472_5341"/>
<feBlend mode="normal" in="SourceGraphic" in2="effect2_dropShadow_472_5341" result="shape"/>
</filter>
<filter id="filter4_b_472_5341" x="1171.47" y="253.881" width="130.623" height="94.9198" filterUnits="userSpaceOnUse" color-interpolation-filters="sRGB">
<feFlood flood-opacity="0" result="BackgroundImageFix"/>
<feGaussianBlur in="BackgroundImageFix" stdDeviation="2.36716"/>
<feComposite in2="SourceAlpha" operator="in" result="effect1_backgroundBlur_472_5341"/>
<feBlend mode="normal" in="SourceGraphic" in2="effect1_backgroundBlur_472_5341" result="shape"/>
</filter>
<filter id="filter5_bd_472_5341" x="1161.2" y="343.826" width="173.664" height="59.3999" filterUnits="userSpaceOnUse" color-interpolation-filters="sRGB">
<feFlood flood-opacity="0" result="BackgroundImageFix"/>
<feGaussianBlur in="BackgroundImageFix" stdDeviation="2.36716"/>
<feComposite in2="SourceAlpha" operator="in" result="effect1_backgroundBlur_472_5341"/>
<feColorMatrix in="SourceAlpha" type="matrix" values="0 0 0 0 0 0 0 0 0 0 0 0 0 0 0 0 0 0 127 0" result="hardAlpha"/>
<feOffset dx="22.488" dy="37.8746"/>
<feGaussianBlur stdDeviation="2.36716"/>
<feComposite in2="hardAlpha" operator="out"/>
<feColorMatrix type="matrix" values="0 0 0 0 0.0319739 0 0 0 0 0.0236979 0 0 0 0 0.4375 0 0 0 0.05 0"/>
<feBlend mode="normal" in2="effect1_backgroundBlur_472_5341" result="effect2_dropShadow_472_5341"/>
<feBlend mode="normal" in="SourceGraphic" in2="effect2_dropShadow_472_5341" result="shape"/>
</filter>
<filter id="filter6_bd_472_5341" x="1259.43" y="260.443" width="63.2766" height="36.9384" filterUnits="userSpaceOnUse" color-interpolation-filters="sRGB">
<feFlood flood-opacity="0" result="BackgroundImageFix"/>
<feGaussianBlur in="BackgroundImageFix" stdDeviation="1.56681"/>
<feComposite in2="SourceAlpha" operator="in" result="effect1_backgroundBlur_472_5341"/>
<feColorMatrix in="SourceAlpha" type="matrix" values="0 0 0 0 0 0 0 0 0 0 0 0 0 0 0 0 0 0 127 0" result="hardAlpha"/>
<feOffset dx="-3.13362" dy="9.40085"/>
<feGaussianBlur stdDeviation="0.522269"/>
<feColorMatrix type="matrix" values="0 0 0 0 0.02625 0 0 0 0 0.0392 0 0 0 0 0.35 0 0 0 0.06 0"/>
<feBlend mode="normal" in2="effect1_backgroundBlur_472_5341" result="effect2_dropShadow_472_5341"/>
<feBlend mode="normal" in="SourceGraphic" in2="effect2_dropShadow_472_5341" result="shape"/>
</filter>
<filter id="filter7_f_472_5341" x="897.239" y="-462.367" width="991.367" height="943.094" filterUnits="userSpaceOnUse" color-interpolation-filters="sRGB">
<feFlood flood-opacity="0" result="BackgroundImageFix"/>
<feBlend mode="normal" in="SourceGraphic" in2="BackgroundImageFix" result="shape"/>
<feGaussianBlur stdDeviation="117" result="effect1_foregroundBlur_472_5341"/>
</filter>
<filter id="filter8_f_472_5341" x="-134.794" y="-368.879" width="1175.03" height="832.441" filterUnits="userSpaceOnUse" color-interpolation-filters="sRGB">
<feFlood flood-opacity="0" result="BackgroundImageFix"/>
<feBlend mode="normal" in="SourceGraphic" in2="BackgroundImageFix" result="shape"/>
<feGaussianBlur stdDeviation="117" result="effect1_foregroundBlur_472_5341"/>
</filter>
<filter id="filter9_f_472_5341" x="219.835" y="-476.447" width="1116.9" height="1131.1" filterUnits="userSpaceOnUse" color-interpolation-filters="sRGB">
<feFlood flood-opacity="0" result="BackgroundImageFix"/>
<feBlend mode="normal" in="SourceGraphic" in2="BackgroundImageFix" result="shape"/>
<feGaussianBlur stdDeviation="117" result="effect1_foregroundBlur_472_5341"/>
</filter>
<filter id="filter10_f_472_5341" x="-542.602" y="-599.74" width="1157.37" height="1109.09" filterUnits="userSpaceOnUse" color-interpolation-filters="sRGB">
<feFlood flood-opacity="0" result="BackgroundImageFix"/>
<feBlend mode="normal" in="SourceGraphic" in2="BackgroundImageFix" result="shape"/>
<feGaussianBlur stdDeviation="158.5" result="effect1_foregroundBlur_472_5341"/>
</filter>
<filter id="filter11_bd_472_5341" x="-85.3477" y="-67.0762" width="1611.94" height="84.8926" filterUnits="userSpaceOnUse" color-interpolation-filters="sRGB">
<feFlood flood-opacity="0" result="BackgroundImageFix"/>
<feGaussianBlur in="BackgroundImageFix" stdDeviation="4"/>
<feComposite in2="SourceAlpha" operator="in" result="effect1_backgroundBlur_472_5341"/>
<feColorMatrix in="SourceAlpha" type="matrix" values="0 0 0 0 0 0 0 0 0 0 0 0 0 0 0 0 0 0 127 0" result="hardAlpha"/>
<feOffset dy="4"/>
<feGaussianBlur stdDeviation="6.5"/>
<feComposite in2="hardAlpha" operator="out"/>
<feColorMatrix type="matrix" values="0 0 0 0 0.175678 0 0 0 0 0.173906 0 0 0 0 0.2625 0 0 0 0.09 0"/>
<feBlend mode="normal" in2="effect1_backgroundBlur_472_5341" result="effect2_dropShadow_472_5341"/>
<feBlend mode="normal" in="SourceGraphic" in2="effect2_dropShadow_472_5341" result="shape"/>
</filter>
<filter id="filter12_bd_472_5341" x="-21.9668" y="182.234" width="142.193" height="184.096" filterUnits="userSpaceOnUse" color-interpolation-filters="sRGB">
<feFlood flood-opacity="0" result="BackgroundImageFix"/>
<feGaussianBlur in="BackgroundImageFix" stdDeviation="2"/>
<feComposite in2="SourceAlpha" operator="in" result="effect1_backgroundBlur_472_5341"/>
<feColorMatrix in="SourceAlpha" type="matrix" values="0 0 0 0 0 0 0 0 0 0 0 0 0 0 0 0 0 0 127 0" result="hardAlpha"/>
<feOffset dx="19" dy="32"/>
<feGaussianBlur stdDeviation="2"/>
<feComposite in2="hardAlpha" operator="out"/>
<feColorMatrix type="matrix" values="0 0 0 0 0.0319739 0 0 0 0 0.0236979 0 0 0 0 0.4375 0 0 0 0.05 0"/>
<feBlend mode="normal" in2="effect1_backgroundBlur_472_5341" result="effect2_dropShadow_472_5341"/>
<feBlend mode="normal" in="SourceGraphic" in2="effect2_dropShadow_472_5341" result="shape"/>
</filter>
<filter id="filter13_b_472_5341" x="-16.1895" y="187.676" width="111.639" height="141.213" filterUnits="userSpaceOnUse" color-interpolation-filters="sRGB">
<feFlood flood-opacity="0" result="BackgroundImageFix"/>
<feGaussianBlur in="BackgroundImageFix" stdDeviation="2"/>
<feComposite in2="SourceAlpha" operator="in" result="effect1_backgroundBlur_472_5341"/>
<feBlend mode="normal" in="SourceGraphic" in2="effect1_backgroundBlur_472_5341" result="shape"/>
</filter>
<filter id="filter14_b_472_5341" x="110.219" y="243.656" width="56.5938" height="104.855" filterUnits="userSpaceOnUse" color-interpolation-filters="sRGB">
<feFlood flood-opacity="0" result="BackgroundImageFix"/>
<feGaussianBlur in="BackgroundImageFix" stdDeviation="2"/>
<feComposite in2="SourceAlpha" operator="in" result="effect1_backgroundBlur_472_5341"/>
<feBlend mode="normal" in="SourceGraphic" in2="effect1_backgroundBlur_472_5341" result="shape"/>
</filter>
<filter id="filter15_b_472_5341" x="63.3701" y="108.273" width="43.957" height="43.957" filterUnits="userSpaceOnUse" color-interpolation-filters="sRGB">
<feFlood flood-opacity="0" result="BackgroundImageFix"/>
<feGaussianBlur in="BackgroundImageFix" stdDeviation="2"/>
<feComposite in2="SourceAlpha" operator="in" result="effect1_backgroundBlur_472_5341"/>
<feBlend mode="normal" in="SourceGraphic" in2="effect1_backgroundBlur_472_5341" result="shape"/>
</filter>
<filter id="filter16_b_472_5341" x="58.0898" y="102.994" width="54.5166" height="54.5176" filterUnits="userSpaceOnUse" color-interpolation-filters="sRGB">
<feFlood flood-opacity="0" result="BackgroundImageFix"/>
<feGaussianBlur in="BackgroundImageFix" stdDeviation="2"/>
<feComposite in2="SourceAlpha" operator="in" result="effect1_backgroundBlur_472_5341"/>
<feBlend mode="normal" in="SourceGraphic" in2="effect1_backgroundBlur_472_5341" result="shape"/>
</filter>
<filter id="filter17_b_472_5341" x="1272.37" y="115.135" width="104.461" height="120.6" filterUnits="userSpaceOnUse" color-interpolation-filters="sRGB">
<feFlood flood-opacity="0" result="BackgroundImageFix"/>
<feGaussianBlur in="BackgroundImageFix" stdDeviation="7.83404"/>
<feComposite in2="SourceAlpha" operator="in" result="effect1_backgroundBlur_472_5341"/>
<feBlend mode="normal" in="SourceGraphic" in2="effect1_backgroundBlur_472_5341" result="shape"/>
</filter>
<filter id="filter18_d_472_5341" x="1283.7" y="192.916" width="41.3691" height="47.3711" filterUnits="userSpaceOnUse" color-interpolation-filters="sRGB">
<feFlood flood-opacity="0" result="BackgroundImageFix"/>
<feColorMatrix in="SourceAlpha" type="matrix" values="0 0 0 0 0 0 0 0 0 0 0 0 0 0 0 0 0 0 127 0" result="hardAlpha"/>
<feOffset dy="10"/>
<feGaussianBlur stdDeviation="2"/>
<feComposite in2="hardAlpha" operator="out"/>
<feColorMatrix type="matrix" values="0 0 0 0 0.177222 0 0 0 0 0.100694 0 0 0 0 0.483333 0 0 0 0.15 0"/>
<feBlend mode="normal" in2="BackgroundImageFix" result="effect1_dropShadow_472_5341"/>
<feBlend mode="normal" in="SourceGraphic" in2="effect1_dropShadow_472_5341" result="shape"/>
</filter>
<filter id="filter19_b_472_5341" x="1272.03" y="177.248" width="57.7053" height="57.7053" filterUnits="userSpaceOnUse" color-interpolation-filters="sRGB">
<feFlood flood-opacity="0" result="BackgroundImageFix"/>
<feGaussianBlur in="BackgroundImageFix" stdDeviation="7.83404"/>
<feComposite in2="SourceAlpha" operator="in" result="effect1_backgroundBlur_472_5341"/>
<feBlend mode="normal" in="SourceGraphic" in2="effect1_backgroundBlur_472_5341" result="shape"/>
</filter>
<filter id="filter20_b_472_5341" x="1287.17" y="192.381" width="27.4414" height="27.4395" filterUnits="userSpaceOnUse" color-interpolation-filters="sRGB">
<feFlood flood-opacity="0" result="BackgroundImageFix"/>
<feGaussianBlur in="BackgroundImageFix" stdDeviation="1.5"/>
<feComposite in2="SourceAlpha" operator="in" result="effect1_backgroundBlur_472_5341"/>
<feBlend mode="normal" in="SourceGraphic" in2="effect1_backgroundBlur_472_5341" result="shape"/>
</filter>
<filter id="filter21_b_472_5341" x="1293.18" y="198.392" width="43.5627" height="43.5627" filterUnits="userSpaceOnUse" color-interpolation-filters="sRGB">
<feFlood flood-opacity="0" result="BackgroundImageFix"/>
<feGaussianBlur in="BackgroundImageFix" stdDeviation="7.83404"/>
<feComposite in2="SourceAlpha" operator="in" result="effect1_backgroundBlur_472_5341"/>
<feBlend mode="normal" in="SourceGraphic" in2="effect1_backgroundBlur_472_5341" result="shape"/>
</filter>
<linearGradient id="paint0_linear_472_5341" x1="76.7136" y1="372.828" x2="76.7136" y2="407.983" gradientUnits="userSpaceOnUse">
<stop stop-color="#B6D2FF"/>
<stop offset="1" stop-color="#D9E7FF" stop-opacity="0.13"/>
</linearGradient>
<linearGradient id="paint1_linear_472_5341" x1="1236.79" y1="204.412" x2="1236.79" y2="231.227" gradientUnits="userSpaceOnUse">
<stop stop-color="#62D7B2"/>
<stop offset="1" stop-color="#93E5CD" stop-opacity="0.08"/>
</linearGradient>
<linearGradient id="paint2_linear_472_5341" x1="1236.78" y1="255.422" x2="1236.78" y2="347.256" gradientUnits="userSpaceOnUse">
<stop stop-color="#8CB2EF"/>
<stop offset="1" stop-color="#4583E9" stop-opacity="0.13"/>
</linearGradient>
<linearGradient id="paint3_linear_472_5341" x1="1236.78" y1="255.422" x2="1236.78" y2="347.256" gradientUnits="userSpaceOnUse">
<stop stop-color="white" stop-opacity="0.69"/>
<stop offset="1" stop-color="white" stop-opacity="0"/>
</linearGradient>
<linearGradient id="paint4_linear_472_5341" x1="1236.79" y1="258.615" x2="1236.79" y2="344.066" gradientUnits="userSpaceOnUse">
<stop stop-color="#B6D2FF"/>
<stop offset="1" stop-color="#D9E7FF" stop-opacity="0.13"/>
</linearGradient>
<linearGradient id="paint5_linear_472_5341" x1="1236.79" y1="348.561" x2="1236.79" y2="360.617" gradientUnits="userSpaceOnUse">
<stop stop-color="#8CB2EF"/>
<stop offset="1" stop-color="#4583E9" stop-opacity="0.13"/>
</linearGradient>
<linearGradient id="paint6_linear_472_5341" x1="1236.79" y1="348.561" x2="1236.79" y2="360.617" gradientUnits="userSpaceOnUse">
<stop stop-color="white" stop-opacity="0.69"/>
<stop offset="1" stop-color="white" stop-opacity="0"/>
</linearGradient>
<linearGradient id="paint7_linear_472_5341" x1="1261.91" y1="286.936" x2="1321.5" y2="286.936" gradientUnits="userSpaceOnUse">
<stop stop-color="#4F95FF"/>
<stop offset="1" stop-color="white" stop-opacity="0.42"/>
</linearGradient>
<radialGradient id="paint8_radial_472_5341" cx="0" cy="0" r="1" gradientUnits="userSpaceOnUse" gradientTransform="translate(639.431 540.691) scale(1091.07 780.873)">
<stop stop-color="#1853D4"/>
<stop offset="0.56" stop-color="#1AD0FF"/>
<stop offset="1" stop-color="white"/>
</radialGradient>
<radialGradient id="paint9_radial_472_5341" cx="0" cy="0" r="1" gradientUnits="userSpaceOnUse" gradientTransform="translate(651.666 689.359) scale(1124.24 804.609)">
<stop stop-color="#1853D4"/>
<stop offset="0.56" stop-color="#1AD0FF"/>
<stop offset="1" stop-color="white"/>
</radialGradient>
<radialGradient id="paint10_radial_472_5341" cx="0" cy="0" r="1" gradientUnits="userSpaceOnUse" gradientTransform="translate(578.358 674.059) scale(1258.79 900.909)">
<stop stop-color="#1853D4"/>
<stop offset="0.56" stop-color="#1AD0FF"/>
<stop offset="1" stop-color="white"/>
</radialGradient>
<radialGradient id="paint11_radial_472_5341" cx="0" cy="0" r="1" gradientUnits="userSpaceOnUse" gradientTransform="translate(990.782 569.126) scale(1368.67 979.547)">
<stop stop-color="#1853D4"/>
<stop offset="0.56" stop-color="#1AD0FF"/>
<stop offset="1" stop-color="white"/>
</radialGradient>
<radialGradient id="paint12_radial_472_5341" cx="0" cy="0" r="1" gradientUnits="userSpaceOnUse" gradientTransform="translate(619.861 715.34) scale(1200.14 1228.13)">
<stop stop-color="#A8EDFF"/>
<stop offset="1" stop-color="white"/>
</radialGradient>
<radialGradient id="paint13_radial_472_5341" cx="0" cy="0" r="1" gradientUnits="userSpaceOnUse" gradientTransform="translate(633.32 949.204) scale(1236.66 1265.5)">
<stop stop-color="#A8EDFF"/>
<stop offset="1" stop-color="white"/>
</radialGradient>
<radialGradient id="paint14_radial_472_5341" cx="0" cy="0" r="1" gradientUnits="userSpaceOnUse" gradientTransform="translate(552.681 925.103) scale(1384.67 1416.96)">
<stop stop-color="#A8EDFF"/>
<stop offset="1" stop-color="white"/>
</radialGradient>
<radialGradient id="paint15_radial_472_5341" cx="0" cy="0" r="1" gradientUnits="userSpaceOnUse" gradientTransform="translate(1006.31 760.063) scale(1505.53 1540.65)">
<stop stop-color="#A8EDFF"/>
<stop offset="1" stop-color="white"/>
</radialGradient>
<linearGradient id="paint16_linear_472_5341" x1="1019" y1="26.3203" x2="847.78" y2="26.3203" gradientUnits="userSpaceOnUse">
<stop stop-color="#89ECD8"/>
<stop offset="1" stop-color="#89ECD8" stop-opacity="0"/>
</linearGradient>
<linearGradient id="paint17_linear_472_5341" x1="1028.04" y1="-14.0645" x2="1028.04" y2="26.3203" gradientUnits="userSpaceOnUse">
<stop stop-color="#1EAFB3"/>
<stop offset="1" stop-color="#5AD7FF"/>
</linearGradient>
<linearGradient id="paint18_linear_472_5341" x1="683.947" y1="-0.203125" x2="683.947" y2="665.495" gradientUnits="userSpaceOnUse">
<stop offset="0.453125" stop-color="#3C46F4" stop-opacity="0"/>
<stop offset="0.71875" stop-color="#94CAFB" stop-opacity="0.91"/>
</linearGradient>
<linearGradient id="paint19_linear_472_5341" x1="905.203" y1="42.5925" x2="747.52" y2="42.5925" gradientUnits="userSpaceOnUse">
<stop stop-color="#78BDFD"/>
<stop offset="1" stop-color="#78BDFD" stop-opacity="0"/>
</linearGradient>
<linearGradient id="paint20_linear_472_5341" x1="530.385" y1="360.714" x2="170.031" y2="360.714" gradientUnits="userSpaceOnUse">
<stop stop-color="#78BDFD"/>
<stop offset="1" stop-color="#78BDFD" stop-opacity="0"/>
</linearGradient>
<linearGradient id="paint21_linear_472_5341" x1="1307.75" y1="80.3503" x2="947.4" y2="80.3503" gradientUnits="userSpaceOnUse">
<stop stop-color="#37C3FF"/>
<stop offset="1" stop-color="#78BDFD" stop-opacity="0"/>
</linearGradient>
<linearGradient id="paint22_linear_472_5341" x1="694.791" y1="51.235" x2="577.9" y2="51.235" gradientUnits="userSpaceOnUse">
<stop stop-color="#89ECD8"/>
<stop offset="1" stop-color="#89ECD8" stop-opacity="0"/>
</linearGradient>
<linearGradient id="paint23_linear_472_5341" x1="700.962" y1="23.6641" x2="700.962" y2="51.235" gradientUnits="userSpaceOnUse">
<stop stop-color="#23A3FF"/>
<stop offset="1" stop-color="white"/>
</linearGradient>
<linearGradient id="paint24_linear_472_5341" x1="1313.61" y1="446.777" x2="1142.39" y2="446.777" gradientUnits="userSpaceOnUse">
<stop stop-color="#F4FFFF"/>
<stop offset="1" stop-color="#89ECD8" stop-opacity="0"/>
</linearGradient>
<linearGradient id="paint25_linear_472_5341" x1="1351.43" y1="417.997" x2="1322.65" y2="446.777" gradientUnits="userSpaceOnUse">
<stop stop-color="#287EFF"/>
<stop offset="1" stop-color="#F9FDFF"/>
</linearGradient>
<linearGradient id="paint26_linear_472_5341" x1="39.6301" y1="186.234" x2="39.6301" y2="330.33" gradientUnits="userSpaceOnUse">
<stop stop-color="#8CB2EF"/>
<stop offset="1" stop-color="#4583E9" stop-opacity="0.13"/>
</linearGradient>
<linearGradient id="paint27_linear_472_5341" x1="39.6301" y1="186.234" x2="39.6301" y2="330.33" gradientUnits="userSpaceOnUse">
<stop stop-color="white" stop-opacity="0.69"/>
<stop offset="1" stop-color="white" stop-opacity="0"/>
</linearGradient>
<linearGradient id="paint28_linear_472_5341" x1="39.6301" y1="191.676" x2="39.6301" y2="324.889" gradientUnits="userSpaceOnUse">
<stop stop-color="#B6D2FF"/>
<stop offset="1" stop-color="#D9E7FF" stop-opacity="0.13"/>
</linearGradient>
<linearGradient id="paint29_linear_472_5341" x1="138.516" y1="247.656" x2="138.516" y2="344.512" gradientUnits="userSpaceOnUse">
<stop stop-color="#B6D2FF"/>
<stop offset="1" stop-color="#D9E7FF" stop-opacity="0.13"/>
</linearGradient>
<linearGradient id="paint30_linear_472_5341" x1="85.3484" y1="112.273" x2="85.3484" y2="148.23" gradientUnits="userSpaceOnUse">
<stop stop-color="#FB967C"/>
<stop offset="1" stop-color="#36A8DB"/>
</linearGradient>
<linearGradient id="paint31_linear_472_5341" x1="85.3484" y1="106.994" x2="85.3484" y2="153.511" gradientUnits="userSpaceOnUse">
<stop stop-color="#E0998A"/>
<stop offset="1" stop-color="#43A7D5" stop-opacity="0"/>
</linearGradient>
<linearGradient id="paint32_linear_472_5341" x1="1324.6" y1="130.803" x2="1324.6" y2="220.066" gradientUnits="userSpaceOnUse">
<stop stop-color="#B6D2FF"/>
<stop offset="1" stop-color="#D9E7FF" stop-opacity="0.13"/>
</linearGradient>
<linearGradient id="paint33_linear_472_5341" x1="1295.31" y1="219.107" x2="1316.22" y2="184.405" gradientUnits="userSpaceOnUse">
<stop stop-color="#F6F3FF"/>
<stop offset="1" stop-color="white" stop-opacity="0.13"/>
</linearGradient>
<linearGradient id="paint34_linear_472_5341" x1="1300.89" y1="215.392" x2="1301.84" y2="207.058" gradientUnits="userSpaceOnUse">
<stop stop-color="white"/>
<stop offset="1" stop-color="white" stop-opacity="0"/>
</linearGradient>
<linearGradient id="paint35_linear_472_5341" x1="1316.61" y1="219.268" x2="1314.05" y2="221.83" gradientUnits="userSpaceOnUse">
<stop stop-color="#F6F3FF"/>
<stop offset="1" stop-color="white" stop-opacity="0.13"/>
</linearGradient>
<clipPath id="clip0_472_5341">
<rect width="1440" height="582" fill="white" transform="translate(0.623047 0.582031)"/>
</clipPath>
<clipPath id="clip1_472_5341">
<rect width="2141.55" height="634.711" fill="white" transform="translate(-361.078 -88.5059)"/>
</clipPath>
<clipPath id="clip2_472_5341">
<rect x="-11.5508" y="193.889" width="103" height="131" rx="2" fill="white"/>
</clipPath>
<clipPath id="clip3_472_5341">
<rect width="48" height="97" fill="white" transform="translate(114.812 247.656)"/>
</clipPath>
</defs>
</svg>
