<svg width="1440" height="583" viewBox="0 0 1440 583" fill="none" xmlns="http://www.w3.org/2000/svg">
<g clip-path="url(#clip0_472_6086)">
<rect width="1440" height="582" transform="translate(0 0.582031)" fill="white"/>
<rect opacity="0.8" x="145.889" y="303.68" width="55.5229" height="104.105" rx="7" fill="#D9D9D9" fill-opacity="0.33"/>
<g filter="url(#filter0_f_472_6086)">
<rect x="-72.7578" y="-8.37891" width="1585.94" height="481.695" fill="#143D95"/>
</g>
<rect opacity="0.8" x="127.727" y="279.109" width="55.5229" height="104.105" rx="7" fill="white" fill-opacity="0.12"/>
<rect x="1324.71" y="117.152" width="64.1251" height="87.3171" rx="3" fill="#D9D9D9" fill-opacity="0.04"/>
<g filter="url(#filter1_f_472_6086)">
<rect x="1197.64" y="-281.26" width="525.58" height="457.31" rx="228.655" transform="rotate(15 1197.64 -281.26)" fill="#23FFBD" fill-opacity="0.52"/>
</g>
<g opacity="0.1">
<g clip-path="url(#clip1_472_6086)">
<g style="mix-blend-mode:multiply">
<path d="M476.312 186.046C801.269 221.939 1010.71 324.843 1256.07 334.515C1380.93 339.434 1513.18 320.783 1607.66 258.62C1627.18 245.796 1656.4 266.597 1636.84 279.493C1553.09 334.586 1442.45 359.781 1330.31 364.103C967.648 378.121 726.517 185.306 149.19 201.783C20.3761 205.461 -117.993 222.608 -217.387 286.012C-237.149 298.621 -266.397 277.821 -246.566 265.14C-237.768 265.14 -84.483 124.098 476.278 186.046H476.312Z" fill="url(#paint0_radial_472_6086)"/>
</g>
<g style="mix-blend-mode:multiply">
<path d="M67.873 179.407C501.057 104.994 840.449 378.743 1281.12 269.797C1397.81 240.949 1513.08 184.016 1589.17 112.134C1644.61 59.7868 1721.8 120.302 1687.09 153.09C1531.23 300.293 1276.73 388.868 1017.21 376.569C707.716 361.883 435.928 227.719 150.805 250.597C47.458 258.883 -71.0455 296.042 -131.603 366.611C-147.138 384.689 -183.053 393.215 -209.208 381.155C-234.572 369.453 -246.154 344.999 -229.554 325.655C-226.633 325.655 -154.287 217.569 67.873 179.407Z" fill="url(#paint1_radial_472_6086)"/>
</g>
<g style="mix-blend-mode:multiply">
<path d="M41.8569 184.589C469.851 96.1578 826.29 358.587 1259.58 235.408C1374.3 202.787 1485.83 142.153 1557.28 67.9064C1609.31 13.7919 1690.29 71.7513 1657.7 105.639C1511.36 257.761 1262.77 354.527 1002.74 350.658C692.63 346.049 412.593 220.865 129.222 253.009C26.494 264.663 -89.5005 305.643 -145.522 378.098C-159.888 396.653 -195.219 406.349 -222.095 395.149C-248.181 384.283 -261.31 360.235 -245.947 340.366C-243.026 340.27 -177.656 229.963 41.8913 184.589H41.8569Z" fill="url(#paint2_radial_472_6086)"/>
</g>
<g style="mix-blend-mode:multiply">
<path d="M466.723 169.354C591.653 198.274 702.596 249.785 818.59 292.532C1104.02 397.728 1379.9 388.892 1612.34 300.126C1624.06 295.661 1634.47 308.389 1622.75 312.855C1399.11 398.254 1127.94 405.92 895.061 334.778C664.653 264.4 498.273 144.637 173.11 157.413C33.8826 162.882 -102.493 194.142 -219.45 248.543C-230.619 253.725 -240.964 240.973 -229.863 235.815C-222.646 235.815 66.5328 76.7427 466.688 169.354H466.723Z" fill="url(#paint3_radial_472_6086)"/>
</g>
<g style="mix-blend-mode:multiply">
<path d="M439.881 130.116C796.938 186.475 1027.14 348.007 1296.73 363.171C1433.93 370.885 1579.24 341.607 1683.1 244.028C1704.55 223.873 1736.68 256.542 1715.13 276.769C1623.09 363.243 1501.5 402.79 1378.32 409.596C979.78 431.59 714.831 128.922 80.4182 154.785C-61.1467 160.564 -213.194 187.478 -322.384 286.99C-344.105 306.764 -376.24 274.142 -354.415 254.249C-344.723 254.249 -176.282 32.8479 439.881 130.116Z" fill="url(#paint4_radial_472_6086)"/>
</g>
<g style="mix-blend-mode:multiply">
<path d="M-8.9408 119.704C467.067 2.8773 840.002 432.617 1324.26 261.581C1452.45 216.303 1579.14 126.916 1662.76 14.1014C1723.66 -68.0734 1808.51 26.9256 1770.36 78.3893C1599.07 309.463 1319.45 448.522 1034.25 429.178C694.175 406.133 395.476 195.502 82.1708 231.443C-31.418 244.458 -161.607 302.8 -228.179 413.56C-245.226 441.931 -284.716 455.328 -313.448 436.414C-341.321 418.05 -354.072 379.649 -335.788 349.296C-332.557 349.296 -253.097 179.645 -8.9408 119.727V119.704Z" fill="url(#paint5_radial_472_6086)"/>
</g>
<g style="mix-blend-mode:multiply">
<path d="M-37.5352 127.848C432.801 -10.9728 824.468 400.976 1300.58 207.611C1426.64 156.41 1549.2 61.2436 1627.7 -55.3439C1684.89 -140.265 1773.87 -49.3019 1738.06 3.85734C1577.25 242.644 1304.05 394.552 1018.34 388.486C677.576 381.25 369.838 184.757 58.4568 235.193C-54.4103 253.486 -181.884 317.798 -243.473 431.544C-259.248 460.679 -298.085 475.891 -327.642 458.338C-356.306 441.287 -370.74 403.531 -353.865 372.342C-350.635 372.199 -278.804 199.014 -37.5696 127.824L-37.5352 127.848Z" fill="url(#paint6_radial_472_6086)"/>
</g>
<g style="mix-blend-mode:multiply">
<path d="M429.331 103.896C566.634 149.293 688.54 230.155 815.979 297.261C1129.63 462.398 1432.76 448.5 1688.22 309.177C1701.08 302.156 1712.56 322.145 1699.67 329.166C1453.9 463.21 1155.92 475.246 900.045 363.578C646.885 253.105 464.009 65.1127 106.711 85.1489C-46.2645 93.7222 -196.147 142.822 -324.652 228.197C-336.921 236.34 -348.297 216.304 -336.096 208.208C-328.157 208.208 -10.4178 -41.4925 429.331 103.896Z" fill="url(#paint7_radial_472_6086)"/>
</g>
</g>
</g>
<g opacity="0.5">
<g opacity="0.3">
<rect x="809.189" y="-15.625" width="219.445" height="40.3847" fill="url(#paint8_linear_472_6086)" style="mix-blend-mode:screen"/>
</g>
<circle cx="1027.41" cy="4.56735" r="20.1924" transform="rotate(90 1027.41 4.56735)" fill="url(#paint9_linear_472_6086)"/>
</g>
<g filter="url(#filter2_f_472_6086)">
<rect x="133.611" y="-163.266" width="723.481" height="238.986" rx="119.493" transform="rotate(15 133.611 -163.266)" fill="#FF6332" fill-opacity="0.74"/>
</g>
<path d="M34.6504 -26.3477V387.896" stroke="#64B2C4" stroke-opacity="0.18"/>
<path d="M761.998 24.7598L-26.707 24.7597" stroke="#64B2C4" stroke-opacity="0.18"/>
<path d="M761.998 53.8105L-26.707 53.8105" stroke="#64B2C4" stroke-opacity="0.18"/>
<path d="M761.998 82.8613L-26.707 82.8613" stroke="#64B2C4" stroke-opacity="0.18"/>
<path d="M761.998 111.912L-26.707 111.912" stroke="#64B2C4" stroke-opacity="0.18"/>
<path d="M761.998 140.963L-26.707 140.963" stroke="#64B2C4" stroke-opacity="0.18"/>
<path d="M761.998 170.014L-26.707 170.014" stroke="#64B2C4" stroke-opacity="0.18"/>
<path d="M761.998 199.064L-26.707 199.064" stroke="#64B2C4" stroke-opacity="0.18"/>
<path d="M761.998 228.115L-26.707 228.115" stroke="#64B2C4" stroke-opacity="0.18"/>
<path d="M761.998 257.166L-26.707 257.166" stroke="#64B2C4" stroke-opacity="0.18"/>
<path d="M761.998 286.217L-26.707 286.217" stroke="#64B2C4" stroke-opacity="0.18"/>
<path d="M761.998 315.268L-26.707 315.268" stroke="#64B2C4" stroke-opacity="0.18"/>
<path d="M761.998 344.318L-26.707 344.318" stroke="#64B2C4" stroke-opacity="0.18"/>
<path d="M761.998 373.369L-26.707 373.369" stroke="#64B2C4" stroke-opacity="0.18"/>
<path d="M62.625 -26.3477V387.896" stroke="#64B2C4" stroke-opacity="0.18"/>
<path d="M90.5996 -26.3477V387.896" stroke="#64B2C4" stroke-opacity="0.18"/>
<path d="M118.574 -26.3477V387.896" stroke="#64B2C4" stroke-opacity="0.18"/>
<path d="M146.549 -26.3477V387.896" stroke="#64B2C4" stroke-opacity="0.18"/>
<path d="M174.523 -26.3477V387.896" stroke="#64B2C4" stroke-opacity="0.18"/>
<path d="M202.5 -26.3477V387.896" stroke="#64B2C4" stroke-opacity="0.18"/>
<path d="M230.475 -26.3477V387.896" stroke="#64B2C4" stroke-opacity="0.18"/>
<path d="M258.449 -26.3477V387.896" stroke="#64B2C4" stroke-opacity="0.18"/>
<path d="M286.424 -26.3477V387.896" stroke="#64B2C4" stroke-opacity="0.18"/>
<path d="M314.398 -26.3477V387.896" stroke="#64B2C4" stroke-opacity="0.18"/>
<path d="M342.375 -26.3477V387.896" stroke="#64B2C4" stroke-opacity="0.18"/>
<path d="M370.35 -26.3477V387.896" stroke="#64B2C4" stroke-opacity="0.18"/>
<path d="M398.324 -26.3477V387.896" stroke="#64B2C4" stroke-opacity="0.18"/>
<path d="M426.299 -26.3477V387.896" stroke="#64B2C4" stroke-opacity="0.18"/>
<path d="M454.273 -26.3477V387.896" stroke="#64B2C4" stroke-opacity="0.18"/>
<path d="M482.25 -26.3477V387.896" stroke="#64B2C4" stroke-opacity="0.18"/>
<path d="M510.225 -26.3477V387.896" stroke="#64B2C4" stroke-opacity="0.18"/>
<path d="M538.199 -26.3477V387.896" stroke="#64B2C4" stroke-opacity="0.18"/>
<path d="M566.174 -26.3477V387.896" stroke="#64B2C4" stroke-opacity="0.18"/>
<path d="M594.148 -26.3477V387.896" stroke="#64B2C4" stroke-opacity="0.18"/>
<path d="M622.123 -26.3477V387.896" stroke="#64B2C4" stroke-opacity="0.18"/>
<path d="M650.1 -26.3477V387.896" stroke="#64B2C4" stroke-opacity="0.18"/>
<path d="M678.074 -26.3477V387.896" stroke="#64B2C4" stroke-opacity="0.18"/>
<path d="M706.049 -26.3477V387.896" stroke="#64B2C4" stroke-opacity="0.18"/>
<path d="M734.023 -26.3477V387.896" stroke="#64B2C4" stroke-opacity="0.18"/>
<g filter="url(#filter3_f_472_6086)">
<rect x="594.439" y="-244.008" width="525.58" height="580.505" transform="rotate(15 594.439 -244.008)" fill="#0A2963"/>
</g>
<g filter="url(#filter4_f_472_6086)">
<rect x="-159.197" y="-335.633" width="525.58" height="457.31" rx="228.655" transform="rotate(15 -159.197 -335.633)" fill="#16C7FF" fill-opacity="0.56"/>
</g>
<g filter="url(#filter5_bd_472_6086)">
<rect x="-72.9707" y="-59.6367" width="1585.94" height="58.8933" fill="white" fill-opacity="0.87" shape-rendering="crispEdges"/>
</g>
<path d="M-253.176 585.185V-32.7539H1619.82V585.185H1021.92H287.324H-253.176Z" fill="url(#paint10_linear_472_6086)"/>
<g opacity="0.2">
<rect x="711.93" y="35.8887" width="202.1" height="5.14331" rx="2.57166" fill="url(#paint11_linear_472_6086)" style="mix-blend-mode:screen"/>
</g>
<g opacity="0.15">
<rect x="89.498" y="354.01" width="461.857" height="5.14331" rx="2.57166" fill="url(#paint12_linear_472_6086)" style="mix-blend-mode:screen"/>
</g>
<g opacity="0.15">
<rect x="866.867" y="73.6465" width="461.857" height="5.14331" rx="2.57166" fill="url(#paint13_linear_472_6086)" style="mix-blend-mode:screen"/>
</g>
<path d="M330.252 335.181C331.093 332.23 333.411 329.93 336.368 329.113L337.287 328.859L336.369 328.605H336.368C333.411 327.788 331.092 325.487 330.252 322.537L329.989 321.619L329.726 322.537C328.886 325.487 326.567 327.788 323.61 328.605L322.691 328.859L323.609 329.113H323.61C326.567 329.93 328.886 332.231 329.726 335.181L329.989 336.099L330.252 335.181Z" fill="#9AC1FF" fill-opacity="0.32"/>
<path d="M851.162 82.3456C851.635 80.6862 852.938 79.3925 854.602 78.933L855.118 78.7902L854.602 78.6474H854.602C852.938 78.1878 851.635 76.894 851.162 75.2347L851.014 74.7188L850.866 75.2347C850.394 76.8942 849.09 78.1878 847.427 78.6474L846.91 78.7902L847.426 78.933H847.427C849.09 79.3926 850.394 80.6863 850.866 82.3456L851.014 82.8616L851.162 82.3456Z" fill="#A3C5FA"/>
<g opacity="0.5">
<g opacity="0.5">
<rect x="-65.4805" y="433.287" width="298.374" height="54.9101" fill="url(#paint14_linear_472_6086)" style="mix-blend-mode:screen"/>
</g>
<circle cx="231.232" cy="460.742" r="27.455" transform="rotate(90 231.232 460.742)" fill="url(#paint15_linear_472_6086)"/>
</g>
<path d="M246.407 455.735C246.483 456.237 246.125 455.878 246.125 455.878C244.667 454.038 246.379 450.964 246.379 450.964C246.599 450.611 246.82 450.292 247.047 450.001C243.58 445.033 237.781 441.775 231.199 441.775C221.073 441.775 212.785 449.505 212.035 459.305C215.866 457.472 220.042 462.006 220.042 462.006L221.686 463.614C226.631 468.487 228.055 468.446 228.77 467.326C228.77 467.326 229.761 465.908 228.11 463.03C226.109 459.556 228.303 456.984 228.303 456.984C234.129 449.173 243.456 459.108 243.456 459.108C246.751 462.352 248.842 463.567 250.163 463.913C250.334 462.881 250.431 461.829 250.431 460.75C250.431 458.463 250.018 456.271 249.268 454.242C246.716 453.38 246.359 455.416 246.407 455.742V455.735Z" fill="white" fill-opacity="0.46"/>
<path d="M237.546 464.945C233.667 461.124 231.39 460.038 230.069 460.031C229.925 460.045 228.824 460.167 229.037 461.273C229.23 462.237 232.745 466.77 228.686 470.788C222.998 475.518 216.89 468.345 216.89 468.345C214.998 466.607 212.715 463.954 212.426 464.829C214.324 473.339 222.007 479.712 231.197 479.712C238.268 479.712 244.445 475.945 247.788 470.333C242.884 470.625 237.546 464.945 237.546 464.945Z" fill="white"/>
<g opacity="0.5">
<g opacity="0.5">
<g opacity="0.3">
<rect x="551.355" y="22.1035" width="149.817" height="27.5709" fill="url(#paint16_linear_472_6086)" style="mix-blend-mode:screen"/>
</g>
<circle cx="700.338" cy="35.889" r="13.7855" transform="rotate(90 700.338 35.889)" fill="url(#paint17_linear_472_6086)"/>
</g>
<path d="M707.958 33.3745C707.996 33.6267 707.816 33.4461 707.816 33.4461C707.084 32.5226 707.944 30.979 707.944 30.979C708.054 30.8018 708.165 30.6417 708.279 30.4952C706.538 28.0008 703.627 26.3652 700.321 26.3652C695.237 26.3652 691.076 30.2464 690.699 35.1669C692.623 34.2468 694.719 36.5231 694.719 36.5231L695.545 37.3307C698.028 39.7773 698.743 39.7568 699.102 39.1946C699.102 39.1946 699.6 38.4824 698.771 37.0376C697.766 35.2929 698.867 34.0015 698.867 34.0015C701.793 30.0794 706.476 35.0681 706.476 35.0681C708.13 36.6969 709.18 37.3068 709.843 37.4806C709.93 36.9626 709.978 36.4345 709.978 35.8927C709.978 34.7443 709.771 33.6437 709.394 32.6249C708.113 32.1921 707.933 33.2144 707.958 33.3779V33.3745Z" fill="white" fill-opacity="0.46"/>
<path d="M703.508 37.9983C701.56 36.0799 700.417 35.5347 699.753 35.5312C699.681 35.5381 699.128 35.5994 699.235 36.1548C699.332 36.6387 701.097 38.9149 699.059 40.9322C696.203 43.3072 693.136 39.7055 693.136 39.7055C692.186 38.8331 691.04 37.5008 690.895 37.9404C691.848 42.2134 695.706 45.4131 700.32 45.4131C703.87 45.4131 706.972 43.5219 708.65 40.7039C706.188 40.8504 703.508 37.9983 703.508 37.9983Z" fill="white"/>
</g>
<g opacity="0.5">
<g opacity="0.3">
<rect x="1084.49" y="398.955" width="219.445" height="40.3847" fill="url(#paint18_linear_472_6086)" style="mix-blend-mode:screen"/>
</g>
<circle cx="1302.71" cy="419.147" r="20.1924" transform="rotate(90 1302.71 419.147)" fill="url(#paint19_linear_472_6086)"/>
</g>
<path d="M1313.87 415.464C1313.93 415.834 1313.67 415.569 1313.67 415.569C1312.59 414.216 1313.85 411.955 1313.85 411.955C1314.01 411.696 1314.18 411.461 1314.34 411.247C1311.79 407.593 1307.53 405.197 1302.69 405.197C1295.24 405.197 1289.15 410.882 1288.59 418.09C1291.41 416.742 1294.48 420.076 1294.48 420.076L1295.69 421.259C1299.33 424.843 1300.38 424.813 1300.9 423.989C1300.9 423.989 1301.63 422.946 1300.42 420.83C1298.94 418.274 1300.56 416.383 1300.56 416.383C1304.84 410.638 1311.7 417.945 1311.7 417.945C1314.13 420.331 1315.66 421.224 1316.64 421.479C1316.76 420.72 1316.83 419.946 1316.83 419.153C1316.83 417.471 1316.53 415.858 1315.98 414.366C1314.1 413.732 1313.84 415.23 1313.87 415.469V415.464Z" fill="white" fill-opacity="0.65"/>
<path d="M1307.36 422.237C1304.5 419.427 1302.83 418.628 1301.86 418.623C1301.75 418.633 1300.94 418.723 1301.1 419.536C1301.24 420.245 1303.83 423.579 1300.84 426.534C1296.66 430.013 1292.17 424.737 1292.17 424.737C1290.77 423.46 1289.1 421.508 1288.88 422.152C1290.28 428.411 1295.93 433.098 1302.69 433.098C1307.89 433.098 1312.43 430.327 1314.89 426.2C1311.28 426.414 1307.36 422.237 1307.36 422.237Z" fill="white"/>
<path d="M1483.14 369.055C1483.33 368.859 1483.33 368.543 1483.14 368.348L1479.96 365.166C1479.76 364.97 1479.44 364.97 1479.25 365.166C1479.05 365.361 1479.05 365.677 1479.25 365.873L1482.08 368.701L1479.25 371.53C1479.05 371.725 1479.05 372.041 1479.25 372.237C1479.44 372.432 1479.76 372.432 1479.96 372.237L1483.14 369.055ZM1452.84 438.838H1450.75V439.838H1452.84V438.838ZM1446.56 438.838H1442.38V439.838H1446.56V438.838ZM1438.19 438.838H1434.01V439.838H1438.19V438.838ZM1429.82 438.838H1425.64V439.838H1429.82V438.838ZM1421.46 438.838H1417.27V439.838H1421.46V438.838ZM1413.09 438.838H1408.9V439.838H1413.09V438.838ZM1404.72 438.838H1400.53V439.838H1404.72V438.838ZM1396.35 438.838H1392.16V439.838H1396.35V438.838ZM1387.98 438.838H1383.79V439.838H1387.98V438.838ZM1379.61 438.838H1375.42V439.838H1379.61V438.838ZM1371.24 438.838H1369.14V439.838H1371.24V438.838ZM1369.14 438.838C1368.64 438.838 1368.15 438.789 1367.68 438.696L1367.49 439.677C1368.02 439.783 1368.58 439.838 1369.14 439.838V438.838ZM1364.98 437.576C1364.16 437.028 1363.46 436.323 1362.91 435.505L1362.08 436.062C1362.7 436.988 1363.49 437.786 1364.42 438.406L1364.98 437.576ZM1361.79 432.803C1361.69 432.33 1361.64 431.84 1361.64 431.338H1360.64C1360.64 431.905 1360.7 432.46 1360.81 432.997L1361.79 432.803ZM1361.64 431.338V429.387H1360.64V431.338H1361.64ZM1361.64 425.484V421.582H1360.64V425.484H1361.64ZM1361.64 417.679V413.776H1360.64V417.679H1361.64ZM1361.64 409.874V405.971H1360.64V409.874H1361.64ZM1361.64 402.068V398.166H1360.64V402.068H1361.64ZM1361.64 394.263V390.361H1360.64V394.263H1361.64ZM1361.64 386.458V382.555H1360.64V386.458H1361.64ZM1361.64 378.653V376.701H1360.64V378.653H1361.64ZM1361.64 376.701C1361.64 376.2 1361.69 375.71 1361.79 375.237L1360.81 375.043C1360.7 375.58 1360.64 376.134 1360.64 376.701H1361.64ZM1362.91 372.534C1363.46 371.716 1364.16 371.012 1364.98 370.464L1364.42 369.633C1363.49 370.254 1362.7 371.051 1362.08 371.978L1362.91 372.534ZM1367.68 369.344C1368.15 369.25 1368.64 369.201 1369.14 369.201V368.201C1368.58 368.201 1368.02 368.257 1367.49 368.363L1367.68 369.344ZM1369.14 369.201H1371.17V368.201H1369.14V369.201ZM1375.23 369.201H1379.29V368.201H1375.23V369.201ZM1383.35 369.201H1387.41V368.201H1383.35V369.201ZM1391.47 369.201H1395.53V368.201H1391.47V369.201ZM1399.58 369.201H1403.64V368.201H1399.58V369.201ZM1407.7 369.201H1411.76V368.201H1407.7V369.201ZM1415.82 369.201H1419.88V368.201H1415.82V369.201ZM1423.94 369.201H1427.99V368.201H1423.94V369.201ZM1432.05 369.201H1436.11V368.201H1432.05V369.201ZM1440.17 369.201H1444.23V368.201H1440.17V369.201ZM1448.29 369.201H1452.34V368.201H1448.29V369.201ZM1456.4 369.201H1460.46V368.201H1456.4V369.201ZM1464.52 369.201H1468.58V368.201H1464.52V369.201ZM1472.64 369.201H1476.7V368.201H1472.64V369.201ZM1480.75 369.201H1482.78V368.201H1480.75V369.201Z" fill="white" fill-opacity="0.3"/>
<path d="M1264.46 122.422C1264.68 121.657 1265.28 121.061 1266.05 120.85L1266.29 120.784L1266.05 120.718H1266.05C1265.28 120.506 1264.68 119.91 1264.46 119.146L1264.39 118.908L1264.33 119.146C1264.11 119.91 1263.51 120.506 1262.74 120.718L1262.5 120.784L1262.74 120.85H1262.74C1263.51 121.061 1264.11 121.657 1264.33 122.422L1264.39 122.659L1264.46 122.422Z" fill="#FFF2AE" fill-opacity="0.84"/>
<g filter="url(#filter6_b_472_6086)">
<circle cx="1253.79" cy="146.836" r="17.9783" fill="url(#paint20_linear_472_6086)"/>
</g>
<g filter="url(#filter7_b_472_6086)">
<circle cx="1253.79" cy="146.837" r="22.7585" stroke="url(#paint21_linear_472_6086)"/>
</g>
<path d="M52.8552 104.705C53.073 103.94 53.6736 103.345 54.4397 103.133L54.6777 103.067L54.44 103.001H54.4397C53.6736 102.79 53.0729 102.194 52.8552 101.429L52.7871 101.191L52.719 101.429C52.5012 102.194 51.9006 102.79 51.1345 103.001L50.8965 103.067L51.1342 103.133H51.1345C51.9006 103.345 52.5012 103.941 52.719 104.705L52.7871 104.943L52.8552 104.705Z" fill="#FFF2AE" fill-opacity="0.84"/>
<g filter="url(#filter8_b_472_6086)">
<circle cx="42.1853" cy="129.119" r="17.9783" fill="url(#paint22_linear_472_6086)"/>
</g>
<g filter="url(#filter9_b_472_6086)">
<circle cx="42.1863" cy="129.12" r="22.7585" stroke="url(#paint23_linear_472_6086)"/>
</g>
<path d="M34.6504 133.664C34.6504 137.905 37.9829 141.237 42.2236 141.237C46.4643 141.237 49.7969 137.905 49.7969 133.664C49.7969 130.332 47.6764 127.605 44.7988 126.546L48.2823 123.061V117.002H36.1647V123.061L39.4972 126.544C36.6194 127.605 34.6504 130.483 34.6504 133.664ZM41.163 132.149L42.2238 129.12L43.2845 132.149H46.7681L43.7393 134.724L44.9513 138.207L42.2238 136.087L39.4973 138.207L40.7093 134.724L37.6794 132.149H41.163Z" fill="white" fill-opacity="0.66"/>
<path d="M1348.18 190.057C1347.98 189.861 1347.67 189.861 1347.47 190.057L1344.29 193.239C1344.09 193.434 1344.09 193.75 1344.29 193.946C1344.48 194.141 1344.8 194.141 1345 193.946L1347.83 191.117L1350.65 193.946C1350.85 194.141 1351.17 194.141 1351.36 193.946C1351.56 193.75 1351.56 193.434 1351.36 193.239L1348.18 190.057ZM1315.12 309.2H1339.83V308.2H1315.12V309.2ZM1348.33 300.7V190.41H1347.33V300.7H1348.33ZM1339.83 309.2C1344.52 309.2 1348.33 305.395 1348.33 300.7H1347.33C1347.33 304.842 1343.97 308.2 1339.83 308.2V309.2Z" fill="white" fill-opacity="0.3"/>
<path d="M1227.58 146.061C1227.78 145.865 1227.78 145.549 1227.58 145.353L1224.4 142.171C1224.2 141.976 1223.89 141.976 1223.69 142.171C1223.5 142.367 1223.5 142.683 1223.69 142.879L1226.52 145.707L1223.69 148.535C1223.5 148.731 1223.5 149.047 1223.69 149.243C1223.89 149.438 1224.2 149.438 1224.4 149.243L1227.58 146.061ZM1199.35 232.744H1197.54V233.744H1199.35V232.744ZM1193.92 232.744H1190.3V233.744H1193.92V232.744ZM1186.69 232.744H1183.07V233.744H1186.69V232.744ZM1179.46 232.744H1175.84V233.744H1179.46V232.744ZM1172.22 232.744H1170.41V233.744H1172.22V232.744ZM1170.41 232.744C1169.91 232.744 1169.42 232.695 1168.95 232.601L1168.76 233.582C1169.29 233.688 1169.85 233.744 1170.41 233.744V232.744ZM1166.25 231.481C1165.43 230.933 1164.72 230.229 1164.18 229.41L1163.35 229.967C1163.97 230.894 1164.76 231.691 1165.69 232.312L1166.25 231.481ZM1163.06 226.708C1162.96 226.235 1162.91 225.745 1162.91 225.244H1161.91C1161.91 225.811 1161.97 226.365 1162.08 226.902L1163.06 226.708ZM1162.91 225.244V223.257H1161.91V225.244H1162.91ZM1162.91 219.282V215.308H1161.91V219.282H1162.91ZM1162.91 211.334V207.36H1161.91V211.334H1162.91ZM1162.91 203.385V199.411H1161.91V203.385H1162.91ZM1162.91 195.437V191.463H1161.91V195.437H1162.91ZM1162.91 187.488V183.514H1161.91V187.488H1162.91ZM1162.91 179.54V175.565H1161.91V179.54H1162.91ZM1162.91 171.591V167.617H1161.91V171.591H1162.91ZM1162.91 163.643V159.668H1161.91V163.643H1162.91ZM1162.91 155.694V153.707H1161.91V155.694H1162.91ZM1162.91 153.707C1162.91 153.206 1162.96 152.716 1163.06 152.243L1162.08 152.049C1161.97 152.585 1161.91 153.14 1161.91 153.707H1162.91ZM1164.18 149.54C1164.72 148.722 1165.43 148.018 1166.25 147.47L1165.69 146.639C1164.76 147.259 1163.97 148.057 1163.35 148.984L1164.18 149.54ZM1168.95 146.35C1169.42 146.256 1169.91 146.207 1170.41 146.207V145.207C1169.85 145.207 1169.29 145.263 1168.76 145.369L1168.95 146.35ZM1170.41 146.207H1172.44V145.207H1170.41V146.207ZM1176.5 146.207H1180.56V145.207H1176.5V146.207ZM1184.62 146.207H1188.68V145.207H1184.62V146.207ZM1192.73 146.207H1196.79V145.207H1192.73V146.207ZM1200.85 146.207H1204.91V145.207H1200.85V146.207ZM1208.97 146.207H1213.02V145.207H1208.97V146.207ZM1217.08 146.207H1221.14V145.207H1217.08V146.207ZM1225.2 146.207H1227.23V145.207H1225.2V146.207Z" fill="white" fill-opacity="0.3"/>
<g filter="url(#filter10_bd_472_6086)">
<rect x="-18.5898" y="196.742" width="115.194" height="144.095" rx="7" fill="url(#paint24_linear_472_6086)" shape-rendering="crispEdges"/>
<rect x="-18.3398" y="196.992" width="114.694" height="143.595" rx="6.75" stroke="url(#paint25_linear_472_6086)" stroke-width="0.5" shape-rendering="crispEdges"/>
</g>
<g filter="url(#filter11_b_472_6086)">
<rect x="-12.8125" y="202.184" width="103.639" height="133.213" rx="2" fill="url(#paint26_linear_472_6086)"/>
</g>
<rect x="8.1582" y="274.109" width="68.1325" height="3.84874" rx="1.92437" fill="#133F84" fill-opacity="0.49"/>
<rect x="-0.287109" y="274.109" width="3.89177" height="3.84874" rx="1.92437" fill="#133F84" fill-opacity="0.49"/>
<rect x="8.1582" y="286.686" width="68.1325" height="3.84874" rx="1.92437" fill="#133F84" fill-opacity="0.49"/>
<rect x="-0.287109" y="286.686" width="3.89177" height="3.84874" rx="1.92437" fill="#133F84" fill-opacity="0.49"/>
<rect x="8.1582" y="299.262" width="68.1325" height="3.84874" rx="1.92437" fill="#133F84" fill-opacity="0.49"/>
<rect x="-0.287109" y="299.262" width="3.89177" height="3.84874" rx="1.92437" fill="#133F84" fill-opacity="0.49"/>
<g clip-path="url(#clip2_472_6086)">
<rect x="-23.8867" y="195.133" width="202.352" height="23.5566" transform="rotate(45 -23.8867 195.133)" fill="white" fill-opacity="0.12"/>
<rect x="-29.2031" y="231.023" width="202.352" height="5.95827" transform="rotate(45 -29.2031 231.023)" fill="white" fill-opacity="0.12"/>
</g>
<rect x="-0.287109" y="225.541" width="20.0547" height="26.7983" rx="2" fill="#6487C0"/>
<rect x="28.9785" y="225.541" width="20.0547" height="26.7983" rx="2" fill="#6487C0"/>
<rect x="58.248" y="225.541" width="20.0547" height="26.7983" rx="2" fill="#6487C0"/>
<path d="M137.893 252.587L140.78 247.587H135.006L137.893 252.587ZM38.25 196.869V189.057H37.25V196.869H38.25ZM45.75 181.557H129.893V180.557H45.75V181.557ZM137.393 189.057V248.087H138.393V189.057H137.393ZM129.893 181.557C134.035 181.557 137.393 184.915 137.393 189.057H138.393C138.393 184.362 134.587 180.557 129.893 180.557V181.557ZM38.25 189.057C38.25 184.915 41.6079 181.557 45.75 181.557V180.557C41.0556 180.557 37.25 184.362 37.25 189.057H38.25Z" fill="white" fill-opacity="0.3"/>
<rect x="110.131" y="254.539" width="55.5229" height="104.105" rx="7" fill="#6895E0" fill-opacity="0.74"/>
<g filter="url(#filter12_b_472_6086)">
<rect x="113.596" y="258.164" width="48.5935" height="96.8555" rx="2" fill="url(#paint27_linear_472_6086)"/>
</g>
<path d="M122.92 302.623C120.729 302.623 118.951 304.401 118.951 306.592C118.951 308.783 120.729 310.561 122.92 310.561C125.111 310.561 126.889 308.783 126.889 306.592C126.889 304.401 125.111 302.623 122.92 302.623ZM124.962 305.633L122.631 307.973C122.556 308.047 122.449 308.097 122.341 308.097C122.234 308.097 122.126 308.055 122.052 307.973L120.878 306.799C120.712 306.633 120.712 306.377 120.878 306.211C121.043 306.046 121.3 306.046 121.465 306.211L122.342 307.088L124.384 305.046C124.549 304.88 124.806 304.88 124.971 305.046C125.128 305.211 125.128 305.467 124.962 305.633L124.962 305.633Z" fill="#5A7FBC"/>
<path d="M122.92 316.113C120.729 316.113 118.951 317.891 118.951 320.082C118.951 322.273 120.729 324.051 122.92 324.051C125.111 324.051 126.889 322.273 126.889 320.082C126.889 317.891 125.111 316.113 122.92 316.113ZM124.962 319.123L122.631 321.463C122.556 321.537 122.449 321.587 122.341 321.587C122.234 321.587 122.126 321.545 122.052 321.463L120.878 320.289C120.712 320.123 120.712 319.867 120.878 319.702C121.043 319.536 121.3 319.536 121.465 319.702L122.342 320.578L124.384 318.536C124.549 318.371 124.806 318.371 124.971 318.536C125.128 318.701 125.128 318.957 124.962 319.123L124.962 319.123Z" fill="#5A7FBC"/>
<path d="M122.92 329.604C120.729 329.604 118.951 331.381 118.951 333.572C118.951 335.763 120.729 337.541 122.92 337.541C125.111 337.541 126.889 335.763 126.889 333.572C126.889 331.381 125.111 329.604 122.92 329.604ZM124.962 332.613L122.631 334.953C122.556 335.027 122.449 335.077 122.341 335.077C122.234 335.077 122.126 335.036 122.052 334.953L120.878 333.779C120.712 333.614 120.712 333.357 120.878 333.192C121.043 333.026 121.3 333.026 121.465 333.192L122.342 334.068L124.384 332.026C124.549 331.861 124.806 331.861 124.971 332.026C125.128 332.192 125.128 332.448 124.962 332.613L124.962 332.613Z" fill="#5A7FBC"/>
<rect x="118.951" y="269.154" width="16.4423" height="23.9017" rx="2" fill="#4D7BC7" fill-opacity="0.69"/>
<rect x="140.393" y="269.154" width="16.4423" height="23.9017" rx="2" fill="#4D7BC7" fill-opacity="0.69"/>
<rect x="131.588" y="305.203" width="25.2461" height="2.77648" rx="1.38824" fill="#133F84" fill-opacity="0.35"/>
<rect x="131.588" y="318.693" width="25.2461" height="2.77648" rx="1.38824" fill="#133F84" fill-opacity="0.35"/>
<rect x="131.588" y="332.184" width="25.2461" height="2.77648" rx="1.38824" fill="#133F84" fill-opacity="0.35"/>
<g opacity="0.75" clip-path="url(#clip3_472_6086)">
<rect x="74.9746" y="221.158" width="202.352" height="23.5566" transform="rotate(45 74.9746 221.158)" fill="white" fill-opacity="0.12"/>
<rect x="69.6582" y="257.047" width="202.352" height="5.95827" transform="rotate(45 69.6582 257.047)" fill="white" fill-opacity="0.12"/>
</g>
<g filter="url(#filter13_bd_472_6086)">
<rect x="1194.82" y="204.469" width="115.194" height="144.095" rx="7" fill="url(#paint28_linear_472_6086)" shape-rendering="crispEdges"/>
<rect x="1195.07" y="204.719" width="114.694" height="143.595" rx="6.75" stroke="url(#paint29_linear_472_6086)" stroke-width="0.5" shape-rendering="crispEdges"/>
</g>
<g filter="url(#filter14_b_472_6086)">
<rect x="1200.6" y="209.91" width="103.639" height="133.213" rx="2" fill="url(#paint30_linear_472_6086)"/>
</g>
<rect x="1218.15" y="218.824" width="68.1328" height="21.8267" rx="2" fill="#133F84" fill-opacity="0.49"/>
<rect x="1255.53" y="285.697" width="30.7549" height="21.8267" rx="2" fill="#133F84" fill-opacity="0.49"/>
<rect x="1218.65" y="249.879" width="67.1328" height="6.56006" rx="1.5" stroke="#6386BE"/>
<rect x="1256.03" y="264.258" width="29.7552" height="6.56006" rx="1.5" stroke="#6386BE"/>
<rect x="1234.03" y="317.902" width="36.3777" height="8.18797" rx="4.09398" stroke="#2C3C56"/>
<rect x="1219.05" y="264.258" width="29.7552" height="6.56006" rx="1.5" stroke="#6386BE"/>
<rect x="1256.03" y="278.637" width="29.7552" height="6.56006" rx="1.5" stroke="#6386BE"/>
<rect x="1219.05" y="278.637" width="29.7552" height="6.56006" rx="1.5" stroke="#6386BE"/>
<path d="M1258.54 291.867H1282.86" stroke="#89B6FF" stroke-opacity="0.23"/>
<path d="M1258.54 298.129H1282.86" stroke="#89B6FF" stroke-opacity="0.23"/>
<path d="M1281.05 283.408L1278.07 280.426L1284.03 280.426L1281.05 283.408Z" fill="#4C6DA2"/>
<path d="M1246.06 323.304H1245.47L1246.78 319.668H1247.42L1248.72 323.304H1248.14L1247.11 320.328H1247.08L1246.06 323.304ZM1246.15 321.88H1248.04V322.342H1246.15V321.88Z" fill="#2C3C56"/>
<path d="M1249.21 324.327V320.577H1249.72V321.019H1249.77C1249.8 320.962 1249.84 320.897 1249.9 320.822C1249.96 320.748 1250.04 320.682 1250.14 320.627C1250.25 320.57 1250.38 320.542 1250.55 320.542C1250.77 320.542 1250.97 320.597 1251.14 320.708C1251.31 320.82 1251.45 320.98 1251.55 321.19C1251.65 321.399 1251.7 321.651 1251.7 321.946C1251.7 322.241 1251.65 322.493 1251.55 322.704C1251.45 322.914 1251.32 323.075 1251.15 323.189C1250.97 323.301 1250.78 323.358 1250.56 323.358C1250.39 323.358 1250.26 323.33 1250.15 323.274C1250.05 323.219 1249.96 323.153 1249.91 323.079C1249.85 323.004 1249.8 322.938 1249.77 322.88H1249.74V324.327H1249.21ZM1249.73 321.941C1249.73 322.132 1249.75 322.301 1249.81 322.445C1249.87 322.589 1249.95 322.702 1250.05 322.784C1250.16 322.865 1250.29 322.905 1250.44 322.905C1250.6 322.905 1250.73 322.863 1250.84 322.779C1250.94 322.694 1251.02 322.578 1251.08 322.433C1251.13 322.287 1251.16 322.123 1251.16 321.941C1251.16 321.761 1251.13 321.599 1251.08 321.456C1251.03 321.313 1250.95 321.2 1250.84 321.117C1250.73 321.034 1250.6 320.993 1250.44 320.993C1250.28 320.993 1250.15 321.032 1250.05 321.112C1249.94 321.191 1249.86 321.301 1249.81 321.444C1249.75 321.586 1249.73 321.751 1249.73 321.941Z" fill="#2C3C56"/>
<path d="M1252.29 324.327V320.577H1252.81V321.019H1252.86C1252.89 320.962 1252.93 320.897 1252.99 320.822C1253.05 320.748 1253.13 320.682 1253.23 320.627C1253.33 320.57 1253.47 320.542 1253.64 320.542C1253.86 320.542 1254.05 320.597 1254.23 320.708C1254.4 320.82 1254.54 320.98 1254.63 321.19C1254.73 321.399 1254.78 321.651 1254.78 321.946C1254.78 322.241 1254.73 322.493 1254.64 322.704C1254.54 322.914 1254.4 323.075 1254.23 323.189C1254.06 323.301 1253.86 323.358 1253.64 323.358C1253.48 323.358 1253.34 323.33 1253.24 323.274C1253.13 323.219 1253.05 323.153 1252.99 323.079C1252.93 323.004 1252.89 322.938 1252.86 322.88H1252.82V324.327H1252.29ZM1252.81 321.941C1252.81 322.132 1252.84 322.301 1252.9 322.445C1252.95 322.589 1253.03 322.702 1253.14 322.784C1253.24 322.865 1253.37 322.905 1253.52 322.905C1253.68 322.905 1253.82 322.863 1253.92 322.779C1254.03 322.694 1254.11 322.578 1254.16 322.433C1254.22 322.287 1254.25 322.123 1254.25 321.941C1254.25 321.761 1254.22 321.599 1254.17 321.456C1254.11 321.313 1254.03 321.2 1253.92 321.117C1253.82 321.034 1253.68 320.993 1253.52 320.993C1253.37 320.993 1253.24 321.032 1253.13 321.112C1253.03 321.191 1252.95 321.301 1252.89 321.444C1252.84 321.586 1252.81 321.751 1252.81 321.941Z" fill="#2C3C56"/>
<path d="M1255.91 319.668V323.304H1255.38V319.668H1255.91Z" fill="#2C3C56"/>
<path d="M1256.96 324.327C1256.88 324.327 1256.81 324.321 1256.74 324.308C1256.68 324.296 1256.63 324.283 1256.6 324.268L1256.72 323.833C1256.82 323.859 1256.91 323.871 1256.98 323.867C1257.06 323.864 1257.13 323.835 1257.18 323.782C1257.24 323.729 1257.3 323.642 1257.34 323.521L1257.41 323.34L1256.41 320.577H1256.98L1257.67 322.694H1257.7L1258.39 320.577H1258.96L1257.83 323.668C1257.78 323.81 1257.71 323.931 1257.63 324.029C1257.55 324.128 1257.46 324.203 1257.35 324.252C1257.23 324.302 1257.11 324.327 1256.96 324.327Z" fill="#2C3C56"/>
<g clip-path="url(#clip4_472_6086)">
<rect x="1189.77" y="202.859" width="202.352" height="23.5566" transform="rotate(45 1189.77 202.859)" fill="white" fill-opacity="0.12"/>
<rect x="1184.45" y="238.75" width="202.352" height="5.95827" transform="rotate(45 1184.45 238.75)" fill="white" fill-opacity="0.12"/>
<path d="M1276.21 224.631C1273.34 224.631 1271.01 226.963 1271.01 229.837C1271.01 232.711 1273.34 235.043 1276.21 235.043C1279.09 235.043 1281.42 232.711 1281.42 229.837C1281.42 226.963 1279.09 224.631 1276.21 224.631ZM1278.89 228.579L1275.83 231.648C1275.74 231.746 1275.6 231.811 1275.45 231.811C1275.31 231.811 1275.17 231.757 1275.08 231.648L1273.54 230.108C1273.32 229.891 1273.32 229.555 1273.54 229.338C1273.75 229.121 1274.09 229.121 1274.31 229.338L1275.46 230.488L1278.13 227.809C1278.35 227.592 1278.69 227.592 1278.9 227.809C1279.11 228.026 1279.11 228.362 1278.89 228.579L1278.89 228.579Z" fill="#AFCDFA"/>
<path d="M1225.04 232.224V227.377H1228.05V228.007H1225.77V229.483H1227.83V230.111H1225.77V232.224H1225.04Z" fill="#AFCDFA"/>
<path d="M1230.19 232.298C1229.83 232.298 1229.52 232.221 1229.27 232.068C1229.01 231.913 1228.81 231.696 1228.67 231.417C1228.53 231.136 1228.46 230.807 1228.46 230.43C1228.46 230.058 1228.53 229.73 1228.67 229.446C1228.81 229.162 1229.01 228.94 1229.26 228.78C1229.51 228.621 1229.8 228.541 1230.14 228.541C1230.35 228.541 1230.55 228.575 1230.74 228.643C1230.93 228.711 1231.1 228.818 1231.26 228.963C1231.41 229.108 1231.53 229.296 1231.62 229.528C1231.71 229.759 1231.75 230.039 1231.75 230.369V230.619H1228.86V230.089H1231.06C1231.06 229.903 1231.02 229.738 1230.94 229.595C1230.87 229.449 1230.76 229.335 1230.62 229.251C1230.49 229.168 1230.33 229.126 1230.15 229.126C1229.95 229.126 1229.77 229.175 1229.63 229.273C1229.48 229.369 1229.37 229.495 1229.28 229.651C1229.21 229.806 1229.17 229.974 1229.17 230.156V230.57C1229.17 230.813 1229.21 231.019 1229.29 231.19C1229.38 231.36 1229.5 231.49 1229.66 231.58C1229.81 231.669 1229.99 231.713 1230.2 231.713C1230.33 231.713 1230.45 231.694 1230.57 231.656C1230.68 231.617 1230.77 231.558 1230.85 231.481C1230.93 231.404 1230.99 231.308 1231.04 231.195L1231.71 231.315C1231.65 231.513 1231.56 231.685 1231.42 231.834C1231.28 231.98 1231.11 232.095 1230.9 232.177C1230.69 232.257 1230.46 232.298 1230.19 232.298Z" fill="#AFCDFA"/>
<path d="M1233.24 227.377V232.224H1232.54V227.377H1233.24Z" fill="#AFCDFA"/>
<path d="M1234.9 227.377V232.224H1234.2V227.377H1234.9Z" fill="#AFCDFA"/>
<path d="M1237.39 232.298C1237.05 232.298 1236.75 232.219 1236.49 232.063C1236.24 231.907 1236.04 231.688 1235.9 231.408C1235.76 231.127 1235.69 230.799 1235.69 230.423C1235.69 230.046 1235.76 229.716 1235.9 229.434C1236.04 229.151 1236.24 228.932 1236.49 228.776C1236.75 228.62 1237.05 228.541 1237.39 228.541C1237.73 228.541 1238.03 228.62 1238.28 228.776C1238.53 228.932 1238.73 229.151 1238.87 229.434C1239.01 229.716 1239.08 230.046 1239.08 230.423C1239.08 230.799 1239.01 231.127 1238.87 231.408C1238.73 231.688 1238.53 231.907 1238.28 232.063C1238.03 232.219 1237.73 232.298 1237.39 232.298ZM1237.39 231.703C1237.61 231.703 1237.79 231.645 1237.94 231.528C1238.08 231.412 1238.19 231.256 1238.26 231.062C1238.33 230.868 1238.37 230.654 1238.37 230.421C1238.37 230.189 1238.33 229.976 1238.26 229.782C1238.19 229.586 1238.08 229.429 1237.94 229.311C1237.79 229.192 1237.61 229.133 1237.39 229.133C1237.17 229.133 1236.98 229.192 1236.84 229.311C1236.69 229.429 1236.58 229.586 1236.51 229.782C1236.44 229.976 1236.41 230.189 1236.41 230.421C1236.41 230.654 1236.44 230.868 1236.51 231.062C1236.58 231.256 1236.69 231.412 1236.84 231.528C1236.98 231.645 1237.17 231.703 1237.39 231.703Z" fill="#AFCDFA"/>
<path d="M1240.55 232.224L1239.48 228.589H1240.21L1240.92 231.259H1240.96L1241.67 228.589H1242.4L1243.11 231.247H1243.15L1243.86 228.589H1244.59L1243.52 232.224H1242.8L1242.06 229.599H1242.01L1241.27 232.224H1240.55Z" fill="#AFCDFA"/>
<path d="M1247.99 229.476L1247.34 229.59C1247.32 229.508 1247.27 229.43 1247.22 229.356C1247.16 229.281 1247.08 229.221 1246.98 229.173C1246.89 229.126 1246.76 229.102 1246.62 229.102C1246.42 229.102 1246.25 229.147 1246.12 229.237C1245.98 229.326 1245.91 229.44 1245.91 229.58C1245.91 229.702 1245.96 229.8 1246.05 229.874C1246.14 229.948 1246.28 230.009 1246.48 230.056L1247.06 230.189C1247.4 230.266 1247.65 230.385 1247.81 230.546C1247.97 230.707 1248.06 230.916 1248.06 231.173C1248.06 231.391 1247.99 231.585 1247.87 231.756C1247.74 231.924 1247.57 232.057 1247.34 232.153C1247.12 232.249 1246.86 232.298 1246.57 232.298C1246.16 232.298 1245.83 232.211 1245.57 232.037C1245.32 231.862 1245.16 231.614 1245.1 231.292L1245.78 231.188C1245.83 231.366 1245.91 231.501 1246.05 231.592C1246.18 231.682 1246.35 231.727 1246.56 231.727C1246.8 231.727 1246.98 231.679 1247.12 231.583C1247.26 231.485 1247.33 231.366 1247.33 231.225C1247.33 231.112 1247.29 231.016 1247.2 230.939C1247.12 230.862 1246.99 230.803 1246.82 230.764L1246.2 230.629C1245.86 230.552 1245.61 230.429 1245.45 230.26C1245.29 230.091 1245.21 229.877 1245.21 229.618C1245.21 229.404 1245.27 229.216 1245.39 229.055C1245.51 228.894 1245.67 228.769 1245.88 228.679C1246.09 228.587 1246.34 228.541 1246.61 228.541C1247 228.541 1247.31 228.627 1247.54 228.797C1247.76 228.966 1247.91 229.192 1247.99 229.476Z" fill="#AFCDFA"/>
</g>
<path d="M1112.08 252.819C1113.39 248.21 1117.01 244.617 1121.63 243.341L1123.07 242.944L1121.63 242.548H1121.63C1117.01 241.271 1113.39 237.678 1112.08 233.07L1111.67 231.637L1111.26 233.07C1109.94 237.679 1106.32 241.271 1101.7 242.548L1100.27 242.944L1101.7 243.341H1101.7C1106.32 244.617 1109.94 248.211 1111.26 252.819L1111.67 254.252L1112.08 252.819Z" fill="#5CF8D2" fill-opacity="0.69"/>
<path d="M1149.2 258.331C1149.6 256.924 1150.71 255.826 1152.12 255.436L1152.55 255.315L1152.12 255.194H1152.12C1150.71 254.804 1149.6 253.707 1149.2 252.299L1149.07 251.861L1148.95 252.299C1148.55 253.707 1147.44 254.804 1146.03 255.194L1145.59 255.315L1146.03 255.436H1146.03C1147.44 255.826 1148.55 256.924 1148.95 258.331L1149.07 258.769L1149.2 258.331Z" fill="#75E6FF" fill-opacity="0.67"/>
<g filter="url(#filter15_b_472_6086)">
<circle cx="1132.73" cy="301.86" r="37.001" fill="url(#paint31_linear_472_6086)"/>
</g>
<path d="M1118.93 310.155C1118.93 317.885 1125 323.958 1132.73 323.958C1140.46 323.958 1146.54 317.884 1146.54 310.155C1146.54 304.081 1142.67 299.112 1137.43 297.181L1143.78 290.83V279.787H1121.69V290.83L1127.76 297.179C1122.52 299.112 1118.93 304.357 1118.93 310.155ZM1130.8 307.393L1132.73 301.873L1134.67 307.393H1141.02L1135.49 312.087L1137.7 318.436L1132.73 314.571L1127.76 318.436L1129.97 312.087L1124.45 307.393H1130.8Z" fill="white" fill-opacity="0.66"/>
<path d="M1246.32 151.381C1246.32 155.622 1249.65 158.954 1253.89 158.954C1258.13 158.954 1261.46 155.622 1261.46 151.381C1261.46 148.048 1259.34 145.322 1256.46 144.262L1259.95 140.778V134.719H1247.83V140.778L1251.16 144.261C1248.29 145.322 1246.32 148.2 1246.32 151.381ZM1252.83 149.865L1253.89 146.837L1254.95 149.865H1258.43L1255.41 152.441L1256.62 155.924L1253.89 153.804L1251.16 155.924L1252.38 152.441L1249.35 149.865H1252.83Z" fill="white" fill-opacity="0.66"/>
<rect opacity="0.8" x="1310.01" y="103.803" width="65.6124" height="76.9531" rx="4" fill="url(#paint32_linear_472_6086)" fill-opacity="0.8"/>
<rect x="1319.64" y="121.811" width="19.5039" height="2.75042" rx="1.37521" fill="#9ADCFF"/>
<rect x="1319.64" y="135.303" width="19.5039" height="2.75042" rx="1.37521" fill="white" fill-opacity="0.66"/>
<rect x="1319.64" y="148.797" width="19.5039" height="2.75042" rx="1.37521" fill="white" fill-opacity="0.66"/>
<rect x="1319.64" y="162.289" width="19.5039" height="2.75042" rx="1.37521" fill="white" fill-opacity="0.66"/>
<path fill-rule="evenodd" clip-rule="evenodd" d="M1330.24 100.279C1330.22 100.343 1330.22 100.409 1330.22 100.477V101.157C1330.22 101.709 1330.67 102.157 1331.22 102.157H1354.42C1354.98 102.157 1355.42 101.709 1355.42 101.157V100.477C1355.42 100.409 1355.42 100.343 1355.4 100.279H1362.75C1363.53 100.279 1364.17 100.916 1364.17 101.701V105.905C1364.17 106.69 1363.53 107.327 1362.75 107.327H1322.89C1322.11 107.327 1321.47 106.69 1321.47 105.905V101.701C1321.47 100.916 1322.11 100.279 1322.89 100.279H1330.24Z" fill="#C3E0F1"/>
<path d="M1344.44 121.34V170.389" stroke="#C5DAFF" stroke-opacity="0.62"/>
<path d="M1355.18 126.521H1354.54L1355.98 122.539H1356.67L1358.1 126.521H1357.47L1356.34 123.262H1356.31L1355.18 126.521ZM1355.29 124.962H1357.36V125.467H1355.29V124.962Z" fill="#9ADCFF"/>
<path d="M1353.54 145.833H1352.91L1354.34 141.852H1355.03L1356.47 145.833H1355.83L1354.7 142.575H1354.67L1353.54 145.833ZM1353.65 144.274H1355.72V144.779H1353.65V144.274Z" fill="#CDE5EF"/>
<path d="M1358.16 145.164V142.536H1358.69V145.164H1358.16ZM1357.11 144.111V143.59H1359.74V144.111H1357.11Z" fill="#CDE5EF"/>
<path d="M1354.89 165.144V161.162H1356.34C1356.63 161.162 1356.86 161.209 1357.05 161.302C1357.23 161.394 1357.37 161.519 1357.46 161.677C1357.55 161.834 1357.6 162.011 1357.6 162.208C1357.6 162.374 1357.57 162.514 1357.51 162.628C1357.45 162.741 1357.37 162.832 1357.26 162.9C1357.16 162.968 1357.05 163.017 1356.93 163.048V163.087C1357.06 163.093 1357.19 163.136 1357.32 163.215C1357.44 163.293 1357.55 163.404 1357.63 163.548C1357.71 163.691 1357.76 163.866 1357.76 164.073C1357.76 164.276 1357.71 164.459 1357.61 164.621C1357.52 164.782 1357.37 164.909 1357.17 165.004C1356.97 165.097 1356.72 165.144 1356.41 165.144H1354.89ZM1355.49 164.629H1356.35C1356.64 164.629 1356.85 164.573 1356.97 164.461C1357.1 164.35 1357.16 164.211 1357.16 164.043C1357.16 163.918 1357.13 163.802 1357.06 163.697C1357 163.592 1356.91 163.509 1356.79 163.447C1356.68 163.384 1356.54 163.353 1356.38 163.353H1355.49V164.629ZM1355.49 162.885H1356.29C1356.43 162.885 1356.55 162.859 1356.66 162.807C1356.76 162.755 1356.85 162.682 1356.91 162.589C1356.98 162.495 1357.01 162.383 1357.01 162.255C1357.01 162.09 1356.95 161.952 1356.84 161.841C1356.72 161.729 1356.55 161.673 1356.31 161.673H1355.49V162.885Z" fill="#B5D0FF"/>
<g filter="url(#filter16_d_472_6086)">
<g filter="url(#filter17_b_472_6086)">
<path d="M1312.11 286.315C1306.97 291.464 1298.62 291.464 1293.47 286.315C1288.32 281.166 1288.32 272.818 1293.47 267.669C1298.62 262.52 1306.97 262.52 1312.11 267.669C1317.26 272.818 1317.26 281.166 1312.11 286.315ZM1295.51 269.711C1291.49 273.732 1291.49 280.251 1295.51 284.272C1299.53 288.293 1306.05 288.293 1310.07 284.272C1314.09 280.251 1314.09 273.732 1310.07 269.711C1306.05 265.69 1299.53 265.69 1295.51 269.711Z" fill="url(#paint33_linear_472_6086)" fill-opacity="0.8"/>
</g>
<g filter="url(#filter18_b_472_6086)">
<circle cx="1302.79" cy="276.991" r="10.7204" transform="rotate(45 1302.79 276.991)" fill="#196F9F" fill-opacity="0.25"/>
</g>
<path fill-rule="evenodd" clip-rule="evenodd" d="M1293.75 274.828C1293.59 275.522 1293.5 276.247 1293.5 276.992C1293.5 282.123 1297.66 286.282 1302.79 286.282C1307.92 286.282 1312.08 282.123 1312.08 276.992C1312.08 276.247 1311.99 275.522 1311.83 274.828C1310.85 278.916 1307.17 281.955 1302.79 281.955C1298.4 281.955 1294.73 278.916 1293.75 274.828Z" fill="url(#paint34_linear_472_6086)" fill-opacity="0.5"/>
<g filter="url(#filter19_b_472_6086)">
<path d="M1313.31 284.951L1322.45 294.086C1323.15 294.794 1323.15 295.94 1322.45 296.648C1321.74 297.355 1320.59 297.355 1319.88 296.648L1310.75 287.513L1313.31 284.951Z" fill="url(#paint35_linear_472_6086)" fill-opacity="0.8"/>
</g>
</g>
<path d="M1306.67 275.678C1307.03 274.404 1308.03 273.411 1309.31 273.059L1309.7 272.949L1309.31 272.84H1309.31C1308.03 272.487 1307.03 271.494 1306.67 270.22L1306.55 269.824L1306.44 270.22C1306.08 271.494 1305.08 272.487 1303.8 272.84L1303.4 272.949L1303.8 273.059H1303.8C1305.08 273.411 1306.08 274.404 1306.44 275.678L1306.55 276.074L1306.67 275.678Z" fill="white" fill-opacity="0.72"/>
</g>
<defs>
<filter id="filter0_f_472_6086" x="-106.758" y="-42.3789" width="1653.94" height="549.695" filterUnits="userSpaceOnUse" color-interpolation-filters="sRGB">
<feFlood flood-opacity="0" result="BackgroundImageFix"/>
<feBlend mode="normal" in="SourceGraphic" in2="BackgroundImageFix" result="shape"/>
<feGaussianBlur stdDeviation="17" result="effect1_foregroundBlur_472_6086"/>
</filter>
<filter id="filter1_f_472_6086" x="896.617" y="-463.928" width="991.367" height="943.094" filterUnits="userSpaceOnUse" color-interpolation-filters="sRGB">
<feFlood flood-opacity="0" result="BackgroundImageFix"/>
<feBlend mode="normal" in="SourceGraphic" in2="BackgroundImageFix" result="shape"/>
<feGaussianBlur stdDeviation="117" result="effect1_foregroundBlur_472_6086"/>
</filter>
<filter id="filter2_f_472_6086" x="-135.418" y="-370.439" width="1175.03" height="832.441" filterUnits="userSpaceOnUse" color-interpolation-filters="sRGB">
<feFlood flood-opacity="0" result="BackgroundImageFix"/>
<feBlend mode="normal" in="SourceGraphic" in2="BackgroundImageFix" result="shape"/>
<feGaussianBlur stdDeviation="117" result="effect1_foregroundBlur_472_6086"/>
</filter>
<filter id="filter3_f_472_6086" x="210.193" y="-478.008" width="1125.92" height="1164.75" filterUnits="userSpaceOnUse" color-interpolation-filters="sRGB">
<feFlood flood-opacity="0" result="BackgroundImageFix"/>
<feBlend mode="normal" in="SourceGraphic" in2="BackgroundImageFix" result="shape"/>
<feGaussianBlur stdDeviation="117" result="effect1_foregroundBlur_472_6086"/>
</filter>
<filter id="filter4_f_472_6086" x="-543.225" y="-601.301" width="1157.37" height="1109.09" filterUnits="userSpaceOnUse" color-interpolation-filters="sRGB">
<feFlood flood-opacity="0" result="BackgroundImageFix"/>
<feBlend mode="normal" in="SourceGraphic" in2="BackgroundImageFix" result="shape"/>
<feGaussianBlur stdDeviation="158.5" result="effect1_foregroundBlur_472_6086"/>
</filter>
<filter id="filter5_bd_472_6086" x="-85.9707" y="-68.6367" width="1611.94" height="84.8926" filterUnits="userSpaceOnUse" color-interpolation-filters="sRGB">
<feFlood flood-opacity="0" result="BackgroundImageFix"/>
<feGaussianBlur in="BackgroundImageFix" stdDeviation="4"/>
<feComposite in2="SourceAlpha" operator="in" result="effect1_backgroundBlur_472_6086"/>
<feColorMatrix in="SourceAlpha" type="matrix" values="0 0 0 0 0 0 0 0 0 0 0 0 0 0 0 0 0 0 127 0" result="hardAlpha"/>
<feOffset dy="4"/>
<feGaussianBlur stdDeviation="6.5"/>
<feComposite in2="hardAlpha" operator="out"/>
<feColorMatrix type="matrix" values="0 0 0 0 0.175678 0 0 0 0 0.173906 0 0 0 0 0.2625 0 0 0 0.09 0"/>
<feBlend mode="normal" in2="effect1_backgroundBlur_472_6086" result="effect2_dropShadow_472_6086"/>
<feBlend mode="normal" in="SourceGraphic" in2="effect2_dropShadow_472_6086" result="shape"/>
</filter>
<filter id="filter6_b_472_6086" x="1231.81" y="124.857" width="43.957" height="43.957" filterUnits="userSpaceOnUse" color-interpolation-filters="sRGB">
<feFlood flood-opacity="0" result="BackgroundImageFix"/>
<feGaussianBlur in="BackgroundImageFix" stdDeviation="2"/>
<feComposite in2="SourceAlpha" operator="in" result="effect1_backgroundBlur_472_6086"/>
<feBlend mode="normal" in="SourceGraphic" in2="effect1_backgroundBlur_472_6086" result="shape"/>
</filter>
<filter id="filter7_b_472_6086" x="1226.54" y="119.578" width="54.5176" height="54.5176" filterUnits="userSpaceOnUse" color-interpolation-filters="sRGB">
<feFlood flood-opacity="0" result="BackgroundImageFix"/>
<feGaussianBlur in="BackgroundImageFix" stdDeviation="2"/>
<feComposite in2="SourceAlpha" operator="in" result="effect1_backgroundBlur_472_6086"/>
<feBlend mode="normal" in="SourceGraphic" in2="effect1_backgroundBlur_472_6086" result="shape"/>
</filter>
<filter id="filter8_b_472_6086" x="20.207" y="107.141" width="43.957" height="43.957" filterUnits="userSpaceOnUse" color-interpolation-filters="sRGB">
<feFlood flood-opacity="0" result="BackgroundImageFix"/>
<feGaussianBlur in="BackgroundImageFix" stdDeviation="2"/>
<feComposite in2="SourceAlpha" operator="in" result="effect1_backgroundBlur_472_6086"/>
<feBlend mode="normal" in="SourceGraphic" in2="effect1_backgroundBlur_472_6086" result="shape"/>
</filter>
<filter id="filter9_b_472_6086" x="14.9277" y="101.861" width="54.5176" height="54.5176" filterUnits="userSpaceOnUse" color-interpolation-filters="sRGB">
<feFlood flood-opacity="0" result="BackgroundImageFix"/>
<feGaussianBlur in="BackgroundImageFix" stdDeviation="2"/>
<feComposite in2="SourceAlpha" operator="in" result="effect1_backgroundBlur_472_6086"/>
<feBlend mode="normal" in="SourceGraphic" in2="effect1_backgroundBlur_472_6086" result="shape"/>
</filter>
<filter id="filter10_bd_472_6086" x="-22.5898" y="192.742" width="142.193" height="184.096" filterUnits="userSpaceOnUse" color-interpolation-filters="sRGB">
<feFlood flood-opacity="0" result="BackgroundImageFix"/>
<feGaussianBlur in="BackgroundImageFix" stdDeviation="2"/>
<feComposite in2="SourceAlpha" operator="in" result="effect1_backgroundBlur_472_6086"/>
<feColorMatrix in="SourceAlpha" type="matrix" values="0 0 0 0 0 0 0 0 0 0 0 0 0 0 0 0 0 0 127 0" result="hardAlpha"/>
<feOffset dx="19" dy="32"/>
<feGaussianBlur stdDeviation="2"/>
<feComposite in2="hardAlpha" operator="out"/>
<feColorMatrix type="matrix" values="0 0 0 0 0.0319739 0 0 0 0 0.0236979 0 0 0 0 0.4375 0 0 0 0.05 0"/>
<feBlend mode="normal" in2="effect1_backgroundBlur_472_6086" result="effect2_dropShadow_472_6086"/>
<feBlend mode="normal" in="SourceGraphic" in2="effect2_dropShadow_472_6086" result="shape"/>
</filter>
<filter id="filter11_b_472_6086" x="-16.8125" y="198.184" width="111.639" height="141.213" filterUnits="userSpaceOnUse" color-interpolation-filters="sRGB">
<feFlood flood-opacity="0" result="BackgroundImageFix"/>
<feGaussianBlur in="BackgroundImageFix" stdDeviation="2"/>
<feComposite in2="SourceAlpha" operator="in" result="effect1_backgroundBlur_472_6086"/>
<feBlend mode="normal" in="SourceGraphic" in2="effect1_backgroundBlur_472_6086" result="shape"/>
</filter>
<filter id="filter12_b_472_6086" x="109.596" y="254.164" width="56.5938" height="104.855" filterUnits="userSpaceOnUse" color-interpolation-filters="sRGB">
<feFlood flood-opacity="0" result="BackgroundImageFix"/>
<feGaussianBlur in="BackgroundImageFix" stdDeviation="2"/>
<feComposite in2="SourceAlpha" operator="in" result="effect1_backgroundBlur_472_6086"/>
<feBlend mode="normal" in="SourceGraphic" in2="effect1_backgroundBlur_472_6086" result="shape"/>
</filter>
<filter id="filter13_bd_472_6086" x="1190.82" y="200.469" width="142.193" height="184.096" filterUnits="userSpaceOnUse" color-interpolation-filters="sRGB">
<feFlood flood-opacity="0" result="BackgroundImageFix"/>
<feGaussianBlur in="BackgroundImageFix" stdDeviation="2"/>
<feComposite in2="SourceAlpha" operator="in" result="effect1_backgroundBlur_472_6086"/>
<feColorMatrix in="SourceAlpha" type="matrix" values="0 0 0 0 0 0 0 0 0 0 0 0 0 0 0 0 0 0 127 0" result="hardAlpha"/>
<feOffset dx="19" dy="32"/>
<feGaussianBlur stdDeviation="2"/>
<feComposite in2="hardAlpha" operator="out"/>
<feColorMatrix type="matrix" values="0 0 0 0 0.0319739 0 0 0 0 0.0236979 0 0 0 0 0.4375 0 0 0 0.05 0"/>
<feBlend mode="normal" in2="effect1_backgroundBlur_472_6086" result="effect2_dropShadow_472_6086"/>
<feBlend mode="normal" in="SourceGraphic" in2="effect2_dropShadow_472_6086" result="shape"/>
</filter>
<filter id="filter14_b_472_6086" x="1196.6" y="205.91" width="111.639" height="141.213" filterUnits="userSpaceOnUse" color-interpolation-filters="sRGB">
<feFlood flood-opacity="0" result="BackgroundImageFix"/>
<feGaussianBlur in="BackgroundImageFix" stdDeviation="2"/>
<feComposite in2="SourceAlpha" operator="in" result="effect1_backgroundBlur_472_6086"/>
<feBlend mode="normal" in="SourceGraphic" in2="effect1_backgroundBlur_472_6086" result="shape"/>
</filter>
<filter id="filter15_b_472_6086" x="1091.73" y="260.859" width="82.002" height="82.002" filterUnits="userSpaceOnUse" color-interpolation-filters="sRGB">
<feFlood flood-opacity="0" result="BackgroundImageFix"/>
<feGaussianBlur in="BackgroundImageFix" stdDeviation="2"/>
<feComposite in2="SourceAlpha" operator="in" result="effect1_backgroundBlur_472_6086"/>
<feBlend mode="normal" in="SourceGraphic" in2="effect1_backgroundBlur_472_6086" result="shape"/>
</filter>
<filter id="filter16_d_472_6086" x="1285.61" y="263.807" width="41.3711" height="47.3711" filterUnits="userSpaceOnUse" color-interpolation-filters="sRGB">
<feFlood flood-opacity="0" result="BackgroundImageFix"/>
<feColorMatrix in="SourceAlpha" type="matrix" values="0 0 0 0 0 0 0 0 0 0 0 0 0 0 0 0 0 0 127 0" result="hardAlpha"/>
<feOffset dy="10"/>
<feGaussianBlur stdDeviation="2"/>
<feComposite in2="hardAlpha" operator="out"/>
<feColorMatrix type="matrix" values="0 0 0 0 0.177222 0 0 0 0 0.100694 0 0 0 0 0.483333 0 0 0 0.15 0"/>
<feBlend mode="normal" in2="BackgroundImageFix" result="effect1_dropShadow_472_6086"/>
<feBlend mode="normal" in="SourceGraphic" in2="effect1_dropShadow_472_6086" result="shape"/>
</filter>
<filter id="filter17_b_472_6086" x="1273.94" y="248.139" width="57.7073" height="57.7053" filterUnits="userSpaceOnUse" color-interpolation-filters="sRGB">
<feFlood flood-opacity="0" result="BackgroundImageFix"/>
<feGaussianBlur in="BackgroundImageFix" stdDeviation="7.83404"/>
<feComposite in2="SourceAlpha" operator="in" result="effect1_backgroundBlur_472_6086"/>
<feBlend mode="normal" in="SourceGraphic" in2="effect1_backgroundBlur_472_6086" result="shape"/>
</filter>
<filter id="filter18_b_472_6086" x="1289.07" y="263.271" width="27.4414" height="27.4395" filterUnits="userSpaceOnUse" color-interpolation-filters="sRGB">
<feFlood flood-opacity="0" result="BackgroundImageFix"/>
<feGaussianBlur in="BackgroundImageFix" stdDeviation="1.5"/>
<feComposite in2="SourceAlpha" operator="in" result="effect1_backgroundBlur_472_6086"/>
<feBlend mode="normal" in="SourceGraphic" in2="effect1_backgroundBlur_472_6086" result="shape"/>
</filter>
<filter id="filter19_b_472_6086" x="1295.08" y="269.283" width="43.5647" height="43.5627" filterUnits="userSpaceOnUse" color-interpolation-filters="sRGB">
<feFlood flood-opacity="0" result="BackgroundImageFix"/>
<feGaussianBlur in="BackgroundImageFix" stdDeviation="7.83404"/>
<feComposite in2="SourceAlpha" operator="in" result="effect1_backgroundBlur_472_6086"/>
<feBlend mode="normal" in="SourceGraphic" in2="effect1_backgroundBlur_472_6086" result="shape"/>
</filter>
<radialGradient id="paint0_radial_472_6086" cx="0" cy="0" r="1" gradientUnits="userSpaceOnUse" gradientTransform="translate(638.808 539.13) scale(1091.07 780.873)">
<stop stop-color="#1853D4"/>
<stop offset="0.56" stop-color="#1AD0FF"/>
<stop offset="1" stop-color="white"/>
</radialGradient>
<radialGradient id="paint1_radial_472_6086" cx="0" cy="0" r="1" gradientUnits="userSpaceOnUse" gradientTransform="translate(651.042 687.798) scale(1124.24 804.609)">
<stop stop-color="#1853D4"/>
<stop offset="0.56" stop-color="#1AD0FF"/>
<stop offset="1" stop-color="white"/>
</radialGradient>
<radialGradient id="paint2_radial_472_6086" cx="0" cy="0" r="1" gradientUnits="userSpaceOnUse" gradientTransform="translate(577.735 672.498) scale(1258.79 900.909)">
<stop stop-color="#1853D4"/>
<stop offset="0.56" stop-color="#1AD0FF"/>
<stop offset="1" stop-color="white"/>
</radialGradient>
<radialGradient id="paint3_radial_472_6086" cx="0" cy="0" r="1" gradientUnits="userSpaceOnUse" gradientTransform="translate(990.159 567.566) scale(1368.67 979.547)">
<stop stop-color="#1853D4"/>
<stop offset="0.56" stop-color="#1AD0FF"/>
<stop offset="1" stop-color="white"/>
</radialGradient>
<radialGradient id="paint4_radial_472_6086" cx="0" cy="0" r="1" gradientUnits="userSpaceOnUse" gradientTransform="translate(619.238 713.779) scale(1200.14 1228.13)">
<stop stop-color="#A8EDFF"/>
<stop offset="1" stop-color="white"/>
</radialGradient>
<radialGradient id="paint5_radial_472_6086" cx="0" cy="0" r="1" gradientUnits="userSpaceOnUse" gradientTransform="translate(632.697 947.644) scale(1236.66 1265.5)">
<stop stop-color="#A8EDFF"/>
<stop offset="1" stop-color="white"/>
</radialGradient>
<radialGradient id="paint6_radial_472_6086" cx="0" cy="0" r="1" gradientUnits="userSpaceOnUse" gradientTransform="translate(552.058 923.542) scale(1384.67 1416.96)">
<stop stop-color="#A8EDFF"/>
<stop offset="1" stop-color="white"/>
</radialGradient>
<radialGradient id="paint7_radial_472_6086" cx="0" cy="0" r="1" gradientUnits="userSpaceOnUse" gradientTransform="translate(1005.69 758.503) scale(1505.53 1540.65)">
<stop stop-color="#A8EDFF"/>
<stop offset="1" stop-color="white"/>
</radialGradient>
<linearGradient id="paint8_linear_472_6086" x1="1018.37" y1="24.7597" x2="847.157" y2="24.7597" gradientUnits="userSpaceOnUse">
<stop stop-color="#89ECD8"/>
<stop offset="1" stop-color="#89ECD8" stop-opacity="0"/>
</linearGradient>
<linearGradient id="paint9_linear_472_6086" x1="1027.41" y1="-15.625" x2="1027.41" y2="24.7597" gradientUnits="userSpaceOnUse">
<stop stop-color="#1EAFB3"/>
<stop offset="1" stop-color="#5AD7FF"/>
</linearGradient>
<linearGradient id="paint10_linear_472_6086" x1="683.324" y1="-32.7539" x2="683.324" y2="632.944" gradientUnits="userSpaceOnUse">
<stop offset="0.453125" stop-color="#3C46F4" stop-opacity="0"/>
<stop offset="0.71875" stop-color="#94CAFB" stop-opacity="0.91"/>
</linearGradient>
<linearGradient id="paint11_linear_472_6086" x1="904.58" y1="41.032" x2="746.897" y2="41.032" gradientUnits="userSpaceOnUse">
<stop stop-color="#78BDFD"/>
<stop offset="1" stop-color="#78BDFD" stop-opacity="0"/>
</linearGradient>
<linearGradient id="paint12_linear_472_6086" x1="529.762" y1="359.153" x2="169.408" y2="359.153" gradientUnits="userSpaceOnUse">
<stop stop-color="#78BDFD"/>
<stop offset="1" stop-color="#78BDFD" stop-opacity="0"/>
</linearGradient>
<linearGradient id="paint13_linear_472_6086" x1="1307.13" y1="78.7898" x2="946.777" y2="78.7898" gradientUnits="userSpaceOnUse">
<stop stop-color="#37C3FF"/>
<stop offset="1" stop-color="#78BDFD" stop-opacity="0"/>
</linearGradient>
<linearGradient id="paint14_linear_472_6086" x1="218.943" y1="488.197" x2="-13.8563" y2="488.197" gradientUnits="userSpaceOnUse">
<stop stop-color="#89ECD8"/>
<stop offset="1" stop-color="#89ECD8" stop-opacity="0"/>
</linearGradient>
<linearGradient id="paint15_linear_472_6086" x1="231.232" y1="433.287" x2="231.232" y2="488.197" gradientUnits="userSpaceOnUse">
<stop stop-color="#23A3FF"/>
<stop offset="1" stop-color="white"/>
</linearGradient>
<linearGradient id="paint16_linear_472_6086" x1="694.168" y1="49.6744" x2="577.276" y2="49.6744" gradientUnits="userSpaceOnUse">
<stop stop-color="#89ECD8"/>
<stop offset="1" stop-color="#89ECD8" stop-opacity="0"/>
</linearGradient>
<linearGradient id="paint17_linear_472_6086" x1="700.338" y1="22.1035" x2="700.338" y2="49.6744" gradientUnits="userSpaceOnUse">
<stop stop-color="#23A3FF"/>
<stop offset="1" stop-color="white"/>
</linearGradient>
<linearGradient id="paint18_linear_472_6086" x1="1293.67" y1="439.34" x2="1122.46" y2="439.34" gradientUnits="userSpaceOnUse">
<stop stop-color="#F4FFFF"/>
<stop offset="1" stop-color="#89ECD8" stop-opacity="0"/>
</linearGradient>
<linearGradient id="paint19_linear_472_6086" x1="1331.49" y1="410.559" x2="1302.71" y2="439.34" gradientUnits="userSpaceOnUse">
<stop stop-color="#287EFF"/>
<stop offset="1" stop-color="#F9FDFF"/>
</linearGradient>
<linearGradient id="paint20_linear_472_6086" x1="1253.79" y1="128.857" x2="1253.79" y2="164.814" gradientUnits="userSpaceOnUse">
<stop stop-color="#FB967C"/>
<stop offset="1" stop-color="#36A8DB"/>
</linearGradient>
<linearGradient id="paint21_linear_472_6086" x1="1253.79" y1="123.578" x2="1253.79" y2="170.095" gradientUnits="userSpaceOnUse">
<stop stop-color="#E0998A"/>
<stop offset="1" stop-color="#43A7D5" stop-opacity="0"/>
</linearGradient>
<linearGradient id="paint22_linear_472_6086" x1="42.1853" y1="111.141" x2="42.1853" y2="147.097" gradientUnits="userSpaceOnUse">
<stop stop-color="#FB967C"/>
<stop offset="1" stop-color="#36A8DB"/>
</linearGradient>
<linearGradient id="paint23_linear_472_6086" x1="42.1863" y1="105.861" x2="42.1863" y2="152.378" gradientUnits="userSpaceOnUse">
<stop stop-color="#E0998A"/>
<stop offset="1" stop-color="#43A7D5" stop-opacity="0"/>
</linearGradient>
<linearGradient id="paint24_linear_472_6086" x1="39.007" y1="196.742" x2="39.007" y2="340.837" gradientUnits="userSpaceOnUse">
<stop stop-color="#8CB2EF"/>
<stop offset="1" stop-color="#4583E9" stop-opacity="0.13"/>
</linearGradient>
<linearGradient id="paint25_linear_472_6086" x1="39.007" y1="196.742" x2="39.007" y2="340.837" gradientUnits="userSpaceOnUse">
<stop stop-color="white" stop-opacity="0.69"/>
<stop offset="1" stop-color="white" stop-opacity="0"/>
</linearGradient>
<linearGradient id="paint26_linear_472_6086" x1="39.0071" y1="202.184" x2="39.0071" y2="335.396" gradientUnits="userSpaceOnUse">
<stop stop-color="#B6D2FF"/>
<stop offset="1" stop-color="#D9E7FF" stop-opacity="0.13"/>
</linearGradient>
<linearGradient id="paint27_linear_472_6086" x1="137.892" y1="258.164" x2="137.892" y2="355.02" gradientUnits="userSpaceOnUse">
<stop stop-color="#B6D2FF"/>
<stop offset="1" stop-color="#D9E7FF" stop-opacity="0.13"/>
</linearGradient>
<linearGradient id="paint28_linear_472_6086" x1="1252.42" y1="204.469" x2="1252.42" y2="348.564" gradientUnits="userSpaceOnUse">
<stop stop-color="#8CB2EF"/>
<stop offset="1" stop-color="#4583E9" stop-opacity="0.13"/>
</linearGradient>
<linearGradient id="paint29_linear_472_6086" x1="1252.42" y1="204.469" x2="1252.42" y2="348.564" gradientUnits="userSpaceOnUse">
<stop stop-color="white" stop-opacity="0.69"/>
<stop offset="1" stop-color="white" stop-opacity="0"/>
</linearGradient>
<linearGradient id="paint30_linear_472_6086" x1="1252.42" y1="209.91" x2="1252.42" y2="343.123" gradientUnits="userSpaceOnUse">
<stop stop-color="#B6D2FF"/>
<stop offset="1" stop-color="#D9E7FF" stop-opacity="0.13"/>
</linearGradient>
<linearGradient id="paint31_linear_472_6086" x1="1132.73" y1="264.859" x2="1132.73" y2="338.861" gradientUnits="userSpaceOnUse">
<stop stop-color="#62D7B2"/>
<stop offset="1" stop-color="#93E5CD" stop-opacity="0.08"/>
</linearGradient>
<linearGradient id="paint32_linear_472_6086" x1="1342.82" y1="103.803" x2="1342.82" y2="180.756" gradientUnits="userSpaceOnUse">
<stop stop-color="#AECDFF"/>
<stop offset="1" stop-color="#D9E7FF" stop-opacity="0.36"/>
</linearGradient>
<linearGradient id="paint33_linear_472_6086" x1="1297.22" y1="289.997" x2="1318.13" y2="255.295" gradientUnits="userSpaceOnUse">
<stop stop-color="#F6F3FF"/>
<stop offset="1" stop-color="white" stop-opacity="0.13"/>
</linearGradient>
<linearGradient id="paint34_linear_472_6086" x1="1302.79" y1="286.282" x2="1303.75" y2="277.948" gradientUnits="userSpaceOnUse">
<stop stop-color="white"/>
<stop offset="1" stop-color="white" stop-opacity="0"/>
</linearGradient>
<linearGradient id="paint35_linear_472_6086" x1="1318.52" y1="290.159" x2="1315.96" y2="292.721" gradientUnits="userSpaceOnUse">
<stop stop-color="#F6F3FF"/>
<stop offset="1" stop-color="white" stop-opacity="0.13"/>
</linearGradient>
<clipPath id="clip0_472_6086">
<rect width="1440" height="582" fill="white" transform="translate(0 0.582031)"/>
</clipPath>
<clipPath id="clip1_472_6086">
<rect width="2141.55" height="634.711" fill="white" transform="translate(-361.701 -90.0664)"/>
</clipPath>
<clipPath id="clip2_472_6086">
<rect x="-12.1738" y="204.396" width="103" height="131" rx="2" fill="white"/>
</clipPath>
<clipPath id="clip3_472_6086">
<rect width="48" height="97" fill="white" transform="translate(114.189 258.164)"/>
</clipPath>
<clipPath id="clip4_472_6086">
<rect x="1201.48" y="212.123" width="103" height="131" rx="2" fill="white"/>
</clipPath>
</defs>
</svg>
