<svg width="358" height="403" viewBox="0 0 358 403" fill="none" xmlns="http://www.w3.org/2000/svg">
<path d="M68.7109 71.0576V46.7031C68.7109 29.5823 82.5901 15.7031 99.7109 15.7031H259.129C276.25 15.7031 290.129 29.5823 290.129 46.7031V79.7406" stroke="black" stroke-opacity="0.34" stroke-dasharray="6 6"/>
<path d="M68.7109 275.003V250.648C68.7109 233.528 82.5901 219.648 99.7109 219.648H259.129C276.25 219.648 290.129 233.528 290.129 250.648V283.686" stroke="#314562" stroke-opacity="0.42" stroke-dasharray="6 6"/>
<path d="M68.7109 96.583V120.937C68.7109 138.058 82.5901 151.938 99.7109 151.938H259.129C276.25 151.938 290.129 138.058 290.129 120.937V87.9001" stroke="#314562" stroke-opacity="0.42" stroke-dasharray="6 6"/>
<g filter="url(#filter0_d_784_9087)">
<rect x="150.152" y="55.9219" width="57.6982" height="57.4658" rx="28.7329" fill="white"/>
</g>
<g filter="url(#filter1_d_784_9087)">
<rect x="150.152" y="195.877" width="57.6982" height="57.4658" rx="28.7329" fill="white"/>
</g>
<rect x="168.016" y="142.82" width="22.8066" height="23.5059" fill="white"/>
<path d="M180.129 186.584C179.738 186.975 179.105 186.975 178.715 186.584L172.351 180.22C171.96 179.83 171.96 179.196 172.351 178.806C172.741 178.415 173.374 178.415 173.765 178.806L179.422 184.463L185.079 178.806C185.469 178.415 186.102 178.415 186.493 178.806C186.883 179.196 186.883 179.83 186.493 180.22L180.129 186.584ZM178.422 185.877L178.422 123.268L180.422 123.268L180.422 185.877L178.422 185.877Z" fill="#6C839C"/>
<path d="M195.994 78.9718C196.079 79.5416 195.678 79.1335 195.678 79.1335C194.045 77.047 195.963 73.5594 195.963 73.5594C196.21 73.159 196.456 72.7971 196.71 72.4661C192.828 66.8303 186.333 63.1348 178.961 63.1348C167.621 63.1348 158.338 71.904 157.498 83.0216C161.789 80.9428 166.465 86.0858 166.465 86.0858L168.306 87.9105C173.845 93.4384 175.44 93.3922 176.241 92.1219C176.241 92.1219 177.351 90.5128 175.502 87.2484C173.26 83.3064 175.718 80.3885 175.718 80.3885C182.243 71.5268 192.689 82.7983 192.689 82.7983C196.379 86.4785 198.721 87.8566 200.2 88.2492C200.393 87.079 200.501 85.8856 200.501 84.6615C200.501 82.0669 200.038 79.5801 199.199 77.278C196.341 76.3002 195.94 78.61 195.994 78.9795V78.9718Z" fill="#76C4D5"/>
<path d="M186.07 89.4218C181.725 85.0872 179.175 83.8554 177.696 83.8477C177.534 83.8631 176.301 84.0016 176.54 85.2566C176.756 86.3499 180.693 91.4929 176.147 96.0507C169.776 101.417 162.935 93.2791 162.935 93.2791C160.817 91.3081 158.259 88.2977 157.936 89.2909C160.062 98.9456 168.667 106.175 178.959 106.175C186.879 106.175 193.797 101.902 197.541 95.5349C192.048 95.866 186.07 89.4218 186.07 89.4218Z" fill="#007496"/>
<circle cx="179.001" cy="224.61" r="28.8506" fill="white"/>
<circle cx="179" cy="224.61" r="24.2951" fill="#B6E9F4"/>
<mask id="mask0_784_9087" style="mask-type:alpha" maskUnits="userSpaceOnUse" x="154" y="200" width="50" height="49">
<circle cx="179.001" cy="224.608" r="24.2937" fill="#C4C4C4"/>
</mask>
<g mask="url(#mask0_784_9087)">
<path d="M189.364 243.83C183.555 241.492 181.641 238.586 182.136 234.406H178.582H178.156H175.745C176.241 238.586 174.327 241.492 168.517 243.83C162.708 246.167 161.928 248.72 161.928 248.72H177.478H178.579H195.951C195.954 248.72 195.177 246.167 189.364 243.83Z" fill="#E79392"/>
<path d="M178.901 241.217C180.577 241.217 182.161 240.794 183.569 240.04C182.283 238.447 181.88 236.602 182.141 234.406H178.587H178.16H175.75C176.011 236.618 175.601 238.473 174.295 240.073C175.687 240.807 177.251 241.217 178.901 241.217Z" fill="#D17675"/>
<path d="M189.364 243.829C187.351 243.019 185.807 242.14 184.666 241.164L179.31 246.14L173.275 241.111C172.131 242.11 170.567 243.003 168.517 243.829C162.708 246.167 161.928 248.719 161.928 248.719H177.478H178.579H195.951C195.954 248.719 195.177 246.167 189.364 243.829Z" fill="#76C4D5"/>
<path d="M170.687 226.816C171.758 228.862 171.308 231.213 169.685 232.063C168.062 232.913 165.876 231.941 164.805 229.891C163.733 227.844 164.183 225.493 165.807 224.643C167.433 223.794 169.616 224.766 170.687 226.816Z" fill="#E79392"/>
<path d="M169.747 230.725C169.74 230.642 169.724 230.569 169.717 230.49C169.731 230.55 169.737 230.596 169.74 230.635C169.731 230.219 169.671 229.878 169.565 229.611C168.719 226.142 165.479 225.795 165.479 225.795C167.122 226.787 168.147 227.881 168.782 228.787C167.614 228.311 165.816 229.32 165.816 229.32C167.955 228.754 168.927 229.224 169.373 229.766C169.661 230.348 169.747 230.725 169.747 230.725Z" fill="#D17675"/>
<path d="M187.107 226.816C186.036 228.862 186.486 231.213 188.109 232.063C189.733 232.913 191.918 231.941 192.99 229.891C194.061 227.844 193.611 225.493 191.988 224.643C190.364 223.794 188.179 224.766 187.107 226.816Z" fill="#E79392"/>
<path d="M188.051 230.725C188.057 230.642 188.074 230.569 188.081 230.49C188.067 230.55 188.061 230.596 188.057 230.635C188.067 230.219 188.127 229.878 188.233 229.611C189.079 226.142 192.319 225.795 192.319 225.795C190.676 226.787 189.651 227.881 189.016 228.787C190.18 228.311 191.982 229.32 191.982 229.32C189.846 228.754 188.871 229.224 188.424 229.766C188.133 230.348 188.051 230.725 188.051 230.725Z" fill="#D17675"/>
<path d="M191.642 218.121C192.961 215.235 194.571 210.136 188.048 207.16C188.094 207.184 185.257 204.793 180.215 209.141C178.608 210.553 176.452 211.171 174.409 210.493C172.372 209.815 169.687 209.895 168.183 213.591C167.779 214.583 167.65 215.473 167.717 216.26C167.244 215.665 166.599 215.278 165.997 216.223C165.511 216.974 165.911 220.3 167.088 223.306C167.088 223.306 167.776 230.527 171.066 231.648L174.306 227.204C176.991 227.141 180.34 227.055 183.091 226.992L186.487 231.648C188.838 230.848 189.86 226.939 190.253 224.767C190.382 224.625 190.508 224.483 190.637 224.341C192.154 222.667 192.726 220.346 191.797 218.425C191.754 218.32 191.701 218.22 191.642 218.121Z" fill="#1F2027"/>
<path d="M174.412 210.493C172.376 209.815 169.691 209.895 168.186 213.591C168.028 213.981 167.912 214.355 167.836 214.712L167.919 214.917C167.915 214.917 169.909 210.262 174.412 210.493Z" fill="#4D4E62"/>
<path d="M188.044 207.16C188.08 207.18 186.368 205.735 183.227 207.147C183.842 207.14 191.688 207.23 192.699 214.917C193.172 212.269 192.541 209.21 188.044 207.16Z" fill="#4D4E62"/>
<path d="M175.906 215.163C172.143 215.163 169.082 218.191 169.042 221.954L168.973 228.497C168.973 234.482 173.416 239.332 178.895 239.332C184.377 239.332 188.818 234.482 188.818 228.497L188.798 221.557C188.788 218.023 186.516 213.152 182.982 213.152L175.906 215.163Z" fill="#FDB193"/>
<path opacity="0.39" d="M179.686 234.675C179.686 234.675 181.464 234.732 182.099 233.316C182.099 233.316 182.605 234.345 181.392 234.95C180.182 235.558 179.686 234.675 179.686 234.675Z" fill="#FF8282"/>
<path opacity="0.55" d="M188.809 221.553C188.799 218.019 186.528 213.148 182.993 213.148L175.911 215.159C172.148 215.159 169.086 218.187 169.047 221.95L169.014 225.051L170.009 223.349C170.016 223.319 170.697 220.403 176.982 220.323C179.178 220.294 181.852 219.652 183.588 217.133C184.213 219.011 185.258 220.7 186.501 221.715C187.225 222.304 187.999 222.658 188.806 222.777L188.809 221.553Z" fill="#FDB193"/>
<path d="M178.895 237.923C174.808 237.923 171.267 235.533 169.518 232.041C170.863 236.283 174.55 239.332 178.895 239.332C183.239 239.332 186.926 236.283 188.272 232.041C186.522 235.533 182.981 237.923 178.895 237.923Z" fill="#FDD5C5"/>
<path d="M181.92 230.383C182.036 230.697 182.099 231.037 182.099 231.395C182.099 232.988 180.839 234.281 179.285 234.281C177.926 234.281 176.792 233.292 176.527 231.98L181.92 230.383Z" fill="#230F0B"/>
<path d="M179.278 234.281C178.796 234.281 178.346 234.155 177.949 233.937C178.207 232.684 179.388 231.738 180.803 231.738C181.242 231.738 181.656 231.831 182.029 231.993C181.765 233.299 180.634 234.281 179.278 234.281Z" fill="#E8132C"/>
<path d="M180.313 228.66C180.313 229.599 179.679 230.359 178.895 230.359C178.111 230.359 177.477 229.599 177.477 228.66C177.477 227.721 178.111 226.547 178.895 226.547C179.679 226.544 180.313 227.717 180.313 228.66Z" fill="#FC7F7D"/>
<path d="M183.992 225.639C183.992 226.416 183.727 227.048 183.403 227.048C183.079 227.048 182.814 226.416 182.814 225.639C182.814 224.862 183.079 224.23 183.403 224.23C183.727 224.227 183.992 224.859 183.992 225.639Z" fill="#25110D"/>
<path d="M186.183 224.095C186.259 224.052 182.995 221.989 180.982 222.065C180.955 222.098 181.022 220.266 183.693 221.225C186.282 222.29 186.16 224.125 186.183 224.095Z" fill="#1F2027"/>
<path d="M174.383 227.048C174.709 227.048 174.972 226.417 174.972 225.639C174.972 224.861 174.709 224.23 174.383 224.23C174.058 224.23 173.795 224.861 173.795 225.639C173.795 226.417 174.058 227.048 174.383 227.048Z" fill="#25110D"/>
<path d="M171.308 224.095C171.232 224.052 174.495 221.989 176.509 222.065C176.535 222.098 176.469 220.266 173.798 221.225C171.205 222.29 171.331 224.125 171.308 224.095Z" fill="#1F2027"/>
<path d="M172.956 230.422C172.919 230.422 172.88 230.412 172.843 230.396C172.714 230.333 172.658 230.178 172.721 230.049L173.544 228.346C173.607 228.217 173.763 228.164 173.892 228.224C174.021 228.286 174.077 228.442 174.014 228.571L173.191 230.274C173.144 230.369 173.052 230.422 172.956 230.422Z" fill="#FC7F7D"/>
<path d="M171.315 230.422C171.279 230.422 171.239 230.412 171.203 230.396C171.074 230.333 171.018 230.178 171.08 230.049L171.904 228.346C171.967 228.217 172.122 228.164 172.251 228.224C172.38 228.286 172.436 228.442 172.373 228.571L171.55 230.274C171.507 230.369 171.414 230.422 171.315 230.422Z" fill="#FC7F7D"/>
<path d="M184.67 230.424C184.574 230.424 184.482 230.371 184.436 230.275L183.612 228.572C183.549 228.443 183.602 228.288 183.735 228.225C183.864 228.162 184.019 228.218 184.082 228.347L184.905 230.05C184.968 230.179 184.915 230.334 184.783 230.397C184.746 230.417 184.707 230.424 184.67 230.424Z" fill="#FC7F7D"/>
<path d="M186.311 230.424C186.215 230.424 186.123 230.371 186.076 230.275L185.253 228.572C185.19 228.443 185.243 228.288 185.375 228.225C185.504 228.162 185.66 228.218 185.722 228.347L186.546 230.05C186.609 230.179 186.556 230.334 186.423 230.397C186.387 230.417 186.347 230.424 186.311 230.424Z" fill="#FC7F7D"/>
<path d="M189.247 218.729L184.589 210.764L173.33 214.173L167.293 221.49C168.596 222.455 169.035 223.176 169.035 223.176C169.035 223.176 169.687 219.42 176.974 219.327C181.755 219.264 183.339 216.269 183.964 213.845C184.096 216.672 185.472 219.588 187.131 220.941C188.361 221.946 189.552 221.962 190.52 221.642L189.247 218.729Z" fill="#1F2027"/>
</g>
<g filter="url(#filter2_d_784_9087)">
<rect x="126.258" y="3.54492" width="112.486" height="24.3137" rx="4" fill="#314562" shape-rendering="crispEdges"/>
<path d="M165.948 20.7012V11.027H167.12V19.662H171.617V20.7012H165.948ZM176.322 20.8523C175.622 20.8523 175.019 20.698 174.512 20.3894C174.009 20.0776 173.62 19.6431 173.346 19.0857C173.075 18.5251 172.939 17.8732 172.939 17.13C172.939 16.3868 173.075 15.7318 173.346 15.165C173.62 14.595 174.001 14.1509 174.489 13.8329C174.98 13.5117 175.553 13.3511 176.208 13.3511C176.586 13.3511 176.959 13.414 177.328 13.54C177.696 13.666 178.032 13.8707 178.334 14.1541C178.636 14.4344 178.877 14.806 179.057 15.2689C179.236 15.7318 179.326 16.3018 179.326 16.9789V17.4513H173.733V16.4876H178.192C178.192 16.0782 178.11 15.7129 177.947 15.3917C177.786 15.0705 177.556 14.817 177.257 14.6312C176.961 14.4454 176.611 14.3525 176.208 14.3525C175.764 14.3525 175.38 14.4627 175.056 14.6832C174.734 14.9004 174.487 15.1839 174.314 15.5334C174.141 15.883 174.054 16.2577 174.054 16.6577V17.3001C174.054 17.848 174.149 18.3125 174.338 18.6936C174.53 19.0715 174.796 19.3596 175.136 19.558C175.476 19.7533 175.871 19.8509 176.322 19.8509C176.614 19.8509 176.879 19.81 177.115 19.7281C177.354 19.6431 177.561 19.5171 177.734 19.3502C177.907 19.1801 178.041 18.9691 178.135 18.7172L179.212 19.0195C179.099 19.3848 178.909 19.706 178.641 19.9832C178.373 20.2571 178.043 20.4713 177.649 20.6256C177.255 20.7768 176.813 20.8523 176.322 20.8523ZM183.157 20.8712C182.697 20.8712 182.28 20.7846 181.905 20.6114C181.53 20.4351 181.233 20.1816 181.012 19.8509C180.792 19.5171 180.682 19.114 180.682 18.6416C180.682 18.2259 180.763 17.889 180.927 17.6308C181.091 17.3694 181.31 17.1647 181.584 17.0167C181.858 16.8687 182.16 16.7584 182.491 16.686C182.825 16.6104 183.16 16.5506 183.497 16.5065C183.938 16.4498 184.295 16.4073 184.569 16.379C184.846 16.3475 185.048 16.2955 185.174 16.2231C185.303 16.1507 185.367 16.0247 185.367 15.8452V15.8074C185.367 15.3413 185.24 14.9792 184.985 14.7209C184.733 14.4627 184.35 14.3336 183.837 14.3336C183.305 14.3336 182.888 14.4501 182.585 14.6832C182.283 14.9162 182.07 15.165 181.948 15.4295L180.889 15.0516C181.078 14.6107 181.33 14.2675 181.645 14.0218C181.963 13.7731 182.31 13.5998 182.684 13.5022C183.062 13.4015 183.434 13.3511 183.799 13.3511C184.032 13.3511 184.3 13.3794 184.602 13.4361C184.908 13.4896 185.202 13.6014 185.486 13.7715C185.772 13.9415 186.01 14.1982 186.199 14.5414C186.388 14.8847 186.482 15.3445 186.482 15.9208V20.7012H185.367V19.7186H185.311C185.235 19.8761 185.109 20.0446 184.933 20.2241C184.757 20.4036 184.522 20.5563 184.229 20.6823C183.936 20.8082 183.579 20.8712 183.157 20.8712ZM183.327 19.8698C183.768 19.8698 184.139 19.7832 184.442 19.61C184.747 19.4368 184.977 19.2132 185.131 18.9392C185.289 18.6652 185.367 18.3771 185.367 18.0748V17.0545C185.32 17.1111 185.216 17.1631 185.056 17.2103C184.898 17.2544 184.716 17.2938 184.508 17.3284C184.303 17.3599 184.103 17.3883 183.908 17.4135C183.716 17.4355 183.56 17.4544 183.44 17.4701C183.15 17.5079 182.88 17.5693 182.628 17.6544C182.379 17.7363 182.177 17.8606 182.023 18.0275C181.872 18.1913 181.796 18.4149 181.796 18.6983C181.796 19.0857 181.94 19.3785 182.226 19.5769C182.516 19.7722 182.883 19.8698 183.327 19.8698ZM188.517 20.7012V13.4455H189.594V14.5414H189.67C189.802 14.1824 190.041 13.8911 190.388 13.6676C190.734 13.444 191.125 13.3322 191.559 13.3322C191.641 13.3322 191.743 13.3337 191.866 13.3369C191.989 13.34 192.082 13.3448 192.145 13.3511V14.4848C192.107 14.4753 192.02 14.4611 191.885 14.4422C191.753 14.4202 191.613 14.4092 191.465 14.4092C191.112 14.4092 190.797 14.4832 190.52 14.6312C190.246 14.7761 190.029 14.9776 189.868 15.2358C189.711 15.4909 189.632 15.7822 189.632 16.1097V20.7012H188.517ZM194.581 16.3365V20.7012H193.466V13.4455H194.543V14.5792H194.638C194.808 14.2108 195.066 13.9148 195.412 13.6912C195.759 13.4644 196.206 13.3511 196.754 13.3511C197.245 13.3511 197.675 13.4518 198.044 13.6534C198.412 13.8518 198.699 14.1541 198.903 14.5603C199.108 14.9634 199.21 15.4736 199.21 16.0908V20.7012H198.096V16.1664C198.096 15.5964 197.948 15.1524 197.652 14.8343C197.355 14.5131 196.949 14.3525 196.433 14.3525C196.077 14.3525 195.759 14.4296 195.479 14.584C195.201 14.7383 194.983 14.9634 194.822 15.2594C194.661 15.5555 194.581 15.9145 194.581 16.3365Z" fill="white"/>
</g>
<g filter="url(#filter3_d_784_9087)">
<rect x="11.123" y="72.498" width="113.486" height="24.3137" rx="4" fill="#314562" shape-rendering="crispEdges"/>
<path d="M53.6234 89.6543H50.638V79.9801H53.7557C54.6941 79.9801 55.4971 80.1738 56.1648 80.5611C56.8324 80.9453 57.3441 81.498 57.7 82.2192C58.0558 82.9372 58.2338 83.7969 58.2338 84.7983C58.2338 85.806 58.0543 86.6736 57.6952 87.4011C57.3362 88.1254 56.8135 88.6828 56.127 89.0733C55.4405 89.4606 54.6059 89.6543 53.6234 89.6543ZM51.8095 88.6151H53.5478C54.3477 88.6151 55.0106 88.4608 55.5365 88.1522C56.0624 87.8435 56.4545 87.4042 56.7127 86.8342C56.9709 86.2642 57.1001 85.5856 57.1001 84.7983C57.1001 84.0173 56.9725 83.345 56.7174 82.7813C56.4624 82.2144 56.0813 81.7799 55.5743 81.4775C55.0673 81.1721 54.4359 81.0193 53.6801 81.0193H51.8095V88.6151ZM63.0897 89.8055C62.3906 89.8055 61.7876 89.6511 61.2806 89.3425C60.7767 89.0308 60.3878 88.5962 60.1138 88.0388C59.843 87.4782 59.7076 86.8264 59.7076 86.0832C59.7076 85.34 59.843 84.6849 60.1138 84.1181C60.3878 83.5481 60.7688 83.1041 61.2569 82.786C61.7482 82.4648 62.3213 82.3042 62.9764 82.3042C63.3543 82.3042 63.7274 82.3672 64.0959 82.4931C64.4643 82.6191 64.7997 82.8238 65.102 83.1072C65.4044 83.3875 65.6453 83.7591 65.8248 84.222C66.0043 84.6849 66.094 85.2549 66.094 85.932V86.4044H60.5011V85.4407H64.9603C64.9603 85.0314 64.8785 84.666 64.7147 84.3448C64.5541 84.0236 64.3242 83.7701 64.025 83.5843C63.729 83.3985 63.3795 83.3056 62.9764 83.3056C62.5323 83.3056 62.1481 83.4158 61.8238 83.6363C61.5026 83.8536 61.2554 84.137 61.0822 84.4865C60.909 84.8361 60.8224 85.2109 60.8224 85.6108V86.2532C60.8224 86.8012 60.9168 87.2657 61.1058 87.6467C61.2979 88.0246 61.564 88.3128 61.9041 88.5112C62.2442 88.7064 62.6394 88.804 63.0897 88.804C63.3826 88.804 63.6471 88.7631 63.8833 88.6812C64.1227 88.5962 64.3289 88.4702 64.5021 88.3033C64.6753 88.1333 64.8092 87.9223 64.9036 87.6703L65.9807 87.9727C65.8673 88.338 65.6768 88.6592 65.4091 88.9363C65.1414 89.2103 64.8107 89.4244 64.4171 89.5787C64.0235 89.7299 63.581 89.8055 63.0897 89.8055ZM67.7898 89.6543V82.3987H68.8668V83.5324H68.9613C69.1125 83.145 69.3565 82.8443 69.6935 82.6301C70.0305 82.4128 70.4351 82.3042 70.9075 82.3042C71.3862 82.3042 71.7845 82.4128 72.1026 82.6301C72.4238 82.8443 72.6742 83.145 72.8537 83.5324H72.9292C73.115 83.1576 73.3937 82.86 73.7653 82.6396C74.1369 82.416 74.5825 82.3042 75.1022 82.3042C75.7509 82.3042 76.2815 82.5073 76.694 82.9135C77.1066 83.3166 77.3129 83.9449 77.3129 84.7983V89.6543H76.1981V84.7983C76.1981 84.263 76.0516 83.8803 75.7588 83.6504C75.4659 83.4206 75.121 83.3056 74.7243 83.3056C74.2141 83.3056 73.8189 83.4599 73.5386 83.7685C73.2583 84.074 73.1182 84.4614 73.1182 84.9306V89.6543H71.9845V84.6849C71.9845 84.2724 71.8507 83.9402 71.583 83.6882C71.3153 83.4332 70.9705 83.3056 70.5485 83.3056C70.2588 83.3056 69.9879 83.3828 69.736 83.5371C69.4872 83.6914 69.2857 83.9055 69.1314 84.1795C68.9802 84.4503 68.9046 84.7637 68.9046 85.1195V89.6543H67.7898ZM82.2987 89.8055C81.6437 89.8055 81.069 89.6496 80.5746 89.3378C80.0833 89.026 79.6991 88.5899 79.422 88.0293C79.148 87.4688 79.011 86.8138 79.011 86.0643C79.011 85.3085 79.148 84.6487 79.422 84.085C79.6991 83.5213 80.0833 83.0836 80.5746 82.7718C81.069 82.4601 81.6437 82.3042 82.2987 82.3042C82.9538 82.3042 83.5269 82.4601 84.0182 82.7718C84.5126 83.0836 84.8968 83.5213 85.1708 84.085C85.4479 84.6487 85.5865 85.3085 85.5865 86.0643C85.5865 86.8138 85.4479 87.4688 85.1708 88.0293C84.8968 88.5899 84.5126 89.026 84.0182 89.3378C83.5269 89.6496 82.9538 89.8055 82.2987 89.8055ZM82.2987 88.804C82.7963 88.804 83.2057 88.6765 83.5269 88.4214C83.8481 88.1663 84.0859 87.8309 84.2402 87.4153C84.3945 86.9996 84.4717 86.5492 84.4717 86.0643C84.4717 85.5793 84.3945 85.1274 84.2402 84.7086C84.0859 84.2897 83.8481 83.9512 83.5269 83.693C83.2057 83.4347 82.7963 83.3056 82.2987 83.3056C81.8012 83.3056 81.3918 83.4347 81.0706 83.693C80.7494 83.9512 80.5116 84.2897 80.3573 84.7086C80.203 85.1274 80.1258 85.5793 80.1258 86.0643C80.1258 86.5492 80.203 86.9996 80.3573 87.4153C80.5116 87.8309 80.7494 88.1663 81.0706 88.4214C81.3918 88.6765 81.8012 88.804 82.2987 88.804Z" fill="white"/>
</g>
<g filter="url(#filter4_d_784_9087)">
<rect x="11.498" y="277.771" width="113" height="24.3137" rx="4" fill="#314562" shape-rendering="crispEdges"/>
<path d="M37.7078 291.905H38.9926L40.0696 293.322L40.3531 293.7L41.9591 295.835H40.6743L39.6162 294.418L39.3516 294.059L37.7078 291.905ZM42.3559 290.091C42.3559 291.111 42.1717 291.993 41.8033 292.736C41.4348 293.479 40.9294 294.052 40.2869 294.455C39.6445 294.858 38.9108 295.06 38.0857 295.06C37.2606 295.06 36.5269 294.858 35.8844 294.455C35.242 294.052 34.7366 293.479 34.3681 292.736C33.9997 291.993 33.8154 291.111 33.8154 290.091C33.8154 289.07 33.9997 288.189 34.3681 287.445C34.7366 286.702 35.242 286.129 35.8844 285.726C36.5269 285.323 37.2606 285.121 38.0857 285.121C38.9108 285.121 39.6445 285.323 40.2869 285.726C40.9294 286.129 41.4348 286.702 41.8033 287.445C42.1717 288.189 42.3559 289.07 42.3559 290.091ZM41.2222 290.091C41.2222 289.253 41.0821 288.546 40.8018 287.97C40.5247 287.393 40.1484 286.957 39.6729 286.661C39.2005 286.365 38.6714 286.217 38.0857 286.217C37.4999 286.217 36.9693 286.365 36.4938 286.661C36.0214 286.957 35.6451 287.393 35.3648 287.97C35.0877 288.546 34.9491 289.253 34.9491 290.091C34.9491 290.928 35.0877 291.635 35.3648 292.212C35.6451 292.788 36.0214 293.224 36.4938 293.52C36.9693 293.816 37.4999 293.964 38.0857 293.964C38.6714 293.964 39.2005 293.816 39.6729 293.52C40.1484 293.224 40.5247 292.788 40.8018 292.212C41.0821 291.635 41.2222 290.928 41.2222 290.091ZM48.7471 291.961V287.672H49.8619V294.928H48.7471V293.7H48.6715C48.5015 294.068 48.237 294.381 47.878 294.64C47.519 294.895 47.0655 295.022 46.5175 295.022C46.064 295.022 45.661 294.923 45.3083 294.725C44.9555 294.523 44.6784 294.221 44.4769 293.818C44.2753 293.411 44.1746 292.9 44.1746 292.282V287.672H45.2894V292.207C45.2894 292.736 45.4374 293.158 45.7334 293.473C46.0326 293.788 46.4136 293.945 46.8765 293.945C47.1537 293.945 47.4355 293.874 47.7221 293.733C48.0118 293.591 48.2543 293.374 48.4495 293.081C48.6479 292.788 48.7471 292.415 48.7471 291.961ZM54.9458 295.079C54.2467 295.079 53.6436 294.925 53.1366 294.616C52.6328 294.304 52.2439 293.87 51.9699 293.312C51.699 292.752 51.5636 292.1 51.5636 291.357C51.5636 290.613 51.699 289.958 51.9699 289.392C52.2439 288.822 52.6249 288.378 53.113 288.059C53.6043 287.738 54.1774 287.578 54.8325 287.578C55.2103 287.578 55.5835 287.641 55.952 287.767C56.3204 287.893 56.6558 288.097 56.9581 288.381C57.2604 288.661 57.5014 289.033 57.6809 289.495C57.8604 289.958 57.9501 290.528 57.9501 291.205V291.678H52.3572V290.714H56.8164C56.8164 290.305 56.7345 289.939 56.5708 289.618C56.4102 289.297 56.1803 289.044 55.8811 288.858C55.5851 288.672 55.2355 288.579 54.8325 288.579C54.3884 288.579 54.0042 288.689 53.6799 288.91C53.3586 289.127 53.1114 289.41 52.9382 289.76C52.765 290.11 52.6784 290.484 52.6784 290.884V291.527C52.6784 292.075 52.7729 292.539 52.9619 292.92C53.154 293.298 53.4201 293.586 53.7602 293.785C54.1003 293.98 54.4955 294.077 54.9458 294.077C55.2387 294.077 55.5032 294.037 55.7394 293.955C55.9787 293.87 56.185 293.744 56.3582 293.577C56.5314 293.407 56.6653 293.196 56.7597 292.944L57.8367 293.246C57.7234 293.611 57.5328 293.933 57.2652 294.21C56.9975 294.484 56.6668 294.698 56.2732 294.852C55.8795 295.003 55.4371 295.079 54.9458 295.079ZM64.7853 289.297L63.7839 289.58C63.7209 289.414 63.628 289.251 63.5052 289.094C63.3855 288.933 63.2218 288.801 63.0139 288.697C62.8061 288.593 62.54 288.541 62.2156 288.541C61.7716 288.541 61.4016 288.644 61.1055 288.848C60.8127 289.05 60.6662 289.307 60.6662 289.618C60.6662 289.895 60.767 290.114 60.9686 290.275C61.1701 290.435 61.485 290.569 61.9133 290.676L62.9903 290.941C63.639 291.098 64.1224 291.339 64.4405 291.664C64.7586 291.985 64.9176 292.399 64.9176 292.906C64.9176 293.322 64.7979 293.693 64.5586 294.021C64.3224 294.348 63.9917 294.607 63.5666 294.795C63.1415 294.984 62.6471 295.079 62.0834 295.079C61.3433 295.079 60.7308 294.918 60.2458 294.597C59.7609 294.276 59.4538 293.807 59.3247 293.189L60.3828 292.925C60.4836 293.315 60.6741 293.608 60.9544 293.803C61.2378 293.999 61.6078 294.096 62.0645 294.096C62.5841 294.096 62.9966 293.986 63.3021 293.766C63.6107 293.542 63.765 293.274 63.765 292.963C63.765 292.711 63.6768 292.5 63.5005 292.33C63.3241 292.156 63.0533 292.027 62.688 291.942L61.4787 291.659C60.8143 291.501 60.3261 291.257 60.0144 290.927C59.7058 290.593 59.5514 290.176 59.5514 289.675C59.5514 289.266 59.6664 288.903 59.8963 288.589C60.1293 288.274 60.4458 288.026 60.8457 287.847C61.2488 287.667 61.7055 287.578 62.2156 287.578C62.9336 287.578 63.4973 287.735 63.9067 288.05C64.3193 288.365 64.6121 288.781 64.7853 289.297ZM69.7511 287.672V288.617H65.9911V287.672H69.7511ZM67.087 285.934H68.2018V292.849C68.2018 293.164 68.2474 293.4 68.3387 293.558C68.4332 293.712 68.5529 293.816 68.6977 293.87C68.8458 293.92 69.0016 293.945 69.1654 293.945C69.2882 293.945 69.389 293.939 69.4677 293.926C69.5464 293.911 69.6094 293.898 69.6567 293.889L69.8834 294.89C69.8078 294.918 69.7023 294.947 69.5669 294.975C69.4315 295.006 69.2599 295.022 69.052 295.022C68.7371 295.022 68.4285 294.955 68.1262 294.819C67.827 294.684 67.5782 294.477 67.3798 294.2C67.1846 293.923 67.087 293.574 67.087 293.152V285.934ZM71.4281 294.928V287.672H72.5429V294.928H71.4281ZM71.9949 286.463C71.7776 286.463 71.5902 286.389 71.4328 286.241C71.2785 286.093 71.2013 285.915 71.2013 285.707C71.2013 285.499 71.2785 285.321 71.4328 285.173C71.5902 285.025 71.7776 284.951 71.9949 284.951C72.2122 284.951 72.398 285.025 72.5523 285.173C72.7098 285.321 72.7885 285.499 72.7885 285.707C72.7885 285.915 72.7098 286.093 72.5523 286.241C72.398 286.389 72.2122 286.463 71.9949 286.463ZM77.5323 295.079C76.8773 295.079 76.3025 294.923 75.8081 294.611C75.3169 294.299 74.9327 293.863 74.6555 293.303C74.3816 292.742 74.2446 292.087 74.2446 291.338C74.2446 290.582 74.3816 289.922 74.6555 289.358C74.9327 288.795 75.3169 288.357 75.8081 288.045C76.3025 287.734 76.8773 287.578 77.5323 287.578C78.1873 287.578 78.7604 287.734 79.2517 288.045C79.7461 288.357 80.1303 288.795 80.4043 289.358C80.6814 289.922 80.82 290.582 80.82 291.338C80.82 292.087 80.6814 292.742 80.4043 293.303C80.1303 293.863 79.7461 294.299 79.2517 294.611C78.7604 294.923 78.1873 295.079 77.5323 295.079ZM77.5323 294.077C78.0298 294.077 78.4392 293.95 78.7604 293.695C79.0817 293.44 79.3194 293.104 79.4737 292.689C79.628 292.273 79.7052 291.823 79.7052 291.338C79.7052 290.853 79.628 290.401 79.4737 289.982C79.3194 289.563 79.0817 289.225 78.7604 288.966C78.4392 288.708 78.0298 288.579 77.5323 288.579C77.0347 288.579 76.6253 288.708 76.3041 288.966C75.9829 289.225 75.7451 289.563 75.5908 289.982C75.4365 290.401 75.3594 290.853 75.3594 291.338C75.3594 291.823 75.4365 292.273 75.5908 292.689C75.7451 293.104 75.9829 293.44 76.3041 293.695C76.6253 293.95 77.0347 294.077 77.5323 294.077ZM83.6365 290.563V294.928H82.5217V287.672H83.5987V288.806H83.6932C83.8632 288.437 84.1215 288.141 84.4679 287.918C84.8143 287.691 85.2615 287.578 85.8094 287.578C86.3007 287.578 86.7305 287.678 87.099 287.88C87.4674 288.078 87.754 288.381 87.9587 288.787C88.1634 289.19 88.2658 289.7 88.2658 290.317V294.928H87.151V290.393C87.151 289.823 87.0029 289.379 86.7069 289.061C86.4109 288.74 86.0047 288.579 85.4882 288.579C85.1324 288.579 84.8143 288.656 84.534 288.811C84.2569 288.965 84.038 289.19 83.8774 289.486C83.7168 289.782 83.6365 290.141 83.6365 290.563ZM95.4423 289.297L94.4408 289.58C94.3779 289.414 94.285 289.251 94.1621 289.094C94.0425 288.933 93.8787 288.801 93.6709 288.697C93.463 288.593 93.1969 288.541 92.8726 288.541C92.4285 288.541 92.0585 288.644 91.7625 288.848C91.4696 289.05 91.3232 289.307 91.3232 289.618C91.3232 289.895 91.424 290.114 91.6255 290.275C91.827 290.435 92.142 290.569 92.5702 290.676L93.6473 290.941C94.296 291.098 94.7794 291.339 95.0974 291.664C95.4155 291.985 95.5745 292.399 95.5745 292.906C95.5745 293.322 95.4549 293.693 95.2155 294.021C94.9793 294.348 94.6487 294.607 94.2235 294.795C93.7984 294.984 93.304 295.079 92.7403 295.079C92.0002 295.079 91.3877 294.918 90.9028 294.597C90.4178 294.276 90.1108 293.807 89.9816 293.189L91.0398 292.925C91.1405 293.315 91.3311 293.608 91.6113 293.803C91.8948 293.999 92.2648 294.096 92.7214 294.096C93.241 294.096 93.6536 293.986 93.959 293.766C94.2676 293.542 94.4219 293.274 94.4219 292.963C94.4219 292.711 94.3338 292.5 94.1574 292.33C93.9811 292.156 93.7102 292.027 93.3449 291.942L92.1357 291.659C91.4712 291.501 90.9831 291.257 90.6713 290.927C90.3627 290.593 90.2084 290.176 90.2084 289.675C90.2084 289.266 90.3233 288.903 90.5532 288.589C90.7863 288.274 91.1027 288.026 91.5027 287.847C91.9058 287.667 92.3624 287.578 92.8726 287.578C93.5906 287.578 94.1543 287.735 94.5637 288.05C94.9762 288.365 95.2691 288.781 95.4423 289.297ZM98.7075 292.207V292.15C98.7138 291.549 98.7768 291.07 98.8965 290.714C99.0162 290.358 99.1862 290.07 99.4066 289.85C99.6271 289.629 99.8916 289.426 100.2 289.24C100.386 289.127 100.553 288.993 100.701 288.839C100.849 288.681 100.965 288.5 101.051 288.296C101.139 288.091 101.183 287.864 101.183 287.615C101.183 287.307 101.11 287.039 100.965 286.812C100.821 286.586 100.627 286.411 100.384 286.288C100.142 286.165 99.8727 286.104 99.5767 286.104C99.3185 286.104 99.0697 286.157 98.8304 286.264C98.591 286.372 98.391 286.54 98.2304 286.77C98.0698 287 97.9769 287.301 97.9517 287.672H96.7614C96.7866 287.137 96.9251 286.679 97.1771 286.297C97.4321 285.916 97.7675 285.625 98.1832 285.424C98.602 285.222 99.0665 285.121 99.5767 285.121C100.131 285.121 100.613 285.232 101.022 285.452C101.435 285.672 101.753 285.975 101.976 286.359C102.203 286.743 102.316 287.181 102.316 287.672C102.316 288.019 102.263 288.332 102.156 288.612C102.052 288.892 101.901 289.143 101.702 289.363C101.507 289.584 101.271 289.779 100.994 289.949C100.717 290.122 100.495 290.305 100.328 290.497C100.161 290.686 100.04 290.911 99.964 291.172C99.8885 291.434 99.8475 291.76 99.8412 292.15V292.207H98.7075ZM99.3122 295.003C99.0791 295.003 98.8792 294.92 98.7123 294.753C98.5454 294.586 98.4619 294.386 98.4619 294.153C98.4619 293.92 98.5454 293.72 98.7123 293.553C98.8792 293.386 99.0791 293.303 99.3122 293.303C99.5452 293.303 99.7452 293.386 99.9121 293.553C100.079 293.72 100.162 293.92 100.162 294.153C100.162 294.307 100.123 294.449 100.044 294.578C99.9688 294.707 99.8664 294.811 99.7373 294.89C99.6113 294.966 99.4696 295.003 99.3122 295.003Z" fill="white"/>
</g>
<g filter="url(#filter5_d_784_9087)">
<rect x="238.389" y="72.498" width="108.486" height="24.3137" rx="4" fill="#314562" shape-rendering="crispEdges"/>
<path d="M277.982 89.6543V79.9801H283.783V81.0193H279.154V84.2882H283.348V85.3274H279.154V89.6543H277.982ZM285.56 89.6543V82.3987H286.637V83.4946H286.713C286.845 83.1356 287.084 82.8443 287.431 82.6207C287.777 82.3971 288.168 82.2853 288.602 82.2853C288.684 82.2853 288.787 82.2869 288.909 82.29C289.032 82.2932 289.125 82.2979 289.188 82.3042V83.4379C289.15 83.4284 289.064 83.4143 288.928 83.3954C288.796 83.3733 288.656 83.3623 288.508 83.3623C288.155 83.3623 287.84 83.4363 287.563 83.5843C287.289 83.7292 287.072 83.9307 286.911 84.189C286.754 84.444 286.675 84.7353 286.675 85.0628V89.6543H285.56ZM293.331 89.8055C292.632 89.8055 292.029 89.6511 291.522 89.3425C291.018 89.0308 290.629 88.5962 290.355 88.0388C290.084 87.4782 289.949 86.8264 289.949 86.0832C289.949 85.34 290.084 84.6849 290.355 84.1181C290.629 83.5481 291.01 83.1041 291.498 82.786C291.989 82.4648 292.562 82.3042 293.217 82.3042C293.595 82.3042 293.968 82.3672 294.337 82.4931C294.705 82.6191 295.041 82.8238 295.343 83.1072C295.645 83.3875 295.886 83.7591 296.066 84.222C296.245 84.6849 296.335 85.2549 296.335 85.932V86.4044H290.742V85.4407H295.201C295.201 85.0314 295.119 84.666 294.956 84.3448C294.795 84.0236 294.565 83.7701 294.266 83.5843C293.97 83.3985 293.62 83.3056 293.217 83.3056C292.773 83.3056 292.389 83.4158 292.065 83.6363C291.744 83.8536 291.496 84.137 291.323 84.4865C291.15 84.8361 291.063 85.2109 291.063 85.6108V86.2532C291.063 86.8012 291.158 87.2657 291.347 87.6467C291.539 88.0246 291.805 88.3128 292.145 88.5112C292.485 88.7064 292.88 88.804 293.331 88.804C293.624 88.804 293.888 88.7631 294.124 88.6812C294.364 88.5962 294.57 88.4702 294.743 88.3033C294.916 88.1333 295.05 87.9223 295.145 87.6703L296.222 87.9727C296.108 88.338 295.918 88.6592 295.65 88.9363C295.382 89.2103 295.052 89.4244 294.658 89.5787C294.264 89.7299 293.822 89.8055 293.331 89.8055ZM301.073 89.8055C300.374 89.8055 299.771 89.6511 299.264 89.3425C298.76 89.0308 298.371 88.5962 298.097 88.0388C297.826 87.4782 297.691 86.8264 297.691 86.0832C297.691 85.34 297.826 84.6849 298.097 84.1181C298.371 83.5481 298.752 83.1041 299.24 82.786C299.731 82.4648 300.305 82.3042 300.96 82.3042C301.337 82.3042 301.711 82.3672 302.079 82.4931C302.448 82.6191 302.783 82.8238 303.085 83.1072C303.388 83.3875 303.628 83.7591 303.808 84.222C303.987 84.6849 304.077 85.2549 304.077 85.932V86.4044H298.484V85.4407H302.944C302.944 85.0314 302.862 84.666 302.698 84.3448C302.537 84.0236 302.307 83.7701 302.008 83.5843C301.712 83.3985 301.363 83.3056 300.96 83.3056C300.516 83.3056 300.131 83.4158 299.807 83.6363C299.486 83.8536 299.239 84.137 299.065 84.4865C298.892 84.8361 298.806 85.2109 298.806 85.6108V86.2532C298.806 86.8012 298.9 87.2657 299.089 87.6467C299.281 88.0246 299.547 88.3128 299.887 88.5112C300.227 88.7064 300.623 88.804 301.073 88.804C301.366 88.804 301.63 88.7631 301.867 88.6812C302.106 88.5962 302.312 88.4702 302.485 88.3033C302.659 88.1333 302.792 87.9223 302.887 87.6703L303.964 87.9727C303.85 88.338 303.66 88.6592 303.392 88.9363C303.125 89.2103 302.794 89.4244 302.4 89.5787C302.007 89.7299 301.564 89.8055 301.073 89.8055ZM307.247 79.9801L307.152 86.9334H306.056L305.962 79.9801H307.247ZM306.604 89.7299C306.371 89.7299 306.171 89.6464 306.004 89.4795C305.838 89.3126 305.754 89.1126 305.754 88.8796C305.754 88.6466 305.838 88.4466 306.004 88.2797C306.171 88.1128 306.371 88.0293 306.604 88.0293C306.837 88.0293 307.037 88.1128 307.204 88.2797C307.371 88.4466 307.455 88.6466 307.455 88.8796C307.455 89.0339 307.415 89.1756 307.337 89.3047C307.261 89.4339 307.159 89.5378 307.03 89.6165C306.904 89.6921 306.762 89.7299 306.604 89.7299Z" fill="white"/>
</g>
<g filter="url(#filter6_d_784_9087)">
<rect x="238.498" y="277.771" width="108" height="24.3137" rx="4" fill="#314562" shape-rendering="crispEdges"/>
<path d="M263.863 294.928V285.254H267.246C267.92 285.254 268.475 285.37 268.913 285.603C269.351 285.833 269.677 286.143 269.891 286.534C270.105 286.921 270.212 287.351 270.212 287.823C270.212 288.239 270.138 288.582 269.99 288.853C269.845 289.124 269.653 289.338 269.414 289.495C269.178 289.653 268.921 289.769 268.644 289.845V289.939C268.94 289.958 269.237 290.062 269.537 290.251C269.836 290.44 270.086 290.711 270.288 291.064C270.489 291.416 270.59 291.848 270.59 292.358C270.59 292.843 270.48 293.279 270.259 293.667C270.039 294.054 269.691 294.361 269.215 294.588C268.74 294.814 268.121 294.928 267.359 294.928H263.863ZM265.035 293.889H267.359C268.124 293.889 268.667 293.741 268.989 293.444C269.313 293.145 269.475 292.783 269.475 292.358C269.475 292.031 269.392 291.728 269.225 291.451C269.058 291.171 268.82 290.947 268.512 290.78C268.203 290.61 267.838 290.525 267.416 290.525H265.035V293.889ZM265.035 289.505H267.208C267.561 289.505 267.879 289.436 268.162 289.297C268.449 289.158 268.675 288.963 268.842 288.711C269.012 288.459 269.097 288.163 269.097 287.823C269.097 287.398 268.949 287.038 268.653 286.742C268.357 286.442 267.888 286.293 267.246 286.293H265.035V289.505ZM275.406 295.079C274.707 295.079 274.104 294.925 273.597 294.616C273.093 294.304 272.704 293.87 272.43 293.312C272.159 292.752 272.024 292.1 272.024 291.357C272.024 290.613 272.159 289.958 272.43 289.392C272.704 288.822 273.085 288.378 273.573 288.059C274.064 287.738 274.637 287.578 275.292 287.578C275.67 287.578 276.044 287.641 276.412 287.767C276.78 287.893 277.116 288.097 277.418 288.381C277.72 288.661 277.961 289.033 278.141 289.495C278.32 289.958 278.41 290.528 278.41 291.205V291.678H272.817V290.714H277.276C277.276 290.305 277.195 289.939 277.031 289.618C276.87 289.297 276.64 289.044 276.341 288.858C276.045 288.672 275.696 288.579 275.292 288.579C274.848 288.579 274.464 288.689 274.14 288.91C273.819 289.127 273.571 289.41 273.398 289.76C273.225 290.11 273.138 290.484 273.138 290.884V291.527C273.138 292.075 273.233 292.539 273.422 292.92C273.614 293.298 273.88 293.586 274.22 293.785C274.56 293.98 274.956 294.077 275.406 294.077C275.699 294.077 275.963 294.037 276.199 293.955C276.439 293.87 276.645 293.744 276.818 293.577C276.991 293.407 277.125 293.196 277.22 292.944L278.297 293.246C278.183 293.611 277.993 293.933 277.725 294.21C277.458 294.484 277.127 294.698 276.733 294.852C276.34 295.003 275.897 295.079 275.406 295.079ZM283.035 297.8C282.496 297.8 282.033 297.73 281.646 297.592C281.259 297.456 280.936 297.277 280.678 297.053C280.422 296.833 280.219 296.597 280.068 296.345L280.956 295.721C281.057 295.854 281.185 296.005 281.339 296.175C281.493 296.348 281.704 296.498 281.972 296.624C282.243 296.753 282.597 296.817 283.035 296.817C283.62 296.817 284.104 296.676 284.485 296.392C284.866 296.109 285.056 295.665 285.056 295.06V293.586H284.962C284.88 293.718 284.764 293.882 284.612 294.077C284.464 294.27 284.25 294.441 283.97 294.592C283.693 294.74 283.318 294.814 282.846 294.814C282.26 294.814 281.734 294.676 281.268 294.399C280.805 294.122 280.438 293.718 280.167 293.189C279.9 292.66 279.766 292.018 279.766 291.262C279.766 290.519 279.897 289.872 280.158 289.321C280.419 288.766 280.783 288.338 281.249 288.036C281.715 287.73 282.254 287.578 282.865 287.578C283.337 287.578 283.712 287.656 283.989 287.814C284.269 287.968 284.483 288.144 284.631 288.343C284.782 288.538 284.899 288.699 284.981 288.825H285.094V287.672H286.171V295.136C286.171 295.759 286.03 296.266 285.746 296.657C285.466 297.05 285.088 297.338 284.612 297.521C284.14 297.707 283.614 297.8 283.035 297.8ZM282.997 293.813C283.444 293.813 283.822 293.711 284.131 293.506C284.439 293.301 284.674 293.007 284.834 292.623C284.995 292.238 285.075 291.779 285.075 291.243C285.075 290.72 284.997 290.259 284.839 289.859C284.682 289.459 284.449 289.146 284.14 288.919C283.831 288.692 283.45 288.579 282.997 288.579C282.525 288.579 282.131 288.699 281.816 288.938C281.504 289.177 281.27 289.499 281.112 289.902C280.958 290.305 280.881 290.752 280.881 291.243C280.881 291.747 280.959 292.193 281.117 292.58C281.277 292.964 281.514 293.267 281.825 293.487C282.14 293.704 282.531 293.813 282.997 293.813ZM288.212 294.928V287.672H289.327V294.928H288.212ZM288.779 286.463C288.561 286.463 288.374 286.389 288.217 286.241C288.062 286.093 287.985 285.915 287.985 285.707C287.985 285.499 288.062 285.321 288.217 285.173C288.374 285.025 288.561 284.951 288.779 284.951C288.996 284.951 289.182 285.025 289.336 285.173C289.494 285.321 289.572 285.499 289.572 285.707C289.572 285.915 289.494 286.093 289.336 286.241C289.182 286.389 288.996 286.463 288.779 286.463ZM292.483 290.563V294.928H291.368V287.672H292.445V288.806H292.54C292.71 288.437 292.968 288.141 293.315 287.918C293.661 287.691 294.108 287.578 294.656 287.578C295.147 287.578 295.577 287.678 295.946 287.88C296.314 288.078 296.601 288.381 296.805 288.787C297.01 289.19 297.113 289.7 297.113 290.317V294.928H295.998V290.393C295.998 289.823 295.85 289.379 295.554 289.061C295.258 288.74 294.851 288.579 294.335 288.579C293.979 288.579 293.661 288.656 293.381 288.811C293.104 288.965 292.885 289.19 292.724 289.486C292.564 289.782 292.483 290.141 292.483 290.563ZM300.264 290.563V294.928H299.15V287.672H300.227V288.806H300.321C300.491 288.437 300.749 288.141 301.096 287.918C301.442 287.691 301.889 287.578 302.437 287.578C302.929 287.578 303.358 287.678 303.727 287.88C304.095 288.078 304.382 288.381 304.587 288.787C304.791 289.19 304.894 289.7 304.894 290.317V294.928H303.779V290.393C303.779 289.823 303.631 289.379 303.335 289.061C303.039 288.74 302.633 288.579 302.116 288.579C301.76 288.579 301.442 288.656 301.162 288.811C300.885 288.965 300.666 289.19 300.505 289.486C300.345 289.782 300.264 290.141 300.264 290.563ZM309.973 295.079C309.274 295.079 308.671 294.925 308.164 294.616C307.66 294.304 307.271 293.87 306.997 293.312C306.726 292.752 306.591 292.1 306.591 291.357C306.591 290.613 306.726 289.958 306.997 289.392C307.271 288.822 307.652 288.378 308.14 288.059C308.631 287.738 309.204 287.578 309.859 287.578C310.237 287.578 310.611 287.641 310.979 287.767C311.347 287.893 311.683 288.097 311.985 288.381C312.287 288.661 312.528 289.033 312.708 289.495C312.887 289.958 312.977 290.528 312.977 291.205V291.678H307.384V290.714H311.843C311.843 290.305 311.762 289.939 311.598 289.618C311.437 289.297 311.207 289.044 310.908 288.858C310.612 288.672 310.263 288.579 309.859 288.579C309.415 288.579 309.031 288.689 308.707 288.91C308.386 289.127 308.138 289.41 307.965 289.76C307.792 290.11 307.705 290.484 307.705 290.884V291.527C307.705 292.075 307.8 292.539 307.989 292.92C308.181 293.298 308.447 293.586 308.787 293.785C309.127 293.98 309.523 294.077 309.973 294.077C310.266 294.077 310.53 294.037 310.766 293.955C311.006 293.87 311.212 293.744 311.385 293.577C311.558 293.407 311.692 293.196 311.787 292.944L312.864 293.246C312.75 293.611 312.56 293.933 312.292 294.21C312.025 294.484 311.694 294.698 311.3 294.852C310.907 295.003 310.464 295.079 309.973 295.079ZM314.673 294.928V287.672H315.75V288.768H315.826C315.958 288.409 316.197 288.118 316.544 287.894C316.89 287.671 317.28 287.559 317.715 287.559C317.797 287.559 317.899 287.56 318.022 287.563C318.145 287.567 318.238 287.571 318.301 287.578V288.711C318.263 288.702 318.176 288.688 318.041 288.669C317.909 288.647 317.769 288.636 317.621 288.636C317.268 288.636 316.953 288.71 316.676 288.858C316.402 289.003 316.185 289.204 316.024 289.462C315.866 289.717 315.788 290.009 315.788 290.336V294.928H314.673ZM321.096 285.254L321.002 292.207H319.906L319.811 285.254H321.096ZM320.454 295.003C320.221 295.003 320.021 294.92 319.854 294.753C319.687 294.586 319.603 294.386 319.603 294.153C319.603 293.92 319.687 293.72 319.854 293.553C320.021 293.386 320.221 293.303 320.454 293.303C320.687 293.303 320.887 293.386 321.054 293.553C321.22 293.72 321.304 293.92 321.304 294.153C321.304 294.307 321.265 294.449 321.186 294.578C321.11 294.707 321.008 294.811 320.879 294.89C320.753 294.966 320.611 295.003 320.454 295.003Z" fill="white"/>
</g>
<g filter="url(#filter7_b_784_9087)">
<rect x="137.555" y="291.848" width="82.8906" height="110.928" rx="7" fill="url(#paint0_linear_784_9087)" fill-opacity="0.8"/>
</g>
<path d="M207.857 381.243L208.246 379.032C208.31 378.721 208.237 378.401 208.047 378.146C207.87 377.909 207.611 377.749 207.317 377.706L205.106 377.365L204.086 375.331V375.326C203.935 375.076 203.689 374.899 203.404 374.83C203.115 374.739 202.804 374.765 202.54 374.907L200.528 375.935L198.515 374.83C198.239 374.713 197.928 374.713 197.651 374.83C197.371 374.925 197.142 375.128 197.012 375.395L195.993 377.43L193.782 377.771C193.492 377.814 193.229 377.974 193.052 378.211C192.879 378.453 192.806 378.751 192.853 379.04L193.242 381.252L191.571 382.832C191.359 383.044 191.238 383.329 191.242 383.631C191.242 383.925 191.363 384.21 191.571 384.417L193.194 386.011L192.806 388.222L192.81 388.218C192.758 388.516 192.832 388.818 193.009 389.06C193.186 389.298 193.445 389.457 193.739 389.501L195.95 389.833L196.969 391.867C197.099 392.135 197.328 392.338 197.608 392.433C197.893 392.519 198.204 392.498 198.472 392.364L200.485 391.258L202.497 392.364C202.761 392.502 203.072 392.528 203.357 392.433C203.637 392.338 203.871 392.135 204 391.867L205.019 389.833L207.231 389.501H207.226C207.52 389.457 207.783 389.298 207.956 389.06C208.133 388.818 208.207 388.516 208.155 388.218L207.766 386.007L209.39 384.413L209.394 384.417C209.606 384.21 209.727 383.925 209.727 383.631C209.727 383.329 209.61 383.044 209.394 382.832L207.857 381.243ZM205.9 384.836C205.641 385.087 205.52 385.45 205.581 385.808L205.87 387.51L204.169 387.765H204.164C203.81 387.816 203.499 388.041 203.335 388.361L202.571 389.907L201.081 389.116C200.765 388.935 200.381 388.935 200.061 389.116L198.524 389.911L197.764 388.361C197.6 388.041 197.293 387.816 196.934 387.765L195.233 387.51L195.522 385.808H195.518C195.578 385.45 195.457 385.087 195.198 384.836L193.916 383.675L195.155 382.457C195.414 382.206 195.535 381.843 195.475 381.485L195.185 379.783L196.887 379.541H196.891C197.25 379.485 197.561 379.256 197.72 378.932L198.485 377.386L199.975 378.146C200.316 378.345 200.739 378.345 201.081 378.146L202.618 377.339L203.382 378.885L203.378 378.889C203.538 379.213 203.849 379.442 204.207 379.494L205.909 379.736L205.581 381.463C205.52 381.822 205.641 382.184 205.9 382.435L207.14 383.674L205.9 384.836Z" fill="#23D3AC"/>
<path d="M202.583 381.045L199.754 383.874L198.472 382.569C198.04 382.142 197.344 382.142 196.912 382.569C196.485 383.001 196.485 383.697 196.912 384.129L198.968 386.197C199.176 386.405 199.461 386.521 199.754 386.521C200.048 386.521 200.329 386.405 200.54 386.197L204.142 382.569C204.57 382.138 204.57 381.442 204.142 381.01C203.702 380.591 203.007 380.604 202.583 381.045Z" fill="#23D3AC"/>
<rect x="144.963" y="330.252" width="64.2451" height="2.71777" fill="white" fill-opacity="0.55"/>
<rect x="144.963" y="337.584" width="64.2451" height="2.71777" fill="white" fill-opacity="0.55"/>
<rect x="144.963" y="344.914" width="64.2451" height="2.71777" fill="white" fill-opacity="0.55"/>
<rect x="144.963" y="352.246" width="64.2451" height="2.71777" fill="white" fill-opacity="0.55"/>
<rect x="144.963" y="359.578" width="35.8281" height="2.71777" fill="white" fill-opacity="0.55"/>
<rect x="144.963" y="366.91" width="35.8281" height="2.71777" fill="white" fill-opacity="0.55"/>
<path d="M144.963 320.781C144.963 317.004 148.025 313.941 151.803 313.941H152.539C156.316 313.941 159.379 317.004 159.379 320.781C159.379 321.008 159.195 321.192 158.969 321.192H145.373C145.147 321.192 144.963 321.008 144.963 320.781Z" fill="white" fill-opacity="0.55"/>
<rect x="147.633" y="303.738" width="8.86872" height="8.86872" rx="4.43436" fill="white" fill-opacity="0.55"/>
<circle cx="191.29" cy="335.077" r="10.0672" fill="#F38042"/>
<path d="M197.155 333.67C197.052 333.375 196.784 333.185 196.472 333.185H193.348L191.965 329.637C191.856 329.354 191.597 329.176 191.292 329.176C190.987 329.176 190.729 329.351 190.619 329.637L189.237 333.185H186.11C185.798 333.185 185.532 333.375 185.427 333.67C185.323 333.965 185.415 334.28 185.659 334.473L188.4 336.65L187.188 340.008C187.081 340.306 187.171 340.625 187.422 340.82C187.671 341.015 188.003 341.03 188.268 340.854L191.292 338.845L194.319 340.854C194.443 340.937 194.582 340.976 194.719 340.976C194.875 340.976 195.031 340.923 195.162 340.82C195.411 340.625 195.504 340.306 195.397 340.008L194.182 336.65L196.923 334.473C197.167 334.28 197.257 333.963 197.155 333.67Z" fill="white"/>
<rect x="186.016" y="323.727" width="10.5504" height="1.28242" fill="#1C44A7"/>
<path fill-rule="evenodd" clip-rule="evenodd" d="M169.115 291.848L187.048 322.907H195.537L213.469 291.848H206.145L191.292 317.573L176.44 291.848H169.115Z" fill="#1C44A7"/>
<defs>
<filter id="filter0_d_784_9087" x="139.152" y="55.9219" width="79.6992" height="81.4648" filterUnits="userSpaceOnUse" color-interpolation-filters="sRGB">
<feFlood flood-opacity="0" result="BackgroundImageFix"/>
<feColorMatrix in="SourceAlpha" type="matrix" values="0 0 0 0 0 0 0 0 0 0 0 0 0 0 0 0 0 0 127 0" result="hardAlpha"/>
<feOffset dy="13"/>
<feGaussianBlur stdDeviation="5.5"/>
<feComposite in2="hardAlpha" operator="out"/>
<feColorMatrix type="matrix" values="0 0 0 0 0.242222 0 0 0 0 0.36515 0 0 0 0 0.454167 0 0 0 0.25 0"/>
<feBlend mode="normal" in2="BackgroundImageFix" result="effect1_dropShadow_784_9087"/>
<feBlend mode="normal" in="SourceGraphic" in2="effect1_dropShadow_784_9087" result="shape"/>
</filter>
<filter id="filter1_d_784_9087" x="139.152" y="195.877" width="79.6992" height="81.4648" filterUnits="userSpaceOnUse" color-interpolation-filters="sRGB">
<feFlood flood-opacity="0" result="BackgroundImageFix"/>
<feColorMatrix in="SourceAlpha" type="matrix" values="0 0 0 0 0 0 0 0 0 0 0 0 0 0 0 0 0 0 127 0" result="hardAlpha"/>
<feOffset dy="13"/>
<feGaussianBlur stdDeviation="5.5"/>
<feComposite in2="hardAlpha" operator="out"/>
<feColorMatrix type="matrix" values="0 0 0 0 0.242222 0 0 0 0 0.36515 0 0 0 0 0.454167 0 0 0 0.25 0"/>
<feBlend mode="normal" in2="BackgroundImageFix" result="effect1_dropShadow_784_9087"/>
<feBlend mode="normal" in="SourceGraphic" in2="effect1_dropShadow_784_9087" result="shape"/>
</filter>
<filter id="filter2_d_784_9087" x="115.258" y="0.544922" width="134.486" height="46.3145" filterUnits="userSpaceOnUse" color-interpolation-filters="sRGB">
<feFlood flood-opacity="0" result="BackgroundImageFix"/>
<feColorMatrix in="SourceAlpha" type="matrix" values="0 0 0 0 0 0 0 0 0 0 0 0 0 0 0 0 0 0 127 0" result="hardAlpha"/>
<feOffset dy="8"/>
<feGaussianBlur stdDeviation="5.5"/>
<feComposite in2="hardAlpha" operator="out"/>
<feColorMatrix type="matrix" values="0 0 0 0 0.192157 0 0 0 0 0.270588 0 0 0 0 0.384314 0 0 0 0.22 0"/>
<feBlend mode="normal" in2="BackgroundImageFix" result="effect1_dropShadow_784_9087"/>
<feBlend mode="normal" in="SourceGraphic" in2="effect1_dropShadow_784_9087" result="shape"/>
</filter>
<filter id="filter3_d_784_9087" x="0.123047" y="69.498" width="135.486" height="46.3145" filterUnits="userSpaceOnUse" color-interpolation-filters="sRGB">
<feFlood flood-opacity="0" result="BackgroundImageFix"/>
<feColorMatrix in="SourceAlpha" type="matrix" values="0 0 0 0 0 0 0 0 0 0 0 0 0 0 0 0 0 0 127 0" result="hardAlpha"/>
<feOffset dy="8"/>
<feGaussianBlur stdDeviation="5.5"/>
<feComposite in2="hardAlpha" operator="out"/>
<feColorMatrix type="matrix" values="0 0 0 0 0.192157 0 0 0 0 0.270588 0 0 0 0 0.384314 0 0 0 0.22 0"/>
<feBlend mode="normal" in2="BackgroundImageFix" result="effect1_dropShadow_784_9087"/>
<feBlend mode="normal" in="SourceGraphic" in2="effect1_dropShadow_784_9087" result="shape"/>
</filter>
<filter id="filter4_d_784_9087" x="0.498047" y="274.771" width="135" height="46.3145" filterUnits="userSpaceOnUse" color-interpolation-filters="sRGB">
<feFlood flood-opacity="0" result="BackgroundImageFix"/>
<feColorMatrix in="SourceAlpha" type="matrix" values="0 0 0 0 0 0 0 0 0 0 0 0 0 0 0 0 0 0 127 0" result="hardAlpha"/>
<feOffset dy="8"/>
<feGaussianBlur stdDeviation="5.5"/>
<feComposite in2="hardAlpha" operator="out"/>
<feColorMatrix type="matrix" values="0 0 0 0 0.192157 0 0 0 0 0.270588 0 0 0 0 0.384314 0 0 0 0.22 0"/>
<feBlend mode="normal" in2="BackgroundImageFix" result="effect1_dropShadow_784_9087"/>
<feBlend mode="normal" in="SourceGraphic" in2="effect1_dropShadow_784_9087" result="shape"/>
</filter>
<filter id="filter5_d_784_9087" x="227.389" y="69.498" width="130.486" height="46.3145" filterUnits="userSpaceOnUse" color-interpolation-filters="sRGB">
<feFlood flood-opacity="0" result="BackgroundImageFix"/>
<feColorMatrix in="SourceAlpha" type="matrix" values="0 0 0 0 0 0 0 0 0 0 0 0 0 0 0 0 0 0 127 0" result="hardAlpha"/>
<feOffset dy="8"/>
<feGaussianBlur stdDeviation="5.5"/>
<feComposite in2="hardAlpha" operator="out"/>
<feColorMatrix type="matrix" values="0 0 0 0 0.192157 0 0 0 0 0.270588 0 0 0 0 0.384314 0 0 0 0.22 0"/>
<feBlend mode="normal" in2="BackgroundImageFix" result="effect1_dropShadow_784_9087"/>
<feBlend mode="normal" in="SourceGraphic" in2="effect1_dropShadow_784_9087" result="shape"/>
</filter>
<filter id="filter6_d_784_9087" x="227.498" y="274.771" width="130" height="46.3145" filterUnits="userSpaceOnUse" color-interpolation-filters="sRGB">
<feFlood flood-opacity="0" result="BackgroundImageFix"/>
<feColorMatrix in="SourceAlpha" type="matrix" values="0 0 0 0 0 0 0 0 0 0 0 0 0 0 0 0 0 0 127 0" result="hardAlpha"/>
<feOffset dy="8"/>
<feGaussianBlur stdDeviation="5.5"/>
<feComposite in2="hardAlpha" operator="out"/>
<feColorMatrix type="matrix" values="0 0 0 0 0.192157 0 0 0 0 0.270588 0 0 0 0 0.384314 0 0 0 0.22 0"/>
<feBlend mode="normal" in2="BackgroundImageFix" result="effect1_dropShadow_784_9087"/>
<feBlend mode="normal" in="SourceGraphic" in2="effect1_dropShadow_784_9087" result="shape"/>
</filter>
<filter id="filter7_b_784_9087" x="103.555" y="257.848" width="150.891" height="178.928" filterUnits="userSpaceOnUse" color-interpolation-filters="sRGB">
<feFlood flood-opacity="0" result="BackgroundImageFix"/>
<feGaussianBlur in="BackgroundImageFix" stdDeviation="17"/>
<feComposite in2="SourceAlpha" operator="in" result="effect1_backgroundBlur_784_9087"/>
<feBlend mode="normal" in="SourceGraphic" in2="effect1_backgroundBlur_784_9087" result="shape"/>
</filter>
<linearGradient id="paint0_linear_784_9087" x1="179" y1="291.848" x2="179" y2="402.775" gradientUnits="userSpaceOnUse">
<stop stop-color="#64C5F1"/>
<stop offset="1" stop-color="#D9E2FF" stop-opacity="0.36"/>
</linearGradient>
</defs>
</svg>
