<svg width="1440" height="583" viewBox="0 0 1440 583" fill="none" xmlns="http://www.w3.org/2000/svg">
<g clip-path="url(#clip0_472_5850)">
<rect width="1440" height="582" transform="translate(0 0.582031)" fill="white"/>
<rect opacity="0.8" x="145.889" y="304.895" width="55.5229" height="104.105" rx="7" fill="#D9D9D9" fill-opacity="0.33"/>
<g filter="url(#filter0_f_472_5850)">
<rect x="-72.7578" y="-7.16406" width="1585.94" height="481.695" fill="#143D95"/>
</g>
<rect opacity="0.8" x="127.727" y="280.324" width="55.5229" height="104.105" rx="7" fill="white" fill-opacity="0.12"/>
<path d="M1138.94 260.898V306.418L1127.16 262.44C1130.92 261.433 1134.87 260.898 1138.94 260.898ZM1106.76 274.231L1138.94 306.418L1116.18 266.99C1112.73 268.988 1109.56 271.429 1106.76 274.231ZM1094.97 294.635L1138.94 306.418L1099.52 283.656C1097.55 287.061 1096 290.743 1094.97 294.635ZM1094.97 318.202L1138.94 306.418H1093.42C1093.42 310.493 1093.96 314.444 1094.97 318.202ZM1106.76 338.605L1138.94 306.418L1099.52 329.18C1101.51 332.636 1103.95 335.803 1106.76 338.605ZM1127.16 350.397L1138.94 306.418L1116.18 345.846C1119.58 347.816 1123.27 349.358 1127.16 350.397ZM1150.73 350.397L1138.94 306.418V351.938C1143.02 351.938 1146.97 351.403 1150.73 350.397ZM1171.13 338.605L1138.94 306.418L1161.71 345.846C1165.16 343.849 1168.33 341.407 1171.13 338.605ZM1178.37 329.18C1180.34 325.776 1181.88 322.094 1182.92 318.202L1138.94 306.418L1178.37 329.18ZM1182.92 294.639L1138.94 306.418H1184.46C1184.46 302.344 1183.93 298.396 1182.92 294.639ZM1171.13 274.231L1138.94 306.418L1178.37 283.656C1176.37 280.2 1173.93 277.034 1171.13 274.231ZM1150.73 262.44L1138.94 306.418L1161.71 266.99C1158.31 265.02 1154.62 263.479 1150.73 262.44Z" fill="url(#paint0_radial_472_5850)"/>
<rect x="1324.71" y="118.367" width="64.1251" height="87.3171" rx="3" fill="#D9D9D9" fill-opacity="0.04"/>
<g filter="url(#filter1_f_472_5850)">
<rect x="1197.64" y="-280.045" width="525.58" height="457.31" rx="228.655" transform="rotate(15 1197.64 -280.045)" fill="#23FFBD" fill-opacity="0.52"/>
</g>
<g opacity="0.1">
<g clip-path="url(#clip1_472_5850)">
<g style="mix-blend-mode:multiply">
<path d="M476.312 187.261C801.269 223.154 1010.71 326.058 1256.07 335.729C1380.93 340.649 1513.18 321.998 1607.66 259.835C1627.18 247.011 1656.4 267.812 1636.84 280.707C1553.09 335.801 1442.45 360.996 1330.31 365.318C967.648 379.336 726.517 186.52 149.19 202.998C20.3761 206.676 -117.993 223.823 -217.387 287.227C-237.149 299.836 -266.397 279.036 -246.566 266.355C-237.768 266.355 -84.483 125.313 476.278 187.261H476.312Z" fill="url(#paint1_radial_472_5850)"/>
</g>
<g style="mix-blend-mode:multiply">
<path d="M67.874 180.622C501.058 106.209 840.45 379.957 1281.13 271.012C1397.81 242.164 1513.08 185.231 1589.17 113.349C1644.61 61.0017 1721.8 121.516 1687.09 154.305C1531.23 301.508 1276.73 390.083 1017.21 377.784C707.717 363.097 435.929 228.933 150.806 251.812C47.459 260.098 -71.0446 297.257 -131.602 367.826C-147.137 385.904 -183.052 394.429 -209.207 382.369C-234.571 370.668 -246.153 346.213 -229.553 326.87C-226.632 326.87 -154.286 218.784 67.874 180.622Z" fill="url(#paint2_radial_472_5850)"/>
</g>
<g style="mix-blend-mode:multiply">
<path d="M41.8569 185.804C469.851 97.3726 826.29 359.802 1259.58 236.623C1374.3 204.002 1485.83 143.368 1557.28 69.1213C1609.31 15.0067 1690.29 72.9661 1657.7 106.853C1511.36 258.976 1262.77 355.742 1002.74 351.873C692.63 347.264 412.593 222.08 129.222 254.224C26.494 265.878 -89.5005 306.857 -145.522 379.313C-159.888 397.868 -195.219 407.564 -222.095 396.364C-248.181 385.498 -261.31 361.45 -245.947 341.581C-243.026 341.485 -177.656 231.178 41.8913 185.804H41.8569Z" fill="url(#paint3_radial_472_5850)"/>
</g>
<g style="mix-blend-mode:multiply">
<path d="M466.723 170.568C591.653 199.488 702.596 251 818.59 293.747C1104.02 398.943 1379.9 390.107 1612.34 301.341C1624.06 296.875 1634.47 309.604 1622.75 314.07C1399.11 399.469 1127.94 407.134 895.061 335.993C664.653 265.615 498.273 145.851 173.11 158.628C33.8826 164.097 -102.493 195.357 -219.45 249.758C-230.619 254.94 -240.964 242.188 -229.863 237.029C-222.646 237.029 66.5328 77.9576 466.688 170.568H466.723Z" fill="url(#paint4_radial_472_5850)"/>
</g>
<g style="mix-blend-mode:multiply">
<path d="M439.881 131.33C796.938 187.69 1027.14 349.221 1296.73 364.386C1433.93 372.1 1579.24 342.821 1683.1 245.243C1704.55 225.088 1736.68 257.757 1715.13 277.984C1623.09 364.458 1501.5 404.005 1378.32 410.811C979.78 432.805 714.831 130.136 80.4182 156C-61.1467 161.779 -213.194 188.693 -322.384 288.205C-344.105 307.979 -376.24 275.357 -354.415 255.464C-344.723 255.464 -176.282 34.0628 439.881 131.33Z" fill="url(#paint5_radial_472_5850)"/>
</g>
<g style="mix-blend-mode:multiply">
<path d="M-8.9408 120.918C467.067 4.09214 840.002 433.832 1324.26 262.796C1452.45 217.517 1579.14 128.13 1662.76 15.3162C1723.66 -66.8586 1808.51 28.1404 1770.36 79.6041C1599.07 310.677 1319.45 449.737 1034.25 430.393C694.175 407.348 395.476 196.717 82.1708 232.658C-31.418 245.673 -161.607 304.015 -228.179 414.775C-245.226 443.146 -284.716 456.543 -313.448 437.629C-341.321 419.265 -354.072 380.864 -335.788 350.511C-332.557 350.511 -253.097 180.86 -8.9408 120.942V120.918Z" fill="url(#paint6_radial_472_5850)"/>
</g>
<g style="mix-blend-mode:multiply">
<path d="M-37.5352 129.063C432.801 -9.75797 824.468 402.191 1300.58 208.826C1426.64 157.625 1549.2 62.4584 1627.7 -54.129C1684.89 -139.05 1773.87 -48.0871 1738.06 5.07218C1577.25 243.859 1304.05 395.767 1018.34 389.701C677.576 382.465 369.838 185.971 58.4568 236.408C-54.4103 254.701 -181.884 319.013 -243.473 432.758C-259.248 461.893 -298.085 477.106 -327.642 459.553C-356.306 442.502 -370.74 404.746 -353.865 373.557C-350.635 373.414 -278.804 200.228 -37.5696 129.039L-37.5352 129.063Z" fill="url(#paint7_radial_472_5850)"/>
</g>
<g style="mix-blend-mode:multiply">
<path d="M429.331 105.11C566.634 150.508 688.54 231.37 815.979 298.476C1129.63 463.613 1432.76 449.714 1688.22 310.392C1701.08 303.371 1712.56 323.36 1699.67 330.381C1453.9 464.425 1155.92 476.461 900.045 364.793C646.885 254.319 464.009 66.3275 106.711 86.3637C-46.2645 94.937 -196.147 144.037 -324.652 229.411C-336.921 237.555 -348.297 217.519 -336.096 209.423C-328.157 209.423 -10.4178 -40.2777 429.331 105.11Z" fill="url(#paint8_radial_472_5850)"/>
</g>
</g>
</g>
<g filter="url(#filter2_bd_472_5850)">
<rect x="1199.7" y="200.307" width="115.194" height="144.095" rx="7" fill="url(#paint9_linear_472_5850)" shape-rendering="crispEdges"/>
<rect x="1199.95" y="200.557" width="114.694" height="143.595" rx="6.75" stroke="url(#paint10_linear_472_5850)" stroke-width="0.5" shape-rendering="crispEdges"/>
</g>
<g filter="url(#filter3_b_472_5850)">
<rect x="1205.47" y="205.748" width="103.639" height="133.213" rx="2" fill="url(#paint11_linear_472_5850)"/>
</g>
<rect x="1223.02" y="287.381" width="68.1325" height="3.84874" rx="1.92437" fill="#133F84" fill-opacity="0.49"/>
<rect x="1223.02" y="299.957" width="68.1325" height="3.84874" rx="1.92437" fill="#133F84" fill-opacity="0.49"/>
<rect x="1271.9" y="222.436" width="19.2579" height="21.8267" rx="2" fill="#133F84" fill-opacity="0.49"/>
<rect x="1247.66" y="222.436" width="19.2579" height="21.8267" rx="2" fill="#133F84" fill-opacity="0.49"/>
<rect x="1223.43" y="222.436" width="19.2579" height="21.8267" rx="2" fill="#133F84" fill-opacity="0.49"/>
<rect x="1271.9" y="254.037" width="19.2579" height="21.8267" rx="2" fill="#133F84" fill-opacity="0.49"/>
<rect x="1247.66" y="254.037" width="19.2579" height="21.8267" rx="2" fill="#133F84" fill-opacity="0.49"/>
<rect x="1223.43" y="254.037" width="19.2579" height="21.8267" rx="2" fill="#133F84" fill-opacity="0.49"/>
<g opacity="0.5">
<g opacity="0.3">
<rect x="809.189" y="-14.4102" width="219.445" height="40.3847" fill="url(#paint12_linear_472_5850)" style="mix-blend-mode:screen"/>
</g>
<circle cx="1027.41" cy="5.7822" r="20.1924" transform="rotate(90 1027.41 5.7822)" fill="url(#paint13_linear_472_5850)"/>
</g>
<g filter="url(#filter4_f_472_5850)">
<rect x="133.611" y="-162.051" width="723.481" height="238.986" rx="119.493" transform="rotate(15 133.611 -162.051)" fill="#FF6332" fill-opacity="0.74"/>
</g>
<path d="M34.6504 -25.1328V389.11" stroke="#64B2C4" stroke-opacity="0.18"/>
<path d="M761.998 25.9746L-26.707 25.9746" stroke="#64B2C4" stroke-opacity="0.18"/>
<path d="M761.998 55.0254L-26.707 55.0254" stroke="#64B2C4" stroke-opacity="0.18"/>
<path d="M761.998 84.0762L-26.707 84.0761" stroke="#64B2C4" stroke-opacity="0.18"/>
<path d="M761.998 113.127L-26.707 113.127" stroke="#64B2C4" stroke-opacity="0.18"/>
<path d="M761.998 142.178L-26.707 142.178" stroke="#64B2C4" stroke-opacity="0.18"/>
<path d="M761.998 171.229L-26.707 171.228" stroke="#64B2C4" stroke-opacity="0.18"/>
<path d="M761.998 200.279L-26.707 200.279" stroke="#64B2C4" stroke-opacity="0.18"/>
<path d="M761.998 229.33L-26.707 229.33" stroke="#64B2C4" stroke-opacity="0.18"/>
<path d="M761.998 258.381L-26.707 258.381" stroke="#64B2C4" stroke-opacity="0.18"/>
<path d="M761.998 287.432L-26.707 287.432" stroke="#64B2C4" stroke-opacity="0.18"/>
<path d="M761.998 316.482L-26.707 316.482" stroke="#64B2C4" stroke-opacity="0.18"/>
<path d="M761.998 345.533L-26.707 345.533" stroke="#64B2C4" stroke-opacity="0.18"/>
<path d="M761.998 374.584L-26.707 374.584" stroke="#64B2C4" stroke-opacity="0.18"/>
<path d="M62.625 -25.1328V389.11" stroke="#64B2C4" stroke-opacity="0.18"/>
<path d="M90.5996 -25.1328V389.11" stroke="#64B2C4" stroke-opacity="0.18"/>
<path d="M118.575 -25.1328V389.11" stroke="#64B2C4" stroke-opacity="0.18"/>
<path d="M146.55 -25.1328V389.11" stroke="#64B2C4" stroke-opacity="0.18"/>
<path d="M174.524 -25.1328V389.11" stroke="#64B2C4" stroke-opacity="0.18"/>
<path d="M202.5 -25.1328V389.11" stroke="#64B2C4" stroke-opacity="0.18"/>
<path d="M230.475 -25.1328V389.11" stroke="#64B2C4" stroke-opacity="0.18"/>
<path d="M258.449 -25.1328V389.11" stroke="#64B2C4" stroke-opacity="0.18"/>
<path d="M286.424 -25.1328V389.11" stroke="#64B2C4" stroke-opacity="0.18"/>
<path d="M314.398 -25.1328V389.11" stroke="#64B2C4" stroke-opacity="0.18"/>
<path d="M342.374 -25.1328V389.11" stroke="#64B2C4" stroke-opacity="0.18"/>
<path d="M370.349 -25.1328V389.11" stroke="#64B2C4" stroke-opacity="0.18"/>
<path d="M398.323 -25.1328V389.11" stroke="#64B2C4" stroke-opacity="0.18"/>
<path d="M426.299 -25.1328V389.11" stroke="#64B2C4" stroke-opacity="0.18"/>
<path d="M454.273 -25.1328V389.11" stroke="#64B2C4" stroke-opacity="0.18"/>
<path d="M482.249 -25.1328V389.11" stroke="#64B2C4" stroke-opacity="0.18"/>
<path d="M510.224 -25.1328V389.11" stroke="#64B2C4" stroke-opacity="0.18"/>
<path d="M538.198 -25.1328V389.11" stroke="#64B2C4" stroke-opacity="0.18"/>
<path d="M566.174 -25.1328V389.11" stroke="#64B2C4" stroke-opacity="0.18"/>
<path d="M594.148 -25.1328V389.11" stroke="#64B2C4" stroke-opacity="0.18"/>
<path d="M622.123 -25.1328V389.11" stroke="#64B2C4" stroke-opacity="0.18"/>
<path d="M650.099 -25.1328V389.11" stroke="#64B2C4" stroke-opacity="0.18"/>
<path d="M678.073 -25.1328V389.11" stroke="#64B2C4" stroke-opacity="0.18"/>
<path d="M706.048 -25.1328V389.11" stroke="#64B2C4" stroke-opacity="0.18"/>
<path d="M734.023 -25.1328V389.11" stroke="#64B2C4" stroke-opacity="0.18"/>
<g filter="url(#filter5_f_472_5850)">
<rect x="594.439" y="-242.793" width="525.58" height="580.505" transform="rotate(15 594.439 -242.793)" fill="#0A2963"/>
</g>
<g filter="url(#filter6_f_472_5850)">
<rect x="-159.197" y="-334.418" width="525.58" height="457.31" rx="228.655" transform="rotate(15 -159.197 -334.418)" fill="#16C7FF" fill-opacity="0.56"/>
</g>
<g filter="url(#filter7_bd_472_5850)">
<rect x="-72.9707" y="-58.4219" width="1585.94" height="58.8933" fill="white" fill-opacity="0.87" shape-rendering="crispEdges"/>
</g>
<path d="M-253.176 579.586V-7.16406H1619.82V579.586H1021.92H287.324H-253.176Z" fill="url(#paint14_linear_472_5850)"/>
<g opacity="0.2">
<rect x="711.93" y="37.1035" width="202.1" height="5.14331" rx="2.57166" fill="url(#paint15_linear_472_5850)" style="mix-blend-mode:screen"/>
</g>
<g opacity="0.15">
<rect x="89.498" y="355.225" width="461.857" height="5.14331" rx="2.57166" fill="url(#paint16_linear_472_5850)" style="mix-blend-mode:screen"/>
</g>
<g opacity="0.15">
<rect x="866.867" y="74.8613" width="461.857" height="5.14331" rx="2.57166" fill="url(#paint17_linear_472_5850)" style="mix-blend-mode:screen"/>
</g>
<path d="M330.252 336.396C331.093 333.445 333.411 331.145 336.368 330.328L337.287 330.074L336.369 329.82H336.368C333.411 329.003 331.092 326.702 330.252 323.751L329.989 322.834L329.726 323.751C328.886 326.702 326.567 329.003 323.61 329.82L322.691 330.074L323.609 330.328H323.61C326.567 331.145 328.886 333.445 329.726 336.396L329.989 337.313L330.252 336.396Z" fill="#9AC1FF" fill-opacity="0.32"/>
<path d="M851.162 83.5605C851.635 81.901 852.938 80.6074 854.602 80.1478L855.118 80.005L854.602 79.8623H854.602C852.938 79.4026 851.635 78.1089 851.162 76.4496L851.014 75.9336L850.866 76.4496C850.394 78.109 849.09 79.4027 847.427 79.8623L846.91 80.005L847.426 80.1478H847.427C849.09 80.6074 850.394 81.9012 850.866 83.5605L851.014 84.0765L851.162 83.5605Z" fill="#A3C5FA"/>
<g opacity="0.5">
<g opacity="0.5">
<rect x="-65.4805" y="434.502" width="298.374" height="54.9101" fill="url(#paint18_linear_472_5850)" style="mix-blend-mode:screen"/>
</g>
<circle cx="231.232" cy="461.957" r="27.455" transform="rotate(90 231.232 461.957)" fill="url(#paint19_linear_472_5850)"/>
</g>
<path d="M246.408 456.95C246.484 457.452 246.126 457.092 246.126 457.092C244.668 455.253 246.38 452.179 246.38 452.179C246.6 451.826 246.821 451.507 247.048 451.215C243.581 446.248 237.782 442.99 231.2 442.99C221.074 442.99 212.786 450.72 212.036 460.52C215.867 458.687 220.043 463.221 220.043 463.221L221.687 464.829C226.632 469.702 228.056 469.661 228.771 468.541C228.771 468.541 229.762 467.123 228.111 464.245C226.109 460.771 228.304 458.199 228.304 458.199C234.13 450.387 243.457 460.323 243.457 460.323C246.752 463.567 248.843 464.781 250.164 465.128C250.335 464.096 250.432 463.044 250.432 461.965C250.432 459.678 250.019 457.486 249.269 455.457C246.717 454.595 246.36 456.631 246.408 456.957V456.95Z" fill="white" fill-opacity="0.46"/>
<path d="M237.548 466.159C233.668 462.339 231.392 461.253 230.071 461.246C229.927 461.26 228.826 461.382 229.039 462.488C229.232 463.452 232.747 467.985 228.688 472.003C223 476.733 216.892 469.559 216.892 469.559C215 467.822 212.717 465.169 212.428 466.044C214.326 474.554 222.009 480.927 231.199 480.927C238.27 480.927 244.447 477.16 247.79 471.548C242.886 471.84 237.548 466.159 237.548 466.159Z" fill="white"/>
<g opacity="0.5">
<g opacity="0.5">
<g opacity="0.3">
<rect x="551.355" y="23.3184" width="149.817" height="27.5709" fill="url(#paint20_linear_472_5850)" style="mix-blend-mode:screen"/>
</g>
<circle cx="700.339" cy="37.1038" r="13.7855" transform="rotate(90 700.339 37.1038)" fill="url(#paint21_linear_472_5850)"/>
</g>
<path d="M707.959 34.5894C707.997 34.8415 707.817 34.6609 707.817 34.6609C707.085 33.7375 707.945 32.1939 707.945 32.1939C708.055 32.0167 708.166 31.8565 708.28 31.71C706.539 29.2157 703.628 27.5801 700.322 27.5801C695.238 27.5801 691.077 31.4612 690.7 36.3817C692.624 35.4617 694.72 37.7379 694.72 37.7379L695.546 38.5455C698.029 40.9921 698.744 40.9717 699.103 40.4094C699.103 40.4094 699.601 39.6972 698.772 38.2524C697.767 36.5078 698.868 35.2163 698.868 35.2163C701.794 31.2943 706.477 36.2829 706.477 36.2829C708.131 37.9117 709.181 38.5216 709.844 38.6954C709.931 38.1775 709.979 37.6493 709.979 37.1075C709.979 35.9592 709.772 34.8586 709.395 33.8397C708.114 33.4069 707.934 34.4292 707.959 34.5928V34.5894Z" fill="white" fill-opacity="0.46"/>
<path d="M703.51 39.2131C701.562 37.2947 700.418 36.7495 699.755 36.7461C699.683 36.7529 699.13 36.8142 699.237 37.3697C699.334 37.8535 701.099 40.1298 699.061 42.147C696.205 44.5221 693.138 40.9203 693.138 40.9203C692.188 40.048 691.042 38.7156 690.896 39.1552C691.85 43.4283 695.708 46.6279 700.322 46.6279C703.872 46.6279 706.974 44.7367 708.652 41.9187C706.19 42.0652 703.51 39.2131 703.51 39.2131Z" fill="white"/>
</g>
<g opacity="0.5">
<g opacity="0.3">
<rect x="1084.49" y="400.17" width="219.445" height="40.3847" fill="url(#paint22_linear_472_5850)" style="mix-blend-mode:screen"/>
</g>
<circle cx="1302.71" cy="420.362" r="20.1924" transform="rotate(90 1302.71 420.362)" fill="url(#paint23_linear_472_5850)"/>
</g>
<path d="M1313.87 416.679C1313.93 417.048 1313.67 416.784 1313.67 416.784C1312.59 415.431 1313.85 413.17 1313.85 413.17C1314.01 412.911 1314.18 412.676 1314.34 412.461C1311.79 408.808 1307.53 406.412 1302.69 406.412C1295.24 406.412 1289.15 412.097 1288.59 419.304C1291.41 417.957 1294.48 421.291 1294.48 421.291L1295.69 422.474C1299.33 426.057 1300.38 426.028 1300.9 425.204C1300.9 425.204 1301.63 424.161 1300.42 422.045C1298.94 419.489 1300.56 417.597 1300.56 417.597C1304.84 411.853 1311.7 419.16 1311.7 419.16C1314.13 421.545 1315.66 422.439 1316.64 422.693C1316.76 421.935 1316.83 421.161 1316.83 420.367C1316.83 418.685 1316.53 417.073 1315.98 415.581C1314.1 414.947 1313.84 416.444 1313.87 416.684V416.679Z" fill="white" fill-opacity="0.65"/>
<path d="M1307.36 423.452C1304.5 420.641 1302.83 419.843 1301.86 419.838C1301.75 419.848 1300.94 419.938 1301.1 420.751C1301.24 421.46 1303.83 424.794 1300.84 427.749C1296.66 431.228 1292.17 425.952 1292.17 425.952C1290.77 424.674 1289.1 422.723 1288.88 423.367C1290.28 429.626 1295.93 434.312 1302.69 434.312C1307.89 434.312 1312.43 431.542 1314.89 427.415C1311.28 427.629 1307.36 423.452 1307.36 423.452Z" fill="white"/>
<path d="M1483.14 370.27C1483.33 370.074 1483.33 369.758 1483.14 369.562L1479.96 366.38C1479.76 366.185 1479.44 366.185 1479.25 366.38C1479.05 366.576 1479.05 366.892 1479.25 367.088L1482.08 369.916L1479.25 372.744C1479.05 372.94 1479.05 373.256 1479.25 373.452C1479.44 373.647 1479.76 373.647 1479.96 373.452L1483.14 370.27ZM1452.84 440.053H1450.75V441.053H1452.84V440.053ZM1446.56 440.053H1442.38V441.053H1446.56V440.053ZM1438.19 440.053H1434.01V441.053H1438.19V440.053ZM1429.82 440.053H1425.64V441.053H1429.82V440.053ZM1421.46 440.053H1417.27V441.053H1421.46V440.053ZM1413.09 440.053H1408.9V441.053H1413.09V440.053ZM1404.72 440.053H1400.53V441.053H1404.72V440.053ZM1396.35 440.053H1392.16V441.053H1396.35V440.053ZM1387.98 440.053H1383.79V441.053H1387.98V440.053ZM1379.61 440.053H1375.42V441.053H1379.61V440.053ZM1371.24 440.053H1369.14V441.053H1371.24V440.053ZM1369.14 440.053C1368.64 440.053 1368.15 440.004 1367.68 439.911L1367.49 440.892C1368.02 440.998 1368.58 441.053 1369.14 441.053V440.053ZM1364.98 438.79C1364.16 438.243 1363.46 437.538 1362.91 436.72L1362.08 437.276C1362.7 438.203 1363.49 439.001 1364.42 439.621L1364.98 438.79ZM1361.79 434.018C1361.69 433.544 1361.64 433.055 1361.64 432.553H1360.64C1360.64 433.12 1360.7 433.675 1360.81 434.212L1361.79 434.018ZM1361.64 432.553V430.602H1360.64V432.553H1361.64ZM1361.64 426.699V422.797H1360.64V426.699H1361.64ZM1361.64 418.894V414.991H1360.64V418.894H1361.64ZM1361.64 411.089V407.186H1360.64V411.089H1361.64ZM1361.64 403.283V399.381H1360.64V403.283H1361.64ZM1361.64 395.478V391.575H1360.64V395.478H1361.64ZM1361.64 387.673V383.77H1360.64V387.673H1361.64ZM1361.64 379.867V377.916H1360.64V379.867H1361.64ZM1361.64 377.916C1361.64 377.414 1361.69 376.925 1361.79 376.452L1360.81 376.258C1360.7 376.794 1360.64 377.349 1360.64 377.916H1361.64ZM1362.91 373.749C1363.46 372.931 1364.16 372.227 1364.98 371.679L1364.42 370.848C1363.49 371.468 1362.7 372.266 1362.08 373.193L1362.91 373.749ZM1367.68 370.559C1368.15 370.465 1368.64 370.416 1369.14 370.416V369.416C1368.58 369.416 1368.02 369.472 1367.49 369.578L1367.68 370.559ZM1369.14 370.416H1371.17V369.416H1369.14V370.416ZM1375.23 370.416H1379.29V369.416H1375.23V370.416ZM1383.35 370.416H1387.41V369.416H1383.35V370.416ZM1391.47 370.416H1395.53V369.416H1391.47V370.416ZM1399.58 370.416H1403.64V369.416H1399.58V370.416ZM1407.7 370.416H1411.76V369.416H1407.7V370.416ZM1415.82 370.416H1419.88V369.416H1415.82V370.416ZM1423.94 370.416H1427.99V369.416H1423.94V370.416ZM1432.05 370.416H1436.11V369.416H1432.05V370.416ZM1440.17 370.416H1444.23V369.416H1440.17V370.416ZM1448.29 370.416H1452.34V369.416H1448.29V370.416ZM1456.4 370.416H1460.46V369.416H1456.4V370.416ZM1464.52 370.416H1468.58V369.416H1464.52V370.416ZM1472.64 370.416H1476.7V369.416H1472.64V370.416ZM1480.75 370.416H1482.78V369.416H1480.75V370.416Z" fill="white" fill-opacity="0.3"/>
<path d="M1120.03 261.277C1120.97 257.983 1123.55 255.415 1126.86 254.502L1127.88 254.219L1126.86 253.935H1126.86C1123.55 253.023 1120.97 250.455 1120.03 247.161L1119.73 246.137L1119.44 247.161C1118.5 250.455 1115.91 253.023 1112.61 253.935L1111.59 254.219L1112.61 254.502H1112.61C1115.91 255.415 1118.5 257.983 1119.44 261.277L1119.73 262.301L1120.03 261.277Z" fill="#E59888"/>
<path d="M1157.27 269.607C1157.67 268.199 1158.77 267.102 1160.18 266.712L1160.62 266.591L1160.19 266.469H1160.18C1158.77 266.08 1157.67 264.982 1157.27 263.574L1157.14 263.137L1157.02 263.574C1156.62 264.982 1155.51 266.08 1154.1 266.469L1153.66 266.591L1154.1 266.712H1154.1C1155.51 267.102 1156.62 268.199 1157.02 269.607L1157.14 270.044L1157.27 269.607Z" fill="#FAFFD0"/>
<g filter="url(#filter8_b_472_5850)">
<circle cx="1140.8" cy="304.681" r="23.3643" fill="url(#paint24_linear_472_5850)"/>
</g>
<path d="M1264.46 123.637C1264.68 122.872 1265.28 122.276 1266.05 122.064L1266.29 121.999L1266.05 121.933H1266.05C1265.28 121.721 1264.68 121.125 1264.46 120.361L1264.39 120.123L1264.33 120.361C1264.11 121.125 1263.51 121.721 1262.74 121.933L1262.5 121.999L1262.74 122.064H1262.74C1263.51 122.276 1264.11 122.872 1264.33 123.637L1264.39 123.874L1264.46 123.637Z" fill="#FFF2AE" fill-opacity="0.84"/>
<g filter="url(#filter9_b_472_5850)">
<circle cx="1253.79" cy="148.051" r="17.9783" fill="url(#paint25_linear_472_5850)"/>
</g>
<g filter="url(#filter10_b_472_5850)">
<circle cx="1253.79" cy="148.051" r="22.7585" stroke="url(#paint26_linear_472_5850)"/>
</g>
<path d="M52.8552 105.92C53.073 105.155 53.6736 104.559 54.4397 104.348L54.6777 104.282L54.44 104.216H54.4397C53.6736 104.004 53.0729 103.408 52.8552 102.644L52.7871 102.406L52.719 102.644C52.5012 103.408 51.9006 104.004 51.1345 104.216L50.8965 104.282L51.1342 104.348H51.1345C51.9006 104.559 52.5012 105.155 52.719 105.92L52.7871 106.157L52.8552 105.92Z" fill="#FFF2AE" fill-opacity="0.84"/>
<g filter="url(#filter11_b_472_5850)">
<circle cx="42.1863" cy="130.334" r="17.9783" fill="url(#paint27_linear_472_5850)"/>
</g>
<g filter="url(#filter12_b_472_5850)">
<circle cx="42.1863" cy="130.335" r="22.7585" stroke="url(#paint28_linear_472_5850)"/>
</g>
<path d="M1348.18 191.271C1347.98 191.076 1347.67 191.076 1347.47 191.271L1344.29 194.453C1344.09 194.649 1344.09 194.965 1344.29 195.161C1344.48 195.356 1344.8 195.356 1345 195.161L1347.83 192.332L1350.65 195.161C1350.85 195.356 1351.17 195.356 1351.36 195.161C1351.56 194.965 1351.56 194.649 1351.36 194.453L1348.18 191.271ZM1315.12 310.415H1339.83V309.415H1315.12V310.415ZM1348.33 301.915V191.625H1347.33V301.915H1348.33ZM1339.83 310.415C1344.52 310.415 1348.33 306.609 1348.33 301.915H1347.33C1347.33 306.057 1343.97 309.415 1339.83 309.415V310.415Z" fill="white" fill-opacity="0.3"/>
<path d="M1227.58 147.275C1227.78 147.08 1227.78 146.764 1227.58 146.568L1224.4 143.386C1224.2 143.191 1223.89 143.191 1223.69 143.386C1223.5 143.582 1223.5 143.898 1223.69 144.093L1226.52 146.922L1223.69 149.75C1223.5 149.946 1223.5 150.262 1223.69 150.457C1223.89 150.653 1224.2 150.653 1224.4 150.457L1227.58 147.275ZM1199.35 233.959H1197.54V234.959H1199.35V233.959ZM1193.92 233.959H1190.3V234.959H1193.92V233.959ZM1186.69 233.959H1183.07V234.959H1186.69V233.959ZM1179.46 233.959H1175.84V234.959H1179.46V233.959ZM1172.22 233.959H1170.41V234.959H1172.22V233.959ZM1170.41 233.959C1169.91 233.959 1169.42 233.909 1168.95 233.816L1168.76 234.797C1169.29 234.903 1169.85 234.959 1170.41 234.959V233.959ZM1166.25 232.696C1165.43 232.148 1164.72 231.443 1164.18 230.625L1163.35 231.182C1163.97 232.108 1164.76 232.906 1165.69 233.527L1166.25 232.696ZM1163.06 227.923C1162.96 227.45 1162.91 226.96 1162.91 226.459H1161.91C1161.91 227.026 1161.97 227.58 1162.08 228.117L1163.06 227.923ZM1162.91 226.459V224.471H1161.91V226.459H1162.91ZM1162.91 220.497V216.523H1161.91V220.497H1162.91ZM1162.91 212.549V208.574H1161.91V212.549H1162.91ZM1162.91 204.6V200.626H1161.91V204.6H1162.91ZM1162.91 196.652V192.677H1161.91V196.652H1162.91ZM1162.91 188.703V184.729H1161.91V188.703H1162.91ZM1162.91 180.755V176.78H1161.91V180.755H1162.91ZM1162.91 172.806V168.832H1161.91V172.806H1162.91ZM1162.91 164.858V160.883H1161.91V164.858H1162.91ZM1162.91 156.909V154.922H1161.91V156.909H1162.91ZM1162.91 154.922C1162.91 154.42 1162.96 153.931 1163.06 153.458L1162.08 153.264C1161.97 153.8 1161.91 154.355 1161.91 154.922H1162.91ZM1164.18 150.755C1164.72 149.937 1165.43 149.233 1166.25 148.685L1165.69 147.854C1164.76 148.474 1163.97 149.272 1163.35 150.199L1164.18 150.755ZM1168.95 147.565C1169.42 147.471 1169.91 147.422 1170.41 147.422V146.422C1169.85 146.422 1169.29 146.477 1168.76 146.584L1168.95 147.565ZM1170.41 147.422H1172.44V146.422H1170.41V147.422ZM1176.5 147.422H1180.56V146.422H1176.5V147.422ZM1184.62 147.422H1188.68V146.422H1184.62V147.422ZM1192.73 147.422H1196.79V146.422H1192.73V147.422ZM1200.85 147.422H1204.91V146.422H1200.85V147.422ZM1208.97 147.422H1213.02V146.422H1208.97V147.422ZM1217.08 147.422H1221.14V146.422H1217.08V147.422ZM1225.2 147.422H1227.23V146.422H1225.2V147.422Z" fill="white" fill-opacity="0.3"/>
<g filter="url(#filter13_bd_472_5850)">
<rect x="-18.5898" y="197.957" width="115.194" height="144.095" rx="7" fill="url(#paint29_linear_472_5850)" shape-rendering="crispEdges"/>
<rect x="-18.3398" y="198.207" width="114.694" height="143.595" rx="6.75" stroke="url(#paint30_linear_472_5850)" stroke-width="0.5" shape-rendering="crispEdges"/>
</g>
<g filter="url(#filter14_b_472_5850)">
<rect x="-12.8125" y="203.398" width="103.639" height="133.213" rx="2" fill="url(#paint31_linear_472_5850)"/>
</g>
<rect x="8.1582" y="275.324" width="68.1325" height="3.84874" rx="1.92437" fill="#133F84" fill-opacity="0.49"/>
<rect x="-0.287109" y="275.324" width="3.89177" height="3.84874" rx="1.92437" fill="#133F84" fill-opacity="0.49"/>
<rect x="8.1582" y="287.9" width="68.1325" height="3.84874" rx="1.92437" fill="#133F84" fill-opacity="0.49"/>
<rect x="-0.287109" y="287.9" width="3.89177" height="3.84874" rx="1.92437" fill="#133F84" fill-opacity="0.49"/>
<rect x="8.1582" y="300.477" width="68.1325" height="3.84874" rx="1.92437" fill="#133F84" fill-opacity="0.49"/>
<rect x="-0.287109" y="300.477" width="3.89177" height="3.84874" rx="1.92437" fill="#133F84" fill-opacity="0.49"/>
<g clip-path="url(#clip2_472_5850)">
<rect x="-23.8877" y="196.348" width="202.352" height="23.5566" transform="rotate(45 -23.8877 196.348)" fill="white" fill-opacity="0.12"/>
<rect x="-29.2041" y="232.238" width="202.352" height="5.95827" transform="rotate(45 -29.2041 232.238)" fill="white" fill-opacity="0.12"/>
</g>
<rect x="-0.287109" y="226.756" width="20.0547" height="26.7983" rx="2" fill="#6487C0"/>
<rect x="28.9785" y="226.756" width="20.0547" height="26.7983" rx="2" fill="#6487C0"/>
<rect x="58.248" y="226.756" width="20.0547" height="26.7983" rx="2" fill="#6487C0"/>
<path d="M137.893 253.802L140.78 248.802H135.006L137.893 253.802ZM38.25 198.083V190.271H37.25V198.083H38.25ZM45.75 182.771H129.893V181.771H45.75V182.771ZM137.393 190.271V249.302H138.393V190.271H137.393ZM129.893 182.771C134.035 182.771 137.393 186.129 137.393 190.271H138.393C138.393 185.577 134.587 181.771 129.893 181.771V182.771ZM38.25 190.271C38.25 186.129 41.6079 182.771 45.75 182.771V181.771C41.0556 181.771 37.25 185.577 37.25 190.271H38.25Z" fill="white" fill-opacity="0.3"/>
<rect x="110.131" y="255.754" width="55.5229" height="104.105" rx="7" fill="#6895E0" fill-opacity="0.74"/>
<g filter="url(#filter15_b_472_5850)">
<rect x="113.596" y="259.379" width="48.5935" height="96.8555" rx="2" fill="url(#paint32_linear_472_5850)"/>
</g>
<path d="M122.92 303.838C120.729 303.838 118.951 305.616 118.951 307.807C118.951 309.998 120.729 311.775 122.92 311.775C125.111 311.775 126.889 309.998 126.889 307.807C126.889 305.616 125.111 303.838 122.92 303.838ZM124.962 306.847L122.631 309.187C122.556 309.262 122.449 309.311 122.341 309.311C122.234 309.311 122.126 309.27 122.052 309.187L120.878 308.013C120.712 307.848 120.712 307.592 120.878 307.426C121.043 307.261 121.3 307.261 121.465 307.426L122.342 308.303L124.384 306.261C124.549 306.095 124.806 306.095 124.971 306.261C125.128 306.426 125.128 306.682 124.962 306.847L124.962 306.847Z" fill="#5A7FBC"/>
<path d="M122.92 317.328C120.729 317.328 118.951 319.106 118.951 321.297C118.951 323.488 120.729 325.266 122.92 325.266C125.111 325.266 126.889 323.488 126.889 321.297C126.889 319.106 125.111 317.328 122.92 317.328ZM124.962 320.338L122.631 322.678C122.556 322.752 122.449 322.802 122.341 322.802C122.234 322.802 122.126 322.76 122.052 322.678L120.878 321.504C120.712 321.338 120.712 321.082 120.878 320.916C121.043 320.751 121.3 320.751 121.465 320.916L122.342 321.793L124.384 319.751C124.549 319.585 124.806 319.585 124.971 319.751C125.128 319.916 125.128 320.172 124.962 320.338L124.962 320.338Z" fill="#5A7FBC"/>
<path d="M122.92 330.818C120.729 330.818 118.951 332.596 118.951 334.787C118.951 336.978 120.729 338.756 122.92 338.756C125.111 338.756 126.889 336.978 126.889 334.787C126.889 332.596 125.111 330.818 122.92 330.818ZM124.962 333.828L122.631 336.168C122.556 336.242 122.449 336.292 122.341 336.292C122.234 336.292 122.126 336.251 122.052 336.168L120.878 334.994C120.712 334.828 120.712 334.572 120.878 334.407C121.043 334.241 121.3 334.241 121.465 334.407L122.342 335.283L124.384 333.241C124.549 333.076 124.806 333.076 124.971 333.241C125.128 333.406 125.128 333.663 124.962 333.828L124.962 333.828Z" fill="#5A7FBC"/>
<rect x="118.951" y="270.369" width="16.4423" height="23.9017" rx="2" fill="#4D7BC7" fill-opacity="0.69"/>
<rect x="140.393" y="270.369" width="16.4423" height="23.9017" rx="2" fill="#4D7BC7" fill-opacity="0.69"/>
<rect x="131.588" y="306.418" width="25.2461" height="2.77648" rx="1.38824" fill="#133F84" fill-opacity="0.35"/>
<rect x="131.588" y="319.908" width="25.2461" height="2.77648" rx="1.38824" fill="#133F84" fill-opacity="0.35"/>
<rect x="131.588" y="333.398" width="25.2461" height="2.77648" rx="1.38824" fill="#133F84" fill-opacity="0.35"/>
<g opacity="0.75" clip-path="url(#clip3_472_5850)">
<rect x="74.9756" y="222.373" width="202.352" height="23.5566" transform="rotate(45 74.9756 222.373)" fill="white" fill-opacity="0.12"/>
<rect x="69.6592" y="258.262" width="202.352" height="5.95827" transform="rotate(45 69.6592 258.262)" fill="white" fill-opacity="0.12"/>
</g>
<path fill-rule="evenodd" clip-rule="evenodd" d="M1131.95 310.327V303.836L1139.57 306.974C1139.97 307.134 1140.38 307.131 1140.77 306.971L1148.59 303.754V310.326C1148.59 310.429 1148.57 310.535 1148.53 310.636C1148.52 310.646 1147.03 314.197 1140.35 314.712C1140.3 314.716 1140.26 314.717 1140.21 314.713C1134.13 314.25 1132.34 311.278 1132.06 310.725C1131.99 310.608 1131.95 310.471 1131.95 310.326L1131.95 310.327ZM1127.64 299.741L1139.87 294.708C1140.07 294.626 1140.29 294.632 1140.47 294.708L1152.71 299.741C1153.2 299.944 1153.35 300.564 1153.02 300.972V308.552L1154.33 310.647C1154.66 311.178 1154.27 311.861 1153.66 311.859L1150.8 311.861C1150.14 311.861 1149.78 311.124 1150.15 310.607L1151.43 308.553V301.73L1140.47 306.239C1140.27 306.321 1140.06 306.315 1139.87 306.239L1127.64 301.205C1126.98 300.935 1126.99 300.006 1127.64 299.74L1127.64 299.741Z" fill="white" fill-opacity="0.69"/>
<rect opacity="0.8" x="1299.39" y="104.35" width="65.6124" height="86.3399" rx="4" fill="url(#paint33_linear_472_5850)" fill-opacity="0.8"/>
<rect x="1310.85" y="122.357" width="33.3397" height="2.75042" rx="1.37521" fill="white" fill-opacity="0.35"/>
<rect x="1310.85" y="130.479" width="31.1327" height="2.75042" rx="1.37521" fill="#C6E0EE"/>
<rect x="1310.85" y="138.6" width="31.1327" height="2.75042" rx="1.37521" fill="white" fill-opacity="0.35"/>
<rect x="1310.85" y="146.723" width="27.2505" height="2.75042" rx="1.37521" fill="#82BAD8"/>
<rect x="1310.85" y="154.844" width="31.1327" height="2.75042" rx="1.37521" fill="white" fill-opacity="0.35"/>
<path d="M1318.36 176.426C1318.48 176.607 1318.7 176.742 1318.91 176.72C1319.13 176.72 1319.34 176.584 1319.43 176.381L1320.51 174.123C1321.16 175.207 1322.36 176.72 1323.92 176.72C1324.62 176.72 1324.91 176.11 1325.11 175.704C1325.41 175.117 1325.5 174.891 1326.27 175.162C1328.16 175.862 1329.81 176.471 1330.96 174.778C1331.14 174.507 1331.08 174.123 1330.8 173.943C1330.53 173.762 1330.15 173.83 1329.97 174.101C1329.4 174.914 1328.82 174.823 1326.67 174.033C1324.89 173.378 1324.3 174.597 1324.01 175.162C1323.94 175.297 1323.85 175.478 1323.9 175.5C1322.59 175.5 1321.37 173.356 1321.01 172.543C1320.92 172.317 1320.69 172.182 1320.46 172.182C1320.24 172.182 1320.01 172.317 1319.92 172.52L1318.77 174.959C1318.41 174.552 1317.89 174.056 1317.24 173.672C1316.94 173.513 1316.58 173.604 1316.42 173.897C1316.26 174.191 1316.35 174.552 1316.65 174.71C1317.73 175.365 1318.36 176.426 1318.36 176.426H1318.36Z" fill="white" fill-opacity="0.55"/>
<path d="M1331.89 178.051H1311.25C1311.03 178.051 1310.85 178.231 1310.85 178.457C1310.85 178.683 1311.03 178.863 1311.25 178.863H1331.91C1332.14 178.863 1332.32 178.683 1332.32 178.457C1332.32 178.231 1332.11 178.051 1331.89 178.051H1331.89Z" fill="white" fill-opacity="0.55"/>
<path d="M1312.07 176.63C1312.13 176.697 1312.25 176.743 1312.36 176.743C1312.47 176.743 1312.56 176.697 1312.65 176.63L1313.35 175.93L1314.05 176.63C1314.12 176.697 1314.23 176.743 1314.35 176.743C1314.46 176.743 1314.55 176.697 1314.64 176.63C1314.8 176.472 1314.8 176.223 1314.64 176.065L1313.89 175.365L1314.59 174.665C1314.75 174.507 1314.75 174.259 1314.59 174.101C1314.44 173.943 1314.19 173.943 1314.03 174.101L1313.33 174.801L1312.63 174.101C1312.47 173.943 1312.22 173.943 1312.07 174.101C1311.91 174.259 1311.91 174.507 1312.07 174.665L1312.77 175.365L1312.07 176.065C1311.91 176.223 1311.91 176.472 1312.07 176.63H1312.07Z" fill="white" fill-opacity="0.55"/>
<path d="M1345.17 159.092C1345.07 158.982 1344.92 158.92 1344.77 158.92C1344.62 158.92 1344.47 158.982 1344.37 159.092L1343.55 159.894L1342.46 158.805C1342.35 158.704 1342.2 158.648 1342.05 158.648C1341.91 158.648 1341.76 158.704 1341.65 158.805L1337.03 163.43L1337.85 164.252L1342.05 160.028L1342.46 160.41L1338.38 164.482L1331.89 170.98C1331.81 171.053 1331.76 171.146 1331.73 171.248L1331.08 173.886C1331.06 173.983 1331.06 174.086 1331.08 174.184C1331.11 174.282 1331.16 174.37 1331.24 174.44C1331.35 174.541 1331.49 174.596 1331.64 174.593H1331.77L1334.41 173.943L1334.68 173.79L1345.65 162.8C1345.74 162.715 1345.79 162.603 1345.81 162.482C1345.83 162.361 1345.8 162.237 1345.74 162.131L1346.57 161.29V161.29C1346.67 161.185 1346.74 161.04 1346.74 160.889C1346.74 160.737 1346.67 160.592 1346.57 160.487L1345.17 159.092ZM1334.28 172.566L1333.09 171.4L1338.38 166.106L1339.55 167.272L1334.28 172.566Z" fill="white" fill-opacity="0.55"/>
<path fill-rule="evenodd" clip-rule="evenodd" d="M1319.61 100.826C1319.6 100.89 1319.59 100.956 1319.59 101.024V101.703C1319.59 102.256 1320.04 102.703 1320.59 102.703H1343.8C1344.35 102.703 1344.8 102.256 1344.8 101.703V101.024C1344.8 100.956 1344.79 100.89 1344.78 100.826H1352.12C1352.9 100.826 1353.54 101.463 1353.54 102.248V106.452C1353.54 107.237 1352.9 107.874 1352.12 107.874H1312.27C1311.48 107.874 1310.85 107.237 1310.85 106.452V102.248C1310.85 101.463 1311.48 100.826 1312.27 100.826H1319.61Z" fill="#C3E0F1"/>
<g filter="url(#filter16_d_472_5850)">
<circle cx="1253.79" cy="148.054" r="17.912" transform="rotate(-28.5308 1253.79 148.054)" fill="white" fill-opacity="0.29"/>
</g>
<g clip-path="url(#clip4_472_5850)">
<path d="M1243.2 146.976C1243.63 146.126 1246.15 142.631 1247.55 143.045C1248.48 143.321 1249.02 143.808 1249.33 144.369C1249.87 145.362 1249.7 146.687 1249.58 147.703L1249.47 148.432C1249.35 149.557 1248.82 150.521 1248.4 151.305C1248.19 151.642 1247.97 152.046 1247.89 152.312C1248.2 152.477 1248.89 152.718 1249.36 152.855C1250.91 153.352 1252.63 153.931 1253.31 155.183C1254.29 156.996 1253.12 158.641 1252.49 159.542C1252.36 159.722 1252.19 159.926 1252.17 159.993C1252.17 159.993 1251.49 161.929 1250.7 163.034C1251.08 163.634 1251.96 164.787 1252.79 165.807L1252.77 165.99C1246.8 165.632 1241.15 162.299 1238.08 156.661C1236.92 154.517 1236.24 152.24 1236 149.955L1236.58 149.267C1236.59 149.268 1236.6 149.268 1236.61 149.269L1236.63 149.202C1236.69 148.893 1236.83 148.426 1237.16 147.909C1237.98 146.738 1239.37 146.426 1241.31 146.997C1242.17 147.253 1242.94 147.117 1243.2 146.976Z" fill="#C3E0F1"/>
<path d="M1252.97 130.21C1253.63 130.179 1254.29 130.185 1254.94 130.227C1260.88 130.604 1266.51 133.934 1269.56 139.55C1270.57 141.406 1271.21 143.361 1271.52 145.335C1271.63 146.043 1271.7 146.753 1271.73 147.461L1271.54 147.564C1271.06 147.822 1270.46 147.646 1270.2 147.171L1269.92 146.652C1269.86 146.632 1269.79 146.613 1269.66 146.573L1269.59 146.554C1269.29 146.938 1268.79 147.043 1268.4 147.145C1268.25 147.172 1268.05 147.223 1268.01 147.246L1267.15 147.715C1266.89 147.856 1266.56 147.868 1266.27 147.746C1265.98 147.624 1265.77 147.345 1265.71 147.039L1265.44 145.509C1265.42 145.466 1265.44 145.399 1265.42 145.356C1265.42 144.96 1265.34 144.501 1265.29 144.305C1265.27 144.262 1265.22 144.285 1265.22 144.285C1264.84 144.496 1264.4 144.512 1264.11 144.501C1264.07 144.524 1263.96 144.527 1263.85 144.531C1263.76 144.688 1263.64 144.978 1263.52 145.268C1263.75 146.096 1264 146.966 1264.11 147.182C1264.42 147.744 1265.29 149.341 1263.99 150.045L1261.83 151.218C1261.36 151.476 1260.76 151.3 1260.5 150.825L1259.75 149.443C1259.68 149.423 1259.62 149.404 1259.48 149.364C1258.48 149.068 1257.88 148.056 1257.76 147.84C1257.62 147.581 1257.61 147.252 1257.73 146.962L1258.59 145.041C1258.39 144.366 1258.19 143.691 1258.07 143.366C1257.89 143.35 1257.72 143.334 1257.54 143.318C1257.25 143.306 1256.99 143.227 1256.8 142.992L1255.43 141.499C1255.18 141.244 1255.1 140.895 1255.2 140.562L1255.83 138.429L1256.65 136.642L1255.59 134.699L1253.95 133.524C1253.77 133.399 1253.65 133.183 1253.58 132.943L1252.97 130.21Z" fill="#C3E0F1"/>
<path d="M1264.51 151.72C1264.65 151.759 1265.04 151.768 1265.33 151.78C1266.16 151.773 1267.11 151.763 1267.53 152.54C1267.93 153.274 1267.7 154.183 1267.64 154.383C1267.52 154.783 1267.18 155.08 1266.74 155.095C1266.52 155.103 1265.88 155.169 1265.39 155.384C1265.54 155.972 1265.4 156.329 1265.14 156.58C1265.13 156.866 1265.21 157.435 1265.36 157.913C1265.53 158.435 1265.2 158.952 1264.72 159.101L1262.33 159.842C1261.89 159.966 1261.4 159.786 1261.17 159.354L1260.23 157.628C1260.18 157.541 1260.14 157.455 1260.13 157.345L1259.86 155.815C1259.83 155.553 1259.93 155.219 1260.1 155.016C1260.79 154.134 1261.67 152.983 1261.77 152.649C1262.25 151.05 1263.91 151.543 1264.51 151.72Z" fill="#C3E0F1"/>
</g>
<g filter="url(#filter17_bd_472_5850)">
<g filter="url(#filter18_d_472_5850)">
<circle cx="1170.95" cy="323.403" r="15.2781" fill="white" fill-opacity="0.3" shape-rendering="crispEdges"/>
</g>
<g clip-path="url(#clip5_472_5850)">
<path d="M1174.98 328.962C1174.26 329.668 1173.3 330.109 1172.09 330.287V332.404H1170.14V330.325C1169.29 330.261 1168.5 330.096 1167.77 329.829C1167.04 329.561 1166.4 329.2 1165.85 328.743L1166.69 326.95C1167.8 327.814 1168.99 328.291 1170.28 328.38V324.414C1169.42 324.198 1168.71 323.959 1168.12 323.698C1167.54 323.437 1167.05 323.05 1166.65 322.535C1166.26 322.02 1166.06 321.348 1166.06 320.523C1166.06 319.837 1166.23 319.211 1166.58 318.644C1166.92 318.078 1167.4 317.608 1168.01 317.232C1168.63 316.857 1169.34 316.618 1170.14 316.517V314.402H1172.09V316.501C1172.82 316.589 1173.51 316.768 1174.16 317.034C1174.81 317.302 1175.36 317.638 1175.8 318.045L1174.97 319.837C1174.04 319.074 1173.03 318.617 1171.95 318.464V322.602C1172.8 322.818 1173.51 323.05 1174.07 323.299C1174.63 323.547 1175.1 323.917 1175.48 324.414C1175.86 324.91 1176.05 325.558 1176.05 326.359C1176.05 327.389 1175.69 328.256 1174.97 328.962H1174.98ZM1168.98 321.468C1169.28 321.742 1169.72 321.974 1170.28 322.164V318.483C1169.73 318.597 1169.3 318.82 1168.99 319.15C1168.68 319.481 1168.52 319.895 1168.52 320.39C1168.52 320.834 1168.68 321.194 1168.98 321.466V321.468ZM1173.17 327.647C1173.45 327.336 1173.59 326.931 1173.59 326.436C1173.59 326.043 1173.45 325.724 1173.17 325.482C1172.89 325.241 1172.49 325.037 1171.95 324.871V328.285C1172.49 328.17 1172.9 327.958 1173.17 327.647Z" fill="#D5E0EB"/>
</g>
<circle cx="1170.95" cy="323.404" r="13.3615" transform="rotate(-180 1170.95 323.404)" stroke="url(#paint34_linear_472_5850)" stroke-opacity="0.4" stroke-width="2"/>
</g>
<g clip-path="url(#clip6_472_5850)">
<rect x="1194.4" y="198.1" width="202.352" height="23.5566" transform="rotate(45 1194.4 198.1)" fill="white" fill-opacity="0.12"/>
<rect x="1189.08" y="233.99" width="202.352" height="5.95827" transform="rotate(45 1189.08 233.99)" fill="white" fill-opacity="0.12"/>
</g>
<g clip-path="url(#clip7_472_5850)">
<path fill-rule="evenodd" clip-rule="evenodd" d="M1284.21 305.515C1284.63 305.096 1285.31 305.096 1285.73 305.515L1291.54 311.323C1291.96 311.743 1291.96 312.429 1291.54 312.848C1291.12 313.267 1290.43 313.267 1290.01 312.848L1284.21 307.04C1283.79 306.621 1283.79 305.934 1284.21 305.515Z" fill="#0F3A8A"/>
<path fill-rule="evenodd" clip-rule="evenodd" d="M1279.48 316.93C1279.48 316.338 1279.96 315.852 1280.56 315.852H1288.77C1289.36 315.852 1289.85 316.338 1289.85 316.93C1289.85 317.523 1289.36 318.009 1288.77 318.009H1280.56C1279.96 318.009 1279.48 317.523 1279.48 316.93Z" fill="#0F3A8A"/>
<path fill-rule="evenodd" clip-rule="evenodd" d="M1284.21 328.344C1283.79 327.925 1283.79 327.238 1284.21 326.819L1290.01 321.011C1290.43 320.593 1291.12 320.593 1291.54 321.011C1291.96 321.43 1291.96 322.116 1291.54 322.536L1285.73 328.344C1285.31 328.763 1284.63 328.763 1284.21 328.344Z" fill="#0F3A8A"/>
<path fill-rule="evenodd" clip-rule="evenodd" d="M1307.03 305.515C1307.45 305.934 1307.45 306.621 1307.03 307.04L1301.23 312.848C1300.81 313.267 1300.12 313.267 1299.7 312.848C1299.28 312.429 1299.28 311.743 1299.7 311.323L1305.51 305.515C1305.93 305.096 1306.62 305.096 1307.03 305.515Z" fill="#0F3A8A"/>
<path fill-rule="evenodd" clip-rule="evenodd" d="M1295.62 300.787C1296.21 300.787 1296.7 301.273 1296.7 301.866V310.079C1296.7 310.671 1296.21 311.157 1295.62 311.157C1295.03 311.157 1294.54 310.671 1294.54 310.079V301.866C1294.54 301.273 1295.03 300.787 1295.62 300.787Z" fill="#0F3A8A"/>
<path fill-rule="evenodd" clip-rule="evenodd" d="M1294.86 315.378L1316.72 324.961C1317.16 325.153 1317.21 325.753 1316.8 326.013L1312.37 328.891L1318.3 334.83C1318.54 335.063 1318.54 335.444 1318.3 335.678L1314.37 339.612C1314.14 339.845 1313.76 339.845 1313.52 339.612L1307.58 333.673L1304.7 338.114C1304.44 338.516 1303.84 338.468 1303.65 338.029L1294.07 316.169C1293.85 315.672 1294.36 315.162 1294.86 315.38L1294.86 315.378Z" fill="#0F3A8A"/>
</g>
<path d="M1281.53 228.145C1278.65 228.145 1276.32 230.476 1276.32 233.351C1276.32 236.225 1278.65 238.557 1281.53 238.557C1284.4 238.557 1286.73 236.225 1286.73 233.351C1286.73 230.476 1284.4 228.145 1281.53 228.145ZM1284.21 232.092L1281.15 235.162C1281.05 235.259 1280.91 235.324 1280.77 235.324C1280.63 235.324 1280.49 235.27 1280.39 235.162L1278.85 233.622C1278.63 233.405 1278.63 233.068 1278.85 232.851C1279.07 232.635 1279.4 232.635 1279.62 232.851L1280.77 234.001L1283.45 231.323C1283.67 231.106 1284 231.106 1284.22 231.323C1284.42 231.539 1284.42 231.875 1284.21 232.092L1284.21 232.092Z" fill="#AFCDFA"/>
<path d="M1233.05 259.633C1230.18 259.633 1227.85 261.965 1227.85 264.839C1227.85 267.713 1230.18 270.045 1233.05 270.045C1235.93 270.045 1238.26 267.713 1238.26 264.839C1238.26 261.965 1235.93 259.633 1233.05 259.633ZM1235.73 263.581L1232.67 266.65C1232.58 266.747 1232.44 266.813 1232.29 266.813C1232.15 266.813 1232.01 266.758 1231.91 266.65L1230.37 265.11C1230.16 264.893 1230.16 264.557 1230.37 264.34C1230.59 264.123 1230.93 264.123 1231.15 264.34L1232.29 265.49L1234.97 262.811C1235.19 262.594 1235.53 262.594 1235.74 262.811C1235.95 263.028 1235.95 263.364 1235.73 263.581L1235.73 263.581Z" fill="#AFCDFA"/>
<path fill-rule="evenodd" clip-rule="evenodd" d="M33.3355 135.979V129.488L40.9603 132.627C41.3527 132.787 41.7696 132.783 42.161 132.624L49.9788 129.406V135.978C49.9777 136.082 49.9564 136.187 49.9137 136.289C49.9094 136.298 48.4165 139.849 41.7323 140.364C41.6886 140.369 41.6428 140.37 41.598 140.366C35.5195 139.903 33.7259 136.931 33.4433 136.377C33.3751 136.26 33.3356 136.124 33.3356 135.979L33.3355 135.979ZM29.0263 125.393L41.2589 120.36C41.4594 120.278 41.6748 120.284 41.8604 120.36L54.0919 125.393C54.5846 125.596 54.7371 126.217 54.4065 126.624V134.204L55.7149 136.299C56.0455 136.831 55.6531 137.513 55.042 137.511L52.1819 137.513C51.5303 137.513 51.1667 136.776 51.5346 136.259L52.8174 134.205V127.382L41.8603 131.891C41.6598 131.973 41.4444 131.967 41.2588 131.891L29.0262 126.858C28.3672 126.587 28.381 125.658 29.0262 125.393L29.0263 125.393Z" fill="white" fill-opacity="0.69"/>
</g>
<defs>
<filter id="filter0_f_472_5850" x="-106.758" y="-41.1641" width="1653.94" height="549.695" filterUnits="userSpaceOnUse" color-interpolation-filters="sRGB">
<feFlood flood-opacity="0" result="BackgroundImageFix"/>
<feBlend mode="normal" in="SourceGraphic" in2="BackgroundImageFix" result="shape"/>
<feGaussianBlur stdDeviation="17" result="effect1_foregroundBlur_472_5850"/>
</filter>
<filter id="filter1_f_472_5850" x="896.617" y="-462.713" width="991.367" height="943.094" filterUnits="userSpaceOnUse" color-interpolation-filters="sRGB">
<feFlood flood-opacity="0" result="BackgroundImageFix"/>
<feBlend mode="normal" in="SourceGraphic" in2="BackgroundImageFix" result="shape"/>
<feGaussianBlur stdDeviation="117" result="effect1_foregroundBlur_472_5850"/>
</filter>
<filter id="filter2_bd_472_5850" x="1195.7" y="196.307" width="142.193" height="184.096" filterUnits="userSpaceOnUse" color-interpolation-filters="sRGB">
<feFlood flood-opacity="0" result="BackgroundImageFix"/>
<feGaussianBlur in="BackgroundImageFix" stdDeviation="2"/>
<feComposite in2="SourceAlpha" operator="in" result="effect1_backgroundBlur_472_5850"/>
<feColorMatrix in="SourceAlpha" type="matrix" values="0 0 0 0 0 0 0 0 0 0 0 0 0 0 0 0 0 0 127 0" result="hardAlpha"/>
<feOffset dx="19" dy="32"/>
<feGaussianBlur stdDeviation="2"/>
<feComposite in2="hardAlpha" operator="out"/>
<feColorMatrix type="matrix" values="0 0 0 0 0.0319739 0 0 0 0 0.0236979 0 0 0 0 0.4375 0 0 0 0.05 0"/>
<feBlend mode="normal" in2="effect1_backgroundBlur_472_5850" result="effect2_dropShadow_472_5850"/>
<feBlend mode="normal" in="SourceGraphic" in2="effect2_dropShadow_472_5850" result="shape"/>
</filter>
<filter id="filter3_b_472_5850" x="1201.47" y="201.748" width="111.639" height="141.213" filterUnits="userSpaceOnUse" color-interpolation-filters="sRGB">
<feFlood flood-opacity="0" result="BackgroundImageFix"/>
<feGaussianBlur in="BackgroundImageFix" stdDeviation="2"/>
<feComposite in2="SourceAlpha" operator="in" result="effect1_backgroundBlur_472_5850"/>
<feBlend mode="normal" in="SourceGraphic" in2="effect1_backgroundBlur_472_5850" result="shape"/>
</filter>
<filter id="filter4_f_472_5850" x="-135.417" y="-369.225" width="1175.03" height="832.441" filterUnits="userSpaceOnUse" color-interpolation-filters="sRGB">
<feFlood flood-opacity="0" result="BackgroundImageFix"/>
<feBlend mode="normal" in="SourceGraphic" in2="BackgroundImageFix" result="shape"/>
<feGaussianBlur stdDeviation="117" result="effect1_foregroundBlur_472_5850"/>
</filter>
<filter id="filter5_f_472_5850" x="210.193" y="-476.793" width="1125.92" height="1164.75" filterUnits="userSpaceOnUse" color-interpolation-filters="sRGB">
<feFlood flood-opacity="0" result="BackgroundImageFix"/>
<feBlend mode="normal" in="SourceGraphic" in2="BackgroundImageFix" result="shape"/>
<feGaussianBlur stdDeviation="117" result="effect1_foregroundBlur_472_5850"/>
</filter>
<filter id="filter6_f_472_5850" x="-543.226" y="-600.086" width="1157.37" height="1109.09" filterUnits="userSpaceOnUse" color-interpolation-filters="sRGB">
<feFlood flood-opacity="0" result="BackgroundImageFix"/>
<feBlend mode="normal" in="SourceGraphic" in2="BackgroundImageFix" result="shape"/>
<feGaussianBlur stdDeviation="158.5" result="effect1_foregroundBlur_472_5850"/>
</filter>
<filter id="filter7_bd_472_5850" x="-85.9707" y="-67.4219" width="1611.94" height="84.8926" filterUnits="userSpaceOnUse" color-interpolation-filters="sRGB">
<feFlood flood-opacity="0" result="BackgroundImageFix"/>
<feGaussianBlur in="BackgroundImageFix" stdDeviation="4"/>
<feComposite in2="SourceAlpha" operator="in" result="effect1_backgroundBlur_472_5850"/>
<feColorMatrix in="SourceAlpha" type="matrix" values="0 0 0 0 0 0 0 0 0 0 0 0 0 0 0 0 0 0 127 0" result="hardAlpha"/>
<feOffset dy="4"/>
<feGaussianBlur stdDeviation="6.5"/>
<feComposite in2="hardAlpha" operator="out"/>
<feColorMatrix type="matrix" values="0 0 0 0 0.175678 0 0 0 0 0.173906 0 0 0 0 0.2625 0 0 0 0.09 0"/>
<feBlend mode="normal" in2="effect1_backgroundBlur_472_5850" result="effect2_dropShadow_472_5850"/>
<feBlend mode="normal" in="SourceGraphic" in2="effect2_dropShadow_472_5850" result="shape"/>
</filter>
<filter id="filter8_b_472_5850" x="1113.43" y="277.316" width="54.7285" height="54.7285" filterUnits="userSpaceOnUse" color-interpolation-filters="sRGB">
<feFlood flood-opacity="0" result="BackgroundImageFix"/>
<feGaussianBlur in="BackgroundImageFix" stdDeviation="2"/>
<feComposite in2="SourceAlpha" operator="in" result="effect1_backgroundBlur_472_5850"/>
<feBlend mode="normal" in="SourceGraphic" in2="effect1_backgroundBlur_472_5850" result="shape"/>
</filter>
<filter id="filter9_b_472_5850" x="1231.81" y="126.072" width="43.957" height="43.957" filterUnits="userSpaceOnUse" color-interpolation-filters="sRGB">
<feFlood flood-opacity="0" result="BackgroundImageFix"/>
<feGaussianBlur in="BackgroundImageFix" stdDeviation="2"/>
<feComposite in2="SourceAlpha" operator="in" result="effect1_backgroundBlur_472_5850"/>
<feBlend mode="normal" in="SourceGraphic" in2="effect1_backgroundBlur_472_5850" result="shape"/>
</filter>
<filter id="filter10_b_472_5850" x="1226.54" y="120.793" width="54.5176" height="54.5176" filterUnits="userSpaceOnUse" color-interpolation-filters="sRGB">
<feFlood flood-opacity="0" result="BackgroundImageFix"/>
<feGaussianBlur in="BackgroundImageFix" stdDeviation="2"/>
<feComposite in2="SourceAlpha" operator="in" result="effect1_backgroundBlur_472_5850"/>
<feBlend mode="normal" in="SourceGraphic" in2="effect1_backgroundBlur_472_5850" result="shape"/>
</filter>
<filter id="filter11_b_472_5850" x="20.208" y="108.355" width="43.957" height="43.957" filterUnits="userSpaceOnUse" color-interpolation-filters="sRGB">
<feFlood flood-opacity="0" result="BackgroundImageFix"/>
<feGaussianBlur in="BackgroundImageFix" stdDeviation="2"/>
<feComposite in2="SourceAlpha" operator="in" result="effect1_backgroundBlur_472_5850"/>
<feBlend mode="normal" in="SourceGraphic" in2="effect1_backgroundBlur_472_5850" result="shape"/>
</filter>
<filter id="filter12_b_472_5850" x="14.9277" y="103.076" width="54.5166" height="54.5176" filterUnits="userSpaceOnUse" color-interpolation-filters="sRGB">
<feFlood flood-opacity="0" result="BackgroundImageFix"/>
<feGaussianBlur in="BackgroundImageFix" stdDeviation="2"/>
<feComposite in2="SourceAlpha" operator="in" result="effect1_backgroundBlur_472_5850"/>
<feBlend mode="normal" in="SourceGraphic" in2="effect1_backgroundBlur_472_5850" result="shape"/>
</filter>
<filter id="filter13_bd_472_5850" x="-22.5898" y="193.957" width="142.193" height="184.096" filterUnits="userSpaceOnUse" color-interpolation-filters="sRGB">
<feFlood flood-opacity="0" result="BackgroundImageFix"/>
<feGaussianBlur in="BackgroundImageFix" stdDeviation="2"/>
<feComposite in2="SourceAlpha" operator="in" result="effect1_backgroundBlur_472_5850"/>
<feColorMatrix in="SourceAlpha" type="matrix" values="0 0 0 0 0 0 0 0 0 0 0 0 0 0 0 0 0 0 127 0" result="hardAlpha"/>
<feOffset dx="19" dy="32"/>
<feGaussianBlur stdDeviation="2"/>
<feComposite in2="hardAlpha" operator="out"/>
<feColorMatrix type="matrix" values="0 0 0 0 0.0319739 0 0 0 0 0.0236979 0 0 0 0 0.4375 0 0 0 0.05 0"/>
<feBlend mode="normal" in2="effect1_backgroundBlur_472_5850" result="effect2_dropShadow_472_5850"/>
<feBlend mode="normal" in="SourceGraphic" in2="effect2_dropShadow_472_5850" result="shape"/>
</filter>
<filter id="filter14_b_472_5850" x="-16.8125" y="199.398" width="111.639" height="141.213" filterUnits="userSpaceOnUse" color-interpolation-filters="sRGB">
<feFlood flood-opacity="0" result="BackgroundImageFix"/>
<feGaussianBlur in="BackgroundImageFix" stdDeviation="2"/>
<feComposite in2="SourceAlpha" operator="in" result="effect1_backgroundBlur_472_5850"/>
<feBlend mode="normal" in="SourceGraphic" in2="effect1_backgroundBlur_472_5850" result="shape"/>
</filter>
<filter id="filter15_b_472_5850" x="109.596" y="255.379" width="56.5938" height="104.855" filterUnits="userSpaceOnUse" color-interpolation-filters="sRGB">
<feFlood flood-opacity="0" result="BackgroundImageFix"/>
<feGaussianBlur in="BackgroundImageFix" stdDeviation="2"/>
<feComposite in2="SourceAlpha" operator="in" result="effect1_backgroundBlur_472_5850"/>
<feBlend mode="normal" in="SourceGraphic" in2="effect1_backgroundBlur_472_5850" result="shape"/>
</filter>
<filter id="filter16_d_472_5850" x="1198.42" y="106.061" width="124.114" height="124.116" filterUnits="userSpaceOnUse" color-interpolation-filters="sRGB">
<feFlood flood-opacity="0" result="BackgroundImageFix"/>
<feColorMatrix in="SourceAlpha" type="matrix" values="0 0 0 0 0 0 0 0 0 0 0 0 0 0 0 0 0 0 127 0" result="hardAlpha"/>
<feOffset dx="6.6882" dy="20.0646"/>
<feGaussianBlur stdDeviation="22.0711"/>
<feColorMatrix type="matrix" values="0 0 0 0 0.237639 0 0 0 0 0.2478 0 0 0 0 0.491667 0 0 0 0.18 0"/>
<feBlend mode="normal" in2="BackgroundImageFix" result="effect1_dropShadow_472_5850"/>
<feBlend mode="normal" in="SourceGraphic" in2="effect1_dropShadow_472_5850" result="shape"/>
</filter>
<filter id="filter17_bd_472_5850" x="1151.68" y="304.125" width="38.5566" height="42.5566" filterUnits="userSpaceOnUse" color-interpolation-filters="sRGB">
<feFlood flood-opacity="0" result="BackgroundImageFix"/>
<feGaussianBlur in="BackgroundImageFix" stdDeviation="2"/>
<feComposite in2="SourceAlpha" operator="in" result="effect1_backgroundBlur_472_5850"/>
<feColorMatrix in="SourceAlpha" type="matrix" values="0 0 0 0 0 0 0 0 0 0 0 0 0 0 0 0 0 0 127 0" result="hardAlpha"/>
<feOffset dy="4"/>
<feGaussianBlur stdDeviation="2"/>
<feComposite in2="hardAlpha" operator="out"/>
<feColorMatrix type="matrix" values="0 0 0 0 0.0762847 0 0 0 0 0.139073 0 0 0 0 0.704167 0 0 0 0.13 0"/>
<feBlend mode="normal" in2="effect1_backgroundBlur_472_5850" result="effect2_dropShadow_472_5850"/>
<feBlend mode="normal" in="SourceGraphic" in2="effect2_dropShadow_472_5850" result="shape"/>
</filter>
<filter id="filter18_d_472_5850" x="1145.68" y="306.125" width="50.5566" height="50.5566" filterUnits="userSpaceOnUse" color-interpolation-filters="sRGB">
<feFlood flood-opacity="0" result="BackgroundImageFix"/>
<feColorMatrix in="SourceAlpha" type="matrix" values="0 0 0 0 0 0 0 0 0 0 0 0 0 0 0 0 0 0 127 0" result="hardAlpha"/>
<feOffset dy="8"/>
<feGaussianBlur stdDeviation="5"/>
<feComposite in2="hardAlpha" operator="out"/>
<feColorMatrix type="matrix" values="0 0 0 0 0.239216 0 0 0 0 0.247059 0 0 0 0 0.490196 0 0 0 0.18 0"/>
<feBlend mode="normal" in2="BackgroundImageFix" result="effect1_dropShadow_472_5850"/>
<feBlend mode="normal" in="SourceGraphic" in2="effect1_dropShadow_472_5850" result="shape"/>
</filter>
<radialGradient id="paint0_radial_472_5850" cx="0" cy="0" r="1" gradientUnits="userSpaceOnUse" gradientTransform="translate(1138.94 306.418) scale(45.5199)">
<stop stop-color="#F39781"/>
<stop offset="1" stop-color="#123C85" stop-opacity="0.47"/>
</radialGradient>
<radialGradient id="paint1_radial_472_5850" cx="0" cy="0" r="1" gradientUnits="userSpaceOnUse" gradientTransform="translate(638.808 540.345) scale(1091.07 780.873)">
<stop stop-color="#1853D4"/>
<stop offset="0.56" stop-color="#1AD0FF"/>
<stop offset="1" stop-color="white"/>
</radialGradient>
<radialGradient id="paint2_radial_472_5850" cx="0" cy="0" r="1" gradientUnits="userSpaceOnUse" gradientTransform="translate(651.043 689.013) scale(1124.24 804.609)">
<stop stop-color="#1853D4"/>
<stop offset="0.56" stop-color="#1AD0FF"/>
<stop offset="1" stop-color="white"/>
</radialGradient>
<radialGradient id="paint3_radial_472_5850" cx="0" cy="0" r="1" gradientUnits="userSpaceOnUse" gradientTransform="translate(577.735 673.713) scale(1258.79 900.909)">
<stop stop-color="#1853D4"/>
<stop offset="0.56" stop-color="#1AD0FF"/>
<stop offset="1" stop-color="white"/>
</radialGradient>
<radialGradient id="paint4_radial_472_5850" cx="0" cy="0" r="1" gradientUnits="userSpaceOnUse" gradientTransform="translate(990.159 568.78) scale(1368.67 979.547)">
<stop stop-color="#1853D4"/>
<stop offset="0.56" stop-color="#1AD0FF"/>
<stop offset="1" stop-color="white"/>
</radialGradient>
<radialGradient id="paint5_radial_472_5850" cx="0" cy="0" r="1" gradientUnits="userSpaceOnUse" gradientTransform="translate(619.238 714.994) scale(1200.14 1228.13)">
<stop stop-color="#A8EDFF"/>
<stop offset="1" stop-color="white"/>
</radialGradient>
<radialGradient id="paint6_radial_472_5850" cx="0" cy="0" r="1" gradientUnits="userSpaceOnUse" gradientTransform="translate(632.697 948.859) scale(1236.66 1265.5)">
<stop stop-color="#A8EDFF"/>
<stop offset="1" stop-color="white"/>
</radialGradient>
<radialGradient id="paint7_radial_472_5850" cx="0" cy="0" r="1" gradientUnits="userSpaceOnUse" gradientTransform="translate(552.058 924.757) scale(1384.67 1416.96)">
<stop stop-color="#A8EDFF"/>
<stop offset="1" stop-color="white"/>
</radialGradient>
<radialGradient id="paint8_radial_472_5850" cx="0" cy="0" r="1" gradientUnits="userSpaceOnUse" gradientTransform="translate(1005.69 759.718) scale(1505.53 1540.65)">
<stop stop-color="#A8EDFF"/>
<stop offset="1" stop-color="white"/>
</radialGradient>
<linearGradient id="paint9_linear_472_5850" x1="1257.29" y1="200.307" x2="1257.29" y2="344.402" gradientUnits="userSpaceOnUse">
<stop stop-color="#8CB2EF"/>
<stop offset="1" stop-color="#4583E9" stop-opacity="0.13"/>
</linearGradient>
<linearGradient id="paint10_linear_472_5850" x1="1257.29" y1="200.307" x2="1257.29" y2="344.402" gradientUnits="userSpaceOnUse">
<stop stop-color="white" stop-opacity="0.69"/>
<stop offset="1" stop-color="white" stop-opacity="0"/>
</linearGradient>
<linearGradient id="paint11_linear_472_5850" x1="1257.29" y1="205.748" x2="1257.29" y2="338.961" gradientUnits="userSpaceOnUse">
<stop stop-color="#B6D2FF"/>
<stop offset="1" stop-color="#D9E7FF" stop-opacity="0.13"/>
</linearGradient>
<linearGradient id="paint12_linear_472_5850" x1="1018.37" y1="25.9746" x2="847.157" y2="25.9746" gradientUnits="userSpaceOnUse">
<stop stop-color="#89ECD8"/>
<stop offset="1" stop-color="#89ECD8" stop-opacity="0"/>
</linearGradient>
<linearGradient id="paint13_linear_472_5850" x1="1027.41" y1="-14.4102" x2="1027.41" y2="25.9745" gradientUnits="userSpaceOnUse">
<stop stop-color="#1EAFB3"/>
<stop offset="1" stop-color="#5AD7FF"/>
</linearGradient>
<linearGradient id="paint14_linear_472_5850" x1="683.324" y1="-7.16406" x2="683.324" y2="658.534" gradientUnits="userSpaceOnUse">
<stop offset="0.453125" stop-color="#3C46F4" stop-opacity="0"/>
<stop offset="0.71875" stop-color="#94CAFB" stop-opacity="0.91"/>
</linearGradient>
<linearGradient id="paint15_linear_472_5850" x1="904.58" y1="42.2468" x2="746.897" y2="42.2468" gradientUnits="userSpaceOnUse">
<stop stop-color="#78BDFD"/>
<stop offset="1" stop-color="#78BDFD" stop-opacity="0"/>
</linearGradient>
<linearGradient id="paint16_linear_472_5850" x1="529.762" y1="360.368" x2="169.408" y2="360.368" gradientUnits="userSpaceOnUse">
<stop stop-color="#78BDFD"/>
<stop offset="1" stop-color="#78BDFD" stop-opacity="0"/>
</linearGradient>
<linearGradient id="paint17_linear_472_5850" x1="1307.13" y1="80.0046" x2="946.777" y2="80.0046" gradientUnits="userSpaceOnUse">
<stop stop-color="#37C3FF"/>
<stop offset="1" stop-color="#78BDFD" stop-opacity="0"/>
</linearGradient>
<linearGradient id="paint18_linear_472_5850" x1="218.943" y1="489.412" x2="-13.8563" y2="489.412" gradientUnits="userSpaceOnUse">
<stop stop-color="#89ECD8"/>
<stop offset="1" stop-color="#89ECD8" stop-opacity="0"/>
</linearGradient>
<linearGradient id="paint19_linear_472_5850" x1="231.232" y1="434.502" x2="231.232" y2="489.412" gradientUnits="userSpaceOnUse">
<stop stop-color="#23A3FF"/>
<stop offset="1" stop-color="white"/>
</linearGradient>
<linearGradient id="paint20_linear_472_5850" x1="694.168" y1="50.8893" x2="577.276" y2="50.8893" gradientUnits="userSpaceOnUse">
<stop stop-color="#89ECD8"/>
<stop offset="1" stop-color="#89ECD8" stop-opacity="0"/>
</linearGradient>
<linearGradient id="paint21_linear_472_5850" x1="700.339" y1="23.3184" x2="700.339" y2="50.8893" gradientUnits="userSpaceOnUse">
<stop stop-color="#23A3FF"/>
<stop offset="1" stop-color="white"/>
</linearGradient>
<linearGradient id="paint22_linear_472_5850" x1="1293.67" y1="440.555" x2="1122.46" y2="440.555" gradientUnits="userSpaceOnUse">
<stop stop-color="#F4FFFF"/>
<stop offset="1" stop-color="#89ECD8" stop-opacity="0"/>
</linearGradient>
<linearGradient id="paint23_linear_472_5850" x1="1331.49" y1="411.774" x2="1302.71" y2="440.555" gradientUnits="userSpaceOnUse">
<stop stop-color="#287EFF"/>
<stop offset="1" stop-color="#F9FDFF"/>
</linearGradient>
<linearGradient id="paint24_linear_472_5850" x1="1140.8" y1="281.316" x2="1140.8" y2="328.045" gradientUnits="userSpaceOnUse">
<stop stop-color="#F7977F"/>
<stop offset="1" stop-color="#F5FFB7" stop-opacity="0.08"/>
</linearGradient>
<linearGradient id="paint25_linear_472_5850" x1="1253.79" y1="130.072" x2="1253.79" y2="166.029" gradientUnits="userSpaceOnUse">
<stop stop-color="#FB967C"/>
<stop offset="1" stop-color="#36A8DB"/>
</linearGradient>
<linearGradient id="paint26_linear_472_5850" x1="1253.79" y1="124.793" x2="1253.79" y2="171.31" gradientUnits="userSpaceOnUse">
<stop stop-color="#E0998A"/>
<stop offset="1" stop-color="#43A7D5" stop-opacity="0"/>
</linearGradient>
<linearGradient id="paint27_linear_472_5850" x1="42.1863" y1="112.355" x2="42.1863" y2="148.312" gradientUnits="userSpaceOnUse">
<stop stop-color="#FB967C"/>
<stop offset="1" stop-color="#36A8DB"/>
</linearGradient>
<linearGradient id="paint28_linear_472_5850" x1="42.1863" y1="107.076" x2="42.1863" y2="153.593" gradientUnits="userSpaceOnUse">
<stop stop-color="#E0998A"/>
<stop offset="1" stop-color="#43A7D5" stop-opacity="0"/>
</linearGradient>
<linearGradient id="paint29_linear_472_5850" x1="39.007" y1="197.957" x2="39.007" y2="342.052" gradientUnits="userSpaceOnUse">
<stop stop-color="#8CB2EF"/>
<stop offset="1" stop-color="#4583E9" stop-opacity="0.13"/>
</linearGradient>
<linearGradient id="paint30_linear_472_5850" x1="39.007" y1="197.957" x2="39.007" y2="342.052" gradientUnits="userSpaceOnUse">
<stop stop-color="white" stop-opacity="0.69"/>
<stop offset="1" stop-color="white" stop-opacity="0"/>
</linearGradient>
<linearGradient id="paint31_linear_472_5850" x1="39.0071" y1="203.398" x2="39.0071" y2="336.611" gradientUnits="userSpaceOnUse">
<stop stop-color="#B6D2FF"/>
<stop offset="1" stop-color="#D9E7FF" stop-opacity="0.13"/>
</linearGradient>
<linearGradient id="paint32_linear_472_5850" x1="137.892" y1="259.379" x2="137.892" y2="356.234" gradientUnits="userSpaceOnUse">
<stop stop-color="#B6D2FF"/>
<stop offset="1" stop-color="#D9E7FF" stop-opacity="0.13"/>
</linearGradient>
<linearGradient id="paint33_linear_472_5850" x1="1332.19" y1="104.35" x2="1332.19" y2="190.689" gradientUnits="userSpaceOnUse">
<stop stop-color="#AECDFF"/>
<stop offset="1" stop-color="#D9E7FF" stop-opacity="0.36"/>
</linearGradient>
<linearGradient id="paint34_linear_472_5850" x1="1170.95" y1="309.043" x2="1170.95" y2="337.766" gradientUnits="userSpaceOnUse">
<stop stop-color="#EAEEF6"/>
<stop offset="1" stop-color="#EAEEF6" stop-opacity="0"/>
</linearGradient>
<clipPath id="clip0_472_5850">
<rect width="1440" height="582" fill="white" transform="translate(0 0.582031)"/>
</clipPath>
<clipPath id="clip1_472_5850">
<rect width="2141.55" height="634.711" fill="white" transform="translate(-361.701 -88.8516)"/>
</clipPath>
<clipPath id="clip2_472_5850">
<rect x="-12.1738" y="205.611" width="103" height="131" rx="2" fill="white"/>
</clipPath>
<clipPath id="clip3_472_5850">
<rect width="48" height="97" fill="white" transform="translate(114.189 259.379)"/>
</clipPath>
<clipPath id="clip4_472_5850">
<rect width="31.3401" height="35.8239" fill="white" transform="translate(1245.35 170.023) rotate(-118.531)"/>
</clipPath>
<clipPath id="clip5_472_5850">
<rect width="10.2016" height="18.0019" fill="white" transform="translate(1165.85 314.402)"/>
</clipPath>
<clipPath id="clip6_472_5850">
<rect x="1206.11" y="207.363" width="103" height="131" rx="2" fill="white"/>
</clipPath>
<clipPath id="clip7_472_5850">
<rect width="39" height="39" fill="white" transform="translate(1279.48 300.787)"/>
</clipPath>
</defs>
</svg>
