<svg width="1440" height="583" viewBox="0 0 1440 583" fill="none" xmlns="http://www.w3.org/2000/svg">
<g clip-path="url(#clip0_472_5573)">
<rect width="1440" height="582" transform="translate(0 0.582031)" fill="white"/>
<g filter="url(#filter0_f_472_5573)">
<rect x="-72.7568" y="-7.0332" width="1585.94" height="481.695" fill="#143D95"/>
</g>
<g filter="url(#filter1_f_472_5573)">
<rect x="1197.64" y="-279.914" width="525.58" height="457.31" rx="228.655" transform="rotate(15 1197.64 -279.914)" fill="#23FFBD" fill-opacity="0.52"/>
</g>
<g filter="url(#filter2_b_472_5573)">
<rect x="1327.66" y="141.533" width="64.0198" height="82.6099" rx="3.53802" fill="#2E5FBC" fill-opacity="0.11"/>
</g>
<g filter="url(#filter3_b_472_5573)">
<rect x="1313.04" y="118.426" width="68.554" height="91.7419" rx="4.71736" fill="url(#paint0_linear_472_5573)" fill-opacity="0.8"/>
</g>
<rect x="1321.25" y="131.736" width="52.1324" height="5.16485" rx="0.5" stroke="#AED3E8"/>
<rect x="1321.25" y="144.871" width="52.1324" height="5.16485" rx="0.5" stroke="#AED3E8"/>
<rect x="1321.25" y="158.004" width="52.1324" height="5.16485" rx="0.5" stroke="#AED3E8"/>
<rect x="1321.25" y="171.139" width="52.1324" height="5.16485" rx="0.5" stroke="#AED3E8"/>
<path d="M1365.71 183.772C1362.61 183.772 1360.1 186.289 1360.1 189.383C1360.1 190.003 1360.6 190.505 1361.22 190.505C1361.84 190.505 1362.34 190.003 1362.34 189.383C1362.34 187.526 1363.85 186.016 1365.71 186.016C1367.56 186.016 1369.07 187.526 1369.07 189.383C1369.07 191.239 1367.56 192.749 1365.71 192.749C1365.09 192.749 1364.58 193.251 1364.58 193.871V196.677C1364.58 197.297 1365.09 197.799 1365.71 197.799C1366.33 197.799 1366.83 197.297 1366.83 196.677V194.881C1369.39 194.359 1371.32 192.092 1371.32 189.383C1371.32 186.289 1368.8 183.772 1365.71 183.772Z" fill="#AED3E8"/>
<path d="M1366.83 200.604C1366.83 202.1 1364.58 202.1 1364.58 200.604C1364.58 199.108 1366.83 199.108 1366.83 200.604Z" fill="#AED3E8"/>
<g opacity="0.1">
<g clip-path="url(#clip1_472_5573)">
<g style="mix-blend-mode:multiply">
<path d="M476.312 187.392C801.269 223.285 1010.71 326.188 1256.07 335.86C1380.93 340.78 1513.18 322.129 1607.66 259.966C1627.18 247.142 1656.4 267.942 1636.84 280.838C1553.09 335.932 1442.45 361.126 1330.31 365.449C967.648 379.467 726.517 186.651 149.19 203.129C20.3761 206.807 -117.993 223.953 -217.387 287.358C-237.149 299.967 -266.397 279.167 -246.566 266.486C-237.768 266.486 -84.483 125.444 476.278 187.392H476.312Z" fill="url(#paint1_radial_472_5573)"/>
</g>
<g style="mix-blend-mode:multiply">
<path d="M67.874 180.753C501.058 106.339 840.45 380.088 1281.13 271.143C1397.81 242.294 1513.08 185.362 1589.17 113.48C1644.61 61.1326 1721.8 121.647 1687.09 154.436C1531.23 301.639 1276.73 390.214 1017.21 377.915C707.717 363.228 435.929 229.064 150.806 251.942C47.459 260.229 -71.0446 297.388 -131.602 367.957C-147.137 386.035 -183.052 394.56 -209.207 382.5C-234.571 370.799 -246.153 346.344 -229.553 327.001C-226.632 327.001 -154.286 218.915 67.874 180.753Z" fill="url(#paint2_radial_472_5573)"/>
</g>
<g style="mix-blend-mode:multiply">
<path d="M41.8569 185.935C469.851 97.5035 826.29 359.933 1259.58 236.754C1374.3 204.132 1485.83 143.498 1557.28 69.2521C1609.31 15.1376 1690.29 73.097 1657.7 106.984C1511.36 259.107 1262.77 355.873 1002.74 352.004C692.63 347.395 412.593 222.21 129.222 254.354C26.494 266.008 -89.5005 306.988 -145.522 379.444C-159.888 397.999 -195.219 407.695 -222.095 396.495C-248.181 385.629 -261.31 361.581 -245.947 341.711C-243.026 341.616 -177.656 231.309 41.8913 185.935H41.8569Z" fill="url(#paint3_radial_472_5573)"/>
</g>
<g style="mix-blend-mode:multiply">
<path d="M466.723 170.699C591.653 199.619 702.596 251.131 818.59 293.878C1104.02 399.074 1379.9 390.238 1612.34 301.472C1624.06 297.006 1634.47 309.735 1622.75 314.201C1399.11 399.599 1127.94 407.265 895.061 336.124C664.653 265.746 498.273 145.982 173.11 158.759C33.8826 164.228 -102.493 195.488 -219.45 249.889C-230.619 255.071 -240.964 242.319 -229.863 237.16C-222.646 237.16 66.5328 78.0884 466.688 170.699H466.723Z" fill="url(#paint4_radial_472_5573)"/>
</g>
<g style="mix-blend-mode:multiply">
<path d="M439.881 131.461C796.938 187.821 1027.14 349.352 1296.73 364.517C1433.93 372.23 1579.24 342.952 1683.1 245.374C1704.55 225.218 1736.68 257.888 1715.13 278.115C1623.09 364.589 1501.5 404.136 1378.32 410.942C979.78 432.936 714.831 130.267 80.4182 156.13C-61.1467 161.91 -213.194 188.824 -322.384 288.336C-344.105 308.11 -376.24 275.488 -354.415 255.595C-344.723 255.595 -176.282 34.1936 439.881 131.461Z" fill="url(#paint5_radial_472_5573)"/>
</g>
<g style="mix-blend-mode:multiply">
<path d="M-8.9408 121.049C467.067 4.223 840.002 433.963 1324.26 262.927C1452.45 217.648 1579.14 128.261 1662.76 15.4471C1723.66 -66.7277 1808.51 28.2713 1770.36 79.735C1599.07 310.808 1319.45 449.868 1034.25 430.524C694.175 407.479 395.476 196.848 82.1708 232.789C-31.418 245.804 -161.607 304.146 -228.179 414.906C-245.226 443.277 -284.716 456.674 -313.448 437.76C-341.321 419.396 -354.072 380.995 -335.788 350.642C-332.557 350.642 -253.097 180.991 -8.9408 121.073V121.049Z" fill="url(#paint6_radial_472_5573)"/>
</g>
<g style="mix-blend-mode:multiply">
<path d="M-37.5352 129.194C432.801 -9.62711 824.468 402.322 1300.58 208.956C1426.64 157.755 1549.2 62.5893 1627.7 -53.9982C1684.89 -138.919 1773.87 -47.9562 1738.06 5.20304C1577.25 243.99 1304.05 395.898 1018.34 389.832C677.576 382.596 369.838 186.102 58.4568 236.539C-54.4103 254.832 -181.884 319.144 -243.473 432.889C-259.248 462.024 -298.085 477.236 -327.642 459.684C-356.306 442.633 -370.74 404.877 -353.865 373.688C-350.635 373.545 -278.804 200.359 -37.5696 129.17L-37.5352 129.194Z" fill="url(#paint7_radial_472_5573)"/>
</g>
<g style="mix-blend-mode:multiply">
<path d="M429.331 105.241C566.634 150.639 688.54 231.501 815.979 298.606C1129.63 463.744 1432.76 449.845 1688.22 310.523C1701.08 303.502 1712.56 323.49 1699.67 330.512C1453.9 464.556 1155.92 476.592 900.045 364.924C646.885 254.45 464.009 66.4584 106.711 86.4946C-46.2645 95.0679 -196.147 144.167 -324.652 229.542C-336.921 237.686 -348.297 217.65 -336.096 209.554C-328.157 209.554 -10.4178 -40.1468 429.331 105.241Z" fill="url(#paint8_radial_472_5573)"/>
</g>
</g>
</g>
<g opacity="0.5">
<g opacity="0.3">
<rect x="809.188" y="-14.2793" width="219.445" height="40.3847" fill="url(#paint9_linear_472_5573)" style="mix-blend-mode:screen"/>
</g>
<circle cx="1027.41" cy="5.91305" r="20.1924" transform="rotate(90 1027.41 5.91305)" fill="url(#paint10_linear_472_5573)"/>
</g>
<g filter="url(#filter4_f_472_5573)">
<rect x="133.611" y="-161.92" width="723.481" height="238.986" rx="119.493" transform="rotate(15 133.611 -161.92)" fill="#FF6332" fill-opacity="0.74"/>
</g>
<path d="M34.6504 -25.002V389.241" stroke="#64B2C4" stroke-opacity="0.18"/>
<path d="M761.998 26.1055L-26.707 26.1054" stroke="#64B2C4" stroke-opacity="0.18"/>
<path d="M761.998 55.1562L-26.707 55.1562" stroke="#64B2C4" stroke-opacity="0.18"/>
<path d="M761.998 84.207L-26.707 84.207" stroke="#64B2C4" stroke-opacity="0.18"/>
<path d="M761.998 113.258L-26.707 113.258" stroke="#64B2C4" stroke-opacity="0.18"/>
<path d="M761.998 142.309L-26.707 142.309" stroke="#64B2C4" stroke-opacity="0.18"/>
<path d="M761.998 171.359L-26.707 171.359" stroke="#64B2C4" stroke-opacity="0.18"/>
<path d="M761.998 200.41L-26.707 200.41" stroke="#64B2C4" stroke-opacity="0.18"/>
<path d="M761.998 229.461L-26.707 229.461" stroke="#64B2C4" stroke-opacity="0.18"/>
<path d="M761.998 258.512L-26.707 258.512" stroke="#64B2C4" stroke-opacity="0.18"/>
<path d="M761.998 287.562L-26.707 287.562" stroke="#64B2C4" stroke-opacity="0.18"/>
<path d="M761.998 316.613L-26.707 316.613" stroke="#64B2C4" stroke-opacity="0.18"/>
<path d="M761.998 345.664L-26.707 345.664" stroke="#64B2C4" stroke-opacity="0.18"/>
<path d="M761.998 374.715L-26.707 374.715" stroke="#64B2C4" stroke-opacity="0.18"/>
<path d="M62.625 -25.002V389.241" stroke="#64B2C4" stroke-opacity="0.18"/>
<path d="M90.5996 -25.002V389.241" stroke="#64B2C4" stroke-opacity="0.18"/>
<path d="M118.575 -25.002V389.241" stroke="#64B2C4" stroke-opacity="0.18"/>
<path d="M146.55 -25.002V389.241" stroke="#64B2C4" stroke-opacity="0.18"/>
<path d="M174.524 -25.002V389.241" stroke="#64B2C4" stroke-opacity="0.18"/>
<path d="M202.5 -25.002V389.241" stroke="#64B2C4" stroke-opacity="0.18"/>
<path d="M230.475 -25.002V389.241" stroke="#64B2C4" stroke-opacity="0.18"/>
<path d="M258.449 -25.002V389.241" stroke="#64B2C4" stroke-opacity="0.18"/>
<path d="M286.424 -25.002V389.241" stroke="#64B2C4" stroke-opacity="0.18"/>
<path d="M314.398 -25.002V389.241" stroke="#64B2C4" stroke-opacity="0.18"/>
<path d="M342.374 -25.002V389.241" stroke="#64B2C4" stroke-opacity="0.18"/>
<path d="M370.349 -25.002V389.241" stroke="#64B2C4" stroke-opacity="0.18"/>
<path d="M398.323 -25.002V389.241" stroke="#64B2C4" stroke-opacity="0.18"/>
<path d="M426.299 -25.002V389.241" stroke="#64B2C4" stroke-opacity="0.18"/>
<path d="M454.273 -25.002V389.241" stroke="#64B2C4" stroke-opacity="0.18"/>
<path d="M482.249 -25.002V389.241" stroke="#64B2C4" stroke-opacity="0.18"/>
<path d="M510.224 -25.002V389.241" stroke="#64B2C4" stroke-opacity="0.18"/>
<path d="M538.198 -25.002V389.241" stroke="#64B2C4" stroke-opacity="0.18"/>
<path d="M566.174 -25.002V389.241" stroke="#64B2C4" stroke-opacity="0.18"/>
<path d="M594.148 -25.002V389.241" stroke="#64B2C4" stroke-opacity="0.18"/>
<path d="M622.123 -25.002V389.241" stroke="#64B2C4" stroke-opacity="0.18"/>
<path d="M650.099 -25.002V389.241" stroke="#64B2C4" stroke-opacity="0.18"/>
<path d="M678.073 -25.002V389.241" stroke="#64B2C4" stroke-opacity="0.18"/>
<path d="M706.048 -25.002V389.241" stroke="#64B2C4" stroke-opacity="0.18"/>
<path d="M734.023 -25.002V389.241" stroke="#64B2C4" stroke-opacity="0.18"/>
<g filter="url(#filter5_f_472_5573)">
<rect x="594.438" y="-242.662" width="525.58" height="538.034" transform="rotate(15 594.438 -242.662)" fill="#0A2963"/>
</g>
<g filter="url(#filter6_f_472_5573)">
<rect x="-159.196" y="-334.287" width="525.58" height="457.31" rx="228.655" transform="rotate(15 -159.196 -334.287)" fill="#16C7FF" fill-opacity="0.56"/>
</g>
<g filter="url(#filter7_bd_472_5573)">
<rect x="-72.9707" y="-58.291" width="1585.94" height="58.8933" fill="white" fill-opacity="0.87" shape-rendering="crispEdges"/>
</g>
<path d="M-253.176 584.957V-1.79297H1619.82V584.957H1021.92H287.324H-253.176Z" fill="url(#paint11_linear_472_5573)"/>
<g filter="url(#filter8_b_472_5573)">
<circle cx="52.1454" cy="133.448" r="15.1591" fill="url(#paint12_linear_472_5573)"/>
</g>
<g filter="url(#filter9_b_472_5573)">
<circle cx="52.1465" cy="133.447" r="19.1113" stroke="url(#paint13_linear_472_5573)"/>
</g>
<path d="M61.2908 130.428C61.3364 130.731 61.1208 130.514 61.1208 130.514C60.2418 129.406 61.2742 127.552 61.2742 127.552C61.4068 127.34 61.5395 127.147 61.6763 126.972C59.5867 123.977 56.0914 122.014 52.1235 122.014C46.0204 122.014 41.0242 126.673 40.5723 132.58C42.8817 131.475 45.3984 134.208 45.3984 134.208L46.3894 135.178C49.3705 138.115 50.2287 138.09 50.6599 137.415C50.6599 137.415 51.257 136.56 50.2619 134.826C49.0554 132.731 50.378 131.181 50.378 131.181C53.8898 126.473 59.512 132.461 59.512 132.461C61.4981 134.417 62.7585 135.149 63.5546 135.358C63.6582 134.736 63.7163 134.102 63.7163 133.451C63.7163 132.073 63.4675 130.751 63.0156 129.528C61.4773 129.009 61.2617 130.236 61.2908 130.432V130.428Z" fill="white" fill-opacity="0.46"/>
<path d="M55.9495 135.979C53.611 133.676 52.2386 133.022 51.4426 133.018C51.3555 133.026 50.6921 133.099 50.8207 133.766C50.9367 134.347 53.0554 137.08 50.6092 139.501C47.1803 142.353 43.4985 138.029 43.4985 138.029C42.3583 136.981 40.9818 135.382 40.8076 135.91C41.952 141.039 46.5833 144.881 52.1226 144.881C56.3848 144.881 60.1081 142.61 62.1232 139.227C59.1669 139.403 55.9495 135.979 55.9495 135.979Z" fill="white"/>
<g opacity="0.2">
<rect x="711.93" y="37.2344" width="202.1" height="5.14331" rx="2.57166" fill="url(#paint14_linear_472_5573)" style="mix-blend-mode:screen"/>
</g>
<g opacity="0.15">
<rect x="89.498" y="355.355" width="461.857" height="5.14331" rx="2.57166" fill="url(#paint15_linear_472_5573)" style="mix-blend-mode:screen"/>
</g>
<g opacity="0.15">
<rect x="866.867" y="74.9922" width="461.857" height="5.14331" rx="2.57166" fill="url(#paint16_linear_472_5573)" style="mix-blend-mode:screen"/>
</g>
<g opacity="0.15">
<rect x="551.355" y="266.795" width="461.857" height="5.14331" rx="2.57166" fill="url(#paint17_linear_472_5573)" style="mix-blend-mode:screen"/>
</g>
<path d="M330.252 336.527C331.093 333.576 333.411 331.276 336.368 330.458L337.287 330.205L336.369 329.951H336.368C333.411 329.133 331.092 326.833 330.252 323.882L329.989 322.965L329.726 323.882C328.886 326.833 326.567 329.133 323.61 329.951L322.691 330.205L323.609 330.458H323.61C326.567 331.276 328.886 333.576 329.726 336.527L329.989 337.444L330.252 336.527Z" fill="#9AC1FF" fill-opacity="0.32"/>
<path d="M851.161 83.6913C851.634 82.0319 852.937 80.7382 854.601 80.2787L855.117 80.1359L854.601 79.9931H854.601C852.937 79.5335 851.634 78.2397 851.161 76.5804L851.013 76.0645L850.865 76.5804C850.393 78.2399 849.089 79.5335 847.426 79.9931L846.909 80.1359L847.425 80.2787H847.426C849.089 80.7383 850.393 82.0321 850.865 83.6913L851.013 84.2073L851.161 83.6913Z" fill="#A3C5FA"/>
<g opacity="0.5">
<g opacity="0.3">
<rect x="-60.3867" y="419.752" width="298.374" height="54.9101" fill="url(#paint18_linear_472_5573)" style="mix-blend-mode:screen"/>
</g>
<circle cx="236.326" cy="447.207" r="27.455" transform="rotate(90 236.326 447.207)" fill="url(#paint19_linear_472_5573)"/>
</g>
<path d="M251.502 442.2C251.577 442.702 251.22 442.342 251.22 442.342C249.761 440.503 251.474 437.429 251.474 437.429C251.694 437.076 251.914 436.757 252.141 436.465C248.675 431.498 242.876 428.24 236.293 428.24C226.168 428.24 217.88 435.97 217.13 445.77C220.961 443.937 225.136 448.471 225.136 448.471L226.78 450.079C231.726 454.952 233.15 454.911 233.865 453.791C233.865 453.791 234.856 452.373 233.205 449.495C231.203 446.021 233.397 443.449 233.397 443.449C239.224 435.637 248.551 445.573 248.551 445.573C251.846 448.817 253.937 450.031 255.257 450.378C255.429 449.346 255.526 448.294 255.526 447.215C255.526 444.928 255.113 442.736 254.363 440.707C251.811 439.845 251.453 441.881 251.502 442.207V442.2Z" fill="white" fill-opacity="0.46"/>
<path d="M242.642 451.409C238.762 447.589 236.485 446.503 235.165 446.496C235.02 446.51 233.92 446.632 234.133 447.738C234.326 448.702 237.84 453.235 233.782 457.253C228.094 461.983 221.986 454.809 221.986 454.809C220.094 453.072 217.81 450.419 217.521 451.294C219.42 459.804 227.103 466.177 236.293 466.177C243.364 466.177 249.541 462.41 252.884 456.798C247.979 457.09 242.642 451.409 242.642 451.409Z" fill="white"/>
<g opacity="0.5">
<g opacity="0.5">
<g opacity="0.3">
<rect x="551.355" y="23.4492" width="149.817" height="27.5709" fill="url(#paint20_linear_472_5573)" style="mix-blend-mode:screen"/>
</g>
<circle cx="700.339" cy="37.2347" r="13.7855" transform="rotate(90 700.339 37.2347)" fill="url(#paint21_linear_472_5573)"/>
</g>
<path d="M707.959 34.7202C707.997 34.9724 707.817 34.7918 707.817 34.7918C707.085 33.8683 707.945 32.3247 707.945 32.3247C708.055 32.1475 708.166 31.9874 708.28 31.8409C706.539 29.3465 703.628 27.7109 700.322 27.7109C695.238 27.7109 691.077 31.5921 690.7 36.5126C692.624 35.5925 694.72 37.8688 694.72 37.8688L695.546 38.6764C698.029 41.123 698.744 41.1025 699.103 40.5403C699.103 40.5403 699.601 39.8281 698.772 38.3833C697.767 36.6387 698.868 35.3472 698.868 35.3472C701.794 31.4251 706.477 36.4138 706.477 36.4138C708.131 38.0426 709.181 38.6525 709.844 38.8263C709.931 38.3083 709.979 37.7802 709.979 37.2384C709.979 36.09 709.772 34.9894 709.395 33.9706C708.114 33.5378 707.934 34.5601 707.959 34.7236V34.7202Z" fill="white" fill-opacity="0.46"/>
<path d="M703.51 39.344C701.562 37.4256 700.418 36.8804 699.755 36.877C699.683 36.8838 699.13 36.9451 699.237 37.5005C699.334 37.9844 701.099 40.2606 699.061 42.2779C696.205 44.6529 693.138 41.0512 693.138 41.0512C692.188 40.1788 691.042 38.8465 690.896 39.2861C691.85 43.5591 695.708 46.7588 700.322 46.7588C703.872 46.7588 706.974 44.8676 708.652 42.0496C706.19 42.1961 703.51 39.344 703.51 39.344Z" fill="white"/>
</g>
<g opacity="0.5">
<g opacity="0.3">
<rect x="1103.8" y="397.92" width="219.445" height="40.3847" fill="url(#paint22_linear_472_5573)" style="mix-blend-mode:screen"/>
</g>
<circle cx="1322.02" cy="418.112" r="20.1924" transform="rotate(90 1322.02 418.112)" fill="url(#paint23_linear_472_5573)"/>
</g>
<path d="M1333.18 414.429C1333.24 414.798 1332.98 414.534 1332.98 414.534C1331.9 413.181 1333.16 410.92 1333.16 410.92C1333.32 410.661 1333.49 410.426 1333.65 410.211C1331.1 406.558 1326.84 404.162 1322 404.162C1314.55 404.162 1308.45 409.847 1307.9 417.054C1310.72 415.707 1313.79 419.041 1313.79 419.041L1315 420.224C1318.64 423.807 1319.69 423.778 1320.21 422.954C1320.21 422.954 1320.94 421.911 1319.73 419.795C1318.25 417.239 1319.87 415.347 1319.87 415.347C1324.15 409.603 1331.01 416.91 1331.01 416.91C1333.44 419.295 1334.97 420.189 1335.94 420.443C1336.07 419.685 1336.14 418.911 1336.14 418.117C1336.14 416.435 1335.84 414.823 1335.29 413.331C1333.41 412.697 1333.15 414.194 1333.18 414.434V414.429Z" fill="white" fill-opacity="0.65"/>
<path d="M1326.67 421.202C1323.81 418.391 1322.14 417.593 1321.17 417.588C1321.06 417.598 1320.25 417.688 1320.41 418.501C1320.55 419.21 1323.14 422.544 1320.15 425.499C1315.97 428.978 1311.47 423.702 1311.47 423.702C1310.08 422.424 1308.4 420.473 1308.19 421.117C1309.59 427.376 1315.24 432.062 1322 432.062C1327.2 432.062 1331.74 429.292 1334.2 425.165C1330.59 425.379 1326.67 421.202 1326.67 421.202Z" fill="white"/>
<path d="M1657.22 370.4C1657.42 370.205 1657.42 369.889 1657.22 369.693L1654.04 366.511C1653.84 366.316 1653.53 366.316 1653.33 366.511C1653.14 366.707 1653.14 367.023 1653.33 367.218L1656.16 370.047L1653.33 372.875C1653.14 373.071 1653.14 373.387 1653.33 373.582C1653.53 373.778 1653.84 373.778 1654.04 373.582L1657.22 370.4ZM1423.68 465.675H1421.73V466.675H1423.68V465.675ZM1417.84 465.675H1413.94V466.675H1417.84V465.675ZM1410.05 465.675H1406.15V466.675H1410.05V465.675ZM1402.26 465.675H1398.36V466.675H1402.26V465.675ZM1394.46 465.675H1390.57V466.675H1394.46V465.675ZM1386.67 465.675H1382.78V466.675H1386.67V465.675ZM1378.88 465.675H1374.99V466.675H1378.88V465.675ZM1371.09 465.675H1369.14V466.675H1371.09V465.675ZM1369.14 465.675C1368.64 465.675 1368.15 465.626 1367.68 465.532L1367.49 466.513C1368.02 466.619 1368.58 466.675 1369.14 466.675V465.675ZM1364.98 464.412C1364.16 463.864 1363.46 463.16 1362.91 462.342L1362.08 462.898C1362.7 463.825 1363.49 464.622 1364.42 465.243L1364.98 464.412ZM1361.79 459.639C1361.69 459.166 1361.64 458.676 1361.64 458.175H1360.64C1360.64 458.742 1360.7 459.296 1360.81 459.833L1361.79 459.639ZM1361.64 458.175V456.172H1360.64V458.175H1361.64ZM1361.64 452.165V448.159H1360.64V452.165H1361.64ZM1361.64 444.152V440.146H1360.64V444.152H1361.64ZM1361.64 436.14V432.133H1360.64V436.14H1361.64ZM1361.64 428.127V424.12H1360.64V428.127H1361.64ZM1361.64 420.114V416.108H1360.64V420.114H1361.64ZM1361.64 412.101V408.095H1360.64V412.101H1361.64ZM1361.64 404.088V400.082H1360.64V404.088H1361.64ZM1361.64 396.076V392.069H1360.64V396.076H1361.64ZM1361.64 388.063V384.056H1360.64V388.063H1361.64ZM1361.64 380.05V378.047H1360.64V380.05H1361.64ZM1361.64 378.047C1361.64 377.545 1361.69 377.056 1361.79 376.583L1360.81 376.389C1360.7 376.925 1360.64 377.48 1360.64 378.047H1361.64ZM1362.91 373.88C1363.46 373.062 1364.16 372.358 1364.98 371.81L1364.42 370.979C1363.49 371.599 1362.7 372.397 1362.08 373.324L1362.91 373.88ZM1367.68 370.69C1368.15 370.596 1368.64 370.547 1369.14 370.547V369.547C1368.58 369.547 1368.02 369.602 1367.49 369.709L1367.68 370.69ZM1369.14 370.547H1371.14V369.547H1369.14V370.547ZM1375.14 370.547H1379.13V369.547H1375.14V370.547ZM1383.13 370.547H1387.13V369.547H1383.13V370.547ZM1391.12 370.547H1395.12V369.547H1391.12V370.547ZM1399.12 370.547H1403.11V369.547H1399.12V370.547ZM1407.11 370.547H1411.1V369.547H1407.11V370.547ZM1415.1 370.547H1419.1V369.547H1415.1V370.547ZM1423.09 370.547H1427.09V369.547H1423.09V370.547ZM1431.08 370.547H1435.08V369.547H1431.08V370.547ZM1439.08 370.547H1443.07V369.547H1439.08V370.547ZM1447.07 370.547H1451.07V369.547H1447.07V370.547ZM1455.06 370.547H1459.06V369.547H1455.06V370.547ZM1463.05 370.547H1467.05V369.547H1463.05V370.547ZM1471.05 370.547H1475.04V369.547H1471.05V370.547ZM1479.04 370.547H1483.03V369.547H1479.04V370.547ZM1487.03 370.547H1491.03V369.547H1487.03V370.547ZM1495.02 370.547H1499.02V369.547H1495.02V370.547ZM1503.02 370.547H1507.01V369.547H1503.02V370.547ZM1511.01 370.547H1515V369.547H1511.01V370.547ZM1519 370.547H1523V369.547H1519V370.547ZM1526.99 370.547H1530.99V369.547H1526.99V370.547ZM1534.98 370.547H1538.98V369.547H1534.98V370.547ZM1542.98 370.547H1546.97V369.547H1542.98V370.547ZM1550.97 370.547H1554.97V369.547H1550.97V370.547ZM1558.96 370.547H1562.96V369.547H1558.96V370.547ZM1566.95 370.547H1570.95V369.547H1566.95V370.547ZM1574.95 370.547H1578.94V369.547H1574.95V370.547ZM1582.94 370.547H1586.93V369.547H1582.94V370.547ZM1590.93 370.547H1594.93V369.547H1590.93V370.547ZM1598.92 370.547H1602.92V369.547H1598.92V370.547ZM1606.92 370.547H1610.91V369.547H1606.92V370.547ZM1614.91 370.547H1618.9V369.547H1614.91V370.547ZM1622.9 370.547H1626.9V369.547H1622.9V370.547ZM1630.89 370.547H1634.89V369.547H1630.89V370.547ZM1638.88 370.547H1642.88V369.547H1638.88V370.547ZM1646.88 370.547H1650.87V369.547H1646.88V370.547ZM1654.87 370.547H1656.87V369.547H1654.87V370.547Z" fill="white" fill-opacity="0.3"/>
<g filter="url(#filter10_b_472_5573)">
<rect x="1153.95" y="172.135" width="67.6852" height="42.3132" rx="2.35868" fill="url(#paint24_linear_472_5573)"/>
</g>
<path d="M1155.68 174.512L1186.09 203.539C1187.04 204.448 1188.54 204.448 1189.49 203.539L1219.9 174.512" stroke="white" stroke-opacity="0.3" stroke-width="1.23187"/>
<path d="M1155.54 212.665L1175.37 194.6" stroke="white" stroke-opacity="0.3" stroke-width="1.23187"/>
<path d="M1219.89 212.665L1200.06 194.6" stroke="white" stroke-opacity="0.3" stroke-width="1.23187"/>
<path d="M1188.17 193.78C1186.9 193.78 1185.77 193.606 1184.79 193.257C1183.81 192.913 1182.99 192.405 1182.32 191.733C1181.64 191.066 1181.13 190.246 1180.79 189.275C1180.44 188.304 1180.26 187.196 1180.26 185.951C1180.26 184.738 1180.44 183.648 1180.79 182.682C1181.14 181.715 1181.66 180.891 1182.33 180.211C1183 179.527 1183.82 179.005 1184.79 178.644C1185.76 178.284 1186.86 178.104 1188.09 178.104C1189.26 178.104 1190.3 178.288 1191.19 178.657C1192.09 179.025 1192.85 179.531 1193.46 180.174C1194.07 180.818 1194.53 181.555 1194.84 182.387C1195.16 183.218 1195.31 184.097 1195.31 185.023C1195.31 185.67 1195.27 186.303 1195.19 186.922C1195.11 187.536 1194.96 188.093 1194.73 188.593C1194.52 189.089 1194.2 189.486 1193.79 189.785C1193.38 190.08 1192.85 190.234 1192.19 190.246C1191.84 190.258 1191.5 190.218 1191.18 190.123C1190.85 190.029 1190.57 189.877 1190.34 189.669C1190.11 189.456 1189.97 189.185 1189.92 188.857H1189.85C1189.75 189.099 1189.59 189.324 1189.36 189.533C1189.13 189.738 1188.84 189.902 1188.48 190.025C1188.13 190.144 1187.72 190.193 1187.25 190.172C1186.73 190.152 1186.27 190.035 1185.85 189.822C1185.44 189.609 1185.09 189.314 1184.79 188.937C1184.5 188.56 1184.28 188.114 1184.12 187.598C1183.97 187.081 1183.89 186.508 1183.89 185.877C1183.89 185.271 1183.98 184.728 1184.15 184.249C1184.33 183.765 1184.57 183.349 1184.87 183.001C1185.18 182.649 1185.53 182.37 1185.93 182.165C1186.33 181.961 1186.75 181.832 1187.19 181.778C1187.62 181.729 1188.01 181.741 1188.37 181.815C1188.73 181.889 1189.03 182.002 1189.27 182.153C1189.51 182.305 1189.66 182.471 1189.73 182.651H1189.81V181.963H1191.32V187.665C1191.32 187.989 1191.4 188.263 1191.57 188.489C1191.74 188.714 1191.99 188.827 1192.3 188.827C1192.67 188.827 1192.96 188.689 1193.17 188.415C1193.39 188.14 1193.54 187.719 1193.62 187.149C1193.71 186.58 1193.76 185.85 1193.76 184.961C1193.76 184.339 1193.67 183.753 1193.51 183.204C1193.34 182.651 1193.1 182.151 1192.77 181.705C1192.45 181.254 1192.06 180.867 1191.59 180.543C1191.13 180.219 1190.59 179.97 1190 179.793C1189.4 179.617 1188.74 179.529 1188.02 179.529C1187.04 179.529 1186.17 179.681 1185.41 179.984C1184.65 180.283 1184.01 180.715 1183.48 181.281C1182.96 181.846 1182.57 182.524 1182.3 183.315C1182.03 184.101 1181.9 184.984 1181.9 185.963C1181.9 186.983 1182.03 187.889 1182.31 188.679C1182.58 189.466 1182.99 190.129 1183.53 190.67C1184.06 191.211 1184.73 191.621 1185.52 191.899C1186.31 192.182 1187.22 192.323 1188.25 192.323C1188.71 192.323 1189.16 192.282 1189.6 192.2C1190.05 192.122 1190.44 192.032 1190.78 191.93C1191.13 191.832 1191.39 191.752 1191.56 191.69L1191.99 193.036C1191.74 193.155 1191.4 193.272 1190.98 193.386C1190.56 193.501 1190.11 193.595 1189.62 193.669C1189.13 193.743 1188.65 193.78 1188.17 193.78ZM1187.61 188.667C1188.14 188.667 1188.57 188.56 1188.89 188.347C1189.22 188.134 1189.45 187.817 1189.6 187.395C1189.74 186.969 1189.82 186.436 1189.82 185.797C1189.81 185.174 1189.73 184.679 1189.58 184.31C1189.43 183.937 1189.19 183.671 1188.87 183.511C1188.55 183.347 1188.13 183.265 1187.63 183.265C1187.17 183.265 1186.77 183.378 1186.44 183.603C1186.12 183.829 1185.87 184.134 1185.7 184.519C1185.53 184.904 1185.45 185.332 1185.44 185.803C1185.45 186.299 1185.52 186.766 1185.65 187.204C1185.79 187.639 1186.02 187.991 1186.33 188.261C1186.64 188.532 1187.07 188.667 1187.61 188.667Z" fill="white" fill-opacity="0.66"/>
<g filter="url(#filter11_b_472_5573)">
<circle cx="1217.55" cy="171.594" r="14.3465" fill="#FA8316" fill-opacity="0.51"/>
<circle cx="1217.55" cy="171.594" r="14.0516" stroke="url(#paint25_linear_472_5573)" stroke-width="0.58967"/>
</g>
<path d="M1218.52 165.455L1218.37 174.009H1216.74L1216.59 165.455H1218.52ZM1217.56 177.574C1217.23 177.574 1216.95 177.461 1216.72 177.234C1216.49 177.004 1216.38 176.726 1216.38 176.402C1216.38 176.081 1216.49 175.808 1216.72 175.581C1216.95 175.35 1217.23 175.235 1217.56 175.235C1217.87 175.235 1218.15 175.35 1218.38 175.581C1218.61 175.808 1218.72 176.081 1218.73 176.402C1218.72 176.617 1218.67 176.814 1218.56 176.994C1218.45 177.17 1218.31 177.31 1218.14 177.416C1217.96 177.522 1217.77 177.574 1217.56 177.574Z" fill="#E9DDC7"/>
<path d="M1150.52 193.779L1144.63 190.375V197.184L1150.52 193.779ZM1143.34 193.19H1138.55V194.369H1143.34V193.19ZM1133.76 193.19H1131.36V194.369H1133.76V193.19ZM1131.36 193.19C1130.81 193.19 1130.27 193.301 1129.78 193.503L1130.24 194.592C1130.58 194.449 1130.96 194.369 1131.36 194.369V193.19ZM1127.55 195.737C1127.35 196.225 1127.24 196.759 1127.24 197.317H1128.42C1128.42 196.916 1128.5 196.536 1128.64 196.189L1127.55 195.737ZM1127.24 197.317V199.758H1128.42V197.317H1127.24ZM1127.24 204.639V209.521H1128.42V204.639H1127.24ZM1127.24 214.402V219.283H1128.42V214.402H1127.24ZM1127.24 224.165V229.046H1128.42V224.165H1127.24ZM1127.24 233.927V238.809H1128.42V233.927H1127.24ZM1127.24 243.69V248.571H1128.42V243.69H1127.24ZM1127.24 253.453V258.334H1128.42V253.453H1127.24ZM1127.24 263.215V268.097H1128.42V263.215H1127.24ZM1127.24 272.978V277.859H1128.42V272.978H1127.24ZM1127.24 282.741V285.181H1128.42V282.741H1127.24ZM1127.24 285.181C1127.24 285.85 1127.3 286.504 1127.43 287.137L1128.58 286.908C1128.47 286.35 1128.42 285.773 1128.42 285.181H1127.24ZM1128.93 290.751C1129.66 291.844 1130.6 292.785 1131.69 293.517L1132.35 292.537C1131.38 291.891 1130.55 291.06 1129.91 290.095L1128.93 290.751ZM1135.31 295.015C1135.94 295.14 1136.59 295.206 1137.26 295.206V294.026C1136.67 294.026 1136.09 293.968 1135.53 293.858L1135.31 295.015ZM1137.26 295.206H1139.5V294.026H1137.26V295.206ZM1143.97 295.206H1148.44V294.026H1143.97V295.206ZM1152.92 295.206H1157.39V294.026H1152.92V295.206ZM1161.86 295.206H1166.33V294.026H1161.86V295.206ZM1170.81 295.206H1175.28V294.026H1170.81V295.206ZM1179.75 295.206H1184.23V294.026H1179.75V295.206ZM1188.7 295.206H1190.93V294.026H1188.7V295.206Z" fill="white" fill-opacity="0.3"/>
<g opacity="0.2">
<g filter="url(#filter12_b_472_5573)">
<path d="M1271.19 165.079L1278.62 156.744L1297.23 156.744C1299.19 156.744 1300.77 158.328 1300.77 160.282L1300.77 203.178C1300.77 205.997 1298.48 208.281 1295.67 208.281L1264.52 208.281C1261.7 208.281 1259.42 205.997 1259.42 203.178L1259.42 175.934L1271.19 165.079Z" fill="url(#paint26_linear_472_5573)"/>
<path d="M1271.4 165.313L1271.41 165.303L1271.43 165.291L1278.76 157.063L1297.23 157.063C1299.01 157.063 1300.45 158.504 1300.45 160.282L1300.45 203.178C1300.45 205.821 1298.31 207.962 1295.67 207.962L1264.52 207.962C1261.88 207.962 1259.73 205.821 1259.73 203.178L1259.73 176.074L1271.4 165.313Z" stroke="url(#paint27_linear_472_5573)" stroke-width="0.637868"/>
</g>
<g filter="url(#filter13_d_472_5573)">
<mask id="path-99-inside-1_472_5573" fill="white">
<path fill-rule="evenodd" clip-rule="evenodd" d="M1259.26 175.875H1276.08C1277.49 175.875 1278.63 174.733 1278.63 173.324L1278.63 156.596C1277.41 156.841 1276.27 157.443 1275.38 158.339L1260.98 172.736C1260.11 173.604 1259.52 174.695 1259.26 175.875Z"/>
</mask>
<path fill-rule="evenodd" clip-rule="evenodd" d="M1259.26 175.875H1276.08C1277.49 175.875 1278.63 174.733 1278.63 173.324L1278.63 156.596C1277.41 156.841 1276.27 157.443 1275.38 158.339L1260.98 172.736C1260.11 173.604 1259.52 174.695 1259.26 175.875Z" fill="url(#paint28_linear_472_5573)"/>
<path d="M1259.26 175.875L1258.64 175.738L1258.47 176.513H1259.26V175.875ZM1278.63 173.324H1278H1278.63ZM1278.63 156.596L1279.27 156.596V155.817L1278.51 155.97L1278.63 156.596ZM1275.38 158.339L1275.83 158.79V158.79L1275.38 158.339ZM1260.98 172.736L1261.43 173.187H1261.43L1260.98 172.736ZM1276.08 175.237H1259.26V176.513H1276.08V175.237ZM1278 173.324C1278 174.38 1277.14 175.237 1276.08 175.237V176.513C1277.84 176.513 1279.27 175.085 1279.27 173.324H1278ZM1278 156.596L1278 173.324H1279.27L1279.27 156.596L1278 156.596ZM1278.51 155.97C1277.16 156.241 1275.91 156.903 1274.93 157.888L1275.83 158.79C1276.64 157.984 1277.66 157.442 1278.76 157.221L1278.51 155.97ZM1274.93 157.888L1260.53 172.285L1261.43 173.187L1275.83 158.79L1274.93 157.888ZM1260.53 172.285C1259.58 173.239 1258.93 174.44 1258.64 175.738L1259.89 176.012C1260.12 174.95 1260.65 173.968 1261.43 173.187L1260.53 172.285Z" fill="url(#paint29_linear_472_5573)" mask="url(#path-99-inside-1_472_5573)"/>
</g>
</g>
<g filter="url(#filter14_bd_472_5573)">
<path d="M1259.88 155.513L1267.31 147.178L1284.36 147.178C1287.18 147.178 1289.46 149.462 1289.46 152.281L1289.46 193.612C1289.46 196.43 1287.18 198.715 1284.36 198.715L1253.21 198.715C1250.4 198.715 1248.11 196.43 1248.11 193.612L1248.11 166.368L1259.88 155.513Z" fill="url(#paint30_linear_472_5573)" shape-rendering="crispEdges"/>
<path d="M1260.1 155.747L1260.11 155.736L1260.12 155.725L1267.46 147.497L1284.36 147.497C1287 147.497 1289.15 149.639 1289.15 152.281L1289.15 193.612C1289.15 196.254 1287 198.396 1284.36 198.396L1253.21 198.396C1250.57 198.396 1248.43 196.254 1248.43 193.612L1248.43 166.507L1260.1 155.747Z" stroke="url(#paint31_linear_472_5573)" stroke-width="0.637868" shape-rendering="crispEdges"/>
</g>
<g filter="url(#filter15_d_472_5573)">
<mask id="path-103-inside-2_472_5573" fill="white">
<path fill-rule="evenodd" clip-rule="evenodd" d="M1247.95 166.31H1264.78C1266.18 166.31 1267.33 165.168 1267.33 163.759L1267.33 147.029C1266.1 147.274 1264.96 147.877 1264.07 148.774L1249.67 163.167C1248.8 164.035 1248.21 165.129 1247.95 166.31Z"/>
</mask>
<path fill-rule="evenodd" clip-rule="evenodd" d="M1247.95 166.31H1264.78C1266.18 166.31 1267.33 165.168 1267.33 163.759L1267.33 147.029C1266.1 147.274 1264.96 147.877 1264.07 148.774L1249.67 163.167C1248.8 164.035 1248.21 165.129 1247.95 166.31Z" fill="url(#paint32_linear_472_5573)"/>
<path d="M1247.95 166.31L1247.33 166.174L1247.16 166.948H1247.95V166.31ZM1267.33 163.759H1266.69H1267.33ZM1267.33 147.029L1267.96 147.029L1267.96 146.251L1267.2 146.404L1267.33 147.029ZM1264.07 148.774L1264.52 149.225L1264.07 148.774ZM1249.67 163.167L1249.22 162.716L1249.22 162.716L1249.67 163.167ZM1264.78 165.673H1247.95V166.948H1264.78V165.673ZM1266.69 163.759C1266.69 164.816 1265.83 165.673 1264.78 165.673V166.948C1266.54 166.948 1267.96 165.52 1267.96 163.759L1266.69 163.759ZM1266.69 147.029L1266.69 163.759H1267.96L1267.96 147.029L1266.69 147.029ZM1267.2 146.404C1265.85 146.673 1264.6 147.336 1263.61 148.323L1264.52 149.225C1265.32 148.417 1266.35 147.875 1267.45 147.655L1267.2 146.404ZM1263.61 148.323L1249.22 162.716L1250.12 163.618L1264.52 149.225L1263.61 148.323ZM1249.22 162.716C1248.27 163.671 1247.62 164.874 1247.33 166.174L1248.58 166.447C1248.81 165.384 1249.34 164.4 1250.12 163.618L1249.22 162.716Z" fill="url(#paint33_linear_472_5573)" mask="url(#path-103-inside-2_472_5573)"/>
</g>
<path d="M1278.64 193.377C1280.05 193.377 1281.41 192.815 1282.41 191.815C1283.41 190.814 1283.97 189.458 1283.97 188.044V183.472C1283.97 183.051 1283.63 182.71 1283.21 182.71C1282.79 182.71 1282.44 183.051 1282.44 183.472V188.044C1282.44 189.404 1281.72 190.662 1280.54 191.343C1279.36 192.024 1277.91 192.024 1276.73 191.343C1275.55 190.662 1274.83 189.404 1274.83 188.044V181.949C1274.83 180.686 1275.85 179.663 1277.11 179.663C1278.37 179.663 1279.4 180.686 1279.4 181.949V188.044C1279.4 188.464 1279.06 188.806 1278.64 188.806C1278.21 188.806 1277.87 188.464 1277.87 188.044V183.472C1277.87 183.051 1277.53 182.71 1277.11 182.71C1276.69 182.71 1276.35 183.051 1276.35 183.472V188.044C1276.35 189.306 1277.37 190.329 1278.64 190.329C1279.9 190.329 1280.92 189.306 1280.92 188.044V181.949C1280.92 180.587 1280.19 179.33 1279.02 178.649C1277.84 177.968 1276.39 177.968 1275.21 178.649C1274.03 179.33 1273.3 180.587 1273.3 181.949V188.044C1273.3 189.458 1273.86 190.814 1274.86 191.815C1275.86 192.815 1277.22 193.377 1278.64 193.377Z" fill="#9EB9E5"/>
<g filter="url(#filter16_bd_472_5573)">
<rect x="1181.75" y="233.83" width="144.073" height="106.899" rx="8.25538" fill="url(#paint34_linear_472_5573)" shape-rendering="crispEdges"/>
<rect x="1182.04" y="234.125" width="143.483" height="106.309" rx="7.96055" stroke="url(#paint35_linear_472_5573)" stroke-width="0.58967" shape-rendering="crispEdges"/>
</g>
<g filter="url(#filter17_b_472_5573)">
<rect x="1185.83" y="237.867" width="135.9" height="98.8256" rx="4.71736" fill="url(#paint36_linear_472_5573)"/>
</g>
<rect x="1203.01" y="248.609" width="27.3933" height="34.9134" rx="2.35868" fill="white" fill-opacity="0.25"/>
<path d="M1211.81 254.72C1211.81 255.964 1210.8 256.972 1209.55 256.972C1208.31 256.972 1207.3 255.964 1207.3 254.72C1207.3 253.475 1208.31 252.467 1209.55 252.467C1210.8 252.467 1211.81 253.475 1211.81 254.72Z" fill="#325995"/>
<path d="M1213.04 261.446C1213.23 261.446 1213.38 261.297 1213.38 261.113C1213.38 259.005 1211.66 257.289 1209.55 257.289C1207.44 257.289 1205.73 259.005 1205.73 261.113C1205.73 261.297 1205.88 261.446 1206.06 261.446H1213.04Z" fill="#325995"/>
<rect x="1205.72" y="265.041" width="21.9747" height="1.37408" rx="0.687038" fill="#325995"/>
<rect x="1205.72" y="268.637" width="21.9747" height="1.37408" rx="0.687038" fill="#325995"/>
<rect x="1205.72" y="272.232" width="21.9747" height="1.37408" rx="0.687038" fill="#325995"/>
<rect x="1205.72" y="275.828" width="21.9747" height="1.37408" rx="0.687038" fill="#325995"/>
<rect x="1205.72" y="279.424" width="12.7575" height="1.37408" rx="0.687038" fill="#325995"/>
<rect x="1203.01" y="291.035" width="27.3933" height="34.9134" rx="2.35868" fill="white" fill-opacity="0.25"/>
<path d="M1211.81 297.148C1211.81 298.391 1210.8 299.4 1209.55 299.4C1208.31 299.4 1207.3 298.392 1207.3 297.148C1207.3 295.903 1208.31 294.895 1209.55 294.895C1210.8 294.895 1211.81 295.903 1211.81 297.148Z" fill="#325995"/>
<path d="M1213.04 303.876C1213.23 303.876 1213.38 303.727 1213.38 303.543C1213.38 301.434 1211.66 299.719 1209.55 299.719C1207.44 299.719 1205.73 301.434 1205.73 303.543C1205.73 303.727 1205.88 303.876 1206.06 303.876H1213.04Z" fill="#325995"/>
<rect x="1205.72" y="307.467" width="21.9747" height="1.37408" rx="0.687038" fill="#325995"/>
<rect x="1205.72" y="311.062" width="21.9747" height="1.37408" rx="0.687038" fill="#325995"/>
<rect x="1205.72" y="314.658" width="21.9747" height="1.37408" rx="0.687038" fill="#325995"/>
<rect x="1205.72" y="318.254" width="21.9747" height="1.37408" rx="0.687038" fill="#325995"/>
<rect x="1205.72" y="321.85" width="12.7575" height="1.37408" rx="0.687038" fill="#325995"/>
<g filter="url(#filter18_d_472_5573)">
<rect x="1240.67" y="249.199" width="26.214" height="33.7341" rx="1.76901" fill="white" fill-opacity="0.25" stroke="#00A56A" stroke-width="1.17934"/>
<path d="M1248.87 254.72C1248.87 255.964 1247.86 256.972 1246.61 256.972C1245.37 256.972 1244.36 255.964 1244.36 254.72C1244.36 253.475 1245.37 252.467 1246.61 252.467C1247.86 252.467 1248.87 253.475 1248.87 254.72Z" fill="#325995"/>
<path d="M1250.11 261.446C1250.29 261.446 1250.44 261.297 1250.44 261.113C1250.44 259.005 1248.72 257.289 1246.61 257.289C1244.51 257.289 1242.79 259.005 1242.79 261.113C1242.79 261.297 1242.94 261.446 1243.12 261.446H1250.11Z" fill="#325995"/>
<rect x="1242.8" y="265.041" width="21.9747" height="1.37408" rx="0.687038" fill="#325995"/>
<rect x="1242.8" y="268.637" width="21.9747" height="1.37408" rx="0.687038" fill="#325995"/>
<rect x="1242.8" y="272.232" width="21.9747" height="1.37408" rx="0.687038" fill="#325995"/>
<rect x="1242.8" y="275.828" width="18.4418" height="1.37408" rx="0.687038" fill="#325995"/>
<rect x="1242.8" y="279.424" width="12.7575" height="1.37408" rx="0.687038" fill="#325995"/>
</g>
<rect x="1240.08" y="291.035" width="27.3933" height="34.9134" rx="2.35868" fill="white" fill-opacity="0.25"/>
<path d="M1248.87 297.148C1248.87 298.391 1247.86 299.4 1246.61 299.4C1245.37 299.4 1244.36 298.392 1244.36 297.148C1244.36 295.903 1245.37 294.895 1246.61 294.895C1247.86 294.895 1248.87 295.903 1248.87 297.148Z" fill="#325995"/>
<path d="M1250.11 303.874C1250.29 303.874 1250.44 303.725 1250.44 303.541C1250.44 301.432 1248.72 299.717 1246.61 299.717C1244.51 299.717 1242.79 301.432 1242.79 303.541C1242.79 303.725 1242.94 303.874 1243.12 303.874H1250.11Z" fill="#325995"/>
<rect x="1242.8" y="307.467" width="21.9747" height="1.37408" rx="0.687038" fill="#325995"/>
<rect x="1242.8" y="311.062" width="21.9747" height="1.37408" rx="0.687038" fill="#325995"/>
<rect x="1242.8" y="314.658" width="21.9747" height="1.37408" rx="0.687038" fill="#325995"/>
<rect x="1242.8" y="318.254" width="21.9747" height="1.37408" rx="0.687038" fill="#325995"/>
<rect x="1242.8" y="321.85" width="12.7575" height="1.37408" rx="0.687038" fill="#325995"/>
<rect x="1277.16" y="248.609" width="27.3933" height="34.9134" rx="2.35868" fill="white" fill-opacity="0.25"/>
<path d="M1285.95 254.722C1285.95 255.966 1284.94 256.974 1283.7 256.974C1282.45 256.974 1281.45 255.966 1281.45 254.722C1281.45 253.477 1282.45 252.469 1283.7 252.469C1284.94 252.469 1285.95 253.477 1285.95 254.722Z" fill="#325995"/>
<path d="M1287.19 261.448C1287.37 261.448 1287.52 261.299 1287.52 261.115C1287.52 259.007 1285.81 257.291 1283.7 257.291C1281.59 257.291 1279.87 259.007 1279.87 261.115C1279.87 261.299 1280.02 261.448 1280.21 261.448H1287.19Z" fill="#325995"/>
<rect x="1279.87" y="265.041" width="21.9747" height="1.37408" rx="0.687038" fill="#325995"/>
<rect x="1279.87" y="268.637" width="21.9747" height="1.37408" rx="0.687038" fill="#325995"/>
<rect x="1279.87" y="272.232" width="21.9747" height="1.37408" rx="0.687038" fill="#325995"/>
<rect x="1279.87" y="275.83" width="21.9747" height="1.37408" rx="0.687038" fill="#325995"/>
<rect x="1279.87" y="279.424" width="12.7575" height="1.37408" rx="0.687038" fill="#325995"/>
<rect x="1277.16" y="291.035" width="27.3933" height="34.9134" rx="2.35868" fill="white" fill-opacity="0.25"/>
<path d="M1285.95 297.148C1285.95 298.391 1284.94 299.4 1283.7 299.4C1282.45 299.4 1281.45 298.392 1281.45 297.148C1281.45 295.903 1282.45 294.895 1283.7 294.895C1284.94 294.895 1285.95 295.903 1285.95 297.148Z" fill="#325995"/>
<path d="M1287.19 303.874C1287.37 303.874 1287.52 303.725 1287.52 303.541C1287.52 301.432 1285.81 299.717 1283.7 299.717C1281.59 299.717 1279.87 301.432 1279.87 303.541C1279.87 303.725 1280.02 303.874 1280.21 303.874H1287.19Z" fill="#325995"/>
<rect x="1279.87" y="307.467" width="21.9747" height="1.37408" rx="0.687038" fill="#325995"/>
<rect x="1279.87" y="311.062" width="21.9747" height="1.37408" rx="0.687038" fill="#325995"/>
<rect x="1279.87" y="314.658" width="21.9747" height="1.37408" rx="0.687038" fill="#325995"/>
<rect x="1279.87" y="318.254" width="21.9747" height="1.37408" rx="0.687038" fill="#325995"/>
<rect x="1279.87" y="321.85" width="12.7575" height="1.37408" rx="0.687038" fill="#325995"/>
<path d="M1261.7 272.131C1257.67 272.131 1254.41 275.398 1254.41 279.425C1254.41 283.451 1257.67 286.718 1261.7 286.718C1265.73 286.718 1268.99 283.451 1268.99 279.425C1268.99 275.398 1265.73 272.131 1261.7 272.131ZM1265.45 277.662L1261.17 281.962C1261.03 282.099 1260.83 282.19 1260.64 282.19C1260.44 282.19 1260.24 282.114 1260.11 281.962L1257.95 279.804C1257.64 279.501 1257.64 279.029 1257.95 278.725C1258.25 278.421 1258.72 278.421 1259.03 278.725L1260.64 280.336L1264.39 276.583C1264.69 276.279 1265.17 276.279 1265.47 276.583C1265.76 276.887 1265.76 277.358 1265.45 277.662L1265.45 277.662Z" fill="#00A56A"/>
<rect opacity="0.8" x="127.459" y="268.387" width="55.5229" height="104.105" rx="7" fill="white" fill-opacity="0.12"/>
<g filter="url(#filter19_bd_472_5573)">
<rect x="-18.8574" y="186.02" width="115.194" height="144.095" rx="7" fill="url(#paint37_linear_472_5573)" shape-rendering="crispEdges"/>
<rect x="-18.6074" y="186.27" width="114.694" height="143.595" rx="6.75" stroke="url(#paint38_linear_472_5573)" stroke-width="0.5" shape-rendering="crispEdges"/>
</g>
<g filter="url(#filter20_b_472_5573)">
<rect x="-13.0801" y="191.461" width="103.639" height="133.213" rx="2" fill="url(#paint39_linear_472_5573)"/>
</g>
<rect x="7.89062" y="263.387" width="68.1325" height="3.84874" rx="1.92437" fill="#133F84" fill-opacity="0.49"/>
<rect x="-0.554688" y="263.387" width="3.89177" height="3.84874" rx="1.92437" fill="#133F84" fill-opacity="0.49"/>
<rect x="7.89062" y="275.963" width="68.1325" height="3.84874" rx="1.92437" fill="#133F84" fill-opacity="0.49"/>
<rect x="-0.554688" y="275.963" width="3.89177" height="3.84874" rx="1.92437" fill="#133F84" fill-opacity="0.49"/>
<rect x="7.89062" y="288.539" width="68.1325" height="3.84874" rx="1.92437" fill="#133F84" fill-opacity="0.49"/>
<rect x="-0.554688" y="288.539" width="3.89177" height="3.84874" rx="1.92437" fill="#133F84" fill-opacity="0.49"/>
<g clip-path="url(#clip2_472_5573)">
<rect x="-24.1553" y="184.41" width="202.352" height="23.5566" transform="rotate(45 -24.1553 184.41)" fill="white" fill-opacity="0.12"/>
<rect x="-29.4717" y="220.301" width="202.352" height="5.95827" transform="rotate(45 -29.4717 220.301)" fill="white" fill-opacity="0.12"/>
</g>
<rect x="-0.554688" y="214.818" width="20.0547" height="26.7983" rx="2" fill="#6487C0"/>
<rect x="28.7109" y="214.818" width="20.0547" height="26.7983" rx="2" fill="#6487C0"/>
<rect x="57.9805" y="214.818" width="20.0547" height="26.7983" rx="2" fill="#6487C0"/>
<path d="M137.625 241.864L140.512 236.864H134.739L137.625 241.864ZM37.9824 186.146V178.334H36.9824V186.146H37.9824ZM45.4824 170.834H129.625V169.834H45.4824V170.834ZM137.125 178.334V237.364H138.125V178.334H137.125ZM129.625 170.834C133.767 170.834 137.125 174.192 137.125 178.334H138.125C138.125 173.64 134.32 169.834 129.625 169.834V170.834ZM37.9824 178.334C37.9824 174.192 41.3403 170.834 45.4824 170.834V169.834C40.788 169.834 36.9824 173.64 36.9824 178.334H37.9824Z" fill="white" fill-opacity="0.3"/>
<rect x="109.863" y="243.816" width="55.5229" height="104.105" rx="7" fill="#6895E0" fill-opacity="0.74"/>
<g filter="url(#filter21_b_472_5573)">
<rect x="113.328" y="247.441" width="48.5935" height="96.8555" rx="2" fill="url(#paint40_linear_472_5573)"/>
</g>
<path d="M122.652 291.9C120.461 291.9 118.684 293.678 118.684 295.869C118.684 298.06 120.461 299.838 122.652 299.838C124.843 299.838 126.621 298.06 126.621 295.869C126.621 293.678 124.843 291.9 122.652 291.9ZM124.695 294.91L122.363 297.25C122.289 297.324 122.181 297.374 122.074 297.374C121.966 297.374 121.858 297.333 121.784 297.25L120.61 296.076C120.445 295.91 120.445 295.654 120.61 295.489C120.776 295.323 121.032 295.323 121.197 295.489L122.074 296.365L124.116 294.323C124.281 294.158 124.538 294.158 124.703 294.323C124.86 294.488 124.86 294.745 124.695 294.91L124.695 294.91Z" fill="#5A7FBC"/>
<path d="M122.652 305.391C120.461 305.391 118.684 307.168 118.684 309.359C118.684 311.55 120.461 313.328 122.652 313.328C124.843 313.328 126.621 311.55 126.621 309.359C126.621 307.168 124.843 305.391 122.652 305.391ZM124.695 308.4L122.363 310.74C122.289 310.814 122.181 310.864 122.074 310.864C121.966 310.864 121.858 310.823 121.784 310.74L120.61 309.566C120.445 309.401 120.445 309.144 120.61 308.979C120.776 308.814 121.032 308.814 121.197 308.979L122.074 309.856L124.116 307.813C124.281 307.648 124.538 307.648 124.703 307.813C124.86 307.979 124.86 308.235 124.695 308.4L124.695 308.4Z" fill="#5A7FBC"/>
<path d="M122.652 318.881C120.461 318.881 118.684 320.659 118.684 322.85C118.684 325.041 120.461 326.818 122.652 326.818C124.843 326.818 126.621 325.041 126.621 322.85C126.621 320.659 124.843 318.881 122.652 318.881ZM124.695 321.89L122.363 324.23C122.289 324.305 122.181 324.354 122.074 324.354C121.966 324.354 121.858 324.313 121.784 324.23L120.61 323.056C120.445 322.891 120.445 322.635 120.61 322.469C120.776 322.304 121.032 322.304 121.197 322.469L122.074 323.346L124.116 321.304C124.281 321.138 124.538 321.138 124.703 321.304C124.86 321.469 124.86 321.725 124.695 321.89L124.695 321.89Z" fill="#5A7FBC"/>
<rect x="118.684" y="258.432" width="16.4423" height="23.9017" rx="2" fill="#4D7BC7" fill-opacity="0.69"/>
<rect x="140.125" y="258.432" width="16.4423" height="23.9017" rx="2" fill="#4D7BC7" fill-opacity="0.69"/>
<rect x="131.32" y="294.48" width="25.2461" height="2.77648" rx="1.38824" fill="#133F84" fill-opacity="0.35"/>
<rect x="131.32" y="307.971" width="25.2461" height="2.77648" rx="1.38824" fill="#133F84" fill-opacity="0.35"/>
<rect x="131.32" y="321.461" width="25.2461" height="2.77648" rx="1.38824" fill="#133F84" fill-opacity="0.35"/>
<g opacity="0.75" clip-path="url(#clip3_472_5573)">
<rect x="74.708" y="210.436" width="202.352" height="23.5566" transform="rotate(45 74.708 210.436)" fill="white" fill-opacity="0.12"/>
<rect x="69.3916" y="246.324" width="202.352" height="5.95827" transform="rotate(45 69.3916 246.324)" fill="white" fill-opacity="0.12"/>
</g>
<path fill-rule="evenodd" clip-rule="evenodd" d="M1307.12 326.306C1307.55 325.877 1308.25 325.877 1308.68 326.306L1314.63 332.253C1315.06 332.684 1315.06 333.386 1314.63 333.815C1314.2 334.244 1313.5 334.244 1313.07 333.815L1307.12 327.868C1306.69 327.439 1306.69 326.735 1307.12 326.306Z" fill="#0F3A8A"/>
<path fill-rule="evenodd" clip-rule="evenodd" d="M1302.27 337.995C1302.27 337.388 1302.77 336.891 1303.38 336.891H1311.79C1312.4 336.891 1312.89 337.388 1312.89 337.995C1312.89 338.602 1312.4 339.1 1311.79 339.1H1303.38C1302.77 339.1 1302.27 338.602 1302.27 337.995Z" fill="#0F3A8A"/>
<path fill-rule="evenodd" clip-rule="evenodd" d="M1307.12 349.684C1306.69 349.255 1306.69 348.552 1307.12 348.123L1313.07 342.175C1313.5 341.746 1314.2 341.746 1314.63 342.175C1315.06 342.604 1315.06 343.306 1314.63 343.737L1308.68 349.684C1308.25 350.113 1307.55 350.113 1307.12 349.684Z" fill="#0F3A8A"/>
<path fill-rule="evenodd" clip-rule="evenodd" d="M1330.5 326.306C1330.93 326.735 1330.93 327.439 1330.5 327.868L1324.55 333.815C1324.12 334.244 1323.42 334.244 1322.99 333.815C1322.56 333.386 1322.56 332.684 1322.99 332.253L1328.94 326.306C1329.37 325.877 1330.07 325.877 1330.5 326.306Z" fill="#0F3A8A"/>
<path fill-rule="evenodd" clip-rule="evenodd" d="M1318.8 321.463C1319.41 321.463 1319.91 321.961 1319.91 322.567V330.978C1319.91 331.585 1319.41 332.083 1318.8 332.083C1318.19 332.083 1317.7 331.585 1317.7 330.978V322.567C1317.7 321.961 1318.19 321.463 1318.8 321.463Z" fill="#0F3A8A"/>
<path fill-rule="evenodd" clip-rule="evenodd" d="M1318.03 336.405L1340.41 346.218C1340.86 346.415 1340.91 347.029 1340.5 347.296L1335.95 350.243L1342.04 356.325C1342.27 356.563 1342.27 356.953 1342.04 357.194L1338.01 361.222C1337.77 361.461 1337.38 361.461 1337.14 361.222L1331.06 355.14L1328.11 359.688C1327.84 360.1 1327.23 360.05 1327.03 359.601L1317.22 337.215C1316.99 336.706 1317.52 336.183 1318.03 336.406L1318.03 336.405Z" fill="#0F3A8A"/>
</g>
<defs>
<filter id="filter0_f_472_5573" x="-106.757" y="-41.0332" width="1653.94" height="549.695" filterUnits="userSpaceOnUse" color-interpolation-filters="sRGB">
<feFlood flood-opacity="0" result="BackgroundImageFix"/>
<feBlend mode="normal" in="SourceGraphic" in2="BackgroundImageFix" result="shape"/>
<feGaussianBlur stdDeviation="17" result="effect1_foregroundBlur_472_5573"/>
</filter>
<filter id="filter1_f_472_5573" x="896.616" y="-462.582" width="991.367" height="943.094" filterUnits="userSpaceOnUse" color-interpolation-filters="sRGB">
<feFlood flood-opacity="0" result="BackgroundImageFix"/>
<feBlend mode="normal" in="SourceGraphic" in2="BackgroundImageFix" result="shape"/>
<feGaussianBlur stdDeviation="117" result="effect1_foregroundBlur_472_5573"/>
</filter>
<filter id="filter2_b_472_5573" x="1311.15" y="125.022" width="97.0411" height="115.631" filterUnits="userSpaceOnUse" color-interpolation-filters="sRGB">
<feFlood flood-opacity="0" result="BackgroundImageFix"/>
<feGaussianBlur in="BackgroundImageFix" stdDeviation="8.25538"/>
<feComposite in2="SourceAlpha" operator="in" result="effect1_backgroundBlur_472_5573"/>
<feBlend mode="normal" in="SourceGraphic" in2="effect1_backgroundBlur_472_5573" result="shape"/>
</filter>
<filter id="filter3_b_472_5573" x="1295.35" y="100.736" width="103.934" height="127.122" filterUnits="userSpaceOnUse" color-interpolation-filters="sRGB">
<feFlood flood-opacity="0" result="BackgroundImageFix"/>
<feGaussianBlur in="BackgroundImageFix" stdDeviation="8.84505"/>
<feComposite in2="SourceAlpha" operator="in" result="effect1_backgroundBlur_472_5573"/>
<feBlend mode="normal" in="SourceGraphic" in2="effect1_backgroundBlur_472_5573" result="shape"/>
</filter>
<filter id="filter4_f_472_5573" x="-135.417" y="-369.094" width="1175.03" height="832.441" filterUnits="userSpaceOnUse" color-interpolation-filters="sRGB">
<feFlood flood-opacity="0" result="BackgroundImageFix"/>
<feBlend mode="normal" in="SourceGraphic" in2="BackgroundImageFix" result="shape"/>
<feGaussianBlur stdDeviation="117" result="effect1_foregroundBlur_472_5573"/>
</filter>
<filter id="filter5_f_472_5573" x="221.185" y="-476.662" width="1114.92" height="1123.73" filterUnits="userSpaceOnUse" color-interpolation-filters="sRGB">
<feFlood flood-opacity="0" result="BackgroundImageFix"/>
<feBlend mode="normal" in="SourceGraphic" in2="BackgroundImageFix" result="shape"/>
<feGaussianBlur stdDeviation="117" result="effect1_foregroundBlur_472_5573"/>
</filter>
<filter id="filter6_f_472_5573" x="-543.225" y="-599.955" width="1157.37" height="1109.09" filterUnits="userSpaceOnUse" color-interpolation-filters="sRGB">
<feFlood flood-opacity="0" result="BackgroundImageFix"/>
<feBlend mode="normal" in="SourceGraphic" in2="BackgroundImageFix" result="shape"/>
<feGaussianBlur stdDeviation="158.5" result="effect1_foregroundBlur_472_5573"/>
</filter>
<filter id="filter7_bd_472_5573" x="-85.9707" y="-67.291" width="1611.94" height="84.8926" filterUnits="userSpaceOnUse" color-interpolation-filters="sRGB">
<feFlood flood-opacity="0" result="BackgroundImageFix"/>
<feGaussianBlur in="BackgroundImageFix" stdDeviation="4"/>
<feComposite in2="SourceAlpha" operator="in" result="effect1_backgroundBlur_472_5573"/>
<feColorMatrix in="SourceAlpha" type="matrix" values="0 0 0 0 0 0 0 0 0 0 0 0 0 0 0 0 0 0 127 0" result="hardAlpha"/>
<feOffset dy="4"/>
<feGaussianBlur stdDeviation="6.5"/>
<feComposite in2="hardAlpha" operator="out"/>
<feColorMatrix type="matrix" values="0 0 0 0 0.175678 0 0 0 0 0.173906 0 0 0 0 0.2625 0 0 0 0.09 0"/>
<feBlend mode="normal" in2="effect1_backgroundBlur_472_5573" result="effect2_dropShadow_472_5573"/>
<feBlend mode="normal" in="SourceGraphic" in2="effect2_dropShadow_472_5573" result="shape"/>
</filter>
<filter id="filter8_b_472_5573" x="32.9863" y="114.289" width="38.3184" height="38.3184" filterUnits="userSpaceOnUse" color-interpolation-filters="sRGB">
<feFlood flood-opacity="0" result="BackgroundImageFix"/>
<feGaussianBlur in="BackgroundImageFix" stdDeviation="2"/>
<feComposite in2="SourceAlpha" operator="in" result="effect1_backgroundBlur_472_5573"/>
<feBlend mode="normal" in="SourceGraphic" in2="effect1_backgroundBlur_472_5573" result="shape"/>
</filter>
<filter id="filter9_b_472_5573" x="28.5352" y="109.836" width="47.2227" height="47.2227" filterUnits="userSpaceOnUse" color-interpolation-filters="sRGB">
<feFlood flood-opacity="0" result="BackgroundImageFix"/>
<feGaussianBlur in="BackgroundImageFix" stdDeviation="2"/>
<feComposite in2="SourceAlpha" operator="in" result="effect1_backgroundBlur_472_5573"/>
<feBlend mode="normal" in="SourceGraphic" in2="effect1_backgroundBlur_472_5573" result="shape"/>
</filter>
<filter id="filter10_b_472_5573" x="1149.02" y="167.207" width="77.5405" height="52.1674" filterUnits="userSpaceOnUse" color-interpolation-filters="sRGB">
<feFlood flood-opacity="0" result="BackgroundImageFix"/>
<feGaussianBlur in="BackgroundImageFix" stdDeviation="2.46373"/>
<feComposite in2="SourceAlpha" operator="in" result="effect1_backgroundBlur_472_5573"/>
<feBlend mode="normal" in="SourceGraphic" in2="effect1_backgroundBlur_472_5573" result="shape"/>
</filter>
<filter id="filter11_b_472_5573" x="1198.49" y="152.531" width="38.1281" height="38.1281" filterUnits="userSpaceOnUse" color-interpolation-filters="sRGB">
<feFlood flood-opacity="0" result="BackgroundImageFix"/>
<feGaussianBlur in="BackgroundImageFix" stdDeviation="2.35868"/>
<feComposite in2="SourceAlpha" operator="in" result="effect1_backgroundBlur_472_5573"/>
<feBlend mode="normal" in="SourceGraphic" in2="effect1_backgroundBlur_472_5573" result="shape"/>
</filter>
<filter id="filter12_b_472_5573" x="1246.66" y="143.987" width="66.8682" height="77.0518" filterUnits="userSpaceOnUse" color-interpolation-filters="sRGB">
<feFlood flood-opacity="0" result="BackgroundImageFix"/>
<feGaussianBlur in="BackgroundImageFix" stdDeviation="6.37868"/>
<feComposite in2="SourceAlpha" operator="in" result="effect1_backgroundBlur_472_5573"/>
<feBlend mode="normal" in="SourceGraphic" in2="effect1_backgroundBlur_472_5573" result="shape"/>
</filter>
<filter id="filter13_d_472_5573" x="1256.71" y="156.596" width="24.4731" height="24.3822" filterUnits="userSpaceOnUse" color-interpolation-filters="sRGB">
<feFlood flood-opacity="0" result="BackgroundImageFix"/>
<feColorMatrix in="SourceAlpha" type="matrix" values="0 0 0 0 0 0 0 0 0 0 0 0 0 0 0 0 0 0 127 0" result="hardAlpha"/>
<feOffset dy="2.55147"/>
<feGaussianBlur stdDeviation="1.27574"/>
<feComposite in2="hardAlpha" operator="out"/>
<feColorMatrix type="matrix" values="0 0 0 0 0.0658278 0 0 0 0 0.0613889 0 0 0 0 0.283333 0 0 0 0.1 0"/>
<feBlend mode="normal" in2="BackgroundImageFix" result="effect1_dropShadow_472_5573"/>
<feBlend mode="normal" in="SourceGraphic" in2="effect1_dropShadow_472_5573" result="shape"/>
</filter>
<filter id="filter14_bd_472_5573" x="1243.01" y="142.075" width="51.5594" height="63.0187" filterUnits="userSpaceOnUse" color-interpolation-filters="sRGB">
<feFlood flood-opacity="0" result="BackgroundImageFix"/>
<feGaussianBlur in="BackgroundImageFix" stdDeviation="2.55147"/>
<feComposite in2="SourceAlpha" operator="in" result="effect1_backgroundBlur_472_5573"/>
<feColorMatrix in="SourceAlpha" type="matrix" values="0 0 0 0 0 0 0 0 0 0 0 0 0 0 0 0 0 0 127 0" result="hardAlpha"/>
<feOffset dx="3.82721" dy="5.10294"/>
<feGaussianBlur stdDeviation="0.637868"/>
<feComposite in2="hardAlpha" operator="out"/>
<feColorMatrix type="matrix" values="0 0 0 0 0.0245333 0 0 0 0 0.0191667 0 0 0 0 0.2875 0 0 0 0.06 0"/>
<feBlend mode="normal" in2="effect1_backgroundBlur_472_5573" result="effect2_dropShadow_472_5573"/>
<feBlend mode="normal" in="SourceGraphic" in2="effect2_dropShadow_472_5573" result="shape"/>
</filter>
<filter id="filter15_d_472_5573" x="1245.4" y="147.029" width="24.477" height="24.3842" filterUnits="userSpaceOnUse" color-interpolation-filters="sRGB">
<feFlood flood-opacity="0" result="BackgroundImageFix"/>
<feColorMatrix in="SourceAlpha" type="matrix" values="0 0 0 0 0 0 0 0 0 0 0 0 0 0 0 0 0 0 127 0" result="hardAlpha"/>
<feOffset dy="2.55147"/>
<feGaussianBlur stdDeviation="1.27574"/>
<feComposite in2="hardAlpha" operator="out"/>
<feColorMatrix type="matrix" values="0 0 0 0 0.0658278 0 0 0 0 0.0613889 0 0 0 0 0.283333 0 0 0 0.1 0"/>
<feBlend mode="normal" in2="BackgroundImageFix" result="effect1_dropShadow_472_5573"/>
<feBlend mode="normal" in="SourceGraphic" in2="effect1_dropShadow_472_5573" result="shape"/>
</filter>
<filter id="filter16_bd_472_5573" x="1177.03" y="229.113" width="175.914" height="154.072" filterUnits="userSpaceOnUse" color-interpolation-filters="sRGB">
<feFlood flood-opacity="0" result="BackgroundImageFix"/>
<feGaussianBlur in="BackgroundImageFix" stdDeviation="2.35868"/>
<feComposite in2="SourceAlpha" operator="in" result="effect1_backgroundBlur_472_5573"/>
<feColorMatrix in="SourceAlpha" type="matrix" values="0 0 0 0 0 0 0 0 0 0 0 0 0 0 0 0 0 0 127 0" result="hardAlpha"/>
<feOffset dx="22.4075" dy="37.7389"/>
<feGaussianBlur stdDeviation="2.35868"/>
<feComposite in2="hardAlpha" operator="out"/>
<feColorMatrix type="matrix" values="0 0 0 0 0.0319739 0 0 0 0 0.0236979 0 0 0 0 0.4375 0 0 0 0.05 0"/>
<feBlend mode="normal" in2="effect1_backgroundBlur_472_5573" result="effect2_dropShadow_472_5573"/>
<feBlend mode="normal" in="SourceGraphic" in2="effect2_dropShadow_472_5573" result="shape"/>
</filter>
<filter id="filter17_b_472_5573" x="1181.11" y="233.15" width="145.335" height="108.261" filterUnits="userSpaceOnUse" color-interpolation-filters="sRGB">
<feFlood flood-opacity="0" result="BackgroundImageFix"/>
<feGaussianBlur in="BackgroundImageFix" stdDeviation="2.35868"/>
<feComposite in2="SourceAlpha" operator="in" result="effect1_backgroundBlur_472_5573"/>
<feBlend mode="normal" in="SourceGraphic" in2="effect1_backgroundBlur_472_5573" result="shape"/>
</filter>
<filter id="filter18_d_472_5573" x="1235.37" y="248.609" width="36.8283" height="44.3488" filterUnits="userSpaceOnUse" color-interpolation-filters="sRGB">
<feFlood flood-opacity="0" result="BackgroundImageFix"/>
<feColorMatrix in="SourceAlpha" type="matrix" values="0 0 0 0 0 0 0 0 0 0 0 0 0 0 0 0 0 0 127 0" result="hardAlpha"/>
<feOffset dy="4.71736"/>
<feGaussianBlur stdDeviation="2.35868"/>
<feComposite in2="hardAlpha" operator="out"/>
<feColorMatrix type="matrix" values="0 0 0 0 0.00171876 0 0 0 0 0.166031 0 0 0 0 0.4125 0 0 0 0.25 0"/>
<feBlend mode="normal" in2="BackgroundImageFix" result="effect1_dropShadow_472_5573"/>
<feBlend mode="normal" in="SourceGraphic" in2="effect1_dropShadow_472_5573" result="shape"/>
</filter>
<filter id="filter19_bd_472_5573" x="-22.8574" y="182.02" width="142.193" height="184.096" filterUnits="userSpaceOnUse" color-interpolation-filters="sRGB">
<feFlood flood-opacity="0" result="BackgroundImageFix"/>
<feGaussianBlur in="BackgroundImageFix" stdDeviation="2"/>
<feComposite in2="SourceAlpha" operator="in" result="effect1_backgroundBlur_472_5573"/>
<feColorMatrix in="SourceAlpha" type="matrix" values="0 0 0 0 0 0 0 0 0 0 0 0 0 0 0 0 0 0 127 0" result="hardAlpha"/>
<feOffset dx="19" dy="32"/>
<feGaussianBlur stdDeviation="2"/>
<feComposite in2="hardAlpha" operator="out"/>
<feColorMatrix type="matrix" values="0 0 0 0 0.0319739 0 0 0 0 0.0236979 0 0 0 0 0.4375 0 0 0 0.05 0"/>
<feBlend mode="normal" in2="effect1_backgroundBlur_472_5573" result="effect2_dropShadow_472_5573"/>
<feBlend mode="normal" in="SourceGraphic" in2="effect2_dropShadow_472_5573" result="shape"/>
</filter>
<filter id="filter20_b_472_5573" x="-17.0801" y="187.461" width="111.639" height="141.213" filterUnits="userSpaceOnUse" color-interpolation-filters="sRGB">
<feFlood flood-opacity="0" result="BackgroundImageFix"/>
<feGaussianBlur in="BackgroundImageFix" stdDeviation="2"/>
<feComposite in2="SourceAlpha" operator="in" result="effect1_backgroundBlur_472_5573"/>
<feBlend mode="normal" in="SourceGraphic" in2="effect1_backgroundBlur_472_5573" result="shape"/>
</filter>
<filter id="filter21_b_472_5573" x="109.328" y="243.441" width="56.5938" height="104.855" filterUnits="userSpaceOnUse" color-interpolation-filters="sRGB">
<feFlood flood-opacity="0" result="BackgroundImageFix"/>
<feGaussianBlur in="BackgroundImageFix" stdDeviation="2"/>
<feComposite in2="SourceAlpha" operator="in" result="effect1_backgroundBlur_472_5573"/>
<feBlend mode="normal" in="SourceGraphic" in2="effect1_backgroundBlur_472_5573" result="shape"/>
</filter>
<linearGradient id="paint0_linear_472_5573" x1="1347.32" y1="118.426" x2="1347.32" y2="210.168" gradientUnits="userSpaceOnUse">
<stop stop-color="#B6D2FF"/>
<stop offset="1" stop-color="#D9E7FF" stop-opacity="0.13"/>
</linearGradient>
<radialGradient id="paint1_radial_472_5573" cx="0" cy="0" r="1" gradientUnits="userSpaceOnUse" gradientTransform="translate(638.808 540.476) scale(1091.07 780.873)">
<stop stop-color="#1853D4"/>
<stop offset="0.56" stop-color="#1AD0FF"/>
<stop offset="1" stop-color="white"/>
</radialGradient>
<radialGradient id="paint2_radial_472_5573" cx="0" cy="0" r="1" gradientUnits="userSpaceOnUse" gradientTransform="translate(651.043 689.144) scale(1124.24 804.609)">
<stop stop-color="#1853D4"/>
<stop offset="0.56" stop-color="#1AD0FF"/>
<stop offset="1" stop-color="white"/>
</radialGradient>
<radialGradient id="paint3_radial_472_5573" cx="0" cy="0" r="1" gradientUnits="userSpaceOnUse" gradientTransform="translate(577.735 673.844) scale(1258.79 900.909)">
<stop stop-color="#1853D4"/>
<stop offset="0.56" stop-color="#1AD0FF"/>
<stop offset="1" stop-color="white"/>
</radialGradient>
<radialGradient id="paint4_radial_472_5573" cx="0" cy="0" r="1" gradientUnits="userSpaceOnUse" gradientTransform="translate(990.159 568.911) scale(1368.67 979.547)">
<stop stop-color="#1853D4"/>
<stop offset="0.56" stop-color="#1AD0FF"/>
<stop offset="1" stop-color="white"/>
</radialGradient>
<radialGradient id="paint5_radial_472_5573" cx="0" cy="0" r="1" gradientUnits="userSpaceOnUse" gradientTransform="translate(619.238 715.125) scale(1200.14 1228.13)">
<stop stop-color="#A8EDFF"/>
<stop offset="1" stop-color="white"/>
</radialGradient>
<radialGradient id="paint6_radial_472_5573" cx="0" cy="0" r="1" gradientUnits="userSpaceOnUse" gradientTransform="translate(632.697 948.99) scale(1236.66 1265.5)">
<stop stop-color="#A8EDFF"/>
<stop offset="1" stop-color="white"/>
</radialGradient>
<radialGradient id="paint7_radial_472_5573" cx="0" cy="0" r="1" gradientUnits="userSpaceOnUse" gradientTransform="translate(552.058 924.888) scale(1384.67 1416.96)">
<stop stop-color="#A8EDFF"/>
<stop offset="1" stop-color="white"/>
</radialGradient>
<radialGradient id="paint8_radial_472_5573" cx="0" cy="0" r="1" gradientUnits="userSpaceOnUse" gradientTransform="translate(1005.69 759.848) scale(1505.53 1540.65)">
<stop stop-color="#A8EDFF"/>
<stop offset="1" stop-color="white"/>
</radialGradient>
<linearGradient id="paint9_linear_472_5573" x1="1018.37" y1="26.1054" x2="847.156" y2="26.1054" gradientUnits="userSpaceOnUse">
<stop stop-color="#89ECD8"/>
<stop offset="1" stop-color="#89ECD8" stop-opacity="0"/>
</linearGradient>
<linearGradient id="paint10_linear_472_5573" x1="1027.41" y1="-14.2793" x2="1027.41" y2="26.1054" gradientUnits="userSpaceOnUse">
<stop stop-color="#1EAFB3"/>
<stop offset="1" stop-color="#5AD7FF"/>
</linearGradient>
<linearGradient id="paint11_linear_472_5573" x1="683.324" y1="-1.79297" x2="683.324" y2="663.905" gradientUnits="userSpaceOnUse">
<stop offset="0.453125" stop-color="#3C46F4" stop-opacity="0"/>
<stop offset="0.71875" stop-color="#94CAFB" stop-opacity="0.91"/>
</linearGradient>
<linearGradient id="paint12_linear_472_5573" x1="52.1454" y1="118.289" x2="52.1454" y2="148.607" gradientUnits="userSpaceOnUse">
<stop stop-color="#FB967C"/>
<stop offset="1" stop-color="#36A8DB"/>
</linearGradient>
<linearGradient id="paint13_linear_472_5573" x1="52.1465" y1="113.836" x2="52.1465" y2="153.059" gradientUnits="userSpaceOnUse">
<stop stop-color="#E0998A"/>
<stop offset="1" stop-color="#43A7D5" stop-opacity="0"/>
</linearGradient>
<linearGradient id="paint14_linear_472_5573" x1="904.58" y1="42.3777" x2="746.897" y2="42.3777" gradientUnits="userSpaceOnUse">
<stop stop-color="#78BDFD"/>
<stop offset="1" stop-color="#78BDFD" stop-opacity="0"/>
</linearGradient>
<linearGradient id="paint15_linear_472_5573" x1="529.762" y1="360.499" x2="169.408" y2="360.499" gradientUnits="userSpaceOnUse">
<stop stop-color="#78BDFD"/>
<stop offset="1" stop-color="#78BDFD" stop-opacity="0"/>
</linearGradient>
<linearGradient id="paint16_linear_472_5573" x1="1307.13" y1="80.1355" x2="946.777" y2="80.1355" gradientUnits="userSpaceOnUse">
<stop stop-color="#37C3FF"/>
<stop offset="1" stop-color="#78BDFD" stop-opacity="0"/>
</linearGradient>
<linearGradient id="paint17_linear_472_5573" x1="991.619" y1="271.938" x2="631.265" y2="271.938" gradientUnits="userSpaceOnUse">
<stop stop-color="#78BDFD"/>
<stop offset="1" stop-color="#78BDFD" stop-opacity="0"/>
</linearGradient>
<linearGradient id="paint18_linear_472_5573" x1="224.037" y1="474.662" x2="-8.76254" y2="474.662" gradientUnits="userSpaceOnUse">
<stop stop-color="#89ECD8"/>
<stop offset="1" stop-color="#89ECD8" stop-opacity="0"/>
</linearGradient>
<linearGradient id="paint19_linear_472_5573" x1="236.326" y1="419.752" x2="236.326" y2="474.662" gradientUnits="userSpaceOnUse">
<stop stop-color="#23A3FF"/>
<stop offset="1" stop-color="white"/>
</linearGradient>
<linearGradient id="paint20_linear_472_5573" x1="694.168" y1="51.0201" x2="577.276" y2="51.0201" gradientUnits="userSpaceOnUse">
<stop stop-color="#89ECD8"/>
<stop offset="1" stop-color="#89ECD8" stop-opacity="0"/>
</linearGradient>
<linearGradient id="paint21_linear_472_5573" x1="700.339" y1="23.4492" x2="700.339" y2="51.0201" gradientUnits="userSpaceOnUse">
<stop stop-color="#23A3FF"/>
<stop offset="1" stop-color="white"/>
</linearGradient>
<linearGradient id="paint22_linear_472_5573" x1="1312.98" y1="438.305" x2="1141.77" y2="438.305" gradientUnits="userSpaceOnUse">
<stop stop-color="#F4FFFF"/>
<stop offset="1" stop-color="#89ECD8" stop-opacity="0"/>
</linearGradient>
<linearGradient id="paint23_linear_472_5573" x1="1350.8" y1="409.524" x2="1322.02" y2="438.305" gradientUnits="userSpaceOnUse">
<stop stop-color="#287EFF"/>
<stop offset="1" stop-color="#F9FDFF"/>
</linearGradient>
<linearGradient id="paint24_linear_472_5573" x1="1187.79" y1="172.135" x2="1187.79" y2="214.448" gradientUnits="userSpaceOnUse">
<stop stop-color="#62D7B2"/>
<stop offset="1" stop-color="#93E5CD" stop-opacity="0.08"/>
</linearGradient>
<linearGradient id="paint25_linear_472_5573" x1="1217.55" y1="157.248" x2="1217.55" y2="185.941" gradientUnits="userSpaceOnUse">
<stop stop-color="#FA8C16"/>
<stop offset="1" stop-color="white" stop-opacity="0"/>
</linearGradient>
<linearGradient id="paint26_linear_472_5573" x1="1280.09" y1="156.744" x2="1280.09" y2="208.281" gradientUnits="userSpaceOnUse">
<stop stop-color="#8CB2EF"/>
<stop offset="1" stop-color="#4583E9" stop-opacity="0.13"/>
</linearGradient>
<linearGradient id="paint27_linear_472_5573" x1="1280.09" y1="156.744" x2="1280.09" y2="208.281" gradientUnits="userSpaceOnUse">
<stop stop-color="white" stop-opacity="0.69"/>
<stop offset="1" stop-color="white" stop-opacity="0"/>
</linearGradient>
<linearGradient id="paint28_linear_472_5573" x1="1268.95" y1="156.596" x2="1268.95" y2="175.875" gradientUnits="userSpaceOnUse">
<stop stop-color="#66A1FF"/>
<stop offset="1" stop-color="#AEBFDC"/>
</linearGradient>
<linearGradient id="paint29_linear_472_5573" x1="1268.95" y1="156.596" x2="1268.95" y2="175.875" gradientUnits="userSpaceOnUse">
<stop stop-color="white" stop-opacity="0.69"/>
<stop offset="1" stop-color="white" stop-opacity="0"/>
</linearGradient>
<linearGradient id="paint30_linear_472_5573" x1="1268.79" y1="147.178" x2="1268.79" y2="198.715" gradientUnits="userSpaceOnUse">
<stop stop-color="#8CB2EF"/>
<stop offset="1" stop-color="#4583E9" stop-opacity="0.13"/>
</linearGradient>
<linearGradient id="paint31_linear_472_5573" x1="1268.79" y1="147.178" x2="1268.79" y2="198.715" gradientUnits="userSpaceOnUse">
<stop stop-color="white" stop-opacity="0.69"/>
<stop offset="1" stop-color="white" stop-opacity="0"/>
</linearGradient>
<linearGradient id="paint32_linear_472_5573" x1="1257.64" y1="147.029" x2="1257.64" y2="166.31" gradientUnits="userSpaceOnUse">
<stop stop-color="#66A1FF"/>
<stop offset="0.692708" stop-color="#99BEFA"/>
<stop offset="1" stop-color="#B8D3FF"/>
</linearGradient>
<linearGradient id="paint33_linear_472_5573" x1="1257.64" y1="147.029" x2="1257.64" y2="166.31" gradientUnits="userSpaceOnUse">
<stop stop-color="white" stop-opacity="0.69"/>
<stop offset="1" stop-color="white" stop-opacity="0"/>
</linearGradient>
<linearGradient id="paint34_linear_472_5573" x1="1253.78" y1="233.83" x2="1253.78" y2="340.729" gradientUnits="userSpaceOnUse">
<stop stop-color="#8CB2EF"/>
<stop offset="1" stop-color="#4583E9" stop-opacity="0.13"/>
</linearGradient>
<linearGradient id="paint35_linear_472_5573" x1="1253.78" y1="233.83" x2="1253.78" y2="340.729" gradientUnits="userSpaceOnUse">
<stop stop-color="white" stop-opacity="0.49"/>
<stop offset="1" stop-color="white" stop-opacity="0"/>
</linearGradient>
<linearGradient id="paint36_linear_472_5573" x1="1253.78" y1="237.867" x2="1253.78" y2="336.693" gradientUnits="userSpaceOnUse">
<stop stop-color="#B6D2FF"/>
<stop offset="1" stop-color="#D9E7FF" stop-opacity="0.13"/>
</linearGradient>
<linearGradient id="paint37_linear_472_5573" x1="38.7395" y1="186.02" x2="38.7395" y2="330.115" gradientUnits="userSpaceOnUse">
<stop stop-color="#8CB2EF"/>
<stop offset="1" stop-color="#4583E9" stop-opacity="0.13"/>
</linearGradient>
<linearGradient id="paint38_linear_472_5573" x1="38.7395" y1="186.02" x2="38.7395" y2="330.115" gradientUnits="userSpaceOnUse">
<stop stop-color="white" stop-opacity="0.69"/>
<stop offset="1" stop-color="white" stop-opacity="0"/>
</linearGradient>
<linearGradient id="paint39_linear_472_5573" x1="38.7395" y1="191.461" x2="38.7395" y2="324.674" gradientUnits="userSpaceOnUse">
<stop stop-color="#B6D2FF"/>
<stop offset="1" stop-color="#D9E7FF" stop-opacity="0.13"/>
</linearGradient>
<linearGradient id="paint40_linear_472_5573" x1="137.625" y1="247.441" x2="137.625" y2="344.297" gradientUnits="userSpaceOnUse">
<stop stop-color="#B6D2FF"/>
<stop offset="1" stop-color="#D9E7FF" stop-opacity="0.13"/>
</linearGradient>
<clipPath id="clip0_472_5573">
<rect width="1440" height="582" fill="white" transform="translate(0 0.582031)"/>
</clipPath>
<clipPath id="clip1_472_5573">
<rect width="2141.55" height="634.711" fill="white" transform="translate(-361.701 -88.7207)"/>
</clipPath>
<clipPath id="clip2_472_5573">
<rect x="-12.4414" y="193.674" width="103" height="131" rx="2" fill="white"/>
</clipPath>
<clipPath id="clip3_472_5573">
<rect width="48" height="97" fill="white" transform="translate(113.922 247.441)"/>
</clipPath>
</defs>
</svg>
