<svg width="316" height="66" viewBox="0 0 316 66" fill="none" xmlns="http://www.w3.org/2000/svg">
<path d="M182.008 28.8143V24.6294L192.501 8.09824H196.109V13.8909H193.974L187.359 24.3594V24.5557H202.27V28.8143H182.008ZM194.072 33.2324V27.538L194.17 25.6848V8.09824H199.153V33.2324H194.072ZM208.443 33.5515C207.633 33.5515 206.937 33.2651 206.357 32.6924C205.784 32.1115 205.497 31.4161 205.497 30.6061C205.497 29.8043 205.784 29.117 206.357 28.5443C206.937 27.9716 207.633 27.6852 208.443 27.6852C209.228 27.6852 209.916 27.9716 210.505 28.5443C211.094 29.117 211.388 29.8043 211.388 30.6061C211.388 31.1461 211.249 31.6411 210.971 32.0911C210.701 32.5329 210.345 32.8888 209.903 33.1588C209.462 33.4206 208.975 33.5515 208.443 33.5515ZM224.253 7.75461C225.546 7.75461 226.789 7.97142 227.984 8.40505C229.187 8.83868 230.258 9.53004 231.199 10.4791C232.148 11.4282 232.897 12.6882 233.445 14.2591C234.001 15.8218 234.284 17.7404 234.292 20.0149C234.292 22.1503 234.051 24.0566 233.568 25.7339C233.093 27.403 232.41 28.8225 231.518 29.9925C230.627 31.1625 229.551 32.0543 228.291 32.6679C227.031 33.2733 225.623 33.5761 224.069 33.5761C222.392 33.5761 220.911 33.2529 219.626 32.6065C218.342 31.952 217.307 31.0643 216.521 29.9434C215.744 28.8143 215.274 27.5461 215.11 26.1389H220.35C220.555 27.0552 220.984 27.767 221.639 28.2743C222.293 28.7734 223.103 29.0229 224.069 29.0229C225.705 29.0229 226.949 28.3111 227.8 26.8875C228.651 25.4557 229.08 23.4962 229.088 21.009H228.917C228.54 21.7453 228.033 22.3794 227.395 22.9112C226.757 23.4348 226.024 23.8398 225.198 24.1262C224.38 24.4126 223.508 24.5557 222.584 24.5557C221.103 24.5557 219.782 24.208 218.62 23.5126C217.458 22.8171 216.542 21.8599 215.871 20.6408C215.2 19.4217 214.864 18.0308 214.864 16.4681C214.856 14.7827 215.245 13.2813 216.03 11.9641C216.816 10.6468 217.912 9.61595 219.319 8.87141C220.735 8.1187 222.379 7.74643 224.253 7.75461ZM224.29 11.9273C223.463 11.9273 222.727 12.1236 222.081 12.5164C221.443 12.9091 220.935 13.4368 220.559 14.0995C220.191 14.7622 220.011 15.5027 220.019 16.3208C220.019 17.1472 220.199 17.8917 220.559 18.5545C220.927 19.209 221.426 19.7326 222.056 20.1253C222.694 20.5099 223.423 20.7021 224.241 20.7021C224.854 20.7021 225.423 20.5876 225.947 20.3585C226.47 20.1294 226.924 19.8144 227.309 19.4135C227.702 19.0044 228.008 18.534 228.229 18.0022C228.45 17.4704 228.561 16.9058 228.561 16.3086C228.552 15.515 228.364 14.7868 227.996 14.1241C227.628 13.4613 227.121 12.9295 226.474 12.5286C225.828 12.1277 225.1 11.9273 224.29 11.9273ZM248.97 6.92008L240.87 37.0124H236.366L244.466 6.92008H248.97ZM256.77 33.4581C255.631 33.4581 254.615 33.2485 253.723 32.8294C252.836 32.4102 252.132 31.8325 251.611 31.0963C251.09 30.3601 250.819 29.5164 250.797 28.5652H254.183C254.22 29.2047 254.489 29.7233 254.989 30.1209C255.488 30.5186 256.082 30.7174 256.77 30.7174C257.318 30.7174 257.802 30.5965 258.221 30.3547C258.646 30.1075 258.976 29.7662 259.213 29.331C259.454 28.8903 259.575 28.3851 259.575 27.8155C259.575 27.2351 259.452 26.7246 259.205 26.2839C258.963 25.8433 258.627 25.4994 258.197 25.2522C257.767 25.005 257.275 24.8787 256.722 24.8733C256.238 24.8733 255.768 24.9727 255.311 25.1715C254.86 25.3704 254.508 25.6418 254.255 25.9857L251.152 25.4295L251.934 16.7237H262.026V19.5773H254.811L254.384 23.7125H254.481C254.771 23.3041 255.209 22.9656 255.795 22.6969C256.381 22.4282 257.036 22.2938 257.762 22.2938C258.756 22.2938 259.643 22.5276 260.422 22.9951C261.201 23.4626 261.816 24.1048 262.268 24.9217C262.719 25.7331 262.942 26.6682 262.937 27.7268C262.942 28.8392 262.684 29.828 262.163 30.6932C261.647 31.5531 260.924 32.2302 259.995 32.7246C259.07 33.2136 257.995 33.4581 256.77 33.4581Z" fill="#2D3436"/>
<path fill-rule="evenodd" clip-rule="evenodd" d="M14.3871 7.38058L17.6071 14.72L25.1172 15.7232C25.8126 15.8192 26.3213 16.5067 26.232 17.2522C26.1869 17.6155 26.0176 17.9305 25.7768 18.1509L20.31 23.6361L21.7369 31.6059C21.8703 32.3513 21.4158 33.068 20.7197 33.2112C20.4167 33.2684 20.1135 33.2112 19.8637 33.0583L13.2275 29.1501L6.60097 33.0583C5.97687 33.4309 5.20081 33.1827 4.86206 32.523C4.71009 32.2269 4.6746 31.9019 4.72835 31.6059L6.14609 23.6361L0.625767 18.0837C0.116778 17.5675 0.0898987 16.6983 0.571664 16.1534C0.785667 15.9049 1.06273 15.7712 1.34773 15.7328V15.7232L8.85747 14.72L12.0772 7.38058C12.3718 6.69272 13.1303 6.4062 13.772 6.72152C14.0573 6.86477 14.2627 7.10366 14.3871 7.38058Z" fill="url(#paint0_linear_663_5365)"/>
<path fill-rule="evenodd" clip-rule="evenodd" d="M47.4027 7.38058L50.6228 14.72L58.1329 15.7232C58.8282 15.8192 59.337 16.5067 59.2476 17.2522C59.2025 17.6155 59.0332 17.9305 58.7924 18.1509L53.3256 23.6361L54.7526 31.6059C54.8859 32.3513 54.4314 33.068 53.7353 33.2112C53.4323 33.2684 53.1292 33.2112 52.8793 33.0583L46.2431 29.1501L39.6166 33.0583C38.9925 33.4309 38.2164 33.1827 37.8777 32.523C37.7257 32.2269 37.6902 31.9019 37.744 31.6059L39.1617 23.6361L33.6414 18.0837C33.1324 17.5675 33.1055 16.6983 33.5873 16.1534C33.8013 15.9049 34.0784 15.7712 34.3634 15.7328V15.7232L41.8731 14.72L45.0928 7.38058C45.3874 6.69272 46.1459 6.4062 46.7876 6.72152C47.0729 6.86477 47.2783 7.10366 47.4027 7.38058Z" fill="url(#paint1_linear_663_5365)"/>
<path fill-rule="evenodd" clip-rule="evenodd" d="M82.2543 7.38058L85.4743 14.72L92.9844 15.7232C93.6797 15.8192 94.1885 16.5067 94.0992 17.2522C94.0541 17.6155 93.8848 17.9305 93.644 18.1509L88.1772 23.6361L89.6041 31.6059C89.7375 32.3513 89.283 33.068 88.5869 33.2112C88.2839 33.2684 87.9807 33.2112 87.7309 33.0583L81.0947 29.1501L74.4682 33.0583C73.8441 33.4309 73.068 33.1827 72.7292 32.523C72.5773 32.2269 72.5418 31.9019 72.5955 31.6059L74.0133 23.6361L68.493 18.0837C67.984 17.5675 67.9571 16.6983 68.4389 16.1534C68.6529 15.9049 68.9299 15.7712 69.2149 15.7328V15.7232L76.7247 14.72L79.9444 7.38058C80.239 6.69272 80.9975 6.4062 81.6391 6.72152C81.9245 6.86477 82.1299 7.10366 82.2543 7.38058Z" fill="url(#paint2_linear_663_5365)"/>
<path fill-rule="evenodd" clip-rule="evenodd" d="M115.266 7.38058L118.486 14.72L125.996 15.7232C126.691 15.8192 127.2 16.5067 127.111 17.2522C127.066 17.6155 126.897 17.9305 126.656 18.1509L121.189 23.6361L122.616 31.6059C122.749 32.3513 122.295 33.068 121.599 33.2112C121.296 33.2684 120.992 33.2112 120.743 33.0583L114.106 29.1501L107.48 33.0583C106.856 33.4309 106.08 33.1827 105.741 32.523C105.589 32.2269 105.554 31.9019 105.607 31.6059L107.025 23.6361L101.505 18.0837C100.996 17.5675 100.969 16.6983 101.451 16.1534C101.665 15.9049 101.942 15.7712 102.227 15.7328V15.7232L109.736 14.72L112.956 7.38058C113.251 6.69272 114.009 6.4062 114.651 6.72152C114.936 6.86477 115.142 7.10366 115.266 7.38058Z" fill="url(#paint3_linear_663_5365)"/>
<path fill-rule="evenodd" clip-rule="evenodd" d="M150.114 7.38058L153.334 14.72L160.844 15.7232C161.539 15.8192 162.048 16.5067 161.959 17.2522C161.913 17.6155 161.744 17.9305 161.503 18.1509L156.037 23.6361L157.463 31.6059C157.597 32.3513 157.142 33.068 156.446 33.2112C156.143 33.2684 155.84 33.2112 155.59 33.0583L148.954 29.1501L142.328 33.0583C141.703 33.4309 140.927 33.1827 140.589 32.523C140.437 32.2269 140.401 31.9019 140.455 31.6059L141.873 23.6361L136.352 18.0837C135.843 17.5675 135.816 16.6983 136.298 16.1534C136.512 15.9049 136.789 15.7712 137.074 15.7328V15.7232L144.584 14.72L147.804 7.38058C148.098 6.69272 148.857 6.4062 149.499 6.72152C149.784 6.86477 149.989 7.10366 150.114 7.38058Z" fill="url(#paint4_linear_663_5365)"/>
<path d="M1.69141 61.3906V47.0742H7.0625C8.15625 47.0742 9.0319 47.2207 9.68945 47.5137C10.3535 47.8001 10.8711 48.2461 11.2422 48.8516C11.6198 49.4505 11.8086 50.0788 11.8086 50.7363C11.8086 51.3483 11.6426 51.9245 11.3105 52.4648C10.9785 53.0052 10.4772 53.4414 9.80664 53.7734C10.6725 54.0273 11.3366 54.4603 11.7988 55.0723C12.2676 55.6842 12.502 56.4069 12.502 57.2402C12.502 57.9108 12.3587 58.5358 12.0723 59.1152C11.7923 59.6882 11.444 60.1309 11.0273 60.4434C10.6107 60.7559 10.0866 60.9935 9.45508 61.1562C8.83008 61.3125 8.06185 61.3906 7.15039 61.3906H1.69141ZM3.58594 53.0898H6.68164C7.52148 53.0898 8.1237 53.0345 8.48828 52.9238C8.97005 52.7806 9.33138 52.543 9.57227 52.2109C9.81966 51.8789 9.94336 51.4622 9.94336 50.9609C9.94336 50.4857 9.82943 50.069 9.60156 49.7109C9.3737 49.3464 9.04818 49.099 8.625 48.9688C8.20182 48.832 7.47591 48.7637 6.44727 48.7637H3.58594V53.0898ZM3.58594 59.7012H7.15039C7.76237 59.7012 8.19206 59.6784 8.43945 59.6328C8.87565 59.5547 9.24023 59.4245 9.5332 59.2422C9.82617 59.0599 10.0671 58.7962 10.2559 58.4512C10.4447 58.0996 10.5391 57.696 10.5391 57.2402C10.5391 56.7064 10.4023 56.2441 10.1289 55.8535C9.85547 55.4564 9.47461 55.1797 8.98633 55.0234C8.50456 54.8607 7.80794 54.7793 6.89648 54.7793H3.58594V59.7012ZM21.6523 60.1113C21.0013 60.6647 20.373 61.0553 19.7676 61.2832C19.1686 61.5111 18.5241 61.625 17.834 61.625C16.6947 61.625 15.819 61.3483 15.207 60.7949C14.5951 60.235 14.2891 59.5221 14.2891 58.6562C14.2891 58.1484 14.403 57.6862 14.6309 57.2695C14.8652 56.8464 15.168 56.5078 15.5391 56.2539C15.9167 56 16.3398 55.8079 16.8086 55.6777C17.1536 55.5866 17.6745 55.4987 18.3711 55.4141C19.7904 55.2448 20.8353 55.043 21.5059 54.8086C21.5124 54.5677 21.5156 54.4147 21.5156 54.3496C21.5156 53.6335 21.3496 53.1289 21.0176 52.8359C20.5684 52.4388 19.901 52.2402 19.0156 52.2402C18.1888 52.2402 17.5768 52.3867 17.1797 52.6797C16.7891 52.9661 16.4993 53.4772 16.3105 54.2129L14.5918 53.9785C14.748 53.2428 15.0052 52.6504 15.3633 52.2012C15.7214 51.7454 16.2389 51.3971 16.916 51.1562C17.5931 50.9089 18.3776 50.7852 19.2695 50.7852C20.1549 50.7852 20.8743 50.8893 21.4277 51.0977C21.9811 51.306 22.388 51.5697 22.6484 51.8887C22.9089 52.2012 23.0911 52.5983 23.1953 53.0801C23.2539 53.3796 23.2832 53.9199 23.2832 54.7012V57.0449C23.2832 58.679 23.319 59.7142 23.3906 60.1504C23.4688 60.5801 23.6185 60.9935 23.8398 61.3906H22.0039C21.8216 61.026 21.7044 60.5996 21.6523 60.1113ZM21.5059 56.1855C20.8678 56.446 19.9108 56.6673 18.6348 56.8496C17.9121 56.9538 17.401 57.071 17.1016 57.2012C16.8021 57.3314 16.571 57.5234 16.4082 57.7773C16.2454 58.0247 16.1641 58.3014 16.1641 58.6074C16.1641 59.0762 16.3398 59.4668 16.6914 59.7793C17.0495 60.0918 17.5703 60.248 18.2539 60.248C18.931 60.248 19.5332 60.1016 20.0605 59.8086C20.5879 59.5091 20.9753 59.1022 21.2227 58.5879C21.4115 58.1908 21.5059 57.6048 21.5059 56.8301V56.1855ZM25.3145 58.2949L27.0527 58.0215C27.1504 58.7181 27.4206 59.252 27.8633 59.623C28.3125 59.9941 28.9375 60.1797 29.7383 60.1797C30.5456 60.1797 31.1445 60.0169 31.5352 59.6914C31.9258 59.3594 32.1211 58.972 32.1211 58.5293C32.1211 58.1322 31.9486 57.8197 31.6035 57.5918C31.3626 57.4355 30.7637 57.237 29.8066 56.9961C28.5176 56.6706 27.6224 56.3906 27.1211 56.1562C26.6263 55.9154 26.2487 55.5866 25.9883 55.1699C25.7344 54.7467 25.6074 54.2812 25.6074 53.7734C25.6074 53.3112 25.7116 52.8848 25.9199 52.4941C26.1348 52.097 26.4245 51.7682 26.7891 51.5078C27.0625 51.306 27.4336 51.1367 27.9023 51C28.3776 50.8568 28.8854 50.7852 29.4258 50.7852C30.2396 50.7852 30.9525 50.9023 31.5645 51.1367C32.1829 51.3711 32.6387 51.6901 32.9316 52.0938C33.2246 52.4909 33.4264 53.0247 33.5371 53.6953L31.8184 53.9297C31.7402 53.3958 31.5124 52.9792 31.1348 52.6797C30.7637 52.3802 30.2363 52.2305 29.5527 52.2305C28.7454 52.2305 28.1693 52.3639 27.8242 52.6309C27.4792 52.8978 27.3066 53.2103 27.3066 53.5684C27.3066 53.7962 27.3783 54.0013 27.5215 54.1836C27.6647 54.3724 27.8893 54.5286 28.1953 54.6523C28.3711 54.7174 28.8887 54.8672 29.748 55.1016C30.9915 55.4336 31.8574 55.707 32.3457 55.9219C32.8405 56.1302 33.2279 56.4362 33.5078 56.8398C33.7878 57.2435 33.9277 57.7448 33.9277 58.3438C33.9277 58.9297 33.7552 59.4831 33.4102 60.0039C33.0716 60.5182 32.5801 60.9186 31.9355 61.2051C31.291 61.485 30.5618 61.625 29.748 61.625C28.4004 61.625 27.3717 61.3451 26.6621 60.7852C25.959 60.2253 25.5098 59.3952 25.3145 58.2949ZM43.1172 58.0508L44.9336 58.2754C44.6471 59.3366 44.1165 60.1602 43.3418 60.7461C42.5671 61.332 41.5775 61.625 40.373 61.625C38.8561 61.625 37.6517 61.1595 36.7598 60.2285C35.8743 59.291 35.4316 57.9792 35.4316 56.293C35.4316 54.5482 35.8809 53.194 36.7793 52.2305C37.6777 51.2669 38.8431 50.7852 40.2754 50.7852C41.6621 50.7852 42.7949 51.2572 43.6738 52.2012C44.5527 53.1452 44.9922 54.4733 44.9922 56.1855C44.9922 56.2897 44.9889 56.446 44.9824 56.6543H37.248C37.3132 57.7936 37.6354 58.666 38.2148 59.2715C38.7943 59.877 39.5169 60.1797 40.3828 60.1797C41.0273 60.1797 41.5775 60.0104 42.0332 59.6719C42.4889 59.3333 42.8503 58.793 43.1172 58.0508ZM37.3457 55.209H43.1367C43.0586 54.3366 42.8372 53.6823 42.4727 53.2461C41.9128 52.569 41.1868 52.2305 40.2949 52.2305C39.4876 52.2305 38.8073 52.5007 38.2539 53.041C37.707 53.5814 37.4043 54.304 37.3457 55.209ZM53.8789 61.3906V60.082C53.2214 61.1107 52.2546 61.625 50.9785 61.625C50.1517 61.625 49.39 61.3971 48.6934 60.9414C48.0033 60.4857 47.4661 59.8509 47.082 59.0371C46.7044 58.2168 46.5156 57.276 46.5156 56.2148C46.5156 55.1797 46.6882 54.2422 47.0332 53.4023C47.3783 52.556 47.8958 51.9082 48.5859 51.459C49.276 51.0098 50.0475 50.7852 50.9004 50.7852C51.5254 50.7852 52.082 50.9186 52.5703 51.1855C53.0586 51.446 53.4557 51.7878 53.7617 52.2109V47.0742H55.5098V61.3906H53.8789ZM48.3223 56.2148C48.3223 57.543 48.6022 58.5358 49.1621 59.1934C49.722 59.8509 50.3828 60.1797 51.1445 60.1797C51.9128 60.1797 52.5638 59.8672 53.0977 59.2422C53.638 58.6107 53.9082 57.6504 53.9082 56.3613C53.9082 54.9421 53.6348 53.9004 53.0879 53.2363C52.541 52.5723 51.8672 52.2402 51.0664 52.2402C50.2852 52.2402 49.6309 52.5592 49.1035 53.1973C48.5827 53.8353 48.3223 54.8411 48.3223 56.2148ZM63.1953 56.2051C63.1953 54.2845 63.7292 52.862 64.7969 51.9375C65.6888 51.1693 66.776 50.7852 68.0586 50.7852C69.4844 50.7852 70.6497 51.2539 71.5547 52.1914C72.4596 53.1224 72.9121 54.4115 72.9121 56.0586C72.9121 57.3932 72.7103 58.4447 72.3066 59.2129C71.9095 59.9746 71.3268 60.5671 70.5586 60.9902C69.7969 61.4134 68.9635 61.625 68.0586 61.625C66.6068 61.625 65.4316 61.1595 64.5332 60.2285C63.6413 59.2975 63.1953 57.9564 63.1953 56.2051ZM65.002 56.2051C65.002 57.5332 65.2917 58.5293 65.8711 59.1934C66.4505 59.8509 67.1797 60.1797 68.0586 60.1797C68.931 60.1797 69.6569 59.8477 70.2363 59.1836C70.8158 58.5195 71.1055 57.5072 71.1055 56.1465C71.1055 54.8639 70.8125 53.8939 70.2266 53.2363C69.6471 52.5723 68.9245 52.2402 68.0586 52.2402C67.1797 52.2402 66.4505 52.569 65.8711 53.2266C65.2917 53.8841 65.002 54.877 65.002 56.2051ZM74.9824 61.3906V51.0195H76.5645V52.4941C77.3262 51.3548 78.4264 50.7852 79.8652 50.7852C80.4902 50.7852 81.0632 50.8991 81.584 51.127C82.1113 51.3483 82.5052 51.6413 82.7656 52.0059C83.026 52.3704 83.2083 52.8034 83.3125 53.3047C83.3776 53.6302 83.4102 54.1999 83.4102 55.0137V61.3906H81.6523V55.082C81.6523 54.3659 81.584 53.832 81.4473 53.4805C81.3105 53.1224 81.0664 52.8392 80.7148 52.6309C80.3698 52.416 79.9629 52.3086 79.4941 52.3086C78.7454 52.3086 78.0977 52.5462 77.5508 53.0215C77.0104 53.4967 76.7402 54.3984 76.7402 55.7266V61.3906H74.9824ZM90.9785 58.2949L92.7168 58.0215C92.8145 58.7181 93.0846 59.252 93.5273 59.623C93.9766 59.9941 94.6016 60.1797 95.4023 60.1797C96.2096 60.1797 96.8086 60.0169 97.1992 59.6914C97.5898 59.3594 97.7852 58.972 97.7852 58.5293C97.7852 58.1322 97.6126 57.8197 97.2676 57.5918C97.0267 57.4355 96.4277 57.237 95.4707 56.9961C94.1816 56.6706 93.2865 56.3906 92.7852 56.1562C92.2904 55.9154 91.9128 55.5866 91.6523 55.1699C91.3984 54.7467 91.2715 54.2812 91.2715 53.7734C91.2715 53.3112 91.3757 52.8848 91.584 52.4941C91.7988 52.097 92.0885 51.7682 92.4531 51.5078C92.7266 51.306 93.0977 51.1367 93.5664 51C94.0417 50.8568 94.5495 50.7852 95.0898 50.7852C95.9036 50.7852 96.6165 50.9023 97.2285 51.1367C97.847 51.3711 98.3027 51.6901 98.5957 52.0938C98.8887 52.4909 99.0905 53.0247 99.2012 53.6953L97.4824 53.9297C97.4043 53.3958 97.1764 52.9792 96.7988 52.6797C96.4277 52.3802 95.9004 52.2305 95.2168 52.2305C94.4095 52.2305 93.8333 52.3639 93.4883 52.6309C93.1432 52.8978 92.9707 53.2103 92.9707 53.5684C92.9707 53.7962 93.0423 54.0013 93.1855 54.1836C93.3288 54.3724 93.5534 54.5286 93.8594 54.6523C94.0352 54.7174 94.5527 54.8672 95.4121 55.1016C96.6556 55.4336 97.5215 55.707 98.0098 55.9219C98.5046 56.1302 98.8919 56.4362 99.1719 56.8398C99.4518 57.2435 99.5918 57.7448 99.5918 58.3438C99.5918 58.9297 99.4193 59.4831 99.0742 60.0039C98.7357 60.5182 98.2441 60.9186 97.5996 61.2051C96.9551 61.485 96.2259 61.625 95.4121 61.625C94.0645 61.625 93.0358 61.3451 92.3262 60.7852C91.623 60.2253 91.1738 59.3952 90.9785 58.2949ZM105.52 59.8184L105.773 61.3711C105.279 61.4753 104.836 61.5273 104.445 61.5273C103.807 61.5273 103.312 61.4264 102.961 61.2246C102.609 61.0228 102.362 60.7591 102.219 60.4336C102.076 60.1016 102.004 59.4082 102.004 58.3535V52.3867H100.715V51.0195H102.004V48.4512L103.752 47.3965V51.0195H105.52V52.3867H103.752V58.4512C103.752 58.9525 103.781 59.2747 103.84 59.418C103.905 59.5612 104.006 59.6751 104.143 59.7598C104.286 59.8444 104.488 59.8867 104.748 59.8867C104.943 59.8867 105.201 59.8639 105.52 59.8184ZM114.348 58.0508L116.164 58.2754C115.878 59.3366 115.347 60.1602 114.572 60.7461C113.798 61.332 112.808 61.625 111.604 61.625C110.087 61.625 108.882 61.1595 107.99 60.2285C107.105 59.291 106.662 57.9792 106.662 56.293C106.662 54.5482 107.111 53.194 108.01 52.2305C108.908 51.2669 110.074 50.7852 111.506 50.7852C112.893 50.7852 114.025 51.2572 114.904 52.2012C115.783 53.1452 116.223 54.4733 116.223 56.1855C116.223 56.2897 116.219 56.446 116.213 56.6543H108.479C108.544 57.7936 108.866 58.666 109.445 59.2715C110.025 59.877 110.747 60.1797 111.613 60.1797C112.258 60.1797 112.808 60.0104 113.264 59.6719C113.719 59.3333 114.081 58.793 114.348 58.0508ZM108.576 55.209H114.367C114.289 54.3366 114.068 53.6823 113.703 53.2461C113.143 52.569 112.417 52.2305 111.525 52.2305C110.718 52.2305 110.038 52.5007 109.484 53.041C108.938 53.5814 108.635 54.304 108.576 55.209ZM118.342 61.3906V47.0742H120.1V61.3906H118.342ZM122.795 61.3906V47.0742H124.553V61.3906H122.795ZM134.055 60.1113C133.404 60.6647 132.775 61.0553 132.17 61.2832C131.571 61.5111 130.926 61.625 130.236 61.625C129.097 61.625 128.221 61.3483 127.609 60.7949C126.997 60.235 126.691 59.5221 126.691 58.6562C126.691 58.1484 126.805 57.6862 127.033 57.2695C127.268 56.8464 127.57 56.5078 127.941 56.2539C128.319 56 128.742 55.8079 129.211 55.6777C129.556 55.5866 130.077 55.4987 130.773 55.4141C132.193 55.2448 133.238 55.043 133.908 54.8086C133.915 54.5677 133.918 54.4147 133.918 54.3496C133.918 53.6335 133.752 53.1289 133.42 52.8359C132.971 52.4388 132.303 52.2402 131.418 52.2402C130.591 52.2402 129.979 52.3867 129.582 52.6797C129.191 52.9661 128.902 53.4772 128.713 54.2129L126.994 53.9785C127.15 53.2428 127.408 52.6504 127.766 52.2012C128.124 51.7454 128.641 51.3971 129.318 51.1562C129.995 50.9089 130.78 50.7852 131.672 50.7852C132.557 50.7852 133.277 50.8893 133.83 51.0977C134.383 51.306 134.79 51.5697 135.051 51.8887C135.311 52.2012 135.493 52.5983 135.598 53.0801C135.656 53.3796 135.686 53.9199 135.686 54.7012V57.0449C135.686 58.679 135.721 59.7142 135.793 60.1504C135.871 60.5801 136.021 60.9935 136.242 61.3906H134.406C134.224 61.026 134.107 60.5996 134.055 60.1113ZM133.908 56.1855C133.27 56.446 132.313 56.6673 131.037 56.8496C130.314 56.9538 129.803 57.071 129.504 57.2012C129.204 57.3314 128.973 57.5234 128.811 57.7773C128.648 58.0247 128.566 58.3014 128.566 58.6074C128.566 59.0762 128.742 59.4668 129.094 59.7793C129.452 60.0918 129.973 60.248 130.656 60.248C131.333 60.248 131.936 60.1016 132.463 59.8086C132.99 59.5091 133.378 59.1022 133.625 58.5879C133.814 58.1908 133.908 57.6048 133.908 56.8301V56.1855ZM138.4 61.3906V51.0195H139.982V52.5918C140.386 51.8561 140.757 51.3711 141.096 51.1367C141.441 50.9023 141.818 50.7852 142.229 50.7852C142.821 50.7852 143.423 50.974 144.035 51.3516L143.43 52.9824C143 52.7285 142.57 52.6016 142.141 52.6016C141.757 52.6016 141.411 52.7188 141.105 52.9531C140.799 53.181 140.581 53.5 140.451 53.9102C140.256 54.5352 140.158 55.2188 140.158 55.9609V61.3906H138.4ZM150.627 61.3906V51.0195H152.209V52.5918C152.613 51.8561 152.984 51.3711 153.322 51.1367C153.667 50.9023 154.045 50.7852 154.455 50.7852C155.048 50.7852 155.65 50.974 156.262 51.3516L155.656 52.9824C155.227 52.7285 154.797 52.6016 154.367 52.6016C153.983 52.6016 153.638 52.7188 153.332 52.9531C153.026 53.181 152.808 53.5 152.678 53.9102C152.482 54.5352 152.385 55.2188 152.385 55.9609V61.3906H150.627ZM164.406 58.0508L166.223 58.2754C165.936 59.3366 165.406 60.1602 164.631 60.7461C163.856 61.332 162.867 61.625 161.662 61.625C160.145 61.625 158.941 61.1595 158.049 60.2285C157.163 59.291 156.721 57.9792 156.721 56.293C156.721 54.5482 157.17 53.194 158.068 52.2305C158.967 51.2669 160.132 50.7852 161.564 50.7852C162.951 50.7852 164.084 51.2572 164.963 52.2012C165.842 53.1452 166.281 54.4733 166.281 56.1855C166.281 56.2897 166.278 56.446 166.271 56.6543H158.537C158.602 57.7936 158.924 58.666 159.504 59.2715C160.083 59.877 160.806 60.1797 161.672 60.1797C162.316 60.1797 162.867 60.0104 163.322 59.6719C163.778 59.3333 164.139 58.793 164.406 58.0508ZM158.635 55.209H164.426C164.348 54.3366 164.126 53.6823 163.762 53.2461C163.202 52.569 162.476 52.2305 161.584 52.2305C160.777 52.2305 160.096 52.5007 159.543 53.041C158.996 53.5814 158.693 54.304 158.635 55.209ZM171.32 61.3906L167.375 51.0195H169.23L171.457 57.2305C171.698 57.901 171.919 58.5977 172.121 59.3203C172.277 58.7734 172.495 58.1159 172.775 57.3477L175.08 51.0195H176.887L172.961 61.3906H171.32ZM178.449 49.0957V47.0742H180.207V49.0957H178.449ZM178.449 61.3906V51.0195H180.207V61.3906H178.449ZM189.992 58.0508L191.809 58.2754C191.522 59.3366 190.992 60.1602 190.217 60.7461C189.442 61.332 188.452 61.625 187.248 61.625C185.731 61.625 184.527 61.1595 183.635 60.2285C182.749 59.291 182.307 57.9792 182.307 56.293C182.307 54.5482 182.756 53.194 183.654 52.2305C184.553 51.2669 185.718 50.7852 187.15 50.7852C188.537 50.7852 189.67 51.2572 190.549 52.2012C191.428 53.1452 191.867 54.4733 191.867 56.1855C191.867 56.2897 191.864 56.446 191.857 56.6543H184.123C184.188 57.7936 184.51 58.666 185.09 59.2715C185.669 59.877 186.392 60.1797 187.258 60.1797C187.902 60.1797 188.452 60.0104 188.908 59.6719C189.364 59.3333 189.725 58.793 189.992 58.0508ZM184.221 55.209H190.012C189.934 54.3366 189.712 53.6823 189.348 53.2461C188.788 52.569 188.062 52.2305 187.17 52.2305C186.363 52.2305 185.682 52.5007 185.129 53.041C184.582 53.5814 184.279 54.304 184.221 55.209ZM195.939 61.3906L192.766 51.0195H194.582L196.232 57.0059L196.848 59.2324C196.874 59.1217 197.053 58.4089 197.385 57.0938L199.035 51.0195H200.842L202.395 57.0352L202.912 59.0176L203.508 57.0156L205.285 51.0195H206.994L203.752 61.3906H201.926L200.275 55.1797L199.875 53.4121L197.775 61.3906H195.939ZM207.775 58.2949L209.514 58.0215C209.611 58.7181 209.882 59.252 210.324 59.623C210.773 59.9941 211.398 60.1797 212.199 60.1797C213.007 60.1797 213.605 60.0169 213.996 59.6914C214.387 59.3594 214.582 58.972 214.582 58.5293C214.582 58.1322 214.41 57.8197 214.064 57.5918C213.824 57.4355 213.225 57.237 212.268 56.9961C210.979 56.6706 210.083 56.3906 209.582 56.1562C209.087 55.9154 208.71 55.5866 208.449 55.1699C208.195 54.7467 208.068 54.2812 208.068 53.7734C208.068 53.3112 208.173 52.8848 208.381 52.4941C208.596 52.097 208.885 51.7682 209.25 51.5078C209.523 51.306 209.895 51.1367 210.363 51C210.839 50.8568 211.346 50.7852 211.887 50.7852C212.701 50.7852 213.413 50.9023 214.025 51.1367C214.644 51.3711 215.1 51.6901 215.393 52.0938C215.686 52.4909 215.887 53.0247 215.998 53.6953L214.279 53.9297C214.201 53.3958 213.973 52.9792 213.596 52.6797C213.225 52.3802 212.697 52.2305 212.014 52.2305C211.206 52.2305 210.63 52.3639 210.285 52.6309C209.94 52.8978 209.768 53.2103 209.768 53.5684C209.768 53.7962 209.839 54.0013 209.982 54.1836C210.126 54.3724 210.35 54.5286 210.656 54.6523C210.832 54.7174 211.35 54.8672 212.209 55.1016C213.452 55.4336 214.318 55.707 214.807 55.9219C215.301 56.1302 215.689 56.4362 215.969 56.8398C216.249 57.2435 216.389 57.7448 216.389 58.3438C216.389 58.9297 216.216 59.4831 215.871 60.0039C215.533 60.5182 215.041 60.9186 214.396 61.2051C213.752 61.485 213.023 61.625 212.209 61.625C210.861 61.625 209.833 61.3451 209.123 60.7852C208.42 60.2253 207.971 59.3952 207.775 58.2949ZM223.391 56.2051C223.391 54.2845 223.924 52.862 224.992 51.9375C225.884 51.1693 226.971 50.7852 228.254 50.7852C229.68 50.7852 230.845 51.2539 231.75 52.1914C232.655 53.1224 233.107 54.4115 233.107 56.0586C233.107 57.3932 232.906 58.4447 232.502 59.2129C232.105 59.9746 231.522 60.5671 230.754 60.9902C229.992 61.4134 229.159 61.625 228.254 61.625C226.802 61.625 225.627 61.1595 224.729 60.2285C223.837 59.2975 223.391 57.9564 223.391 56.2051ZM225.197 56.2051C225.197 57.5332 225.487 58.5293 226.066 59.1934C226.646 59.8509 227.375 60.1797 228.254 60.1797C229.126 60.1797 229.852 59.8477 230.432 59.1836C231.011 58.5195 231.301 57.5072 231.301 56.1465C231.301 54.8639 231.008 53.8939 230.422 53.2363C229.842 52.5723 229.12 52.2402 228.254 52.2402C227.375 52.2402 226.646 52.569 226.066 53.2266C225.487 53.8841 225.197 54.877 225.197 56.2051ZM235.178 61.3906V51.0195H236.76V52.4941C237.521 51.3548 238.622 50.7852 240.061 50.7852C240.686 50.7852 241.258 50.8991 241.779 51.127C242.307 51.3483 242.701 51.6413 242.961 52.0059C243.221 52.3704 243.404 52.8034 243.508 53.3047C243.573 53.6302 243.605 54.1999 243.605 55.0137V61.3906H241.848V55.082C241.848 54.3659 241.779 53.832 241.643 53.4805C241.506 53.1224 241.262 52.8392 240.91 52.6309C240.565 52.416 240.158 52.3086 239.689 52.3086C238.941 52.3086 238.293 52.5462 237.746 53.0215C237.206 53.4967 236.936 54.3984 236.936 55.7266V61.3906H235.178Z" fill="#7C828D"/>
<defs>
<linearGradient id="paint0_linear_663_5365" x1="0.226562" y1="6.59375" x2="0.226562" y2="33.233" gradientUnits="userSpaceOnUse">
<stop stop-color="#23C3F5"/>
<stop offset="1" stop-color="#4986FB"/>
</linearGradient>
<linearGradient id="paint1_linear_663_5365" x1="33.2422" y1="6.59375" x2="33.2422" y2="33.233" gradientUnits="userSpaceOnUse">
<stop stop-color="#23C3F5"/>
<stop offset="1" stop-color="#4986FB"/>
</linearGradient>
<linearGradient id="paint2_linear_663_5365" x1="68.0938" y1="6.59375" x2="68.0938" y2="33.233" gradientUnits="userSpaceOnUse">
<stop stop-color="#23C3F5"/>
<stop offset="1" stop-color="#4986FB"/>
</linearGradient>
<linearGradient id="paint3_linear_663_5365" x1="101.105" y1="6.59375" x2="101.105" y2="33.233" gradientUnits="userSpaceOnUse">
<stop stop-color="#23C3F5"/>
<stop offset="1" stop-color="#4986FB"/>
</linearGradient>
<linearGradient id="paint4_linear_663_5365" x1="135.953" y1="6.59375" x2="135.953" y2="33.233" gradientUnits="userSpaceOnUse">
<stop stop-color="#23C3F5"/>
<stop offset="1" stop-color="#4986FB"/>
</linearGradient>
</defs>
</svg>
