<svg xmlns="http://www.w3.org/2000/svg" width="14.181" height="14.192" viewBox="0 0 14.181 14.192">
  <g id="Group_45" data-name="Group 45" transform="translate(495.664 -689.408)">
    <path id="Path_125" data-name="Path 125" d="M-489.739,702.4c.371,0,.733,0,1.1,0a4.669,4.669,0,0,0,3.49-1.486.457.457,0,0,0,.114-.285c.008-.928.008-1.856,0-2.785a2.343,2.343,0,0,1,.417-1.383c.184-.265.339-.553.543-.8a1.045,1.045,0,0,0,.2-.854,4.735,4.735,0,0,0-3.887-4.151,4.732,4.732,0,0,0-5.454,3.784c-.02.113-.038.227-.055.341a1.038,1.038,0,0,0,.2.888c.206.246.361.534.544.8a2.316,2.316,0,0,1,.411,1.35c0,.894,0,1.787,0,2.681,0,.5-.219.717-.716.718-.519,0-1.038,0-1.557,0a1.19,1.19,0,0,1-1.275-1.276q0-1.669,0-3.338a1.2,1.2,0,0,1,1.172-1.3,5.871,5.871,0,0,1,2.6-4.873,5.65,5.65,0,0,1,3.61-1.015,5.744,5.744,0,0,1,3.983,1.828,5.839,5.839,0,0,1,1.633,4.051c.123.025.238.038.346.071a1.157,1.157,0,0,1,.829,1.1c.01,1.2.013,2.4,0,3.6a1.149,1.149,0,0,1-1.113,1.148c-.362.022-.726.011-1.089.008a.3.3,0,0,0-.264.12,5.752,5.752,0,0,1-3.937,2.2c-.6.07-1.219.047-1.844.066Z" transform="translate(0 0)" fill="#7e9ab8"/>
    <path id="Path_126" data-name="Path 126" d="M-398.489,823.335v-1.18c-.184,0-.356,0-.527,0a.6.6,0,0,1-.65-.659q0-1.7,0-3.406a.6.6,0,0,1,.656-.653H-395a.6.6,0,0,1,.651.658q0,1.7,0,3.406a.6.6,0,0,1-.655.654c-.519,0-1.038,0-1.556,0a.535.535,0,0,0-.27.082c-.5.323-.989.655-1.483.983C-398.359,823.256-398.407,823.284-398.489,823.335Z" transform="translate(-91.568 -122.121)" fill="#7e9ab8"/>
    <path id="Path_127" data-name="Path 127" d="M-399.7,735.949l-.611-.609a3.785,3.785,0,0,1,5.375-.02l-.616.616a2.914,2.914,0,0,0-2.069-.838A2.925,2.925,0,0,0-399.7,735.949Z" transform="translate(-90.959 -42.736)" fill="#7e9ab8"/>
  </g>
</svg>
