<svg width="103" height="18" viewBox="0 0 103 18" fill="none" xmlns="http://www.w3.org/2000/svg">
<path fill-rule="evenodd" clip-rule="evenodd" d="M9.41038 1.35371L11.4414 5.983L16.1783 6.61575C16.6169 6.6763 16.9378 7.10993 16.8815 7.58013C16.853 7.80928 16.7462 8.00794 16.5943 8.14697L13.1462 11.6067L14.0462 16.6336C14.1303 17.1037 13.8436 17.5558 13.4046 17.6461C13.2135 17.6822 13.0223 17.6461 12.8647 17.5497L8.67896 15.0846L4.49936 17.5497C4.10571 17.7847 3.61622 17.6282 3.40256 17.2121C3.3067 17.0253 3.28431 16.8203 3.31822 16.6336L4.21244 11.6067L0.730554 8.10459C0.409514 7.77901 0.39256 7.2308 0.696429 6.88706C0.83141 6.73033 1.00617 6.64603 1.18592 6.62181V6.61575L5.92262 5.983L7.95341 1.35371C8.13926 0.919844 8.61766 0.739125 9.02239 0.938009C9.20236 1.02837 9.33191 1.17905 9.41038 1.35371Z" fill="url(#paint0_linear_314_5078)"/>
<path fill-rule="evenodd" clip-rule="evenodd" d="M30.234 1.35371L32.265 5.983L37.0019 6.61575C37.4405 6.6763 37.7614 7.10993 37.7051 7.58013C37.6766 7.80928 37.5698 8.00794 37.4179 8.14697L33.9698 11.6067L34.8698 16.6336C34.9539 17.1037 34.6673 17.5558 34.2282 17.6461C34.0371 17.6822 33.8459 17.6461 33.6883 17.5497L29.5026 15.0846L25.323 17.5497C24.9293 17.7847 24.4398 17.6282 24.2262 17.2121C24.1303 17.0253 24.1079 16.8203 24.1418 16.6336L25.0361 11.6067L21.5542 8.10459C21.2331 7.77901 21.2162 7.2308 21.52 6.88706C21.655 6.73033 21.8298 6.64603 22.0095 6.62181V6.61575L26.7462 5.983L28.777 1.35371C28.9629 0.919844 29.4413 0.739125 29.846 0.938009C30.026 1.02837 30.1555 1.17905 30.234 1.35371Z" fill="url(#paint1_linear_314_5078)"/>
<path fill-rule="evenodd" clip-rule="evenodd" d="M52.2145 1.35371L54.2455 5.983L58.9824 6.61575C59.421 6.6763 59.7419 7.10993 59.6855 7.58013C59.6571 7.80928 59.5503 8.00794 59.3984 8.14697L55.9503 11.6067L56.8503 16.6336C56.9344 17.1037 56.6477 17.5558 56.2087 17.6461C56.0176 17.6822 55.8264 17.6461 55.6688 17.5497L51.483 15.0846L47.3034 17.5497C46.9098 17.7847 46.4203 17.6282 46.2066 17.2121C46.1108 17.0253 46.0884 16.8203 46.1223 16.6336L47.0165 11.6067L43.5346 8.10459C43.2136 7.77901 43.1966 7.2308 43.5005 6.88706C43.6355 6.73033 43.8102 6.64603 43.99 6.62181V6.61575L48.7267 5.983L50.7575 1.35371C50.9433 0.919844 51.4217 0.739125 51.8265 0.938009C52.0064 1.02837 52.136 1.17905 52.2145 1.35371Z" fill="url(#paint2_linear_314_5078)"/>
<path fill-rule="evenodd" clip-rule="evenodd" d="M73.0379 1.35371L75.069 5.983L79.8059 6.61575C80.2444 6.6763 80.5654 7.10993 80.509 7.58013C80.4806 7.80928 80.3738 8.00794 80.2219 8.14697L76.7737 11.6067L77.6738 16.6336C77.7579 17.1037 77.4712 17.5558 77.0322 17.6461C76.8411 17.6822 76.6498 17.6461 76.4923 17.5497L72.3065 15.0846L68.1269 17.5497C67.7333 17.7847 67.2438 17.6282 67.0301 17.2121C66.9343 17.0253 66.9119 16.8203 66.9458 16.6336L67.84 11.6067L64.3581 8.10459C64.0371 7.77901 64.0201 7.2308 64.324 6.88706C64.459 6.73033 64.6337 6.64603 64.8135 6.62181V6.61575L69.5502 5.983L71.581 1.35371C71.7668 0.919844 72.2452 0.739125 72.65 0.938009C72.8299 1.02837 72.9595 1.17905 73.0379 1.35371Z" fill="url(#paint3_linear_314_5078)"/>
<path fill-rule="evenodd" clip-rule="evenodd" d="M95.0184 1.35371L97.0494 5.983L101.786 6.61575C102.225 6.6763 102.546 7.10993 102.489 7.58013C102.461 7.80928 102.354 8.00794 102.202 8.14697L98.7542 11.6067L99.6542 16.6336C99.7384 17.1037 99.4517 17.5558 99.0127 17.6461C98.8215 17.6822 98.6303 17.6461 98.4727 17.5497L94.287 15.0846L90.1074 17.5497C89.7137 17.7847 89.2243 17.6282 89.0106 17.2121C88.9147 17.0253 88.8923 16.8203 88.9263 16.6336L89.8205 11.6067L86.3386 8.10459C86.0175 7.77901 86.0006 7.2308 86.3045 6.88706C86.4394 6.73033 86.6142 6.64603 86.794 6.62181V6.61575L91.5307 5.983L93.5614 1.35371C93.7473 0.919844 94.2257 0.739125 94.6304 0.938009C94.8104 1.02837 94.9399 1.17905 95.0184 1.35371Z" fill="url(#paint4_linear_314_5078)"/>
<defs>
<linearGradient id="paint0_linear_314_5078" x1="0.47876" y1="0.857422" x2="0.47876" y2="17.6599" gradientUnits="userSpaceOnUse">
<stop stop-color="#47E4FA"/>
<stop offset="1" stop-color="#1B9BE3"/>
</linearGradient>
<linearGradient id="paint1_linear_314_5078" x1="21.3024" y1="0.857422" x2="21.3024" y2="17.6599" gradientUnits="userSpaceOnUse">
<stop stop-color="#47E4FA"/>
<stop offset="1" stop-color="#1B9BE3"/>
</linearGradient>
<linearGradient id="paint2_linear_314_5078" x1="43.2828" y1="0.857422" x2="43.2828" y2="17.6599" gradientUnits="userSpaceOnUse">
<stop stop-color="#47E4FA"/>
<stop offset="1" stop-color="#1B9BE3"/>
</linearGradient>
<linearGradient id="paint3_linear_314_5078" x1="64.1063" y1="0.857422" x2="64.1063" y2="17.6599" gradientUnits="userSpaceOnUse">
<stop stop-color="#47E4FA"/>
<stop offset="1" stop-color="#1B9BE3"/>
</linearGradient>
<linearGradient id="paint4_linear_314_5078" x1="86.0868" y1="0.857422" x2="86.0868" y2="17.6599" gradientUnits="userSpaceOnUse">
<stop stop-color="#47E4FA"/>
<stop offset="1" stop-color="#1B9BE3"/>
</linearGradient>
</defs>
</svg>
