<svg width="1080" height="218" viewBox="0 0 1080 218" fill="none" xmlns="http://www.w3.org/2000/svg">
<g clip-path="url(#clip0_316_5121)">
<rect width="1080" height="218" rx="14" fill="#17294B"/>
<path d="M638.286 238.966C665.376 107.491 766.756 -35.802 814.06 -91.0144L965.262 -1.4085L921.726 342.774C815.958 362.952 611.196 370.44 638.286 238.966Z" fill="#2057AF"/>
<path d="M741.224 218.563C744.883 78.6085 841.145 -5.11013 888.819 -29.4752L891.712 318.656C840.025 343.606 737.566 358.517 741.224 218.563Z" fill="#3D82CA"/>
<path d="M862.097 177.024C837.1 49.2868 855.65 -70.4928 868.049 -114.415L995.931 -107.303C961.735 40.6965 887.095 304.761 862.097 177.024Z" fill="#409CD9"/>
<path d="M845.855 262.21C844.526 170.564 907.842 2.25491 939.667 -70.4438L1030.65 -68.5858L1014.86 288.166C959.079 317.7 847.184 353.856 845.855 262.21Z" fill="#5CABE0"/>
<path d="M958.15 126.474C965.921 39.8142 1020.7 -54.7871 1047.11 -91.2553L1133.6 -89.4892L1125.23 319.925L925.776 315.852C933.33 288.834 950.379 213.133 958.15 126.474Z" fill="#6DCCF1"/>
<path d="M1037.96 112.101C1026.18 62.2496 1039.87 2.11668 1048.19 -21.7184L1114.18 -20.3708L1106.79 341.554L985.315 339.073C1007.77 284.187 1049.74 161.952 1037.96 112.101Z" fill="#A5E4F9"/>
</g>
<defs>
<clipPath id="clip0_316_5121">
<rect width="1080" height="218" rx="14" fill="white"/>
</clipPath>
</defs>
</svg>
