<?xml version="1.0" encoding="UTF-8"?>
<svg xmlns="http://www.w3.org/2000/svg" width="15.772" height="14.846" viewBox="0 0 15.772 14.846">
  <g id="Group_52" data-name="Group 52" transform="translate(287.908 -2843.246)">
    <path id="Path_152" data-name="Path 152" d="M-204.148,2896.712a1.418,1.418,0,0,1,.107-.24.331.331,0,0,1,.158-.13,3.7,3.7,0,0,1,.387-.066.241.241,0,0,0,.221-.246q.02-.656.029-1.313a.226.226,0,0,0-.19-.234.9.9,0,0,0-.192-.041.427.427,0,0,1-.435-.35.318.318,0,0,1,.054-.338c.329-.418.326-.428-.048-.809-.215-.219-.422-.444-.635-.665a.27.27,0,0,0-.418-.047c-.023.015-.045.031-.067.047-.334.223-.335.225-.692.039a.174.174,0,0,1-.077-.107c-.028-.134-.043-.27-.063-.4a.275.275,0,0,0-.31-.268l-.328,0a.151.151,0,0,1-.038-.016v-5.948h10.148v1.565h-5.935a.751.751,0,0,0-.841.84q0,2.832,0,5.664a.749.749,0,0,0,.829.836h.819c0,.236,0,.454,0,.671a.517.517,0,0,0,.3.538.519.519,0,0,0,.6-.135q.55-.494,1.108-.977a.346.346,0,0,1,.2-.093c.952-.006,1.9,0,2.857,0a.49.49,0,0,1,.075.013v2.221Z" transform="translate(-77.665 -40.471)" fill="#7e9ab8"></path>
    <path id="Path_153" data-name="Path 153" d="M-116.3,2940.609c0-.313,0-.594,0-.877s-.082-.351-.353-.352c-.334,0-.668,0-1,0-.213,0-.294-.074-.294-.281q0-2.881,0-5.761c0-.207.072-.269.3-.269h4.4l3.3,0c.275,0,.33.053.33.323q0,2.832,0,5.663c0,.267-.062.328-.328.328q-2.364,0-4.727,0a.526.526,0,0,0-.384.143c-.352.32-.711.632-1.068.947C-116.174,2940.509-116.224,2940.548-116.3,2940.609Zm1.886-1.8a.283.283,0,0,0,.257-.243q.47-1.7.946-3.406c.1-.368.206-.736.3-1.105a.238.238,0,0,0-.171-.308.251.251,0,0,0-.312.167c-.02.051-.032.1-.046.157l-.847,3.044c-.121.436-.244.872-.363,1.309C-114.707,2938.644-114.61,2938.807-114.413,2938.813Zm-1.074-2.536c.256-.257.5-.5.74-.745a.249.249,0,0,0,.017-.367.243.243,0,0,0-.365,0q-.474.465-.937.941a.227.227,0,0,0,0,.339q.468.482.95.951a.246.246,0,0,0,.384-.048.262.262,0,0,0-.066-.352C-115,2936.76-115.239,2936.524-115.487,2936.278Zm3.439.011a1.51,1.51,0,0,0-.162.12c-.206.2-.413.406-.613.615a.244.244,0,0,0-.01.365.247.247,0,0,0,.366-.007q.469-.458.927-.927a.234.234,0,0,0,0-.353c-.308-.317-.619-.633-.937-.939a.245.245,0,0,0-.422.139.382.382,0,0,0,.108.254C-112.561,2935.8-112.318,2936.024-112.048,2936.289Z" transform="translate(-162.517 -85.886)" fill="#7e9ab8"></path>
    <path id="Path_154" data-name="Path 154" d="M-282.022,3034.519c-.088.12-.163.227-.244.33a.313.313,0,0,0-.031.352,5.443,5.443,0,0,1,.219.564.309.309,0,0,0,.26.236c.4.079.4.081.389.494,0,.147,0,.294,0,.453-.152.025-.285.051-.418.069a.306.306,0,0,0-.265.21c-.079.2-.164.393-.259.583a.3.3,0,0,0,.024.336c.076.107.146.218.229.341l-.633.6c-.113-.083-.22-.156-.322-.237a.314.314,0,0,0-.365-.033,4.162,4.162,0,0,1-.533.207.341.341,0,0,0-.267.291c-.072.393-.078.392-.483.392h-.459c-.023-.148-.05-.291-.068-.435a.3.3,0,0,0-.213-.261,5.719,5.719,0,0,1-.553-.246.318.318,0,0,0-.367.016c-.106.077-.218.146-.342.229l-.6-.628c.087-.12.165-.231.249-.34a.3.3,0,0,0,.033-.336c-.084-.189-.155-.384-.221-.581a.3.3,0,0,0-.25-.228c-.133-.024-.265-.054-.395-.081,0-.271,0-.527,0-.783,0-.035.061-.1.092-.1a.627.627,0,0,0,.7-.579.154.154,0,0,1,.021-.044c.237-.415.232-.357-.053-.785-.024-.036-.045-.074-.072-.12l.628-.6c.111.081.218.154.32.235a.316.316,0,0,0,.365.038,3.794,3.794,0,0,1,.532-.21.356.356,0,0,0,.276-.3c.075-.372.08-.372.451-.371.153,0,.348-.051.447.023s.08.274.108.42a.315.315,0,0,0,.212.248c.2.081.392.165.584.257a.3.3,0,0,0,.323-.021c.112-.077.227-.151.353-.236Zm-.913,1.913a1.735,1.735,0,0,0-1.8-1.715,1.73,1.73,0,0,0-1.666,1.8,1.741,1.741,0,0,0,1.756,1.679A1.746,1.746,0,0,0-282.936,3036.432Z" transform="translate(0 -181.618)" fill="#7e9ab8"></path>
    <path id="Path_155" data-name="Path 155" d="M-206.952,2844.567c0-.239-.01-.458,0-.676a.678.678,0,0,1,.729-.644q2.693,0,5.385,0h3.284a.691.691,0,0,1,.769.772c0,.179,0,.359,0,.549Zm5.078-.4c.285,0,.569,0,.854,0,.2,0,.313-.094.311-.256s-.106-.249-.3-.25q-.862,0-1.724,0c-.19,0-.3.1-.3.255s.113.25.3.251C-202.444,2844.167-202.159,2844.166-201.875,2844.166Z" transform="translate(-77.407)" fill="#7e9ab8"></path>
    <path id="Path_156" data-name="Path 156" d="M-193.61,3153.416c-.029-.164.061-.2.172-.267a.461.461,0,0,1,.595.088c.263.218.321.2.568-.033s.487-.472.738-.7a.345.345,0,0,0,.141-.407h7.365c0,.246.019.481,0,.713a.667.667,0,0,1-.727.607h-8.846Zm4.507-.9c-.289,0-.579,0-.868,0-.194,0-.3.091-.3.247s.11.257.308.258q.851,0,1.7,0c.2,0,.31-.095.309-.257s-.106-.246-.3-.248C-188.535,3152.516-188.819,3152.518-189.1,3152.518Z" transform="translate(-90.164 -295.324)" fill="#7e9ab8"></path>
    <path id="Path_157" data-name="Path 157" d="M-240.8,3082.216a1.228,1.228,0,0,1-1.217-1.228,1.238,1.238,0,0,1,1.238-1.228,1.233,1.233,0,0,1,1.216,1.232A1.222,1.222,0,0,1-240.8,3082.216Z" transform="translate(-43.879 -226.157)" fill="#7e9ab8"></path>
  </g>
</svg>
