<svg width="24" height="23" viewBox="0 0 24 23" fill="none" xmlns="http://www.w3.org/2000/svg">
<path d="M12.17 5.55067C8.95215 5.55067 6.35663 8.10563 6.35663 11.2732C6.35663 14.4407 8.95215 16.9957 12.17 16.9957C15.3878 16.9957 17.9833 14.4407 17.9833 11.2732C17.9833 8.10563 15.3878 5.55067 12.17 5.55067ZM12.17 14.9936C10.0905 14.9936 8.39054 13.3251 8.39054 11.2732C8.39054 9.22124 10.0855 7.5528 12.17 7.5528C14.2545 7.5528 15.9494 9.22124 15.9494 11.2732C15.9494 13.3251 14.2494 14.9936 12.17 14.9936ZM19.5771 5.31659C19.5771 6.05867 18.9699 6.65134 18.2211 6.65134C17.4673 6.65134 16.8652 6.05369 16.8652 5.31659C16.8652 4.57948 17.4723 3.98183 18.2211 3.98183C18.9699 3.98183 19.5771 4.57948 19.5771 5.31659ZM23.4273 6.67126C23.3413 4.88329 22.9264 3.29951 21.5958 1.99464C20.2702 0.689766 18.6613 0.281371 16.8449 0.191723C14.9729 0.087134 9.36197 0.087134 7.48996 0.191723C5.67866 0.27639 4.06975 0.684786 2.7391 1.98966C1.40846 3.29453 0.998638 4.87831 0.907568 6.66628C0.801319 8.50904 0.801319 14.0323 0.907568 15.8751C0.993579 17.6631 1.40846 19.2468 2.7391 20.5517C4.06975 21.8566 5.6736 22.265 7.48996 22.3546C9.36197 22.4592 14.9729 22.4592 16.8449 22.3546C18.6613 22.27 20.2702 21.8616 21.5958 20.5517C22.9214 19.2468 23.3363 17.6631 23.4273 15.8751C23.5336 14.0323 23.5336 8.51402 23.4273 6.67126ZM21.0089 17.8523C20.6143 18.8285 19.8503 19.5805 18.8536 19.974C17.361 20.5567 13.8194 20.4222 12.17 20.4222C10.5206 20.4222 6.97389 20.5517 5.4864 19.974C4.49474 19.5855 3.73076 18.8335 3.33106 17.8523C2.7391 16.3831 2.87571 12.8968 2.87571 11.2732C2.87571 9.64956 2.74416 6.15828 3.33106 4.69403C3.7257 3.71787 4.48968 2.96582 5.4864 2.57237C6.97895 1.98966 10.5206 2.12413 12.17 2.12413C13.8194 2.12413 17.3661 1.99464 18.8536 2.57237C19.8452 2.96084 20.6092 3.71289 21.0089 4.69403C21.6009 6.16326 21.4643 9.64956 21.4643 11.2732C21.4643 12.8968 21.6009 16.3881 21.0089 17.8523Z" fill="#3196F5"/>
</svg>
