<svg xmlns="http://www.w3.org/2000/svg" width="14.191" height="14.191" viewBox="0 0 14.191 14.191">
  <g id="Group_51" data-name="Group 51" transform="translate(723 -2289)">
    <path id="Path_149" data-name="Path 149" d="M-717.54,2289h2.051v1.687h1.762a1.257,1.257,0,0,1,1.464-.794,1.256,1.256,0,0,1,.959,1.208,1.255,1.255,0,0,1-.96,1.22,1.256,1.256,0,0,1-1.461-.789h-1.769v.818a3.774,3.774,0,0,0-4.146,3.538,3.6,3.6,0,0,0,.8,2.517,3.783,3.783,0,0,0,3.358,1.429v.832h1.757a1.257,1.257,0,0,1,1.463-.795,1.256,1.256,0,0,1,.96,1.22,1.255,1.255,0,0,1-.959,1.208,1.256,1.256,0,0,1-1.462-.79h-1.751a.148.148,0,0,0-.011.033q0,.825,0,1.649h-2c-.037-.33-.077-.66-.108-.991a.148.148,0,0,0-.114-.144c-.368-.145-.736-.292-1.1-.452a.163.163,0,0,0-.2.025c-.243.2-.49.4-.717.589l-2.274-2.275c.185-.23.379-.476.579-.718a.158.158,0,0,0,.025-.195c-.161-.366-.311-.738-.468-1.107-.017-.04-.056-.1-.089-.1-.349-.036-.7-.063-1.047-.093v-3.215c.33-.037.66-.077.991-.108a.141.141,0,0,0,.143-.115c.052-.167.1-.335.172-.5.1-.241.214-.477.324-.719l-.656-.8,2.274-2.275c.234.188.484.385.73.587a.139.139,0,0,0,.171.022c.376-.163.756-.316,1.133-.477.036-.015.084-.054.088-.085C-717.6,2289.7-717.569,2289.349-717.54,2289Z" fill="#7e9ab8"/>
    <path id="Path_150" data-name="Path 150" d="M-562.149,2387.973c-.018.066-.036.132-.056.2a1.249,1.249,0,0,1-1.361.872,1.243,1.243,0,0,1-1.074-1.275.151.151,0,0,0-.1-.169c-.394-.192-.784-.392-1.178-.584a.469.469,0,0,0-.2-.038c-1.2,0-2.393,0-3.589,0a2.419,2.419,0,0,1-2.411-1.983,2.567,2.567,0,0,1,2.166-2.979,4.18,4.18,0,0,1,.456-.026c1.122,0,2.245,0,3.367,0a.628.628,0,0,0,.262-.062c.378-.182.752-.374,1.128-.56.061-.031.1-.056.1-.141a1.243,1.243,0,0,1,1.1-1.305,1.252,1.252,0,0,1,1.36.986.365.365,0,0,0,.027.061v.388a.2.2,0,0,0-.025.046,1.237,1.237,0,0,1-2.011.718.145.145,0,0,0-.184-.008c-.432.218-.864.437-1.3.649a.622.622,0,0,1-.262.062c-1.251,0-2.5,0-3.754,0a1.662,1.662,0,0,0-1.639,1.647,1.662,1.662,0,0,0,1.653,1.676c1.247.005,2.493,0,3.74,0a.627.627,0,0,1,.262.061q.647.314,1.287.643a.17.17,0,0,0,.218-.019,1.236,1.236,0,0,1,1.888.435,3.613,3.613,0,0,1,.126.346Z" transform="translate(-146.66 -88.385)" fill="#7e9ab8"/>
    <path id="Path_151" data-name="Path 151" d="M-488.724,2501.38a2.81,2.81,0,0,1-.106.327,1.193,1.193,0,0,1-1.1.749,1.194,1.194,0,0,1-1.151-.7c-.021-.04-.04-.082-.063-.129h-5.493v-.827h5.494a1.259,1.259,0,0,1,.791-.774,1.248,1.248,0,0,1,1.6.9c.01.04.022.079.033.119Z" transform="translate(-220.085 -205.117)" fill="#7e9ab8"/>
  </g>
</svg>
