<svg width="393" height="509" viewBox="0 0 393 509" fill="none" xmlns="http://www.w3.org/2000/svg">
<g clip-path="url(#clip0_634_8942)">
<rect width="393" height="508" transform="translate(0 0.417969)" fill="white"/>
<path d="M-64.8585 532.963L-64.8594 -2.29297H507.328V498.858C471.688 506.398 385.284 521.479 324.675 521.479C248.913 521.479 173.731 504.774 100.26 504.774C26.7892 504.774 -34.3093 523.567 -64.8585 532.963Z" fill="#164B9F"/>
<rect opacity="0.8" x="68.3672" y="91.9609" width="28.8145" height="54.0273" rx="3.63277" fill="#D9D9D9" fill-opacity="0.33"/>
<g filter="url(#filter0_f_634_8942)">
<rect x="-41.8359" y="3.33008" width="823.05" height="249.984" fill="#143D95"/>
</g>
<rect opacity="0.8" x="88.293" y="425.699" width="28.8145" height="54.0273" rx="3.63277" fill="white" fill-opacity="0.12"/>
<g filter="url(#filter1_f_634_8942)">
<rect x="42.7812" y="227.5" width="375.462" height="124.026" rx="62.013" transform="rotate(15 42.7812 227.5)" fill="#FF6332" fill-opacity="0.74"/>
</g>
<path d="M13.9043 291.73V506.709" stroke="#64B2C4" stroke-opacity="0.18" stroke-width="0.518967"/>
<path d="M391.375 303.178L-17.9366 303.178" stroke="#64B2C4" stroke-opacity="0.18" stroke-width="0.518967"/>
<path d="M391.375 318.254L-17.9366 318.254" stroke="#64B2C4" stroke-opacity="0.18" stroke-width="0.518967"/>
<path d="M391.375 333.33L-17.9366 333.33" stroke="#64B2C4" stroke-opacity="0.18" stroke-width="0.518967"/>
<path d="M391.375 348.406L-17.9366 348.406" stroke="#64B2C4" stroke-opacity="0.18" stroke-width="0.518967"/>
<path d="M391.375 363.482L-17.9366 363.482" stroke="#64B2C4" stroke-opacity="0.18" stroke-width="0.518967"/>
<path d="M391.375 378.559L-17.9366 378.559" stroke="#64B2C4" stroke-opacity="0.18" stroke-width="0.518967"/>
<path d="M391.375 393.635L-17.9366 393.635" stroke="#64B2C4" stroke-opacity="0.18" stroke-width="0.518967"/>
<path d="M391.375 408.711L-17.9366 408.711" stroke="#64B2C4" stroke-opacity="0.18" stroke-width="0.518967"/>
<path d="M391.375 423.789L-17.9366 423.789" stroke="#64B2C4" stroke-opacity="0.18" stroke-width="0.518967"/>
<path d="M391.375 438.865L-17.9366 438.865" stroke="#64B2C4" stroke-opacity="0.18" stroke-width="0.518967"/>
<path d="M391.375 453.941L-17.9366 453.941" stroke="#64B2C4" stroke-opacity="0.18" stroke-width="0.518967"/>
<path d="M391.375 469.018L-17.9366 469.018" stroke="#64B2C4" stroke-opacity="0.18" stroke-width="0.518967"/>
<path d="M391.375 484.094L-17.9366 484.094" stroke="#64B2C4" stroke-opacity="0.18" stroke-width="0.518967"/>
<path d="M391.375 499.17L-17.9366 499.17" stroke="#64B2C4" stroke-opacity="0.18" stroke-width="0.518967"/>
<path d="M28.4219 291.73V506.709" stroke="#64B2C4" stroke-opacity="0.18" stroke-width="0.518967"/>
<path d="M42.9414 291.73V506.709" stroke="#64B2C4" stroke-opacity="0.18" stroke-width="0.518967"/>
<path d="M57.459 291.73V506.709" stroke="#64B2C4" stroke-opacity="0.18" stroke-width="0.518967"/>
<path d="M71.9766 291.73V506.709" stroke="#64B2C4" stroke-opacity="0.18" stroke-width="0.518967"/>
<path d="M86.4941 291.73V506.709" stroke="#64B2C4" stroke-opacity="0.18" stroke-width="0.518967"/>
<path d="M101.014 291.73V506.709" stroke="#64B2C4" stroke-opacity="0.18" stroke-width="0.518967"/>
<path d="M115.531 291.73V506.709" stroke="#64B2C4" stroke-opacity="0.18" stroke-width="0.518967"/>
<path d="M130.049 291.73V506.709" stroke="#64B2C4" stroke-opacity="0.18" stroke-width="0.518967"/>
<path d="M144.566 291.73V506.709" stroke="#64B2C4" stroke-opacity="0.18" stroke-width="0.518967"/>
<path d="M159.084 291.73V506.709" stroke="#64B2C4" stroke-opacity="0.18" stroke-width="0.518967"/>
<path d="M173.604 291.73V506.709" stroke="#64B2C4" stroke-opacity="0.18" stroke-width="0.518967"/>
<path d="M188.121 291.73V506.709" stroke="#64B2C4" stroke-opacity="0.18" stroke-width="0.518967"/>
<path d="M202.639 291.73V506.709" stroke="#64B2C4" stroke-opacity="0.18" stroke-width="0.518967"/>
<path d="M217.158 291.73V506.709" stroke="#64B2C4" stroke-opacity="0.18" stroke-width="0.518967"/>
<path d="M231.676 291.73V506.709" stroke="#64B2C4" stroke-opacity="0.18" stroke-width="0.518967"/>
<path d="M246.193 291.73V506.709" stroke="#64B2C4" stroke-opacity="0.18" stroke-width="0.518967"/>
<path d="M260.713 291.73V506.709" stroke="#64B2C4" stroke-opacity="0.18" stroke-width="0.518967"/>
<path d="M275.23 291.73V506.709" stroke="#64B2C4" stroke-opacity="0.18" stroke-width="0.518967"/>
<path d="M289.748 291.73V506.709" stroke="#64B2C4" stroke-opacity="0.18" stroke-width="0.518967"/>
<path d="M304.266 291.73V506.709" stroke="#64B2C4" stroke-opacity="0.18" stroke-width="0.518967"/>
<path d="M318.783 291.73V506.709" stroke="#64B2C4" stroke-opacity="0.18" stroke-width="0.518967"/>
<path d="M333.303 291.73V506.709" stroke="#64B2C4" stroke-opacity="0.18" stroke-width="0.518967"/>
<path d="M347.82 291.73V506.709" stroke="#64B2C4" stroke-opacity="0.18" stroke-width="0.518967"/>
<path d="M362.338 291.73V506.709" stroke="#64B2C4" stroke-opacity="0.18" stroke-width="0.518967"/>
<path d="M376.855 291.73V506.709" stroke="#64B2C4" stroke-opacity="0.18" stroke-width="0.518967"/>
<g filter="url(#filter2_f_634_8942)">
<rect x="304.416" y="105.609" width="272.759" height="301.262" transform="rotate(15 304.416 105.609)" fill="#0A2963"/>
</g>
<g filter="url(#filter3_f_634_8942)">
<rect x="-109.176" y="138.047" width="272.759" height="237.329" rx="118.664" transform="rotate(15 -109.176 138.047)" fill="#16C7FF" fill-opacity="0.56"/>
</g>
<path d="M-64.8594 532.962L-74.8223 -262.232L507.328 22.8262V498.858C471.687 506.398 385.283 521.478 324.674 521.478C248.912 521.478 173.73 510.628 100.259 510.628C26.7883 510.628 -34.3102 523.566 -64.8594 532.962Z" fill="url(#paint0_linear_634_8942)"/>
<path d="M144.834 486.179C145.27 484.647 146.473 483.454 148.008 483.03L148.485 482.898L148.008 482.766H148.008C146.473 482.342 145.27 481.148 144.834 479.617L144.697 479.141L144.561 479.617C144.125 481.148 142.922 482.342 141.387 482.766L140.91 482.898L141.386 483.03H141.387C142.922 483.454 144.125 484.648 144.561 486.179L144.697 486.655L144.834 486.179Z" fill="#9AC1FF" fill-opacity="0.32"/>
<path d="M133.452 383.937C133.565 383.54 133.877 383.231 134.274 383.121L134.398 383.087L134.275 383.053H134.274C133.877 382.943 133.565 382.633 133.452 382.237L133.417 382.113L133.381 382.237C133.268 382.633 132.957 382.943 132.559 383.053L132.436 383.087L132.559 383.121H132.559C132.957 383.231 133.268 383.54 133.381 383.937L133.417 384.06L133.452 383.937Z" fill="#FFF2AE" fill-opacity="0.84"/>
<g filter="url(#filter4_b_634_8942)">
<circle cx="127.914" cy="396.606" r="9.33014" fill="url(#paint1_linear_634_8942)"/>
</g>
<g filter="url(#filter5_b_634_8942)">
<circle cx="127.914" cy="396.606" r="11.8109" stroke="url(#paint2_linear_634_8942)" stroke-width="0.518967"/>
</g>
<path d="M130.712 393.932C130.74 393.649 130.74 393.395 130.74 393.084H125.09C125.09 393.395 125.09 393.649 125.118 393.932H123.395V394.214C123.395 396.729 126.587 398.509 127.35 398.904L127.35 399.865C127.35 400.345 126.982 400.712 126.502 400.712H125.937V401.842H129.892V400.712H129.327C128.847 400.712 128.48 400.345 128.48 399.865V398.904C129.242 398.509 132.435 396.729 132.435 394.214V393.932L130.712 393.932ZM123.988 394.497H125.174C125.287 395.768 125.598 396.672 125.937 397.322C125.033 396.616 124.101 395.627 123.988 394.497ZM129.921 397.322C130.26 396.672 130.571 395.768 130.684 394.497H131.87C131.729 395.627 130.797 396.616 129.921 397.322Z" fill="white" fill-opacity="0.69"/>
<g filter="url(#filter6_bd_634_8942)">
<rect x="12.3555" y="382.953" width="59.7817" height="74.7806" rx="3.63277" fill="url(#paint3_linear_634_8942)" shape-rendering="crispEdges"/>
<rect x="12.4852" y="383.083" width="59.5222" height="74.5211" rx="3.50302" stroke="url(#paint4_linear_634_8942)" stroke-width="0.259483" shape-rendering="crispEdges"/>
</g>
<g filter="url(#filter7_b_634_8942)">
<rect x="15.3535" y="385.777" width="53.7853" height="69.133" rx="1.03793" fill="url(#paint5_linear_634_8942)"/>
</g>
<rect x="26.2363" y="423.104" width="35.3585" height="1.99737" rx="0.998685" fill="#133F84" fill-opacity="0.49"/>
<rect x="21.8535" y="423.104" width="2.0197" height="1.99737" rx="0.998685" fill="#133F84" fill-opacity="0.49"/>
<rect x="26.2363" y="429.631" width="35.3585" height="1.99737" rx="0.998685" fill="#133F84" fill-opacity="0.49"/>
<rect x="21.8535" y="429.631" width="2.0197" height="1.99737" rx="0.998685" fill="#133F84" fill-opacity="0.49"/>
<rect x="26.2363" y="436.156" width="35.3585" height="1.99737" rx="0.998685" fill="#133F84" fill-opacity="0.49"/>
<rect x="21.8535" y="436.156" width="2.0197" height="1.99737" rx="0.998685" fill="#133F84" fill-opacity="0.49"/>
<g clip-path="url(#clip1_634_8942)">
<rect x="9.60352" y="382.115" width="105.014" height="12.2251" transform="rotate(45 9.60352 382.115)" fill="white" fill-opacity="0.12"/>
<rect x="6.84375" y="400.742" width="105.014" height="3.09214" transform="rotate(45 6.84375 400.742)" fill="white" fill-opacity="0.12"/>
</g>
<rect x="21.8535" y="397.898" width="10.4077" height="13.9074" rx="1.03793" fill="#6487C0"/>
<rect x="37.043" y="397.898" width="10.4077" height="13.9074" rx="1.03793" fill="#6487C0"/>
<rect x="52.2324" y="397.898" width="10.4077" height="13.9074" rx="1.03793" fill="#6487C0"/>
<path d="M93.5685 411.934L95.0666 409.339H92.0703L93.5685 411.934ZM41.8571 383.018V378.964H41.3382V383.018H41.8571ZM45.7494 375.072H89.4167V374.553H45.7494V375.072ZM93.309 378.964V409.599H93.8279V378.964H93.309ZM89.4167 375.072C91.5664 375.072 93.309 376.815 93.309 378.964H93.8279C93.8279 376.528 91.853 374.553 89.4167 374.553V375.072ZM41.8571 378.964C41.8571 376.815 43.5998 375.072 45.7494 375.072V374.553C43.3131 374.553 41.3382 376.528 41.3382 378.964H41.8571Z" fill="white" fill-opacity="0.3"/>
<rect x="79.1602" y="412.949" width="28.8145" height="54.0273" rx="3.63277" fill="#6895E0" fill-opacity="0.74"/>
<g filter="url(#filter8_b_634_8942)">
<rect x="80.959" y="414.83" width="25.2184" height="50.2648" rx="1.03793" fill="url(#paint6_linear_634_8942)"/>
</g>
<path d="M85.7979 437.902C84.6608 437.902 83.7383 438.825 83.7383 439.962C83.7383 441.099 84.6608 442.022 85.7979 442.022C86.935 442.022 87.8576 441.099 87.8576 439.962C87.8576 438.825 86.935 437.902 85.7979 437.902ZM86.8577 439.464L85.6477 440.679C85.6092 440.717 85.5534 440.743 85.4976 440.743C85.4417 440.743 85.3859 440.721 85.3474 440.679L84.7381 440.069C84.6523 439.983 84.6523 439.85 84.7381 439.765C84.8239 439.679 84.957 439.679 85.0428 439.765L85.4978 440.219L86.5576 439.16C86.6434 439.074 86.7765 439.074 86.8623 439.16C86.9436 439.245 86.9436 439.378 86.8578 439.464L86.8577 439.464Z" fill="#5A7FBC"/>
<path d="M85.7979 444.904C84.6608 444.904 83.7383 445.827 83.7383 446.964C83.7383 448.101 84.6608 449.024 85.7979 449.024C86.935 449.024 87.8576 448.101 87.8576 446.964C87.8576 445.827 86.935 444.904 85.7979 444.904ZM86.8577 446.466L85.6477 447.68C85.6092 447.719 85.5534 447.745 85.4976 447.745C85.4417 447.745 85.3859 447.723 85.3474 447.68L84.7381 447.071C84.6523 446.985 84.6523 446.852 84.7381 446.766C84.8239 446.681 84.957 446.681 85.0428 446.766L85.4978 447.221L86.5576 446.162C86.6434 446.076 86.7765 446.076 86.8623 446.162C86.9436 446.247 86.9436 446.38 86.8578 446.466L86.8577 446.466Z" fill="#5A7FBC"/>
<path d="M85.7979 451.904C84.6608 451.904 83.7383 452.827 83.7383 453.964C83.7383 455.101 84.6608 456.024 85.7979 456.024C86.935 456.024 87.8576 455.101 87.8576 453.964C87.8576 452.827 86.935 451.904 85.7979 451.904ZM86.8577 453.466L85.6477 454.68C85.6092 454.719 85.5534 454.745 85.4976 454.745C85.4417 454.745 85.3859 454.723 85.3474 454.68L84.7381 454.071C84.6523 453.985 84.6523 453.852 84.7381 453.766C84.8239 453.681 84.957 453.681 85.0428 453.766L85.4978 454.221L86.5576 453.162C86.6434 453.076 86.7765 453.076 86.8623 453.162C86.9436 453.247 86.9436 453.38 86.8578 453.466L86.8577 453.466Z" fill="#5A7FBC"/>
<rect x="83.7383" y="420.533" width="8.53302" height="12.4042" rx="1.03793" fill="#4D7BC7" fill-opacity="0.69"/>
<rect x="94.8652" y="420.533" width="8.53302" height="12.4042" rx="1.03793" fill="#4D7BC7" fill-opacity="0.69"/>
<rect x="90.2949" y="439.242" width="13.1019" height="1.4409" rx="0.72045" fill="#133F84" fill-opacity="0.35"/>
<rect x="90.2949" y="446.242" width="13.1019" height="1.4409" rx="0.72045" fill="#133F84" fill-opacity="0.35"/>
<rect x="90.2949" y="453.244" width="13.1019" height="1.4409" rx="0.72045" fill="#133F84" fill-opacity="0.35"/>
<g opacity="0.75" clip-path="url(#clip2_634_8942)">
<rect x="60.9141" y="395.627" width="105.014" height="12.2251" transform="rotate(45 60.9141 395.627)" fill="white" fill-opacity="0.12"/>
<rect x="58.1543" y="414.252" width="105.014" height="3.09214" transform="rotate(45 58.1543 414.252)" fill="white" fill-opacity="0.12"/>
</g>
<rect x="350.25" y="372.172" width="33.0244" height="44.9683" rx="1.545" fill="#D9D9D9" fill-opacity="0.04"/>
<path d="M319.224 374.886C319.336 374.492 319.645 374.185 320.04 374.076L320.162 374.042L320.04 374.008H320.04C319.645 373.899 319.336 373.592 319.224 373.199L319.189 373.076L319.153 373.199C319.041 373.592 318.732 373.899 318.337 374.008L318.215 374.042L318.337 374.076H318.337C318.732 374.185 319.041 374.492 319.153 374.886L319.189 375.008L319.224 374.886Z" fill="#FFF2AE" fill-opacity="0.84"/>
<g filter="url(#filter9_b_634_8942)">
<circle cx="313.728" cy="387.46" r="9.25883" fill="url(#paint7_linear_634_8942)"/>
</g>
<g filter="url(#filter10_b_634_8942)">
<circle cx="313.728" cy="387.461" r="11.7206" stroke="url(#paint8_linear_634_8942)" stroke-width="0.515"/>
</g>
<path d="M362.337 409.718C362.237 409.618 362.074 409.618 361.973 409.718L360.334 411.357C360.234 411.458 360.234 411.621 360.334 411.721C360.435 411.822 360.598 411.822 360.698 411.721L362.155 410.265L363.612 411.721C363.712 411.822 363.875 411.822 363.976 411.721C364.076 411.621 364.076 411.458 363.976 411.357L362.337 409.718ZM345.312 471.077H358.035V470.562H345.312V471.077ZM362.413 466.7V409.9H361.898V466.7H362.413ZM358.035 471.077C360.453 471.077 362.413 469.117 362.413 466.7H361.898C361.898 468.833 360.168 470.562 358.035 470.562V471.077Z" fill="white" fill-opacity="0.3"/>
<path d="M300.231 387.061C300.332 386.96 300.332 386.797 300.231 386.697L298.592 385.058C298.492 384.958 298.329 384.958 298.228 385.058C298.128 385.159 298.128 385.322 298.228 385.422L299.685 386.879L298.228 388.336C298.128 388.436 298.128 388.599 298.228 388.7C298.329 388.8 298.492 388.8 298.592 388.7L300.231 387.061ZM285.69 431.703H284.758V432.218H285.69V431.703ZM282.896 431.703H281.033V432.218H282.896V431.703ZM279.171 431.703H277.309V432.218H279.171V431.703ZM275.446 431.703H273.584V432.218H275.446V431.703ZM271.721 431.703H270.79V432.218H271.721V431.703ZM270.79 431.703C270.532 431.703 270.28 431.677 270.036 431.629L269.936 432.134C270.212 432.189 270.498 432.218 270.79 432.218V431.703ZM268.644 431.052C268.223 430.77 267.86 430.408 267.578 429.986L267.15 430.273C267.469 430.75 267.88 431.161 268.358 431.48L268.644 431.052ZM267.001 428.594C266.953 428.351 266.927 428.099 266.927 427.84H266.412C266.412 428.132 266.441 428.418 266.496 428.694L267.001 428.594ZM266.927 427.84V426.817H266.412V427.84H266.927ZM266.927 424.77V422.723H266.412V424.77H266.927ZM266.927 420.677V418.63H266.412V420.677H266.927ZM266.927 416.583V414.536H266.412V416.583H266.927ZM266.927 412.49V410.443H266.412V412.49H266.927ZM266.927 408.396V406.349H266.412V408.396H266.927ZM266.927 404.303V402.256H266.412V404.303H266.927ZM266.927 400.209V398.163H266.412V400.209H266.927ZM266.927 396.116V394.069H266.412V396.116H266.927ZM266.927 392.022V390.999H266.412V392.022H266.927ZM266.927 390.999C266.927 390.741 266.953 390.488 267.001 390.245L266.496 390.145C266.441 390.421 266.412 390.707 266.412 390.999H266.927ZM267.578 388.853C267.86 388.432 268.223 388.069 268.644 387.787L268.358 387.359C267.88 387.678 267.469 388.089 267.15 388.567L267.578 388.853ZM270.036 387.21C270.28 387.162 270.532 387.136 270.79 387.136V386.621C270.498 386.621 270.212 386.65 269.936 386.705L270.036 387.21ZM270.79 387.136H271.835V386.621H270.79V387.136ZM273.925 387.136H276.015V386.621H273.925V387.136ZM278.105 387.136H280.195V386.621H278.105V387.136ZM282.285 387.136H284.374V386.621H282.285V387.136ZM286.464 387.136H288.554V386.621H286.464V387.136ZM290.644 387.136H292.734V386.621H290.644V387.136ZM294.824 387.136H296.914V386.621H294.824V387.136ZM299.004 387.136H300.049V386.621H299.004V387.136Z" fill="white" fill-opacity="0.3"/>
<g filter="url(#filter11_bd_634_8942)">
<rect x="283.359" y="417.141" width="59.3248" height="74.209" rx="3.605" fill="url(#paint9_linear_634_8942)" shape-rendering="crispEdges"/>
<rect x="283.488" y="417.269" width="59.0673" height="73.9515" rx="3.47625" stroke="url(#paint10_linear_634_8942)" stroke-width="0.2575" shape-rendering="crispEdges"/>
</g>
<g filter="url(#filter12_b_634_8942)">
<rect x="286.334" y="419.943" width="53.3742" height="68.6046" rx="1.03" fill="url(#paint11_linear_634_8942)"/>
</g>
<rect x="295.375" y="424.533" width="35.0884" height="11.2407" rx="1.03" fill="#133F84" fill-opacity="0.49"/>
<rect x="314.623" y="458.973" width="15.8388" height="11.2407" rx="1.03" fill="#133F84" fill-opacity="0.49"/>
<rect x="295.633" y="440.527" width="34.5734" height="3.37843" rx="0.7725" stroke="#6386BE" stroke-width="0.515"/>
<rect x="314.881" y="447.931" width="15.3239" height="3.37843" rx="0.7725" stroke="#6386BE" stroke-width="0.515"/>
<rect x="303.55" y="475.558" width="18.7345" height="4.2168" rx="2.1084" stroke="#2C3C56" stroke-width="0.515"/>
<rect x="295.838" y="447.931" width="15.3239" height="3.37843" rx="0.7725" stroke="#6386BE" stroke-width="0.515"/>
<rect x="314.881" y="455.338" width="15.3239" height="3.37843" rx="0.7725" stroke="#6386BE" stroke-width="0.515"/>
<rect x="295.838" y="455.338" width="15.3239" height="3.37843" rx="0.7725" stroke="#6386BE" stroke-width="0.515"/>
<path d="M316.172 462.15H328.7" stroke="#89B6FF" stroke-opacity="0.23" stroke-width="0.515"/>
<path d="M316.172 465.375H328.7" stroke="#89B6FF" stroke-opacity="0.23" stroke-width="0.515"/>
<path d="M327.77 457.795L326.234 456.259L329.306 456.259L327.77 457.795Z" fill="#4C6DA2"/>
<path d="M309.745 478.34H309.445L310.119 476.467H310.446L311.12 478.34H310.82L310.29 476.807H310.276L309.745 478.34ZM309.796 477.606H310.768V477.844H309.796V477.606Z" fill="#2C3C56"/>
<path d="M311.368 478.866V476.935H311.635V477.163H311.658C311.674 477.133 311.697 477.1 311.727 477.061C311.756 477.023 311.798 476.989 311.851 476.961C311.904 476.931 311.974 476.917 312.061 476.917C312.175 476.917 312.276 476.945 312.365 477.003C312.454 477.06 312.524 477.143 312.574 477.25C312.625 477.358 312.651 477.488 312.651 477.64C312.651 477.792 312.626 477.922 312.575 478.03C312.525 478.138 312.455 478.222 312.367 478.28C312.278 478.338 312.177 478.367 312.064 478.367C311.979 478.367 311.909 478.353 311.855 478.324C311.801 478.295 311.759 478.262 311.728 478.223C311.698 478.185 311.674 478.151 311.658 478.121H311.642V478.866H311.368ZM311.636 477.637C311.636 477.736 311.65 477.823 311.679 477.897C311.708 477.971 311.749 478.03 311.803 478.072C311.858 478.113 311.924 478.134 312.003 478.134C312.084 478.134 312.153 478.112 312.208 478.069C312.262 478.025 312.304 477.966 312.332 477.891C312.361 477.816 312.375 477.731 312.375 477.637C312.375 477.545 312.361 477.461 312.333 477.388C312.305 477.314 312.264 477.256 312.208 477.213C312.154 477.17 312.085 477.149 312.003 477.149C311.923 477.149 311.856 477.169 311.802 477.21C311.747 477.251 311.706 477.308 311.678 477.381C311.65 477.454 311.636 477.54 311.636 477.637Z" fill="#2C3C56"/>
<path d="M312.957 478.866V476.935H313.224V477.163H313.247C313.263 477.133 313.286 477.1 313.316 477.061C313.346 477.023 313.387 476.989 313.44 476.961C313.493 476.931 313.563 476.917 313.65 476.917C313.764 476.917 313.865 476.945 313.954 477.003C314.043 477.06 314.113 477.143 314.163 477.25C314.215 477.358 314.24 477.488 314.24 477.64C314.24 477.792 314.215 477.922 314.164 478.03C314.114 478.138 314.044 478.222 313.956 478.28C313.868 478.338 313.767 478.367 313.653 478.367C313.568 478.367 313.498 478.353 313.444 478.324C313.39 478.295 313.348 478.262 313.318 478.223C313.287 478.185 313.264 478.151 313.247 478.121H313.231V478.866H312.957ZM313.225 477.637C313.225 477.736 313.24 477.823 313.268 477.897C313.297 477.971 313.338 478.03 313.393 478.072C313.447 478.113 313.513 478.134 313.592 478.134C313.674 478.134 313.742 478.112 313.797 478.069C313.852 478.025 313.893 477.966 313.921 477.891C313.95 477.816 313.964 477.731 313.964 477.637C313.964 477.545 313.95 477.461 313.922 477.388C313.895 477.314 313.853 477.256 313.798 477.213C313.743 477.17 313.674 477.149 313.592 477.149C313.513 477.149 313.446 477.169 313.391 477.21C313.337 477.251 313.295 477.308 313.267 477.381C313.239 477.454 313.225 477.54 313.225 477.637Z" fill="#2C3C56"/>
<path d="M314.82 476.467V478.34H314.547V476.467H314.82Z" fill="#2C3C56"/>
<path d="M315.361 478.866C315.32 478.866 315.283 478.863 315.249 478.856C315.216 478.85 315.191 478.843 315.174 478.836L315.24 478.612C315.29 478.625 315.334 478.631 315.373 478.629C315.412 478.628 315.447 478.613 315.477 478.586C315.507 478.558 315.534 478.513 315.557 478.451L315.591 478.358L315.077 476.935H315.37L315.726 478.025H315.74L316.096 476.935H316.389L315.811 478.527C315.784 478.6 315.75 478.662 315.708 478.713C315.667 478.764 315.617 478.802 315.56 478.828C315.503 478.853 315.436 478.866 315.361 478.866Z" fill="#2C3C56"/>
<g clip-path="url(#clip3_634_8942)">
<rect x="280.756" y="416.314" width="104.211" height="12.1317" transform="rotate(45 280.756 416.314)" fill="white" fill-opacity="0.12"/>
<rect x="278.018" y="434.797" width="104.211" height="3.06851" transform="rotate(45 278.018 434.797)" fill="white" fill-opacity="0.12"/>
<path d="M325.275 427.525C323.795 427.525 322.594 428.726 322.594 430.207C322.594 431.687 323.795 432.888 325.275 432.888C326.755 432.888 327.956 431.687 327.956 430.207C327.956 428.726 326.755 427.525 325.275 427.525ZM326.654 429.558L325.079 431.139C325.029 431.189 324.957 431.223 324.884 431.223C324.811 431.223 324.739 431.195 324.688 431.139L323.895 430.346C323.784 430.234 323.784 430.061 323.895 429.949C324.007 429.838 324.18 429.838 324.292 429.949L324.884 430.542L326.264 429.162C326.375 429.05 326.549 429.05 326.66 429.162C326.766 429.274 326.766 429.447 326.655 429.559L326.654 429.558Z" fill="#AFCDFA"/>
<path d="M298.922 431.438V428.941H300.47V429.266H299.299V430.026H300.359V430.349H299.299V431.438H298.922Z" fill="#AFCDFA"/>
<path d="M301.573 431.476C301.389 431.476 301.23 431.436 301.097 431.357C300.964 431.278 300.862 431.166 300.79 431.022C300.718 430.877 300.682 430.708 300.682 430.514C300.682 430.322 300.718 430.153 300.79 430.007C300.862 429.86 300.963 429.746 301.092 429.664C301.222 429.582 301.374 429.541 301.548 429.541C301.653 429.541 301.756 429.559 301.855 429.594C301.954 429.628 302.043 429.683 302.122 429.758C302.201 429.833 302.263 429.93 302.308 430.049C302.354 430.168 302.377 430.312 302.377 430.482V430.611H300.888V430.338H302.019C302.019 430.242 302 430.157 301.961 430.084C301.922 430.009 301.867 429.95 301.796 429.907C301.726 429.864 301.644 429.842 301.55 429.842C301.448 429.842 301.358 429.867 301.282 429.918C301.206 429.967 301.148 430.032 301.106 430.113C301.066 430.192 301.046 430.279 301.046 430.372V430.586C301.046 430.711 301.067 430.817 301.111 430.905C301.156 430.993 301.218 431.06 301.298 431.106C301.377 431.152 301.471 431.174 301.577 431.174C301.646 431.174 301.709 431.165 301.766 431.145C301.823 431.125 301.872 431.095 301.913 431.055C301.955 431.015 301.987 430.966 302.008 430.908L302.353 430.97C302.326 431.071 302.276 431.16 302.205 431.237C302.134 431.312 302.045 431.371 301.938 431.413C301.831 431.455 301.71 431.476 301.573 431.476Z" fill="#AFCDFA"/>
<path d="M303.145 428.941V431.438H302.781V428.941H303.145Z" fill="#AFCDFA"/>
<path d="M304 428.941V431.438H303.636V428.941H304Z" fill="#AFCDFA"/>
<path d="M305.279 431.476C305.104 431.476 304.95 431.435 304.82 431.355C304.689 431.274 304.587 431.162 304.515 431.017C304.443 430.873 304.406 430.704 304.406 430.51C304.406 430.316 304.443 430.146 304.515 430.001C304.587 429.855 304.689 429.742 304.82 429.662C304.95 429.581 305.104 429.541 305.279 429.541C305.455 429.541 305.608 429.581 305.739 429.662C305.869 429.742 305.971 429.855 306.043 430.001C306.116 430.146 306.152 430.316 306.152 430.51C306.152 430.704 306.116 430.873 306.043 431.017C305.971 431.162 305.869 431.274 305.739 431.355C305.608 431.435 305.455 431.476 305.279 431.476ZM305.28 431.17C305.394 431.17 305.488 431.139 305.563 431.079C305.638 431.019 305.693 430.939 305.729 430.839C305.765 430.739 305.784 430.629 305.784 430.509C305.784 430.389 305.765 430.28 305.729 430.18C305.693 430.079 305.638 429.998 305.563 429.937C305.488 429.876 305.394 429.846 305.28 429.846C305.166 429.846 305.071 429.876 304.995 429.937C304.92 429.998 304.865 430.079 304.828 430.18C304.792 430.28 304.774 430.389 304.774 430.509C304.774 430.629 304.792 430.739 304.828 430.839C304.865 430.939 304.92 431.019 304.995 431.079C305.071 431.139 305.166 431.17 305.28 431.17Z" fill="#AFCDFA"/>
<path d="M306.908 431.438L306.357 429.565H306.733L307.1 430.94H307.118L307.487 429.565H307.863L308.229 430.934H308.247L308.612 429.565H308.988L308.438 431.438H308.067L307.686 430.086H307.658L307.278 431.438H306.908Z" fill="#AFCDFA"/>
<path d="M310.737 430.023L310.407 430.081C310.393 430.039 310.371 429.999 310.341 429.96C310.312 429.922 310.272 429.891 310.221 429.867C310.171 429.842 310.108 429.83 310.033 429.83C309.929 429.83 309.843 429.853 309.774 429.899C309.705 429.945 309.67 430.004 309.67 430.076C309.67 430.139 309.694 430.189 309.74 430.227C309.786 430.266 309.861 430.297 309.964 430.321L310.262 430.389C310.434 430.429 310.562 430.491 310.647 430.574C310.731 430.656 310.774 430.764 310.774 430.897C310.774 431.009 310.741 431.109 310.676 431.196C310.612 431.283 310.522 431.352 310.407 431.401C310.292 431.451 310.159 431.476 310.008 431.476C309.798 431.476 309.627 431.431 309.495 431.341C309.363 431.251 309.281 431.123 309.251 430.957L309.603 430.904C309.625 430.996 309.67 431.065 309.739 431.112C309.807 431.159 309.896 431.182 310.006 431.182C310.125 431.182 310.221 431.157 310.292 431.107C310.364 431.057 310.399 430.996 310.399 430.923C310.399 430.865 310.377 430.816 310.334 430.776C310.291 430.736 310.224 430.706 310.135 430.686L309.818 430.616C309.643 430.576 309.514 430.513 309.43 430.426C309.347 430.339 309.306 430.229 309.306 430.096C309.306 429.985 309.337 429.888 309.399 429.806C309.46 429.723 309.546 429.658 309.655 429.612C309.764 429.565 309.888 429.541 310.029 429.541C310.231 429.541 310.39 429.585 310.507 429.673C310.623 429.76 310.7 429.876 310.737 430.023Z" fill="#AFCDFA"/>
</g>
<path d="M240.747 442.04C241.424 439.666 243.288 437.816 245.667 437.159L246.406 436.954L245.668 436.75H245.667C243.288 436.093 241.424 434.242 240.747 431.869L240.536 431.131L240.325 431.869C239.648 434.242 237.784 436.093 235.405 436.75L234.666 436.954L235.404 437.159H235.405C237.784 437.816 239.649 439.666 240.325 442.04L240.536 442.778L240.747 442.04Z" fill="#5CF8D2" fill-opacity="0.69"/>
<path d="M259.863 444.879C260.07 444.154 260.639 443.589 261.366 443.388L261.592 443.326L261.366 443.263H261.366C260.639 443.062 260.07 442.497 259.863 441.772L259.799 441.547L259.734 441.772C259.528 442.497 258.958 443.062 258.232 443.263L258.006 443.326L258.231 443.388H258.232C258.958 443.589 259.528 444.154 259.734 444.879L259.799 445.104L259.863 444.879Z" fill="#75E6FF" fill-opacity="0.67"/>
<g filter="url(#filter13_b_634_8942)">
<circle cx="251.384" cy="467.296" r="19.0555" fill="url(#paint12_linear_634_8942)"/>
</g>
<path d="M244.275 471.569C244.275 475.55 247.403 478.678 251.384 478.678C255.364 478.678 258.492 475.55 258.492 471.569C258.492 468.441 256.502 465.882 253.801 464.888L257.071 461.617V455.93H245.697V461.617L248.825 464.887C246.124 465.882 244.275 468.583 244.275 471.569ZM250.388 470.147L251.384 467.304L252.38 470.147H255.649L252.807 472.564L253.944 475.834L251.384 473.843L248.825 475.834L249.962 472.564L247.119 470.147H250.388Z" fill="white" fill-opacity="0.66"/>
<path d="M309.879 389.8C309.879 391.984 311.595 393.7 313.779 393.7C315.963 393.7 317.679 391.984 317.679 389.8C317.679 388.083 316.587 386.679 315.105 386.134L316.899 384.339V381.219H310.659V384.339L312.375 386.133C310.893 386.679 309.879 388.161 309.879 389.8ZM313.233 389.019L313.779 387.459L314.325 389.019H316.12L314.56 390.345L315.184 392.14L313.779 391.047L312.375 392.14L312.999 390.345L311.439 389.019H313.233Z" fill="white" fill-opacity="0.66"/>
<rect opacity="0.8" x="342.684" y="365.297" width="33.7904" height="39.6309" rx="2.06" fill="url(#paint13_linear_634_8942)" fill-opacity="0.8"/>
<rect x="347.639" y="374.572" width="10.0445" height="1.41646" rx="0.708232" fill="#9ADCFF"/>
<rect x="347.639" y="381.521" width="10.0445" height="1.41646" rx="0.708232" fill="white" fill-opacity="0.66"/>
<rect x="347.639" y="388.471" width="10.0445" height="1.41646" rx="0.708232" fill="white" fill-opacity="0.66"/>
<rect x="347.639" y="395.418" width="10.0445" height="1.41646" rx="0.708232" fill="white" fill-opacity="0.66"/>
<path fill-rule="evenodd" clip-rule="evenodd" d="M353.098 363.484C353.092 363.517 353.088 363.551 353.088 363.586V363.936C353.088 364.22 353.319 364.451 353.603 364.451H365.554C365.838 364.451 366.069 364.22 366.069 363.936V363.586C366.069 363.551 366.066 363.517 366.059 363.484H369.84C370.244 363.484 370.572 363.812 370.572 364.217V366.382C370.572 366.786 370.244 367.114 369.84 367.114H349.316C348.912 367.114 348.584 366.786 348.584 366.382V364.217C348.584 363.812 348.912 363.484 349.316 363.484H353.098Z" fill="#C3E0F1"/>
<path d="M360.414 374.33V399.59" stroke="#C5DAFF" stroke-opacity="0.62" stroke-width="0.515"/>
<path d="M365.944 376.998H365.615L366.353 374.947H366.711L367.449 376.998H367.12L366.54 375.32H366.524L365.944 376.998ZM365.999 376.195H367.064V376.455H365.999V376.195Z" fill="#9ADCFF"/>
<path d="M365.1 386.943H364.771L365.509 384.893H365.867L366.605 386.943H366.276L365.697 385.265H365.681L365.1 386.943ZM365.155 386.14H366.22V386.4H365.155V386.14Z" fill="#CDE5EF"/>
<path d="M367.48 386.599V385.245H367.749V386.599H367.48ZM366.938 386.056V385.788H368.292V386.056H366.938Z" fill="#CDE5EF"/>
<path d="M365.795 396.888V394.838H366.546C366.691 394.838 366.812 394.862 366.907 394.91C367.003 394.957 367.074 395.022 367.122 395.103C367.169 395.184 367.193 395.275 367.193 395.377C367.193 395.462 367.177 395.534 367.146 395.593C367.114 395.651 367.072 395.698 367.019 395.733C366.967 395.768 366.91 395.793 366.847 395.809V395.829C366.915 395.832 366.982 395.854 367.046 395.895C367.112 395.935 367.166 395.992 367.209 396.066C367.251 396.141 367.273 396.231 367.273 396.337C367.273 396.442 367.248 396.536 367.199 396.619C367.15 396.702 367.075 396.768 366.972 396.816C366.87 396.864 366.74 396.888 366.581 396.888H365.795ZM366.104 396.623H366.551C366.699 396.623 366.805 396.594 366.869 396.537C366.933 396.48 366.965 396.408 366.965 396.322C366.965 396.257 366.949 396.198 366.916 396.144C366.884 396.089 366.837 396.046 366.776 396.014C366.716 395.982 366.645 395.966 366.562 395.966H366.104V396.623ZM366.104 395.725H366.519C366.588 395.725 366.651 395.712 366.706 395.685C366.762 395.658 366.807 395.621 366.839 395.573C366.873 395.524 366.889 395.467 366.889 395.401C366.889 395.316 366.86 395.245 366.8 395.187C366.741 395.13 366.65 395.101 366.527 395.101H366.104V395.725Z" fill="#B5D0FF"/>
<g filter="url(#filter14_d_634_8942)">
<g filter="url(#filter15_b_634_8942)">
<path d="M343.766 459.293C341.114 461.944 336.815 461.944 334.164 459.293C331.512 456.641 331.512 452.342 334.164 449.69C336.815 447.038 341.114 447.038 343.766 449.69C346.418 452.342 346.418 456.641 343.766 459.293ZM335.215 450.742C333.145 452.813 333.145 456.17 335.215 458.241C337.286 460.312 340.644 460.312 342.714 458.241C344.785 456.17 344.785 452.813 342.714 450.742C340.644 448.671 337.286 448.671 335.215 450.742Z" fill="url(#paint14_linear_634_8942)" fill-opacity="0.8"/>
</g>
<g filter="url(#filter16_b_634_8942)">
<circle cx="338.965" cy="454.491" r="5.52099" transform="rotate(45 338.965 454.491)" fill="#196F9F" fill-opacity="0.25"/>
</g>
<path fill-rule="evenodd" clip-rule="evenodd" d="M334.308 453.379C334.223 453.737 334.178 454.11 334.178 454.493C334.178 457.136 336.32 459.278 338.962 459.278C341.605 459.278 343.747 457.136 343.747 454.493C343.747 454.11 343.702 453.737 343.617 453.379C343.114 455.484 341.221 457.049 338.962 457.049C336.704 457.049 334.81 455.484 334.308 453.379Z" fill="url(#paint15_linear_634_8942)" fill-opacity="0.5"/>
<g filter="url(#filter17_b_634_8942)">
<path d="M344.381 458.59L349.085 463.294C349.45 463.659 349.45 464.249 349.085 464.614C348.721 464.978 348.13 464.978 347.766 464.614L343.062 459.909L344.381 458.59Z" fill="url(#paint16_linear_634_8942)" fill-opacity="0.8"/>
</g>
</g>
<path d="M340.958 453.814C341.145 453.158 341.66 452.646 342.318 452.465L342.522 452.408L342.318 452.352H342.318C341.66 452.17 341.145 451.659 340.958 451.003L340.9 450.799L340.841 451.003C340.654 451.659 340.139 452.17 339.482 452.352L339.277 452.408L339.481 452.465H339.482C340.139 452.646 340.654 453.158 340.841 453.814L340.9 454.017L340.958 453.814Z" fill="white" fill-opacity="0.72"/>
</g>
<defs>
<filter id="filter0_f_634_8942" x="-59.4808" y="-14.3148" width="858.339" height="285.274" filterUnits="userSpaceOnUse" color-interpolation-filters="sRGB">
<feFlood flood-opacity="0" result="BackgroundImageFix"/>
<feBlend mode="normal" in="SourceGraphic" in2="BackgroundImageFix" result="shape"/>
<feGaussianBlur stdDeviation="8.82243" result="effect1_foregroundBlur_634_8942"/>
</filter>
<filter id="filter1_f_634_8942" x="-96.8347" y="119.984" width="609.802" height="432.009" filterUnits="userSpaceOnUse" color-interpolation-filters="sRGB">
<feFlood flood-opacity="0" result="BackgroundImageFix"/>
<feBlend mode="normal" in="SourceGraphic" in2="BackgroundImageFix" result="shape"/>
<feGaussianBlur stdDeviation="60.7191" result="effect1_foregroundBlur_634_8942"/>
</filter>
<filter id="filter2_f_634_8942" x="105.005" y="-15.8288" width="584.314" height="604.468" filterUnits="userSpaceOnUse" color-interpolation-filters="sRGB">
<feFlood flood-opacity="0" result="BackgroundImageFix"/>
<feBlend mode="normal" in="SourceGraphic" in2="BackgroundImageFix" result="shape"/>
<feGaussianBlur stdDeviation="60.7191" result="effect1_foregroundBlur_634_8942"/>
</filter>
<filter id="filter3_f_634_8942" x="-308.473" y="0.175079" width="600.634" height="575.581" filterUnits="userSpaceOnUse" color-interpolation-filters="sRGB">
<feFlood flood-opacity="0" result="BackgroundImageFix"/>
<feBlend mode="normal" in="SourceGraphic" in2="BackgroundImageFix" result="shape"/>
<feGaussianBlur stdDeviation="82.2562" result="effect1_foregroundBlur_634_8942"/>
</filter>
<filter id="filter4_b_634_8942" x="116.508" y="385.2" width="22.8119" height="22.8119" filterUnits="userSpaceOnUse" color-interpolation-filters="sRGB">
<feFlood flood-opacity="0" result="BackgroundImageFix"/>
<feGaussianBlur in="BackgroundImageFix" stdDeviation="1.03793"/>
<feComposite in2="SourceAlpha" operator="in" result="effect1_backgroundBlur_634_8942"/>
<feBlend mode="normal" in="SourceGraphic" in2="effect1_backgroundBlur_634_8942" result="shape"/>
</filter>
<filter id="filter5_b_634_8942" x="113.768" y="382.459" width="28.2924" height="28.2924" filterUnits="userSpaceOnUse" color-interpolation-filters="sRGB">
<feFlood flood-opacity="0" result="BackgroundImageFix"/>
<feGaussianBlur in="BackgroundImageFix" stdDeviation="1.03793"/>
<feComposite in2="SourceAlpha" operator="in" result="effect1_backgroundBlur_634_8942"/>
<feBlend mode="normal" in="SourceGraphic" in2="effect1_backgroundBlur_634_8942" result="shape"/>
</filter>
<filter id="filter6_bd_634_8942" x="10.2796" y="380.877" width="73.7933" height="95.5399" filterUnits="userSpaceOnUse" color-interpolation-filters="sRGB">
<feFlood flood-opacity="0" result="BackgroundImageFix"/>
<feGaussianBlur in="BackgroundImageFix" stdDeviation="1.03793"/>
<feComposite in2="SourceAlpha" operator="in" result="effect1_backgroundBlur_634_8942"/>
<feColorMatrix in="SourceAlpha" type="matrix" values="0 0 0 0 0 0 0 0 0 0 0 0 0 0 0 0 0 0 127 0" result="hardAlpha"/>
<feOffset dx="9.86037" dy="16.6069"/>
<feGaussianBlur stdDeviation="1.03793"/>
<feComposite in2="hardAlpha" operator="out"/>
<feColorMatrix type="matrix" values="0 0 0 0 0.0319739 0 0 0 0 0.0236979 0 0 0 0 0.4375 0 0 0 0.05 0"/>
<feBlend mode="normal" in2="effect1_backgroundBlur_634_8942" result="effect2_dropShadow_634_8942"/>
<feBlend mode="normal" in="SourceGraphic" in2="effect2_dropShadow_634_8942" result="shape"/>
</filter>
<filter id="filter7_b_634_8942" x="13.2776" y="383.701" width="57.9369" height="73.2845" filterUnits="userSpaceOnUse" color-interpolation-filters="sRGB">
<feFlood flood-opacity="0" result="BackgroundImageFix"/>
<feGaussianBlur in="BackgroundImageFix" stdDeviation="1.03793"/>
<feComposite in2="SourceAlpha" operator="in" result="effect1_backgroundBlur_634_8942"/>
<feBlend mode="normal" in="SourceGraphic" in2="effect1_backgroundBlur_634_8942" result="shape"/>
</filter>
<filter id="filter8_b_634_8942" x="78.8831" y="412.754" width="29.3705" height="54.4174" filterUnits="userSpaceOnUse" color-interpolation-filters="sRGB">
<feFlood flood-opacity="0" result="BackgroundImageFix"/>
<feGaussianBlur in="BackgroundImageFix" stdDeviation="1.03793"/>
<feComposite in2="SourceAlpha" operator="in" result="effect1_backgroundBlur_634_8942"/>
<feBlend mode="normal" in="SourceGraphic" in2="effect1_backgroundBlur_634_8942" result="shape"/>
</filter>
<filter id="filter9_b_634_8942" x="302.409" y="376.141" width="22.6376" height="22.6376" filterUnits="userSpaceOnUse" color-interpolation-filters="sRGB">
<feFlood flood-opacity="0" result="BackgroundImageFix"/>
<feGaussianBlur in="BackgroundImageFix" stdDeviation="1.03"/>
<feComposite in2="SourceAlpha" operator="in" result="effect1_backgroundBlur_634_8942"/>
<feBlend mode="normal" in="SourceGraphic" in2="effect1_backgroundBlur_634_8942" result="shape"/>
</filter>
<filter id="filter10_b_634_8942" x="299.69" y="373.422" width="28.077" height="28.077" filterUnits="userSpaceOnUse" color-interpolation-filters="sRGB">
<feFlood flood-opacity="0" result="BackgroundImageFix"/>
<feGaussianBlur in="BackgroundImageFix" stdDeviation="1.03"/>
<feComposite in2="SourceAlpha" operator="in" result="effect1_backgroundBlur_634_8942"/>
<feBlend mode="normal" in="SourceGraphic" in2="effect1_backgroundBlur_634_8942" result="shape"/>
</filter>
<filter id="filter11_bd_634_8942" x="281.299" y="415.081" width="73.2292" height="94.809" filterUnits="userSpaceOnUse" color-interpolation-filters="sRGB">
<feFlood flood-opacity="0" result="BackgroundImageFix"/>
<feGaussianBlur in="BackgroundImageFix" stdDeviation="1.03"/>
<feComposite in2="SourceAlpha" operator="in" result="effect1_backgroundBlur_634_8942"/>
<feColorMatrix in="SourceAlpha" type="matrix" values="0 0 0 0 0 0 0 0 0 0 0 0 0 0 0 0 0 0 127 0" result="hardAlpha"/>
<feOffset dx="9.785" dy="16.48"/>
<feGaussianBlur stdDeviation="1.03"/>
<feComposite in2="hardAlpha" operator="out"/>
<feColorMatrix type="matrix" values="0 0 0 0 0.0319739 0 0 0 0 0.0236979 0 0 0 0 0.4375 0 0 0 0.05 0"/>
<feBlend mode="normal" in2="effect1_backgroundBlur_634_8942" result="effect2_dropShadow_634_8942"/>
<feBlend mode="normal" in="SourceGraphic" in2="effect2_dropShadow_634_8942" result="shape"/>
</filter>
<filter id="filter12_b_634_8942" x="284.274" y="417.883" width="57.495" height="72.7255" filterUnits="userSpaceOnUse" color-interpolation-filters="sRGB">
<feFlood flood-opacity="0" result="BackgroundImageFix"/>
<feGaussianBlur in="BackgroundImageFix" stdDeviation="1.03"/>
<feComposite in2="SourceAlpha" operator="in" result="effect1_backgroundBlur_634_8942"/>
<feBlend mode="normal" in="SourceGraphic" in2="effect1_backgroundBlur_634_8942" result="shape"/>
</filter>
<filter id="filter13_b_634_8942" x="230.268" y="446.18" width="42.2313" height="42.2313" filterUnits="userSpaceOnUse" color-interpolation-filters="sRGB">
<feFlood flood-opacity="0" result="BackgroundImageFix"/>
<feGaussianBlur in="BackgroundImageFix" stdDeviation="1.03"/>
<feComposite in2="SourceAlpha" operator="in" result="effect1_backgroundBlur_634_8942"/>
<feBlend mode="normal" in="SourceGraphic" in2="effect1_backgroundBlur_634_8942" result="shape"/>
</filter>
<filter id="filter14_d_634_8942" x="330.114" y="447.701" width="21.3055" height="24.3955" filterUnits="userSpaceOnUse" color-interpolation-filters="sRGB">
<feFlood flood-opacity="0" result="BackgroundImageFix"/>
<feColorMatrix in="SourceAlpha" type="matrix" values="0 0 0 0 0 0 0 0 0 0 0 0 0 0 0 0 0 0 127 0" result="hardAlpha"/>
<feOffset dy="5.15"/>
<feGaussianBlur stdDeviation="1.03"/>
<feComposite in2="hardAlpha" operator="out"/>
<feColorMatrix type="matrix" values="0 0 0 0 0.177222 0 0 0 0 0.100694 0 0 0 0 0.483333 0 0 0 0.15 0"/>
<feBlend mode="normal" in2="BackgroundImageFix" result="effect1_dropShadow_634_8942"/>
<feBlend mode="normal" in="SourceGraphic" in2="effect1_dropShadow_634_8942" result="shape"/>
</filter>
<filter id="filter15_b_634_8942" x="324.105" y="439.632" width="29.7202" height="29.7182" filterUnits="userSpaceOnUse" color-interpolation-filters="sRGB">
<feFlood flood-opacity="0" result="BackgroundImageFix"/>
<feGaussianBlur in="BackgroundImageFix" stdDeviation="4.03453"/>
<feComposite in2="SourceAlpha" operator="in" result="effect1_backgroundBlur_634_8942"/>
<feBlend mode="normal" in="SourceGraphic" in2="effect1_backgroundBlur_634_8942" result="shape"/>
</filter>
<filter id="filter16_b_634_8942" x="331.898" y="447.426" width="14.133" height="14.131" filterUnits="userSpaceOnUse" color-interpolation-filters="sRGB">
<feFlood flood-opacity="0" result="BackgroundImageFix"/>
<feGaussianBlur in="BackgroundImageFix" stdDeviation="0.7725"/>
<feComposite in2="SourceAlpha" operator="in" result="effect1_backgroundBlur_634_8942"/>
<feBlend mode="normal" in="SourceGraphic" in2="effect1_backgroundBlur_634_8942" result="shape"/>
</filter>
<filter id="filter17_b_634_8942" x="334.993" y="450.521" width="22.435" height="22.435" filterUnits="userSpaceOnUse" color-interpolation-filters="sRGB">
<feFlood flood-opacity="0" result="BackgroundImageFix"/>
<feGaussianBlur in="BackgroundImageFix" stdDeviation="4.03453"/>
<feComposite in2="SourceAlpha" operator="in" result="effect1_backgroundBlur_634_8942"/>
<feBlend mode="normal" in="SourceGraphic" in2="effect1_backgroundBlur_634_8942" result="shape"/>
</filter>
<linearGradient id="paint0_linear_634_8942" x1="221.234" y1="295.277" x2="221.234" y2="532.963" gradientUnits="userSpaceOnUse">
<stop offset="0.453125" stop-color="#3C46F4" stop-opacity="0"/>
<stop offset="0.71875" stop-color="#94CAFB" stop-opacity="0.91"/>
</linearGradient>
<linearGradient id="paint1_linear_634_8942" x1="127.914" y1="387.275" x2="127.914" y2="405.936" gradientUnits="userSpaceOnUse">
<stop stop-color="#FB967C"/>
<stop offset="1" stop-color="#36A8DB"/>
</linearGradient>
<linearGradient id="paint2_linear_634_8942" x1="127.914" y1="384.535" x2="127.914" y2="408.676" gradientUnits="userSpaceOnUse">
<stop stop-color="#E0998A"/>
<stop offset="1" stop-color="#43A7D5" stop-opacity="0"/>
</linearGradient>
<linearGradient id="paint3_linear_634_8942" x1="42.2463" y1="382.953" x2="42.2463" y2="457.734" gradientUnits="userSpaceOnUse">
<stop stop-color="#8CB2EF"/>
<stop offset="1" stop-color="#4583E9" stop-opacity="0.13"/>
</linearGradient>
<linearGradient id="paint4_linear_634_8942" x1="42.2463" y1="382.953" x2="42.2463" y2="457.734" gradientUnits="userSpaceOnUse">
<stop stop-color="white" stop-opacity="0.69"/>
<stop offset="1" stop-color="white" stop-opacity="0"/>
</linearGradient>
<linearGradient id="paint5_linear_634_8942" x1="42.2461" y1="385.777" x2="42.2461" y2="454.91" gradientUnits="userSpaceOnUse">
<stop stop-color="#B6D2FF"/>
<stop offset="1" stop-color="#D9E7FF" stop-opacity="0.13"/>
</linearGradient>
<linearGradient id="paint6_linear_634_8942" x1="93.5682" y1="414.83" x2="93.5682" y2="465.095" gradientUnits="userSpaceOnUse">
<stop stop-color="#B6D2FF"/>
<stop offset="1" stop-color="#D9E7FF" stop-opacity="0.13"/>
</linearGradient>
<linearGradient id="paint7_linear_634_8942" x1="313.728" y1="378.201" x2="313.728" y2="396.719" gradientUnits="userSpaceOnUse">
<stop stop-color="#FB967C"/>
<stop offset="1" stop-color="#36A8DB"/>
</linearGradient>
<linearGradient id="paint8_linear_634_8942" x1="313.728" y1="375.482" x2="313.728" y2="399.439" gradientUnits="userSpaceOnUse">
<stop stop-color="#E0998A"/>
<stop offset="1" stop-color="#43A7D5" stop-opacity="0"/>
</linearGradient>
<linearGradient id="paint9_linear_634_8942" x1="313.022" y1="417.141" x2="313.022" y2="491.35" gradientUnits="userSpaceOnUse">
<stop stop-color="#8CB2EF"/>
<stop offset="1" stop-color="#4583E9" stop-opacity="0.13"/>
</linearGradient>
<linearGradient id="paint10_linear_634_8942" x1="313.022" y1="417.141" x2="313.022" y2="491.35" gradientUnits="userSpaceOnUse">
<stop stop-color="white" stop-opacity="0.69"/>
<stop offset="1" stop-color="white" stop-opacity="0"/>
</linearGradient>
<linearGradient id="paint11_linear_634_8942" x1="313.021" y1="419.943" x2="313.021" y2="488.548" gradientUnits="userSpaceOnUse">
<stop stop-color="#B6D2FF"/>
<stop offset="1" stop-color="#D9E7FF" stop-opacity="0.13"/>
</linearGradient>
<linearGradient id="paint12_linear_634_8942" x1="251.384" y1="448.24" x2="251.384" y2="486.351" gradientUnits="userSpaceOnUse">
<stop stop-color="#62D7B2"/>
<stop offset="1" stop-color="#93E5CD" stop-opacity="0.08"/>
</linearGradient>
<linearGradient id="paint13_linear_634_8942" x1="359.579" y1="365.297" x2="359.579" y2="404.928" gradientUnits="userSpaceOnUse">
<stop stop-color="#AECDFF"/>
<stop offset="1" stop-color="#D9E7FF" stop-opacity="0.36"/>
</linearGradient>
<linearGradient id="paint14_linear_634_8942" x1="336.095" y1="461.189" x2="346.862" y2="443.318" gradientUnits="userSpaceOnUse">
<stop stop-color="#F6F3FF"/>
<stop offset="1" stop-color="white" stop-opacity="0.13"/>
</linearGradient>
<linearGradient id="paint15_linear_634_8942" x1="338.963" y1="459.278" x2="339.456" y2="454.986" gradientUnits="userSpaceOnUse">
<stop stop-color="white"/>
<stop offset="1" stop-color="white" stop-opacity="0"/>
</linearGradient>
<linearGradient id="paint16_linear_634_8942" x1="347.063" y1="461.272" x2="345.744" y2="462.591" gradientUnits="userSpaceOnUse">
<stop stop-color="#F6F3FF"/>
<stop offset="1" stop-color="white" stop-opacity="0.13"/>
</linearGradient>
<clipPath id="clip0_634_8942">
<rect width="393" height="508" fill="white" transform="translate(0 0.417969)"/>
</clipPath>
<clipPath id="clip1_634_8942">
<rect x="15.6836" y="386.924" width="53.4536" height="67.9846" rx="1.03793" fill="white"/>
</clipPath>
<clipPath id="clip2_634_8942">
<rect width="24.9104" height="50.3398" fill="white" transform="translate(81.2656 414.83)"/>
</clipPath>
<clipPath id="clip3_634_8942">
<rect x="286.789" y="421.084" width="53.045" height="67.465" rx="1.03" fill="white"/>
</clipPath>
</defs>
</svg>
