<svg width="393" height="509" viewBox="0 0 393 509" fill="none" xmlns="http://www.w3.org/2000/svg">
<g clip-path="url(#clip0_634_8766)">
<rect width="393" height="508" transform="translate(0 0.417969)" fill="white"/>
<path d="M-64.8585 534.66L-64.8594 -0.595703H507.328V500.556C471.688 508.096 385.284 523.176 324.675 523.176C248.913 523.176 173.731 506.472 100.26 506.472C26.7892 506.472 -34.3093 525.264 -64.8585 534.66Z" fill="#164B9F"/>
<rect opacity="0.8" x="68.3672" y="93.6582" width="28.8145" height="54.0273" rx="3.63277" fill="#D9D9D9" fill-opacity="0.33"/>
<g filter="url(#filter0_f_634_8766)">
<rect x="-41.8359" y="5.02734" width="823.05" height="249.984" fill="#143D95"/>
</g>
<rect opacity="0.8" x="88.293" y="427.396" width="28.8145" height="54.0273" rx="3.63277" fill="white" fill-opacity="0.12"/>
<g filter="url(#filter1_f_634_8766)">
<rect x="42.7812" y="229.197" width="375.462" height="124.026" rx="62.013" transform="rotate(15 42.7812 229.197)" fill="#FF6332" fill-opacity="0.74"/>
</g>
<path d="M13.9053 293.428V508.406" stroke="#64B2C4" stroke-opacity="0.18" stroke-width="0.518967"/>
<path d="M391.374 304.875L-17.9376 304.875" stroke="#64B2C4" stroke-opacity="0.18" stroke-width="0.518967"/>
<path d="M391.374 319.951L-17.9376 319.951" stroke="#64B2C4" stroke-opacity="0.18" stroke-width="0.518967"/>
<path d="M391.374 335.027L-17.9376 335.027" stroke="#64B2C4" stroke-opacity="0.18" stroke-width="0.518967"/>
<path d="M391.374 350.104L-17.9376 350.103" stroke="#64B2C4" stroke-opacity="0.18" stroke-width="0.518967"/>
<path d="M391.374 365.18L-17.9376 365.18" stroke="#64B2C4" stroke-opacity="0.18" stroke-width="0.518967"/>
<path d="M391.374 380.256L-17.9376 380.256" stroke="#64B2C4" stroke-opacity="0.18" stroke-width="0.518967"/>
<path d="M391.374 395.332L-17.9376 395.332" stroke="#64B2C4" stroke-opacity="0.18" stroke-width="0.518967"/>
<path d="M391.374 410.408L-17.9376 410.408" stroke="#64B2C4" stroke-opacity="0.18" stroke-width="0.518967"/>
<path d="M391.374 425.486L-17.9376 425.486" stroke="#64B2C4" stroke-opacity="0.18" stroke-width="0.518967"/>
<path d="M391.374 440.562L-17.9376 440.562" stroke="#64B2C4" stroke-opacity="0.18" stroke-width="0.518967"/>
<path d="M391.374 455.639L-17.9376 455.639" stroke="#64B2C4" stroke-opacity="0.18" stroke-width="0.518967"/>
<path d="M391.374 470.715L-17.9376 470.715" stroke="#64B2C4" stroke-opacity="0.18" stroke-width="0.518967"/>
<path d="M391.374 485.791L-17.9376 485.791" stroke="#64B2C4" stroke-opacity="0.18" stroke-width="0.518967"/>
<path d="M391.374 500.867L-17.9376 500.867" stroke="#64B2C4" stroke-opacity="0.18" stroke-width="0.518967"/>
<path d="M28.4229 293.428V508.406" stroke="#64B2C4" stroke-opacity="0.18" stroke-width="0.518967"/>
<path d="M42.9404 293.428V508.406" stroke="#64B2C4" stroke-opacity="0.18" stroke-width="0.518967"/>
<path d="M57.459 293.428V508.406" stroke="#64B2C4" stroke-opacity="0.18" stroke-width="0.518967"/>
<path d="M71.9766 293.428V508.406" stroke="#64B2C4" stroke-opacity="0.18" stroke-width="0.518967"/>
<path d="M86.4941 293.428V508.406" stroke="#64B2C4" stroke-opacity="0.18" stroke-width="0.518967"/>
<path d="M101.014 293.428V508.406" stroke="#64B2C4" stroke-opacity="0.18" stroke-width="0.518967"/>
<path d="M115.531 293.428V508.406" stroke="#64B2C4" stroke-opacity="0.18" stroke-width="0.518967"/>
<path d="M130.049 293.428V508.406" stroke="#64B2C4" stroke-opacity="0.18" stroke-width="0.518967"/>
<path d="M144.567 293.428V508.406" stroke="#64B2C4" stroke-opacity="0.18" stroke-width="0.518967"/>
<path d="M159.085 293.428V508.406" stroke="#64B2C4" stroke-opacity="0.18" stroke-width="0.518967"/>
<path d="M173.604 293.428V508.406" stroke="#64B2C4" stroke-opacity="0.18" stroke-width="0.518967"/>
<path d="M188.122 293.428V508.406" stroke="#64B2C4" stroke-opacity="0.18" stroke-width="0.518967"/>
<path d="M202.64 293.428V508.406" stroke="#64B2C4" stroke-opacity="0.18" stroke-width="0.518967"/>
<path d="M217.157 293.428V508.406" stroke="#64B2C4" stroke-opacity="0.18" stroke-width="0.518967"/>
<path d="M231.676 293.428V508.406" stroke="#64B2C4" stroke-opacity="0.18" stroke-width="0.518967"/>
<path d="M246.194 293.428V508.406" stroke="#64B2C4" stroke-opacity="0.18" stroke-width="0.518967"/>
<path d="M260.712 293.428V508.406" stroke="#64B2C4" stroke-opacity="0.18" stroke-width="0.518967"/>
<path d="M275.23 293.428V508.406" stroke="#64B2C4" stroke-opacity="0.18" stroke-width="0.518967"/>
<path d="M289.748 293.428V508.406" stroke="#64B2C4" stroke-opacity="0.18" stroke-width="0.518967"/>
<path d="M304.266 293.428V508.406" stroke="#64B2C4" stroke-opacity="0.18" stroke-width="0.518967"/>
<path d="M318.783 293.428V508.406" stroke="#64B2C4" stroke-opacity="0.18" stroke-width="0.518967"/>
<path d="M333.303 293.428V508.406" stroke="#64B2C4" stroke-opacity="0.18" stroke-width="0.518967"/>
<path d="M347.82 293.428V508.406" stroke="#64B2C4" stroke-opacity="0.18" stroke-width="0.518967"/>
<path d="M362.338 293.428V508.406" stroke="#64B2C4" stroke-opacity="0.18" stroke-width="0.518967"/>
<path d="M376.856 293.428V508.406" stroke="#64B2C4" stroke-opacity="0.18" stroke-width="0.518967"/>
<g filter="url(#filter2_f_634_8766)">
<rect x="304.416" y="107.307" width="272.759" height="301.262" transform="rotate(15 304.416 107.307)" fill="#0A2963"/>
</g>
<g filter="url(#filter3_f_634_8766)">
<rect x="-109.176" y="139.744" width="272.759" height="237.329" rx="118.664" transform="rotate(15 -109.176 139.744)" fill="#16C7FF" fill-opacity="0.56"/>
</g>
<path d="M-64.8594 534.66L-74.8223 -260.535L507.328 24.5235V500.555C471.687 508.095 385.283 523.176 324.674 523.176C248.912 523.176 173.73 510.518 100.259 510.518C26.7883 510.518 -34.3102 525.264 -64.8594 534.66Z" fill="url(#paint0_linear_634_8766)"/>
<path d="M144.834 487.876C145.27 486.345 146.473 485.151 148.008 484.727L148.485 484.595L148.008 484.463H148.008C146.473 484.039 145.27 482.845 144.834 481.314L144.697 480.838L144.561 481.314C144.125 482.845 142.922 484.039 141.387 484.463L140.91 484.595L141.386 484.727H141.387C142.922 485.151 144.125 486.345 144.561 487.876L144.697 488.352L144.834 487.876Z" fill="#9AC1FF" fill-opacity="0.32"/>
<path d="M133.452 385.634C133.565 385.237 133.877 384.928 134.274 384.818L134.398 384.784L134.275 384.75H134.274C133.877 384.64 133.565 384.331 133.452 383.934L133.417 383.811L133.381 383.934C133.268 384.331 132.957 384.64 132.559 384.75L132.436 384.784L132.559 384.818H132.559C132.957 384.928 133.268 385.237 133.381 385.634L133.417 385.757L133.452 385.634Z" fill="#FFF2AE" fill-opacity="0.84"/>
<g filter="url(#filter4_b_634_8766)">
<circle cx="127.914" cy="398.305" r="9.33014" fill="url(#paint1_linear_634_8766)"/>
</g>
<g filter="url(#filter5_b_634_8766)">
<circle cx="127.914" cy="398.305" r="11.8109" stroke="url(#paint2_linear_634_8766)" stroke-width="0.518967"/>
</g>
<path d="M130.712 395.631C130.74 395.348 130.74 395.094 130.74 394.783H125.09C125.09 395.094 125.09 395.348 125.118 395.631H123.395V395.913C123.395 398.428 126.587 400.208 127.35 400.603L127.35 401.564C127.35 402.044 126.982 402.411 126.502 402.411H125.937V403.541H129.892V402.411H129.327C128.847 402.411 128.48 402.044 128.48 401.564V400.603C129.242 400.208 132.435 398.428 132.435 395.914V395.631L130.712 395.631ZM123.988 396.196H125.174C125.287 397.467 125.598 398.372 125.937 399.021C125.033 398.315 124.101 397.326 123.988 396.196ZM129.921 399.021C130.26 398.371 130.571 397.467 130.684 396.196H131.87C131.729 397.326 130.797 398.315 129.921 399.021Z" fill="white" fill-opacity="0.69"/>
<g filter="url(#filter6_bd_634_8766)">
<rect x="12.3555" y="384.65" width="59.7817" height="74.7806" rx="3.63277" fill="url(#paint3_linear_634_8766)" shape-rendering="crispEdges"/>
<rect x="12.4852" y="384.78" width="59.5222" height="74.5211" rx="3.50302" stroke="url(#paint4_linear_634_8766)" stroke-width="0.259483" shape-rendering="crispEdges"/>
</g>
<g filter="url(#filter7_b_634_8766)">
<rect x="15.3535" y="387.475" width="53.7853" height="69.133" rx="1.03793" fill="url(#paint5_linear_634_8766)"/>
</g>
<rect x="26.2363" y="424.801" width="35.3585" height="1.99737" rx="0.998685" fill="#133F84" fill-opacity="0.49"/>
<rect x="21.8535" y="424.801" width="2.0197" height="1.99737" rx="0.998685" fill="#133F84" fill-opacity="0.49"/>
<rect x="26.2363" y="431.328" width="35.3585" height="1.99737" rx="0.998685" fill="#133F84" fill-opacity="0.49"/>
<rect x="21.8535" y="431.328" width="2.0197" height="1.99737" rx="0.998685" fill="#133F84" fill-opacity="0.49"/>
<rect x="26.2363" y="437.854" width="35.3585" height="1.99737" rx="0.998685" fill="#133F84" fill-opacity="0.49"/>
<rect x="21.8535" y="437.854" width="2.0197" height="1.99737" rx="0.998685" fill="#133F84" fill-opacity="0.49"/>
<g clip-path="url(#clip1_634_8766)">
<rect x="9.60449" y="383.812" width="105.014" height="12.2251" transform="rotate(45 9.60449 383.812)" fill="white" fill-opacity="0.12"/>
<rect x="6.84473" y="402.439" width="105.014" height="3.09214" transform="rotate(45 6.84473 402.439)" fill="white" fill-opacity="0.12"/>
</g>
<rect x="21.8545" y="399.596" width="10.4077" height="13.9074" rx="1.03793" fill="#6487C0"/>
<rect x="37.042" y="399.596" width="10.4077" height="13.9074" rx="1.03793" fill="#6487C0"/>
<rect x="52.2324" y="399.596" width="10.4077" height="13.9074" rx="1.03793" fill="#6487C0"/>
<path d="M93.5685 413.632L95.0666 411.037H92.0703L93.5685 413.632ZM41.8571 384.716V380.662H41.3382V384.716H41.8571ZM45.7494 376.769H89.4167V376.25H45.7494V376.769ZM93.309 380.661V411.296H93.8279V380.661H93.309ZM89.4167 376.769C91.5664 376.769 93.309 378.512 93.309 380.661H93.8279C93.8279 378.225 91.853 376.25 89.4167 376.25V376.769ZM41.8571 380.662C41.8571 378.512 43.5998 376.769 45.7494 376.769V376.25C43.3131 376.25 41.3382 378.225 41.3382 380.662H41.8571Z" fill="white" fill-opacity="0.3"/>
<rect x="79.1602" y="414.646" width="28.8145" height="54.0273" rx="3.63277" fill="#6895E0" fill-opacity="0.74"/>
<g filter="url(#filter8_b_634_8766)">
<rect x="80.958" y="416.527" width="25.2184" height="50.2648" rx="1.03793" fill="url(#paint6_linear_634_8766)"/>
</g>
<path d="M85.797 439.6C84.6599 439.6 83.7373 440.522 83.7373 441.659C83.7373 442.796 84.6599 443.719 85.797 443.719C86.9341 443.719 87.8566 442.796 87.8566 441.659C87.8566 440.522 86.9341 439.6 85.797 439.6ZM86.8568 441.161L85.6468 442.376C85.6082 442.414 85.5524 442.44 85.4966 442.44C85.4408 442.44 85.385 442.419 85.3464 442.376L84.7371 441.767C84.6513 441.681 84.6513 441.548 84.7371 441.462C84.823 441.376 84.956 441.376 85.0419 441.462L85.4968 441.917L86.5566 440.857C86.6424 440.771 86.7755 440.771 86.8613 440.857C86.9426 440.943 86.9426 441.076 86.8568 441.161L86.8568 441.161Z" fill="#5A7FBC"/>
<path d="M85.797 446.602C84.6599 446.602 83.7373 447.524 83.7373 448.661C83.7373 449.798 84.6599 450.721 85.797 450.721C86.9341 450.721 87.8566 449.798 87.8566 448.661C87.8566 447.524 86.9341 446.602 85.797 446.602ZM86.8568 448.163L85.6468 449.378C85.6082 449.416 85.5524 449.442 85.4966 449.442C85.4408 449.442 85.385 449.421 85.3464 449.378L84.7371 448.768C84.6513 448.683 84.6513 448.55 84.7371 448.464C84.823 448.378 84.956 448.378 85.0419 448.464L85.4968 448.919L86.5566 447.859C86.6424 447.773 86.7755 447.773 86.8613 447.859C86.9426 447.945 86.9426 448.078 86.8568 448.163L86.8568 448.163Z" fill="#5A7FBC"/>
<path d="M85.797 453.602C84.6599 453.602 83.7373 454.524 83.7373 455.661C83.7373 456.798 84.6599 457.721 85.797 457.721C86.9341 457.721 87.8566 456.798 87.8566 455.661C87.8566 454.524 86.9341 453.602 85.797 453.602ZM86.8568 455.163L85.6468 456.378C85.6082 456.416 85.5524 456.442 85.4966 456.442C85.4408 456.442 85.385 456.421 85.3464 456.378L84.7371 455.768C84.6513 455.683 84.6513 455.55 84.7371 455.464C84.823 455.378 84.956 455.378 85.0419 455.464L85.4968 455.919L86.5566 454.859C86.6424 454.773 86.7755 454.773 86.8613 454.859C86.9426 454.945 86.9426 455.078 86.8568 455.163L86.8568 455.163Z" fill="#5A7FBC"/>
<rect x="83.7373" y="422.23" width="8.53302" height="12.4042" rx="1.03793" fill="#4D7BC7" fill-opacity="0.69"/>
<rect x="94.8652" y="422.23" width="8.53302" height="12.4042" rx="1.03793" fill="#4D7BC7" fill-opacity="0.69"/>
<rect x="90.2959" y="440.939" width="13.1019" height="1.4409" rx="0.72045" fill="#133F84" fill-opacity="0.35"/>
<rect x="90.2959" y="447.939" width="13.1019" height="1.4409" rx="0.72045" fill="#133F84" fill-opacity="0.35"/>
<rect x="90.2959" y="454.941" width="13.1019" height="1.4409" rx="0.72045" fill="#133F84" fill-opacity="0.35"/>
<g opacity="0.75" clip-path="url(#clip2_634_8766)">
<rect x="60.915" y="397.324" width="105.014" height="12.2251" transform="rotate(45 60.915 397.324)" fill="white" fill-opacity="0.12"/>
<rect x="58.1562" y="415.949" width="105.014" height="3.09214" transform="rotate(45 58.1562 415.949)" fill="white" fill-opacity="0.12"/>
</g>
<path d="M254.855 443.48V465.704L249.102 444.233C250.936 443.742 252.866 443.48 254.855 443.48ZM239.14 449.99L254.855 465.704L243.74 446.455C242.055 447.43 240.508 448.622 239.14 449.99ZM233.384 459.952L254.855 465.704L235.605 454.591C234.643 456.254 233.891 458.051 233.384 459.952ZM233.386 471.457L254.855 465.704H232.631C232.631 467.694 232.892 469.623 233.386 471.457ZM239.14 481.419L254.855 465.704L235.605 476.817C236.58 478.505 237.772 480.051 239.14 481.419ZM249.102 487.176L254.855 465.704L243.74 484.954C245.402 485.916 247.202 486.669 249.102 487.176ZM260.608 487.176L254.855 465.704V487.928C256.844 487.928 258.773 487.667 260.608 487.176ZM270.569 481.419L254.855 465.704L265.97 484.954C267.655 483.979 269.201 482.787 270.569 481.419ZM274.105 476.817C275.066 475.155 275.819 473.357 276.324 471.457L254.855 465.704L274.105 476.817ZM276.326 459.953L254.855 465.704H277.079C277.079 463.715 276.817 461.788 276.326 459.953ZM270.569 449.99L254.855 465.704L274.105 454.591C273.129 452.904 271.937 451.358 270.569 449.99ZM260.608 444.233L254.855 465.704L265.97 446.455C264.307 445.493 262.508 444.74 260.608 444.233Z" fill="url(#paint7_radial_634_8766)"/>
<rect x="345.549" y="373.895" width="31.3074" height="42.6303" rx="1.46467" fill="#D9D9D9" fill-opacity="0.04"/>
<g filter="url(#filter9_bd_634_8766)">
<rect x="284.515" y="413.896" width="56.2404" height="70.3508" rx="3.41757" fill="url(#paint8_linear_634_8766)" shape-rendering="crispEdges"/>
<rect x="284.637" y="414.019" width="55.9963" height="70.1067" rx="3.29551" stroke="url(#paint9_linear_634_8766)" stroke-width="0.244112" shape-rendering="crispEdges"/>
</g>
<g filter="url(#filter10_b_634_8766)">
<rect x="287.335" y="416.553" width="50.5991" height="65.0377" rx="0.976448" fill="url(#paint10_linear_634_8766)"/>
</g>
<rect x="295.905" y="456.408" width="33.2639" height="1.87905" rx="0.939525" fill="#133F84" fill-opacity="0.49"/>
<rect x="295.905" y="462.549" width="33.2639" height="1.87905" rx="0.939525" fill="#133F84" fill-opacity="0.49"/>
<rect x="319.767" y="424.701" width="9.40216" height="10.6563" rx="0.976448" fill="#133F84" fill-opacity="0.49"/>
<rect x="307.934" y="424.701" width="9.40216" height="10.6563" rx="0.976448" fill="#133F84" fill-opacity="0.49"/>
<rect x="296.101" y="424.701" width="9.40216" height="10.6563" rx="0.976448" fill="#133F84" fill-opacity="0.49"/>
<rect x="319.766" y="440.131" width="9.40216" height="10.6563" rx="0.976448" fill="#133F84" fill-opacity="0.49"/>
<rect x="307.933" y="440.131" width="9.40216" height="10.6563" rx="0.976448" fill="#133F84" fill-opacity="0.49"/>
<rect x="296.1" y="440.131" width="9.40216" height="10.6563" rx="0.976448" fill="#133F84" fill-opacity="0.49"/>
<path d="M245.62 443.665C246.078 442.057 247.341 440.803 248.953 440.358L249.454 440.219L248.954 440.081H248.953C247.341 439.636 246.078 438.382 245.62 436.774L245.476 436.273L245.333 436.774C244.875 438.382 243.612 439.636 242 440.081L241.499 440.219L241.999 440.358H242C243.612 440.803 244.875 442.057 245.333 443.665L245.476 444.165L245.62 443.665Z" fill="#E59888"/>
<path d="M263.8 447.733C263.996 447.046 264.536 446.51 265.225 446.32L265.439 446.26L265.225 446.201H265.225C264.536 446.011 263.996 445.475 263.8 444.788L263.739 444.574L263.678 444.788C263.482 445.475 262.942 446.011 262.253 446.201L262.039 446.26L262.253 446.32H262.253C262.942 446.51 263.482 447.046 263.678 447.733L263.739 447.947L263.8 447.733Z" fill="#FAFFD0"/>
<g filter="url(#filter11_b_634_8766)">
<circle cx="255.761" cy="464.856" r="11.407" fill="url(#paint11_linear_634_8766)"/>
</g>
<path d="M316.137 376.467C316.243 376.094 316.536 375.803 316.911 375.7L317.027 375.668L316.911 375.636H316.911C316.536 375.532 316.243 375.241 316.137 374.868L316.104 374.752L316.07 374.868C315.964 375.241 315.671 375.532 315.297 375.636L315.181 375.668L315.297 375.7H315.297C315.671 375.803 315.964 376.094 316.07 376.467L316.104 376.583L316.137 376.467Z" fill="#FFF2AE" fill-opacity="0.84"/>
<g filter="url(#filter12_b_634_8766)">
<circle cx="310.928" cy="388.389" r="8.77744" fill="url(#paint12_linear_634_8766)"/>
</g>
<g filter="url(#filter13_b_634_8766)">
<circle cx="310.928" cy="388.389" r="11.1113" stroke="url(#paint13_linear_634_8766)" stroke-width="0.488224"/>
</g>
<path d="M357.009 409.488C356.913 409.392 356.759 409.392 356.663 409.488L355.11 411.041C355.015 411.136 355.015 411.291 355.11 411.386C355.205 411.482 355.36 411.482 355.455 411.386L356.836 410.005L358.217 411.386C358.312 411.482 358.467 411.482 358.562 411.386C358.658 411.291 358.658 411.136 358.562 411.041L357.009 409.488ZM340.869 467.656H352.93V467.168H340.869V467.656ZM357.08 463.506V409.66H356.592V463.506H357.08ZM352.93 467.656C355.222 467.656 357.08 465.798 357.08 463.506H356.592C356.592 465.529 354.953 467.168 352.93 467.168V467.656Z" fill="white" fill-opacity="0.3"/>
<path d="M298.13 388.009C298.225 387.913 298.225 387.759 298.13 387.663L296.576 386.11C296.481 386.014 296.326 386.014 296.231 386.11C296.136 386.205 296.136 386.36 296.231 386.455L297.612 387.836L296.231 389.217C296.136 389.312 296.136 389.467 296.231 389.562C296.326 389.657 296.481 389.657 296.576 389.562L298.13 388.009ZM284.344 430.329H283.461V430.818H284.344V430.329ZM281.696 430.329H279.93V430.818H281.696V430.329ZM278.165 430.329H276.399V430.818H278.165V430.329ZM274.633 430.329H272.868V430.818H274.633V430.329ZM271.102 430.329H270.219V430.818H271.102V430.329ZM270.219 430.329C269.974 430.329 269.735 430.305 269.504 430.26L269.41 430.739C269.672 430.79 269.942 430.818 270.219 430.818V430.329ZM268.185 429.713C267.786 429.445 267.442 429.101 267.174 428.702L266.768 428.974C267.071 429.426 267.461 429.816 267.913 430.118L268.185 429.713ZM266.627 427.383C266.582 427.152 266.558 426.913 266.558 426.668H266.069C266.069 426.945 266.097 427.215 266.148 427.477L266.627 427.383ZM266.558 426.668V425.698H266.069V426.668H266.558ZM266.558 423.757V421.817H266.069V423.757H266.558ZM266.558 419.877V417.936H266.069V419.877H266.558ZM266.558 415.996V414.056H266.069V415.996H266.558ZM266.558 412.115V410.175H266.069V412.115H266.558ZM266.558 408.235V406.294H266.069V408.235H266.558ZM266.558 404.354V402.414H266.069V404.354H266.558ZM266.558 400.473V398.533H266.069V400.473H266.558ZM266.558 396.593V394.652H266.069V396.593H266.558ZM266.558 392.712V391.742H266.069V392.712H266.558ZM266.558 391.742C266.558 391.497 266.582 391.258 266.627 391.027L266.148 390.932C266.097 391.194 266.069 391.465 266.069 391.742H266.558ZM267.174 389.707C267.442 389.308 267.786 388.964 268.185 388.697L267.913 388.291C267.461 388.594 267.071 388.983 266.768 389.436L267.174 389.707ZM269.504 388.15C269.735 388.104 269.974 388.08 270.219 388.08V387.592C269.942 387.592 269.672 387.619 269.41 387.671L269.504 388.15ZM270.219 388.08H271.21V387.592H270.219V388.08ZM273.191 388.08H275.172V387.592H273.191V388.08ZM277.154 388.08H279.135V387.592H277.154V388.08ZM281.116 388.08H283.097V387.592H281.116V388.08ZM285.079 388.08H287.06V387.592H285.079V388.08ZM289.041 388.08H291.023V387.592H289.041V388.08ZM293.004 388.08H294.985V387.592H293.004V388.08ZM296.966 388.08H297.957V387.592H296.966V388.08Z" fill="white" fill-opacity="0.3"/>
<path fill-rule="evenodd" clip-rule="evenodd" d="M251.44 467.612V464.443L255.163 465.975C255.355 466.053 255.558 466.051 255.749 465.973L259.566 464.403V467.611C259.565 467.662 259.555 467.713 259.534 467.763C259.532 467.767 258.803 469.501 255.54 469.753C255.519 469.755 255.496 469.755 255.474 469.753C252.507 469.527 251.631 468.076 251.493 467.806C251.46 467.749 251.44 467.682 251.44 467.611L251.44 467.612ZM249.336 462.443L255.309 459.986C255.407 459.946 255.512 459.949 255.602 459.986L261.574 462.443C261.815 462.542 261.889 462.845 261.728 463.044V466.745L262.367 467.768C262.528 468.027 262.336 468.36 262.038 468.359L260.642 468.36C260.324 468.36 260.146 468.001 260.326 467.748L260.952 466.745V463.414L255.602 465.616C255.504 465.656 255.399 465.653 255.309 465.616L249.336 463.158C249.015 463.026 249.021 462.573 249.336 462.443L249.336 462.443Z" fill="white" fill-opacity="0.69"/>
<rect opacity="0.8" x="333.187" y="367.051" width="32.0336" height="42.1532" rx="1.9529" fill="url(#paint14_linear_634_8766)" fill-opacity="0.8"/>
<rect x="338.781" y="375.842" width="16.2772" height="1.34282" rx="0.67141" fill="white" fill-opacity="0.35"/>
<rect x="338.781" y="379.807" width="15.1997" height="1.34282" rx="0.67141" fill="#C6E0EE"/>
<rect x="338.781" y="383.773" width="15.1997" height="1.34282" rx="0.67141" fill="white" fill-opacity="0.35"/>
<rect x="338.781" y="387.738" width="13.3043" height="1.34282" rx="0.67141" fill="#82BAD8"/>
<rect x="338.781" y="391.705" width="15.1997" height="1.34282" rx="0.67141" fill="white" fill-opacity="0.35"/>
<path d="M342.45 402.24C342.506 402.328 342.616 402.394 342.715 402.383C342.825 402.383 342.924 402.317 342.969 402.218L343.498 401.116C343.817 401.645 344.401 402.383 345.162 402.383C345.504 402.383 345.647 402.086 345.746 401.887C345.89 401.601 345.934 401.491 346.308 401.623C347.234 401.965 348.039 402.262 348.601 401.436C348.689 401.303 348.656 401.116 348.524 401.028C348.392 400.94 348.204 400.973 348.116 401.105C347.84 401.502 347.554 401.458 346.507 401.072C345.636 400.752 345.349 401.347 345.206 401.623C345.173 401.689 345.129 401.777 345.151 401.788C344.512 401.788 343.916 400.741 343.74 400.344C343.696 400.234 343.586 400.168 343.475 400.168C343.365 400.168 343.255 400.234 343.211 400.333L342.649 401.524C342.472 401.325 342.219 401.083 341.899 400.895C341.756 400.818 341.58 400.862 341.502 401.006C341.425 401.149 341.469 401.325 341.613 401.402C342.142 401.722 342.45 402.24 342.45 402.24H342.45Z" fill="white" fill-opacity="0.55"/>
<path d="M349.053 403.033H338.979C338.868 403.033 338.78 403.121 338.78 403.232C338.78 403.342 338.868 403.43 338.979 403.43H349.064C349.175 403.43 349.263 403.342 349.263 403.232C349.263 403.121 349.164 403.033 349.053 403.033H349.053Z" fill="white" fill-opacity="0.55"/>
<path d="M339.375 402.339C339.408 402.372 339.463 402.394 339.519 402.394C339.574 402.394 339.618 402.372 339.662 402.339L340.004 401.998L340.345 402.339C340.378 402.372 340.433 402.394 340.489 402.394C340.544 402.394 340.588 402.372 340.632 402.339C340.709 402.262 340.709 402.141 340.632 402.064L340.268 401.722L340.61 401.38C340.687 401.303 340.687 401.182 340.61 401.105C340.533 401.028 340.411 401.028 340.334 401.105L339.993 401.446L339.651 401.105C339.574 401.028 339.452 401.028 339.375 401.105C339.298 401.182 339.298 401.303 339.375 401.38L339.717 401.722L339.375 402.064C339.298 402.141 339.298 402.262 339.375 402.339H339.375Z" fill="white" fill-opacity="0.55"/>
<path d="M355.539 393.779C355.488 393.725 355.417 393.695 355.343 393.695C355.269 393.695 355.198 393.725 355.147 393.779L354.746 394.171L354.214 393.639C354.16 393.59 354.09 393.562 354.018 393.562C353.945 393.562 353.875 393.59 353.822 393.639L351.564 395.897L351.965 396.298L354.018 394.236L354.214 394.423L352.226 396.411L349.054 399.583C349.017 399.619 348.991 399.664 348.979 399.714L348.662 401.002C348.648 401.049 348.648 401.1 348.661 401.147C348.674 401.195 348.7 401.238 348.736 401.272C348.789 401.322 348.86 401.348 348.932 401.347H348.998L350.285 401.03L350.416 400.955L355.772 395.589C355.815 395.548 355.843 395.493 355.851 395.434C355.859 395.375 355.848 395.315 355.819 395.263L356.22 394.852V394.852C356.274 394.801 356.304 394.73 356.304 394.656C356.304 394.582 356.274 394.511 356.22 394.46L355.539 393.779ZM350.22 400.358L349.641 399.788L352.226 397.204L352.795 397.773L350.22 400.358Z" fill="white" fill-opacity="0.55"/>
<path fill-rule="evenodd" clip-rule="evenodd" d="M343.059 365.332C343.053 365.363 343.049 365.395 343.049 365.428V365.759C343.049 366.029 343.268 366.248 343.538 366.248H354.867C355.137 366.248 355.355 366.029 355.355 365.759V365.428C355.355 365.395 355.352 365.363 355.346 365.332H358.931C359.314 365.332 359.625 365.643 359.625 366.026V368.079C359.625 368.462 359.314 368.773 358.931 368.773H339.474C339.091 368.773 338.78 368.462 338.78 368.079V366.026C338.78 365.643 339.091 365.332 339.474 365.332H343.059Z" fill="#C3E0F1"/>
<g filter="url(#filter14_d_634_8766)">
<circle cx="310.927" cy="388.387" r="8.74505" transform="rotate(-28.5308 310.927 388.387)" fill="white" fill-opacity="0.29"/>
</g>
<g clip-path="url(#clip3_634_8766)">
<path d="M305.755 387.863C305.966 387.448 307.195 385.742 307.879 385.944C308.334 386.078 308.6 386.316 308.749 386.59C309.013 387.075 308.927 387.722 308.869 388.218L308.817 388.574C308.761 389.123 308.498 389.594 308.296 389.976C308.195 390.141 308.083 390.338 308.045 390.468C308.198 390.549 308.535 390.666 308.762 390.733C309.522 390.976 310.358 391.258 310.691 391.87C311.172 392.755 310.598 393.558 310.291 393.998C310.23 394.086 310.148 394.185 310.138 394.218C310.138 394.218 309.805 395.163 309.416 395.703C309.602 395.996 310.035 396.559 310.437 397.057L310.428 397.146C307.516 396.971 304.755 395.344 303.259 392.591C302.69 391.545 302.357 390.433 302.242 389.317L302.523 388.982C302.529 388.982 302.535 388.982 302.54 388.982L302.55 388.95C302.577 388.799 302.644 388.571 302.807 388.318C303.206 387.747 303.888 387.594 304.832 387.873C305.255 387.998 305.628 387.932 305.755 387.863Z" fill="#C3E0F1"/>
<path d="M310.525 379.678C310.847 379.663 311.169 379.666 311.489 379.686C314.39 379.87 317.135 381.496 318.625 384.238C319.118 385.144 319.433 386.099 319.584 387.063C319.639 387.408 319.671 387.754 319.683 388.1L319.591 388.151C319.359 388.277 319.066 388.191 318.94 387.959L318.803 387.705C318.771 387.696 318.738 387.686 318.673 387.667L318.641 387.658C318.496 387.845 318.252 387.896 318.06 387.946C317.985 387.959 317.889 387.984 317.869 387.995L317.447 388.225C317.321 388.293 317.159 388.299 317.018 388.239C316.876 388.18 316.775 388.044 316.749 387.894L316.616 387.147C316.604 387.126 316.614 387.094 316.602 387.073C316.606 386.879 316.567 386.655 316.542 386.559C316.53 386.538 316.509 386.55 316.509 386.55C316.32 386.653 316.105 386.66 315.965 386.655C315.944 386.666 315.89 386.668 315.837 386.67C315.797 386.747 315.737 386.888 315.677 387.03C315.788 387.434 315.91 387.859 315.967 387.964C316.116 388.239 316.54 389.018 315.908 389.362L314.854 389.935C314.622 390.061 314.329 389.975 314.203 389.743L313.836 389.068C313.804 389.058 313.772 389.049 313.706 389.029C313.218 388.885 312.922 388.391 312.865 388.285C312.796 388.159 312.791 387.998 312.85 387.856L313.269 386.919C313.172 386.589 313.075 386.26 313.015 386.101C312.929 386.093 312.843 386.085 312.757 386.077C312.617 386.072 312.487 386.033 312.397 385.918L311.728 385.19C311.606 385.065 311.568 384.895 311.616 384.732L311.923 383.691L312.323 382.818L311.808 381.87L311.004 381.296C310.916 381.235 310.859 381.129 310.823 381.013L310.525 379.678Z" fill="#C3E0F1"/>
<path d="M316.161 390.179C316.227 390.198 316.42 390.202 316.56 390.208C316.967 390.205 317.429 390.2 317.635 390.579C317.83 390.938 317.716 391.382 317.688 391.479C317.63 391.675 317.463 391.82 317.249 391.827C317.141 391.831 316.831 391.863 316.588 391.968C316.662 392.255 316.593 392.429 316.468 392.552C316.462 392.692 316.504 392.969 316.577 393.203C316.66 393.458 316.497 393.71 316.264 393.783L315.095 394.145C314.882 394.205 314.643 394.117 314.529 393.907L314.07 393.063C314.048 393.021 314.025 392.979 314.023 392.926L313.89 392.179C313.875 392.05 313.923 391.888 314.005 391.788C314.345 391.358 314.776 390.796 314.824 390.633C315.055 389.852 315.869 390.093 316.161 390.179Z" fill="#C3E0F1"/>
</g>
<g filter="url(#filter15_bd_634_8766)">
<g filter="url(#filter16_d_634_8766)">
<circle cx="270.484" cy="473.998" r="7.45913" fill="white" fill-opacity="0.3" shape-rendering="crispEdges"/>
</g>
<g clip-path="url(#clip4_634_8766)">
<path d="M272.447 476.712C272.096 477.056 271.627 477.272 271.036 477.359V478.392H270.087V477.377C269.671 477.346 269.284 477.266 268.928 477.135C268.571 477.004 268.259 476.828 267.992 476.605L268.402 475.73C268.942 476.152 269.526 476.384 270.152 476.428V474.491C269.736 474.386 269.386 474.269 269.1 474.142C268.814 474.015 268.575 473.826 268.383 473.574C268.19 473.323 268.094 472.995 268.094 472.592C268.094 472.257 268.178 471.951 268.345 471.674C268.513 471.398 268.748 471.169 269.048 470.985C269.349 470.802 269.695 470.685 270.086 470.636V469.604H271.036V470.628C271.395 470.671 271.734 470.759 272.051 470.888C272.367 471.019 272.634 471.183 272.852 471.382L272.442 472.257C271.989 471.885 271.498 471.661 270.971 471.586V473.607C271.387 473.712 271.731 473.826 272.004 473.947C272.277 474.068 272.507 474.249 272.694 474.491C272.88 474.734 272.973 475.05 272.973 475.441C272.973 475.944 272.797 476.367 272.446 476.712H272.447ZM269.519 473.053C269.668 473.187 269.879 473.3 270.153 473.393V471.596C269.886 471.652 269.676 471.76 269.524 471.922C269.372 472.083 269.296 472.285 269.296 472.527C269.296 472.744 269.371 472.919 269.519 473.052V473.053ZM271.568 476.07C271.704 475.918 271.772 475.72 271.772 475.479C271.772 475.287 271.704 475.131 271.568 475.013C271.431 474.895 271.232 474.796 270.972 474.715V476.381C271.232 476.325 271.431 476.222 271.568 476.07Z" fill="#D5E0EB"/>
</g>
<circle cx="270.483" cy="473.998" r="6.52339" transform="rotate(-180 270.483 473.998)" stroke="url(#paint15_linear_634_8766)" stroke-opacity="0.4" stroke-width="0.976448"/>
</g>
<g clip-path="url(#clip5_634_8766)">
<rect x="281.93" y="412.822" width="98.7933" height="11.5009" transform="rotate(45 281.93 412.822)" fill="white" fill-opacity="0.12"/>
<rect x="279.334" y="430.344" width="98.7933" height="2.90897" transform="rotate(45 279.334 430.344)" fill="white" fill-opacity="0.12"/>
</g>
<g clip-path="url(#clip6_634_8766)">
<path fill-rule="evenodd" clip-rule="evenodd" d="M325.775 465.265C325.98 465.06 326.315 465.06 326.519 465.265L329.355 468.1C329.56 468.305 329.56 468.64 329.355 468.845C329.15 469.049 328.815 469.049 328.611 468.845L325.775 466.009C325.571 465.805 325.571 465.469 325.775 465.265Z" fill="#0F3A8A"/>
<path fill-rule="evenodd" clip-rule="evenodd" d="M323.467 470.839C323.467 470.55 323.703 470.312 323.993 470.312H328.003C328.293 470.312 328.53 470.55 328.53 470.839C328.53 471.128 328.293 471.366 328.003 471.366H323.993C323.703 471.366 323.467 471.128 323.467 470.839Z" fill="#0F3A8A"/>
<path fill-rule="evenodd" clip-rule="evenodd" d="M325.775 476.411C325.571 476.206 325.571 475.871 325.775 475.666L328.611 472.831C328.815 472.627 329.15 472.627 329.355 472.831C329.56 473.036 329.56 473.37 329.355 473.576L326.519 476.411C326.315 476.616 325.98 476.616 325.775 476.411Z" fill="#0F3A8A"/>
<path fill-rule="evenodd" clip-rule="evenodd" d="M336.921 465.265C337.125 465.469 337.125 465.805 336.921 466.009L334.085 468.845C333.881 469.049 333.546 469.049 333.341 468.845C333.136 468.64 333.136 468.305 333.341 468.1L336.177 465.265C336.381 465.06 336.716 465.06 336.921 465.265Z" fill="#0F3A8A"/>
<path fill-rule="evenodd" clip-rule="evenodd" d="M331.348 462.957C331.637 462.957 331.874 463.194 331.874 463.484V467.493C331.874 467.783 331.637 468.02 331.348 468.02C331.058 468.02 330.821 467.783 330.821 467.493V463.484C330.821 463.194 331.058 462.957 331.348 462.957Z" fill="#0F3A8A"/>
<path fill-rule="evenodd" clip-rule="evenodd" d="M330.976 470.081L341.648 474.759C341.862 474.853 341.885 475.146 341.69 475.273L339.522 476.678L342.422 479.578C342.536 479.692 342.536 479.877 342.422 479.992L340.501 481.912C340.387 482.026 340.201 482.026 340.086 481.912L337.187 479.013L335.782 481.181C335.655 481.378 335.362 481.354 335.268 481.14L330.59 470.467C330.483 470.225 330.733 469.976 330.976 470.082L330.976 470.081Z" fill="#0F3A8A"/>
</g>
<path d="M324.468 427.49C323.064 427.49 321.926 428.629 321.926 430.032C321.926 431.435 323.064 432.574 324.468 432.574C325.871 432.574 327.009 431.435 327.009 430.032C327.009 428.629 325.871 427.49 324.468 427.49ZM325.775 429.418L324.282 430.916C324.235 430.964 324.166 430.996 324.097 430.996C324.028 430.996 323.959 430.969 323.912 430.916L323.16 430.164C323.054 430.058 323.054 429.894 323.16 429.788C323.266 429.682 323.43 429.682 323.536 429.788L324.097 430.35L325.405 429.042C325.511 428.936 325.675 428.936 325.781 429.042C325.881 429.148 325.881 429.312 325.775 429.418L325.775 429.418Z" fill="#AFCDFA"/>
<path d="M300.802 442.863C299.399 442.863 298.261 444.002 298.261 445.405C298.261 446.808 299.399 447.947 300.802 447.947C302.206 447.947 303.344 446.808 303.344 445.405C303.344 444.002 302.206 442.863 300.802 442.863ZM302.11 444.791L300.617 446.289C300.57 446.337 300.501 446.369 300.432 446.369C300.363 446.369 300.294 446.342 300.246 446.289L299.495 445.537C299.389 445.431 299.389 445.267 299.495 445.161C299.6 445.055 299.765 445.055 299.871 445.161L300.432 445.723L301.74 444.415C301.846 444.309 302.01 444.309 302.116 444.415C302.216 444.521 302.216 444.685 302.11 444.791L302.11 444.791Z" fill="#AFCDFA"/>
</g>
<defs>
<filter id="filter0_f_634_8766" x="-59.4808" y="-12.6175" width="858.34" height="285.274" filterUnits="userSpaceOnUse" color-interpolation-filters="sRGB">
<feFlood flood-opacity="0" result="BackgroundImageFix"/>
<feBlend mode="normal" in="SourceGraphic" in2="BackgroundImageFix" result="shape"/>
<feGaussianBlur stdDeviation="8.82243" result="effect1_foregroundBlur_634_8766"/>
</filter>
<filter id="filter1_f_634_8766" x="-96.8356" y="121.681" width="609.802" height="432.009" filterUnits="userSpaceOnUse" color-interpolation-filters="sRGB">
<feFlood flood-opacity="0" result="BackgroundImageFix"/>
<feBlend mode="normal" in="SourceGraphic" in2="BackgroundImageFix" result="shape"/>
<feGaussianBlur stdDeviation="60.7191" result="effect1_foregroundBlur_634_8766"/>
</filter>
<filter id="filter2_f_634_8766" x="105.005" y="-14.1315" width="584.314" height="604.468" filterUnits="userSpaceOnUse" color-interpolation-filters="sRGB">
<feFlood flood-opacity="0" result="BackgroundImageFix"/>
<feBlend mode="normal" in="SourceGraphic" in2="BackgroundImageFix" result="shape"/>
<feGaussianBlur stdDeviation="60.7191" result="effect1_foregroundBlur_634_8766"/>
</filter>
<filter id="filter3_f_634_8766" x="-308.473" y="1.87234" width="600.635" height="575.581" filterUnits="userSpaceOnUse" color-interpolation-filters="sRGB">
<feFlood flood-opacity="0" result="BackgroundImageFix"/>
<feBlend mode="normal" in="SourceGraphic" in2="BackgroundImageFix" result="shape"/>
<feGaussianBlur stdDeviation="82.2562" result="effect1_foregroundBlur_634_8766"/>
</filter>
<filter id="filter4_b_634_8766" x="116.508" y="386.899" width="22.8119" height="22.8119" filterUnits="userSpaceOnUse" color-interpolation-filters="sRGB">
<feFlood flood-opacity="0" result="BackgroundImageFix"/>
<feGaussianBlur in="BackgroundImageFix" stdDeviation="1.03793"/>
<feComposite in2="SourceAlpha" operator="in" result="effect1_backgroundBlur_634_8766"/>
<feBlend mode="normal" in="SourceGraphic" in2="effect1_backgroundBlur_634_8766" result="shape"/>
</filter>
<filter id="filter5_b_634_8766" x="113.768" y="384.159" width="28.2924" height="28.2924" filterUnits="userSpaceOnUse" color-interpolation-filters="sRGB">
<feFlood flood-opacity="0" result="BackgroundImageFix"/>
<feGaussianBlur in="BackgroundImageFix" stdDeviation="1.03793"/>
<feComposite in2="SourceAlpha" operator="in" result="effect1_backgroundBlur_634_8766"/>
<feBlend mode="normal" in="SourceGraphic" in2="effect1_backgroundBlur_634_8766" result="shape"/>
</filter>
<filter id="filter6_bd_634_8766" x="10.2796" y="382.575" width="73.7933" height="95.5399" filterUnits="userSpaceOnUse" color-interpolation-filters="sRGB">
<feFlood flood-opacity="0" result="BackgroundImageFix"/>
<feGaussianBlur in="BackgroundImageFix" stdDeviation="1.03793"/>
<feComposite in2="SourceAlpha" operator="in" result="effect1_backgroundBlur_634_8766"/>
<feColorMatrix in="SourceAlpha" type="matrix" values="0 0 0 0 0 0 0 0 0 0 0 0 0 0 0 0 0 0 127 0" result="hardAlpha"/>
<feOffset dx="9.86037" dy="16.6069"/>
<feGaussianBlur stdDeviation="1.03793"/>
<feComposite in2="hardAlpha" operator="out"/>
<feColorMatrix type="matrix" values="0 0 0 0 0.0319739 0 0 0 0 0.0236979 0 0 0 0 0.4375 0 0 0 0.05 0"/>
<feBlend mode="normal" in2="effect1_backgroundBlur_634_8766" result="effect2_dropShadow_634_8766"/>
<feBlend mode="normal" in="SourceGraphic" in2="effect2_dropShadow_634_8766" result="shape"/>
</filter>
<filter id="filter7_b_634_8766" x="13.2776" y="385.399" width="57.9369" height="73.2845" filterUnits="userSpaceOnUse" color-interpolation-filters="sRGB">
<feFlood flood-opacity="0" result="BackgroundImageFix"/>
<feGaussianBlur in="BackgroundImageFix" stdDeviation="1.03793"/>
<feComposite in2="SourceAlpha" operator="in" result="effect1_backgroundBlur_634_8766"/>
<feBlend mode="normal" in="SourceGraphic" in2="effect1_backgroundBlur_634_8766" result="shape"/>
</filter>
<filter id="filter8_b_634_8766" x="78.8821" y="414.451" width="29.3705" height="54.4174" filterUnits="userSpaceOnUse" color-interpolation-filters="sRGB">
<feFlood flood-opacity="0" result="BackgroundImageFix"/>
<feGaussianBlur in="BackgroundImageFix" stdDeviation="1.03793"/>
<feComposite in2="SourceAlpha" operator="in" result="effect1_backgroundBlur_634_8766"/>
<feBlend mode="normal" in="SourceGraphic" in2="effect1_backgroundBlur_634_8766" result="shape"/>
</filter>
<filter id="filter9_bd_634_8766" x="282.562" y="411.944" width="69.4223" height="89.8805" filterUnits="userSpaceOnUse" color-interpolation-filters="sRGB">
<feFlood flood-opacity="0" result="BackgroundImageFix"/>
<feGaussianBlur in="BackgroundImageFix" stdDeviation="0.976448"/>
<feComposite in2="SourceAlpha" operator="in" result="effect1_backgroundBlur_634_8766"/>
<feColorMatrix in="SourceAlpha" type="matrix" values="0 0 0 0 0 0 0 0 0 0 0 0 0 0 0 0 0 0 127 0" result="hardAlpha"/>
<feOffset dx="9.27626" dy="15.6232"/>
<feGaussianBlur stdDeviation="0.976448"/>
<feComposite in2="hardAlpha" operator="out"/>
<feColorMatrix type="matrix" values="0 0 0 0 0.0319739 0 0 0 0 0.0236979 0 0 0 0 0.4375 0 0 0 0.05 0"/>
<feBlend mode="normal" in2="effect1_backgroundBlur_634_8766" result="effect2_dropShadow_634_8766"/>
<feBlend mode="normal" in="SourceGraphic" in2="effect2_dropShadow_634_8766" result="shape"/>
</filter>
<filter id="filter10_b_634_8766" x="285.382" y="414.6" width="54.5054" height="68.9429" filterUnits="userSpaceOnUse" color-interpolation-filters="sRGB">
<feFlood flood-opacity="0" result="BackgroundImageFix"/>
<feGaussianBlur in="BackgroundImageFix" stdDeviation="0.976448"/>
<feComposite in2="SourceAlpha" operator="in" result="effect1_backgroundBlur_634_8766"/>
<feBlend mode="normal" in="SourceGraphic" in2="effect1_backgroundBlur_634_8766" result="shape"/>
</filter>
<filter id="filter11_b_634_8766" x="242.401" y="451.496" width="26.7202" height="26.7202" filterUnits="userSpaceOnUse" color-interpolation-filters="sRGB">
<feFlood flood-opacity="0" result="BackgroundImageFix"/>
<feGaussianBlur in="BackgroundImageFix" stdDeviation="0.976448"/>
<feComposite in2="SourceAlpha" operator="in" result="effect1_backgroundBlur_634_8766"/>
<feBlend mode="normal" in="SourceGraphic" in2="effect1_backgroundBlur_634_8766" result="shape"/>
</filter>
<filter id="filter12_b_634_8766" x="300.197" y="377.658" width="21.4605" height="21.4605" filterUnits="userSpaceOnUse" color-interpolation-filters="sRGB">
<feFlood flood-opacity="0" result="BackgroundImageFix"/>
<feGaussianBlur in="BackgroundImageFix" stdDeviation="0.976448"/>
<feComposite in2="SourceAlpha" operator="in" result="effect1_backgroundBlur_634_8766"/>
<feBlend mode="normal" in="SourceGraphic" in2="effect1_backgroundBlur_634_8766" result="shape"/>
</filter>
<filter id="filter13_b_634_8766" x="297.619" y="375.08" width="26.6167" height="26.6167" filterUnits="userSpaceOnUse" color-interpolation-filters="sRGB">
<feFlood flood-opacity="0" result="BackgroundImageFix"/>
<feGaussianBlur in="BackgroundImageFix" stdDeviation="0.976448"/>
<feComposite in2="SourceAlpha" operator="in" result="effect1_backgroundBlur_634_8766"/>
<feBlend mode="normal" in="SourceGraphic" in2="effect1_backgroundBlur_634_8766" result="shape"/>
</filter>
<filter id="filter14_d_634_8766" x="283.895" y="367.885" width="60.5957" height="60.5947" filterUnits="userSpaceOnUse" color-interpolation-filters="sRGB">
<feFlood flood-opacity="0" result="BackgroundImageFix"/>
<feColorMatrix in="SourceAlpha" type="matrix" values="0 0 0 0 0 0 0 0 0 0 0 0 0 0 0 0 0 0 127 0" result="hardAlpha"/>
<feOffset dx="3.26534" dy="9.79603"/>
<feGaussianBlur stdDeviation="10.7756"/>
<feColorMatrix type="matrix" values="0 0 0 0 0.237639 0 0 0 0 0.2478 0 0 0 0 0.491667 0 0 0 0.18 0"/>
<feBlend mode="normal" in2="BackgroundImageFix" result="effect1_dropShadow_634_8766"/>
<feBlend mode="normal" in="SourceGraphic" in2="effect1_dropShadow_634_8766" result="shape"/>
</filter>
<filter id="filter15_bd_634_8766" x="261.072" y="464.586" width="18.8238" height="20.7767" filterUnits="userSpaceOnUse" color-interpolation-filters="sRGB">
<feFlood flood-opacity="0" result="BackgroundImageFix"/>
<feGaussianBlur in="BackgroundImageFix" stdDeviation="0.976448"/>
<feComposite in2="SourceAlpha" operator="in" result="effect1_backgroundBlur_634_8766"/>
<feColorMatrix in="SourceAlpha" type="matrix" values="0 0 0 0 0 0 0 0 0 0 0 0 0 0 0 0 0 0 127 0" result="hardAlpha"/>
<feOffset dy="1.9529"/>
<feGaussianBlur stdDeviation="0.976448"/>
<feComposite in2="hardAlpha" operator="out"/>
<feColorMatrix type="matrix" values="0 0 0 0 0.0762847 0 0 0 0 0.139073 0 0 0 0 0.704167 0 0 0 0.13 0"/>
<feBlend mode="normal" in2="effect1_backgroundBlur_634_8766" result="effect2_dropShadow_634_8766"/>
<feBlend mode="normal" in="SourceGraphic" in2="effect2_dropShadow_634_8766" result="shape"/>
</filter>
<filter id="filter16_d_634_8766" x="258.142" y="465.563" width="24.6825" height="24.6825" filterUnits="userSpaceOnUse" color-interpolation-filters="sRGB">
<feFlood flood-opacity="0" result="BackgroundImageFix"/>
<feColorMatrix in="SourceAlpha" type="matrix" values="0 0 0 0 0 0 0 0 0 0 0 0 0 0 0 0 0 0 127 0" result="hardAlpha"/>
<feOffset dy="3.90579"/>
<feGaussianBlur stdDeviation="2.44112"/>
<feComposite in2="hardAlpha" operator="out"/>
<feColorMatrix type="matrix" values="0 0 0 0 0.239216 0 0 0 0 0.247059 0 0 0 0 0.490196 0 0 0 0.18 0"/>
<feBlend mode="normal" in2="BackgroundImageFix" result="effect1_dropShadow_634_8766"/>
<feBlend mode="normal" in="SourceGraphic" in2="effect1_dropShadow_634_8766" result="shape"/>
</filter>
<linearGradient id="paint0_linear_634_8766" x1="221.234" y1="296.975" x2="221.234" y2="534.66" gradientUnits="userSpaceOnUse">
<stop offset="0.453125" stop-color="#3C46F4" stop-opacity="0"/>
<stop offset="0.71875" stop-color="#94CAFB" stop-opacity="0.91"/>
</linearGradient>
<linearGradient id="paint1_linear_634_8766" x1="127.914" y1="388.975" x2="127.914" y2="407.635" gradientUnits="userSpaceOnUse">
<stop stop-color="#FB967C"/>
<stop offset="1" stop-color="#36A8DB"/>
</linearGradient>
<linearGradient id="paint2_linear_634_8766" x1="127.914" y1="386.234" x2="127.914" y2="410.375" gradientUnits="userSpaceOnUse">
<stop stop-color="#E0998A"/>
<stop offset="1" stop-color="#43A7D5" stop-opacity="0"/>
</linearGradient>
<linearGradient id="paint3_linear_634_8766" x1="42.2463" y1="384.65" x2="42.2463" y2="459.431" gradientUnits="userSpaceOnUse">
<stop stop-color="#8CB2EF"/>
<stop offset="1" stop-color="#4583E9" stop-opacity="0.13"/>
</linearGradient>
<linearGradient id="paint4_linear_634_8766" x1="42.2463" y1="384.65" x2="42.2463" y2="459.431" gradientUnits="userSpaceOnUse">
<stop stop-color="white" stop-opacity="0.69"/>
<stop offset="1" stop-color="white" stop-opacity="0"/>
</linearGradient>
<linearGradient id="paint5_linear_634_8766" x1="42.2461" y1="387.475" x2="42.2461" y2="456.608" gradientUnits="userSpaceOnUse">
<stop stop-color="#B6D2FF"/>
<stop offset="1" stop-color="#D9E7FF" stop-opacity="0.13"/>
</linearGradient>
<linearGradient id="paint6_linear_634_8766" x1="93.5672" y1="416.527" x2="93.5672" y2="466.792" gradientUnits="userSpaceOnUse">
<stop stop-color="#B6D2FF"/>
<stop offset="1" stop-color="#D9E7FF" stop-opacity="0.13"/>
</linearGradient>
<radialGradient id="paint7_radial_634_8766" cx="0" cy="0" r="1" gradientUnits="userSpaceOnUse" gradientTransform="translate(254.855 465.704) scale(22.2239)">
<stop stop-color="#F39781"/>
<stop offset="1" stop-color="#8BBFF2" stop-opacity="0"/>
</radialGradient>
<linearGradient id="paint8_linear_634_8766" x1="312.635" y1="413.896" x2="312.635" y2="484.247" gradientUnits="userSpaceOnUse">
<stop stop-color="#8CB2EF"/>
<stop offset="1" stop-color="#4583E9" stop-opacity="0.13"/>
</linearGradient>
<linearGradient id="paint9_linear_634_8766" x1="312.635" y1="413.896" x2="312.635" y2="484.247" gradientUnits="userSpaceOnUse">
<stop stop-color="white" stop-opacity="0.69"/>
<stop offset="1" stop-color="white" stop-opacity="0"/>
</linearGradient>
<linearGradient id="paint10_linear_634_8766" x1="312.635" y1="416.553" x2="312.635" y2="481.59" gradientUnits="userSpaceOnUse">
<stop stop-color="#B6D2FF"/>
<stop offset="1" stop-color="#D9E7FF" stop-opacity="0.13"/>
</linearGradient>
<linearGradient id="paint11_linear_634_8766" x1="255.761" y1="453.449" x2="255.761" y2="476.263" gradientUnits="userSpaceOnUse">
<stop stop-color="#F7977F"/>
<stop offset="1" stop-color="#F5FFB7" stop-opacity="0.08"/>
</linearGradient>
<linearGradient id="paint12_linear_634_8766" x1="310.928" y1="379.611" x2="310.928" y2="397.166" gradientUnits="userSpaceOnUse">
<stop stop-color="#FB967C"/>
<stop offset="1" stop-color="#36A8DB"/>
</linearGradient>
<linearGradient id="paint13_linear_634_8766" x1="310.928" y1="377.033" x2="310.928" y2="399.744" gradientUnits="userSpaceOnUse">
<stop stop-color="#E0998A"/>
<stop offset="1" stop-color="#43A7D5" stop-opacity="0"/>
</linearGradient>
<linearGradient id="paint14_linear_634_8766" x1="349.203" y1="367.051" x2="349.203" y2="409.204" gradientUnits="userSpaceOnUse">
<stop stop-color="#AECDFF"/>
<stop offset="1" stop-color="#D9E7FF" stop-opacity="0.36"/>
</linearGradient>
<linearGradient id="paint15_linear_634_8766" x1="270.483" y1="466.987" x2="270.483" y2="481.01" gradientUnits="userSpaceOnUse">
<stop stop-color="#EAEEF6"/>
<stop offset="1" stop-color="#EAEEF6" stop-opacity="0"/>
</linearGradient>
<clipPath id="clip0_634_8766">
<rect width="393" height="508" fill="white" transform="translate(0 0.417969)"/>
</clipPath>
<clipPath id="clip1_634_8766">
<rect x="15.6846" y="388.621" width="53.4536" height="67.9846" rx="1.03793" fill="white"/>
</clipPath>
<clipPath id="clip2_634_8766">
<rect width="24.9104" height="50.3398" fill="white" transform="translate(81.2666 416.527)"/>
</clipPath>
<clipPath id="clip3_634_8766">
<rect width="15.301" height="17.4901" fill="white" transform="translate(306.806 399.115) rotate(-118.531)"/>
</clipPath>
<clipPath id="clip4_634_8766">
<rect width="4.98066" height="8.78894" fill="white" transform="translate(267.992 469.604)"/>
</clipPath>
<clipPath id="clip5_634_8766">
<rect x="287.648" y="417.344" width="50.2871" height="63.9574" rx="0.976448" fill="white"/>
</clipPath>
<clipPath id="clip6_634_8766">
<rect width="19.0407" height="19.0407" fill="white" transform="translate(323.468 462.955)"/>
</clipPath>
</defs>
</svg>
