<svg width="393" height="509" viewBox="0 0 393 509" fill="none" xmlns="http://www.w3.org/2000/svg">
<g clip-path="url(#clip0_634_8563)">
<rect width="393" height="508" transform="translate(0 0.417969)" fill="white"/>
<path d="M-64.8585 535.826L-64.8594 0.570312H507.328V501.722C471.688 509.262 385.284 524.342 324.675 524.342C248.913 524.342 173.731 507.638 100.26 507.638C26.7892 507.638 -34.3093 526.43 -64.8585 535.826Z" fill="#164B9F"/>
<rect opacity="0.8" x="68.3672" y="94.8242" width="28.8145" height="54.0273" rx="3.63277" fill="#D9D9D9" fill-opacity="0.33"/>
<g filter="url(#filter0_f_634_8563)">
<rect x="-41.8359" y="6.19336" width="823.05" height="249.984" fill="#143D95"/>
</g>
<rect opacity="0.8" x="88.293" y="428.562" width="28.8145" height="54.0273" rx="3.63277" fill="white" fill-opacity="0.12"/>
<g filter="url(#filter1_f_634_8563)">
<rect x="42.7812" y="230.363" width="375.462" height="124.026" rx="62.013" transform="rotate(15 42.7812 230.363)" fill="#FF6332" fill-opacity="0.74"/>
</g>
<path d="M13.9053 294.594V509.572" stroke="#64B2C4" stroke-opacity="0.18" stroke-width="0.518967"/>
<path d="M391.374 306.041L-17.9376 306.041" stroke="#64B2C4" stroke-opacity="0.18" stroke-width="0.518967"/>
<path d="M391.374 321.117L-17.9376 321.117" stroke="#64B2C4" stroke-opacity="0.18" stroke-width="0.518967"/>
<path d="M391.374 336.193L-17.9376 336.193" stroke="#64B2C4" stroke-opacity="0.18" stroke-width="0.518967"/>
<path d="M391.374 351.27L-17.9376 351.27" stroke="#64B2C4" stroke-opacity="0.18" stroke-width="0.518967"/>
<path d="M391.374 366.346L-17.9376 366.346" stroke="#64B2C4" stroke-opacity="0.18" stroke-width="0.518967"/>
<path d="M391.374 381.422L-17.9376 381.422" stroke="#64B2C4" stroke-opacity="0.18" stroke-width="0.518967"/>
<path d="M391.374 396.498L-17.9376 396.498" stroke="#64B2C4" stroke-opacity="0.18" stroke-width="0.518967"/>
<path d="M391.374 411.574L-17.9376 411.574" stroke="#64B2C4" stroke-opacity="0.18" stroke-width="0.518967"/>
<path d="M391.374 426.652L-17.9376 426.652" stroke="#64B2C4" stroke-opacity="0.18" stroke-width="0.518967"/>
<path d="M391.374 441.729L-17.9376 441.728" stroke="#64B2C4" stroke-opacity="0.18" stroke-width="0.518967"/>
<path d="M391.374 456.805L-17.9376 456.805" stroke="#64B2C4" stroke-opacity="0.18" stroke-width="0.518967"/>
<path d="M391.374 471.881L-17.9376 471.881" stroke="#64B2C4" stroke-opacity="0.18" stroke-width="0.518967"/>
<path d="M391.374 486.957L-17.9376 486.957" stroke="#64B2C4" stroke-opacity="0.18" stroke-width="0.518967"/>
<path d="M391.374 502.033L-17.9376 502.033" stroke="#64B2C4" stroke-opacity="0.18" stroke-width="0.518967"/>
<path d="M28.4229 294.594V509.572" stroke="#64B2C4" stroke-opacity="0.18" stroke-width="0.518967"/>
<path d="M42.9404 294.594V509.572" stroke="#64B2C4" stroke-opacity="0.18" stroke-width="0.518967"/>
<path d="M57.459 294.594V509.572" stroke="#64B2C4" stroke-opacity="0.18" stroke-width="0.518967"/>
<path d="M71.9766 294.594V509.572" stroke="#64B2C4" stroke-opacity="0.18" stroke-width="0.518967"/>
<path d="M86.4941 294.594V509.572" stroke="#64B2C4" stroke-opacity="0.18" stroke-width="0.518967"/>
<path d="M101.014 294.594V509.572" stroke="#64B2C4" stroke-opacity="0.18" stroke-width="0.518967"/>
<path d="M115.531 294.594V509.572" stroke="#64B2C4" stroke-opacity="0.18" stroke-width="0.518967"/>
<path d="M130.049 294.594V509.572" stroke="#64B2C4" stroke-opacity="0.18" stroke-width="0.518967"/>
<path d="M144.567 294.594V509.572" stroke="#64B2C4" stroke-opacity="0.18" stroke-width="0.518967"/>
<path d="M159.085 294.594V509.572" stroke="#64B2C4" stroke-opacity="0.18" stroke-width="0.518967"/>
<path d="M173.604 294.594V509.572" stroke="#64B2C4" stroke-opacity="0.18" stroke-width="0.518967"/>
<path d="M188.122 294.594V509.572" stroke="#64B2C4" stroke-opacity="0.18" stroke-width="0.518967"/>
<path d="M202.64 294.594V509.572" stroke="#64B2C4" stroke-opacity="0.18" stroke-width="0.518967"/>
<path d="M217.157 294.594V509.572" stroke="#64B2C4" stroke-opacity="0.18" stroke-width="0.518967"/>
<path d="M231.676 294.594V509.572" stroke="#64B2C4" stroke-opacity="0.18" stroke-width="0.518967"/>
<path d="M246.194 294.594V509.572" stroke="#64B2C4" stroke-opacity="0.18" stroke-width="0.518967"/>
<path d="M260.712 294.594V509.572" stroke="#64B2C4" stroke-opacity="0.18" stroke-width="0.518967"/>
<path d="M275.23 294.594V509.572" stroke="#64B2C4" stroke-opacity="0.18" stroke-width="0.518967"/>
<path d="M289.748 294.594V509.572" stroke="#64B2C4" stroke-opacity="0.18" stroke-width="0.518967"/>
<path d="M304.266 294.594V509.572" stroke="#64B2C4" stroke-opacity="0.18" stroke-width="0.518967"/>
<path d="M318.783 294.594V509.572" stroke="#64B2C4" stroke-opacity="0.18" stroke-width="0.518967"/>
<path d="M333.303 294.594V509.572" stroke="#64B2C4" stroke-opacity="0.18" stroke-width="0.518967"/>
<path d="M347.82 294.594V509.572" stroke="#64B2C4" stroke-opacity="0.18" stroke-width="0.518967"/>
<path d="M362.338 294.594V509.572" stroke="#64B2C4" stroke-opacity="0.18" stroke-width="0.518967"/>
<path d="M376.856 294.594V509.572" stroke="#64B2C4" stroke-opacity="0.18" stroke-width="0.518967"/>
<g filter="url(#filter2_f_634_8563)">
<rect x="304.416" y="108.473" width="272.759" height="301.262" transform="rotate(15 304.416 108.473)" fill="#0A2963"/>
</g>
<g filter="url(#filter3_f_634_8563)">
<rect x="-109.176" y="140.91" width="272.759" height="237.329" rx="118.664" transform="rotate(15 -109.176 140.91)" fill="#16C7FF" fill-opacity="0.56"/>
</g>
<path d="M-64.8594 535.826L-74.8223 -259.369L507.328 25.6895V501.721C471.687 509.261 385.283 524.342 324.674 524.342C248.912 524.342 173.73 515.411 100.259 515.411C26.7883 515.411 -34.3102 526.43 -64.8594 535.826Z" fill="url(#paint0_linear_634_8563)"/>
<path d="M144.834 489.042C145.27 487.511 146.473 486.317 148.008 485.893L148.485 485.761L148.008 485.629H148.008C146.473 485.205 145.27 484.011 144.834 482.48L144.697 482.004L144.561 482.48C144.125 484.011 142.922 485.205 141.387 485.629L140.91 485.761L141.386 485.893H141.387C142.922 486.317 144.125 487.511 144.561 489.042L144.697 489.518L144.834 489.042Z" fill="#9AC1FF" fill-opacity="0.32"/>
<path d="M133.452 386.8C133.565 386.403 133.877 386.094 134.274 385.984L134.398 385.95L134.275 385.916H134.274C133.877 385.806 133.565 385.497 133.452 385.1L133.417 384.977L133.381 385.1C133.268 385.497 132.957 385.806 132.559 385.916L132.436 385.95L132.559 385.984H132.559C132.957 386.094 133.268 386.403 133.381 386.8L133.417 386.923L133.452 386.8Z" fill="#FFF2AE" fill-opacity="0.84"/>
<g filter="url(#filter4_b_634_8563)">
<circle cx="127.914" cy="399.469" r="9.33014" fill="url(#paint1_linear_634_8563)"/>
</g>
<g filter="url(#filter5_b_634_8563)">
<circle cx="127.914" cy="399.469" r="11.8109" stroke="url(#paint2_linear_634_8563)" stroke-width="0.518967"/>
</g>
<path d="M130.712 396.795C130.74 396.513 130.74 396.258 130.74 395.947H125.09C125.09 396.258 125.09 396.513 125.118 396.795H123.395V397.077C123.395 399.592 126.587 401.372 127.35 401.767L127.35 402.728C127.35 403.208 126.982 403.576 126.502 403.576H125.937V404.705H129.892V403.576H129.327C128.847 403.576 128.48 403.208 128.48 402.728V401.768C129.242 401.372 132.435 399.592 132.435 397.078V396.795L130.712 396.795ZM123.988 397.36H125.174C125.287 398.631 125.598 399.536 125.937 400.185C125.033 399.479 124.101 398.49 123.988 397.36ZM129.921 400.185C130.26 399.535 130.571 398.631 130.684 397.36H131.87C131.729 398.49 130.797 399.479 129.921 400.185Z" fill="white" fill-opacity="0.69"/>
<g filter="url(#filter6_bd_634_8563)">
<rect x="12.3555" y="385.816" width="59.7817" height="74.7806" rx="3.63277" fill="url(#paint3_linear_634_8563)" shape-rendering="crispEdges"/>
<rect x="12.4852" y="385.946" width="59.5222" height="74.5211" rx="3.50302" stroke="url(#paint4_linear_634_8563)" stroke-width="0.259483" shape-rendering="crispEdges"/>
</g>
<g filter="url(#filter7_b_634_8563)">
<rect x="15.3535" y="388.641" width="53.7853" height="69.133" rx="1.03793" fill="url(#paint5_linear_634_8563)"/>
</g>
<rect x="26.2363" y="425.967" width="35.3585" height="1.99737" rx="0.998685" fill="#133F84" fill-opacity="0.49"/>
<rect x="21.8535" y="425.967" width="2.0197" height="1.99737" rx="0.998685" fill="#133F84" fill-opacity="0.49"/>
<rect x="26.2363" y="432.494" width="35.3585" height="1.99737" rx="0.998685" fill="#133F84" fill-opacity="0.49"/>
<rect x="21.8535" y="432.494" width="2.0197" height="1.99737" rx="0.998685" fill="#133F84" fill-opacity="0.49"/>
<rect x="26.2363" y="439.02" width="35.3585" height="1.99737" rx="0.998685" fill="#133F84" fill-opacity="0.49"/>
<rect x="21.8535" y="439.02" width="2.0197" height="1.99737" rx="0.998685" fill="#133F84" fill-opacity="0.49"/>
<g clip-path="url(#clip1_634_8563)">
<rect x="9.60449" y="384.979" width="105.014" height="12.2251" transform="rotate(45 9.60449 384.979)" fill="white" fill-opacity="0.12"/>
<rect x="6.84473" y="403.605" width="105.014" height="3.09214" transform="rotate(45 6.84473 403.605)" fill="white" fill-opacity="0.12"/>
</g>
<rect x="21.8545" y="400.762" width="10.4077" height="13.9074" rx="1.03793" fill="#6487C0"/>
<rect x="37.042" y="400.762" width="10.4077" height="13.9074" rx="1.03793" fill="#6487C0"/>
<rect x="52.2324" y="400.762" width="10.4077" height="13.9074" rx="1.03793" fill="#6487C0"/>
<path d="M93.5685 414.798L95.0666 412.203H92.0703L93.5685 414.798ZM41.8571 385.882V381.828H41.3382V385.882H41.8571ZM45.7494 377.935H89.4167V377.416H45.7494V377.935ZM93.309 381.828V412.462H93.8279V381.828H93.309ZM89.4167 377.935C91.5664 377.935 93.309 379.678 93.309 381.828H93.8279C93.8279 379.391 91.853 377.416 89.4167 377.416V377.935ZM41.8571 381.828C41.8571 379.678 43.5998 377.935 45.7494 377.935V377.416C43.3131 377.416 41.3382 379.391 41.3382 381.828H41.8571Z" fill="white" fill-opacity="0.3"/>
<rect x="79.1602" y="415.812" width="28.8145" height="54.0273" rx="3.63277" fill="#6895E0" fill-opacity="0.74"/>
<g filter="url(#filter8_b_634_8563)">
<rect x="80.958" y="417.693" width="25.2184" height="50.2648" rx="1.03793" fill="url(#paint6_linear_634_8563)"/>
</g>
<path d="M85.797 440.766C84.6599 440.766 83.7373 441.688 83.7373 442.825C83.7373 443.962 84.6599 444.885 85.797 444.885C86.9341 444.885 87.8566 443.962 87.8566 442.825C87.8566 441.688 86.9341 440.766 85.797 440.766ZM86.8568 442.327L85.6468 443.542C85.6082 443.58 85.5524 443.606 85.4966 443.606C85.4408 443.606 85.385 443.585 85.3464 443.542L84.7371 442.933C84.6513 442.847 84.6513 442.714 84.7371 442.628C84.823 442.542 84.956 442.542 85.0419 442.628L85.4968 443.083L86.5566 442.023C86.6424 441.937 86.7755 441.937 86.8613 442.023C86.9426 442.109 86.9426 442.242 86.8568 442.327L86.8568 442.327Z" fill="#5A7FBC"/>
<path d="M85.797 447.768C84.6599 447.768 83.7373 448.69 83.7373 449.827C83.7373 450.964 84.6599 451.887 85.797 451.887C86.9341 451.887 87.8566 450.964 87.8566 449.827C87.8566 448.69 86.9341 447.768 85.797 447.768ZM86.8568 449.329L85.6468 450.544C85.6082 450.582 85.5524 450.608 85.4966 450.608C85.4408 450.608 85.385 450.587 85.3464 450.544L84.7371 449.935C84.6513 449.849 84.6513 449.716 84.7371 449.63C84.823 449.544 84.956 449.544 85.0419 449.63L85.4968 450.085L86.5566 449.025C86.6424 448.939 86.7755 448.939 86.8613 449.025C86.9426 449.111 86.9426 449.244 86.8568 449.329L86.8568 449.329Z" fill="#5A7FBC"/>
<path d="M85.797 454.768C84.6599 454.768 83.7373 455.69 83.7373 456.827C83.7373 457.964 84.6599 458.887 85.797 458.887C86.9341 458.887 87.8566 457.964 87.8566 456.827C87.8566 455.69 86.9341 454.768 85.797 454.768ZM86.8568 456.329L85.6468 457.544C85.6082 457.582 85.5524 457.608 85.4966 457.608C85.4408 457.608 85.385 457.587 85.3464 457.544L84.7371 456.935C84.6513 456.849 84.6513 456.716 84.7371 456.63C84.823 456.544 84.956 456.544 85.0419 456.63L85.4968 457.085L86.5566 456.025C86.6424 455.939 86.7755 455.939 86.8613 456.025C86.9426 456.111 86.9426 456.244 86.8568 456.329L86.8568 456.329Z" fill="#5A7FBC"/>
<rect x="83.7373" y="423.396" width="8.53302" height="12.4042" rx="1.03793" fill="#4D7BC7" fill-opacity="0.69"/>
<rect x="94.8652" y="423.396" width="8.53302" height="12.4042" rx="1.03793" fill="#4D7BC7" fill-opacity="0.69"/>
<rect x="90.2959" y="442.105" width="13.1019" height="1.4409" rx="0.72045" fill="#133F84" fill-opacity="0.35"/>
<rect x="90.2959" y="449.105" width="13.1019" height="1.4409" rx="0.72045" fill="#133F84" fill-opacity="0.35"/>
<rect x="90.2959" y="456.107" width="13.1019" height="1.4409" rx="0.72045" fill="#133F84" fill-opacity="0.35"/>
<g opacity="0.75" clip-path="url(#clip2_634_8563)">
<rect x="60.915" y="398.49" width="105.014" height="12.2251" transform="rotate(45 60.915 398.49)" fill="white" fill-opacity="0.12"/>
<rect x="58.1562" y="417.115" width="105.014" height="3.09214" transform="rotate(45 58.1562 417.115)" fill="white" fill-opacity="0.12"/>
</g>
<g filter="url(#filter9_b_634_8563)">
<rect x="351.587" y="388.133" width="33.7637" height="43.5681" rx="1.86593" fill="#2E5FBC" fill-opacity="0.11"/>
</g>
<g filter="url(#filter10_b_634_8563)">
<rect x="343.877" y="375.945" width="36.1551" height="48.3842" rx="2.48791" fill="url(#paint7_linear_634_8563)" fill-opacity="0.8"/>
</g>
<rect x="348.206" y="382.965" width="27.4944" height="2.72392" rx="0.263698" stroke="#AED3E8" stroke-width="0.527395"/>
<rect x="348.206" y="389.893" width="27.4944" height="2.72392" rx="0.263698" stroke="#AED3E8" stroke-width="0.527395"/>
<rect x="348.206" y="396.818" width="27.4944" height="2.72392" rx="0.263698" stroke="#AED3E8" stroke-width="0.527395"/>
<rect x="348.206" y="403.746" width="27.4944" height="2.72392" rx="0.263698" stroke="#AED3E8" stroke-width="0.527395"/>
<path d="M371.652 410.408C370.02 410.408 368.692 411.736 368.692 413.367C368.692 413.695 368.957 413.959 369.284 413.959C369.611 413.959 369.876 413.695 369.876 413.367C369.876 412.388 370.673 411.592 371.652 411.592C372.631 411.592 373.427 412.388 373.427 413.367C373.427 414.347 372.631 415.143 371.652 415.143C371.324 415.143 371.06 415.408 371.06 415.735V417.214C371.06 417.542 371.324 417.806 371.652 417.806C371.979 417.806 372.243 417.542 372.243 417.214V416.267C373.592 415.992 374.611 414.796 374.611 413.367C374.611 411.736 373.283 410.408 371.652 410.408Z" fill="#AED3E8"/>
<path d="M372.243 419.285C372.243 420.074 371.06 420.074 371.06 419.285C371.06 418.496 372.243 418.496 372.243 419.285Z" fill="#AED3E8"/>
<g filter="url(#filter11_b_634_8563)">
<rect x="259.97" y="404.271" width="35.6969" height="22.3158" rx="1.24396" fill="url(#paint8_linear_634_8563)"/>
</g>
<path d="M260.884 405.525L276.92 420.834C277.422 421.314 278.212 421.314 278.714 420.834L294.751 405.525" stroke="white" stroke-opacity="0.3" stroke-width="0.64968"/>
<path d="M260.812 425.647L271.271 416.119" stroke="white" stroke-opacity="0.3" stroke-width="0.64968"/>
<path d="M294.75 425.647L284.292 416.119" stroke="white" stroke-opacity="0.3" stroke-width="0.64968"/>
<path d="M278.02 415.687C277.35 415.687 276.756 415.596 276.237 415.412C275.721 415.23 275.285 414.963 274.931 414.608C274.577 414.256 274.308 413.824 274.124 413.312C273.94 412.8 273.849 412.215 273.849 411.559C273.849 410.919 273.942 410.344 274.127 409.834C274.313 409.324 274.583 408.89 274.938 408.532C275.294 408.171 275.727 407.895 276.237 407.705C276.747 407.515 277.326 407.42 277.974 407.42C278.594 407.42 279.141 407.517 279.614 407.712C280.087 407.906 280.485 408.173 280.807 408.512C281.131 408.851 281.375 409.24 281.539 409.679C281.703 410.117 281.786 410.581 281.786 411.069C281.786 411.411 281.764 411.744 281.721 412.071C281.678 412.395 281.598 412.689 281.481 412.952C281.366 413.214 281.2 413.423 280.982 413.581C280.766 413.736 280.485 413.817 280.139 413.824C279.956 413.83 279.777 413.809 279.604 413.759C279.432 413.709 279.285 413.629 279.164 413.519C279.043 413.407 278.969 413.264 278.943 413.091H278.904C278.853 413.219 278.766 413.338 278.645 413.448C278.524 413.556 278.37 413.642 278.182 413.707C277.996 413.77 277.78 413.796 277.534 413.785C277.261 413.774 277.016 413.713 276.798 413.6C276.58 413.488 276.393 413.332 276.237 413.134C276.084 412.935 275.966 412.699 275.884 412.427C275.802 412.155 275.761 411.852 275.761 411.52C275.761 411.2 275.807 410.914 275.9 410.661C275.993 410.406 276.119 410.187 276.279 410.003C276.441 409.817 276.627 409.67 276.837 409.562C277.046 409.454 277.268 409.386 277.501 409.358C277.728 409.332 277.936 409.339 278.127 409.377C278.317 409.416 278.474 409.476 278.6 409.556C278.727 409.636 278.807 409.723 278.84 409.818H278.882V409.455H279.679V412.463C279.679 412.633 279.723 412.778 279.812 412.897C279.903 413.016 280.031 413.075 280.198 413.075C280.394 413.075 280.548 413.003 280.658 412.858C280.77 412.713 280.849 412.491 280.894 412.191C280.942 411.89 280.966 411.506 280.966 411.037C280.966 410.708 280.921 410.399 280.833 410.11C280.746 409.818 280.618 409.555 280.447 409.319C280.279 409.081 280.071 408.877 279.825 408.707C279.579 408.536 279.298 408.404 278.982 408.311C278.669 408.218 278.322 408.172 277.942 408.172C277.425 408.172 276.966 408.252 276.564 408.412C276.163 408.569 275.823 408.797 275.547 409.095C275.272 409.394 275.064 409.751 274.921 410.168C274.781 410.583 274.711 411.049 274.711 411.565C274.711 412.103 274.783 412.58 274.928 412.997C275.073 413.412 275.287 413.762 275.57 414.048C275.853 414.333 276.203 414.549 276.62 414.696C277.037 414.845 277.517 414.919 278.062 414.919C278.304 414.919 278.541 414.898 278.775 414.855C279.008 414.813 279.216 414.766 279.397 414.712C279.581 414.66 279.718 414.618 279.809 414.586L280.035 415.295C279.902 415.358 279.723 415.42 279.501 415.48C279.28 415.541 279.041 415.59 278.781 415.629C278.524 415.668 278.27 415.687 278.02 415.687ZM277.721 412.991C278.002 412.991 278.228 412.935 278.399 412.822C278.572 412.71 278.696 412.543 278.772 412.32C278.849 412.095 278.888 411.815 278.888 411.478C278.886 411.149 278.844 410.888 278.762 410.693C278.682 410.497 278.557 410.356 278.386 410.272C278.217 410.185 278 410.142 277.734 410.142C277.49 410.142 277.282 410.202 277.109 410.321C276.938 410.439 276.808 410.6 276.717 410.803C276.628 411.007 276.583 411.232 276.581 411.481C276.583 411.742 276.62 411.988 276.691 412.22C276.764 412.449 276.883 412.635 277.047 412.777C277.214 412.92 277.438 412.991 277.721 412.991Z" fill="white" fill-opacity="0.66"/>
<g filter="url(#filter12_b_634_8563)">
<circle cx="293.516" cy="403.986" r="7.56625" fill="#FA8316" fill-opacity="0.51"/>
<circle cx="293.516" cy="403.986" r="7.41076" stroke="url(#paint9_linear_634_8563)" stroke-width="0.310989"/>
</g>
<path d="M294.025 400.673L293.944 405.185H293.088L293.007 400.673H294.025ZM293.517 407.065C293.346 407.065 293.2 407.005 293.078 406.885C292.957 406.764 292.897 406.617 292.899 406.446C292.897 406.277 292.957 406.133 293.078 406.013C293.2 405.892 293.346 405.831 293.517 405.831C293.684 405.831 293.829 405.892 293.95 406.013C294.072 406.133 294.134 406.277 294.136 406.446C294.134 406.56 294.104 406.664 294.046 406.758C293.991 406.851 293.916 406.925 293.824 406.981C293.731 407.037 293.629 407.065 293.517 407.065Z" fill="#E9DDC7"/>
<path d="M258.164 415.686L255.054 413.89V417.481L258.164 415.686ZM254.375 415.375H251.849V415.997H254.375V415.375ZM249.323 415.375H248.06V415.997H249.323V415.375ZM248.06 415.375C247.766 415.375 247.484 415.433 247.227 415.54L247.465 416.114C247.648 416.039 247.849 415.997 248.06 415.997V415.375ZM246.049 416.718C245.942 416.975 245.883 417.257 245.883 417.551H246.505C246.505 417.34 246.547 417.139 246.623 416.956L246.049 416.718ZM245.883 417.551V418.839H246.505V417.551H245.883ZM245.883 421.413V423.987H246.505V421.413H245.883ZM245.883 426.562V429.136H246.505V426.562H245.883ZM245.883 431.711V434.285H246.505V431.711H245.883ZM245.883 436.859V439.434H246.505V436.859H245.883ZM245.883 442.008V444.583H246.505V442.008H245.883ZM245.883 447.157V449.731H246.505V447.157H245.883ZM245.883 452.306V454.88H246.505V452.306H245.883ZM245.883 457.455V460.029H246.505V457.455H245.883ZM245.883 462.603V463.89H246.505V462.603H245.883ZM245.883 463.89C245.883 464.243 245.918 464.588 245.984 464.922L246.594 464.801C246.536 464.507 246.505 464.202 246.505 463.89H245.883ZM246.774 466.828C247.16 467.405 247.656 467.901 248.233 468.287L248.579 467.77C248.07 467.429 247.632 466.991 247.291 466.482L246.774 466.828ZM250.139 469.077C250.473 469.143 250.817 469.177 251.17 469.177V468.555C250.858 468.555 250.554 468.525 250.259 468.467L250.139 469.077ZM251.17 469.177H252.35V468.555H251.17V469.177ZM254.709 469.177H257.068V468.555H254.709V469.177ZM259.426 469.177H261.785V468.555H259.426V469.177ZM264.144 469.177H266.503V468.555H264.144V469.177ZM268.862 469.177H271.221V468.555H268.862V469.177ZM273.58 469.177H275.939V468.555H273.58V469.177ZM278.298 469.177H279.477V468.555H278.298V469.177Z" fill="white" fill-opacity="0.3"/>
<g filter="url(#filter13_b_634_8563)">
<path d="M321.802 400.55L325.722 396.154L335.537 396.154C336.568 396.154 337.403 396.99 337.403 398.02L337.403 420.644C337.403 422.13 336.198 423.335 334.712 423.335L318.285 423.335C316.799 423.335 315.594 422.13 315.594 420.644L315.594 406.275L321.802 400.55Z" fill="url(#paint10_linear_634_8563)"/>
<path d="M321.916 400.674L321.922 400.668L321.927 400.662L325.797 396.323L335.537 396.323C336.475 396.323 337.235 397.083 337.235 398.02L337.235 420.644C337.235 422.037 336.105 423.167 334.712 423.167L318.285 423.167C316.892 423.167 315.762 422.037 315.762 420.644L315.762 406.349L321.916 400.674Z" stroke="url(#paint11_linear_634_8563)" stroke-width="0.336408"/>
</g>
<g filter="url(#filter14_d_634_8563)">
<mask id="path-101-inside-1_634_8563" fill="white">
<path fill-rule="evenodd" clip-rule="evenodd" d="M315.513 406.245H324.383C325.127 406.245 325.729 405.642 325.729 404.899L325.729 396.076C325.083 396.206 324.485 396.523 324.012 396.996L316.42 404.588C315.962 405.046 315.65 405.622 315.513 406.245Z"/>
</mask>
<path fill-rule="evenodd" clip-rule="evenodd" d="M315.513 406.245H324.383C325.127 406.245 325.729 405.642 325.729 404.899L325.729 396.076C325.083 396.206 324.485 396.523 324.012 396.996L316.42 404.588C315.962 405.046 315.65 405.622 315.513 406.245Z" fill="url(#paint12_linear_634_8563)"/>
<path d="M315.513 406.245L315.184 406.173L315.094 406.581H315.513V406.245ZM325.729 404.899H325.393H325.729ZM325.729 396.076L326.065 396.076V395.666L325.663 395.746L325.729 396.076ZM324.012 396.996L324.25 397.234V397.234L324.012 396.996ZM316.42 404.588L316.657 404.826L316.42 404.588ZM324.383 405.908H315.513V406.581H324.383V405.908ZM325.393 404.899C325.393 405.457 324.941 405.908 324.383 405.908V406.581C325.312 406.581 326.065 405.828 326.065 404.899H325.393ZM325.393 396.076L325.393 404.899H326.065L326.065 396.076L325.393 396.076ZM325.663 395.746C324.953 395.889 324.294 396.238 323.774 396.758L324.25 397.234C324.675 396.808 325.214 396.523 325.795 396.406L325.663 395.746ZM323.774 396.758L316.182 404.35L316.657 404.826L324.25 397.234L323.774 396.758ZM316.182 404.35C315.678 404.854 315.335 405.488 315.184 406.173L315.841 406.317C315.964 405.757 316.245 405.238 316.657 404.826L316.182 404.35Z" fill="url(#paint13_linear_634_8563)" mask="url(#path-101-inside-1_634_8563)"/>
</g>
<g filter="url(#filter15_bd_634_8563)">
<path d="M315.84 395.505L319.76 391.109L328.75 391.109C330.236 391.109 331.441 392.314 331.441 393.801L331.441 415.599C331.441 417.085 330.236 418.29 328.75 418.29L312.323 418.29C310.837 418.29 309.632 417.085 309.632 415.599L309.632 401.23L315.84 395.505Z" fill="url(#paint14_linear_634_8563)" shape-rendering="crispEdges"/>
<path d="M315.954 395.629L315.96 395.623L315.966 395.617L319.835 391.278L328.75 391.278C330.143 391.278 331.273 392.407 331.273 393.801L331.273 415.599C331.273 416.992 330.143 418.122 328.75 418.122L312.323 418.122C310.93 418.122 309.8 416.992 309.8 415.599L309.8 401.304L315.954 395.629Z" stroke="url(#paint15_linear_634_8563)" stroke-width="0.336408" shape-rendering="crispEdges"/>
</g>
<g filter="url(#filter16_d_634_8563)">
<mask id="path-105-inside-2_634_8563" fill="white">
<path fill-rule="evenodd" clip-rule="evenodd" d="M309.548 401.2H318.42C319.163 401.2 319.766 400.597 319.766 399.854V391.031C319.119 391.16 318.519 391.478 318.045 391.952L310.455 399.542C309.997 400 309.685 400.577 309.548 401.2Z"/>
</mask>
<path fill-rule="evenodd" clip-rule="evenodd" d="M309.548 401.2H318.42C319.163 401.2 319.766 400.597 319.766 399.854V391.031C319.119 391.16 318.519 391.478 318.045 391.952L310.455 399.542C309.997 400 309.685 400.577 309.548 401.2Z" fill="url(#paint16_linear_634_8563)"/>
<path d="M309.548 401.2L309.219 401.128L309.13 401.536H309.548V401.2ZM319.766 399.854H320.102H319.766ZM319.766 391.031H320.102V390.621L319.7 390.701L319.766 391.031ZM318.045 391.952L317.807 391.714V391.714L318.045 391.952ZM310.455 399.542L310.693 399.78H310.693L310.455 399.542ZM318.42 400.863H309.548V401.536H318.42V400.863ZM319.429 399.854C319.429 400.412 318.978 400.863 318.42 400.863V401.536C319.349 401.536 320.102 400.783 320.102 399.854H319.429ZM319.429 391.031V399.854H320.102V391.031H319.429ZM319.7 390.701C318.988 390.843 318.328 391.193 317.807 391.714L318.283 392.189C318.709 391.763 319.249 391.477 319.832 391.361L319.7 390.701ZM317.807 391.714L310.217 399.304L310.693 399.78L318.283 392.189L317.807 391.714ZM310.217 399.304C309.713 399.808 309.37 400.442 309.219 401.128L309.876 401.272C309.999 400.711 310.281 400.192 310.693 399.78L310.217 399.304Z" fill="url(#paint17_linear_634_8563)" mask="url(#path-105-inside-2_634_8563)"/>
</g>
<path d="M325.73 415.474C326.476 415.474 327.191 415.178 327.719 414.65C328.246 414.123 328.543 413.407 328.543 412.661V410.25C328.543 410.028 328.363 409.848 328.141 409.848C327.919 409.848 327.739 410.028 327.739 410.25V412.661C327.739 413.379 327.356 414.042 326.735 414.401C326.113 414.76 325.347 414.76 324.725 414.401C324.104 414.042 323.721 413.379 323.721 412.661V409.447C323.721 408.781 324.26 408.241 324.926 408.241C325.592 408.241 326.132 408.781 326.132 409.447V412.661C326.132 412.883 325.952 413.063 325.73 413.063C325.508 413.063 325.328 412.883 325.328 412.661V410.25C325.328 410.028 325.148 409.848 324.926 409.848C324.705 409.848 324.524 410.028 324.524 410.25V412.661C324.524 413.327 325.064 413.867 325.73 413.867C326.396 413.867 326.935 413.327 326.935 412.661V409.447C326.935 408.729 326.552 408.066 325.931 407.707C325.309 407.348 324.543 407.348 323.922 407.707C323.3 408.066 322.917 408.729 322.917 409.447V412.661C322.917 413.407 323.213 414.123 323.741 414.65C324.269 415.178 324.984 415.474 325.73 415.474Z" fill="#9EB9E5"/>
<g filter="url(#filter17_bd_634_8563)">
<rect x="274.631" y="436.809" width="75.9832" height="56.3779" rx="4.35385" fill="url(#paint18_linear_634_8563)" shape-rendering="crispEdges"/>
<rect x="274.786" y="436.964" width="75.6722" height="56.067" rx="4.19835" stroke="url(#paint19_linear_634_8563)" stroke-width="0.310989" shape-rendering="crispEdges"/>
</g>
<g filter="url(#filter18_b_634_8563)">
<rect x="276.785" y="438.938" width="71.6731" height="52.1201" rx="2.48791" fill="url(#paint20_linear_634_8563)"/>
</g>
<rect x="285.846" y="444.604" width="14.4471" height="18.4132" rx="1.24396" fill="white" fill-opacity="0.25"/>
<path d="M290.485 447.827C290.485 448.483 289.953 449.015 289.297 449.015C288.64 449.015 288.108 448.483 288.108 447.827C288.108 447.17 288.64 446.639 289.297 446.639C289.953 446.639 290.485 447.171 290.485 447.827Z" fill="#325995"/>
<path d="M291.138 451.374C291.235 451.374 291.313 451.295 291.313 451.199C291.313 450.086 290.408 449.182 289.296 449.182C288.184 449.182 287.279 450.086 287.279 451.199C287.279 451.295 287.358 451.374 287.455 451.374H291.138Z" fill="#325995"/>
<rect x="287.275" y="453.27" width="11.5894" height="0.724682" rx="0.362341" fill="#325995"/>
<rect x="287.275" y="455.166" width="11.5894" height="0.724682" rx="0.362341" fill="#325995"/>
<rect x="287.275" y="457.062" width="11.5894" height="0.724682" rx="0.362341" fill="#325995"/>
<rect x="287.275" y="458.959" width="11.5894" height="0.724682" rx="0.362341" fill="#325995"/>
<rect x="287.275" y="460.855" width="6.72823" height="0.724682" rx="0.362341" fill="#325995"/>
<rect x="285.846" y="466.979" width="14.4471" height="18.4132" rx="1.24396" fill="white" fill-opacity="0.25"/>
<path d="M290.485 470.202C290.485 470.858 289.953 471.39 289.297 471.39C288.64 471.39 288.108 470.858 288.108 470.202C288.108 469.545 288.64 469.014 289.297 469.014C289.953 469.014 290.485 469.546 290.485 470.202Z" fill="#325995"/>
<path d="M291.138 473.751C291.235 473.751 291.313 473.672 291.313 473.576C291.313 472.463 290.408 471.559 289.296 471.559C288.184 471.559 287.279 472.463 287.279 473.576C287.279 473.672 287.358 473.751 287.455 473.751H291.138Z" fill="#325995"/>
<rect x="287.275" y="475.645" width="11.5894" height="0.724682" rx="0.362341" fill="#325995"/>
<rect x="287.275" y="477.541" width="11.5894" height="0.724682" rx="0.362341" fill="#325995"/>
<rect x="287.275" y="479.438" width="11.5894" height="0.724682" rx="0.362341" fill="#325995"/>
<rect x="287.275" y="481.334" width="11.5894" height="0.724682" rx="0.362341" fill="#325995"/>
<rect x="287.275" y="483.23" width="6.72823" height="0.724682" rx="0.362341" fill="#325995"/>
<g filter="url(#filter19_d_634_8563)">
<rect x="305.709" y="444.915" width="13.8251" height="17.7912" rx="0.932967" fill="white" fill-opacity="0.25" stroke="#00A56A" stroke-width="0.621978"/>
<path d="M310.03 447.827C310.03 448.483 309.498 449.015 308.842 449.015C308.185 449.015 307.653 448.483 307.653 447.827C307.653 447.17 308.185 446.639 308.842 446.639C309.498 446.639 310.03 447.171 310.03 447.827Z" fill="#325995"/>
<path d="M310.683 451.374C310.779 451.374 310.858 451.295 310.858 451.199C310.858 450.086 309.953 449.182 308.841 449.182C307.729 449.182 306.824 450.086 306.824 451.199C306.824 451.295 306.903 451.374 307 451.374H310.683Z" fill="#325995"/>
<rect x="306.828" y="453.27" width="11.5894" height="0.724682" rx="0.362341" fill="#325995"/>
<rect x="306.828" y="455.166" width="11.5894" height="0.724682" rx="0.362341" fill="#325995"/>
<rect x="306.828" y="457.062" width="11.5894" height="0.724682" rx="0.362341" fill="#325995"/>
<rect x="306.828" y="458.959" width="9.72614" height="0.724682" rx="0.362341" fill="#325995"/>
<rect x="306.828" y="460.855" width="6.72823" height="0.724682" rx="0.362341" fill="#325995"/>
</g>
<rect x="305.398" y="466.979" width="14.4471" height="18.4132" rx="1.24396" fill="white" fill-opacity="0.25"/>
<path d="M310.03 470.202C310.03 470.858 309.498 471.39 308.842 471.39C308.185 471.39 307.653 470.858 307.653 470.202C307.653 469.545 308.185 469.014 308.842 469.014C309.498 469.014 310.03 469.546 310.03 470.202Z" fill="#325995"/>
<path d="M310.683 473.749C310.779 473.749 310.858 473.67 310.858 473.574C310.858 472.461 309.953 471.557 308.841 471.557C307.729 471.557 306.824 472.461 306.824 473.574C306.824 473.67 306.903 473.749 307 473.749H310.683Z" fill="#325995"/>
<rect x="306.828" y="475.645" width="11.5894" height="0.724682" rx="0.362341" fill="#325995"/>
<rect x="306.828" y="477.541" width="11.5894" height="0.724682" rx="0.362341" fill="#325995"/>
<rect x="306.828" y="479.438" width="11.5894" height="0.724682" rx="0.362341" fill="#325995"/>
<rect x="306.828" y="481.334" width="11.5894" height="0.724682" rx="0.362341" fill="#325995"/>
<rect x="306.828" y="483.23" width="6.72823" height="0.724682" rx="0.362341" fill="#325995"/>
<rect x="324.952" y="444.604" width="14.4471" height="18.4132" rx="1.24396" fill="white" fill-opacity="0.25"/>
<path d="M329.588 447.827C329.588 448.483 329.056 449.015 328.4 449.015C327.744 449.015 327.212 448.483 327.212 447.827C327.212 447.17 327.744 446.639 328.4 446.639C329.056 446.639 329.588 447.171 329.588 447.827Z" fill="#325995"/>
<path d="M330.241 451.374C330.338 451.374 330.417 451.295 330.417 451.199C330.417 450.086 329.512 449.182 328.4 449.182C327.288 449.182 326.383 450.086 326.383 451.199C326.383 451.295 326.461 451.374 326.558 451.374H330.241Z" fill="#325995"/>
<rect x="326.382" y="453.27" width="11.5894" height="0.724682" rx="0.362341" fill="#325995"/>
<rect x="326.382" y="455.166" width="11.5894" height="0.724682" rx="0.362341" fill="#325995"/>
<rect x="326.382" y="457.062" width="11.5894" height="0.724682" rx="0.362341" fill="#325995"/>
<rect x="326.382" y="458.959" width="11.5894" height="0.724682" rx="0.362341" fill="#325995"/>
<rect x="326.382" y="460.855" width="6.72823" height="0.724682" rx="0.362341" fill="#325995"/>
<rect x="324.952" y="466.979" width="14.4471" height="18.4132" rx="1.24396" fill="white" fill-opacity="0.25"/>
<path d="M329.588 470.202C329.588 470.858 329.056 471.39 328.4 471.39C327.744 471.39 327.212 470.858 327.212 470.202C327.212 469.545 327.744 469.014 328.4 469.014C329.056 469.014 329.588 469.546 329.588 470.202Z" fill="#325995"/>
<path d="M330.241 473.749C330.338 473.749 330.417 473.67 330.417 473.574C330.417 472.461 329.512 471.557 328.4 471.557C327.288 471.557 326.383 472.461 326.383 473.574C326.383 473.67 326.461 473.749 326.558 473.749H330.241Z" fill="#325995"/>
<rect x="326.382" y="475.645" width="11.5894" height="0.724682" rx="0.362341" fill="#325995"/>
<rect x="326.382" y="477.541" width="11.5894" height="0.724682" rx="0.362341" fill="#325995"/>
<rect x="326.382" y="479.438" width="11.5894" height="0.724682" rx="0.362341" fill="#325995"/>
<rect x="326.382" y="481.334" width="11.5894" height="0.724682" rx="0.362341" fill="#325995"/>
<rect x="326.382" y="483.23" width="6.72823" height="0.724682" rx="0.362341" fill="#325995"/>
<path d="M316.799 457.008C314.675 457.008 312.952 458.731 312.952 460.854C312.952 462.978 314.675 464.701 316.799 464.701C318.922 464.701 320.645 462.978 320.645 460.854C320.645 458.731 318.922 457.008 316.799 457.008ZM318.778 459.925L316.518 462.193C316.446 462.265 316.342 462.313 316.238 462.313C316.134 462.313 316.029 462.273 315.957 462.193L314.819 461.055C314.659 460.895 314.659 460.646 314.819 460.486C314.98 460.325 315.228 460.325 315.389 460.486L316.238 461.335L318.218 459.356C318.378 459.196 318.626 459.196 318.787 459.356C318.938 459.516 318.938 459.765 318.778 459.925L318.778 459.925Z" fill="#00A56A"/>
<path fill-rule="evenodd" clip-rule="evenodd" d="M340.753 485.58C340.979 485.354 341.349 485.354 341.575 485.58L344.713 488.716C344.939 488.944 344.939 489.314 344.713 489.54C344.486 489.766 344.116 489.766 343.889 489.54L340.753 486.403C340.526 486.177 340.526 485.806 340.753 485.58Z" fill="#0F3A8A"/>
<path fill-rule="evenodd" clip-rule="evenodd" d="M338.197 491.745C338.197 491.425 338.459 491.162 338.78 491.162H343.216C343.536 491.162 343.798 491.425 343.798 491.745C343.798 492.065 343.536 492.327 343.216 492.327H338.78C338.459 492.327 338.197 492.065 338.197 491.745Z" fill="#0F3A8A"/>
<path fill-rule="evenodd" clip-rule="evenodd" d="M340.753 497.909C340.526 497.683 340.526 497.312 340.753 497.086L343.889 493.949C344.116 493.723 344.486 493.723 344.713 493.949C344.939 494.175 344.939 494.546 344.713 494.773L341.575 497.909C341.349 498.135 340.979 498.135 340.753 497.909Z" fill="#0F3A8A"/>
<path fill-rule="evenodd" clip-rule="evenodd" d="M353.082 485.58C353.308 485.806 353.308 486.177 353.082 486.403L349.945 489.54C349.719 489.766 349.349 489.766 349.122 489.54C348.895 489.314 348.895 488.944 349.122 488.716L352.259 485.58C352.485 485.354 352.856 485.354 353.082 485.58Z" fill="#0F3A8A"/>
<path fill-rule="evenodd" clip-rule="evenodd" d="M346.915 483.025C347.235 483.025 347.496 483.288 347.496 483.608V488.044C347.496 488.364 347.235 488.626 346.915 488.626C346.594 488.626 346.332 488.364 346.332 488.044V483.608C346.332 483.288 346.594 483.025 346.915 483.025Z" fill="#0F3A8A"/>
<path fill-rule="evenodd" clip-rule="evenodd" d="M346.505 490.906L358.311 496.081C358.548 496.185 358.574 496.509 358.357 496.65L355.959 498.204L359.167 501.412C359.293 501.537 359.293 501.743 359.167 501.87L357.042 503.994C356.916 504.12 356.71 504.12 356.583 503.994L353.376 500.787L351.822 503.186C351.681 503.403 351.357 503.376 351.253 503.139L346.078 491.333C345.96 491.065 346.236 490.789 346.505 490.907L346.505 490.906Z" fill="#0F3A8A"/>
</g>
<defs>
<filter id="filter0_f_634_8563" x="-59.4808" y="-11.4515" width="858.34" height="285.274" filterUnits="userSpaceOnUse" color-interpolation-filters="sRGB">
<feFlood flood-opacity="0" result="BackgroundImageFix"/>
<feBlend mode="normal" in="SourceGraphic" in2="BackgroundImageFix" result="shape"/>
<feGaussianBlur stdDeviation="8.82243" result="effect1_foregroundBlur_634_8563"/>
</filter>
<filter id="filter1_f_634_8563" x="-96.8356" y="122.847" width="609.802" height="432.009" filterUnits="userSpaceOnUse" color-interpolation-filters="sRGB">
<feFlood flood-opacity="0" result="BackgroundImageFix"/>
<feBlend mode="normal" in="SourceGraphic" in2="BackgroundImageFix" result="shape"/>
<feGaussianBlur stdDeviation="60.7191" result="effect1_foregroundBlur_634_8563"/>
</filter>
<filter id="filter2_f_634_8563" x="105.005" y="-12.9655" width="584.314" height="604.468" filterUnits="userSpaceOnUse" color-interpolation-filters="sRGB">
<feFlood flood-opacity="0" result="BackgroundImageFix"/>
<feBlend mode="normal" in="SourceGraphic" in2="BackgroundImageFix" result="shape"/>
<feGaussianBlur stdDeviation="60.7191" result="effect1_foregroundBlur_634_8563"/>
</filter>
<filter id="filter3_f_634_8563" x="-308.473" y="3.03836" width="600.635" height="575.581" filterUnits="userSpaceOnUse" color-interpolation-filters="sRGB">
<feFlood flood-opacity="0" result="BackgroundImageFix"/>
<feBlend mode="normal" in="SourceGraphic" in2="BackgroundImageFix" result="shape"/>
<feGaussianBlur stdDeviation="82.2562" result="effect1_foregroundBlur_634_8563"/>
</filter>
<filter id="filter4_b_634_8563" x="116.508" y="388.063" width="22.8119" height="22.8119" filterUnits="userSpaceOnUse" color-interpolation-filters="sRGB">
<feFlood flood-opacity="0" result="BackgroundImageFix"/>
<feGaussianBlur in="BackgroundImageFix" stdDeviation="1.03793"/>
<feComposite in2="SourceAlpha" operator="in" result="effect1_backgroundBlur_634_8563"/>
<feBlend mode="normal" in="SourceGraphic" in2="effect1_backgroundBlur_634_8563" result="shape"/>
</filter>
<filter id="filter5_b_634_8563" x="113.768" y="385.323" width="28.2924" height="28.2924" filterUnits="userSpaceOnUse" color-interpolation-filters="sRGB">
<feFlood flood-opacity="0" result="BackgroundImageFix"/>
<feGaussianBlur in="BackgroundImageFix" stdDeviation="1.03793"/>
<feComposite in2="SourceAlpha" operator="in" result="effect1_backgroundBlur_634_8563"/>
<feBlend mode="normal" in="SourceGraphic" in2="effect1_backgroundBlur_634_8563" result="shape"/>
</filter>
<filter id="filter6_bd_634_8563" x="10.2796" y="383.741" width="73.7933" height="95.5399" filterUnits="userSpaceOnUse" color-interpolation-filters="sRGB">
<feFlood flood-opacity="0" result="BackgroundImageFix"/>
<feGaussianBlur in="BackgroundImageFix" stdDeviation="1.03793"/>
<feComposite in2="SourceAlpha" operator="in" result="effect1_backgroundBlur_634_8563"/>
<feColorMatrix in="SourceAlpha" type="matrix" values="0 0 0 0 0 0 0 0 0 0 0 0 0 0 0 0 0 0 127 0" result="hardAlpha"/>
<feOffset dx="9.86037" dy="16.6069"/>
<feGaussianBlur stdDeviation="1.03793"/>
<feComposite in2="hardAlpha" operator="out"/>
<feColorMatrix type="matrix" values="0 0 0 0 0.0319739 0 0 0 0 0.0236979 0 0 0 0 0.4375 0 0 0 0.05 0"/>
<feBlend mode="normal" in2="effect1_backgroundBlur_634_8563" result="effect2_dropShadow_634_8563"/>
<feBlend mode="normal" in="SourceGraphic" in2="effect2_dropShadow_634_8563" result="shape"/>
</filter>
<filter id="filter7_b_634_8563" x="13.2776" y="386.565" width="57.9369" height="73.2845" filterUnits="userSpaceOnUse" color-interpolation-filters="sRGB">
<feFlood flood-opacity="0" result="BackgroundImageFix"/>
<feGaussianBlur in="BackgroundImageFix" stdDeviation="1.03793"/>
<feComposite in2="SourceAlpha" operator="in" result="effect1_backgroundBlur_634_8563"/>
<feBlend mode="normal" in="SourceGraphic" in2="effect1_backgroundBlur_634_8563" result="shape"/>
</filter>
<filter id="filter8_b_634_8563" x="78.8821" y="415.617" width="29.3705" height="54.4174" filterUnits="userSpaceOnUse" color-interpolation-filters="sRGB">
<feFlood flood-opacity="0" result="BackgroundImageFix"/>
<feGaussianBlur in="BackgroundImageFix" stdDeviation="1.03793"/>
<feComposite in2="SourceAlpha" operator="in" result="effect1_backgroundBlur_634_8563"/>
<feBlend mode="normal" in="SourceGraphic" in2="effect1_backgroundBlur_634_8563" result="shape"/>
</filter>
<filter id="filter9_b_634_8563" x="342.879" y="379.425" width="51.1791" height="60.9838" filterUnits="userSpaceOnUse" color-interpolation-filters="sRGB">
<feFlood flood-opacity="0" result="BackgroundImageFix"/>
<feGaussianBlur in="BackgroundImageFix" stdDeviation="4.35385"/>
<feComposite in2="SourceAlpha" operator="in" result="effect1_backgroundBlur_634_8563"/>
<feBlend mode="normal" in="SourceGraphic" in2="effect1_backgroundBlur_634_8563" result="shape"/>
</filter>
<filter id="filter10_b_634_8563" x="334.547" y="366.616" width="54.8146" height="67.0441" filterUnits="userSpaceOnUse" color-interpolation-filters="sRGB">
<feFlood flood-opacity="0" result="BackgroundImageFix"/>
<feGaussianBlur in="BackgroundImageFix" stdDeviation="4.66484"/>
<feComposite in2="SourceAlpha" operator="in" result="effect1_backgroundBlur_634_8563"/>
<feBlend mode="normal" in="SourceGraphic" in2="effect1_backgroundBlur_634_8563" result="shape"/>
</filter>
<filter id="filter11_b_634_8563" x="257.371" y="401.673" width="40.8947" height="27.5138" filterUnits="userSpaceOnUse" color-interpolation-filters="sRGB">
<feFlood flood-opacity="0" result="BackgroundImageFix"/>
<feGaussianBlur in="BackgroundImageFix" stdDeviation="1.29936"/>
<feComposite in2="SourceAlpha" operator="in" result="effect1_backgroundBlur_634_8563"/>
<feBlend mode="normal" in="SourceGraphic" in2="effect1_backgroundBlur_634_8563" result="shape"/>
</filter>
<filter id="filter12_b_634_8563" x="283.462" y="393.932" width="20.1086" height="20.1086" filterUnits="userSpaceOnUse" color-interpolation-filters="sRGB">
<feFlood flood-opacity="0" result="BackgroundImageFix"/>
<feGaussianBlur in="BackgroundImageFix" stdDeviation="1.24396"/>
<feComposite in2="SourceAlpha" operator="in" result="effect1_backgroundBlur_634_8563"/>
<feBlend mode="normal" in="SourceGraphic" in2="effect1_backgroundBlur_634_8563" result="shape"/>
</filter>
<filter id="filter13_b_634_8563" x="308.866" y="389.426" width="35.2659" height="40.636" filterUnits="userSpaceOnUse" color-interpolation-filters="sRGB">
<feFlood flood-opacity="0" result="BackgroundImageFix"/>
<feGaussianBlur in="BackgroundImageFix" stdDeviation="3.36408"/>
<feComposite in2="SourceAlpha" operator="in" result="effect1_backgroundBlur_634_8563"/>
<feBlend mode="normal" in="SourceGraphic" in2="effect1_backgroundBlur_634_8563" result="shape"/>
</filter>
<filter id="filter14_d_634_8563" x="314.167" y="396.076" width="12.9081" height="12.8592" filterUnits="userSpaceOnUse" color-interpolation-filters="sRGB">
<feFlood flood-opacity="0" result="BackgroundImageFix"/>
<feColorMatrix in="SourceAlpha" type="matrix" values="0 0 0 0 0 0 0 0 0 0 0 0 0 0 0 0 0 0 127 0" result="hardAlpha"/>
<feOffset dy="1.34563"/>
<feGaussianBlur stdDeviation="0.672817"/>
<feComposite in2="hardAlpha" operator="out"/>
<feColorMatrix type="matrix" values="0 0 0 0 0.0658278 0 0 0 0 0.0613889 0 0 0 0 0.283333 0 0 0 0.1 0"/>
<feBlend mode="normal" in2="BackgroundImageFix" result="effect1_dropShadow_634_8563"/>
<feBlend mode="normal" in="SourceGraphic" in2="effect1_dropShadow_634_8563" result="shape"/>
</filter>
<filter id="filter15_bd_634_8563" x="306.941" y="388.418" width="27.1921" height="33.235" filterUnits="userSpaceOnUse" color-interpolation-filters="sRGB">
<feFlood flood-opacity="0" result="BackgroundImageFix"/>
<feGaussianBlur in="BackgroundImageFix" stdDeviation="1.34563"/>
<feComposite in2="SourceAlpha" operator="in" result="effect1_backgroundBlur_634_8563"/>
<feColorMatrix in="SourceAlpha" type="matrix" values="0 0 0 0 0 0 0 0 0 0 0 0 0 0 0 0 0 0 127 0" result="hardAlpha"/>
<feOffset dx="2.01845" dy="2.69127"/>
<feGaussianBlur stdDeviation="0.336408"/>
<feComposite in2="hardAlpha" operator="out"/>
<feColorMatrix type="matrix" values="0 0 0 0 0.0245333 0 0 0 0 0.0191667 0 0 0 0 0.2875 0 0 0 0.06 0"/>
<feBlend mode="normal" in2="effect1_backgroundBlur_634_8563" result="effect2_dropShadow_634_8563"/>
<feBlend mode="normal" in="SourceGraphic" in2="effect2_dropShadow_634_8563" result="shape"/>
</filter>
<filter id="filter16_d_634_8563" x="308.202" y="391.031" width="12.909" height="12.8592" filterUnits="userSpaceOnUse" color-interpolation-filters="sRGB">
<feFlood flood-opacity="0" result="BackgroundImageFix"/>
<feColorMatrix in="SourceAlpha" type="matrix" values="0 0 0 0 0 0 0 0 0 0 0 0 0 0 0 0 0 0 127 0" result="hardAlpha"/>
<feOffset dy="1.34563"/>
<feGaussianBlur stdDeviation="0.672817"/>
<feComposite in2="hardAlpha" operator="out"/>
<feColorMatrix type="matrix" values="0 0 0 0 0.0658278 0 0 0 0 0.0613889 0 0 0 0 0.283333 0 0 0 0.1 0"/>
<feBlend mode="normal" in2="BackgroundImageFix" result="effect1_dropShadow_634_8563"/>
<feBlend mode="normal" in="SourceGraphic" in2="effect1_dropShadow_634_8563" result="shape"/>
</filter>
<filter id="filter17_bd_634_8563" x="272.143" y="434.321" width="92.7768" height="81.258" filterUnits="userSpaceOnUse" color-interpolation-filters="sRGB">
<feFlood flood-opacity="0" result="BackgroundImageFix"/>
<feGaussianBlur in="BackgroundImageFix" stdDeviation="1.24396"/>
<feComposite in2="SourceAlpha" operator="in" result="effect1_backgroundBlur_634_8563"/>
<feColorMatrix in="SourceAlpha" type="matrix" values="0 0 0 0 0 0 0 0 0 0 0 0 0 0 0 0 0 0 127 0" result="hardAlpha"/>
<feOffset dx="11.8176" dy="19.9033"/>
<feGaussianBlur stdDeviation="1.24396"/>
<feComposite in2="hardAlpha" operator="out"/>
<feColorMatrix type="matrix" values="0 0 0 0 0.0319739 0 0 0 0 0.0236979 0 0 0 0 0.4375 0 0 0 0.05 0"/>
<feBlend mode="normal" in2="effect1_backgroundBlur_634_8563" result="effect2_dropShadow_634_8563"/>
<feBlend mode="normal" in="SourceGraphic" in2="effect2_dropShadow_634_8563" result="shape"/>
</filter>
<filter id="filter18_b_634_8563" x="274.297" y="436.45" width="76.6487" height="57.0969" filterUnits="userSpaceOnUse" color-interpolation-filters="sRGB">
<feFlood flood-opacity="0" result="BackgroundImageFix"/>
<feGaussianBlur in="BackgroundImageFix" stdDeviation="1.24396"/>
<feComposite in2="SourceAlpha" operator="in" result="effect1_backgroundBlur_634_8563"/>
<feBlend mode="normal" in="SourceGraphic" in2="effect1_backgroundBlur_634_8563" result="shape"/>
</filter>
<filter id="filter19_d_634_8563" x="302.911" y="444.604" width="19.4231" height="23.3899" filterUnits="userSpaceOnUse" color-interpolation-filters="sRGB">
<feFlood flood-opacity="0" result="BackgroundImageFix"/>
<feColorMatrix in="SourceAlpha" type="matrix" values="0 0 0 0 0 0 0 0 0 0 0 0 0 0 0 0 0 0 127 0" result="hardAlpha"/>
<feOffset dy="2.48791"/>
<feGaussianBlur stdDeviation="1.24396"/>
<feComposite in2="hardAlpha" operator="out"/>
<feColorMatrix type="matrix" values="0 0 0 0 0.00171876 0 0 0 0 0.166031 0 0 0 0 0.4125 0 0 0 0.25 0"/>
<feBlend mode="normal" in2="BackgroundImageFix" result="effect1_dropShadow_634_8563"/>
<feBlend mode="normal" in="SourceGraphic" in2="effect1_dropShadow_634_8563" result="shape"/>
</filter>
<linearGradient id="paint0_linear_634_8563" x1="221.234" y1="298.141" x2="221.234" y2="535.826" gradientUnits="userSpaceOnUse">
<stop offset="0.453125" stop-color="#3C46F4" stop-opacity="0"/>
<stop offset="0.71875" stop-color="#94CAFB" stop-opacity="0.91"/>
</linearGradient>
<linearGradient id="paint1_linear_634_8563" x1="127.914" y1="390.139" x2="127.914" y2="408.799" gradientUnits="userSpaceOnUse">
<stop stop-color="#FB967C"/>
<stop offset="1" stop-color="#36A8DB"/>
</linearGradient>
<linearGradient id="paint2_linear_634_8563" x1="127.914" y1="387.398" x2="127.914" y2="411.539" gradientUnits="userSpaceOnUse">
<stop stop-color="#E0998A"/>
<stop offset="1" stop-color="#43A7D5" stop-opacity="0"/>
</linearGradient>
<linearGradient id="paint3_linear_634_8563" x1="42.2463" y1="385.816" x2="42.2463" y2="460.597" gradientUnits="userSpaceOnUse">
<stop stop-color="#8CB2EF"/>
<stop offset="1" stop-color="#4583E9" stop-opacity="0.13"/>
</linearGradient>
<linearGradient id="paint4_linear_634_8563" x1="42.2463" y1="385.816" x2="42.2463" y2="460.597" gradientUnits="userSpaceOnUse">
<stop stop-color="white" stop-opacity="0.69"/>
<stop offset="1" stop-color="white" stop-opacity="0"/>
</linearGradient>
<linearGradient id="paint5_linear_634_8563" x1="42.2461" y1="388.641" x2="42.2461" y2="457.774" gradientUnits="userSpaceOnUse">
<stop stop-color="#B6D2FF"/>
<stop offset="1" stop-color="#D9E7FF" stop-opacity="0.13"/>
</linearGradient>
<linearGradient id="paint6_linear_634_8563" x1="93.5672" y1="417.693" x2="93.5672" y2="467.958" gradientUnits="userSpaceOnUse">
<stop stop-color="#B6D2FF"/>
<stop offset="1" stop-color="#D9E7FF" stop-opacity="0.13"/>
</linearGradient>
<linearGradient id="paint7_linear_634_8563" x1="361.954" y1="375.945" x2="361.954" y2="424.33" gradientUnits="userSpaceOnUse">
<stop stop-color="#B6D2FF"/>
<stop offset="1" stop-color="#D9E7FF" stop-opacity="0.13"/>
</linearGradient>
<linearGradient id="paint8_linear_634_8563" x1="277.818" y1="404.271" x2="277.818" y2="426.587" gradientUnits="userSpaceOnUse">
<stop stop-color="#62D7B2"/>
<stop offset="1" stop-color="#93E5CD" stop-opacity="0.08"/>
</linearGradient>
<linearGradient id="paint9_linear_634_8563" x1="293.516" y1="396.42" x2="293.516" y2="411.552" gradientUnits="userSpaceOnUse">
<stop stop-color="#FA8C16"/>
<stop offset="1" stop-color="white" stop-opacity="0"/>
</linearGradient>
<linearGradient id="paint10_linear_634_8563" x1="326.498" y1="396.154" x2="326.498" y2="423.335" gradientUnits="userSpaceOnUse">
<stop stop-color="#8CB2EF"/>
<stop offset="1" stop-color="#4583E9" stop-opacity="0.13"/>
</linearGradient>
<linearGradient id="paint11_linear_634_8563" x1="326.498" y1="396.154" x2="326.498" y2="423.335" gradientUnits="userSpaceOnUse">
<stop stop-color="white" stop-opacity="0.69"/>
<stop offset="1" stop-color="white" stop-opacity="0"/>
</linearGradient>
<linearGradient id="paint12_linear_634_8563" x1="320.621" y1="396.076" x2="320.621" y2="406.245" gradientUnits="userSpaceOnUse">
<stop stop-color="#66A1FF"/>
<stop offset="1" stop-color="#AEBFDC"/>
</linearGradient>
<linearGradient id="paint13_linear_634_8563" x1="320.621" y1="396.076" x2="320.621" y2="406.245" gradientUnits="userSpaceOnUse">
<stop stop-color="white" stop-opacity="0.69"/>
<stop offset="1" stop-color="white" stop-opacity="0"/>
</linearGradient>
<linearGradient id="paint14_linear_634_8563" x1="320.537" y1="391.109" x2="320.537" y2="418.29" gradientUnits="userSpaceOnUse">
<stop stop-color="#8CB2EF"/>
<stop offset="1" stop-color="#4583E9" stop-opacity="0.13"/>
</linearGradient>
<linearGradient id="paint15_linear_634_8563" x1="320.537" y1="391.109" x2="320.537" y2="418.29" gradientUnits="userSpaceOnUse">
<stop stop-color="white" stop-opacity="0.69"/>
<stop offset="1" stop-color="white" stop-opacity="0"/>
</linearGradient>
<linearGradient id="paint16_linear_634_8563" x1="314.657" y1="391.031" x2="314.657" y2="401.2" gradientUnits="userSpaceOnUse">
<stop stop-color="#66A1FF"/>
<stop offset="0.692708" stop-color="#99BEFA"/>
<stop offset="1" stop-color="#B8D3FF"/>
</linearGradient>
<linearGradient id="paint17_linear_634_8563" x1="314.657" y1="391.031" x2="314.657" y2="401.2" gradientUnits="userSpaceOnUse">
<stop stop-color="white" stop-opacity="0.69"/>
<stop offset="1" stop-color="white" stop-opacity="0"/>
</linearGradient>
<linearGradient id="paint18_linear_634_8563" x1="312.622" y1="436.809" x2="312.622" y2="493.187" gradientUnits="userSpaceOnUse">
<stop stop-color="#8CB2EF"/>
<stop offset="1" stop-color="#4583E9" stop-opacity="0.13"/>
</linearGradient>
<linearGradient id="paint19_linear_634_8563" x1="312.622" y1="436.809" x2="312.622" y2="493.187" gradientUnits="userSpaceOnUse">
<stop stop-color="white" stop-opacity="0.49"/>
<stop offset="1" stop-color="white" stop-opacity="0"/>
</linearGradient>
<linearGradient id="paint20_linear_634_8563" x1="312.622" y1="438.938" x2="312.622" y2="491.058" gradientUnits="userSpaceOnUse">
<stop stop-color="#B6D2FF"/>
<stop offset="1" stop-color="#D9E7FF" stop-opacity="0.13"/>
</linearGradient>
<clipPath id="clip0_634_8563">
<rect width="393" height="508" fill="white" transform="translate(0 0.417969)"/>
</clipPath>
<clipPath id="clip1_634_8563">
<rect x="15.6846" y="389.787" width="53.4536" height="67.9846" rx="1.03793" fill="white"/>
</clipPath>
<clipPath id="clip2_634_8563">
<rect width="24.9104" height="50.3398" fill="white" transform="translate(81.2666 417.693)"/>
</clipPath>
</defs>
</svg>
