<svg width="393" height="509" viewBox="0 0 393 509" fill="none" xmlns="http://www.w3.org/2000/svg">
<g clip-path="url(#clip0_634_8397)">
<rect width="393" height="508" transform="translate(0 0.417969)" fill="white"/>
<path d="M-64.8585 535.302L-64.8594 0.046875H507.328V501.198C471.688 508.738 385.284 523.818 324.675 523.818C248.913 523.818 173.731 507.114 100.26 507.114C26.7892 507.114 -34.3093 525.906 -64.8585 535.302Z" fill="#164B9F"/>
<rect opacity="0.8" x="68.3672" y="94.3008" width="28.8145" height="54.0273" rx="3.63277" fill="#D9D9D9" fill-opacity="0.33"/>
<g filter="url(#filter0_f_634_8397)">
<rect x="-41.8359" y="5.66992" width="823.05" height="249.984" fill="#143D95"/>
</g>
<rect opacity="0.8" x="88.293" y="428.039" width="28.8145" height="54.0273" rx="3.63277" fill="white" fill-opacity="0.12"/>
<g filter="url(#filter1_f_634_8397)">
<rect x="42.7812" y="229.84" width="375.462" height="124.026" rx="62.013" transform="rotate(15 42.7812 229.84)" fill="#FF6332" fill-opacity="0.74"/>
</g>
<path d="M13.9053 294.07V509.049" stroke="#64B2C4" stroke-opacity="0.18" stroke-width="0.518967"/>
<path d="M391.374 305.518L-17.9376 305.518" stroke="#64B2C4" stroke-opacity="0.18" stroke-width="0.518967"/>
<path d="M391.374 320.594L-17.9376 320.594" stroke="#64B2C4" stroke-opacity="0.18" stroke-width="0.518967"/>
<path d="M391.374 335.67L-17.9376 335.67" stroke="#64B2C4" stroke-opacity="0.18" stroke-width="0.518967"/>
<path d="M391.374 350.746L-17.9376 350.746" stroke="#64B2C4" stroke-opacity="0.18" stroke-width="0.518967"/>
<path d="M391.374 365.822L-17.9376 365.822" stroke="#64B2C4" stroke-opacity="0.18" stroke-width="0.518967"/>
<path d="M391.374 380.898L-17.9376 380.898" stroke="#64B2C4" stroke-opacity="0.18" stroke-width="0.518967"/>
<path d="M391.374 395.975L-17.9376 395.975" stroke="#64B2C4" stroke-opacity="0.18" stroke-width="0.518967"/>
<path d="M391.374 411.051L-17.9376 411.051" stroke="#64B2C4" stroke-opacity="0.18" stroke-width="0.518967"/>
<path d="M391.374 426.129L-17.9376 426.129" stroke="#64B2C4" stroke-opacity="0.18" stroke-width="0.518967"/>
<path d="M391.374 441.205L-17.9376 441.205" stroke="#64B2C4" stroke-opacity="0.18" stroke-width="0.518967"/>
<path d="M391.374 456.281L-17.9376 456.281" stroke="#64B2C4" stroke-opacity="0.18" stroke-width="0.518967"/>
<path d="M391.374 471.357L-17.9376 471.357" stroke="#64B2C4" stroke-opacity="0.18" stroke-width="0.518967"/>
<path d="M391.374 486.434L-17.9376 486.434" stroke="#64B2C4" stroke-opacity="0.18" stroke-width="0.518967"/>
<path d="M391.374 501.51L-17.9376 501.51" stroke="#64B2C4" stroke-opacity="0.18" stroke-width="0.518967"/>
<path d="M28.4229 294.07V509.049" stroke="#64B2C4" stroke-opacity="0.18" stroke-width="0.518967"/>
<path d="M42.9404 294.07V509.049" stroke="#64B2C4" stroke-opacity="0.18" stroke-width="0.518967"/>
<path d="M57.459 294.07V509.049" stroke="#64B2C4" stroke-opacity="0.18" stroke-width="0.518967"/>
<path d="M71.9766 294.07V509.049" stroke="#64B2C4" stroke-opacity="0.18" stroke-width="0.518967"/>
<path d="M86.4941 294.07V509.049" stroke="#64B2C4" stroke-opacity="0.18" stroke-width="0.518967"/>
<path d="M101.014 294.07V509.049" stroke="#64B2C4" stroke-opacity="0.18" stroke-width="0.518967"/>
<path d="M115.531 294.07V509.049" stroke="#64B2C4" stroke-opacity="0.18" stroke-width="0.518967"/>
<path d="M130.049 294.07V509.049" stroke="#64B2C4" stroke-opacity="0.18" stroke-width="0.518967"/>
<path d="M144.567 294.07V509.049" stroke="#64B2C4" stroke-opacity="0.18" stroke-width="0.518967"/>
<path d="M159.085 294.07V509.049" stroke="#64B2C4" stroke-opacity="0.18" stroke-width="0.518967"/>
<path d="M173.604 294.07V509.049" stroke="#64B2C4" stroke-opacity="0.18" stroke-width="0.518967"/>
<path d="M188.122 294.07V509.049" stroke="#64B2C4" stroke-opacity="0.18" stroke-width="0.518967"/>
<path d="M202.64 294.07V509.049" stroke="#64B2C4" stroke-opacity="0.18" stroke-width="0.518967"/>
<path d="M217.157 294.07V509.049" stroke="#64B2C4" stroke-opacity="0.18" stroke-width="0.518967"/>
<path d="M231.676 294.07V509.049" stroke="#64B2C4" stroke-opacity="0.18" stroke-width="0.518967"/>
<path d="M246.194 294.07V509.049" stroke="#64B2C4" stroke-opacity="0.18" stroke-width="0.518967"/>
<path d="M260.712 294.07V509.049" stroke="#64B2C4" stroke-opacity="0.18" stroke-width="0.518967"/>
<path d="M275.23 294.07V509.049" stroke="#64B2C4" stroke-opacity="0.18" stroke-width="0.518967"/>
<path d="M289.748 294.07V509.049" stroke="#64B2C4" stroke-opacity="0.18" stroke-width="0.518967"/>
<path d="M304.266 294.07V509.049" stroke="#64B2C4" stroke-opacity="0.18" stroke-width="0.518967"/>
<path d="M318.783 294.07V509.049" stroke="#64B2C4" stroke-opacity="0.18" stroke-width="0.518967"/>
<path d="M333.303 294.07V509.049" stroke="#64B2C4" stroke-opacity="0.18" stroke-width="0.518967"/>
<path d="M347.82 294.07V509.049" stroke="#64B2C4" stroke-opacity="0.18" stroke-width="0.518967"/>
<path d="M362.338 294.07V509.049" stroke="#64B2C4" stroke-opacity="0.18" stroke-width="0.518967"/>
<path d="M376.856 294.07V509.049" stroke="#64B2C4" stroke-opacity="0.18" stroke-width="0.518967"/>
<g filter="url(#filter2_f_634_8397)">
<rect x="304.416" y="107.949" width="272.759" height="301.262" transform="rotate(15 304.416 107.949)" fill="#0A2963"/>
</g>
<g filter="url(#filter3_f_634_8397)">
<rect x="-109.176" y="140.387" width="272.759" height="237.329" rx="118.664" transform="rotate(15 -109.176 140.387)" fill="#16C7FF" fill-opacity="0.56"/>
</g>
<path d="M-64.8594 535.302L-74.8223 -259.893L507.328 25.1661V501.198C471.687 508.738 385.283 523.818 324.674 523.818C248.912 523.818 173.73 516.177 100.259 516.177C26.7883 516.177 -34.3102 525.906 -64.8594 535.302Z" fill="url(#paint0_linear_634_8397)"/>
<path d="M144.834 488.519C145.27 486.987 146.473 485.794 148.008 485.369L148.485 485.238L148.008 485.106H148.008C146.473 484.682 145.27 483.488 144.834 481.957L144.697 481.48L144.561 481.957C144.125 483.488 142.922 484.682 141.387 485.106L140.91 485.238L141.386 485.369H141.387C142.922 485.794 144.125 486.987 144.561 488.519L144.697 488.995L144.834 488.519Z" fill="#9AC1FF" fill-opacity="0.32"/>
<path d="M133.452 386.277C133.565 385.88 133.877 385.571 134.274 385.461L134.398 385.427L134.275 385.392H134.274C133.877 385.282 133.565 384.973 133.452 384.576L133.417 384.453L133.381 384.576C133.268 384.973 132.957 385.282 132.559 385.392L132.436 385.427L132.559 385.461H132.559C132.957 385.571 133.268 385.88 133.381 386.277L133.417 386.4L133.452 386.277Z" fill="#FFF2AE" fill-opacity="0.84"/>
<g filter="url(#filter4_b_634_8397)">
<circle cx="127.914" cy="398.945" r="9.33014" fill="url(#paint1_linear_634_8397)"/>
</g>
<g filter="url(#filter5_b_634_8397)">
<circle cx="127.914" cy="398.945" r="11.8109" stroke="url(#paint2_linear_634_8397)" stroke-width="0.518967"/>
</g>
<path d="M130.712 396.271C130.74 395.989 130.74 395.735 130.74 395.424H125.09C125.09 395.735 125.09 395.989 125.118 396.271H123.395V396.554C123.395 399.068 126.587 400.848 127.35 401.244L127.35 402.204C127.35 402.685 126.982 403.052 126.502 403.052H125.937V404.182H129.892V403.052H129.327C128.847 403.052 128.48 402.685 128.48 402.204V401.244C129.242 400.848 132.435 399.068 132.435 396.554V396.272L130.712 396.271ZM123.988 396.837H125.174C125.287 398.108 125.598 399.012 125.937 399.662C125.033 398.956 124.101 397.967 123.988 396.837ZM129.921 399.662C130.26 399.012 130.571 398.108 130.684 396.837H131.87C131.729 397.967 130.797 398.956 129.921 399.662Z" fill="white" fill-opacity="0.69"/>
<g filter="url(#filter6_bd_634_8397)">
<rect x="12.3555" y="385.293" width="59.7817" height="74.7806" rx="3.63277" fill="url(#paint3_linear_634_8397)" shape-rendering="crispEdges"/>
<rect x="12.4852" y="385.423" width="59.5222" height="74.5211" rx="3.50302" stroke="url(#paint4_linear_634_8397)" stroke-width="0.259483" shape-rendering="crispEdges"/>
</g>
<g filter="url(#filter7_b_634_8397)">
<rect x="15.3535" y="388.117" width="53.7853" height="69.133" rx="1.03793" fill="url(#paint5_linear_634_8397)"/>
</g>
<rect x="26.2363" y="425.443" width="35.3585" height="1.99737" rx="0.998685" fill="#133F84" fill-opacity="0.49"/>
<rect x="21.8535" y="425.443" width="2.0197" height="1.99737" rx="0.998685" fill="#133F84" fill-opacity="0.49"/>
<rect x="26.2363" y="431.971" width="35.3585" height="1.99737" rx="0.998685" fill="#133F84" fill-opacity="0.49"/>
<rect x="21.8535" y="431.971" width="2.0197" height="1.99737" rx="0.998685" fill="#133F84" fill-opacity="0.49"/>
<rect x="26.2363" y="438.496" width="35.3585" height="1.99737" rx="0.998685" fill="#133F84" fill-opacity="0.49"/>
<rect x="21.8535" y="438.496" width="2.0197" height="1.99737" rx="0.998685" fill="#133F84" fill-opacity="0.49"/>
<g clip-path="url(#clip1_634_8397)">
<rect x="9.60449" y="384.455" width="105.014" height="12.2251" transform="rotate(45 9.60449 384.455)" fill="white" fill-opacity="0.12"/>
<rect x="6.84473" y="403.082" width="105.014" height="3.09214" transform="rotate(45 6.84473 403.082)" fill="white" fill-opacity="0.12"/>
</g>
<rect x="21.8545" y="400.238" width="10.4077" height="13.9074" rx="1.03793" fill="#6487C0"/>
<rect x="37.042" y="400.238" width="10.4077" height="13.9074" rx="1.03793" fill="#6487C0"/>
<rect x="52.2324" y="400.238" width="10.4077" height="13.9074" rx="1.03793" fill="#6487C0"/>
<path d="M93.5685 414.274L95.0666 411.679H92.0703L93.5685 414.274ZM41.8571 385.358V381.304H41.3382V385.358H41.8571ZM45.7494 377.412H89.4167V376.893H45.7494V377.412ZM93.309 381.304V411.939H93.8279V381.304H93.309ZM89.4167 377.412C91.5664 377.412 93.309 379.154 93.309 381.304H93.8279C93.8279 378.868 91.853 376.893 89.4167 376.893V377.412ZM41.8571 381.304C41.8571 379.154 43.5998 377.412 45.7494 377.412V376.893C43.3131 376.893 41.3382 378.868 41.3382 381.304H41.8571Z" fill="white" fill-opacity="0.3"/>
<rect x="79.1602" y="415.289" width="28.8145" height="54.0273" rx="3.63277" fill="#6895E0" fill-opacity="0.74"/>
<g filter="url(#filter8_b_634_8397)">
<rect x="80.958" y="417.17" width="25.2184" height="50.2648" rx="1.03793" fill="url(#paint6_linear_634_8397)"/>
</g>
<path d="M85.797 440.242C84.6599 440.242 83.7373 441.165 83.7373 442.302C83.7373 443.439 84.6599 444.361 85.797 444.361C86.9341 444.361 87.8566 443.439 87.8566 442.302C87.8566 441.165 86.9341 440.242 85.797 440.242ZM86.8568 441.804L85.6468 443.018C85.6082 443.057 85.5524 443.083 85.4966 443.083C85.4408 443.083 85.385 443.061 85.3464 443.018L84.7371 442.409C84.6513 442.323 84.6513 442.19 84.7371 442.104C84.823 442.019 84.956 442.019 85.0419 442.104L85.4968 442.559L86.5566 441.499C86.6424 441.414 86.7755 441.414 86.8613 441.499C86.9426 441.585 86.9426 441.718 86.8568 441.804L86.8568 441.804Z" fill="#5A7FBC"/>
<path d="M85.797 447.244C84.6599 447.244 83.7373 448.167 83.7373 449.304C83.7373 450.441 84.6599 451.363 85.797 451.363C86.9341 451.363 87.8566 450.441 87.8566 449.304C87.8566 448.167 86.9341 447.244 85.797 447.244ZM86.8568 448.806L85.6468 450.02C85.6082 450.059 85.5524 450.085 85.4966 450.085C85.4408 450.085 85.385 450.063 85.3464 450.02L84.7371 449.411C84.6513 449.325 84.6513 449.192 84.7371 449.106C84.823 449.021 84.956 449.021 85.0419 449.106L85.4968 449.561L86.5566 448.501C86.6424 448.416 86.7755 448.416 86.8613 448.501C86.9426 448.587 86.9426 448.72 86.8568 448.806L86.8568 448.806Z" fill="#5A7FBC"/>
<path d="M85.797 454.244C84.6599 454.244 83.7373 455.167 83.7373 456.304C83.7373 457.441 84.6599 458.363 85.797 458.363C86.9341 458.363 87.8566 457.441 87.8566 456.304C87.8566 455.167 86.9341 454.244 85.797 454.244ZM86.8568 455.806L85.6468 457.02C85.6082 457.059 85.5524 457.085 85.4966 457.085C85.4408 457.085 85.385 457.063 85.3464 457.02L84.7371 456.411C84.6513 456.325 84.6513 456.192 84.7371 456.106C84.823 456.021 84.956 456.021 85.0419 456.106L85.4968 456.561L86.5566 455.501C86.6424 455.416 86.7755 455.416 86.8613 455.501C86.9426 455.587 86.9426 455.72 86.8568 455.806L86.8568 455.806Z" fill="#5A7FBC"/>
<rect x="83.7373" y="422.873" width="8.53302" height="12.4042" rx="1.03793" fill="#4D7BC7" fill-opacity="0.69"/>
<rect x="94.8652" y="422.873" width="8.53302" height="12.4042" rx="1.03793" fill="#4D7BC7" fill-opacity="0.69"/>
<rect x="90.2959" y="441.582" width="13.1019" height="1.4409" rx="0.72045" fill="#133F84" fill-opacity="0.35"/>
<rect x="90.2959" y="448.582" width="13.1019" height="1.4409" rx="0.72045" fill="#133F84" fill-opacity="0.35"/>
<rect x="90.2959" y="455.584" width="13.1019" height="1.4409" rx="0.72045" fill="#133F84" fill-opacity="0.35"/>
<g opacity="0.75" clip-path="url(#clip2_634_8397)">
<rect x="60.915" y="397.967" width="105.014" height="12.2251" transform="rotate(45 60.915 397.967)" fill="white" fill-opacity="0.12"/>
<rect x="58.1562" y="416.592" width="105.014" height="3.09214" transform="rotate(45 58.1562 416.592)" fill="white" fill-opacity="0.12"/>
</g>
<path d="M362.267 412.416C362.157 412.306 361.978 412.306 361.868 412.416L360.076 414.209C359.966 414.319 359.966 414.497 360.076 414.607C360.186 414.717 360.364 414.717 360.474 414.607L362.068 413.014L363.661 414.607C363.771 414.717 363.95 414.717 364.06 414.607C364.17 414.497 364.17 414.319 364.06 414.209L362.267 412.416ZM332.836 464.424H357.56V463.861H332.836V464.424ZM362.349 459.635V412.615H361.786V459.635H362.349ZM357.56 464.424C360.205 464.424 362.349 462.28 362.349 459.635H361.786C361.786 461.969 359.894 463.861 357.56 463.861V464.424Z" fill="white" fill-opacity="0.3"/>
<path d="M291.108 412.758L288.291 411.131V414.384L291.108 412.758ZM275.012 456.024H273.962V456.588H275.012V456.024ZM271.86 456.024H269.759V456.588H271.86V456.024ZM267.657 456.024H265.556V456.588H267.657V456.024ZM263.454 456.024H261.353V456.588H263.454V456.024ZM259.251 456.024H258.201V456.588H259.251V456.024ZM258.201 456.024C257.918 456.024 257.642 455.997 257.376 455.944L257.266 456.497C257.569 456.557 257.881 456.588 258.201 456.588V456.024ZM255.853 455.313C255.392 455.004 254.995 454.607 254.687 454.146L254.218 454.46C254.568 454.982 255.018 455.432 255.54 455.781L255.853 455.313ZM254.056 452.624C254.003 452.357 253.975 452.081 253.975 451.799H253.412C253.412 452.118 253.443 452.431 253.503 452.733L254.056 452.624ZM253.975 451.799V450.72H253.412V451.799H253.975ZM253.975 448.561V446.403H253.412V448.561H253.975ZM253.975 444.245V442.086H253.412V444.245H253.975ZM253.975 439.928V437.77H253.412V439.928H253.975ZM253.975 435.611V433.453H253.412V435.611H253.975ZM253.975 431.294V429.136H253.412V431.294H253.975ZM253.975 426.978V424.819H253.412V426.978H253.975ZM253.975 422.661V420.503H253.412V422.661H253.975ZM253.975 418.344V417.265H253.412V418.344H253.975ZM253.975 417.265C253.975 416.983 254.003 416.707 254.056 416.44L253.503 416.331C253.443 416.633 253.412 416.946 253.412 417.265H253.975ZM254.687 414.918C254.995 414.457 255.392 414.06 255.853 413.751L255.54 413.283C255.018 413.632 254.568 414.082 254.218 414.604L254.687 414.918ZM257.376 413.12C257.642 413.067 257.918 413.04 258.201 413.04V412.476C257.881 412.476 257.569 412.507 257.266 412.567L257.376 413.12ZM258.201 413.04H259.376V412.476H258.201V413.04ZM261.726 413.04H264.077V412.476H261.726V413.04ZM266.428 413.04H268.778V412.476H266.428V413.04ZM271.129 413.04H273.479V412.476H271.129V413.04ZM275.83 413.04H278.18V412.476H275.83V413.04ZM280.531 413.04H282.881V412.476H280.531V413.04ZM285.232 413.04H287.582V412.476H285.232V413.04Z" fill="white" fill-opacity="0.3"/>
<g filter="url(#filter9_b_634_8397)">
<rect x="295.507" y="405.529" width="23.137" height="14.464" rx="1.07879" fill="url(#paint7_linear_634_8397)"/>
</g>
<path d="M296.099 406.342L306.296 416.077C306.731 416.492 307.417 416.492 307.852 416.077L318.05 406.342" stroke="white" stroke-opacity="0.3" stroke-width="0.563419"/>
<path d="M296.052 419.248L302.83 413.209" stroke="white" stroke-opacity="0.3" stroke-width="0.563419"/>
<path d="M318.05 419.248L311.271 413.209" stroke="white" stroke-opacity="0.3" stroke-width="0.563419"/>
<path d="M307.207 412.929C306.773 412.929 306.388 412.869 306.052 412.75C305.717 412.633 305.435 412.459 305.206 412.229C304.976 412.001 304.801 411.721 304.682 411.389C304.563 411.057 304.504 410.678 304.504 410.253C304.504 409.838 304.564 409.466 304.685 409.135C304.805 408.805 304.98 408.523 305.21 408.291C305.441 408.057 305.722 407.878 306.052 407.755C306.383 407.632 306.758 407.57 307.178 407.57C307.58 407.57 307.934 407.633 308.241 407.759C308.548 407.885 308.805 408.058 309.014 408.278C309.224 408.498 309.382 408.75 309.489 409.034C309.595 409.319 309.648 409.619 309.648 409.936C309.648 410.157 309.634 410.373 309.606 410.585C309.578 410.795 309.526 410.985 309.451 411.156C309.377 411.325 309.269 411.461 309.127 411.564C308.987 411.664 308.805 411.717 308.581 411.721C308.462 411.725 308.347 411.711 308.235 411.679C308.123 411.647 308.027 411.595 307.949 411.524C307.87 411.451 307.823 411.358 307.806 411.246H307.781C307.747 411.329 307.691 411.406 307.613 411.477C307.534 411.547 307.434 411.603 307.312 411.645C307.192 411.686 307.052 411.703 306.892 411.696C306.716 411.689 306.557 411.649 306.415 411.576C306.274 411.503 306.153 411.402 306.052 411.274C305.953 411.145 305.876 410.992 305.823 410.816C305.77 410.639 305.743 410.443 305.743 410.228C305.743 410.02 305.773 409.835 305.834 409.671C305.894 409.506 305.976 409.364 306.079 409.244C306.184 409.124 306.305 409.029 306.441 408.959C306.576 408.889 306.72 408.845 306.871 408.826C307.018 408.81 307.153 408.814 307.277 408.839C307.4 408.864 307.502 408.903 307.583 408.955C307.666 409.006 307.718 409.063 307.739 409.125H307.766V408.889H308.283V410.839C308.283 410.949 308.312 411.043 308.369 411.12C308.428 411.197 308.511 411.236 308.619 411.236C308.746 411.236 308.846 411.189 308.917 411.095C308.99 411.001 309.041 410.857 309.071 410.662C309.101 410.468 309.117 410.218 309.117 409.915C309.117 409.702 309.088 409.501 309.031 409.314C308.975 409.125 308.891 408.954 308.781 408.801C308.671 408.647 308.537 408.515 308.377 408.404C308.218 408.294 308.036 408.208 307.831 408.148C307.628 408.088 307.403 408.058 307.157 408.058C306.822 408.058 306.525 408.109 306.264 408.213C306.004 408.315 305.784 408.463 305.605 408.656C305.427 408.85 305.292 409.081 305.199 409.352C305.108 409.62 305.063 409.922 305.063 410.257C305.063 410.606 305.11 410.915 305.203 411.185C305.297 411.454 305.436 411.681 305.619 411.866C305.803 412.051 306.03 412.191 306.3 412.286C306.57 412.383 306.882 412.431 307.235 412.431C307.392 412.431 307.546 412.417 307.697 412.389C307.848 412.362 307.982 412.332 308.1 412.297C308.219 412.263 308.308 412.236 308.367 412.215L308.514 412.675C308.427 412.715 308.312 412.755 308.167 412.794C308.024 412.834 307.869 412.866 307.701 412.891C307.534 412.916 307.37 412.929 307.207 412.929ZM307.014 411.181C307.196 411.181 307.342 411.145 307.453 411.072C307.565 410.999 307.646 410.891 307.695 410.746C307.745 410.601 307.77 410.419 307.77 410.2C307.769 409.987 307.742 409.818 307.688 409.692C307.637 409.564 307.555 409.473 307.445 409.419C307.335 409.363 307.195 409.335 307.023 409.335C306.864 409.335 306.729 409.373 306.617 409.45C306.506 409.527 306.422 409.632 306.363 409.763C306.306 409.895 306.276 410.041 306.275 410.202C306.276 410.372 306.3 410.531 306.346 410.681C306.394 410.83 306.471 410.95 306.577 411.043C306.685 411.135 306.831 411.181 307.014 411.181Z" fill="white" fill-opacity="0.66"/>
<g filter="url(#filter10_bd_634_8397)">
<rect x="272.533" y="433.043" width="69.0818" height="49.5351" rx="4.46893" fill="url(#paint8_linear_634_8397)" shape-rendering="crispEdges"/>
<rect x="272.693" y="433.203" width="68.7626" height="49.2159" rx="4.30932" stroke="url(#paint9_linear_634_8397)" stroke-width="0.319209" shape-rendering="crispEdges"/>
</g>
<g filter="url(#filter11_b_634_8397)">
<rect x="274.4" y="434.766" width="65.35" height="46.0917" rx="3.19209" fill="url(#paint10_linear_634_8397)"/>
</g>
<g filter="url(#filter12_bd_634_8397)">
<mask id="path-92-inside-1_634_8397" fill="white">
<path fill-rule="evenodd" clip-rule="evenodd" d="M299.744 483.281C299.656 483.284 299.585 483.357 299.585 483.447C299.585 484.059 300.081 484.556 300.694 484.556H313.46C314.073 484.556 314.569 484.059 314.569 483.447C314.569 483.357 314.498 483.284 314.409 483.281H344.655C345.008 483.281 345.294 483.567 345.294 483.92V485.514C345.294 487.873 343.382 489.784 341.024 489.784H273.127C270.769 489.784 268.857 487.873 268.857 485.514V483.92C268.857 483.567 269.143 483.281 269.496 483.281H299.744Z"/>
</mask>
<path fill-rule="evenodd" clip-rule="evenodd" d="M299.744 483.281C299.656 483.284 299.585 483.357 299.585 483.447C299.585 484.059 300.081 484.556 300.694 484.556H313.46C314.073 484.556 314.569 484.059 314.569 483.447C314.569 483.357 314.498 483.284 314.409 483.281H344.655C345.008 483.281 345.294 483.567 345.294 483.92V485.514C345.294 487.873 343.382 489.784 341.024 489.784H273.127C270.769 489.784 268.857 487.873 268.857 485.514V483.92C268.857 483.567 269.143 483.281 269.496 483.281H299.744Z" fill="url(#paint11_linear_634_8397)" shape-rendering="crispEdges"/>
<path d="M299.744 483.281L299.756 483.6L299.744 482.962V483.281ZM314.409 483.281V482.962L314.398 483.6L314.409 483.281ZM299.904 483.447C299.904 483.53 299.838 483.597 299.756 483.6L299.733 482.962C299.473 482.972 299.265 483.185 299.265 483.447H299.904ZM300.694 484.237C300.257 484.237 299.904 483.883 299.904 483.447H299.265C299.265 484.236 299.905 484.875 300.694 484.875V484.237ZM313.46 484.237H300.694V484.875H313.46V484.237ZM314.25 483.447C314.25 483.883 313.896 484.237 313.46 484.237V484.875C314.249 484.875 314.888 484.236 314.888 483.447H314.25ZM314.398 483.6C314.316 483.597 314.25 483.53 314.25 483.447H314.888C314.888 483.185 314.681 482.972 314.421 482.962L314.398 483.6ZM314.409 483.6H344.655V482.962H314.409V483.6ZM344.655 483.6C344.831 483.6 344.974 483.743 344.974 483.92H345.613C345.613 483.391 345.184 482.962 344.655 482.962V483.6ZM344.974 483.92V485.514H345.613V483.92H344.974ZM344.974 485.514C344.974 487.696 343.206 489.465 341.024 489.465V490.103C343.558 490.103 345.613 488.049 345.613 485.514H344.974ZM341.024 489.465H273.127V490.103H341.024V489.465ZM273.127 489.465C270.945 489.465 269.177 487.696 269.177 485.514H268.538C268.538 488.049 270.593 490.103 273.127 490.103V489.465ZM269.177 485.514V483.92H268.538V485.514H269.177ZM269.177 483.92C269.177 483.743 269.32 483.6 269.496 483.6V482.962C268.967 482.962 268.538 483.391 268.538 483.92H269.177ZM269.496 483.6H299.744V482.962H269.496V483.6Z" fill="url(#paint12_linear_634_8397)" fill-opacity="0.5" mask="url(#path-92-inside-1_634_8397)"/>
</g>
<path d="M301.449 434.105H312.699V435.521C312.699 435.874 312.413 436.16 312.06 436.16H302.088C301.735 436.16 301.449 435.874 301.449 435.521V434.105Z" fill="#89B0EE"/>
<path fill-rule="evenodd" clip-rule="evenodd" d="M285.898 445.447C285.898 444.389 286.756 443.531 287.814 443.531H304.089C305.147 443.531 306.004 444.389 306.004 445.447V454.634C306.004 455.692 305.147 456.549 304.089 456.549H300.692C300.93 456.537 301.119 456.341 301.119 456.1C301.119 453.25 298.8 450.931 295.95 450.931C293.1 450.931 290.781 453.25 290.781 456.1C290.781 456.341 290.97 456.537 291.208 456.549H287.814C286.756 456.549 285.898 455.692 285.898 454.634V445.447ZM298.995 447.456C298.995 449.137 297.631 450.501 295.95 450.501C294.268 450.501 292.904 449.138 292.904 447.456C292.904 445.774 294.268 444.411 295.95 444.411C297.631 444.411 298.995 445.774 298.995 447.456Z" fill="#3F67A8"/>
<path fill-rule="evenodd" clip-rule="evenodd" d="M285.898 460.986C285.898 459.928 286.756 459.07 287.814 459.07H304.089C305.147 459.07 306.004 459.928 306.004 460.986V470.173C306.004 471.231 305.147 472.088 304.089 472.088H287.814C286.756 472.088 285.898 471.231 285.898 470.173V460.986ZM298.995 462.994C298.995 464.676 297.631 466.039 295.95 466.039C294.268 466.039 292.905 464.676 292.905 462.994C292.905 461.312 294.268 459.949 295.95 459.949C297.631 459.949 298.995 461.312 298.995 462.994ZM301.119 471.639C301.119 471.887 300.918 472.088 300.67 472.088H291.23C290.982 472.088 290.781 471.887 290.781 471.639C290.781 468.788 293.1 466.469 295.95 466.469C298.8 466.469 301.119 468.788 301.119 471.639Z" fill="#3F67A8"/>
<path fill-rule="evenodd" clip-rule="evenodd" d="M308.148 445.447C308.148 444.389 309.006 443.531 310.064 443.531H326.339C327.397 443.531 328.254 444.389 328.254 445.447V454.634C328.254 455.692 327.397 456.549 326.339 456.549H322.946C323.183 456.536 323.37 456.34 323.37 456.1C323.37 453.25 321.052 450.931 318.201 450.931C315.351 450.931 313.032 453.25 313.032 456.1C313.032 456.34 313.22 456.536 313.456 456.549H310.064C309.006 456.549 308.148 455.692 308.148 454.634V445.447ZM321.246 447.456C321.246 449.138 319.882 450.501 318.201 450.501C316.518 450.501 315.155 449.138 315.155 447.456C315.155 445.774 316.518 444.411 318.201 444.411C319.882 444.411 321.246 445.774 321.246 447.456Z" fill="#3F67A8"/>
<path fill-rule="evenodd" clip-rule="evenodd" d="M308.148 460.986C308.148 459.928 309.006 459.07 310.064 459.07H326.339C327.397 459.07 328.254 459.928 328.254 460.986V470.173C328.254 471.231 327.397 472.088 326.339 472.088H310.064C309.006 472.088 308.148 471.231 308.148 470.173V460.986ZM321.248 462.994C321.248 464.676 319.884 466.039 318.202 466.039C316.52 466.039 315.157 464.676 315.157 462.994C315.157 461.312 316.52 459.949 318.202 459.949C319.884 459.949 321.248 461.312 321.248 462.994ZM323.372 471.639C323.372 471.887 323.17 472.088 322.922 472.088H313.483C313.235 472.088 313.033 471.887 313.033 471.639C313.033 468.788 315.352 466.469 318.202 466.469C321.053 466.469 323.372 468.788 323.372 471.639Z" fill="#3F67A8"/>
<g filter="url(#filter13_bd_634_8397)">
<path fill-rule="evenodd" clip-rule="evenodd" d="M350.041 437.441C350.975 437.441 351.731 438.198 351.731 439.132V445.091C351.731 446.025 350.975 446.782 350.041 446.782H327.39L324.929 449.831C324.595 450.244 323.927 450.008 323.927 449.477V446.782H323.235C322.301 446.782 321.545 446.025 321.545 445.091V439.132C321.545 438.198 322.301 437.441 323.235 437.441H350.041Z" fill="url(#paint13_linear_634_8397)"/>
</g>
<rect x="326.585" y="440.156" width="20.8779" height="1.46061" fill="#C7E8FA"/>
<rect x="326.585" y="442.65" width="16.6757" height="1.46061" fill="#C7E8FA"/>
<rect x="337.592" y="373.52" width="41.89" height="45.7285" rx="1.69026" fill="#D9D9D9" fill-opacity="0.04"/>
<g filter="url(#filter14_b_634_8397)">
<rect x="334.72" y="365.824" width="39.4432" height="48.1484" rx="2.25368" fill="url(#paint14_linear_634_8397)" fill-opacity="0.8"/>
</g>
<rect x="340.4" y="383.381" width="28.088" height="3.49785" rx="1.74893" stroke="white" stroke-opacity="0.55" stroke-width="0.539396"/>
<rect x="340.4" y="377" width="28.088" height="3.49785" rx="1.74893" stroke="white" stroke-opacity="0.55" stroke-width="0.539396"/>
<rect x="340.13" y="393.217" width="28.6274" height="1.38057" rx="0.690284" fill="white" fill-opacity="0.55"/>
<rect x="340.13" y="398.803" width="28.6274" height="1.38057" rx="0.690284" fill="white" fill-opacity="0.55"/>
<rect x="340.13" y="404.391" width="15.9649" height="1.38057" rx="0.690284" fill="white" fill-opacity="0.55"/>
<path d="M367.515 397.235L364.823 394.543L365.466 393.9L368.157 396.592L367.515 397.235Z" fill="#0F3A8A"/>
<path d="M360.348 404.41L357.657 401.718L364.357 395.02L367.048 397.712L360.348 404.41Z" fill="#0F3A8A"/>
<path d="M369.219 395.563C369.652 395.131 369.652 394.438 369.219 394.006L368.094 392.881C367.662 392.448 366.926 392.448 366.537 392.881L365.975 393.443L368.7 396.169L369.219 395.563Z" fill="#0F3A8A"/>
<path d="M356.112 405.512C356.068 405.642 356.112 405.772 356.198 405.858C356.241 405.901 356.328 405.945 356.415 405.945H356.544L359.789 404.777L357.28 402.268L356.112 405.512Z" fill="#0F3A8A"/>
<path opacity="0.55" d="M343.185 377.874V379.188H343.003L342.335 378.224H342.323V379.188H342.125V377.874H342.308L342.976 378.839H342.989V377.874H343.185ZM343.771 379.209C343.709 379.209 343.652 379.198 343.602 379.175C343.551 379.151 343.511 379.117 343.482 379.073C343.453 379.028 343.438 378.974 343.438 378.909C343.438 378.854 343.449 378.808 343.47 378.772C343.492 378.736 343.52 378.708 343.557 378.687C343.593 378.666 343.634 378.65 343.679 378.639C343.724 378.628 343.769 378.62 343.816 378.615C343.875 378.608 343.923 378.602 343.96 378.598C343.996 378.593 344.023 378.586 344.04 378.576C344.056 378.565 344.065 378.549 344.065 378.526V378.521C344.065 378.465 344.049 378.422 344.017 378.391C343.986 378.36 343.939 378.345 343.877 378.345C343.813 378.345 343.762 378.359 343.725 378.388C343.688 378.416 343.663 378.447 343.649 378.482L343.468 378.441C343.49 378.381 343.521 378.333 343.562 378.296C343.603 378.259 343.651 378.232 343.705 378.215C343.759 378.198 343.816 378.19 343.875 378.19C343.914 378.19 343.956 378.194 344 378.204C344.044 378.213 344.086 378.229 344.124 378.254C344.163 378.278 344.195 378.313 344.22 378.358C344.245 378.403 344.257 378.462 344.257 378.533V379.188H344.07V379.053H344.062C344.05 379.078 344.031 379.102 344.006 379.126C343.982 379.15 343.95 379.17 343.911 379.186C343.872 379.201 343.825 379.209 343.771 379.209ZM343.813 379.055C343.866 379.055 343.911 379.045 343.949 379.024C343.987 379.003 344.016 378.976 344.035 378.942C344.055 378.908 344.065 378.871 344.065 378.832V378.705C344.059 378.712 344.045 378.718 344.026 378.724C344.006 378.73 343.984 378.735 343.96 378.739C343.935 378.743 343.911 378.747 343.887 378.75C343.864 378.753 343.844 378.756 343.828 378.758C343.791 378.763 343.757 378.77 343.726 378.782C343.696 378.793 343.671 378.809 343.653 378.83C343.635 378.85 343.626 378.878 343.626 378.912C343.626 378.959 343.644 378.995 343.679 379.019C343.714 379.043 343.758 379.055 343.813 379.055ZM344.538 379.188V378.202H344.722V378.363H344.735C344.755 378.308 344.789 378.266 344.835 378.236C344.882 378.205 344.938 378.19 345.003 378.19C345.069 378.19 345.124 378.205 345.168 378.236C345.213 378.267 345.246 378.309 345.268 378.363H345.278C345.301 378.31 345.339 378.268 345.39 378.237C345.441 378.205 345.502 378.19 345.573 378.19C345.663 378.19 345.736 378.218 345.792 378.274C345.849 378.33 345.877 378.414 345.877 378.527V379.188H345.686V378.545C345.686 378.478 345.668 378.43 345.631 378.4C345.595 378.37 345.551 378.355 345.501 378.355C345.439 378.355 345.39 378.374 345.355 378.413C345.321 378.451 345.303 378.5 345.303 378.56V379.188H345.112V378.533C345.112 378.479 345.096 378.436 345.062 378.404C345.029 378.371 344.986 378.355 344.932 378.355C344.896 378.355 344.862 378.365 344.831 378.384C344.801 378.403 344.777 378.429 344.758 378.463C344.739 378.497 344.73 378.536 344.73 378.58V379.188H344.538ZM346.585 379.207C346.488 379.207 346.404 379.187 346.334 379.145C346.264 379.103 346.211 379.044 346.172 378.969C346.135 378.893 346.116 378.804 346.116 378.701C346.116 378.6 346.135 378.512 346.172 378.435C346.211 378.358 346.264 378.298 346.332 378.254C346.4 378.211 346.48 378.19 346.571 378.19C346.627 378.19 346.681 378.199 346.733 378.217C346.785 378.236 346.832 378.264 346.873 378.304C346.915 378.343 346.948 378.394 346.972 378.457C346.995 378.519 347.007 378.595 347.007 378.685V378.753H346.224V378.609H346.82C346.82 378.559 346.809 378.514 346.789 378.475C346.768 378.436 346.739 378.405 346.702 378.382C346.665 378.359 346.622 378.348 346.573 378.348C346.519 378.348 346.472 378.361 346.432 378.388C346.392 378.414 346.361 378.448 346.339 378.49C346.318 378.532 346.307 378.578 346.307 378.627V378.739C346.307 378.805 346.319 378.861 346.342 378.907C346.365 378.953 346.398 378.989 346.44 379.013C346.482 379.037 346.531 379.049 346.587 379.049C346.623 379.049 346.656 379.044 346.686 379.034C346.716 379.023 346.742 379.007 346.764 378.986C346.786 378.965 346.802 378.939 346.814 378.909L346.995 378.941C346.981 378.995 346.955 379.041 346.917 379.082C346.88 379.121 346.833 379.152 346.777 379.175C346.721 379.196 346.657 379.207 346.585 379.207Z" fill="white"/>
<path opacity="0.55" d="M342.125 385.463V384.149H342.948V384.32H342.323V384.72H342.905V384.89H342.323V385.292H342.956V385.463H342.125ZM343.223 385.463V384.478H343.407V384.638H343.42C343.44 384.584 343.474 384.542 343.52 384.511C343.567 384.48 343.623 384.465 343.688 384.465C343.754 384.465 343.809 384.48 343.853 384.511C343.898 384.542 343.931 384.584 343.953 384.638H343.963C343.986 384.586 344.024 384.544 344.075 384.512C344.126 384.481 344.187 384.465 344.258 384.465C344.348 384.465 344.421 384.493 344.477 384.549C344.534 384.605 344.562 384.689 344.562 384.802V385.463H344.371V384.82C344.371 384.754 344.353 384.705 344.316 384.675C344.28 384.645 344.236 384.63 344.186 384.63C344.124 384.63 344.075 384.65 344.04 384.688C344.006 384.726 343.988 384.775 343.988 384.835V385.463H343.797V384.808C343.797 384.755 343.781 384.712 343.747 384.679C343.714 384.647 343.671 384.63 343.617 384.63C343.581 384.63 343.547 384.64 343.516 384.659C343.486 384.678 343.461 384.704 343.443 384.738C343.424 384.772 343.415 384.811 343.415 384.856V385.463H343.223ZM345.132 385.485C345.069 385.485 345.013 385.473 344.963 385.45C344.912 385.427 344.872 385.393 344.843 385.348C344.814 385.304 344.799 385.249 344.799 385.185C344.799 385.129 344.81 385.083 344.831 385.047C344.853 385.011 344.881 384.983 344.918 384.962C344.954 384.941 344.995 384.925 345.04 384.915C345.084 384.904 345.13 384.896 345.177 384.89C345.236 384.883 345.284 384.878 345.32 384.874C345.357 384.869 345.384 384.861 345.401 384.851C345.417 384.841 345.426 384.824 345.426 384.801V384.797C345.426 384.741 345.41 384.697 345.378 384.666C345.347 384.636 345.3 384.62 345.238 384.62C345.174 384.62 345.123 384.635 345.086 384.663C345.049 384.691 345.024 384.723 345.009 384.757L344.829 384.716C344.851 384.657 344.882 384.608 344.923 384.571C344.964 384.534 345.012 384.507 345.066 384.491C345.12 384.474 345.176 384.465 345.236 384.465C345.275 384.465 345.317 384.47 345.361 384.479C345.405 384.488 345.447 384.505 345.485 384.529C345.524 384.553 345.556 384.588 345.581 384.634C345.606 384.679 345.618 384.737 345.618 384.809V385.463H345.431V385.328H345.423C345.411 385.353 345.392 385.377 345.367 385.401C345.342 385.425 345.311 385.445 345.272 385.461C345.233 385.477 345.186 385.485 345.132 385.485ZM345.174 385.331C345.227 385.331 345.272 385.32 345.31 385.299C345.348 385.278 345.376 385.251 345.396 385.217C345.416 385.183 345.426 385.147 345.426 385.108V384.981C345.419 384.987 345.406 384.994 345.387 385C345.367 385.005 345.345 385.01 345.32 385.015C345.296 385.018 345.272 385.022 345.248 385.026C345.224 385.028 345.205 385.031 345.189 385.033C345.152 385.038 345.118 385.046 345.087 385.057C345.057 385.068 345.032 385.084 345.014 385.105C344.996 385.126 344.987 385.153 344.987 385.187C344.987 385.235 345.005 385.27 345.04 385.295C345.075 385.319 345.119 385.331 345.174 385.331ZM345.899 385.463V384.478H346.091V385.463H345.899ZM345.996 384.326C345.963 384.326 345.934 384.315 345.91 384.292C345.887 384.27 345.875 384.243 345.875 384.212C345.875 384.18 345.887 384.153 345.91 384.131C345.934 384.108 345.963 384.097 345.996 384.097C346.029 384.097 346.058 384.108 346.081 384.131C346.105 384.153 346.117 384.18 346.117 384.212C346.117 384.243 346.105 384.27 346.081 384.292C346.058 384.315 346.029 384.326 345.996 384.326ZM346.567 384.149V385.463H346.375V384.149H346.567Z" fill="white"/>
<g filter="url(#filter15_d_634_8397)">
<g filter="url(#filter16_b_634_8397)">
<path d="M346.679 411.469C343.902 414.246 339.399 414.246 336.622 411.469C333.844 408.692 333.844 404.189 336.622 401.412C339.399 398.634 343.902 398.634 346.679 401.412C349.456 404.189 349.456 408.692 346.679 411.469ZM337.723 402.513C335.554 404.682 335.554 408.199 337.723 410.367C339.892 412.536 343.409 412.536 345.578 410.367C347.746 408.199 347.746 404.682 345.578 402.513C343.409 400.344 339.892 400.344 337.723 402.513Z" fill="url(#paint15_linear_634_8397)" fill-opacity="0.8"/>
</g>
<g filter="url(#filter17_b_634_8397)">
<circle cx="341.65" cy="406.439" r="5.78252" transform="rotate(45 341.65 406.439)" fill="#196F9F" fill-opacity="0.25"/>
</g>
<path fill-rule="evenodd" clip-rule="evenodd" d="M336.775 405.275C336.686 405.65 336.639 406.041 336.639 406.443C336.639 409.21 338.882 411.454 341.65 411.454C344.418 411.454 346.661 409.21 346.661 406.443C346.661 406.041 346.614 405.65 346.525 405.275C345.999 407.48 344.016 409.119 341.65 409.119C339.284 409.119 337.301 407.48 336.775 405.275Z" fill="url(#paint16_linear_634_8397)" fill-opacity="0.5"/>
<g filter="url(#filter18_b_634_8397)">
<path d="M347.324 410.734L352.252 415.662C352.633 416.043 352.633 416.662 352.252 417.043C351.87 417.425 351.251 417.425 350.87 417.043L345.942 412.116L347.324 410.734Z" fill="url(#paint17_linear_634_8397)" fill-opacity="0.8"/>
</g>
</g>
<path d="M343.741 405.732C343.936 405.045 344.476 404.509 345.165 404.319L345.379 404.26L345.165 404.201H345.165C344.476 404.01 343.936 403.475 343.741 402.788L343.68 402.574L343.618 402.788C343.423 403.475 342.883 404.01 342.194 404.201L341.98 404.26L342.194 404.319H342.194C342.883 404.509 343.423 405.045 343.618 405.732L343.68 405.945L343.741 405.732Z" fill="white" fill-opacity="0.72"/>
</g>
<defs>
<filter id="filter0_f_634_8397" x="-59.4808" y="-11.9749" width="858.34" height="285.274" filterUnits="userSpaceOnUse" color-interpolation-filters="sRGB">
<feFlood flood-opacity="0" result="BackgroundImageFix"/>
<feBlend mode="normal" in="SourceGraphic" in2="BackgroundImageFix" result="shape"/>
<feGaussianBlur stdDeviation="8.82243" result="effect1_foregroundBlur_634_8397"/>
</filter>
<filter id="filter1_f_634_8397" x="-96.8356" y="122.324" width="609.802" height="432.009" filterUnits="userSpaceOnUse" color-interpolation-filters="sRGB">
<feFlood flood-opacity="0" result="BackgroundImageFix"/>
<feBlend mode="normal" in="SourceGraphic" in2="BackgroundImageFix" result="shape"/>
<feGaussianBlur stdDeviation="60.7191" result="effect1_foregroundBlur_634_8397"/>
</filter>
<filter id="filter2_f_634_8397" x="105.005" y="-13.489" width="584.314" height="604.468" filterUnits="userSpaceOnUse" color-interpolation-filters="sRGB">
<feFlood flood-opacity="0" result="BackgroundImageFix"/>
<feBlend mode="normal" in="SourceGraphic" in2="BackgroundImageFix" result="shape"/>
<feGaussianBlur stdDeviation="60.7191" result="effect1_foregroundBlur_634_8397"/>
</filter>
<filter id="filter3_f_634_8397" x="-308.473" y="2.51492" width="600.635" height="575.581" filterUnits="userSpaceOnUse" color-interpolation-filters="sRGB">
<feFlood flood-opacity="0" result="BackgroundImageFix"/>
<feBlend mode="normal" in="SourceGraphic" in2="BackgroundImageFix" result="shape"/>
<feGaussianBlur stdDeviation="82.2562" result="effect1_foregroundBlur_634_8397"/>
</filter>
<filter id="filter4_b_634_8397" x="116.508" y="387.539" width="22.8119" height="22.8119" filterUnits="userSpaceOnUse" color-interpolation-filters="sRGB">
<feFlood flood-opacity="0" result="BackgroundImageFix"/>
<feGaussianBlur in="BackgroundImageFix" stdDeviation="1.03793"/>
<feComposite in2="SourceAlpha" operator="in" result="effect1_backgroundBlur_634_8397"/>
<feBlend mode="normal" in="SourceGraphic" in2="effect1_backgroundBlur_634_8397" result="shape"/>
</filter>
<filter id="filter5_b_634_8397" x="113.768" y="384.799" width="28.2924" height="28.2924" filterUnits="userSpaceOnUse" color-interpolation-filters="sRGB">
<feFlood flood-opacity="0" result="BackgroundImageFix"/>
<feGaussianBlur in="BackgroundImageFix" stdDeviation="1.03793"/>
<feComposite in2="SourceAlpha" operator="in" result="effect1_backgroundBlur_634_8397"/>
<feBlend mode="normal" in="SourceGraphic" in2="effect1_backgroundBlur_634_8397" result="shape"/>
</filter>
<filter id="filter6_bd_634_8397" x="10.2796" y="383.217" width="73.7933" height="95.5399" filterUnits="userSpaceOnUse" color-interpolation-filters="sRGB">
<feFlood flood-opacity="0" result="BackgroundImageFix"/>
<feGaussianBlur in="BackgroundImageFix" stdDeviation="1.03793"/>
<feComposite in2="SourceAlpha" operator="in" result="effect1_backgroundBlur_634_8397"/>
<feColorMatrix in="SourceAlpha" type="matrix" values="0 0 0 0 0 0 0 0 0 0 0 0 0 0 0 0 0 0 127 0" result="hardAlpha"/>
<feOffset dx="9.86037" dy="16.6069"/>
<feGaussianBlur stdDeviation="1.03793"/>
<feComposite in2="hardAlpha" operator="out"/>
<feColorMatrix type="matrix" values="0 0 0 0 0.0319739 0 0 0 0 0.0236979 0 0 0 0 0.4375 0 0 0 0.05 0"/>
<feBlend mode="normal" in2="effect1_backgroundBlur_634_8397" result="effect2_dropShadow_634_8397"/>
<feBlend mode="normal" in="SourceGraphic" in2="effect2_dropShadow_634_8397" result="shape"/>
</filter>
<filter id="filter7_b_634_8397" x="13.2776" y="386.041" width="57.9369" height="73.2845" filterUnits="userSpaceOnUse" color-interpolation-filters="sRGB">
<feFlood flood-opacity="0" result="BackgroundImageFix"/>
<feGaussianBlur in="BackgroundImageFix" stdDeviation="1.03793"/>
<feComposite in2="SourceAlpha" operator="in" result="effect1_backgroundBlur_634_8397"/>
<feBlend mode="normal" in="SourceGraphic" in2="effect1_backgroundBlur_634_8397" result="shape"/>
</filter>
<filter id="filter8_b_634_8397" x="78.8821" y="415.094" width="29.3705" height="54.4174" filterUnits="userSpaceOnUse" color-interpolation-filters="sRGB">
<feFlood flood-opacity="0" result="BackgroundImageFix"/>
<feGaussianBlur in="BackgroundImageFix" stdDeviation="1.03793"/>
<feComposite in2="SourceAlpha" operator="in" result="effect1_backgroundBlur_634_8397"/>
<feBlend mode="normal" in="SourceGraphic" in2="effect1_backgroundBlur_634_8397" result="shape"/>
</filter>
<filter id="filter9_b_634_8397" x="293.253" y="403.276" width="27.6441" height="18.9722" filterUnits="userSpaceOnUse" color-interpolation-filters="sRGB">
<feFlood flood-opacity="0" result="BackgroundImageFix"/>
<feGaussianBlur in="BackgroundImageFix" stdDeviation="1.12684"/>
<feComposite in2="SourceAlpha" operator="in" result="effect1_backgroundBlur_634_8397"/>
<feBlend mode="normal" in="SourceGraphic" in2="effect1_backgroundBlur_634_8397" result="shape"/>
</filter>
<filter id="filter10_bd_634_8397" x="269.98" y="430.489" width="86.3193" height="75.0719" filterUnits="userSpaceOnUse" color-interpolation-filters="sRGB">
<feFlood flood-opacity="0" result="BackgroundImageFix"/>
<feGaussianBlur in="BackgroundImageFix" stdDeviation="1.27684"/>
<feComposite in2="SourceAlpha" operator="in" result="effect1_backgroundBlur_634_8397"/>
<feColorMatrix in="SourceAlpha" type="matrix" values="0 0 0 0 0 0 0 0 0 0 0 0 0 0 0 0 0 0 127 0" result="hardAlpha"/>
<feOffset dx="12.1299" dy="20.4294"/>
<feGaussianBlur stdDeviation="1.27684"/>
<feComposite in2="hardAlpha" operator="out"/>
<feColorMatrix type="matrix" values="0 0 0 0 0.0319739 0 0 0 0 0.0236979 0 0 0 0 0.4375 0 0 0 0.05 0"/>
<feBlend mode="normal" in2="effect1_backgroundBlur_634_8397" result="effect2_dropShadow_634_8397"/>
<feBlend mode="normal" in="SourceGraphic" in2="effect2_dropShadow_634_8397" result="shape"/>
</filter>
<filter id="filter11_b_634_8397" x="271.847" y="432.212" width="70.457" height="51.1991" filterUnits="userSpaceOnUse" color-interpolation-filters="sRGB">
<feFlood flood-opacity="0" result="BackgroundImageFix"/>
<feGaussianBlur in="BackgroundImageFix" stdDeviation="1.27684"/>
<feComposite in2="SourceAlpha" operator="in" result="effect1_backgroundBlur_634_8397"/>
<feBlend mode="normal" in="SourceGraphic" in2="effect1_backgroundBlur_634_8397" result="shape"/>
</filter>
<filter id="filter12_bd_634_8397" x="266.304" y="480.728" width="93.6738" height="32.0406" filterUnits="userSpaceOnUse" color-interpolation-filters="sRGB">
<feFlood flood-opacity="0" result="BackgroundImageFix"/>
<feGaussianBlur in="BackgroundImageFix" stdDeviation="1.27684"/>
<feComposite in2="SourceAlpha" operator="in" result="effect1_backgroundBlur_634_8397"/>
<feColorMatrix in="SourceAlpha" type="matrix" values="0 0 0 0 0 0 0 0 0 0 0 0 0 0 0 0 0 0 127 0" result="hardAlpha"/>
<feOffset dx="12.1299" dy="20.4294"/>
<feGaussianBlur stdDeviation="1.27684"/>
<feComposite in2="hardAlpha" operator="out"/>
<feColorMatrix type="matrix" values="0 0 0 0 0.0319739 0 0 0 0 0.0236979 0 0 0 0 0.4375 0 0 0 0.05 0"/>
<feBlend mode="normal" in2="effect1_backgroundBlur_634_8397" result="effect2_dropShadow_634_8397"/>
<feBlend mode="normal" in="SourceGraphic" in2="effect2_dropShadow_634_8397" result="shape"/>
</filter>
<filter id="filter13_bd_634_8397" x="319.291" y="435.751" width="34.1305" height="19.9241" filterUnits="userSpaceOnUse" color-interpolation-filters="sRGB">
<feFlood flood-opacity="0" result="BackgroundImageFix"/>
<feGaussianBlur in="BackgroundImageFix" stdDeviation="0.845129"/>
<feComposite in2="SourceAlpha" operator="in" result="effect1_backgroundBlur_634_8397"/>
<feColorMatrix in="SourceAlpha" type="matrix" values="0 0 0 0 0 0 0 0 0 0 0 0 0 0 0 0 0 0 127 0" result="hardAlpha"/>
<feOffset dx="-1.69026" dy="5.07078"/>
<feGaussianBlur stdDeviation="0.28171"/>
<feColorMatrix type="matrix" values="0 0 0 0 0.02625 0 0 0 0 0.0392 0 0 0 0 0.35 0 0 0 0.06 0"/>
<feBlend mode="normal" in2="effect1_backgroundBlur_634_8397" result="effect2_dropShadow_634_8397"/>
<feBlend mode="normal" in="SourceGraphic" in2="effect2_dropShadow_634_8397" result="shape"/>
</filter>
<filter id="filter14_b_634_8397" x="326.268" y="357.373" width="56.3459" height="65.051" filterUnits="userSpaceOnUse" color-interpolation-filters="sRGB">
<feFlood flood-opacity="0" result="BackgroundImageFix"/>
<feGaussianBlur in="BackgroundImageFix" stdDeviation="4.22565"/>
<feComposite in2="SourceAlpha" operator="in" result="effect1_backgroundBlur_634_8397"/>
<feBlend mode="normal" in="SourceGraphic" in2="effect1_backgroundBlur_634_8397" result="shape"/>
</filter>
<filter id="filter15_d_634_8397" x="332.381" y="399.328" width="22.3142" height="25.5535" filterUnits="userSpaceOnUse" color-interpolation-filters="sRGB">
<feFlood flood-opacity="0" result="BackgroundImageFix"/>
<feColorMatrix in="SourceAlpha" type="matrix" values="0 0 0 0 0 0 0 0 0 0 0 0 0 0 0 0 0 0 127 0" result="hardAlpha"/>
<feOffset dy="5.39396"/>
<feGaussianBlur stdDeviation="1.07879"/>
<feComposite in2="hardAlpha" operator="out"/>
<feColorMatrix type="matrix" values="0 0 0 0 0.177222 0 0 0 0 0.100694 0 0 0 0 0.483333 0 0 0 0.15 0"/>
<feBlend mode="normal" in2="BackgroundImageFix" result="effect1_dropShadow_634_8397"/>
<feBlend mode="normal" in="SourceGraphic" in2="effect1_dropShadow_634_8397" result="shape"/>
</filter>
<filter id="filter16_b_634_8397" x="326.088" y="390.877" width="31.1252" height="31.1272" filterUnits="userSpaceOnUse" color-interpolation-filters="sRGB">
<feFlood flood-opacity="0" result="BackgroundImageFix"/>
<feGaussianBlur in="BackgroundImageFix" stdDeviation="4.22565"/>
<feComposite in2="SourceAlpha" operator="in" result="effect1_backgroundBlur_634_8397"/>
<feBlend mode="normal" in="SourceGraphic" in2="effect1_backgroundBlur_634_8397" result="shape"/>
</filter>
<filter id="filter17_b_634_8397" x="334.25" y="399.038" width="14.8008" height="14.8028" filterUnits="userSpaceOnUse" color-interpolation-filters="sRGB">
<feFlood flood-opacity="0" result="BackgroundImageFix"/>
<feGaussianBlur in="BackgroundImageFix" stdDeviation="0.809093"/>
<feComposite in2="SourceAlpha" operator="in" result="effect1_backgroundBlur_634_8397"/>
<feBlend mode="normal" in="SourceGraphic" in2="effect1_backgroundBlur_634_8397" result="shape"/>
</filter>
<filter id="filter18_b_634_8397" x="337.491" y="402.283" width="23.4983" height="23.4983" filterUnits="userSpaceOnUse" color-interpolation-filters="sRGB">
<feFlood flood-opacity="0" result="BackgroundImageFix"/>
<feGaussianBlur in="BackgroundImageFix" stdDeviation="4.22565"/>
<feComposite in2="SourceAlpha" operator="in" result="effect1_backgroundBlur_634_8397"/>
<feBlend mode="normal" in="SourceGraphic" in2="effect1_backgroundBlur_634_8397" result="shape"/>
</filter>
<linearGradient id="paint0_linear_634_8397" x1="221.234" y1="297.617" x2="221.234" y2="535.303" gradientUnits="userSpaceOnUse">
<stop offset="0.453125" stop-color="#3C46F4" stop-opacity="0"/>
<stop offset="0.71875" stop-color="#94CAFB" stop-opacity="0.91"/>
</linearGradient>
<linearGradient id="paint1_linear_634_8397" x1="127.914" y1="389.615" x2="127.914" y2="408.276" gradientUnits="userSpaceOnUse">
<stop stop-color="#FB967C"/>
<stop offset="1" stop-color="#36A8DB"/>
</linearGradient>
<linearGradient id="paint2_linear_634_8397" x1="127.914" y1="386.875" x2="127.914" y2="411.016" gradientUnits="userSpaceOnUse">
<stop stop-color="#E0998A"/>
<stop offset="1" stop-color="#43A7D5" stop-opacity="0"/>
</linearGradient>
<linearGradient id="paint3_linear_634_8397" x1="42.2463" y1="385.293" x2="42.2463" y2="460.074" gradientUnits="userSpaceOnUse">
<stop stop-color="#8CB2EF"/>
<stop offset="1" stop-color="#4583E9" stop-opacity="0.13"/>
</linearGradient>
<linearGradient id="paint4_linear_634_8397" x1="42.2463" y1="385.293" x2="42.2463" y2="460.074" gradientUnits="userSpaceOnUse">
<stop stop-color="white" stop-opacity="0.69"/>
<stop offset="1" stop-color="white" stop-opacity="0"/>
</linearGradient>
<linearGradient id="paint5_linear_634_8397" x1="42.2461" y1="388.117" x2="42.2461" y2="457.25" gradientUnits="userSpaceOnUse">
<stop stop-color="#B6D2FF"/>
<stop offset="1" stop-color="#D9E7FF" stop-opacity="0.13"/>
</linearGradient>
<linearGradient id="paint6_linear_634_8397" x1="93.5672" y1="417.17" x2="93.5672" y2="467.435" gradientUnits="userSpaceOnUse">
<stop stop-color="#B6D2FF"/>
<stop offset="1" stop-color="#D9E7FF" stop-opacity="0.13"/>
</linearGradient>
<linearGradient id="paint7_linear_634_8397" x1="307.075" y1="405.529" x2="307.075" y2="419.993" gradientUnits="userSpaceOnUse">
<stop stop-color="#62D7B2"/>
<stop offset="1" stop-color="#93E5CD" stop-opacity="0.08"/>
</linearGradient>
<linearGradient id="paint8_linear_634_8397" x1="307.074" y1="433.043" x2="307.074" y2="482.578" gradientUnits="userSpaceOnUse">
<stop stop-color="#8CB2EF"/>
<stop offset="1" stop-color="#4583E9" stop-opacity="0.13"/>
</linearGradient>
<linearGradient id="paint9_linear_634_8397" x1="307.074" y1="433.043" x2="307.074" y2="482.578" gradientUnits="userSpaceOnUse">
<stop stop-color="white" stop-opacity="0.69"/>
<stop offset="1" stop-color="white" stop-opacity="0"/>
</linearGradient>
<linearGradient id="paint10_linear_634_8397" x1="307.075" y1="434.766" x2="307.075" y2="480.857" gradientUnits="userSpaceOnUse">
<stop stop-color="#B6D2FF"/>
<stop offset="1" stop-color="#D9E7FF" stop-opacity="0.13"/>
</linearGradient>
<linearGradient id="paint11_linear_634_8397" x1="307.075" y1="483.281" x2="307.075" y2="489.784" gradientUnits="userSpaceOnUse">
<stop stop-color="#8CB2EF"/>
<stop offset="1" stop-color="#4583E9" stop-opacity="0.13"/>
</linearGradient>
<linearGradient id="paint12_linear_634_8397" x1="307.075" y1="483.281" x2="307.075" y2="489.784" gradientUnits="userSpaceOnUse">
<stop stop-color="white" stop-opacity="0.69"/>
<stop offset="1" stop-color="white" stop-opacity="0"/>
</linearGradient>
<linearGradient id="paint13_linear_634_8397" x1="320.629" y1="450.041" x2="352.767" y2="450.041" gradientUnits="userSpaceOnUse">
<stop stop-color="#4F95FF"/>
<stop offset="1" stop-color="white" stop-opacity="0.42"/>
</linearGradient>
<linearGradient id="paint14_linear_634_8397" x1="354.441" y1="365.824" x2="354.441" y2="413.973" gradientUnits="userSpaceOnUse">
<stop stop-color="#B6D2FF"/>
<stop offset="1" stop-color="#D9E7FF" stop-opacity="0.13"/>
</linearGradient>
<linearGradient id="paint15_linear_634_8397" x1="338.645" y1="413.456" x2="349.922" y2="394.737" gradientUnits="userSpaceOnUse">
<stop stop-color="#F6F3FF"/>
<stop offset="1" stop-color="white" stop-opacity="0.13"/>
</linearGradient>
<linearGradient id="paint16_linear_634_8397" x1="341.65" y1="411.454" x2="342.167" y2="406.959" gradientUnits="userSpaceOnUse">
<stop stop-color="white"/>
<stop offset="1" stop-color="white" stop-opacity="0"/>
</linearGradient>
<linearGradient id="paint17_linear_634_8397" x1="350.133" y1="413.543" x2="348.752" y2="414.925" gradientUnits="userSpaceOnUse">
<stop stop-color="#F6F3FF"/>
<stop offset="1" stop-color="white" stop-opacity="0.13"/>
</linearGradient>
<clipPath id="clip0_634_8397">
<rect width="393" height="508" fill="white" transform="translate(0 0.417969)"/>
</clipPath>
<clipPath id="clip1_634_8397">
<rect x="15.6846" y="389.264" width="53.4536" height="67.9846" rx="1.03793" fill="white"/>
</clipPath>
<clipPath id="clip2_634_8397">
<rect width="24.9104" height="50.3398" fill="white" transform="translate(81.2666 417.17)"/>
</clipPath>
</defs>
</svg>
