<svg width="1440" height="470" viewBox="0 0 1440 470" fill="none" xmlns="http://www.w3.org/2000/svg">
<g clip-path="url(#clip0_634_5118)">
<rect width="1440" height="469" transform="translate(0 0.5)" fill="white"/>
<g filter="url(#filter0_f_634_5118)">
<rect x="-72.7578" y="0.306641" width="1585.94" height="396.274" fill="#143D95"/>
</g>
<g filter="url(#filter1_f_634_5118)">
<rect x="1197.64" y="-221.123" width="525.58" height="457.31" rx="228.655" transform="rotate(15 1197.64 -221.123)" fill="#23FFBD" fill-opacity="0.52"/>
</g>
<g opacity="0.5">
<g opacity="0.3">
<rect x="809.189" y="44.5117" width="219.445" height="40.3847" fill="url(#paint0_linear_634_5118)" style="mix-blend-mode:screen"/>
</g>
<circle cx="1027.41" cy="64.7041" r="20.1924" transform="rotate(90 1027.41 64.7041)" fill="url(#paint1_linear_634_5118)"/>
</g>
<g filter="url(#filter2_f_634_5118)">
<rect x="133.611" y="-103.129" width="723.481" height="238.986" rx="119.493" transform="rotate(15 133.611 -103.129)" fill="#FF6332" fill-opacity="0.74"/>
</g>
<path d="M34.6504 -17.6621V396.581" stroke="#64B2C4" stroke-opacity="0.18"/>
<path d="M761.998 4.39453L-26.707 4.3945" stroke="#64B2C4" stroke-opacity="0.18"/>
<path d="M761.998 33.4453L-26.707 33.4453" stroke="#64B2C4" stroke-opacity="0.18"/>
<path d="M761.998 62.4961L-26.707 62.4961" stroke="#64B2C4" stroke-opacity="0.18"/>
<path d="M761.998 91.5469L-26.707 91.5468" stroke="#64B2C4" stroke-opacity="0.18"/>
<path d="M761.998 120.598L-26.707 120.598" stroke="#64B2C4" stroke-opacity="0.18"/>
<path d="M761.998 149.648L-26.707 149.648" stroke="#64B2C4" stroke-opacity="0.18"/>
<path d="M761.998 178.699L-26.707 178.699" stroke="#64B2C4" stroke-opacity="0.18"/>
<path d="M761.998 207.75L-26.707 207.75" stroke="#64B2C4" stroke-opacity="0.18"/>
<path d="M761.998 236.801L-26.707 236.801" stroke="#64B2C4" stroke-opacity="0.18"/>
<path d="M761.998 265.852L-26.707 265.852" stroke="#64B2C4" stroke-opacity="0.18"/>
<path d="M761.998 294.902L-26.707 294.902" stroke="#64B2C4" stroke-opacity="0.18"/>
<path d="M761.998 323.953L-26.707 323.953" stroke="#64B2C4" stroke-opacity="0.18"/>
<path d="M761.998 353.004L-26.707 353.004" stroke="#64B2C4" stroke-opacity="0.18"/>
<path d="M761.998 382.055L-26.707 382.055" stroke="#64B2C4" stroke-opacity="0.18"/>
<path d="M62.625 -17.6621V396.581" stroke="#64B2C4" stroke-opacity="0.18"/>
<path d="M90.5996 -17.6621V396.581" stroke="#64B2C4" stroke-opacity="0.18"/>
<path d="M118.574 -17.6621V396.581" stroke="#64B2C4" stroke-opacity="0.18"/>
<path d="M146.549 -17.6621V396.581" stroke="#64B2C4" stroke-opacity="0.18"/>
<path d="M174.523 -17.6621V396.581" stroke="#64B2C4" stroke-opacity="0.18"/>
<path d="M202.5 -17.6621V396.581" stroke="#64B2C4" stroke-opacity="0.18"/>
<path d="M230.475 -17.6621V396.581" stroke="#64B2C4" stroke-opacity="0.18"/>
<path d="M258.449 -17.6621V396.581" stroke="#64B2C4" stroke-opacity="0.18"/>
<path d="M286.424 -17.6621V396.581" stroke="#64B2C4" stroke-opacity="0.18"/>
<path d="M314.398 -17.6621V396.581" stroke="#64B2C4" stroke-opacity="0.18"/>
<path d="M342.375 -17.6621V396.581" stroke="#64B2C4" stroke-opacity="0.18"/>
<path d="M370.35 -17.6621V396.581" stroke="#64B2C4" stroke-opacity="0.18"/>
<path d="M398.324 -17.6621V396.581" stroke="#64B2C4" stroke-opacity="0.18"/>
<path d="M426.299 -17.6621V396.581" stroke="#64B2C4" stroke-opacity="0.18"/>
<path d="M454.273 -17.6621V396.581" stroke="#64B2C4" stroke-opacity="0.18"/>
<path d="M482.25 -17.6621V396.581" stroke="#64B2C4" stroke-opacity="0.18"/>
<path d="M510.225 -17.6621V396.581" stroke="#64B2C4" stroke-opacity="0.18"/>
<path d="M538.199 -17.6621V396.581" stroke="#64B2C4" stroke-opacity="0.18"/>
<path d="M566.174 -17.6621V396.581" stroke="#64B2C4" stroke-opacity="0.18"/>
<path d="M594.148 -17.6621V396.581" stroke="#64B2C4" stroke-opacity="0.18"/>
<path d="M622.123 -17.6621V396.581" stroke="#64B2C4" stroke-opacity="0.18"/>
<path d="M650.1 -17.6621V396.581" stroke="#64B2C4" stroke-opacity="0.18"/>
<path d="M678.074 -17.6621V396.581" stroke="#64B2C4" stroke-opacity="0.18"/>
<path d="M706.049 -17.6621V396.581" stroke="#64B2C4" stroke-opacity="0.18"/>
<path d="M734.023 -17.6621V396.581" stroke="#64B2C4" stroke-opacity="0.18"/>
<g filter="url(#filter3_f_634_5118)">
<rect x="594.439" y="-235.322" width="525.58" height="491.954" transform="rotate(15 594.439 -235.322)" fill="#0A2963"/>
</g>
<g filter="url(#filter4_f_634_5118)">
<rect x="-159.197" y="-275.496" width="525.58" height="457.31" rx="228.655" transform="rotate(15 -159.197 -275.496)" fill="#16C7FF" fill-opacity="0.56"/>
</g>
<g filter="url(#filter5_b_634_5118)">
<path d="M250.803 270.665C257.224 269.596 262.43 267.121 264.231 266.018H259.548C248.642 267.773 224.832 271.674 216.848 273.238C206.868 275.193 205.221 277.147 195.549 282.189C185.877 287.231 179.395 288.466 161.285 290.009C143.176 291.553 136.18 293.61 121.054 299.167C108.954 303.612 83.3605 303.968 72.0763 303.591L72.9004 342.073C75.1641 339.569 87.2028 332.936 117.248 326.433C154.804 318.305 140.913 304.414 170.752 302.048C200.591 299.681 210.469 289.803 216.848 284.35C223.228 278.897 242.777 272.003 250.803 270.665Z" fill="url(#paint2_linear_634_5118)"/>
<path d="M238.764 242.164C250.37 245.95 255.673 251.15 256.873 253.276H255.021C244.238 244.633 217.191 240.278 205.015 239.181L163.858 231.052C152.848 228.377 127.66 221.915 114.984 217.47C102.307 213.025 82.5379 213.355 74.2379 214.075L76.09 182.795C86.7566 183.344 111.465 186.293 124.964 193.701C141.839 202.962 134.739 204.813 152.025 208.929C169.311 213.045 175.382 216.337 187.626 222.202C199.87 228.067 203.677 231.154 211.6 234.961C219.523 238.768 224.256 237.431 238.764 242.164Z" fill="url(#paint3_linear_634_5118)"/>
<path d="M137.929 269.226C143.855 266.674 162.25 260.268 169.384 259.514L168.487 256.261L160.256 253.276C154.425 252.419 142.599 250.643 141.941 250.396C141.118 250.087 128.05 246.486 112.926 245.046C100.826 243.893 75.0265 241.547 63.6391 240.518L54.4824 266.55C56.506 271.763 64.0515 282.621 78.0449 284.35C95.5368 286.511 103.254 273.959 112.926 273.238C122.598 272.516 130.52 272.415 137.929 269.226Z" fill="url(#paint4_linear_634_5118)"/>
</g>
<g clip-path="url(#clip1_634_5118)">
<path d="M246.331 253.269C246.331 253.269 247.555 252.841 248.42 252.522C248.771 252.396 249.062 252.287 249.191 252.231C249.648 252.037 253.81 250.085 254.036 250.053C254.262 250.021 256.541 249.887 256.735 249.823C256.864 249.778 258.153 249.604 259.749 249.726C260.517 249.782 261.353 249.908 262.165 250.15C262.165 250.15 262.202 250.158 262.27 250.17C262.602 250.235 263.64 250.409 263.959 250.223C264.339 250 264.642 249.532 264.994 249.564C264.994 249.564 266.23 249.564 266.456 250.344C266.687 251.124 266.424 252.069 266.165 252.134C265.907 252.198 264.509 252.198 264.214 252.134C264.085 252.106 263.289 252.102 262.363 252.11C261.184 252.122 259.794 252.154 259.305 252.182C258.428 252.231 256.897 251.483 256.311 252.037C256.028 252.308 255.264 252.663 254.537 252.986C253.773 253.326 253.046 253.625 252.929 253.758C252.723 253.997 251.583 255.027 250.937 255.366C250.868 255.403 250.808 255.431 250.751 255.451C250.165 255.645 244.9 254.93 246.331 253.269Z" fill="#C6DFF2"/>
<path d="M263.958 250.224L259.598 246.531L259.59 246.531L255.986 243.477L252.253 240.317L252.253 240.313L219.116 212.268L219.925 211.73L252.923 239.432L256.705 242.608L264.992 249.566C264.641 249.533 264.338 250.002 263.958 250.224Z" fill="#412717"/>
<path d="M262.27 250.171C262.201 250.159 262.164 250.151 262.164 250.151C261.352 249.909 260.516 249.783 259.748 249.727L255.368 244.228L252.253 240.316L255.987 243.476L259.591 246.527L259.599 246.527L262.27 250.171Z" fill="#6C90DF"/>
<path d="M264.213 262.336L264.213 261.787L268.403 261.294L268.403 254.732L264.213 254.239L264.213 253.689C264.213 253.689 281.692 255.213 289.531 256.154C297.369 257.096 304.533 258.013 304.533 258.013C304.533 258.013 297.369 258.93 289.531 259.871C281.692 260.813 264.213 262.336 264.213 262.336Z" fill="#5CA6C6"/>
<path d="M216.524 253.269C216.524 253.269 217.748 252.841 218.613 252.522C218.637 252.514 218.657 252.506 218.682 252.497C219.001 252.38 219.264 252.283 219.385 252.231C219.841 252.037 224.003 250.085 224.229 250.053C224.456 250.021 226.734 249.887 226.928 249.823C227.058 249.778 228.347 249.604 229.943 249.726C230.71 249.782 231.547 249.908 232.359 250.15C232.359 250.15 232.395 250.158 232.464 250.17C232.795 250.235 233.834 250.409 234.153 250.223C234.533 250 234.836 249.532 235.187 249.564C235.187 249.564 236.423 249.564 236.65 250.344C236.88 251.124 236.617 252.069 236.359 252.134C236.1 252.198 234.702 252.198 234.407 252.134C234.278 252.106 233.482 252.102 232.557 252.11C231.377 252.122 229.987 252.154 229.498 252.182C228.621 252.231 227.09 251.483 226.504 252.037C226.355 252.178 226.072 252.348 225.728 252.522C225.421 252.675 225.074 252.833 224.73 252.986C223.967 253.326 223.239 253.625 223.122 253.758C222.916 253.997 221.777 255.027 221.13 255.366C221.062 255.403 221.001 255.431 220.944 255.451C220.358 255.645 215.094 254.93 216.524 253.269Z" fill="#C6DFF2"/>
<path d="M248.419 252.523L248.428 252.523" stroke="#262626" stroke-width="0.25" stroke-miterlimit="10"/>
<path d="M216.087 212.429L211.194 208.744L213.865 205.758L219.926 211.73L219.118 212.267L216.087 212.429Z" fill="#6C90DF"/>
<path d="M259.749 266.301C258.153 266.423 256.864 266.249 256.735 266.204C256.541 266.14 254.262 266.006 254.036 265.974C253.81 265.942 249.648 263.99 249.191 263.796C249.062 263.74 248.771 263.631 248.42 263.505C247.555 263.186 246.331 262.758 246.331 262.758C244.9 261.097 250.165 260.382 250.751 260.576C250.808 260.596 250.868 260.624 250.937 260.661C251.583 261 252.723 262.03 252.929 262.269C253.046 262.402 253.773 262.701 254.533 263.041C255.264 263.364 256.028 263.719 256.311 263.99C256.897 264.544 258.428 263.796 259.305 263.845C259.794 263.873 261.184 263.905 262.363 263.917C263.289 263.925 264.085 263.921 264.214 263.893C264.509 263.829 265.907 263.829 266.165 263.893C266.424 263.958 266.687 264.903 266.456 265.683C266.23 266.463 264.994 266.463 264.994 266.463C264.642 266.495 264.339 266.027 263.959 265.804C263.64 265.618 262.602 265.792 262.27 265.857C262.202 265.869 262.165 265.877 262.165 265.877C261.353 266.119 260.517 266.245 259.749 266.301Z" fill="#C6DFF2"/>
<path d="M246.329 262.757C246.329 262.757 246.119 262.736 245.78 262.696C245.711 262.688 245.634 262.68 245.55 262.668C245.364 262.639 245.154 262.611 244.923 262.571C244.867 262.563 244.806 262.555 244.746 262.542C244.156 262.441 243.481 262.296 242.871 262.106C242.75 262.066 242.628 262.025 242.515 261.985C242.479 261.973 242.446 261.961 242.41 261.944C242.329 261.916 242.253 261.884 242.18 261.852C242.16 261.843 242.143 261.835 242.127 261.827C242.083 261.807 242.042 261.787 242.002 261.767C241.958 261.746 241.913 261.726 241.873 261.702C241.824 261.678 241.78 261.654 241.735 261.625C241.444 261.452 241.226 261.258 241.121 261.039C240.483 259.73 240.616 258.013 240.616 258.013C240.616 258.013 240.483 256.296 241.121 254.987C241.226 254.769 241.444 254.575 241.731 254.401C241.78 254.373 241.824 254.348 241.873 254.324C241.913 254.3 241.958 254.28 242.002 254.259C242.042 254.239 242.083 254.219 242.127 254.199C242.143 254.191 242.16 254.183 242.18 254.175C242.253 254.142 242.329 254.11 242.41 254.082C242.446 254.066 242.479 254.053 242.515 254.041C242.628 253.997 242.75 253.956 242.871 253.92C243.481 253.73 244.156 253.585 244.746 253.484C244.806 253.472 244.867 253.463 244.923 253.455C245.154 253.415 245.364 253.387 245.55 253.358C245.634 253.346 245.711 253.338 245.78 253.33C246.119 253.29 246.329 253.27 246.329 253.27C244.899 254.93 250.164 255.645 250.75 255.451C250.806 255.431 250.867 255.403 250.936 255.367L250.394 255.92L250.394 255.924C249.651 256.227 248.81 258.013 248.81 258.013C248.81 258.013 249.651 259.799 250.39 260.102L250.39 260.106L250.936 260.66C250.867 260.623 250.806 260.595 250.75 260.575C250.164 260.381 244.899 261.096 246.329 262.757Z" fill="#5CA6C6"/>
<path d="M241.732 261.625C241.615 261.613 239.365 261.354 239.365 258.013C239.365 254.671 241.615 254.413 241.732 254.4C241.446 254.574 241.227 254.768 241.122 254.986C240.484 256.295 240.617 258.013 240.617 258.013C240.617 258.013 240.484 259.73 241.122 261.039C241.227 261.257 241.446 261.451 241.732 261.625Z" fill="#1D1E2C"/>
<path d="M219.925 304.297L219.116 303.759L252.248 275.714L252.248 275.71L255.986 272.55L259.59 269.5L259.598 269.5L263.958 265.803C264.338 266.025 264.641 266.494 264.992 266.461L256.705 273.419L252.923 276.595L219.925 304.297Z" fill="#412717"/>
<path d="M252.253 275.71L255.368 271.799L259.748 266.3C260.516 266.243 261.352 266.118 262.164 265.876C262.164 265.876 262.201 265.868 262.27 265.855L259.599 269.496L259.591 269.496L255.987 272.551L252.253 275.71Z" fill="#6C90DF"/>
<path d="M250.394 260.106L250.394 260.102C249.65 259.799 248.81 258.013 248.81 258.013C248.81 258.013 249.65 256.227 250.39 255.924L250.39 255.92C250.507 255.88 252.899 254.983 253.885 255.565C254.891 256.163 255.59 256.644 255.59 258.013C255.59 259.383 254.891 259.864 253.885 260.462C252.899 261.044 250.507 260.147 250.394 260.106Z" fill="#3A64AB"/>
<path d="M262.92 254.198L252.928 253.758C253.045 253.625 253.772 253.326 254.532 252.986L262.92 253.269L262.92 254.198Z" fill="#5CA6C6"/>
<path d="M252.928 262.269C252.722 262.031 251.582 261 250.936 260.661L250.394 260.107C250.508 260.148 252.9 261.045 253.885 260.463C254.891 259.865 255.59 259.384 255.59 258.014C255.59 256.645 254.891 256.164 253.885 255.566C252.9 254.984 250.508 255.881 250.394 255.921L250.936 255.368C251.582 255.028 252.722 253.998 252.928 253.76L262.92 254.2L262.92 261.829L252.928 262.269Z" fill="#2D3436"/>
<path d="M262.362 263.917L262.92 262.758L262.92 253.271L262.362 252.111C263.288 252.103 264.084 252.107 264.213 252.135L264.213 263.893C264.084 263.921 263.288 263.925 262.362 263.917Z" fill="#6C90DF"/>
<path d="M254.536 263.04C253.772 262.701 253.045 262.402 252.928 262.269L262.92 261.828L262.92 262.757L254.536 263.04Z" fill="#5CA6C6"/>
<path d="M242.127 254.2L233.113 254.2L223.12 253.76C223.238 253.626 223.965 253.327 224.725 252.988C225.072 252.835 225.419 252.677 225.727 252.523L248.418 252.523C247.553 252.843 246.329 253.271 246.329 253.271C246.329 253.271 246.119 253.291 245.78 253.332C245.711 253.34 245.634 253.348 245.549 253.36C245.363 253.388 245.153 253.416 244.923 253.457C244.866 253.465 244.806 253.473 244.745 253.485C244.155 253.586 243.48 253.732 242.87 253.921C242.749 253.958 242.628 253.998 242.515 254.043C242.478 254.055 242.446 254.067 242.41 254.083C242.329 254.111 242.252 254.144 242.179 254.176C242.159 254.184 242.143 254.192 242.127 254.2Z" fill="#5CA6C6"/>
<path d="M248.418 263.505L225.727 263.505C225.419 263.351 225.072 263.194 224.729 263.04C223.965 262.701 223.238 262.402 223.12 262.269L233.113 261.828L242.127 261.828C242.127 261.828 242.159 261.844 242.179 261.852C242.252 261.885 242.329 261.917 242.41 261.945C242.446 261.961 242.478 261.974 242.515 261.986C242.628 262.026 242.749 262.067 242.87 262.107C243.48 262.297 244.155 262.442 244.745 262.543C244.806 262.555 244.866 262.563 244.923 262.572C245.153 262.612 245.363 262.64 245.549 262.669C245.634 262.681 245.711 262.689 245.78 262.697C246.119 262.737 246.329 262.757 246.329 262.757C246.329 262.757 247.553 263.186 248.418 263.505Z" fill="#5CA6C6"/>
<path d="M248.419 263.504L248.428 263.504" stroke="#262626" stroke-width="0.25" stroke-miterlimit="10"/>
<path d="M264.212 261.788L264.212 254.24L268.402 254.733L268.402 261.295L264.212 261.788Z" fill="#6C90DF"/>
<path d="M213.865 310.269L211.194 307.283L216.087 303.598L219.118 303.759L219.926 304.297L213.865 310.269Z" fill="#6C90DF"/>
<path d="M216.522 262.758C216.522 262.758 216.482 262.754 216.405 262.746C216.357 262.742 216.296 262.734 216.219 262.726C216.151 262.718 216.074 262.71 215.985 262.697C215.872 262.681 215.747 262.665 215.613 262.649C215.557 262.641 215.504 262.633 215.444 262.625C215.359 262.613 215.27 262.596 215.177 262.58C215.124 262.576 215.072 262.568 215.019 262.556L215.007 262.556L195.576 261.788L191.386 261.295L174.986 258.014L191.386 254.734L195.576 254.241L215.007 253.473L215.019 253.473C215.072 253.461 215.124 253.453 215.177 253.449C215.27 253.433 215.359 253.416 215.444 253.404C215.504 253.396 215.557 253.388 215.613 253.38C215.747 253.364 215.872 253.348 215.985 253.332C216.074 253.319 216.151 253.311 216.219 253.303C216.292 253.295 216.357 253.287 216.405 253.283C216.482 253.275 216.522 253.271 216.522 253.271C216.522 253.271 217.747 252.843 218.611 252.523L213.019 252.523L195.576 253.691C195.576 253.691 195.56 253.691 195.532 253.695C194.558 253.78 177.867 255.243 170.259 256.156C162.42 257.097 155.256 258.014 155.256 258.014C155.256 258.014 162.42 258.932 170.259 259.873C177.851 260.786 194.494 262.245 195.528 262.334C195.56 262.338 195.576 262.338 195.576 262.338L213.019 263.505L218.611 263.505C217.747 263.186 216.522 262.758 216.522 262.758Z" fill="#5CA6C6"/>
<path d="M195.578 261.788L191.388 261.295L191.388 254.733L195.578 254.24L195.578 261.788Z" fill="#2D3436"/>
<path d="M234.151 250.224L229.791 246.531L229.783 246.531L226.179 243.477L222.446 240.317L222.446 240.313L189.31 212.268L190.118 211.73L223.117 239.432L226.898 242.608L235.186 249.566C234.834 249.533 234.531 250.002 234.151 250.224Z" fill="#412717"/>
<path d="M232.463 250.171C232.394 250.159 232.358 250.151 232.358 250.151C231.546 249.909 230.709 249.783 229.942 249.727L225.562 244.228L222.447 240.316L226.18 243.476L229.784 246.527L229.792 246.527L232.463 250.171Z" fill="#6C90DF"/>
<path d="M220.587 260.106L220.587 260.102C219.844 259.799 219.003 258.013 219.003 258.013C219.003 258.013 219.844 256.227 220.583 255.924L220.583 255.92C220.7 255.88 223.092 254.983 224.078 255.565C225.084 256.163 225.783 256.644 225.783 258.013C225.783 259.383 225.084 259.864 224.078 260.462C223.092 261.044 220.7 260.147 220.587 260.106Z" fill="#3A64AB"/>
<path d="M223.121 262.269C222.915 262.031 221.776 261 221.129 260.661L220.588 260.107C220.701 260.148 223.093 261.045 224.079 260.463C225.085 259.865 225.784 259.384 225.784 258.014C225.784 256.645 225.085 256.164 224.079 255.566C223.093 254.984 220.701 255.881 220.588 255.921L221.129 255.368C221.776 255.028 222.915 253.998 223.121 253.76L233.113 254.2L233.113 261.829L223.121 262.269Z" fill="#2D3436"/>
<path d="M234.406 252.523L232.754 252.523L232.556 252.111C233.481 252.103 234.277 252.107 234.406 252.135L234.406 252.523Z" fill="#6C90DF"/>
<path d="M218.612 252.523L218.621 252.523" stroke="#262626" stroke-width="0.25" stroke-miterlimit="10"/>
<path d="M186.281 212.429L181.388 208.744L184.058 205.758L190.119 211.73L189.311 212.267L186.281 212.429Z" fill="#6C90DF"/>
<path d="M229.943 266.301C228.347 266.423 227.058 266.249 226.928 266.204C226.734 266.14 224.456 266.006 224.229 265.974C224.003 265.942 219.841 263.99 219.385 263.796C219.264 263.744 219.001 263.647 218.682 263.53C218.657 263.521 218.637 263.513 218.613 263.505C217.748 263.186 216.524 262.758 216.524 262.758C215.094 261.097 220.358 260.382 220.944 260.576C221.001 260.596 221.062 260.624 221.13 260.661C221.777 261 222.916 262.03 223.122 262.269C223.239 262.402 223.967 262.701 224.726 263.041C225.074 263.194 225.421 263.352 225.728 263.505C226.072 263.679 226.355 263.849 226.504 263.99C227.09 264.544 228.621 263.796 229.498 263.845C229.987 263.873 231.377 263.905 232.557 263.917C233.482 263.925 234.278 263.921 234.407 263.893C234.702 263.829 236.1 263.829 236.359 263.893C236.617 263.958 236.88 264.903 236.65 265.683C236.423 266.463 235.187 266.463 235.187 266.463C234.836 266.495 234.533 266.027 234.153 265.804C233.834 265.618 232.795 265.792 232.464 265.857C232.395 265.869 232.359 265.877 232.359 265.877C231.547 266.119 230.71 266.245 229.943 266.301Z" fill="#C6DFF2"/>
<path d="M216.523 262.757C216.523 262.757 216.482 262.753 216.406 262.744C216.357 262.74 216.296 262.732 216.22 262.724C216.151 262.716 216.074 262.708 215.985 262.696C215.876 262.684 215.751 262.668 215.614 262.648C215.557 262.639 215.505 262.631 215.444 262.623C215.359 262.611 215.27 262.595 215.177 262.579C215.125 262.575 215.072 262.567 215.02 262.555L215.008 262.555C214.87 262.53 214.725 262.506 214.579 262.478C214.321 262.429 214.058 262.373 213.795 262.308C213.674 262.28 213.553 262.248 213.436 262.215C213.416 262.211 213.399 262.207 213.379 262.199C213.274 262.171 213.165 262.138 213.064 262.106C212.943 262.066 212.822 262.025 212.704 261.985C212.603 261.949 212.506 261.908 212.414 261.868C212.357 261.843 212.3 261.819 212.244 261.791C212.131 261.738 212.026 261.682 211.929 261.625C211.638 261.452 211.42 261.258 211.315 261.039C210.676 259.73 210.809 258.013 210.809 258.013C210.809 258.013 210.676 256.296 211.315 254.987C211.42 254.769 211.638 254.575 211.925 254.401C212.026 254.344 212.131 254.288 212.244 254.235C212.3 254.207 212.357 254.183 212.414 254.158C212.506 254.118 212.603 254.078 212.704 254.041C212.822 254.001 212.943 253.96 213.064 253.92C213.169 253.888 213.274 253.855 213.379 253.827C213.399 253.819 213.416 253.815 213.436 253.811C213.553 253.779 213.674 253.746 213.795 253.718C214.058 253.653 214.321 253.597 214.579 253.548C214.725 253.52 214.87 253.496 215.008 253.472L215.02 253.472C215.072 253.459 215.125 253.451 215.177 253.447C215.27 253.431 215.359 253.415 215.444 253.403C215.505 253.395 215.557 253.387 215.614 253.379C215.751 253.358 215.876 253.342 215.985 253.33C216.074 253.318 216.151 253.31 216.22 253.302C216.292 253.294 216.357 253.286 216.406 253.282C216.482 253.274 216.523 253.27 216.523 253.27C215.092 254.93 220.357 255.645 220.943 255.451C221 255.431 221.06 255.403 221.129 255.367L220.587 255.92L220.587 255.924C219.844 256.227 219.004 258.013 219.004 258.013C219.004 258.013 219.844 259.799 220.583 260.102L220.583 260.106L221.129 260.66C221.06 260.623 221 260.595 220.943 260.575C220.357 260.381 215.092 261.096 216.523 262.757Z" fill="#5CA0CA"/>
<path d="M211.926 261.625C211.809 261.613 209.558 261.354 209.558 258.013C209.558 254.671 211.809 254.413 211.926 254.4C211.639 254.574 211.421 254.768 211.316 254.986C210.677 256.295 210.811 258.013 210.811 258.013C210.811 258.013 210.677 259.73 211.316 261.039C211.421 261.257 211.639 261.451 211.926 261.625Z" fill="#1D1E2C"/>
<path d="M190.118 304.297L189.31 303.759L222.442 275.714L222.442 275.71L226.179 272.55L229.783 269.5L229.791 269.5L234.151 265.803C234.531 266.025 234.834 266.494 235.186 266.461L226.898 273.419L223.117 276.595L190.118 304.297Z" fill="#412717"/>
<path d="M222.447 275.71L225.562 271.799L229.942 266.3C230.709 266.243 231.546 266.118 232.358 265.876C232.358 265.876 232.394 265.868 232.463 265.855L229.792 269.496L229.784 269.496L226.18 272.551L222.447 275.71Z" fill="#6C90DF"/>
<path d="M232.556 263.916L232.754 263.504L234.406 263.504L234.406 263.892C234.277 263.92 233.481 263.924 232.556 263.916Z" fill="#6C90DF"/>
<path d="M218.612 263.504L218.621 263.504" stroke="#262626" stroke-width="0.25" stroke-miterlimit="10"/>
<path d="M184.058 310.269L181.388 307.283L186.281 303.598L189.311 303.759L190.119 304.297L184.058 310.269Z" fill="#6C90DF"/>
<path d="M191.387 261.294L174.986 258.013L191.387 254.732L191.387 261.294Z" fill="#2D3436"/>
<path d="M215.008 262.556L195.577 261.788L195.577 254.24L215.008 253.473C214.87 253.497 214.725 253.521 214.58 253.549C214.321 253.598 214.058 253.654 213.796 253.719C213.674 253.747 213.553 253.78 213.436 253.812C213.416 253.816 213.4 253.82 213.379 253.828C213.274 253.857 213.169 253.889 213.064 253.921C212.943 253.962 212.822 254.002 212.705 254.042C212.604 254.079 212.507 254.119 212.414 254.16C212.357 254.184 212.301 254.208 212.244 254.236C212.131 254.289 212.026 254.345 211.929 254.402C211.808 254.414 209.557 254.673 209.557 258.014C209.557 261.356 211.808 261.614 211.925 261.626C212.026 261.683 212.131 261.74 212.244 261.792C212.301 261.82 212.357 261.845 212.414 261.869C212.507 261.909 212.604 261.95 212.705 261.986C212.822 262.026 212.943 262.067 213.064 262.107C213.165 262.14 213.274 262.172 213.379 262.2C213.4 262.208 213.416 262.212 213.436 262.216C213.553 262.249 213.674 262.281 213.796 262.309C214.058 262.374 214.321 262.43 214.58 262.479C214.725 262.507 214.87 262.531 215.008 262.556Z" fill="#2D3436"/>
<path d="M234.406 261.828L234.406 254.199L233.113 254.199L233.113 261.828L234.406 261.828Z" fill="#5CA6C6"/>
<path d="M242.127 261.828L234.406 261.828L234.406 254.199L242.127 254.199C242.083 254.219 242.042 254.24 242.002 254.26C241.957 254.28 241.913 254.3 241.872 254.324C241.824 254.349 241.779 254.373 241.735 254.401C241.614 254.413 239.363 254.672 239.363 258.013C239.363 261.355 241.614 261.614 241.731 261.626C241.779 261.654 241.824 261.678 241.872 261.702C241.913 261.727 241.957 261.747 242.002 261.767C242.042 261.787 242.083 261.807 242.127 261.828Z" fill="#2D3436"/>
</g>
<g filter="url(#filter6_b_634_5118)">
<path d="M1326.79 277.472C1333.47 278.584 1338.88 281.156 1340.75 282.303H1335.88C1324.55 280.478 1299.8 276.424 1291.5 274.798C1281.13 272.766 1279.41 270.734 1269.36 265.493C1259.31 260.253 1252.57 258.969 1233.74 257.365C1214.92 255.761 1207.65 253.622 1191.93 247.846C1179.35 243.226 1152.75 242.855 1141.02 243.247L1141.87 203.247C1144.23 205.85 1156.74 212.744 1187.97 219.504C1227.01 227.953 1212.57 242.392 1243.59 244.851C1274.6 247.311 1284.87 257.579 1291.5 263.247C1298.13 268.916 1318.45 276.081 1326.79 277.472Z" fill="url(#paint5_linear_634_5118)"/>
<path d="M1314.28 307.098C1326.34 303.162 1331.86 297.757 1333.1 295.547H1331.18C1319.97 304.531 1291.86 309.058 1279.2 310.198L1236.42 318.648C1224.97 321.428 1198.79 328.145 1185.62 332.765C1172.44 337.386 1151.89 337.043 1143.26 336.295L1145.19 368.809C1156.28 368.238 1181.96 365.173 1195.99 357.472C1213.53 347.846 1206.15 345.922 1224.12 341.643C1242.09 337.365 1248.4 333.943 1261.12 327.847C1273.85 321.751 1277.81 318.542 1286.04 314.584C1294.28 310.627 1299.2 312.017 1314.28 307.098Z" fill="url(#paint6_linear_634_5118)"/>
<path d="M1209.47 278.968C1215.63 281.621 1234.75 288.279 1242.16 289.063L1241.23 292.444L1232.67 295.547C1226.61 296.438 1214.32 298.284 1213.64 298.541C1212.78 298.861 1199.2 302.605 1183.48 304.102C1170.9 305.3 1144.08 307.738 1132.25 308.808L1122.73 281.749C1124.83 276.33 1132.68 265.044 1147.22 263.247C1165.4 261.001 1173.42 274.049 1183.48 274.798C1193.53 275.548 1201.77 275.653 1209.47 278.968Z" fill="url(#paint7_linear_634_5118)"/>
</g>
<g clip-path="url(#clip2_634_5118)">
<path d="M1322.14 295.553C1322.14 295.553 1323.42 295.998 1324.31 296.33C1324.68 296.46 1324.98 296.574 1325.12 296.633C1325.59 296.834 1329.92 298.863 1330.15 298.896C1330.39 298.93 1332.76 299.069 1332.96 299.136C1333.09 299.182 1334.43 299.363 1336.09 299.237C1336.89 299.178 1337.76 299.048 1338.6 298.796C1338.6 298.796 1338.64 298.787 1338.71 298.775C1339.06 298.707 1340.13 298.527 1340.47 298.72C1340.86 298.951 1341.18 299.438 1341.54 299.405C1341.54 299.405 1342.83 299.405 1343.06 298.594C1343.3 297.783 1343.03 296.801 1342.76 296.733C1342.49 296.666 1341.04 296.666 1340.73 296.733C1340.6 296.763 1339.77 296.767 1338.81 296.759C1337.58 296.746 1336.14 296.712 1335.63 296.683C1334.72 296.633 1333.13 297.41 1332.52 296.834C1332.22 296.553 1331.43 296.183 1330.67 295.847C1329.88 295.495 1329.12 295.184 1329 295.045C1328.79 294.797 1327.6 293.726 1326.93 293.374C1326.86 293.336 1326.8 293.306 1326.74 293.285C1326.13 293.084 1320.66 293.827 1322.14 295.553Z" fill="#C6DFF2"/>
<path d="M1340.47 298.72L1335.94 302.559L1335.93 302.559L1332.18 305.734L1328.3 309.018L1328.3 309.022L1293.86 338.174L1294.7 338.732L1329 309.938L1332.93 306.637L1341.54 299.405C1341.18 299.438 1340.86 298.951 1340.47 298.72Z" fill="#412717"/>
<path d="M1338.71 298.774C1338.64 298.787 1338.6 298.795 1338.6 298.795C1337.76 299.047 1336.89 299.177 1336.09 299.236L1331.54 304.952L1328.3 309.018L1332.18 305.733L1335.93 302.562L1335.93 302.562L1338.71 298.774Z" fill="#6C90DF"/>
<path d="M1340.73 286.127L1340.73 286.699L1345.09 287.211L1345.09 294.032L1340.73 294.544L1340.73 295.115C1340.73 295.115 1358.9 293.532 1367.05 292.553C1375.2 291.575 1382.64 290.621 1382.64 290.621C1382.64 290.621 1375.2 289.668 1367.05 288.689C1358.9 287.711 1340.73 286.127 1340.73 286.127Z" fill="#5CA6C6"/>
<path d="M1291.16 295.553C1291.16 295.553 1292.43 295.998 1293.33 296.33C1293.36 296.339 1293.38 296.347 1293.4 296.355C1293.73 296.477 1294.01 296.578 1294.13 296.633C1294.61 296.834 1298.93 298.863 1299.17 298.896C1299.4 298.93 1301.77 299.069 1301.97 299.136C1302.11 299.182 1303.45 299.363 1305.11 299.237C1305.91 299.178 1306.78 299.048 1307.62 298.796C1307.62 298.796 1307.66 298.787 1307.73 298.775C1308.07 298.707 1309.15 298.527 1309.48 298.72C1309.88 298.951 1310.19 299.438 1310.56 299.405C1310.56 299.405 1311.84 299.405 1312.08 298.594C1312.32 297.783 1312.05 296.801 1311.78 296.733C1311.51 296.666 1310.06 296.666 1309.75 296.733C1309.61 296.763 1308.79 296.767 1307.83 296.759C1306.6 296.746 1305.15 296.712 1304.65 296.683C1303.73 296.633 1302.14 297.41 1301.53 296.834C1301.38 296.687 1301.08 296.511 1300.73 296.33C1300.41 296.171 1300.05 296.007 1299.69 295.847C1298.9 295.495 1298.14 295.184 1298.02 295.045C1297.8 294.797 1296.62 293.726 1295.95 293.374C1295.88 293.336 1295.81 293.306 1295.75 293.285C1295.15 293.084 1289.67 293.827 1291.16 295.553Z" fill="#C6DFF2"/>
<path d="M1324.31 296.33L1324.32 296.33" stroke="#262626" stroke-width="0.25" stroke-miterlimit="10"/>
<path d="M1290.71 338.005L1285.62 341.836L1288.4 344.939L1294.7 338.732L1293.86 338.173L1290.71 338.005Z" fill="#6C90DF"/>
<path d="M1336.09 282.009C1334.43 281.883 1333.09 282.063 1332.96 282.11C1332.76 282.177 1330.39 282.315 1330.15 282.349C1329.92 282.383 1325.59 284.411 1325.12 284.613C1324.98 284.671 1324.68 284.785 1324.31 284.915C1323.42 285.247 1322.14 285.692 1322.14 285.692C1320.66 287.418 1326.13 288.162 1326.74 287.96C1326.8 287.939 1326.86 287.91 1326.93 287.872C1327.6 287.519 1328.79 286.448 1329 286.2C1329.12 286.062 1329.88 285.751 1330.67 285.398C1331.43 285.062 1332.22 284.692 1332.52 284.411C1333.13 283.836 1334.72 284.613 1335.63 284.562C1336.14 284.533 1337.58 284.499 1338.81 284.487C1339.77 284.478 1340.6 284.482 1340.73 284.512C1341.04 284.579 1342.49 284.579 1342.76 284.512C1343.03 284.445 1343.3 283.462 1343.06 282.651C1342.83 281.841 1341.54 281.841 1341.54 281.841C1341.18 281.807 1340.86 282.294 1340.47 282.525C1340.13 282.719 1339.06 282.538 1338.71 282.471C1338.64 282.458 1338.6 282.45 1338.6 282.45C1337.76 282.198 1336.89 282.068 1336.09 282.009Z" fill="#C6DFF2"/>
<path d="M1322.14 285.691C1322.14 285.691 1321.93 285.712 1321.57 285.754C1321.5 285.763 1321.42 285.771 1321.33 285.784C1321.14 285.813 1320.92 285.843 1320.68 285.885C1320.62 285.893 1320.56 285.901 1320.5 285.914C1319.88 286.019 1319.18 286.17 1318.55 286.368C1318.42 286.41 1318.3 286.452 1318.18 286.494C1318.14 286.506 1318.11 286.519 1318.07 286.536C1317.99 286.565 1317.91 286.599 1317.83 286.632C1317.81 286.641 1317.79 286.649 1317.78 286.657C1317.73 286.678 1317.69 286.699 1317.65 286.72C1317.6 286.741 1317.55 286.762 1317.51 286.788C1317.46 286.813 1317.41 286.838 1317.37 286.867C1317.07 287.048 1316.84 287.25 1316.73 287.476C1316.07 288.837 1316.21 290.622 1316.21 290.622C1316.21 290.622 1316.07 292.407 1316.73 293.768C1316.84 293.995 1317.07 294.196 1317.36 294.377C1317.41 294.406 1317.46 294.431 1317.51 294.457C1317.55 294.482 1317.6 294.503 1317.65 294.524C1317.69 294.545 1317.73 294.566 1317.78 294.587C1317.79 294.595 1317.81 294.604 1317.83 294.612C1317.91 294.646 1317.99 294.679 1318.07 294.709C1318.11 294.725 1318.14 294.738 1318.18 294.751C1318.3 294.797 1318.42 294.839 1318.55 294.877C1319.18 295.074 1319.88 295.225 1320.5 295.33C1320.56 295.343 1320.62 295.351 1320.68 295.36C1320.92 295.402 1321.14 295.431 1321.33 295.46C1321.42 295.473 1321.5 295.481 1321.57 295.49C1321.93 295.532 1322.14 295.553 1322.14 295.553C1320.66 293.827 1326.13 293.083 1326.74 293.285C1326.8 293.306 1326.86 293.335 1326.93 293.373L1326.37 292.798L1326.37 292.793C1325.6 292.478 1324.72 290.622 1324.72 290.622C1324.72 290.622 1325.6 288.766 1326.36 288.451L1326.36 288.447L1326.93 287.871C1326.86 287.909 1326.8 287.938 1326.74 287.959C1326.13 288.161 1320.66 287.418 1322.14 285.691Z" fill="#5CA6C6"/>
<path d="M1317.36 286.868C1317.24 286.88 1314.9 287.149 1314.9 290.622C1314.9 294.096 1317.24 294.364 1317.36 294.377C1317.07 294.196 1316.84 293.995 1316.73 293.768C1316.07 292.407 1316.2 290.622 1316.2 290.622C1316.2 290.622 1316.07 288.837 1316.73 287.477C1316.84 287.25 1317.07 287.048 1317.36 286.868Z" fill="#1D1E2C"/>
<path d="M1294.7 242.513L1293.86 243.072L1328.3 272.223L1328.3 272.227L1332.18 275.512L1335.93 278.682L1335.94 278.682L1340.47 282.525C1340.86 282.294 1341.18 281.807 1341.54 281.841L1332.93 274.609L1329 271.307L1294.7 242.513Z" fill="#412717"/>
<path d="M1328.3 272.227L1331.54 276.293L1336.09 282.009C1336.89 282.068 1337.76 282.198 1338.6 282.45C1338.6 282.45 1338.64 282.458 1338.71 282.471L1335.93 278.687L1335.93 278.687L1332.18 275.511L1328.3 272.227Z" fill="#6C90DF"/>
<path d="M1326.37 288.447L1326.37 288.451C1325.6 288.766 1324.72 290.623 1324.72 290.623C1324.72 290.623 1325.6 292.479 1326.36 292.794L1326.36 292.798C1326.49 292.84 1328.97 293.772 1330 293.168C1331.04 292.546 1331.77 292.046 1331.77 290.623C1331.77 289.199 1331.04 288.699 1330 288.077C1328.97 287.473 1326.49 288.405 1326.37 288.447Z" fill="#3A64AB"/>
<path d="M1339.39 294.588L1329 295.045C1329.12 295.184 1329.88 295.495 1330.67 295.848L1339.39 295.554L1339.39 294.588Z" fill="#5CA6C6"/>
<path d="M1329 286.2C1328.79 286.448 1327.6 287.519 1326.93 287.872L1326.37 288.447C1326.49 288.405 1328.97 287.473 1330 288.077C1331.04 288.699 1331.77 289.199 1331.77 290.622C1331.77 292.046 1331.04 292.546 1330 293.168C1328.97 293.772 1326.49 292.84 1326.37 292.798L1326.93 293.373C1327.6 293.726 1328.79 294.797 1329 295.045L1339.39 294.587L1339.39 286.658L1329 286.2Z" fill="#2D3436"/>
<path d="M1338.81 284.486L1339.39 285.691L1339.39 295.553L1338.81 296.758C1339.77 296.766 1340.6 296.762 1340.73 296.733L1340.73 284.511C1340.6 284.482 1339.77 284.477 1338.81 284.486Z" fill="#6C90DF"/>
<path d="M1330.67 285.398C1329.88 285.751 1329.12 286.062 1329 286.2L1339.39 286.658L1339.39 285.692L1330.67 285.398Z" fill="#5CA6C6"/>
<path d="M1317.78 294.587L1308.41 294.587L1298.02 295.045C1298.14 295.184 1298.9 295.494 1299.69 295.847C1300.05 296.007 1300.41 296.17 1300.73 296.33L1324.31 296.33C1323.42 295.998 1322.14 295.553 1322.14 295.553C1322.14 295.553 1321.92 295.532 1321.57 295.49C1321.5 295.482 1321.42 295.473 1321.33 295.461C1321.14 295.431 1320.92 295.402 1320.68 295.36C1320.62 295.352 1320.56 295.343 1320.5 295.331C1319.88 295.226 1319.18 295.074 1318.55 294.877C1318.42 294.839 1318.3 294.797 1318.18 294.751C1318.14 294.738 1318.11 294.726 1318.07 294.709C1317.99 294.68 1317.91 294.646 1317.83 294.612C1317.81 294.604 1317.79 294.596 1317.78 294.587Z" fill="#5CA6C6"/>
<path d="M1324.31 284.915L1300.73 284.915C1300.41 285.075 1300.05 285.239 1299.69 285.398C1298.9 285.751 1298.14 286.062 1298.02 286.2L1308.41 286.658L1317.78 286.658C1317.78 286.658 1317.81 286.641 1317.83 286.633C1317.91 286.599 1317.99 286.566 1318.07 286.536C1318.11 286.52 1318.14 286.507 1318.18 286.494C1318.3 286.452 1318.42 286.41 1318.55 286.368C1319.18 286.171 1319.88 286.02 1320.5 285.915C1320.56 285.902 1320.62 285.894 1320.68 285.885C1320.92 285.843 1321.14 285.814 1321.33 285.785C1321.42 285.772 1321.5 285.764 1321.57 285.755C1321.92 285.713 1322.14 285.692 1322.14 285.692C1322.14 285.692 1323.42 285.247 1324.31 284.915Z" fill="#5CA6C6"/>
<path d="M1324.31 284.914L1324.32 284.914" stroke="#262626" stroke-width="0.25" stroke-miterlimit="10"/>
<path d="M1340.73 286.7L1340.73 294.545L1345.09 294.033L1345.09 287.212L1340.73 286.7Z" fill="#6C90DF"/>
<path d="M1288.4 236.304L1285.62 239.408L1290.71 243.238L1293.86 243.07L1294.7 242.512L1288.4 236.304Z" fill="#6C90DF"/>
<path d="M1291.16 285.692C1291.16 285.692 1291.12 285.696 1291.04 285.704C1290.99 285.709 1290.93 285.717 1290.85 285.725C1290.77 285.734 1290.69 285.742 1290.6 285.755C1290.48 285.772 1290.35 285.788 1290.22 285.805C1290.16 285.814 1290.1 285.822 1290.04 285.83C1289.95 285.843 1289.86 285.86 1289.76 285.877C1289.71 285.881 1289.65 285.889 1289.6 285.902L1289.59 285.902L1269.39 286.7L1265.03 287.212L1247.99 290.622L1265.03 294.033L1269.39 294.545L1289.59 295.343L1289.6 295.343C1289.65 295.356 1289.71 295.364 1289.76 295.368C1289.86 295.385 1289.95 295.402 1290.04 295.415C1290.1 295.423 1290.16 295.431 1290.22 295.44C1290.35 295.457 1290.48 295.473 1290.6 295.49C1290.69 295.503 1290.77 295.511 1290.85 295.519C1290.92 295.528 1290.99 295.536 1291.04 295.54C1291.12 295.549 1291.16 295.553 1291.16 295.553C1291.16 295.553 1292.43 295.998 1293.33 296.33L1287.52 296.33L1269.39 295.116C1269.39 295.116 1269.37 295.116 1269.34 295.112C1268.33 295.024 1250.98 293.504 1243.07 292.554C1234.92 291.576 1227.48 290.622 1227.48 290.622C1227.48 290.622 1234.92 289.669 1243.07 288.69C1250.96 287.741 1268.26 286.225 1269.34 286.133C1269.37 286.129 1269.39 286.129 1269.39 286.129L1287.52 284.915L1293.33 284.915C1292.43 285.247 1291.16 285.692 1291.16 285.692Z" fill="#5CA6C6"/>
<path d="M1269.39 286.7L1265.03 287.212L1265.03 294.033L1269.39 294.545L1269.39 286.7Z" fill="#2D3436"/>
<path d="M1309.49 298.72L1304.95 302.559L1304.95 302.559L1301.2 305.734L1297.32 309.018L1297.32 309.022L1262.88 338.174L1263.71 338.732L1298.02 309.938L1301.95 306.637L1310.56 299.405C1310.2 299.438 1309.88 298.951 1309.49 298.72Z" fill="#412717"/>
<path d="M1307.73 298.774C1307.66 298.787 1307.62 298.795 1307.62 298.795C1306.78 299.047 1305.91 299.177 1305.11 299.236L1300.56 304.952L1297.32 309.018L1301.2 305.733L1304.94 302.562L1304.95 302.562L1307.73 298.774Z" fill="#6C90DF"/>
<path d="M1295.39 288.447L1295.39 288.451C1294.61 288.766 1293.74 290.623 1293.74 290.623C1293.74 290.623 1294.61 292.479 1295.38 292.794L1295.38 292.798C1295.5 292.84 1297.99 293.772 1299.01 293.168C1300.06 292.546 1300.79 292.046 1300.79 290.623C1300.79 289.199 1300.06 288.699 1299.01 288.077C1297.99 287.473 1295.5 288.405 1295.39 288.447Z" fill="#3A64AB"/>
<path d="M1298.02 286.2C1297.81 286.448 1296.62 287.519 1295.95 287.872L1295.39 288.447C1295.5 288.405 1297.99 287.473 1299.02 288.077C1300.06 288.699 1300.79 289.199 1300.79 290.622C1300.79 292.046 1300.06 292.546 1299.02 293.168C1297.99 293.772 1295.5 292.84 1295.39 292.798L1295.95 293.373C1296.62 293.726 1297.81 294.797 1298.02 295.045L1308.41 294.587L1308.41 286.658L1298.02 286.2Z" fill="#2D3436"/>
<path d="M1309.75 296.33L1308.03 296.33L1307.83 296.758C1308.79 296.766 1309.62 296.762 1309.75 296.733L1309.75 296.33Z" fill="#6C90DF"/>
<path d="M1293.33 296.33L1293.34 296.33" stroke="#262626" stroke-width="0.25" stroke-miterlimit="10"/>
<path d="M1259.72 338.005L1254.64 341.836L1257.42 344.939L1263.71 338.732L1262.87 338.173L1259.72 338.005Z" fill="#6C90DF"/>
<path d="M1305.11 282.009C1303.45 281.883 1302.11 282.063 1301.97 282.11C1301.77 282.177 1299.4 282.315 1299.17 282.349C1298.93 282.383 1294.61 284.411 1294.13 284.613C1294.01 284.667 1293.73 284.768 1293.4 284.89C1293.38 284.898 1293.36 284.907 1293.33 284.915C1292.43 285.247 1291.16 285.692 1291.16 285.692C1289.67 287.418 1295.15 288.162 1295.75 287.96C1295.81 287.939 1295.88 287.91 1295.95 287.872C1296.62 287.519 1297.8 286.448 1298.02 286.2C1298.14 286.062 1298.9 285.751 1299.69 285.398C1300.05 285.238 1300.41 285.075 1300.73 284.915C1301.08 284.734 1301.38 284.558 1301.53 284.411C1302.14 283.836 1303.73 284.613 1304.65 284.562C1305.15 284.533 1306.6 284.499 1307.83 284.487C1308.79 284.478 1309.61 284.482 1309.75 284.512C1310.06 284.579 1311.51 284.579 1311.78 284.512C1312.05 284.445 1312.32 283.462 1312.08 282.651C1311.84 281.841 1310.56 281.841 1310.56 281.841C1310.19 281.807 1309.88 282.294 1309.48 282.525C1309.15 282.719 1308.07 282.538 1307.73 282.471C1307.66 282.458 1307.62 282.45 1307.62 282.45C1306.78 282.198 1305.91 282.068 1305.11 282.009Z" fill="#C6DFF2"/>
<path d="M1291.16 285.691C1291.16 285.691 1291.12 285.696 1291.04 285.704C1290.99 285.708 1290.93 285.717 1290.85 285.725C1290.77 285.733 1290.7 285.742 1290.6 285.754C1290.49 285.767 1290.36 285.784 1290.22 285.805C1290.16 285.813 1290.1 285.822 1290.04 285.83C1289.95 285.843 1289.86 285.859 1289.76 285.876C1289.71 285.88 1289.65 285.889 1289.6 285.901L1289.59 285.901C1289.44 285.927 1289.29 285.952 1289.14 285.981C1288.87 286.032 1288.6 286.09 1288.33 286.158C1288.2 286.187 1288.07 286.221 1287.95 286.254C1287.93 286.258 1287.91 286.263 1287.89 286.271C1287.78 286.3 1287.67 286.334 1287.57 286.368C1287.44 286.41 1287.31 286.452 1287.19 286.494C1287.09 286.531 1286.99 286.573 1286.89 286.615C1286.83 286.641 1286.77 286.666 1286.71 286.695C1286.6 286.75 1286.49 286.809 1286.39 286.867C1286.08 287.048 1285.86 287.25 1285.75 287.476C1285.08 288.837 1285.22 290.622 1285.22 290.622C1285.22 290.622 1285.08 292.407 1285.75 293.768C1285.86 293.995 1286.08 294.196 1286.38 294.377C1286.49 294.436 1286.6 294.494 1286.71 294.549C1286.77 294.578 1286.83 294.604 1286.89 294.629C1286.99 294.671 1287.09 294.713 1287.19 294.751C1287.31 294.793 1287.44 294.835 1287.57 294.877C1287.68 294.91 1287.78 294.944 1287.89 294.973C1287.91 294.982 1287.93 294.986 1287.95 294.99C1288.07 295.024 1288.2 295.057 1288.33 295.087C1288.6 295.154 1288.87 295.213 1289.14 295.263C1289.29 295.292 1289.44 295.318 1289.59 295.343L1289.6 295.343C1289.65 295.355 1289.71 295.364 1289.76 295.368C1289.86 295.385 1289.95 295.402 1290.04 295.414C1290.1 295.423 1290.16 295.431 1290.22 295.439C1290.36 295.46 1290.49 295.477 1290.6 295.49C1290.7 295.502 1290.77 295.511 1290.85 295.519C1290.92 295.528 1290.99 295.536 1291.04 295.54C1291.12 295.549 1291.16 295.553 1291.16 295.553C1289.67 293.827 1295.15 293.083 1295.76 293.285C1295.81 293.306 1295.88 293.335 1295.95 293.373L1295.39 292.798L1295.39 292.793C1294.61 292.478 1293.74 290.622 1293.74 290.622C1293.74 290.622 1294.61 288.766 1295.38 288.451L1295.38 288.447L1295.95 287.871C1295.88 287.909 1295.81 287.938 1295.76 287.959C1295.15 288.161 1289.67 287.418 1291.16 285.691Z" fill="#5CA0CA"/>
<path d="M1286.38 286.868C1286.26 286.88 1283.92 287.149 1283.92 290.622C1283.92 294.096 1286.26 294.364 1286.38 294.377C1286.08 294.196 1285.86 293.995 1285.75 293.768C1285.08 292.407 1285.22 290.622 1285.22 290.622C1285.22 290.622 1285.08 288.837 1285.75 287.477C1285.86 287.25 1286.08 287.048 1286.38 286.868Z" fill="#1D1E2C"/>
<path d="M1263.71 242.513L1262.88 243.072L1297.31 272.223L1297.31 272.227L1301.2 275.512L1304.95 278.682L1304.95 278.682L1309.49 282.525C1309.88 282.294 1310.2 281.807 1310.56 281.841L1301.95 274.609L1298.02 271.307L1263.71 242.513Z" fill="#412717"/>
<path d="M1297.32 272.227L1300.56 276.293L1305.11 282.009C1305.91 282.068 1306.78 282.198 1307.62 282.45C1307.62 282.45 1307.66 282.458 1307.73 282.471L1304.95 278.687L1304.94 278.687L1301.2 275.511L1297.32 272.227Z" fill="#6C90DF"/>
<path d="M1307.83 284.486L1308.03 284.914L1309.75 284.914L1309.75 284.511C1309.62 284.481 1308.79 284.477 1307.83 284.486Z" fill="#6C90DF"/>
<path d="M1293.33 284.914L1293.34 284.914" stroke="#262626" stroke-width="0.25" stroke-miterlimit="10"/>
<path d="M1257.42 236.304L1254.64 239.408L1259.72 243.238L1262.87 243.07L1263.71 242.512L1257.42 236.304Z" fill="#6C90DF"/>
<path d="M1265.03 287.213L1247.99 290.623L1265.03 294.033L1265.03 287.213Z" fill="#2D3436"/>
<path d="M1289.59 285.902L1269.39 286.7L1269.39 294.546L1289.59 295.344C1289.44 295.319 1289.29 295.293 1289.14 295.264C1288.87 295.214 1288.6 295.155 1288.33 295.088C1288.2 295.058 1288.07 295.025 1287.95 294.991C1287.93 294.987 1287.91 294.983 1287.89 294.974C1287.78 294.945 1287.67 294.911 1287.57 294.878C1287.44 294.836 1287.31 294.794 1287.19 294.752C1287.09 294.714 1286.99 294.672 1286.89 294.63C1286.83 294.605 1286.77 294.579 1286.71 294.55C1286.6 294.495 1286.49 294.437 1286.39 294.378C1286.26 294.365 1283.92 294.096 1283.92 290.623C1283.92 287.15 1286.26 286.881 1286.38 286.868C1286.49 286.81 1286.6 286.751 1286.71 286.696C1286.77 286.667 1286.83 286.642 1286.89 286.616C1286.99 286.574 1287.09 286.532 1287.19 286.495C1287.31 286.453 1287.44 286.411 1287.57 286.369C1287.67 286.335 1287.78 286.301 1287.89 286.272C1287.91 286.264 1287.93 286.259 1287.95 286.255C1288.07 286.222 1288.2 286.188 1288.33 286.159C1288.6 286.091 1288.87 286.033 1289.14 285.982C1289.29 285.953 1289.44 285.928 1289.59 285.902Z" fill="#2D3436"/>
<path d="M1309.75 286.659L1309.75 294.588L1308.41 294.588L1308.41 286.659L1309.75 286.659Z" fill="#5CA6C6"/>
<path d="M1317.78 286.659L1309.75 286.659L1309.75 294.588L1317.78 294.588C1317.73 294.567 1317.69 294.546 1317.65 294.525C1317.6 294.504 1317.55 294.483 1317.51 294.458C1317.46 294.432 1317.41 294.407 1317.37 294.378C1317.24 294.365 1314.9 294.097 1314.9 290.623C1314.9 287.15 1317.24 286.881 1317.36 286.868C1317.41 286.839 1317.46 286.814 1317.51 286.789C1317.55 286.763 1317.6 286.743 1317.65 286.722C1317.69 286.701 1317.73 286.679 1317.78 286.659Z" fill="#2D3436"/>
</g>
<path d="M-253.176 471.424V-146.516H1619.82V471.424H1021.92H287.324H-253.176Z" fill="url(#paint8_linear_634_5118)"/>
<g opacity="0.2">
<rect x="711.93" y="96.0254" width="202.1" height="5.14331" rx="2.57166" fill="url(#paint9_linear_634_5118)" style="mix-blend-mode:screen"/>
</g>
<g opacity="0.15">
<rect x="89.498" y="397.205" width="461.857" height="5.14331" rx="2.57166" fill="url(#paint10_linear_634_5118)" style="mix-blend-mode:screen"/>
</g>
<g opacity="0.15">
<rect x="866.867" y="133.783" width="461.857" height="5.14331" rx="2.57166" fill="url(#paint11_linear_634_5118)" style="mix-blend-mode:screen"/>
</g>
<path d="M330.252 395.318C331.093 392.367 333.411 390.067 336.368 389.249L337.287 388.996L336.369 388.742H336.368C333.411 387.924 331.092 385.624 330.252 382.673L329.989 381.756L329.726 382.673C328.886 385.624 326.567 387.925 323.61 388.742L322.691 388.996L323.609 389.249H323.61C326.567 390.067 328.886 392.367 329.726 395.318L329.989 396.235L330.252 395.318Z" fill="#9AC1FF" fill-opacity="0.32"/>
<path d="M851.162 142.482C851.635 140.823 852.938 139.529 854.602 139.07L855.118 138.927L854.602 138.784H854.602C852.938 138.325 851.635 137.031 851.162 135.371L851.014 134.855L850.866 135.371C850.394 137.031 849.09 138.325 847.427 138.784L846.91 138.927L847.426 139.07H847.427C849.09 139.529 850.394 140.823 850.866 142.482L851.014 142.998L851.162 142.482Z" fill="#A3C5FA"/>
<g opacity="0.5">
<g opacity="0.5">
<rect x="666.568" y="397.205" width="177.083" height="32.5888" fill="url(#paint12_linear_634_5118)" style="mix-blend-mode:screen"/>
</g>
<circle cx="842.667" cy="413.499" r="16.2944" transform="rotate(90 842.667 413.499)" fill="url(#paint13_linear_634_5118)"/>
</g>
<path d="M851.673 410.527C851.718 410.825 851.505 410.612 851.505 410.612C850.64 409.52 851.657 407.696 851.657 407.696C851.787 407.486 851.918 407.297 852.053 407.124C849.995 404.175 846.554 402.242 842.647 402.242C836.638 402.242 831.718 406.83 831.273 412.646C833.547 411.558 836.025 414.249 836.025 414.249L837.001 415.203C839.936 418.095 840.781 418.071 841.206 417.406C841.206 417.406 841.794 416.565 840.814 414.857C839.626 412.795 840.928 411.268 840.928 411.268C844.386 406.632 849.922 412.529 849.922 412.529C851.877 414.454 853.118 415.175 853.902 415.381C854.004 414.768 854.061 414.144 854.061 413.504C854.061 412.146 853.816 410.845 853.371 409.641C851.857 409.13 851.644 410.338 851.673 410.531V410.527Z" fill="white" fill-opacity="0.46"/>
<path d="M846.415 415.992C844.112 413.725 842.761 413.08 841.977 413.076C841.891 413.084 841.238 413.157 841.365 413.813C841.479 414.385 843.565 417.076 841.156 419.46C837.78 422.267 834.155 418.01 834.155 418.01C833.033 416.979 831.677 415.404 831.506 415.924C832.633 420.974 837.193 424.756 842.647 424.756C846.843 424.756 850.509 422.521 852.493 419.19C849.582 419.363 846.415 415.992 846.415 415.992Z" fill="white"/>
<g opacity="0.5">
<g opacity="0.5">
<g opacity="0.3">
<rect x="551.355" y="82.2402" width="149.817" height="27.5709" fill="url(#paint14_linear_634_5118)" style="mix-blend-mode:screen"/>
</g>
<circle cx="700.338" cy="96.0257" r="13.7855" transform="rotate(90 700.338 96.0257)" fill="url(#paint15_linear_634_5118)"/>
</g>
<path d="M707.958 93.5112C707.996 93.7634 707.816 93.5828 707.816 93.5828C707.084 92.6594 707.944 91.1157 707.944 91.1157C708.054 90.9386 708.165 90.7784 708.279 90.6319C706.538 88.1376 703.627 86.502 700.321 86.502C695.237 86.502 691.076 90.3831 690.699 95.3036C692.623 94.3836 694.719 96.6598 694.719 96.6598L695.545 97.4674C698.028 99.914 698.743 99.8935 699.102 99.3313C699.102 99.3313 699.6 98.6191 698.771 97.1743C697.766 95.4297 698.867 94.1382 698.867 94.1382C701.793 90.2162 706.476 95.2048 706.476 95.2048C708.13 96.8336 709.18 97.4435 709.843 97.6173C709.93 97.0994 709.978 96.5712 709.978 96.0294C709.978 94.8811 709.771 93.7804 709.394 92.7616C708.113 92.3288 707.933 93.3511 707.958 93.5146V93.5112Z" fill="white" fill-opacity="0.46"/>
<path d="M703.508 98.135C701.56 96.2166 700.417 95.6714 699.753 95.668C699.681 95.6748 699.128 95.7361 699.235 96.2915C699.332 96.7754 701.097 99.0516 699.059 101.069C696.203 103.444 693.136 99.8422 693.136 99.8422C692.186 98.9699 691.04 97.6375 690.895 98.0771C691.848 102.35 695.706 105.55 700.32 105.55C703.87 105.55 706.972 103.659 708.65 100.841C706.188 100.987 703.508 98.135 703.508 98.135Z" fill="white"/>
</g>
<g opacity="0.5">
<g opacity="0.3">
<rect x="1122.73" y="166.93" width="219.445" height="40.3847" fill="url(#paint16_linear_634_5118)" style="mix-blend-mode:screen"/>
</g>
<circle cx="1340.95" cy="187.122" r="20.1924" transform="rotate(90 1340.95 187.122)" fill="url(#paint17_linear_634_5118)"/>
</g>
<path d="M1352.11 183.439C1352.17 183.808 1351.9 183.544 1351.9 183.544C1350.83 182.191 1352.09 179.93 1352.09 179.93C1352.25 179.67 1352.41 179.436 1352.58 179.221C1350.03 175.568 1345.77 173.172 1340.93 173.172C1333.48 173.172 1327.38 178.857 1326.83 186.064C1329.65 184.717 1332.72 188.051 1332.72 188.051L1333.93 189.234C1337.57 192.817 1338.61 192.787 1339.14 191.964C1339.14 191.964 1339.87 190.921 1338.65 188.804C1337.18 186.249 1338.8 184.357 1338.8 184.357C1343.08 178.612 1349.94 185.919 1349.94 185.919C1352.36 188.305 1353.9 189.199 1354.87 189.453C1355 188.694 1355.07 187.921 1355.07 187.127C1355.07 185.445 1354.77 183.833 1354.22 182.341C1352.34 181.707 1352.08 183.204 1352.11 183.444V183.439Z" fill="white" fill-opacity="0.65"/>
<path d="M1345.6 190.211C1342.74 187.401 1341.07 186.603 1340.1 186.598C1339.99 186.608 1339.18 186.697 1339.34 187.511C1339.48 188.22 1342.07 191.554 1339.08 194.509C1334.9 197.988 1330.4 192.712 1330.4 192.712C1329.01 191.434 1327.33 189.483 1327.12 190.126C1328.52 196.385 1334.17 201.072 1340.93 201.072C1346.13 201.072 1350.67 198.302 1353.13 194.174C1349.52 194.389 1345.6 190.211 1345.6 190.211Z" fill="white"/>
<path d="M1483.14 377.74C1483.33 377.545 1483.33 377.228 1483.14 377.033L1479.96 373.851C1479.76 373.656 1479.44 373.656 1479.25 373.851C1479.05 374.046 1479.05 374.363 1479.25 374.558L1482.08 377.387L1479.25 380.215C1479.05 380.41 1479.05 380.727 1479.25 380.922C1479.44 381.118 1479.76 381.118 1479.96 380.922L1483.14 377.74ZM1452.84 447.524H1450.75V448.524H1452.84V447.524ZM1446.56 447.524H1442.38V448.524H1446.56V447.524ZM1438.19 447.524H1434.01V448.524H1438.19V447.524ZM1429.82 447.524H1425.64V448.524H1429.82V447.524ZM1421.46 447.524H1417.27V448.524H1421.46V447.524ZM1413.09 447.524H1408.9V448.524H1413.09V447.524ZM1404.72 447.524H1400.53V448.524H1404.72V447.524ZM1396.35 447.524H1392.16V448.524H1396.35V447.524ZM1387.98 447.524H1383.79V448.524H1387.98V447.524ZM1379.61 447.524H1375.42V448.524H1379.61V447.524ZM1371.24 447.524H1369.14V448.524H1371.24V447.524ZM1369.14 447.524C1368.64 447.524 1368.15 447.475 1367.68 447.381L1367.49 448.362C1368.02 448.468 1368.58 448.524 1369.14 448.524V447.524ZM1364.98 446.261C1364.16 445.713 1363.46 445.009 1362.91 444.191L1362.08 444.747C1362.7 445.674 1363.49 446.472 1364.42 447.092L1364.98 446.261ZM1361.79 441.488C1361.69 441.015 1361.64 440.526 1361.64 440.024H1360.64C1360.64 440.591 1360.7 441.146 1360.81 441.682L1361.79 441.488ZM1361.64 440.024V438.073H1360.64V440.024H1361.64ZM1361.64 434.17V430.267H1360.64V434.17H1361.64ZM1361.64 426.365V422.462H1360.64V426.365H1361.64ZM1361.64 418.559V414.657H1360.64V418.559H1361.64ZM1361.64 410.754V406.851H1360.64V410.754H1361.64ZM1361.64 402.949V399.046H1360.64V402.949H1361.64ZM1361.64 395.143V391.241H1360.64V395.143H1361.64ZM1361.64 387.338V385.387H1360.64V387.338H1361.64ZM1361.64 385.387C1361.64 384.885 1361.69 384.396 1361.79 383.922L1360.81 383.728C1360.7 384.265 1360.64 384.82 1360.64 385.387H1361.64ZM1362.91 381.22C1363.46 380.402 1364.16 379.697 1364.98 379.15L1364.42 378.319C1363.49 378.939 1362.7 379.737 1362.08 380.664L1362.91 381.22ZM1367.68 378.029C1368.15 377.936 1368.64 377.887 1369.14 377.887V376.887C1368.58 376.887 1368.02 376.942 1367.49 377.048L1367.68 378.029ZM1369.14 377.887H1371.17V376.887H1369.14V377.887ZM1375.23 377.887H1379.29V376.887H1375.23V377.887ZM1383.35 377.887H1387.41V376.887H1383.35V377.887ZM1391.47 377.887H1395.53V376.887H1391.47V377.887ZM1399.58 377.887H1403.64V376.887H1399.58V377.887ZM1407.7 377.887H1411.76V376.887H1407.7V377.887ZM1415.82 377.887H1419.88V376.887H1415.82V377.887ZM1423.94 377.887H1427.99V376.887H1423.94V377.887ZM1432.05 377.887H1436.11V376.887H1432.05V377.887ZM1440.17 377.887H1444.23V376.887H1440.17V377.887ZM1448.29 377.887H1452.34V376.887H1448.29V377.887ZM1456.4 377.887H1460.46V376.887H1456.4V377.887ZM1464.52 377.887H1468.58V376.887H1464.52V377.887ZM1472.64 377.887H1476.7V376.887H1472.64V377.887ZM1480.75 377.887H1482.78V376.887H1480.75V377.887Z" fill="white" fill-opacity="0.3"/>
</g>
<defs>
<filter id="filter0_f_634_5118" x="-106.758" y="-33.6934" width="1653.94" height="464.275" filterUnits="userSpaceOnUse" color-interpolation-filters="sRGB">
<feFlood flood-opacity="0" result="BackgroundImageFix"/>
<feBlend mode="normal" in="SourceGraphic" in2="BackgroundImageFix" result="shape"/>
<feGaussianBlur stdDeviation="17" result="effect1_foregroundBlur_634_5118"/>
</filter>
<filter id="filter1_f_634_5118" x="896.617" y="-403.791" width="991.367" height="943.094" filterUnits="userSpaceOnUse" color-interpolation-filters="sRGB">
<feFlood flood-opacity="0" result="BackgroundImageFix"/>
<feBlend mode="normal" in="SourceGraphic" in2="BackgroundImageFix" result="shape"/>
<feGaussianBlur stdDeviation="117" result="effect1_foregroundBlur_634_5118"/>
</filter>
<filter id="filter2_f_634_5118" x="-135.418" y="-310.303" width="1175.03" height="832.441" filterUnits="userSpaceOnUse" color-interpolation-filters="sRGB">
<feFlood flood-opacity="0" result="BackgroundImageFix"/>
<feBlend mode="normal" in="SourceGraphic" in2="BackgroundImageFix" result="shape"/>
<feGaussianBlur stdDeviation="117" result="effect1_foregroundBlur_634_5118"/>
</filter>
<filter id="filter3_f_634_5118" x="233.113" y="-469.322" width="1103" height="1079.22" filterUnits="userSpaceOnUse" color-interpolation-filters="sRGB">
<feFlood flood-opacity="0" result="BackgroundImageFix"/>
<feBlend mode="normal" in="SourceGraphic" in2="BackgroundImageFix" result="shape"/>
<feGaussianBlur stdDeviation="117" result="effect1_foregroundBlur_634_5118"/>
</filter>
<filter id="filter4_f_634_5118" x="-543.225" y="-541.164" width="1157.37" height="1109.09" filterUnits="userSpaceOnUse" color-interpolation-filters="sRGB">
<feFlood flood-opacity="0" result="BackgroundImageFix"/>
<feBlend mode="normal" in="SourceGraphic" in2="BackgroundImageFix" result="shape"/>
<feGaussianBlur stdDeviation="158.5" result="effect1_foregroundBlur_634_5118"/>
</filter>
<filter id="filter5_b_634_5118" x="48.4824" y="176.795" width="221.748" height="171.277" filterUnits="userSpaceOnUse" color-interpolation-filters="sRGB">
<feFlood flood-opacity="0" result="BackgroundImageFix"/>
<feGaussianBlur in="BackgroundImageFix" stdDeviation="3"/>
<feComposite in2="SourceAlpha" operator="in" result="effect1_backgroundBlur_634_5118"/>
<feBlend mode="normal" in="SourceGraphic" in2="effect1_backgroundBlur_634_5118" result="shape"/>
</filter>
<filter id="filter6_b_634_5118" x="1116.73" y="197.246" width="230.023" height="177.562" filterUnits="userSpaceOnUse" color-interpolation-filters="sRGB">
<feFlood flood-opacity="0" result="BackgroundImageFix"/>
<feGaussianBlur in="BackgroundImageFix" stdDeviation="3"/>
<feComposite in2="SourceAlpha" operator="in" result="effect1_backgroundBlur_634_5118"/>
<feBlend mode="normal" in="SourceGraphic" in2="effect1_backgroundBlur_634_5118" result="shape"/>
</filter>
<linearGradient id="paint0_linear_634_5118" x1="1018.37" y1="84.8964" x2="847.157" y2="84.8964" gradientUnits="userSpaceOnUse">
<stop stop-color="#89ECD8"/>
<stop offset="1" stop-color="#89ECD8" stop-opacity="0"/>
</linearGradient>
<linearGradient id="paint1_linear_634_5118" x1="1027.41" y1="44.5117" x2="1027.41" y2="84.8964" gradientUnits="userSpaceOnUse">
<stop stop-color="#1EAFB3"/>
<stop offset="1" stop-color="#5AD7FF"/>
</linearGradient>
<linearGradient id="paint2_linear_634_5118" x1="262.34" y1="254.629" x2="69.8713" y2="254.335" gradientUnits="userSpaceOnUse">
<stop stop-color="#1697D8" stop-opacity="0.53"/>
<stop offset="0.848958" stop-color="#1697D8" stop-opacity="0"/>
</linearGradient>
<linearGradient id="paint3_linear_634_5118" x1="262.34" y1="254.629" x2="69.8713" y2="254.335" gradientUnits="userSpaceOnUse">
<stop stop-color="#1697D8" stop-opacity="0.53"/>
<stop offset="0.848958" stop-color="#1697D8" stop-opacity="0"/>
</linearGradient>
<linearGradient id="paint4_linear_634_5118" x1="262.34" y1="254.629" x2="69.8713" y2="254.335" gradientUnits="userSpaceOnUse">
<stop stop-color="#1697D8" stop-opacity="0.53"/>
<stop offset="0.848958" stop-color="#1697D8" stop-opacity="0"/>
</linearGradient>
<linearGradient id="paint5_linear_634_5118" x1="1338.79" y1="294.14" x2="1138.72" y2="294.446" gradientUnits="userSpaceOnUse">
<stop stop-color="#1697D8" stop-opacity="0.53"/>
<stop offset="0.848958" stop-color="#1697D8" stop-opacity="0"/>
</linearGradient>
<linearGradient id="paint6_linear_634_5118" x1="1338.79" y1="294.14" x2="1138.72" y2="294.446" gradientUnits="userSpaceOnUse">
<stop stop-color="#1697D8" stop-opacity="0.53"/>
<stop offset="0.848958" stop-color="#1697D8" stop-opacity="0"/>
</linearGradient>
<linearGradient id="paint7_linear_634_5118" x1="1338.79" y1="294.14" x2="1138.72" y2="294.446" gradientUnits="userSpaceOnUse">
<stop stop-color="#1697D8" stop-opacity="0.53"/>
<stop offset="0.848958" stop-color="#1697D8" stop-opacity="0"/>
</linearGradient>
<linearGradient id="paint8_linear_634_5118" x1="683.324" y1="-146.516" x2="683.324" y2="519.182" gradientUnits="userSpaceOnUse">
<stop offset="0.489583" stop-color="#3C46F4" stop-opacity="0"/>
<stop offset="0.885417" stop-color="#94CAFB" stop-opacity="0.91"/>
</linearGradient>
<linearGradient id="paint9_linear_634_5118" x1="904.58" y1="101.169" x2="746.897" y2="101.169" gradientUnits="userSpaceOnUse">
<stop stop-color="#78BDFD"/>
<stop offset="1" stop-color="#78BDFD" stop-opacity="0"/>
</linearGradient>
<linearGradient id="paint10_linear_634_5118" x1="529.762" y1="402.348" x2="169.408" y2="402.348" gradientUnits="userSpaceOnUse">
<stop stop-color="#78BDFD"/>
<stop offset="1" stop-color="#78BDFD" stop-opacity="0"/>
</linearGradient>
<linearGradient id="paint11_linear_634_5118" x1="1307.13" y1="138.927" x2="946.777" y2="138.927" gradientUnits="userSpaceOnUse">
<stop stop-color="#37C3FF"/>
<stop offset="1" stop-color="#78BDFD" stop-opacity="0"/>
</linearGradient>
<linearGradient id="paint12_linear_634_5118" x1="835.372" y1="429.794" x2="697.207" y2="429.794" gradientUnits="userSpaceOnUse">
<stop stop-color="#89ECD8"/>
<stop offset="1" stop-color="#89ECD8" stop-opacity="0"/>
</linearGradient>
<linearGradient id="paint13_linear_634_5118" x1="842.666" y1="397.205" x2="842.666" y2="429.794" gradientUnits="userSpaceOnUse">
<stop stop-color="#23A3FF"/>
<stop offset="1" stop-color="white"/>
</linearGradient>
<linearGradient id="paint14_linear_634_5118" x1="694.168" y1="109.811" x2="577.276" y2="109.811" gradientUnits="userSpaceOnUse">
<stop stop-color="#89ECD8"/>
<stop offset="1" stop-color="#89ECD8" stop-opacity="0"/>
</linearGradient>
<linearGradient id="paint15_linear_634_5118" x1="700.338" y1="82.2402" x2="700.338" y2="109.811" gradientUnits="userSpaceOnUse">
<stop stop-color="#23A3FF"/>
<stop offset="1" stop-color="white"/>
</linearGradient>
<linearGradient id="paint16_linear_634_5118" x1="1331.91" y1="207.314" x2="1160.7" y2="207.314" gradientUnits="userSpaceOnUse">
<stop stop-color="#F4FFFF"/>
<stop offset="1" stop-color="#89ECD8" stop-opacity="0"/>
</linearGradient>
<linearGradient id="paint17_linear_634_5118" x1="1369.73" y1="178.534" x2="1340.95" y2="207.314" gradientUnits="userSpaceOnUse">
<stop stop-color="#287EFF"/>
<stop offset="1" stop-color="#F9FDFF"/>
</linearGradient>
<clipPath id="clip0_634_5118">
<rect width="1440" height="469" fill="white" transform="translate(0 0.5)"/>
</clipPath>
<clipPath id="clip1_634_5118">
<rect width="104.511" height="149.276" fill="white" transform="translate(304.533 205.758) rotate(90)"/>
</clipPath>
<clipPath id="clip2_634_5118">
<rect width="108.634" height="155.165" fill="white" transform="matrix(-4.37114e-08 -1 -1 4.37114e-08 1382.64 344.939)"/>
</clipPath>
</defs>
</svg>
