<svg width="24" height="23" viewBox="0 0 24 23" fill="none" xmlns="http://www.w3.org/2000/svg">
<path d="M5.72769 22.1952V7.85793H0.868133V22.1952H5.72769ZM3.29854 5.89925C4.99316 5.89925 6.04797 4.79831 6.04797 3.42251C6.0164 2.01569 4.99322 0.945312 3.3307 0.945312C1.66844 0.945312 0.581421 2.01571 0.581421 3.42251C0.581421 4.79838 1.63598 5.89925 3.26682 5.89925H3.29839H3.29854ZM8.41744 22.1952H13.277V14.1886C13.277 13.7601 13.3086 13.332 13.4369 13.0257C13.7882 12.1695 14.5878 11.2828 15.9302 11.2828C17.6887 11.2828 18.3922 12.5976 18.3922 14.525V22.1951H23.2514V13.9742C23.2514 9.57039 20.854 7.52133 17.6567 7.52133C15.0352 7.52133 13.8841 8.95829 13.2447 9.93699H13.2771V7.85763H8.41755C8.48133 9.20296 8.41755 22.1949 8.41755 22.1949L8.41744 22.1952Z" fill="#3196F5"/>
</svg>
