<svg width="53" height="45" viewBox="0 0 53 45" fill="none" xmlns="http://www.w3.org/2000/svg">
<path d="M0.125 44.9121V31.8392C0.125 28.1272 0.784889 24.3344 2.10466 20.4609C3.42444 16.5875 5.16581 12.936 7.32878 9.50633C9.49175 6.07671 11.838 3.21197 14.3676 0.912109L24.7059 7.63013C22.6529 11.1808 20.9665 14.8929 19.6467 18.7663C18.3636 22.6398 17.722 26.957 17.722 31.7182V44.9121H0.125ZM27.8953 44.9121V31.8392C27.8953 28.1272 28.5552 24.3344 29.875 20.4609C31.1948 16.5875 32.9361 12.936 35.0991 9.50633C37.2621 6.07671 39.6083 3.21197 42.1379 0.912109L52.4762 7.63013C50.4232 11.1808 48.7368 14.8929 47.417 18.7663C46.1339 22.6398 45.4923 26.957 45.4923 31.7182V44.9121H27.8953Z" fill="#B8DBF9"/>
</svg>
