<svg width="55" height="55" viewBox="0 0 55 55" fill="none" xmlns="http://www.w3.org/2000/svg">
<rect x="0.934082" y="0.757812" width="54.0006" height="54.0006" rx="6" fill="#3196F5" fill-opacity="0.11"/>
<path d="M24.3414 27.1408C26.1424 27.1408 27.8692 26.4247 29.1423 25.1516C30.4153 23.8784 31.1315 22.1515 31.1315 20.3507C31.1315 18.5499 30.4155 16.8228 29.1423 15.5498C27.8691 14.2768 26.1422 13.5605 24.3414 13.5605C22.5406 13.5605 20.8136 14.2766 19.5405 15.5498C18.2675 16.823 17.5513 18.5499 17.5513 20.3507C17.5544 22.1501 18.2704 23.8754 19.5436 25.1488C20.8168 26.422 22.5421 27.138 24.3417 27.1411L24.3414 27.1408ZM24.3414 25.9062C21.9911 25.9031 19.8985 24.4185 19.119 22.2024C24.1561 21.9802 26.1437 20.0172 26.9216 18.4987C27.6438 19.5774 28.6531 20.4323 29.8352 20.9679C29.5281 23.7719 27.1623 25.8983 24.3414 25.9062ZM24.3414 14.7949C24.6979 14.7949 25.0544 14.8319 25.4031 14.906L25.7488 14.9924C25.9741 15.0511 26.1964 15.1205 26.4155 15.2023C26.539 15.2563 26.6578 15.3181 26.7735 15.3875C26.9603 15.4739 27.1424 15.5727 27.3168 15.6838L27.6748 15.9307L28.1316 16.3134L28.4279 16.6221C28.5621 16.7656 28.6856 16.9184 28.7982 17.0789C28.8908 17.1962 28.9726 17.3196 29.0452 17.4492C29.1516 17.6113 29.2473 17.7795 29.3291 17.9554L29.5143 18.3628C29.5853 18.5526 29.6424 18.7455 29.6872 18.9431C29.6872 19.0912 29.7736 19.227 29.7983 19.3752C29.7921 19.4246 29.7921 19.474 29.7983 19.5234C28.5945 18.8968 27.701 17.8026 27.3291 16.4986C27.2581 16.2193 27.0004 16.0279 26.7118 16.0419C26.3985 16.0681 26.1609 16.3335 26.1686 16.6468C26.1686 16.8073 26.0081 20.7207 18.8227 20.9554C18.798 20.7548 18.7856 20.5526 18.7856 20.3505C18.7918 17.2856 21.2767 14.8008 24.3414 14.7949Z" fill="#3196F5"/>
<path d="M44.6133 32.6954V31.4608C44.6195 30.9809 44.4343 30.5179 44.0979 30.1753C43.763 29.8311 43.3031 29.6367 42.8231 29.6336H33.428C33.2227 29.6382 33.0329 29.7447 32.9218 29.9176L32.8848 29.7447C32.4156 28.9021 31.5283 28.3774 30.5638 28.3743H28.7119C28.1687 28.3743 27.6547 28.6135 27.3044 29.0286C26.5729 29.8728 25.5081 30.3512 24.3908 30.3373C23.2488 30.3697 22.1546 29.8728 21.4278 28.9916C21.0744 28.5842 20.5605 28.3496 20.0204 28.3496H18.1685C17.1993 28.3573 16.3104 28.8928 15.8474 29.7447L11.6747 37.2387C11.113 38.2125 11.113 39.4132 11.6747 40.387C11.755 40.5027 11.8414 40.6154 11.934 40.7203H11.897C11.5559 40.7203 11.2797 40.9965 11.2797 41.3376C11.2797 41.6786 11.5559 41.9549 11.897 41.9549H42.8233C43.3079 41.9518 43.7709 41.7543 44.1073 41.4055C44.4438 41.0567 44.6274 40.5876 44.6135 40.103V38.8684C44.6166 38.2635 44.3203 37.6955 43.8233 37.3499C43.9823 37.0767 44.0687 36.7649 44.0703 36.4486V35.1646C44.0687 34.8483 43.9823 34.5366 43.8233 34.2634C44.3357 33.9085 44.6318 33.3189 44.6133 32.6954ZM14.4648 40.72C13.7765 40.7185 13.1407 40.3527 12.7904 39.7601C12.4416 39.1675 12.4308 38.4345 12.7611 37.8311L16.9338 30.337C17.1822 29.8864 17.6545 29.6086 18.1684 29.6086H20.0203C20.1977 29.6132 20.3675 29.6888 20.4894 29.8185C21.4616 30.9281 22.866 31.5639 24.3413 31.5639C25.8167 31.5639 27.221 30.9281 28.1932 29.8185C28.3074 29.6765 28.4803 29.5947 28.6624 29.5962H30.5143C31.0282 29.5962 31.5004 29.874 31.7489 30.3247L33.3044 33.1272C33.2581 33.1689 33.2088 33.2059 33.1563 33.2383L33.0822 33.3001H32.8847C32.5436 33.3001 32.2674 33.5763 32.2674 33.9174V34.0408C32.2705 34.2754 32.4032 34.4899 32.6131 34.5964C32.8183 34.6936 32.948 34.9004 32.9464 35.1273V36.3618C32.948 36.5887 32.8183 36.7955 32.6131 36.8927L32.5513 36.9545H31.3168L32.3538 32.7817C32.4109 32.5642 32.3445 32.3311 32.181 32.1768C32.0128 32.0287 31.7767 31.9808 31.5637 32.0534L24.3537 34.4485L17.1314 32.1151C16.9184 32.041 16.6808 32.0889 16.5141 32.2417C16.3474 32.3929 16.2765 32.6244 16.3289 32.8435L17.3783 37.0162H15.6993C15.3582 37.0162 15.082 37.2925 15.082 37.6335C15.082 37.9746 15.3582 38.2508 15.6993 38.2508H18.1684C19.6746 38.1335 21.0065 39.2215 21.1932 40.72L14.4648 40.72ZM18.6624 37.0163L17.7982 33.5841L23.7859 35.5841V40.72H22.4402C22.2457 38.7416 20.6469 37.1953 18.6623 37.0656L18.6624 37.0163ZM26.243 40.72H25.0084V35.5841L30.8602 33.6335L30.0083 37.0656C28.0314 37.2061 26.4421 38.7478 26.243 40.72ZM33.4901 40.1027C33.4917 40.3296 33.362 40.5364 33.1568 40.6336L33.0827 40.6954H27.5024C27.6953 39.2046 29.0147 38.1228 30.5148 38.2262H33.0827L33.1568 38.2879C33.362 38.3851 33.4917 38.5919 33.4901 38.8188V40.1027ZM34.1198 34.5473H42.3175C42.6338 34.5612 42.8808 34.8235 42.873 35.1399V36.3745C42.8807 36.6908 42.6338 36.9532 42.3175 36.9671H34.1198C34.1846 36.7757 34.2186 36.5766 34.2186 36.3745V35.1646C34.2201 34.9547 34.1877 34.7463 34.1198 34.5473ZM43.3794 40.1027C43.3871 40.4191 43.1402 40.6814 42.8239 40.6953H34.6262C34.691 40.504 34.725 40.3049 34.725 40.1027V38.8681C34.725 38.666 34.691 38.4669 34.6262 38.2755H42.8239C43.1402 38.2894 43.3872 38.5518 43.3794 38.8681V40.1027ZM43.3794 32.6952C43.3871 33.0116 43.1402 33.2739 42.8239 33.2878H34.6262C34.691 33.0964 34.725 32.8974 34.725 32.6952V31.4606C34.725 31.2584 34.691 31.0594 34.6262 30.868H42.8239C43.1402 30.8819 43.3872 31.1442 43.3794 31.4606V32.6952Z" fill="#3196F5"/>
</svg>
