<svg width="393" height="403" viewBox="0 0 393 403" fill="none" xmlns="http://www.w3.org/2000/svg">
<g clip-path="url(#clip0_682_8664)">
<rect width="393" height="403" fill="white"/>
<g clip-path="url(#clip1_682_8664)">
<rect width="393" height="724" transform="translate(0 -319)" fill="#F6F7FC"/>
<path d="M96.2729 194.971C101.273 196.201 198.803 195.521 198.803 195.521C198.803 195.521 239.303 196.061 296.263 196.061C353.223 196.061 377.273 194.701 377.273 194.701C377.273 194.701 494.993 195.521 501.323 194.971C507.653 194.431 467.233 191.701 445.633 193.341C431.713 188.441 367.153 183.271 330.443 188.981C305.123 185.991 299.133 191.261 299.133 191.261C299.133 191.261 264.623 183.531 197.543 188.921C95.5329 186.471 87.4129 192.791 96.2729 194.971Z" fill="white" fill-opacity="0.61"/>
<path d="M766.934 214.921C761.354 223.921 509.444 220.521 426.694 218.471C372.744 220.781 326.494 219.611 322.094 216.971C317.694 214.331 376.044 214.331 376.044 214.331C376.044 214.331 425.634 204.241 478.444 210.781C503.554 207.001 618.984 205.681 641.004 213.371C660.824 208.641 658.224 213.551 658.224 213.551C658.224 213.551 770.234 209.601 766.934 214.921Z" fill="white" fill-opacity="0.61"/>
<g clip-path="url(#clip2_682_8664)">
<path d="M226.875 53.0948C224.229 53.7274 207.011 51.8041 207.65 54.9862C208.289 58.1747 226.881 56.9031 226.881 56.9031C226.881 56.9031 236.973 58.4495 251.001 57.0373C265.029 55.6188 307.76 58.8201 309.032 53.0821L246.54 51.6699C246.54 51.6699 238.442 43.4399 226.875 53.0948Z" fill="white" fill-opacity="0.63"/>
<path d="M438.26 93.8559C435.742 96.7377 386.613 95.1339 386.613 95.1339C386.613 95.1339 366.213 96.399 337.523 96.399C308.834 96.399 296.716 93.2105 296.716 93.2105C296.716 93.2105 237.42 95.1211 234.23 93.8495C232.69 93.2297 236.659 91.415 242.405 90.1498C248.527 88.7888 256.67 88.0412 262.287 90.022C269.298 78.5524 301.816 66.4374 320.306 79.824C333.056 72.8144 336.079 85.1722 336.079 85.1722C336.079 85.1722 353.463 67.0764 387.253 79.6834C401.268 70.1243 425.912 80.2776 435.071 87.9645C437.992 90.4182 439.34 92.6227 438.26 93.8559Z" fill="white" fill-opacity="0.63"/>
<path d="M438.26 93.8552C435.742 96.737 386.613 95.1332 386.613 95.1332C386.613 95.1332 366.213 96.3983 337.523 96.3983C308.834 96.3983 296.716 93.2098 296.716 93.2098C296.716 93.2098 237.42 95.1204 234.23 93.8488C232.69 93.229 236.659 91.4143 242.405 90.1491C256.638 91.7658 271.171 92.5134 285.168 89.4846C291.52 88.1108 298.717 86.1108 304.079 89.7849C306.22 88.4942 309.23 88.9095 310.936 90.7306C313.25 88.769 316.503 88.2578 319.52 88.5709C322.536 88.8776 325.419 89.9063 328.339 90.7178C336.443 92.9606 345.02 93.491 353.335 92.2706C361.771 91.0309 369.997 88.015 378.522 88.1491C380.791 88.1875 383.111 88.1811 385.112 89.2482C386.224 89.8424 387.246 90.6539 388.461 90.9862C390.167 91.459 391.956 90.9351 393.695 90.6156C399.99 89.4654 406.426 91.0629 412.811 91.4782C420.371 91.9702 428.021 90.7306 435.071 87.9638C437.992 90.4175 439.34 92.622 438.26 93.8552Z" fill="white" fill-opacity="0.31"/>
</g>
<path d="M273.879 141.244L20.9801 114.619L20.9801 178.96C20.9801 179.134 21.0218 179.28 21.1959 179.267C27.9248 178.761 190.344 166.55 273.881 159.29C274.036 159.276 274.147 159.147 274.147 158.992L274.147 141.542C274.147 141.389 274.032 141.26 273.879 141.244Z" fill="url(#paint0_linear_682_8664)"/>
<path d="M311.149 215.769H273.121L274.75 192.977H309.514L311.149 215.769Z" fill="url(#paint1_linear_682_8664)"/>
<path d="M313.148 243.715H271.117L273.122 215.77H311.149L313.148 243.715Z" fill="url(#paint2_linear_682_8664)"/>
<path d="M292.129 210.482C286.407 210.482 281.774 215.121 281.774 220.837C281.774 226.553 286.407 231.198 292.129 231.198C297.851 231.198 302.49 226.559 302.49 220.837C302.49 215.115 297.851 210.482 292.129 210.482ZM292.129 228.4C287.963 228.4 284.572 225.009 284.572 220.837C284.572 216.665 287.963 213.28 292.129 213.28C296.295 213.28 299.686 216.671 299.686 220.837C299.686 225.003 296.295 228.4 292.129 228.4Z" fill="url(#paint3_linear_682_8664)"/>
<path d="M299.687 220.836C299.687 225.009 296.296 228.4 292.129 228.4C287.963 228.4 284.572 225.009 284.572 220.836C284.572 216.664 287.963 213.279 292.129 213.279C296.296 213.279 299.687 216.67 299.687 220.836Z" fill="#339ABE"/>
<path d="M296.737 277.031H287.533C287.125 277.031 286.794 277.362 286.794 277.77V291.649C286.794 292.057 287.125 292.388 287.533 292.388H296.737C297.145 292.388 297.476 292.057 297.476 291.649V277.77C297.476 277.362 297.145 277.031 296.737 277.031Z" stroke="#231F20" stroke-width="0.31" stroke-miterlimit="10"/>
<path d="M316.466 180.642V184.415C316.466 184.736 316.206 185.002 315.879 185.002H268.392C268.065 185.002 267.799 184.736 267.799 184.415V180.642C267.799 180.321 268.065 180.055 268.392 180.055H315.879C316.206 180.055 316.466 180.321 316.466 180.642Z" fill="url(#paint4_linear_682_8664)"/>
<path d="M300.601 348.104V364.084C297.876 364.005 295.115 363.963 292.353 363.963H291.917C289.156 363.963 286.395 364.005 283.67 364.084V348.104C283.67 343.441 287.455 339.656 292.117 339.656H292.154C296.816 339.656 300.601 343.441 300.601 348.104Z" fill="#2A2D4A"/>
<path d="M382.742 404.998H201.528C201.528 404.998 229.014 376.641 235.208 372.389C238.509 370.124 247.15 367.189 258.364 364.924C265.915 363.411 274.635 362.209 283.67 361.747C286.395 361.597 289.156 361.516 291.917 361.516H292.353C295.114 361.516 297.876 361.597 300.601 361.747C309.635 362.209 318.349 363.411 325.9 364.924C337.121 367.189 345.762 370.124 349.062 372.389C355.251 376.641 382.742 404.998 382.742 404.998Z" fill="url(#paint5_linear_682_8664)"/>
<path d="M325.9 335.271V365.748C318.349 364.955 309.635 364.325 300.601 364.083V348.102C300.601 343.44 296.816 339.655 292.153 339.655H292.117C287.454 339.655 283.67 343.44 283.67 348.102V364.083C274.635 364.325 265.915 364.955 258.364 365.748V335.271C258.364 333.309 259.957 331.723 261.913 331.723H322.352C324.314 331.723 325.9 333.309 325.9 335.271Z" fill="url(#paint6_linear_682_8664)"/>
<path d="M319.451 331.723H264.819L267.114 299.611H317.15L319.451 331.723Z" fill="url(#paint7_linear_682_8664)"/>
<path d="M317.15 299.612H267.114L269.119 271.666H315.152L317.15 299.612Z" fill="url(#paint8_linear_682_8664)"/>
<path d="M315.151 271.667H269.118L271.116 243.715H313.147L315.151 271.667Z" fill="url(#paint9_linear_682_8664)"/>
<path d="M313.044 185.002H271.22V188.787H313.044V185.002Z" fill="url(#paint10_linear_682_8664)"/>
<path d="M313.044 188.785L309.514 192.975H274.75L271.22 188.785H313.044Z" fill="url(#paint11_linear_682_8664)"/>
<path d="M302.684 175.374H281.587L282.725 167.581C285.468 169.052 288.605 169.888 291.936 169.888C295.266 169.888 298.687 168.973 301.515 167.381L302.684 175.374Z" fill="url(#paint12_linear_682_8664)"/>
<path d="M303.362 180.054H280.908L281.586 175.373H302.683L303.362 180.054Z" fill="url(#paint13_linear_682_8664)"/>
<path d="M291.935 128.162C279.698 128.162 269.776 138.084 269.776 150.321C269.776 158.779 274.517 166.13 281.484 169.861C284.597 171.531 288.156 172.479 291.935 172.479C295.714 172.479 299.596 171.442 302.805 169.635C309.545 165.835 314.093 158.607 314.093 150.321C314.093 138.084 304.172 128.162 291.935 128.162ZM302.255 165.869C299.3 167.848 295.748 168.996 291.935 168.996C288.122 168.996 284.899 167.951 282.027 166.137C276.771 162.832 273.267 156.978 273.267 150.321C273.267 140.028 281.642 131.653 291.935 131.653C302.227 131.653 310.603 140.028 310.603 150.321C310.603 156.807 307.284 162.523 302.255 165.869Z" fill="#B7BAD0"/>
<g filter="url(#filter0_f_682_8664)">
<path d="M291.935 128.162C279.698 128.162 269.776 138.084 269.776 150.321C269.776 158.779 274.517 166.13 281.484 169.861C284.597 171.531 288.156 172.479 291.935 172.479C295.714 172.479 299.596 171.442 302.805 169.635C309.545 165.835 314.093 158.607 314.093 150.321C314.093 138.084 304.172 128.162 291.935 128.162ZM302.255 165.869C299.3 167.848 295.748 168.996 291.935 168.996C288.122 168.996 284.899 167.951 282.027 166.137C276.771 162.832 273.267 156.978 273.267 150.321C273.267 140.028 281.642 131.653 291.935 131.653C302.227 131.653 310.603 140.028 310.603 150.321C310.603 156.807 307.284 162.523 302.255 165.869Z" fill="#2CD9FF"/>
</g>
<path d="M310.603 150.32C310.603 156.807 307.284 162.523 302.255 165.869C299.3 167.848 295.748 168.995 291.935 168.995C288.121 168.995 284.899 167.951 282.027 166.137C276.771 162.832 273.267 156.978 273.267 150.32C273.267 140.028 281.642 131.652 291.935 131.652C302.227 131.652 310.603 140.028 310.603 150.32Z" fill="white"/>
<path d="M339.226 369.981C339.447 369.976 339.579 369.839 339.579 369.648C339.579 368.927 339.24 368.242 339.602 367.578C339.848 367.126 340.336 366.888 340.333 366.253C340.333 366.222 340.305 366.116 340.267 366.002C339.724 366.053 339.226 366.387 338.719 366.653C338.524 366.756 337.45 367.421 337.089 368.247C336.852 368.79 336.778 369.402 336.793 369.971C337.147 370.515 338.732 369.991 339.226 369.98V369.981Z" fill="#B0B0B0"/>
<path d="M342.184 367.513C341.858 368.248 342.339 368.485 341.948 368.989C341.802 369.237 341.717 369.558 341.828 369.699C342.054 369.983 343.016 370.209 343.46 370.03C343.943 369.834 344.179 369.299 344.504 368.894C344.769 368.563 344.962 368.239 345.321 367.989C345.418 367.922 345.734 367.814 346.083 367.699C346.079 367.699 346.078 367.699 346.075 367.697C346.389 367.5 346.859 367.271 347.017 366.911C346.656 366.635 344.875 366.372 343.829 366.522C343.252 366.605 342.68 366.819 342.102 366.666C342.243 366.946 342.289 367.273 342.182 367.514L342.184 367.513Z" fill="#B0B0B0"/>
<path d="M351.156 373.363C351.141 372.064 351.031 371.264 350.551 370.481C350.916 371.369 350.59 372.054 349.858 372.576C349.616 372.749 349.516 373.097 349.206 373.154C348.751 373.239 348.33 373.359 348.002 373.916C347.897 374.095 347.588 374.004 347.407 374.183C347.139 374.451 346.71 374.72 346.374 374.883C345.148 375.479 341.831 376.71 340.468 375.748C340.399 375.699 339.814 375.033 339.916 375.028C341.056 374.971 342.085 374.397 342.904 373.681C343.166 373.451 343.554 373.015 343.882 372.891C345.127 372.421 344.493 372.23 344.66 371.738C344.839 371.216 345.406 371.152 345.889 370.964C346.262 370.819 347.188 370.682 347.286 370.266C347.37 369.91 347.575 369.465 347.421 369.134C347.329 368.938 346.885 368.92 346.68 368.861C346.466 368.776 346.251 368.726 346.026 368.675C345.874 368.639 345.882 368.452 345.987 368.372C346.341 368.104 346.747 368.001 347.165 368.013C346.811 367.897 346.449 367.794 346.082 367.698C345.733 367.814 345.415 367.923 345.32 367.988C344.962 368.236 344.768 368.561 344.503 368.894C344.179 369.3 343.985 369.897 343.502 370.093C343.058 370.273 342.052 369.982 341.828 369.698C341.716 369.556 341.802 369.236 341.947 368.989C342.339 368.486 341.857 368.249 342.183 367.512C342.29 367.271 342.244 366.944 342.103 366.664C342.077 366.657 342.051 366.649 342.023 366.641C341.628 366.512 341.305 366.238 340.919 366.091C340.694 366.004 340.478 365.983 340.267 366.003C340.304 366.117 340.332 366.223 340.332 366.254C340.335 366.889 339.847 367.127 339.601 367.579C339.239 368.243 339.579 368.928 339.579 369.649C339.579 369.84 339.446 369.977 339.225 369.982C338.732 369.994 337.146 370.517 336.792 369.974C336.808 370.625 336.938 371.219 337.075 371.591C337.049 371.935 337.023 372.279 337.002 372.624C336.946 373.518 336.862 374.443 337.164 375.306C337.664 376.74 339.045 377.531 340.319 378.195C340.473 378.275 340.656 378.22 340.732 378.068C340.796 378.068 340.865 378.055 340.938 378.016C341.338 377.799 341.903 378.342 342.483 378.846C344.503 378.722 346.705 378.061 348.538 377.198C349.26 376.859 351.143 375.408 351.141 375.231C351.141 375.231 351.159 373.522 351.157 373.359L351.156 373.363Z" fill="#B9B9B9"/>
<path d="M345.989 368.374C345.884 368.452 345.876 368.641 346.029 368.677C346.253 368.729 346.468 368.778 346.682 368.863C346.887 368.922 347.331 368.938 347.423 369.136C347.577 369.467 347.372 369.912 347.288 370.268C347.19 370.684 346.264 370.821 345.891 370.966C345.406 371.154 344.839 371.218 344.662 371.74C344.495 372.232 345.129 372.422 343.884 372.893C343.556 373.017 343.168 373.453 342.906 373.683C342.085 374.399 341.058 374.973 339.918 375.03C339.816 375.035 340.401 375.701 340.47 375.75C341.833 376.711 345.15 375.479 346.376 374.885C346.712 374.722 347.141 374.453 347.41 374.185C347.59 374.006 347.899 374.097 348.004 373.918C348.33 373.361 348.753 373.241 349.208 373.156C349.516 373.099 349.618 372.751 349.86 372.578C350.593 372.056 350.919 371.371 350.553 370.483C350.375 370.19 350.145 369.899 349.847 369.586C349.084 368.782 348.16 368.341 347.17 368.016C346.753 368.005 346.346 368.108 345.992 368.375L345.989 368.374Z" fill="#B0B0B0"/>
<path d="M342.241 377.191C341.81 376.233 340.819 375.548 340.051 374.879C338.519 373.544 337.187 371.162 337.199 369.883C337.202 369.443 337.04 368.88 337.089 368.25C336.732 369.017 336.701 370.097 336.686 370.475C336.65 371.418 336.739 372.394 336.799 373.3C336.863 374.246 336.847 375.306 337.456 376.088C338.075 376.882 338.94 377.682 339.817 378.179C340.639 378.646 342.48 378.848 342.48 378.848C342.48 378.848 342.428 377.608 342.24 377.191H342.241Z" fill="#7E8890"/>
<path d="M347.747 372.946C347.262 373.232 346.811 373.475 346.659 373.614C346.487 373.772 346.019 373.883 345.817 374.002C345.231 374.345 344.613 374.635 343.968 374.847C342.888 375.203 341.197 375.764 340.2 375.002C340.617 375.877 341.897 377.399 342.067 378.665C342.067 378.668 342.071 378.671 342.071 378.675C341.694 378.523 341.063 378.192 340.745 377.79C340.403 377.358 339.648 376.676 339.248 376.511C339.127 376.461 338.714 376.35 338.589 376.205C338.095 375.629 337.98 375.756 337.782 375.622C337.254 375.266 336.945 374.642 336.845 373.996C336.973 375.33 337.307 375.948 337.534 376.234C338.632 377.601 339.495 378.185 340.604 378.503C341.627 378.797 342.483 378.913 342.483 378.913C342.483 378.913 343.974 378.828 344.962 378.543C345.632 378.348 348.587 377.324 349.179 377.019C350.145 376.521 351.859 375.78 351.964 375.612C352.06 375.107 352.001 374.211 351.962 373.854C351.929 373.544 351.86 373.209 351.769 372.873C350.963 373.035 349.706 373.302 349.092 373.775C348.604 373.513 347.975 373.121 347.752 372.945L347.747 372.946Z" fill="#55616B"/>
<path d="M349.043 372.022C348.751 372.334 348.232 372.662 347.747 372.947C347.972 373.123 348.599 373.515 349.087 373.778C349.701 373.303 350.958 373.035 351.764 372.875C351.487 371.869 350.932 370.59 350.412 370.094C350.214 370.972 349.58 371.448 349.041 372.022H349.043Z" fill="#657583"/>
<path d="M347.521 373.037C347.305 372.97 346.905 372.867 346.564 372.846C346.582 372.934 346.692 373.289 346.753 373.712C346.902 374.758 347.215 376.409 347.241 376.492C347.282 376.621 347.803 376.43 347.859 376.164C347.919 375.874 347.615 373.763 347.521 373.035V373.037Z" fill="#657583"/>
<path d="M357.428 375.819C356.072 374.528 354.032 372.489 351.976 372.712C350.918 372.826 349.755 373.208 348.838 373.701C347.716 374.306 346.459 375.408 345.689 376.196C345.581 376.306 345.986 376.471 346.087 376.494C349.814 377.359 353.665 377.238 357.337 376.165C357.484 376.12 357.545 375.926 357.428 375.815V375.819Z" fill="#B9B9B9"/>
<path d="M354.593 376.836C354.421 376.658 354.113 376.744 353.912 376.76C353.363 376.808 352.816 376.842 352.265 376.85C351.083 376.87 349.838 376.938 348.668 376.764C347.713 376.622 346.142 376.323 345.688 376.199C345.641 376.783 345.554 377.305 345.549 377.893C345.547 378.116 345.66 378.8 345.66 378.8C345.66 378.8 346.358 379.133 346.612 379.227C346.74 379.275 346.869 379.322 346.997 379.366C347.221 379.123 347.334 379.054 347.764 379.097C348.512 379.173 349.028 379.435 349.289 378.62C349.451 378.113 349.395 377.459 349.312 376.946C349.304 376.899 349.346 376.863 349.392 376.886C349.87 377.123 350.033 376.902 350.388 377.216C350.701 377.491 350.807 377.769 350.922 378.152C350.999 378.408 351.096 378.841 351.224 379.085C351.24 379.118 351.26 379.146 351.281 379.175C351.897 379.464 352.624 378.989 353.168 379.559C353.211 379.555 353.252 379.552 353.293 379.549C353.312 379.549 353.316 379.58 353.297 379.583C353.265 379.588 353.232 379.594 353.198 379.599C353.204 379.611 353.206 379.624 353.209 379.637C353.332 379.612 353.456 379.588 353.586 379.562C353.666 379.545 354.557 378.748 354.557 378.669C354.556 378.087 354.703 378.025 354.693 377.442C354.69 377.271 354.728 376.977 354.592 376.837L354.593 376.836Z" fill="#7E8890"/>
<path d="M353.301 379.58C353.32 379.576 353.316 379.544 353.296 379.545C353.257 379.549 353.214 379.552 353.171 379.555C352.628 378.986 351.9 379.461 351.284 379.172C351.265 379.144 351.245 379.115 351.227 379.082C351.099 378.837 351.002 378.405 350.925 378.149C350.811 377.765 350.925 377.188 350.801 376.989C350.549 376.588 349.875 377.121 349.397 376.884C349.353 376.862 349.31 376.899 349.317 376.945C349.4 377.457 349.456 378.111 349.294 378.619C349.033 379.433 348.517 379.172 347.769 379.095C347.339 379.051 347.226 379.121 347.002 379.364C347.421 379.511 347.846 379.645 348.281 379.741C350.239 380.174 351.382 379.997 353.214 379.634C353.211 379.621 353.209 379.607 353.203 379.596C353.237 379.591 353.27 379.585 353.302 379.58H353.301Z" fill="#55616B"/>
<path d="M347.452 368.111C347.424 368.052 347.175 367.075 347.018 366.908C346.797 367.142 346.001 367.269 345.798 367.427C345.047 368.008 344.779 368.484 344.077 369.119C343.814 369.36 343.66 369.993 343.172 369.891C342.706 369.793 341.894 369.533 341.564 370.021C342.234 370.204 342.562 370.385 343.227 370.462C343.502 370.494 344.107 370.354 344.279 370.145C344.693 369.641 344.988 369.267 345.571 368.913C346.143 368.566 347.059 368.786 347.452 368.111Z" fill="#55616B"/>
<path d="M357.644 375.894C357.49 375.868 357.254 375.814 357.129 375.838C356.299 376.001 355.704 376.165 354.872 376.323C354.842 376.328 354.816 376.334 354.79 376.339C354.602 376.223 354.408 376.116 354.213 376.008C354.15 375.974 354.076 375.995 354.036 376.054C353.845 376.349 353.799 376.709 353.923 377.028C353.907 377.073 353.891 377.121 353.874 377.173C353.869 377.189 353.863 377.205 353.856 377.223C353.802 377.263 353.783 377.328 353.791 377.39C353.517 378.057 354.043 379.074 354.05 378.977C354.536 379.078 354.88 379.53 355.322 379.426C355.896 379.291 356.916 378.871 357.49 378.625C357.675 377.821 357.717 376.527 357.644 375.894Z" fill="#55616B"/>
<path d="M356.952 375.71C356.762 375.203 356.451 374.904 356.164 374.883C355.478 374.964 354.55 375.279 353.853 375.162C353.436 375.092 352.94 374.924 352.513 374.986C352.314 375.015 352.2 375.07 352.055 375.198C351.993 375.253 352.006 375.367 351.965 375.423C351.731 375.743 351.479 375.854 351.11 375.973C349.977 376.341 348.558 376.539 347.378 376.513C347.328 376.513 351.115 377.157 352.273 377.053C352.971 376.989 353.651 376.823 353.912 376.159C354.893 376.54 355.915 376.457 356.852 375.948C356.927 375.907 356.98 375.795 356.949 375.712L356.952 375.71Z" fill="#B0B0B0"/>
<path d="M357.644 375.894C356.808 375.054 355.842 374.305 354.865 373.631C354.762 373.964 355.951 374.641 356.61 375.519C356.708 375.649 356.652 375.894 356.171 375.962C356.009 375.985 355.235 376.214 354.698 375.895C354.336 375.68 354.126 375.714 353.712 375.594C353.689 375.948 353.641 376.46 353.335 376.656C353.104 376.803 352.84 376.811 352.582 376.755C351.843 376.778 351.106 376.788 350.365 376.732C349.094 376.639 347.624 376.504 346.361 376.338C347.913 376.749 349.51 377.106 351.158 377.201C351.694 377.232 353.212 376.998 353.219 377.514C353.224 377.855 353.019 378.68 353.427 379.26C353.864 379.268 353.566 378.085 353.702 377.54C353.733 377.471 353.766 377.401 353.804 377.333C353.815 377.31 353.818 377.289 353.817 377.266L353.908 377.201C354.003 377.166 354.015 377.037 353.923 376.995C353.923 376.995 353.927 376.992 353.927 376.99C353.984 376.99 354.044 376.954 354.051 376.879C354.074 376.651 354.071 376.447 354.046 376.241V376.238C354.128 376.305 354.218 376.359 354.331 376.414C354.349 376.424 354.367 376.427 354.385 376.427C354.462 376.479 354.438 376.535 354.518 376.584C354.58 376.621 357.337 376.165 357.644 375.891V375.894Z" fill="#CFCFCF"/>
<path d="M349.413 369.18C349.798 369.477 350.201 370.237 349.875 370.856C349.458 371.65 348.26 372.396 348.085 372.528C347.603 372.422 347.369 372.326 347.348 372.474C347.343 372.505 347.489 372.66 347.508 372.699C347.533 372.743 347.425 372.822 347.333 372.778C347.084 372.657 346.723 372.458 346.524 372.337C346.486 372.314 346.137 372.104 346.083 372.337C345.975 372.809 346.106 373.061 345.777 373.435C345.434 373.825 344.944 374.107 344.496 374.359C344.04 374.613 342.408 375.383 341.412 375.262C340.972 375.209 340.369 374.903 340.072 374.691C339.471 374.264 338.605 373.194 338.161 372.476C337.692 371.719 337.443 371.074 337.265 370.307C337.45 370.427 339.075 370.471 339.553 369.782C338.945 369.989 338.126 370.164 337.643 369.732C337.518 369.621 337.478 369.462 337.489 369.327C337.525 368.888 337.907 368.452 338.102 368.165C338.361 367.784 338.6 367.31 338.909 366.929C339.316 366.715 339.966 366.372 340.21 366.012C338.333 366.191 337.558 367.609 337.037 368.25C336.685 369.402 336.966 370.883 337.507 372.039C337.889 372.854 338.449 373.556 339.073 374.2C339.286 374.421 340.697 376.125 341.009 376.437C341.142 376.612 341.714 377.661 341.763 377.69C341.763 377.338 341.632 376.437 342.001 375.796C343.283 375.373 344.536 374.825 345.764 374.267C346.073 374.127 346.452 373.863 346.748 373.595C346.812 373.375 346.642 372.952 346.64 372.928C346.905 373.048 347.449 373.236 347.541 373.194C347.611 373.161 350.5 371.476 350.567 370.595C350.604 370.094 349.834 369.337 349.413 369.185V369.18Z" fill="#CFCFCF"/>
<path d="M347.018 366.91C346.148 366.138 344.318 366.352 343.267 366.626C343.928 366.688 345.064 366.526 345.878 366.746C346.205 366.835 346.253 367.065 345.858 367.259C345.644 367.363 345.431 367.663 345.252 367.823C344.97 368.073 344.274 368.858 344.253 368.877C343.94 369.171 343.812 369.42 343.407 369.559C343.335 369.584 343.047 369.621 342.96 369.629C342.585 369.664 342.19 369.637 341.915 369.781C342.318 369.807 342.982 370.205 343.629 370.005C343.935 369.91 344.245 369.633 344.51 369.208C344.68 368.936 345.051 368.419 345.278 368.176C345.478 367.964 346.376 367.448 346.446 367.422C346.622 367.357 346.789 367.282 346.959 367.192C347.029 367.154 347.079 366.965 347.018 366.911V366.91Z" fill="#CFCFCF"/>
<path d="M354.545 376.355C354.514 376.24 353.889 375.968 353.893 376.103C353.902 376.268 353.849 376.676 353.826 376.999C353.604 377.296 353.471 377.896 353.44 378.079C353.366 378.521 353.359 379.172 353.494 379.577C353.494 379.577 354.005 379.479 354.354 379.316C354.608 379.389 354.914 379.523 355.201 379.482C355.107 378.741 354.749 377.118 354.542 376.355H354.545Z" fill="#657583"/>
<path d="M246.49 374.179C246.608 374.507 246.705 374.871 246.768 375.245C246.782 375.207 246.794 375.167 246.807 375.127C246.896 374.865 246.983 374.603 247.072 374.341C246.888 374.213 246.711 374.034 246.543 373.789C246.17 373.244 245.884 372.717 245.15 372.66C244.791 372.631 244.458 372.719 244.153 372.87C245.279 372.574 246.065 373.002 246.49 374.179Z" fill="#7E8890"/>
<path d="M245.377 374.182C245.75 374.404 245.979 374.794 246.252 375.193C247.801 377.46 250.108 374.6 251.524 373.29C251.352 372.743 251.048 372.259 250.657 371.827C249.618 371.373 248.543 371.029 247.374 370.947C246.042 370.854 245.561 372.703 245.379 374.182H245.377Z" fill="#B0B0B0"/>
<path d="M239.204 372.052C239.063 370.801 238.696 369.442 237.833 368.477C237.19 367.759 236.399 367.507 235.56 367.482C234.106 368.272 232.17 369.929 231.052 371.216C230.829 371.473 230.695 371.767 230.621 372.082C232.304 373.449 234.069 374.686 236.021 375.663C236.843 376.075 237.719 376.464 238.633 376.644C239.171 375.186 239.379 373.61 239.204 372.052Z" fill="#B0B0B0"/>
<path d="M246.267 369.173C243.192 367.859 239.922 366.884 236.539 367.072C236.256 367.141 235.923 367.286 235.558 367.482C236.399 367.506 237.188 367.76 237.831 368.477C238.694 369.44 239.061 370.798 239.202 372.051C239.377 373.609 239.169 375.184 238.631 376.643C238.89 376.694 239.151 376.728 239.416 376.742C240.885 376.813 241.687 376.082 242.627 375.087C243.184 374.498 243.912 373.93 244.781 373.999C245.02 374.017 245.212 374.084 245.377 374.181C245.561 372.701 246.04 370.852 247.372 370.945C248.541 371.026 249.617 371.371 250.655 371.825C249.539 370.596 247.717 369.793 246.267 369.173Z" fill="#B9B9B9"/>
<path d="M240.479 376.631C240.163 376.72 239.814 376.761 239.414 376.742C238.217 376.686 237.072 376.191 236.018 375.665C234.069 374.686 232.302 373.45 230.621 372.082C230.46 372.784 230.611 373.584 230.801 374.276C231.052 375.182 231.34 376.103 231.821 376.918C233.008 378.934 235.23 379.175 237.388 379.425C238.037 379.499 239.308 379.621 240.82 379.633C240.777 379.126 240.726 378.617 240.677 378.111C240.632 377.651 240.673 377.063 240.481 376.627L240.479 376.631Z" fill="#7E8890"/>
<path d="M242.577 376.407C242.599 375.969 242.617 375.507 242.668 375.047C242.656 375.061 242.642 375.073 242.63 375.087C241.944 375.812 241.332 376.395 240.481 376.631C240.673 377.067 240.632 377.653 240.677 378.115C240.728 378.621 240.777 379.128 240.82 379.637C241.395 379.641 242.007 379.629 242.632 379.592C242.628 379.578 242.624 379.564 242.622 379.55C242.403 378.553 242.528 377.416 242.577 376.407Z" fill="#B9B9B9"/>
<path d="M251.525 373.289C250.27 374.448 248.318 376.821 246.812 375.776C246.718 376.052 246.626 376.329 246.533 376.605C246.245 377.451 246 378.339 245.69 379.187C246.834 378.93 247.912 378.545 248.787 377.968C249.676 377.38 251.308 376.343 251.563 375.104C251.59 375.071 251.608 375.033 251.616 374.995C251.729 374.365 251.686 373.8 251.527 373.287L251.525 373.289Z" fill="#55616B"/>
<path d="M244.125 377.35C244.148 376.879 244.248 376.383 244.223 375.914C244.191 375.275 243.942 375.032 243.589 374.645C243.583 374.645 243.577 374.647 243.57 374.649C243.424 374.691 243.332 374.566 243.344 374.451C243.097 374.625 242.871 374.833 242.667 375.045C242.616 375.505 242.597 375.967 242.575 376.405C242.526 377.414 242.399 378.55 242.62 379.548C242.624 379.562 242.628 379.576 242.63 379.59C243.101 379.564 243.579 379.521 244.056 379.463C243.966 378.791 244.095 377.949 244.125 377.348V377.35Z" fill="#7E8890"/>
<path d="M246.492 376.73C246.427 376.332 246.325 375.948 246.198 375.603C245.749 374.36 244.919 373.908 243.729 374.221C243.597 374.287 243.468 374.366 243.344 374.453C243.332 374.568 243.421 374.693 243.57 374.651C243.576 374.651 243.583 374.649 243.589 374.647C243.94 375.034 244.188 375.274 244.223 375.916C244.248 376.384 244.148 376.879 244.125 377.351C244.097 377.953 243.966 378.794 244.056 379.466C244.607 379.4 245.156 379.309 245.69 379.19C245.986 378.383 246.22 377.541 246.492 376.734V376.73Z" fill="#7E8890"/>
<path d="M249.107 374.898C248.787 375.112 248.481 375.346 248.163 375.562C247.632 375.923 247.073 376.04 246.726 375.425C246.616 375.229 246.31 374.351 245.764 373.935C245.498 373.735 245.07 373.798 244.746 373.84C244.08 373.925 243.47 374.274 242.942 374.664C242.626 374.898 241.706 375.762 240.767 376.077C239.829 376.391 238.872 376.266 238.466 376.216C237.626 376.113 236.563 375.558 235.679 375.086C234.739 374.585 234.049 373.961 233.772 373.838C233.274 373.616 231.787 373.033 231.12 372.371C230.742 372 230.948 371.346 230.946 371.35C230.459 371.868 230.434 372.365 231.111 372.972C231.858 373.642 232.837 374.006 233.356 374.426C233.664 374.676 234.025 375.255 234.555 375.459C234.963 375.614 235.675 375.562 235.995 375.643C236.075 375.701 236.159 375.733 236.259 375.744C236.497 375.871 236.758 376.02 236.838 376.159C236.903 376.274 237.238 377.376 237.409 377.831C237.438 377.925 237.47 378.02 237.509 378.117C237.591 378.315 237.519 376.924 237.521 376.694C237.626 376.747 237.754 376.781 237.858 376.809C238.633 377.013 239.46 376.876 240.2 376.603C240.353 377.197 240.737 378.751 240.739 378.751C240.847 377.885 240.926 377.195 240.802 376.805C241.155 376.325 241.765 375.992 242.112 375.729C242.75 375.247 243.411 374.45 244.629 374.527C245.374 374.573 246.082 375.275 246.229 375.98C246.392 376.771 246.049 377.762 245.976 378.341C246.5 377.792 247.404 376.801 247.965 376.293C248.677 375.647 250.189 374.997 250.837 373.951C250.964 373.747 249.462 374.619 249.105 374.894L249.107 374.898Z" fill="#CFCFCF"/>
<path d="M237.639 378.95C237.366 378.831 237.319 378.522 237.043 378.419C236.633 378.268 236.201 378.247 235.77 378.201C235.368 378.157 235.366 377.896 235.252 377.715C234.997 377.315 234.689 376.851 234.283 376.849C234.132 376.849 234.081 377.022 234.169 377.125C234.377 377.363 234.746 378.084 234.414 378.082C234.248 378.082 233.853 377.765 233.706 377.731C233.288 377.597 232.571 377.521 231.806 376.435C231.584 376.12 231.419 375.422 231.068 375.186C231.331 375.969 231.502 376.447 231.743 376.859C231.81 377.022 231.898 377.176 232.037 377.307C232.318 377.682 232.749 378.066 233.167 378.324C234.155 378.932 234.716 379.043 234.981 379.119C235.585 379.291 238.529 379.58 239.173 379.59C239.02 379.23 238.09 379.15 237.637 378.952L237.639 378.95Z" fill="#55616B"/>
<path d="M246.267 369.173C244.601 368.178 242.356 367.427 240.435 367.112C239.519 366.961 238.572 366.927 237.648 366.993C236.818 367.054 235.675 367.032 235.022 367.571C234.61 367.91 233.996 368.406 233.504 368.895C234.439 368.594 234.688 368.279 235.263 368.055C235.555 368.065 235.851 367.75 236.155 367.766C236.756 367.799 237.248 368.505 237.636 368.899C238.627 369.906 239.145 371.321 239.26 372.717C239.584 372.023 239.486 371.014 239.341 370.261C239.241 369.742 239.045 369.084 239.486 368.673C239.696 368.477 240.214 368.364 240.496 368.309C242.283 367.95 245.413 369.401 246.265 369.171L246.267 369.173Z" fill="#CFCFCF"/>
<path d="M303.897 146.342C303.956 146.738 303.677 146.455 303.677 146.455C302.541 145.007 303.875 142.586 303.875 142.586C304.047 142.308 304.219 142.057 304.395 141.827C301.694 137.916 297.176 135.352 292.047 135.352C284.157 135.352 277.698 141.437 277.114 149.153C280.1 147.71 283.353 151.28 283.353 151.28L284.634 152.546C288.488 156.382 289.597 156.35 290.155 155.469C290.155 155.469 290.926 154.352 289.64 152.086C288.08 149.351 289.79 147.326 289.79 147.326C294.33 141.176 301.598 148.998 301.598 148.998C304.165 151.552 305.794 152.508 306.823 152.781C306.957 151.969 307.032 151.141 307.032 150.291C307.032 148.49 306.711 146.765 306.127 145.167C304.138 144.488 303.859 146.091 303.897 146.348V146.342Z" fill="#76C4D5"/>
<path d="M296.993 153.593C293.97 150.585 292.196 149.73 291.167 149.725C291.054 149.735 290.197 149.831 290.363 150.702C290.513 151.461 293.252 155.03 290.089 158.194C285.657 161.918 280.897 156.27 280.897 156.27C279.423 154.902 277.644 152.813 277.419 153.502C278.898 160.203 284.885 165.22 292.046 165.22C297.556 165.22 302.369 162.254 304.973 157.836C301.152 158.065 296.993 153.593 296.993 153.593Z" fill="#007496"/>
<g clip-path="url(#clip3_682_8664)">
<rect x="284.153" y="212.896" width="16" height="16" rx="8" fill="#339ABE"/>
<rect x="280.536" y="209.955" width="37.0693" height="3.30078" transform="rotate(30 280.536 209.955)" fill="white" fill-opacity="0.33"/>
<rect x="277.782" y="214.199" width="37.0693" height="0.746094" transform="rotate(30 277.782 214.199)" fill="white" fill-opacity="0.33"/>
</g>
<rect x="284.403" y="213.146" width="15.5" height="15.5" rx="7.75" stroke="white" stroke-opacity="0.27" stroke-width="0.5"/>
<path d="M316.027 130.157C316.204 129.389 316.624 128.686 317.233 128.14C317.843 127.593 318.614 127.225 319.45 127.084L321.675 126.708L319.45 126.332C318.614 126.192 317.843 125.823 317.233 125.277C316.624 124.73 316.204 124.028 316.027 123.26L315.538 121.129L315.048 123.26C314.871 124.028 314.451 124.73 313.842 125.277C313.233 125.823 312.461 126.192 311.626 126.332L309.4 126.708L311.626 127.084C312.461 127.225 313.233 127.593 313.842 128.14C314.451 128.686 314.871 129.389 315.048 130.157L315.538 132.287L316.027 130.157Z" fill="#09C2FD" fill-opacity="0.25"/>
<path d="M265.992 173.151C266.085 172.748 266.305 172.38 266.624 172.093C266.944 171.806 267.349 171.613 267.788 171.539L268.955 171.342L267.788 171.144C267.349 171.07 266.944 170.877 266.624 170.59C266.305 170.304 266.085 169.935 265.992 169.532L265.735 168.414L265.478 169.532C265.385 169.935 265.165 170.304 264.845 170.59C264.525 170.877 264.121 171.07 263.682 171.144L262.515 171.342L263.682 171.539C264.121 171.613 264.525 171.806 264.845 172.093C265.165 172.38 265.385 172.748 265.478 173.151L265.735 174.269L265.992 173.151Z" fill="#09C2FD" fill-opacity="0.25"/>
<g filter="url(#filter1_b_682_8664)">
<rect x="-383.119" y="376.836" width="1440" height="26.8994" fill="url(#paint14_linear_682_8664)" fill-opacity="0.35"/>
</g>
</g>
</g>
<defs>
<filter id="filter0_f_682_8664" x="245.776" y="104.162" width="92.3169" height="92.3164" filterUnits="userSpaceOnUse" color-interpolation-filters="sRGB">
<feFlood flood-opacity="0" result="BackgroundImageFix"/>
<feBlend mode="normal" in="SourceGraphic" in2="BackgroundImageFix" result="shape"/>
<feGaussianBlur stdDeviation="12" result="effect1_foregroundBlur_682_8664"/>
</filter>
<filter id="filter1_b_682_8664" x="-385.119" y="374.836" width="1444" height="30.8984" filterUnits="userSpaceOnUse" color-interpolation-filters="sRGB">
<feFlood flood-opacity="0" result="BackgroundImageFix"/>
<feGaussianBlur in="BackgroundImageFix" stdDeviation="1"/>
<feComposite in2="SourceAlpha" operator="in" result="effect1_backgroundBlur_682_8664"/>
<feBlend mode="normal" in="SourceGraphic" in2="effect1_backgroundBlur_682_8664" result="shape"/>
</filter>
<linearGradient id="paint0_linear_682_8664" x1="274.147" y1="146.564" x2="18.9941" y2="146.564" gradientUnits="userSpaceOnUse">
<stop stop-color="#74E6FF" stop-opacity="0.3"/>
<stop offset="1" stop-color="#F6F7FC" stop-opacity="0"/>
</linearGradient>
<linearGradient id="paint1_linear_682_8664" x1="273.121" y1="204.373" x2="311.149" y2="204.373" gradientUnits="userSpaceOnUse">
<stop stop-color="#C9CAD2"/>
<stop offset="0.17" stop-color="#9499A9"/>
<stop offset="0.7" stop-color="#E2E0E3"/>
<stop offset="0.9" stop-color="#E1DFE1"/>
<stop offset="1" stop-color="#DCE7E4"/>
</linearGradient>
<linearGradient id="paint2_linear_682_8664" x1="271.117" y1="229.745" x2="313.148" y2="229.745" gradientUnits="userSpaceOnUse">
<stop stop-color="#9FB8C0"/>
<stop offset="0.19" stop-color="#57687B"/>
<stop offset="0.7" stop-color="#C0CDD6"/>
<stop offset="0.9" stop-color="#B2BAC5"/>
<stop offset="1" stop-color="#BACED1"/>
</linearGradient>
<linearGradient id="paint3_linear_682_8664" x1="282.46" y1="218.814" x2="305.583" y2="228.526" gradientUnits="userSpaceOnUse">
<stop stop-color="#E2E3ED"/>
<stop offset="1" stop-color="#E2E3ED" stop-opacity="0"/>
</linearGradient>
<linearGradient id="paint4_linear_682_8664" x1="267.799" y1="182.531" x2="316.466" y2="182.531" gradientUnits="userSpaceOnUse">
<stop stop-color="#9FB8C0"/>
<stop offset="0.19" stop-color="#57687B"/>
<stop offset="0.7" stop-color="#C0CDD6"/>
<stop offset="0.9" stop-color="#B2BAC5"/>
<stop offset="1" stop-color="#BACED1"/>
</linearGradient>
<linearGradient id="paint5_linear_682_8664" x1="292.135" y1="376.782" x2="332.431" y2="331.094" gradientUnits="userSpaceOnUse">
<stop stop-color="#B5C8D8"/>
<stop offset="1" stop-color="#78A3C8"/>
</linearGradient>
<linearGradient id="paint6_linear_682_8664" x1="258.364" y1="348.738" x2="325.9" y2="348.738" gradientUnits="userSpaceOnUse">
<stop stop-color="#9FB8C0"/>
<stop offset="0.17" stop-color="#57687B"/>
<stop offset="0.28" stop-color="#667788"/>
<stop offset="0.48" stop-color="#8F9EAC"/>
<stop offset="0.7" stop-color="#C0CDD6"/>
<stop offset="0.9" stop-color="#B2BAC5"/>
<stop offset="1" stop-color="#BACED1"/>
</linearGradient>
<linearGradient id="paint7_linear_682_8664" x1="264.819" y1="315.67" x2="319.451" y2="315.67" gradientUnits="userSpaceOnUse">
<stop stop-color="#C9CAD2"/>
<stop offset="0.25" stop-color="#9499A9"/>
<stop offset="0.7" stop-color="#E2E0E3"/>
<stop offset="0.9" stop-color="#E1DFE1"/>
<stop offset="1" stop-color="#DCE7E4"/>
</linearGradient>
<linearGradient id="paint8_linear_682_8664" x1="267.114" y1="285.642" x2="317.15" y2="285.642" gradientUnits="userSpaceOnUse">
<stop stop-color="#9FB8C0"/>
<stop offset="0.23" stop-color="#57687B"/>
<stop offset="0.7" stop-color="#C0CDD6"/>
<stop offset="0.9" stop-color="#B2BAC5"/>
<stop offset="1" stop-color="#BACED1"/>
</linearGradient>
<linearGradient id="paint9_linear_682_8664" x1="269.118" y1="257.691" x2="315.151" y2="257.691" gradientUnits="userSpaceOnUse">
<stop stop-color="#C9CAD2"/>
<stop offset="0.22" stop-color="#9499A9"/>
<stop offset="0.7" stop-color="#E2E0E3"/>
<stop offset="0.9" stop-color="#E1DFE1"/>
<stop offset="1" stop-color="#DCE7E4"/>
</linearGradient>
<linearGradient id="paint10_linear_682_8664" x1="271.22" y1="186.897" x2="313.044" y2="186.897" gradientUnits="userSpaceOnUse">
<stop stop-color="#9FB8C0"/>
<stop offset="0.19" stop-color="#57687B"/>
<stop offset="0.7" stop-color="#C0CDD6"/>
<stop offset="0.9" stop-color="#B2BAC5"/>
<stop offset="1" stop-color="#BACED1"/>
</linearGradient>
<linearGradient id="paint11_linear_682_8664" x1="271.22" y1="190.88" x2="313.044" y2="190.88" gradientUnits="userSpaceOnUse">
<stop stop-color="#9FB8C0"/>
<stop offset="0.19" stop-color="#57687B"/>
<stop offset="0.7" stop-color="#C0CDD6"/>
<stop offset="0.9" stop-color="#B2BAC5"/>
<stop offset="1" stop-color="#BACED1"/>
</linearGradient>
<linearGradient id="paint12_linear_682_8664" x1="281.587" y1="171.377" x2="302.684" y2="171.377" gradientUnits="userSpaceOnUse">
<stop stop-color="#C9CAD2"/>
<stop offset="0.17" stop-color="#9499A9"/>
<stop offset="0.7" stop-color="#E2E0E3"/>
<stop offset="0.9" stop-color="#E1DFE1"/>
<stop offset="1" stop-color="#DCE7E4"/>
</linearGradient>
<linearGradient id="paint13_linear_682_8664" x1="280.908" y1="177.716" x2="303.362" y2="177.716" gradientUnits="userSpaceOnUse">
<stop stop-color="#C9CAD2"/>
<stop offset="0.17" stop-color="#9499A9"/>
<stop offset="0.7" stop-color="#E2E0E3"/>
<stop offset="0.9" stop-color="#E1DFE1"/>
<stop offset="1" stop-color="#DCE7E4"/>
</linearGradient>
<linearGradient id="paint14_linear_682_8664" x1="336.881" y1="376.836" x2="336.881" y2="403.735" gradientUnits="userSpaceOnUse">
<stop stop-color="#099DFD" stop-opacity="0.31"/>
<stop offset="1" stop-color="#099DFD"/>
</linearGradient>
<clipPath id="clip0_682_8664">
<rect width="393" height="403" fill="white"/>
</clipPath>
<clipPath id="clip1_682_8664">
<rect width="393" height="724" fill="white" transform="translate(0 -319)"/>
</clipPath>
<clipPath id="clip2_682_8664">
<rect width="231" height="48" fill="white" transform="translate(207.631 48.3984)"/>
</clipPath>
<clipPath id="clip3_682_8664">
<rect x="284.153" y="212.896" width="16" height="16" rx="8" fill="white"/>
</clipPath>
</defs>
</svg>
