<svg width="1440" height="415" viewBox="0 0 1440 415" fill="none" xmlns="http://www.w3.org/2000/svg">
<g clip-path="url(#clip0_681_5364)">
<rect width="1440" height="415" fill="#F6F7FC"/>
<path d="M1038.33 204.971C1043.33 206.201 1140.86 205.521 1140.86 205.521C1140.86 205.521 1181.36 206.061 1238.32 206.061C1295.28 206.061 1319.33 204.701 1319.33 204.701C1319.33 204.701 1437.05 205.521 1443.38 204.971C1449.71 204.431 1409.29 201.701 1387.69 203.341C1373.77 198.441 1309.21 193.271 1272.5 198.981C1247.18 195.991 1241.19 201.261 1241.19 201.261C1241.19 201.261 1206.68 193.531 1139.6 198.921C1037.59 196.471 1029.47 202.791 1038.33 204.971Z" fill="white" fill-opacity="0.61"/>
<path d="M1709 224.922C1703.42 233.922 1451.51 230.522 1368.76 228.472C1314.81 230.782 1268.56 229.612 1264.16 226.972C1259.76 224.332 1318.11 224.332 1318.11 224.332C1318.11 224.332 1367.7 214.242 1420.51 220.782C1445.62 217.002 1561.05 215.682 1583.07 223.372C1602.89 218.642 1600.29 223.552 1600.29 223.552C1600.29 223.552 1712.3 219.602 1709 224.922Z" fill="white" fill-opacity="0.61"/>
<g clip-path="url(#clip1_681_5364)">
<path d="M1168.94 63.0958C1166.29 63.7284 1149.07 61.8051 1149.71 64.9872C1150.35 68.1757 1168.94 66.9041 1168.94 66.9041C1168.94 66.9041 1179.03 68.4504 1193.06 67.0383C1207.09 65.6198 1249.82 68.821 1251.09 63.083L1188.6 61.6709C1188.6 61.6709 1180.5 53.4409 1168.94 63.0958Z" fill="white" fill-opacity="0.63"/>
<path d="M1380.32 103.856C1377.8 106.738 1328.68 105.134 1328.68 105.134C1328.68 105.134 1308.27 106.399 1279.58 106.399C1250.9 106.399 1238.78 103.211 1238.78 103.211C1238.78 103.211 1179.48 105.121 1176.29 103.85C1174.75 103.23 1178.72 101.415 1184.47 100.15C1190.59 98.7888 1198.73 98.0412 1204.35 100.022C1211.36 88.5524 1243.88 76.4374 1262.37 89.824C1275.12 82.8144 1278.14 95.1722 1278.14 95.1722C1278.14 95.1722 1295.52 77.0764 1329.31 89.6834C1343.33 80.1243 1367.97 90.2776 1377.13 97.9645C1380.05 100.418 1381.4 102.623 1380.32 103.856Z" fill="white" fill-opacity="0.63"/>
<path d="M1380.32 103.856C1377.8 106.738 1328.68 105.134 1328.68 105.134C1328.68 105.134 1308.27 106.399 1279.58 106.399C1250.9 106.399 1238.78 103.211 1238.78 103.211C1238.78 103.211 1179.48 105.121 1176.29 103.85C1174.75 103.23 1178.72 101.415 1184.47 100.15C1198.7 101.767 1213.23 102.514 1227.23 99.4856C1233.58 98.1118 1240.78 96.1118 1246.14 99.7859C1248.28 98.4952 1251.29 98.9105 1253 100.732C1255.31 98.7699 1258.56 98.2587 1261.58 98.5718C1264.6 98.8786 1267.48 99.9073 1270.4 100.719C1278.5 102.962 1287.08 103.492 1295.4 102.272C1303.83 101.032 1312.06 98.0159 1320.58 98.1501C1322.85 98.1885 1325.17 98.1821 1327.17 99.2492C1328.29 99.8434 1329.31 100.655 1330.52 100.987C1332.23 101.46 1334.02 100.936 1335.76 100.617C1342.05 99.4664 1348.49 101.064 1354.87 101.479C1362.43 101.971 1370.08 100.732 1377.13 97.9648C1380.05 100.418 1381.4 102.623 1380.32 103.856Z" fill="white" fill-opacity="0.31"/>
</g>
<path d="M1215.94 151.245L963.042 124.62L963.042 188.961C963.042 189.135 963.083 189.281 963.257 189.268C969.986 188.762 1132.41 176.551 1215.94 169.291C1216.1 169.277 1216.21 169.148 1216.21 168.993L1216.21 151.543C1216.21 151.39 1216.09 151.261 1215.94 151.245Z" fill="url(#paint0_linear_681_5364)"/>
<path d="M1253.21 225.771H1215.18L1216.81 202.979H1251.58L1253.21 225.771Z" fill="url(#paint1_linear_681_5364)"/>
<path d="M1255.21 253.717H1213.18L1215.18 225.771H1253.21L1255.21 253.717Z" fill="url(#paint2_linear_681_5364)"/>
<path d="M1234.19 220.484C1228.47 220.484 1223.84 225.123 1223.84 230.839C1223.84 236.555 1228.47 241.2 1234.19 241.2C1239.91 241.2 1244.55 236.561 1244.55 230.839C1244.55 225.117 1239.91 220.484 1234.19 220.484ZM1234.19 238.402C1230.02 238.402 1226.63 235.011 1226.63 230.839C1226.63 226.667 1230.02 223.282 1234.19 223.282C1238.36 223.282 1241.75 226.673 1241.75 230.839C1241.75 235.005 1238.36 238.402 1234.19 238.402Z" fill="url(#paint3_linear_681_5364)"/>
<path d="M1241.75 230.838C1241.75 235.011 1238.36 238.402 1234.19 238.402C1230.02 238.402 1226.63 235.011 1226.63 230.838C1226.63 226.666 1230.02 223.281 1234.19 223.281C1238.36 223.281 1241.75 226.672 1241.75 230.838Z" fill="#339ABE"/>
<path d="M1238.8 287.033H1229.59C1229.19 287.033 1228.86 287.364 1228.86 287.772V301.651C1228.86 302.059 1229.19 302.39 1229.59 302.39H1238.8C1239.21 302.39 1239.54 302.059 1239.54 301.651V287.772C1239.54 287.364 1239.21 287.033 1238.8 287.033Z" stroke="#231F20" stroke-width="0.31" stroke-miterlimit="10"/>
<path d="M1258.53 190.644V194.417C1258.53 194.737 1258.27 195.004 1257.94 195.004H1210.45C1210.13 195.004 1209.86 194.737 1209.86 194.417V190.644C1209.86 190.323 1210.13 190.057 1210.45 190.057H1257.94C1258.27 190.057 1258.53 190.323 1258.53 190.644Z" fill="url(#paint4_linear_681_5364)"/>
<path d="M1242.66 358.105V374.086C1239.94 374.007 1237.18 373.965 1234.41 373.965H1233.98C1231.22 373.965 1228.46 374.007 1225.73 374.086V358.105C1225.73 353.443 1229.52 349.658 1234.18 349.658H1234.22C1238.88 349.658 1242.66 353.443 1242.66 358.105Z" fill="#2A2D4A"/>
<path d="M1324.8 415H1143.59C1143.59 415 1171.08 386.643 1177.27 382.391C1180.57 380.126 1189.21 377.191 1200.43 374.926C1207.98 373.413 1216.7 372.211 1225.73 371.749C1228.46 371.598 1231.22 371.518 1233.98 371.518H1234.41C1237.18 371.518 1239.94 371.598 1242.66 371.749C1251.7 372.211 1260.41 373.413 1267.96 374.926C1279.18 377.191 1287.82 380.126 1291.12 382.391C1297.31 386.643 1324.8 415 1324.8 415Z" fill="url(#paint5_linear_681_5364)"/>
<path d="M1267.96 345.273V375.75C1260.41 374.957 1251.7 374.327 1242.66 374.085V358.104C1242.66 353.442 1238.88 349.657 1234.21 349.657H1234.18C1229.52 349.657 1225.73 353.442 1225.73 358.104V374.085C1216.7 374.327 1207.98 374.957 1200.43 375.75V345.273C1200.43 343.311 1202.02 341.725 1203.97 341.725H1264.41C1266.38 341.725 1267.96 343.311 1267.96 345.273Z" fill="url(#paint6_linear_681_5364)"/>
<path d="M1261.51 341.725H1206.88L1209.18 309.613H1259.21L1261.51 341.725Z" fill="url(#paint7_linear_681_5364)"/>
<path d="M1259.21 309.614H1209.18L1211.18 281.668H1257.21L1259.21 309.614Z" fill="url(#paint8_linear_681_5364)"/>
<path d="M1257.21 281.668H1211.18L1213.18 253.717H1255.21L1257.21 281.668Z" fill="url(#paint9_linear_681_5364)"/>
<path d="M1255.11 195.004H1213.28V198.789H1255.11V195.004Z" fill="url(#paint10_linear_681_5364)"/>
<path d="M1255.11 198.787L1251.58 202.977H1216.81L1213.28 198.787H1255.11Z" fill="url(#paint11_linear_681_5364)"/>
<path d="M1244.75 185.376H1223.65L1224.79 177.583C1227.53 179.054 1230.67 179.89 1234 179.89C1237.33 179.89 1240.75 178.975 1243.58 177.383L1244.75 185.376Z" fill="url(#paint12_linear_681_5364)"/>
<path d="M1245.42 190.056H1222.97L1223.65 185.375H1244.74L1245.42 190.056Z" fill="url(#paint13_linear_681_5364)"/>
<path d="M1234 138.164C1221.76 138.164 1211.84 148.086 1211.84 160.323C1211.84 168.781 1216.58 176.132 1223.55 179.863C1226.66 181.533 1230.22 182.481 1234 182.481C1237.78 182.481 1241.66 181.444 1244.87 179.637C1251.61 175.837 1256.15 168.609 1256.15 160.323C1256.15 148.086 1246.23 138.164 1234 138.164ZM1244.32 175.871C1241.36 177.85 1237.81 178.998 1234 178.998C1230.18 178.998 1226.96 177.953 1224.09 176.139C1218.83 172.834 1215.33 166.98 1215.33 160.323C1215.33 150.03 1223.7 141.654 1234 141.654C1244.29 141.654 1252.66 150.03 1252.66 160.323C1252.66 166.809 1249.35 172.525 1244.32 175.871Z" fill="#B7BAD0"/>
<g filter="url(#filter0_f_681_5364)">
<path d="M1234 138.164C1221.76 138.164 1211.84 148.086 1211.84 160.323C1211.84 168.781 1216.58 176.132 1223.55 179.863C1226.66 181.533 1230.22 182.481 1234 182.481C1237.78 182.481 1241.66 181.444 1244.87 179.637C1251.61 175.837 1256.15 168.609 1256.15 160.323C1256.15 148.086 1246.23 138.164 1234 138.164ZM1244.32 175.871C1241.36 177.85 1237.81 178.998 1234 178.998C1230.18 178.998 1226.96 177.953 1224.09 176.139C1218.83 172.834 1215.33 166.98 1215.33 160.323C1215.33 150.03 1223.7 141.654 1234 141.654C1244.29 141.654 1252.66 150.03 1252.66 160.323C1252.66 166.809 1249.35 172.525 1244.32 175.871Z" fill="#2CD9FF"/>
</g>
<path d="M1252.66 160.322C1252.66 166.808 1249.35 172.525 1244.32 175.871C1241.36 177.85 1237.81 178.997 1234 178.997C1230.18 178.997 1226.96 177.953 1224.09 176.139C1218.83 172.834 1215.33 166.98 1215.33 160.322C1215.33 150.03 1223.7 141.654 1234 141.654C1244.29 141.654 1252.66 150.03 1252.66 160.322Z" fill="white"/>
<path d="M1281.29 379.983C1281.51 379.978 1281.64 379.841 1281.64 379.65C1281.64 378.929 1281.3 378.244 1281.66 377.58C1281.91 377.128 1282.4 376.89 1282.39 376.255C1282.39 376.224 1282.37 376.118 1282.33 376.004C1281.79 376.054 1281.29 376.389 1280.78 376.655C1280.59 376.758 1279.51 377.423 1279.15 378.249C1278.91 378.792 1278.84 379.404 1278.85 379.973C1279.21 380.517 1280.79 379.993 1281.29 379.982V379.983Z" fill="#B0B0B0"/>
<path d="M1284.25 377.515C1283.92 378.25 1284.4 378.487 1284.01 378.991C1283.86 379.239 1283.78 379.56 1283.89 379.701C1284.12 379.985 1285.08 380.211 1285.52 380.032C1286 379.836 1286.24 379.301 1286.57 378.896C1286.83 378.565 1287.02 378.241 1287.38 377.991C1287.48 377.924 1287.8 377.816 1288.14 377.701C1288.14 377.701 1288.14 377.701 1288.14 377.699C1288.45 377.501 1288.92 377.273 1289.08 376.912C1288.72 376.637 1286.94 376.374 1285.89 376.524C1285.31 376.607 1284.74 376.821 1284.16 376.668C1284.3 376.948 1284.35 377.275 1284.24 377.516L1284.25 377.515Z" fill="#B0B0B0"/>
<path d="M1293.22 383.365C1293.2 382.066 1293.09 381.266 1292.61 380.483C1292.98 381.371 1292.65 382.056 1291.92 382.578C1291.68 382.751 1291.58 383.099 1291.27 383.156C1290.81 383.241 1290.39 383.361 1290.06 383.918C1289.96 384.097 1289.65 384.006 1289.47 384.185C1289.2 384.453 1288.77 384.722 1288.44 384.885C1287.21 385.481 1283.89 386.712 1282.53 385.75C1282.46 385.701 1281.88 385.035 1281.98 385.03C1283.12 384.973 1284.15 384.399 1284.97 383.683C1285.23 383.453 1285.62 383.017 1285.94 382.893C1287.19 382.423 1286.55 382.232 1286.72 381.74C1286.9 381.217 1287.47 381.154 1287.95 380.966C1288.32 380.821 1289.25 380.684 1289.35 380.268C1289.43 379.912 1289.64 379.467 1289.48 379.136C1289.39 378.94 1288.95 378.922 1288.74 378.863C1288.53 378.778 1288.31 378.728 1288.09 378.677C1287.94 378.641 1287.94 378.454 1288.05 378.374C1288.4 378.106 1288.81 378.003 1289.23 378.015C1288.87 377.899 1288.51 377.796 1288.14 377.7C1287.79 377.816 1287.48 377.925 1287.38 377.99C1287.02 378.238 1286.83 378.563 1286.56 378.896C1286.24 379.302 1286.05 379.899 1285.56 380.095C1285.12 380.274 1284.11 379.984 1283.89 379.7C1283.78 379.558 1283.86 379.238 1284.01 378.99C1284.4 378.488 1283.92 378.251 1284.24 377.514C1284.35 377.272 1284.31 376.946 1284.16 376.666C1284.14 376.659 1284.11 376.651 1284.08 376.643C1283.69 376.514 1283.37 376.24 1282.98 376.093C1282.76 376.006 1282.54 375.985 1282.33 376.005C1282.37 376.119 1282.39 376.225 1282.39 376.256C1282.4 376.891 1281.91 377.129 1281.66 377.581C1281.3 378.245 1281.64 378.93 1281.64 379.651C1281.64 379.842 1281.51 379.979 1281.29 379.984C1280.79 379.995 1279.21 380.519 1278.85 379.976C1278.87 380.627 1279 381.221 1279.14 381.593C1279.11 381.937 1279.08 382.281 1279.06 382.625C1279.01 383.52 1278.92 384.445 1279.23 385.308C1279.73 386.742 1281.11 387.533 1282.38 388.197C1282.53 388.277 1282.72 388.222 1282.79 388.07C1282.86 388.07 1282.93 388.057 1283 388.018C1283.4 387.801 1283.96 388.344 1284.54 388.848C1286.56 388.724 1288.77 388.063 1290.6 387.2C1291.32 386.861 1293.2 385.41 1293.2 385.233C1293.2 385.233 1293.22 383.524 1293.22 383.361L1293.22 383.365Z" fill="#B9B9B9"/>
<path d="M1288.05 378.376C1287.95 378.454 1287.94 378.643 1288.09 378.679C1288.31 378.731 1288.53 378.78 1288.74 378.865C1288.95 378.924 1289.39 378.94 1289.48 379.138C1289.64 379.469 1289.43 379.914 1289.35 380.27C1289.25 380.686 1288.33 380.823 1287.95 380.968C1287.47 381.156 1286.9 381.219 1286.72 381.742C1286.56 382.234 1287.19 382.424 1285.95 382.895C1285.62 383.019 1285.23 383.455 1284.97 383.685C1284.15 384.401 1283.12 384.975 1281.98 385.032C1281.88 385.037 1282.46 385.703 1282.53 385.752C1283.89 386.713 1287.21 385.481 1288.44 384.887C1288.77 384.724 1289.2 384.455 1289.47 384.187C1289.65 384.008 1289.96 384.099 1290.07 383.92C1290.39 383.363 1290.81 383.243 1291.27 383.158C1291.58 383.101 1291.68 382.753 1291.92 382.58C1292.65 382.058 1292.98 381.373 1292.61 380.485C1292.44 380.192 1292.21 379.901 1291.91 379.588C1291.15 378.784 1290.22 378.343 1289.23 378.018C1288.81 378.007 1288.41 378.11 1288.05 378.377L1288.05 378.376Z" fill="#B0B0B0"/>
<path d="M1284.3 387.193C1283.87 386.235 1282.88 385.55 1282.11 384.881C1280.58 383.546 1279.25 381.164 1279.26 379.885C1279.26 379.445 1279.1 378.882 1279.15 378.252C1278.79 379.019 1278.76 380.099 1278.75 380.477C1278.71 381.42 1278.8 382.396 1278.86 383.301C1278.92 384.248 1278.91 385.308 1279.52 386.09C1280.14 386.884 1281 387.684 1281.88 388.181C1282.7 388.648 1284.54 388.85 1284.54 388.85C1284.54 388.85 1284.49 387.61 1284.3 387.193H1284.3Z" fill="#7E8890"/>
<path d="M1289.81 382.948C1289.32 383.234 1288.87 383.477 1288.72 383.616C1288.55 383.774 1288.08 383.885 1287.88 384.004C1287.29 384.347 1286.67 384.637 1286.03 384.849C1284.95 385.205 1283.26 385.766 1282.26 385.004C1282.68 385.879 1283.96 387.401 1284.13 388.667C1284.13 388.67 1284.13 388.673 1284.13 388.677C1283.76 388.525 1283.12 388.194 1282.81 387.792C1282.46 387.36 1281.71 386.678 1281.31 386.513C1281.19 386.463 1280.78 386.352 1280.65 386.207C1280.16 385.631 1280.04 385.758 1279.84 385.624C1279.32 385.268 1279.01 384.644 1278.91 383.997C1279.03 385.332 1279.37 385.95 1279.6 386.236C1280.69 387.603 1281.56 388.187 1282.67 388.505C1283.69 388.799 1284.54 388.915 1284.54 388.915C1284.54 388.915 1286.04 388.83 1287.02 388.545C1287.69 388.35 1290.65 387.326 1291.24 387.021C1292.21 386.523 1293.92 385.782 1294.03 385.614C1294.12 385.109 1294.06 384.213 1294.02 383.856C1293.99 383.546 1293.92 383.211 1293.83 382.875C1293.02 383.037 1291.77 383.304 1291.15 383.777C1290.67 383.515 1290.04 383.123 1289.81 382.947L1289.81 382.948Z" fill="#55616B"/>
<path d="M1291.1 382.024C1290.81 382.336 1290.29 382.664 1289.81 382.949C1290.03 383.125 1290.66 383.517 1291.15 383.78C1291.76 383.305 1293.02 383.037 1293.83 382.877C1293.55 381.871 1292.99 380.592 1292.47 380.096C1292.28 380.973 1291.64 381.45 1291.1 382.024H1291.1Z" fill="#657583"/>
<path d="M1289.58 383.039C1289.37 382.972 1288.97 382.869 1288.63 382.848C1288.64 382.936 1288.75 383.291 1288.81 383.714C1288.96 384.76 1289.28 386.411 1289.3 386.494C1289.34 386.623 1289.86 386.432 1289.92 386.166C1289.98 385.876 1289.68 383.765 1289.58 383.037V383.039Z" fill="#657583"/>
<path d="M1299.49 385.821C1298.13 384.53 1296.09 382.491 1294.04 382.714C1292.98 382.828 1291.82 383.21 1290.9 383.703C1289.78 384.308 1288.52 385.409 1287.75 386.197C1287.64 386.308 1288.05 386.473 1288.15 386.496C1291.88 387.361 1295.73 387.24 1299.4 386.166C1299.55 386.122 1299.61 385.928 1299.49 385.817V385.821Z" fill="#B9B9B9"/>
<path d="M1296.65 386.837C1296.48 386.66 1296.17 386.746 1295.97 386.762C1295.42 386.81 1294.88 386.844 1294.33 386.852C1293.14 386.872 1291.9 386.94 1290.73 386.766C1289.77 386.624 1288.2 386.325 1287.75 386.201C1287.7 386.785 1287.62 387.307 1287.61 387.895C1287.61 388.118 1287.72 388.802 1287.72 388.802C1287.72 388.802 1288.42 389.135 1288.67 389.229C1288.8 389.277 1288.93 389.324 1289.06 389.368C1289.28 389.125 1289.4 389.056 1289.83 389.099C1290.57 389.175 1291.09 389.436 1291.35 388.622C1291.51 388.115 1291.46 387.461 1291.37 386.948C1291.37 386.901 1291.41 386.865 1291.45 386.888C1291.93 387.125 1292.09 386.904 1292.45 387.218C1292.76 387.493 1292.87 387.771 1292.98 388.154C1293.06 388.41 1293.16 388.843 1293.29 389.087C1293.3 389.12 1293.32 389.148 1293.34 389.177C1293.96 389.466 1294.69 388.991 1295.23 389.56C1295.27 389.557 1295.31 389.554 1295.35 389.551C1295.37 389.551 1295.38 389.582 1295.36 389.585C1295.33 389.59 1295.29 389.596 1295.26 389.601C1295.27 389.613 1295.27 389.626 1295.27 389.639C1295.39 389.614 1295.52 389.59 1295.65 389.564C1295.73 389.547 1296.62 388.75 1296.62 388.671C1296.62 388.089 1296.76 388.027 1296.75 387.444C1296.75 387.273 1296.79 386.979 1296.65 386.839L1296.65 386.837Z" fill="#7E8890"/>
<path d="M1295.36 389.582C1295.38 389.578 1295.38 389.546 1295.36 389.547C1295.32 389.551 1295.28 389.554 1295.23 389.557C1294.69 388.988 1293.96 389.463 1293.35 389.174C1293.33 389.146 1293.31 389.117 1293.29 389.084C1293.16 388.839 1293.06 388.407 1292.99 388.151C1292.87 387.767 1292.99 387.19 1292.86 386.991C1292.61 386.589 1291.94 387.123 1291.46 386.886C1291.41 386.864 1291.37 386.901 1291.38 386.947C1291.46 387.459 1291.52 388.113 1291.36 388.621C1291.09 389.435 1290.58 389.174 1289.83 389.097C1289.4 389.053 1289.29 389.123 1289.06 389.366C1289.48 389.513 1289.91 389.647 1290.34 389.743C1292.3 390.176 1293.44 389.999 1295.28 389.636C1295.27 389.622 1295.27 389.609 1295.26 389.598C1295.3 389.593 1295.33 389.587 1295.36 389.582H1295.36Z" fill="#55616B"/>
<path d="M1289.51 378.113C1289.49 378.054 1289.24 377.077 1289.08 376.91C1288.86 377.143 1288.06 377.271 1287.86 377.429C1287.11 378.01 1286.84 378.486 1286.14 379.121C1285.88 379.362 1285.72 379.995 1285.23 379.893C1284.77 379.795 1283.96 379.535 1283.63 380.023C1284.3 380.206 1284.62 380.387 1285.29 380.464C1285.56 380.496 1286.17 380.356 1286.34 380.147C1286.75 379.643 1287.05 379.269 1287.63 378.915C1288.2 378.568 1289.12 378.788 1289.51 378.113Z" fill="#55616B"/>
<path d="M1299.71 385.896C1299.55 385.87 1299.32 385.816 1299.19 385.84C1298.36 386.003 1297.77 386.167 1296.93 386.325C1296.9 386.33 1296.88 386.336 1296.85 386.341C1296.66 386.225 1296.47 386.118 1296.27 386.01C1296.21 385.976 1296.14 385.997 1296.1 386.056C1295.91 386.351 1295.86 386.711 1295.98 387.03C1295.97 387.075 1295.95 387.123 1295.94 387.175C1295.93 387.191 1295.92 387.207 1295.92 387.225C1295.86 387.265 1295.84 387.33 1295.85 387.392C1295.58 388.059 1296.1 389.075 1296.11 388.979C1296.6 389.08 1296.94 389.532 1297.38 389.428C1297.96 389.292 1298.98 388.873 1299.55 388.627C1299.74 387.822 1299.78 386.529 1299.71 385.896Z" fill="#55616B"/>
<path d="M1299.01 385.712C1298.82 385.205 1298.51 384.906 1298.23 384.885C1297.54 384.966 1296.61 385.281 1295.91 385.164C1295.5 385.094 1295 384.926 1294.57 384.988C1294.38 385.017 1294.26 385.072 1294.12 385.2C1294.05 385.255 1294.07 385.369 1294.03 385.425C1293.79 385.745 1293.54 385.856 1293.17 385.975C1292.04 386.343 1290.62 386.541 1289.44 386.515C1289.39 386.515 1293.18 387.159 1294.33 387.055C1295.03 386.991 1295.71 386.825 1295.97 386.161C1296.95 386.542 1297.98 386.459 1298.91 385.95C1298.99 385.909 1299.04 385.797 1299.01 385.714L1299.01 385.712Z" fill="#B0B0B0"/>
<path d="M1299.71 385.896C1298.87 385.055 1297.9 384.307 1296.93 383.633C1296.82 383.966 1298.01 384.643 1298.67 385.52C1298.77 385.651 1298.71 385.896 1298.23 385.964C1298.07 385.987 1297.3 386.215 1296.76 385.897C1296.4 385.682 1296.19 385.716 1295.77 385.596C1295.75 385.95 1295.7 386.462 1295.4 386.658C1295.17 386.804 1294.9 386.813 1294.64 386.757C1293.9 386.78 1293.17 386.79 1292.43 386.734C1291.16 386.641 1289.69 386.506 1288.42 386.339C1289.97 386.751 1291.57 387.108 1293.22 387.203C1293.76 387.234 1295.27 387 1295.28 387.516C1295.29 387.857 1295.08 388.682 1295.49 389.262C1295.93 389.27 1295.63 388.087 1295.76 387.542C1295.79 387.473 1295.83 387.403 1295.87 387.335C1295.88 387.312 1295.88 387.291 1295.88 387.268L1295.97 387.203C1296.07 387.168 1296.08 387.039 1295.98 386.997C1295.98 386.997 1295.99 386.994 1295.99 386.992C1296.05 386.992 1296.11 386.956 1296.11 386.881C1296.14 386.653 1296.13 386.449 1296.11 386.243V386.24C1296.19 386.307 1296.28 386.361 1296.39 386.416C1296.41 386.426 1296.43 386.429 1296.45 386.429C1296.52 386.481 1296.5 386.537 1296.58 386.586C1296.64 386.623 1299.4 386.167 1299.71 385.892V385.896Z" fill="#CFCFCF"/>
<path d="M1291.47 379.182C1291.86 379.479 1292.26 380.239 1291.94 380.858C1291.52 381.652 1290.32 382.398 1290.15 382.53C1289.66 382.424 1289.43 382.328 1289.41 382.476C1289.4 382.507 1289.55 382.662 1289.57 382.701C1289.59 382.745 1289.49 382.824 1289.39 382.78C1289.15 382.659 1288.79 382.46 1288.59 382.339C1288.55 382.316 1288.2 382.106 1288.14 382.339C1288.04 382.811 1288.17 383.063 1287.84 383.437C1287.5 383.827 1287.01 384.109 1286.56 384.36C1286.1 384.615 1284.47 385.385 1283.47 385.264C1283.03 385.211 1282.43 384.905 1282.13 384.693C1281.53 384.266 1280.67 383.196 1280.22 382.478C1279.75 381.721 1279.5 381.076 1279.33 380.309C1279.51 380.429 1281.14 380.473 1281.61 379.784C1281.01 379.991 1280.19 380.166 1279.7 379.734C1279.58 379.623 1279.54 379.464 1279.55 379.329C1279.59 378.89 1279.97 378.454 1280.16 378.167C1280.42 377.785 1280.66 377.312 1280.97 376.931C1281.38 376.717 1282.03 376.374 1282.27 376.014C1280.39 376.193 1279.62 377.611 1279.1 378.252C1278.75 379.404 1279.03 380.885 1279.57 382.04C1279.95 382.856 1280.51 383.558 1281.13 384.202C1281.35 384.422 1282.76 386.127 1283.07 386.439C1283.2 386.614 1283.78 387.663 1283.82 387.692C1283.82 387.34 1283.69 386.439 1284.06 385.798C1285.34 385.375 1286.6 384.827 1287.83 384.269C1288.13 384.129 1288.51 383.865 1288.81 383.597C1288.87 383.377 1288.7 382.954 1288.7 382.93C1288.97 383.05 1289.51 383.238 1289.6 383.196C1289.67 383.163 1292.56 381.478 1292.63 380.597C1292.67 380.096 1291.9 379.339 1291.47 379.187V379.182Z" fill="#CFCFCF"/>
<path d="M1289.08 376.912C1288.21 376.14 1286.38 376.354 1285.33 376.628C1285.99 376.69 1287.13 376.528 1287.94 376.748C1288.27 376.836 1288.31 377.067 1287.92 377.261C1287.71 377.365 1287.49 377.665 1287.31 377.825C1287.03 378.075 1286.34 378.86 1286.31 378.879C1286 379.173 1285.87 379.422 1285.47 379.561C1285.4 379.586 1285.11 379.623 1285.02 379.631C1284.65 379.666 1284.25 379.639 1283.98 379.783C1284.38 379.809 1285.04 380.207 1285.69 380.006C1286 379.912 1286.31 379.635 1286.57 379.21C1286.74 378.938 1287.11 378.421 1287.34 378.178C1287.54 377.965 1288.44 377.45 1288.51 377.424C1288.68 377.359 1288.85 377.283 1289.02 377.194C1289.09 377.156 1289.14 376.967 1289.08 376.913V376.912Z" fill="#CFCFCF"/>
<path d="M1296.61 386.357C1296.58 386.242 1295.95 385.97 1295.96 386.105C1295.96 386.27 1295.91 386.678 1295.89 387.001C1295.67 387.298 1295.53 387.898 1295.5 388.081C1295.43 388.523 1295.42 389.174 1295.56 389.579C1295.56 389.579 1296.07 389.481 1296.42 389.318C1296.67 389.391 1296.98 389.525 1297.26 389.484C1297.17 388.743 1296.81 387.12 1296.6 386.357H1296.61Z" fill="#657583"/>
<path d="M1188.55 384.181C1188.67 384.509 1188.77 384.872 1188.83 385.247C1188.84 385.209 1188.86 385.169 1188.87 385.129C1188.96 384.867 1189.04 384.605 1189.13 384.343C1188.95 384.215 1188.77 384.036 1188.6 383.791C1188.23 383.246 1187.95 382.719 1187.21 382.662C1186.85 382.633 1186.52 382.721 1186.21 382.872C1187.34 382.576 1188.13 383.004 1188.55 384.181Z" fill="#7E8890"/>
<path d="M1187.44 384.183C1187.81 384.405 1188.04 384.795 1188.31 385.194C1189.86 387.461 1192.17 384.601 1193.59 383.291C1193.41 382.744 1193.11 382.26 1192.72 381.828C1191.68 381.374 1190.6 381.03 1189.44 380.948C1188.1 380.855 1187.62 382.704 1187.44 384.183H1187.44Z" fill="#B0B0B0"/>
<path d="M1181.27 382.054C1181.12 380.803 1180.76 379.444 1179.89 378.479C1179.25 377.761 1178.46 377.509 1177.62 377.484C1176.17 378.274 1174.23 379.931 1173.11 381.218C1172.89 381.475 1172.76 381.769 1172.68 382.084C1174.37 383.451 1176.13 384.688 1178.08 385.665C1178.9 386.077 1179.78 386.466 1180.69 386.646C1181.23 385.188 1181.44 383.612 1181.27 382.054Z" fill="#B0B0B0"/>
<path d="M1188.33 379.176C1185.25 377.862 1181.98 376.887 1178.6 377.075C1178.32 377.144 1177.98 377.289 1177.62 377.485C1178.46 377.509 1179.25 377.763 1179.89 378.48C1180.76 379.442 1181.12 380.801 1181.26 382.054C1181.44 383.612 1181.23 385.187 1180.69 386.646C1180.95 386.696 1181.21 386.731 1181.48 386.745C1182.95 386.816 1183.75 386.085 1184.69 385.09C1185.25 384.5 1185.97 383.933 1186.84 384.002C1187.08 384.02 1187.27 384.087 1187.44 384.184C1187.62 382.704 1188.1 380.855 1189.43 380.948C1190.6 381.029 1191.68 381.374 1192.72 381.828C1191.6 380.599 1189.78 379.796 1188.33 379.176Z" fill="#B9B9B9"/>
<path d="M1182.54 386.632C1182.22 386.721 1181.88 386.762 1181.48 386.743C1180.28 386.687 1179.13 386.192 1178.08 385.666C1176.13 384.687 1174.36 383.451 1172.68 382.083C1172.52 382.785 1172.67 383.585 1172.86 384.277C1173.11 385.183 1173.4 386.104 1173.88 386.919C1175.07 388.935 1177.29 389.176 1179.45 389.426C1180.1 389.5 1181.37 389.622 1182.88 389.634C1182.84 389.127 1182.79 388.618 1182.74 388.112C1182.69 387.652 1182.73 387.064 1182.54 386.628L1182.54 386.632Z" fill="#7E8890"/>
<path d="M1184.64 386.408C1184.66 385.97 1184.68 385.508 1184.73 385.048C1184.72 385.062 1184.7 385.074 1184.69 385.088C1184.01 385.813 1183.39 386.396 1182.54 386.632C1182.73 387.068 1182.69 387.654 1182.74 388.116C1182.79 388.622 1182.84 389.129 1182.88 389.638C1183.46 389.642 1184.07 389.63 1184.69 389.593C1184.69 389.579 1184.69 389.565 1184.68 389.551C1184.46 388.554 1184.59 387.417 1184.64 386.408Z" fill="#B9B9B9"/>
<path d="M1193.59 383.29C1192.33 384.449 1190.38 386.822 1188.87 385.777C1188.78 386.053 1188.69 386.33 1188.59 386.606C1188.31 387.452 1188.06 388.34 1187.75 389.188C1188.9 388.931 1189.97 388.546 1190.85 387.969C1191.74 387.381 1193.37 386.344 1193.62 385.105C1193.65 385.072 1193.67 385.034 1193.68 384.996C1193.79 384.366 1193.75 383.801 1193.59 383.288L1193.59 383.29Z" fill="#55616B"/>
<path d="M1186.19 387.352C1186.21 386.882 1186.31 386.386 1186.28 385.917C1186.25 385.278 1186 385.035 1185.65 384.648C1185.64 384.648 1185.64 384.65 1185.63 384.652C1185.49 384.694 1185.39 384.569 1185.41 384.454C1185.16 384.628 1184.93 384.836 1184.73 385.047C1184.68 385.508 1184.66 385.97 1184.64 386.408C1184.59 387.417 1184.46 388.553 1184.68 389.55C1184.69 389.565 1184.69 389.579 1184.69 389.593C1185.16 389.567 1185.64 389.524 1186.12 389.466C1186.03 388.794 1186.16 387.952 1186.19 387.35V387.352Z" fill="#7E8890"/>
<path d="M1188.55 386.732C1188.49 386.335 1188.39 385.951 1188.26 385.606C1187.81 384.363 1186.98 383.911 1185.79 384.224C1185.66 384.29 1185.53 384.369 1185.41 384.456C1185.39 384.571 1185.48 384.696 1185.63 384.654C1185.64 384.654 1185.64 384.652 1185.65 384.65C1186 385.037 1186.25 385.277 1186.28 385.919C1186.31 386.387 1186.21 386.882 1186.19 387.354C1186.16 387.956 1186.03 388.797 1186.12 389.469C1186.67 389.403 1187.22 389.312 1187.75 389.193C1188.05 388.386 1188.28 387.544 1188.55 386.737V386.732Z" fill="#7E8890"/>
<path d="M1191.17 384.899C1190.85 385.113 1190.54 385.347 1190.22 385.563C1189.69 385.924 1189.13 386.041 1188.79 385.426C1188.68 385.23 1188.37 384.352 1187.83 383.936C1187.56 383.736 1187.13 383.799 1186.81 383.841C1186.14 383.926 1185.53 384.275 1185 384.665C1184.69 384.899 1183.77 385.763 1182.83 386.078C1181.89 386.392 1180.93 386.267 1180.53 386.217C1179.69 386.114 1178.62 385.559 1177.74 385.087C1176.8 384.586 1176.11 383.962 1175.83 383.839C1175.34 383.617 1173.85 383.034 1173.18 382.372C1172.8 382.001 1173.01 381.347 1173.01 381.351C1172.52 381.869 1172.5 382.366 1173.17 382.973C1173.92 383.643 1174.9 384.007 1175.42 384.427C1175.73 384.677 1176.09 385.256 1176.62 385.46C1177.02 385.615 1177.74 385.563 1178.06 385.644C1178.14 385.702 1178.22 385.734 1178.32 385.745C1178.56 385.872 1178.82 386.021 1178.9 386.16C1178.96 386.275 1179.3 387.377 1179.47 387.832C1179.5 387.926 1179.53 388.021 1179.57 388.118C1179.65 388.316 1179.58 386.925 1179.58 386.695C1179.69 386.748 1179.82 386.782 1179.92 386.81C1180.69 387.014 1181.52 386.877 1182.26 386.604C1182.41 387.198 1182.8 388.752 1182.8 388.752C1182.91 387.886 1182.99 387.196 1182.86 386.806C1183.22 386.326 1183.83 385.993 1184.17 385.73C1184.81 385.248 1185.47 384.451 1186.69 384.527C1187.44 384.574 1188.14 385.276 1188.29 385.981C1188.45 386.772 1188.11 387.763 1188.04 388.342C1188.56 387.793 1189.47 386.802 1190.03 386.294C1190.74 385.648 1192.25 384.998 1192.9 383.952C1193.03 383.748 1191.52 384.62 1191.17 384.895L1191.17 384.899Z" fill="#CFCFCF"/>
<path d="M1179.7 388.953C1179.43 388.834 1179.38 388.525 1179.1 388.422C1178.69 388.271 1178.26 388.25 1177.83 388.204C1177.43 388.159 1177.43 387.899 1177.31 387.717C1177.06 387.318 1176.75 386.854 1176.34 386.852C1176.19 386.852 1176.14 387.025 1176.23 387.128C1176.44 387.366 1176.81 388.087 1176.48 388.085C1176.31 388.085 1175.91 387.768 1175.77 387.734C1175.35 387.6 1174.63 387.524 1173.87 386.438C1173.65 386.123 1173.48 385.425 1173.13 385.188C1173.39 385.972 1173.56 386.45 1173.8 386.862C1173.87 387.025 1173.96 387.179 1174.1 387.31C1174.38 387.685 1174.81 388.069 1175.23 388.327C1176.22 388.935 1176.78 389.046 1177.04 389.122C1177.65 389.294 1180.59 389.582 1181.23 389.593C1181.08 389.233 1180.15 389.153 1179.7 388.955L1179.7 388.953Z" fill="#55616B"/>
<path d="M1188.33 379.175C1186.66 378.18 1184.42 377.429 1182.5 377.114C1181.58 376.963 1180.63 376.929 1179.71 376.995C1178.88 377.056 1177.74 377.034 1177.08 377.573C1176.67 377.912 1176.06 378.408 1175.57 378.897C1176.5 378.596 1176.75 378.281 1177.32 378.057C1177.62 378.067 1177.91 377.752 1178.22 377.768C1178.82 377.801 1179.31 378.507 1179.7 378.901C1180.69 379.908 1181.21 381.323 1181.32 382.719C1181.65 382.025 1181.55 381.016 1181.4 380.263C1181.3 379.744 1181.11 379.086 1181.55 378.675C1181.76 378.479 1182.28 378.366 1182.56 378.311C1184.34 377.952 1187.47 379.403 1188.33 379.173L1188.33 379.175Z" fill="#CFCFCF"/>
<path d="M1245.96 156.344C1246.02 156.74 1245.74 156.457 1245.74 156.457C1244.6 155.009 1245.94 152.588 1245.94 152.588C1246.11 152.31 1246.28 152.059 1246.46 151.829C1243.76 147.918 1239.24 145.354 1234.11 145.354C1226.22 145.354 1219.76 151.439 1219.18 159.155C1222.16 157.712 1225.41 161.281 1225.41 161.281L1226.7 162.548C1230.55 166.384 1231.66 166.352 1232.22 165.471C1232.22 165.471 1232.99 164.354 1231.7 162.088C1230.14 159.353 1231.85 157.328 1231.85 157.328C1236.39 151.178 1243.66 159 1243.66 159C1246.23 161.554 1247.86 162.51 1248.88 162.783C1249.02 161.971 1249.09 161.143 1249.09 160.293C1249.09 158.492 1248.77 156.767 1248.19 155.169C1246.2 154.49 1245.92 156.093 1245.96 156.35V156.344Z" fill="#76C4D5"/>
<path d="M1239.05 163.595C1236.03 160.587 1234.26 159.732 1233.23 159.727C1233.12 159.737 1232.26 159.833 1232.42 160.704C1232.57 161.463 1235.31 165.032 1232.15 168.195C1227.72 171.92 1222.96 166.272 1222.96 166.272C1221.49 164.904 1219.71 162.815 1219.48 163.504C1220.96 170.204 1226.95 175.222 1234.11 175.222C1239.62 175.222 1244.43 172.256 1247.03 167.837C1243.21 168.067 1239.05 163.595 1239.05 163.595Z" fill="#007496"/>
<g clip-path="url(#clip2_681_5364)">
<rect x="1226.21" y="222.898" width="16" height="16" rx="8" fill="#339ABE"/>
<rect x="1222.6" y="219.956" width="37.0693" height="3.30078" transform="rotate(30 1222.6 219.956)" fill="white" fill-opacity="0.33"/>
<rect x="1219.84" y="224.201" width="37.0693" height="0.746094" transform="rotate(30 1219.84 224.201)" fill="white" fill-opacity="0.33"/>
</g>
<rect x="1226.46" y="223.148" width="15.5" height="15.5" rx="7.75" stroke="white" stroke-opacity="0.27" stroke-width="0.5"/>
<path d="M1258.09 140.159C1258.27 139.391 1258.69 138.688 1259.29 138.142C1259.9 137.595 1260.68 137.227 1261.51 137.086L1263.74 136.71L1261.51 136.334C1260.68 136.193 1259.9 135.825 1259.29 135.279C1258.69 134.732 1258.27 134.03 1258.09 133.262L1257.6 131.131L1257.11 133.262C1256.93 134.03 1256.51 134.732 1255.9 135.279C1255.29 135.825 1254.52 136.193 1253.69 136.334L1251.46 136.71L1253.69 137.086C1254.52 137.227 1255.29 137.595 1255.9 138.142C1256.51 138.688 1256.93 139.391 1257.11 140.159L1257.6 142.289L1258.09 140.159Z" fill="#09C2FD" fill-opacity="0.25"/>
<path d="M1208.05 183.153C1208.15 182.75 1208.37 182.381 1208.69 182.095C1209.01 181.808 1209.41 181.615 1209.85 181.541L1211.02 181.343L1209.85 181.146C1209.41 181.072 1209.01 180.879 1208.69 180.592C1208.37 180.305 1208.15 179.937 1208.05 179.534L1207.8 178.416L1207.54 179.534C1207.45 179.937 1207.23 180.305 1206.91 180.592C1206.59 180.879 1206.18 181.072 1205.74 181.146L1204.58 181.343L1205.74 181.541C1206.18 181.615 1206.59 181.808 1206.91 182.095C1207.23 182.381 1207.45 182.75 1207.54 183.153L1207.8 184.271L1208.05 183.153Z" fill="#09C2FD" fill-opacity="0.25"/>
<g filter="url(#filter1_b_681_5364)">
<rect y="388.101" width="1440" height="26.8994" fill="url(#paint14_linear_681_5364)" fill-opacity="0.35"/>
</g>
</g>
<defs>
<filter id="filter0_f_681_5364" x="1187.84" y="114.164" width="92.3169" height="92.3174" filterUnits="userSpaceOnUse" color-interpolation-filters="sRGB">
<feFlood flood-opacity="0" result="BackgroundImageFix"/>
<feBlend mode="normal" in="SourceGraphic" in2="BackgroundImageFix" result="shape"/>
<feGaussianBlur stdDeviation="12" result="effect1_foregroundBlur_681_5364"/>
</filter>
<filter id="filter1_b_681_5364" x="-2" y="386.101" width="1444" height="30.8994" filterUnits="userSpaceOnUse" color-interpolation-filters="sRGB">
<feFlood flood-opacity="0" result="BackgroundImageFix"/>
<feGaussianBlur in="BackgroundImageFix" stdDeviation="1"/>
<feComposite in2="SourceAlpha" operator="in" result="effect1_backgroundBlur_681_5364"/>
<feBlend mode="normal" in="SourceGraphic" in2="effect1_backgroundBlur_681_5364" result="shape"/>
</filter>
<linearGradient id="paint0_linear_681_5364" x1="1216.21" y1="156.565" x2="961.056" y2="156.565" gradientUnits="userSpaceOnUse">
<stop stop-color="#74E6FF" stop-opacity="0.3"/>
<stop offset="1" stop-color="#F6F7FC" stop-opacity="0"/>
</linearGradient>
<linearGradient id="paint1_linear_681_5364" x1="1215.18" y1="214.375" x2="1253.21" y2="214.375" gradientUnits="userSpaceOnUse">
<stop stop-color="#C9CAD2"/>
<stop offset="0.17" stop-color="#9499A9"/>
<stop offset="0.7" stop-color="#E2E0E3"/>
<stop offset="0.9" stop-color="#E1DFE1"/>
<stop offset="1" stop-color="#DCE7E4"/>
</linearGradient>
<linearGradient id="paint2_linear_681_5364" x1="1213.18" y1="239.747" x2="1255.21" y2="239.747" gradientUnits="userSpaceOnUse">
<stop stop-color="#9FB8C0"/>
<stop offset="0.19" stop-color="#57687B"/>
<stop offset="0.7" stop-color="#C0CDD6"/>
<stop offset="0.9" stop-color="#B2BAC5"/>
<stop offset="1" stop-color="#BACED1"/>
</linearGradient>
<linearGradient id="paint3_linear_681_5364" x1="1224.52" y1="228.816" x2="1247.65" y2="238.528" gradientUnits="userSpaceOnUse">
<stop stop-color="#E2E3ED"/>
<stop offset="1" stop-color="#E2E3ED" stop-opacity="0"/>
</linearGradient>
<linearGradient id="paint4_linear_681_5364" x1="1209.86" y1="192.533" x2="1258.53" y2="192.533" gradientUnits="userSpaceOnUse">
<stop stop-color="#9FB8C0"/>
<stop offset="0.19" stop-color="#57687B"/>
<stop offset="0.7" stop-color="#C0CDD6"/>
<stop offset="0.9" stop-color="#B2BAC5"/>
<stop offset="1" stop-color="#BACED1"/>
</linearGradient>
<linearGradient id="paint5_linear_681_5364" x1="1234.2" y1="386.784" x2="1274.49" y2="341.096" gradientUnits="userSpaceOnUse">
<stop stop-color="#B5C8D8"/>
<stop offset="1" stop-color="#78A3C8"/>
</linearGradient>
<linearGradient id="paint6_linear_681_5364" x1="1200.43" y1="358.74" x2="1267.96" y2="358.74" gradientUnits="userSpaceOnUse">
<stop stop-color="#9FB8C0"/>
<stop offset="0.17" stop-color="#57687B"/>
<stop offset="0.28" stop-color="#667788"/>
<stop offset="0.48" stop-color="#8F9EAC"/>
<stop offset="0.7" stop-color="#C0CDD6"/>
<stop offset="0.9" stop-color="#B2BAC5"/>
<stop offset="1" stop-color="#BACED1"/>
</linearGradient>
<linearGradient id="paint7_linear_681_5364" x1="1206.88" y1="325.672" x2="1261.51" y2="325.672" gradientUnits="userSpaceOnUse">
<stop stop-color="#C9CAD2"/>
<stop offset="0.25" stop-color="#9499A9"/>
<stop offset="0.7" stop-color="#E2E0E3"/>
<stop offset="0.9" stop-color="#E1DFE1"/>
<stop offset="1" stop-color="#DCE7E4"/>
</linearGradient>
<linearGradient id="paint8_linear_681_5364" x1="1209.18" y1="295.644" x2="1259.21" y2="295.644" gradientUnits="userSpaceOnUse">
<stop stop-color="#9FB8C0"/>
<stop offset="0.23" stop-color="#57687B"/>
<stop offset="0.7" stop-color="#C0CDD6"/>
<stop offset="0.9" stop-color="#B2BAC5"/>
<stop offset="1" stop-color="#BACED1"/>
</linearGradient>
<linearGradient id="paint9_linear_681_5364" x1="1211.18" y1="267.693" x2="1257.21" y2="267.693" gradientUnits="userSpaceOnUse">
<stop stop-color="#C9CAD2"/>
<stop offset="0.22" stop-color="#9499A9"/>
<stop offset="0.7" stop-color="#E2E0E3"/>
<stop offset="0.9" stop-color="#E1DFE1"/>
<stop offset="1" stop-color="#DCE7E4"/>
</linearGradient>
<linearGradient id="paint10_linear_681_5364" x1="1213.28" y1="196.899" x2="1255.11" y2="196.899" gradientUnits="userSpaceOnUse">
<stop stop-color="#9FB8C0"/>
<stop offset="0.19" stop-color="#57687B"/>
<stop offset="0.7" stop-color="#C0CDD6"/>
<stop offset="0.9" stop-color="#B2BAC5"/>
<stop offset="1" stop-color="#BACED1"/>
</linearGradient>
<linearGradient id="paint11_linear_681_5364" x1="1213.28" y1="200.882" x2="1255.11" y2="200.882" gradientUnits="userSpaceOnUse">
<stop stop-color="#9FB8C0"/>
<stop offset="0.19" stop-color="#57687B"/>
<stop offset="0.7" stop-color="#C0CDD6"/>
<stop offset="0.9" stop-color="#B2BAC5"/>
<stop offset="1" stop-color="#BACED1"/>
</linearGradient>
<linearGradient id="paint12_linear_681_5364" x1="1223.65" y1="181.379" x2="1244.75" y2="181.379" gradientUnits="userSpaceOnUse">
<stop stop-color="#C9CAD2"/>
<stop offset="0.17" stop-color="#9499A9"/>
<stop offset="0.7" stop-color="#E2E0E3"/>
<stop offset="0.9" stop-color="#E1DFE1"/>
<stop offset="1" stop-color="#DCE7E4"/>
</linearGradient>
<linearGradient id="paint13_linear_681_5364" x1="1222.97" y1="187.718" x2="1245.42" y2="187.718" gradientUnits="userSpaceOnUse">
<stop stop-color="#C9CAD2"/>
<stop offset="0.17" stop-color="#9499A9"/>
<stop offset="0.7" stop-color="#E2E0E3"/>
<stop offset="0.9" stop-color="#E1DFE1"/>
<stop offset="1" stop-color="#DCE7E4"/>
</linearGradient>
<linearGradient id="paint14_linear_681_5364" x1="720" y1="388.101" x2="720" y2="415" gradientUnits="userSpaceOnUse">
<stop stop-color="#099DFD" stop-opacity="0.31"/>
<stop offset="1" stop-color="#099DFD"/>
</linearGradient>
<clipPath id="clip0_681_5364">
<rect width="1440" height="415" fill="white"/>
</clipPath>
<clipPath id="clip1_681_5364">
<rect width="231" height="48" fill="white" transform="translate(1149.69 58.3994)"/>
</clipPath>
<clipPath id="clip2_681_5364">
<rect x="1226.21" y="222.898" width="16" height="16" rx="8" fill="white"/>
</clipPath>
</defs>
</svg>
