<svg width="59" height="59" viewBox="0 0 59 59" fill="none" xmlns="http://www.w3.org/2000/svg">
<g filter="url(#filter0_d_49_295)">
<rect x="3.79297" y="2.92969" width="31.9287" height="37.8262" rx="2.375" fill="#FCFCFD" stroke="#15293F" stroke-width="1.25"/>
<mask id="path-2-inside-1_49_295" fill="white">
<rect x="10.3105" y="0.855469" width="18.8945" height="5.13379" rx="1"/>
</mask>
<rect x="10.3105" y="0.855469" width="18.8945" height="5.13379" rx="1" fill="#FCFCFD" stroke="#15293F" stroke-width="2.5" mask="url(#path-2-inside-1_49_295)"/>
<rect x="8.66309" y="13.6445" width="10.7109" height="1.5" rx="0.5" fill="#DCDFE4"/>
<rect x="8.66309" y="19.5996" width="10.7109" height="1.5" rx="0.5" fill="#DCDFE4"/>
<rect x="8.66309" y="25.5547" width="10.7109" height="1.5" rx="0.5" fill="#DCDFE4"/>
<path d="M13.6341 34.7768C14.0647 34.7768 14.4779 34.606 14.7827 34.3012L16.8016 32.2806C17.1037 31.9902 17.2916 31.6018 17.3328 31.1849C17.3736 30.6897 17.1942 30.2014 16.8429 29.8501C16.4916 29.4982 16.0038 29.3189 15.5086 29.3591C15.0916 29.3982 14.7028 29.5845 14.4112 29.8845L12.3907 31.9092C12.0854 32.2134 11.914 32.6272 11.915 33.0578V34.235C11.915 34.379 11.9722 34.5165 12.0738 34.6181C12.1754 34.7197 12.3129 34.7768 12.4568 34.7768L13.6341 34.7768ZM12.9986 33.0579C12.9986 32.9145 13.0558 32.7765 13.1574 32.6749L15.2118 30.6199C15.3234 30.4956 15.4811 30.422 15.6483 30.4178C15.8155 30.413 15.9768 30.4776 16.0954 30.5956C16.2133 30.7136 16.2779 30.8755 16.2731 31.0426C16.2684 31.2093 16.1953 31.3675 16.0705 31.4786L14.0161 33.5347C13.9145 33.6362 13.7769 33.6934 13.6341 33.6934H12.9987L12.9986 33.0579Z" fill="#FF6332"/>
<path d="M16.7905 35.8605H10.2892C10.1357 35.861 9.98865 35.797 9.88549 35.6832C9.78232 35.5695 9.73206 35.4171 9.7474 35.2647C9.78338 34.9811 10.0278 34.7706 10.3135 34.7769H10.4246C10.7241 34.7769 10.9664 34.5346 10.9664 34.2351C10.9664 33.9357 10.7241 33.6934 10.4246 33.6934H10.2892C9.83047 33.6934 9.39345 33.8865 9.085 34.2261C8.77708 34.5653 8.62629 35.0192 8.67073 35.4758C8.76702 36.3202 9.48709 36.9546 10.3368 36.944H16.7905C17.0899 36.944 17.3323 36.7017 17.3323 36.4023C17.3323 36.1028 17.09 35.8605 16.7905 35.8605Z" fill="#FF6332"/>
<path d="M23.8269 14.8742C23.6167 14.6283 23.2469 14.5995 23.0009 14.8101C22.755 15.0203 22.7262 15.3901 22.9368 15.6361L24.4909 17.4493L24.9362 17.0685L24.4901 17.4509C24.7011 17.6972 25.0721 17.7255 25.3185 17.5146C25.3348 17.5006 25.3503 17.4858 25.3647 17.4707L30.5675 12.6284C30.8045 12.4081 30.8177 12.0371 30.5974 11.8001C30.3771 11.5631 30.0061 11.5499 29.7691 11.7702L24.9836 16.2238L23.8274 14.8745L23.8269 14.8742Z" fill="#DCDFE4"/>
<path d="M49.7251 17.5799C49.7251 16.5321 48.873 15.6797 47.8252 15.6797C46.7776 15.6797 45.9249 16.5321 45.9249 17.5799C45.9249 18.6275 46.7773 19.4799 47.8249 19.4799C48.8727 19.4799 49.7251 18.6275 49.7251 17.5799Z" fill="#15293F"/>
<path d="M47.8292 19.9219C47.6777 19.9219 47.5236 19.9319 47.3721 19.9514C45.7717 20.1572 44.5099 21.419 44.3042 23.0196C44.2979 23.067 44.3126 23.1153 44.3443 23.1514C44.3763 23.1875 44.4221 23.2082 44.4701 23.2082H51.1802C51.2282 23.2082 51.274 23.1875 51.306 23.1514C51.3377 23.115 51.3524 23.067 51.3461 23.0196C51.119 21.2537 49.6071 19.9219 47.8292 19.9219Z" fill="#15293F"/>
<path d="M49.7251 30.117C49.7251 29.0692 48.873 28.2168 47.8252 28.2168C46.7776 28.2168 45.9249 29.0692 45.9249 30.117C45.9249 31.1646 46.7773 32.017 47.8249 32.017C48.8727 32.017 49.7251 31.1646 49.7251 30.117Z" fill="#15293F"/>
<path d="M47.8292 32.459C47.6777 32.459 47.5236 32.469 47.3721 32.4885C45.7717 32.6943 44.5099 33.9561 44.3042 35.5567C44.2979 35.6041 44.3126 35.6524 44.3443 35.6885C44.3763 35.7246 44.4221 35.7453 44.4701 35.7453H51.1802C51.2282 35.7453 51.274 35.7246 51.306 35.6885C51.3377 35.6521 51.3524 35.6041 51.3461 35.5567C51.119 33.7908 49.6071 32.459 47.8292 32.459Z" fill="#15293F"/>
<path d="M25.7431 26.3681C25.3531 26.758 24.9632 27.148 24.5727 27.5385C24.3054 27.8058 24.0386 28.0725 23.7713 28.3398C23.2307 28.8805 24.0694 29.7192 24.6101 29.1786C25.275 28.5136 25.94 27.8487 26.6049 27.1837C27.3078 27.8487 28.0107 28.5136 28.7137 29.1786C29.2681 29.7027 30.1085 28.8656 29.5524 28.3398C28.8495 27.6749 28.1466 27.0099 27.4437 26.345L30.2201 23.5686C30.4874 23.3013 30.7542 23.0345 31.0215 22.7672C31.5621 22.2266 30.7234 21.3878 30.1827 21.9285C28.9821 23.1291 27.7819 24.3292 26.5813 25.5298C25.9241 24.9083 25.2668 24.2869 24.6101 23.6648C24.0557 23.1407 23.2154 23.9778 23.7714 24.5036C24.4287 25.1245 25.0858 25.7461 25.7431 26.3681Z" fill="#DCDFE4"/>
<rect x="41.1543" y="12.2383" width="13.3428" height="26.9502" rx="2.375" stroke="#15293F" stroke-width="1.25"/>
<path d="M47.56 11.8794C47.7065 12.0259 47.9439 12.0259 48.0904 11.8794L50.4768 9.49294C50.6233 9.34649 50.6233 9.10905 50.4768 8.96261C50.3304 8.81616 50.093 8.81616 49.9465 8.96261L47.8252 11.0839L45.7039 8.96261C45.5574 8.81616 45.32 8.81616 45.1735 8.96261C45.0271 9.10905 45.0271 9.34649 45.1735 9.49294L47.56 11.8794ZM36.3467 5.55078H44.8252V4.80078H36.3467V5.55078ZM47.4502 8.17578V11.6143H48.2002V8.17578H47.4502ZM44.8252 5.55078C46.2749 5.55078 47.4502 6.72603 47.4502 8.17578H48.2002C48.2002 6.31182 46.6892 4.80078 44.8252 4.80078V5.55078Z" fill="#3196F5"/>
<path d="M19.7578 41.0392L19.7578 46.6982C19.7578 48.3551 21.101 49.6982 22.7578 49.6982H44.9033C46.5602 49.6982 47.9033 48.3551 47.9033 46.6982V38.9844" stroke="#15293F" stroke-width="0.75"/>
</g>
<defs>
<filter id="filter0_d_49_295" x="0.167969" y="0.855469" width="57.9541" height="57.2188" filterUnits="userSpaceOnUse" color-interpolation-filters="sRGB">
<feFlood flood-opacity="0" result="BackgroundImageFix"/>
<feColorMatrix in="SourceAlpha" type="matrix" values="0 0 0 0 0 0 0 0 0 0 0 0 0 0 0 0 0 0 127 0" result="hardAlpha"/>
<feOffset dy="5"/>
<feGaussianBlur stdDeviation="1.5"/>
<feComposite in2="hardAlpha" operator="out"/>
<feColorMatrix type="matrix" values="0 0 0 0 0.47625 0 0 0 0 0.46875 0 0 0 0 0.5625 0 0 0 0.25 0"/>
<feBlend mode="normal" in2="BackgroundImageFix" result="effect1_dropShadow_49_295"/>
<feBlend mode="normal" in="SourceGraphic" in2="effect1_dropShadow_49_295" result="shape"/>
</filter>
</defs>
</svg>
