<svg width="141" height="31" viewBox="0 0 141 31" fill="none" xmlns="http://www.w3.org/2000/svg">
<g clip-path="url(#clip0_51_1264)">
<path d="M113.945 27.3722C113.93 26.9472 114.006 26.5239 114.168 26.1307C114.33 25.7374 114.574 25.3832 114.883 25.0917C115.183 24.7877 115.542 24.549 115.938 24.3906C116.334 24.2322 116.758 24.1575 117.185 24.1712C117.703 24.1651 118.216 24.2843 118.678 24.5187C119.118 24.7444 119.491 25.0826 119.757 25.499L119.21 25.9316C119.007 25.6284 118.74 25.374 118.427 25.1868C118.114 24.9996 117.763 24.8843 117.4 24.8493C117.037 24.8143 116.671 24.8604 116.328 24.9843C115.985 25.1082 115.674 25.3068 115.417 25.5657C114.96 26.0571 114.706 26.7033 114.706 27.3745C114.706 28.0456 114.96 28.6919 115.417 29.1832C115.674 29.4417 115.986 29.6398 116.329 29.7632C116.672 29.8867 117.038 29.9325 117.401 29.8973C117.764 29.8621 118.114 29.7467 118.427 29.5595C118.74 29.3724 119.007 29.1181 119.21 28.8151L119.757 29.2477C119.491 29.664 119.118 30.0023 118.678 30.228C118.214 30.4692 117.698 30.5917 117.175 30.5847C116.749 30.5995 116.324 30.5253 115.928 30.3668C115.532 30.2083 115.173 29.969 114.874 29.6642C114.565 29.3705 114.322 29.0141 114.161 28.6188C114.001 28.2235 113.927 27.7984 113.945 27.3722ZM120.561 30.4788H121.285V23.4141H120.561V30.4788ZM125.653 29.4065C125.502 29.5676 125.318 29.6952 125.115 29.7812C124.911 29.8672 124.691 29.9097 124.47 29.9058C124.251 29.9104 124.033 29.8687 123.831 29.7835C123.629 29.6982 123.447 29.5713 123.297 29.4111C123.141 29.2507 123.019 29.0611 122.938 28.8534C122.856 28.6457 122.816 28.4238 122.82 28.2006C122.813 27.9728 122.852 27.7459 122.933 27.533C123.015 27.3201 123.137 27.1254 123.294 26.9603C123.602 26.6466 124.022 26.468 124.461 26.4637C124.9 26.4594 125.323 26.6297 125.637 26.9372C125.644 26.9455 125.652 26.9532 125.66 26.9603C125.817 27.1248 125.94 27.3187 126.021 27.5307C126.103 27.7427 126.142 27.9688 126.136 28.196C126.141 28.4198 126.1 28.6423 126.017 28.8502C125.934 29.0581 125.811 29.2472 125.653 29.4065ZM122.774 29.8667C122.992 30.0954 123.256 30.2752 123.548 30.3942C123.841 30.5132 124.155 30.5688 124.47 30.5571C124.787 30.5674 125.102 30.5114 125.396 30.3925C125.69 30.2736 125.955 30.0945 126.176 29.8667C126.509 29.5308 126.736 29.1035 126.828 28.6388C126.919 28.174 126.871 27.6926 126.689 27.2553C126.507 26.818 126.2 26.4443 125.806 26.1815C125.412 25.9186 124.949 25.7783 124.475 25.7783C124.001 25.7783 123.538 25.9186 123.144 26.1815C122.75 26.4443 122.443 26.818 122.261 27.2553C122.079 27.6926 122.031 28.174 122.122 28.6388C122.213 29.1035 122.44 29.5308 122.774 29.8667ZM128.168 30.0416C128.435 30.315 128.779 30.5015 129.153 30.5768C129.528 30.652 129.916 30.6124 130.268 30.4633C130.62 30.3141 130.918 30.0623 131.125 29.7407C131.331 29.4191 131.436 29.0428 131.425 28.6609V25.8994H130.7V28.7069C130.705 28.8674 130.679 29.0273 130.622 29.1775C130.565 29.3276 130.479 29.4649 130.368 29.5814C130.261 29.694 130.13 29.7826 129.986 29.8413C129.842 29.9 129.686 29.9275 129.531 29.9219C129.373 29.9272 129.217 29.9001 129.07 29.8423C128.924 29.7845 128.791 29.6972 128.679 29.586C128.566 29.4701 128.478 29.3323 128.42 29.1811C128.363 29.03 128.336 28.8686 128.343 28.7069V25.8994H127.639V28.6609C127.629 28.9149 127.67 29.1684 127.761 29.4058C127.852 29.6432 127.991 29.8596 128.168 30.0416ZM135.67 29.4571C135.522 29.6062 135.344 29.7238 135.149 29.8029C134.954 29.8819 134.744 29.9209 134.534 29.9173C134.318 29.9208 134.104 29.8785 133.905 29.7933C133.707 29.708 133.529 29.5816 133.383 29.4226C133.081 29.0811 132.915 28.6412 132.915 28.1857C132.915 27.7301 133.081 27.2902 133.383 26.9488C133.53 26.7912 133.708 26.6662 133.906 26.5818C134.105 26.4973 134.318 26.4554 134.534 26.4586C134.744 26.4556 134.953 26.4948 135.149 26.5738C135.344 26.6528 135.521 26.7702 135.67 26.9188C135.972 27.2754 136.138 27.7276 136.138 28.1949C136.138 28.6622 135.972 29.1143 135.67 29.4709V29.4571ZM136.131 26.5667C135.941 26.3161 135.691 26.118 135.403 25.9914C135.099 25.8526 134.767 25.7819 134.432 25.7843C134.13 25.7791 133.831 25.8379 133.553 25.9569C133.275 26.0759 133.026 26.2523 132.822 26.4747C132.402 26.9438 132.171 27.5508 132.171 28.1799C132.171 28.809 132.402 29.4161 132.822 29.8851C133.026 30.1079 133.275 30.2847 133.553 30.4038C133.83 30.5228 134.13 30.5814 134.432 30.5755C134.78 30.5755 135.123 30.4969 135.436 30.3454C135.73 30.2133 135.983 30.0033 136.167 29.7378V30.4627H136.858V23.4141H136.133L136.131 26.5667Z" fill="#5B6770"/>
<path d="M80.7906 20.9495V6.6543H89.9772V8.7116H83.085V12.9781H88.7621V15.0492H83.085V20.9403L80.7906 20.9495ZM97.7553 18.0914C97.1437 18.7162 96.309 19.0725 95.4347 19.082C94.5604 19.0915 93.7181 18.7534 93.093 18.142L93.0424 18.0914C92.7305 17.764 92.4865 17.378 92.3246 16.9558C92.1626 16.5336 92.0859 16.0834 92.0989 15.6314C92.0782 14.7144 92.4216 13.8266 93.0539 13.1622C93.3486 12.8522 93.7016 12.6034 94.0926 12.4301C94.4837 12.2568 94.9051 12.1625 95.3327 12.1524C95.7603 12.1424 96.1857 12.2168 96.5844 12.3716C96.9832 12.5263 97.3475 12.7582 97.6564 13.054C97.6932 13.0908 97.73 13.1254 97.7645 13.1622C98.3978 13.8305 98.7404 14.7225 98.7172 15.6429C98.7275 16.0945 98.6477 16.5435 98.4826 16.9639C98.3174 17.3843 98.0702 17.7676 97.7553 18.0914ZM91.4177 19.5527C91.9292 20.0885 92.5474 20.511 93.2324 20.7928C93.9173 21.0746 94.6539 21.2096 95.3943 21.1889C96.1382 21.2106 96.8785 21.0773 97.5683 20.7976C98.258 20.518 98.882 20.0979 99.4007 19.5642C99.9385 19.061 100.363 18.4495 100.647 17.7699C100.931 17.0904 101.068 16.3584 101.048 15.6222C101.065 14.8908 100.927 14.1641 100.643 13.4899C100.359 12.8156 99.9357 12.2091 99.4007 11.7101C98.3314 10.6719 96.8996 10.0912 95.4092 10.0912C93.9188 10.0912 92.4871 10.6719 91.4177 11.7101C90.8821 12.2124 90.4592 12.8227 90.1771 13.5007C89.8951 14.1787 89.7602 14.9089 89.7816 15.6429C89.7656 16.3731 89.903 17.0986 90.1848 17.7724C90.4667 18.4463 90.8867 19.0535 91.4177 19.555V19.5527ZM107.786 10.2051C107.189 10.1915 106.596 10.3201 106.058 10.5801C105.519 10.8401 105.05 11.2243 104.689 11.7009V10.3202H102.57V20.9495H104.845V15.2747C104.845 14.3542 105.134 13.6324 105.711 13.1092C106.335 12.5705 107.14 12.2891 107.964 12.3222H108.654V10.3156C108.371 10.2421 108.079 10.205 107.786 10.2051ZM110.808 19.9002C111.251 20.3293 111.775 20.6646 112.351 20.8861C112.926 21.1075 113.54 21.2105 114.156 21.1889C114.766 21.2078 115.374 21.1023 115.942 20.8788C116.51 20.6553 117.027 20.3184 117.461 19.8887C118.335 19.0234 118.772 17.8897 118.772 16.4875V10.3156H116.497V16.6623C116.51 16.984 116.458 17.305 116.345 17.6063C116.231 17.9076 116.058 18.1829 115.836 18.4159C115.618 18.6378 115.356 18.8121 115.066 18.9277C114.777 19.0434 114.467 19.0979 114.156 19.0878C113.837 19.1003 113.518 19.047 113.22 18.9314C112.922 18.8159 112.651 18.6404 112.423 18.4159C112.198 18.1848 112.022 17.91 111.906 17.6085C111.791 17.307 111.738 16.985 111.751 16.6623V10.3156H109.499V16.4875C109.499 17.9035 109.935 19.0411 110.808 19.9002ZM135.781 11.236C135.072 10.469 134.112 10.0854 132.9 10.0854C131.353 10.0854 130.154 10.6416 129.303 11.7538C128.625 10.6431 127.551 10.087 126.081 10.0854C125.509 10.0636 124.939 10.1624 124.408 10.3753C123.877 10.5882 123.396 10.9105 122.998 11.3212V10.3156H120.873V20.9495H123.149V14.6235C123.121 13.965 123.354 13.3221 123.798 12.8354C124.015 12.6074 124.278 12.4279 124.569 12.3089C124.86 12.1899 125.173 12.1341 125.487 12.145C125.793 12.133 126.097 12.1886 126.378 12.308C126.66 12.4273 126.911 12.6074 127.114 12.8354C127.533 13.3343 127.749 13.9726 127.72 14.6235V20.9495H129.996V14.5176C129.983 14.205 130.035 13.8932 130.146 13.6009C130.258 13.3086 130.427 13.042 130.645 12.817C130.866 12.5962 131.13 12.4235 131.421 12.3098C131.712 12.1961 132.024 12.144 132.336 12.1565C132.637 12.143 132.938 12.196 133.216 12.3117C133.494 12.4275 133.744 12.6031 133.947 12.8262C134.368 13.3277 134.586 13.9691 134.557 14.6235V20.9495H136.858V14.3128C136.847 13.0333 136.488 12.0077 135.781 11.236Z" fill="#6E3FA3"/>
<path d="M58.6206 6.66519V18.1713L49.5054 6.45117H48.8749V20.9857H50.2556V9.56244L59.3524 21.1975H60.0013V6.66519H58.6206Z" fill="#5B6770"/>
<path d="M70.6745 11.5345C70.2293 11.1038 69.7031 10.7657 69.1264 10.5397C68.5497 10.3138 67.9339 10.2045 67.3147 10.2182C66.6057 10.2015 65.9013 10.3367 65.2488 10.6145C64.5964 10.8923 64.0108 11.3064 63.5314 11.829C63.0215 12.3377 62.621 12.9453 62.3547 13.6146C62.0883 14.2838 61.9617 15.0004 61.9827 15.7204C61.9617 16.4428 62.0916 17.1616 62.3643 17.8308C62.6369 18.5001 63.0462 19.1051 63.566 19.6072C64.0501 20.1164 64.6337 20.5209 65.2804 20.7956C65.9272 21.0703 66.6235 21.2094 67.3262 21.2042H67.4412C68.2503 21.2155 69.0514 21.0433 69.7844 20.7006C70.5174 20.3578 71.1631 19.8534 71.6732 19.2252L71.7537 19.1308L70.8816 18.2288L70.7826 18.3461C70.3852 18.8433 69.8794 19.2432 69.3039 19.5152C68.7284 19.7872 68.0984 19.9241 67.4619 19.9156C66.9361 19.9269 66.4133 19.8337 65.9239 19.6413C65.4344 19.4489 64.988 19.1612 64.6107 18.7949C63.87 18.0803 63.4276 17.1117 63.3727 16.084H71.9309L71.9562 15.9804C72.0291 15.6333 72.0593 15.2786 72.046 14.9242C72.0664 14.2948 71.9549 13.668 71.7187 13.0843C71.4825 12.5005 71.1268 11.9726 70.6745 11.5345ZM63.4279 14.8528C63.5649 13.9356 64.0163 13.0945 64.7051 12.4734C65.3942 11.8127 66.3165 11.4513 67.2709 11.4677C67.7262 11.4563 68.1791 11.5364 68.6028 11.7032C69.0266 11.87 69.4125 12.1202 69.7379 12.4389C70.0528 12.7541 70.2984 13.1317 70.4589 13.5474C70.6194 13.9631 70.6912 14.4077 70.6699 14.8528H63.4279Z" fill="#5B6770"/>
<path d="M79.2879 19.7785C78.8278 19.8778 78.3593 19.9333 77.8887 19.9442C76.4781 19.9442 75.7923 19.2861 75.7923 17.9329V11.6874H79.1107V10.4332H75.7923V7.51758H74.4323V10.4332H72.6534V11.6874H74.4415V17.9767C74.4415 19.0467 74.7338 19.8614 75.3137 20.3953C75.8936 20.9292 76.6944 21.1984 77.7277 21.1984C78.2787 21.1994 78.8275 21.1267 79.3592 20.9821L79.4605 20.9522V19.744L79.2879 19.7785Z" fill="#5B6770"/>
<path d="M140.202 10.2791C140.428 10.4052 140.617 10.5905 140.747 10.8153C140.878 11.0502 140.947 11.3148 140.947 11.5839C140.947 11.853 140.878 12.1176 140.747 12.3525C140.617 12.5766 140.428 12.7612 140.202 12.8864C139.971 13.0131 139.713 13.0795 139.45 13.0795C139.187 13.0795 138.929 13.0131 138.699 12.8864C138.473 12.7598 138.285 12.5756 138.153 12.3525C138.022 12.1176 137.953 11.853 137.953 11.5839C137.953 11.3148 138.022 11.0502 138.153 10.8153C138.284 10.591 138.472 10.4059 138.699 10.2791C138.929 10.1524 139.187 10.0859 139.45 10.0859C139.713 10.0859 139.971 10.1524 140.202 10.2791ZM140.08 12.6701C140.263 12.5662 140.414 12.4132 140.515 12.2282C140.622 12.0307 140.676 11.8086 140.671 11.5839C140.676 11.3577 140.622 11.1341 140.515 10.9349C140.414 10.7509 140.263 10.5992 140.08 10.4977C139.887 10.395 139.672 10.3412 139.454 10.3412C139.235 10.3412 139.02 10.395 138.828 10.4977C138.64 10.6006 138.485 10.7546 138.381 10.9418C138.276 11.1402 138.22 11.3614 138.22 11.5862C138.22 11.8109 138.276 12.0322 138.381 12.2305C138.484 12.4163 138.637 12.5695 138.823 12.6724C139.016 12.7751 139.231 12.8289 139.449 12.8289C139.667 12.8289 139.882 12.7751 140.075 12.6724M140.093 12.2743C140.093 12.2937 140.088 12.3127 140.078 12.3293C140.067 12.3459 140.053 12.3595 140.036 12.3686C139.994 12.3919 139.946 12.4031 139.898 12.4008C139.865 12.3996 139.834 12.3898 139.806 12.3725C139.779 12.3551 139.756 12.3307 139.741 12.3019C139.695 12.2159 139.673 12.1187 139.679 12.0211C139.681 11.9507 139.661 11.8815 139.622 11.8232C139.602 11.7976 139.576 11.7771 139.546 11.7635C139.516 11.7499 139.484 11.7435 139.451 11.745H139.191V12.2743C139.191 12.2889 139.186 12.3032 139.179 12.316C139.172 12.3288 139.162 12.3397 139.15 12.3479C139.126 12.3692 139.095 12.3811 139.064 12.3811C139.032 12.3811 139.001 12.3692 138.977 12.3479C138.965 12.3397 138.955 12.3288 138.948 12.316C138.941 12.3032 138.937 12.2889 138.936 12.2743V10.8935C138.937 10.8683 138.948 10.8444 138.966 10.8268C138.975 10.8163 138.985 10.8078 138.998 10.8019C139.01 10.7959 139.023 10.7926 139.037 10.7923H139.497C139.647 10.7823 139.797 10.8184 139.925 10.8958C139.974 10.9367 140.013 10.9888 140.037 11.0477C140.062 11.1066 140.071 11.1706 140.066 11.2341C140.07 11.3307 140.037 11.4253 139.974 11.4984C139.91 11.5715 139.821 11.6177 139.725 11.6276C139.787 11.6678 139.838 11.7222 139.875 11.7864C139.918 11.8553 139.94 11.9352 139.939 12.0165C139.935 12.0666 139.942 12.117 139.96 12.1638C139.966 12.1773 139.975 12.1892 139.987 12.1984C139.998 12.2077 140.012 12.2139 140.027 12.2167C140.045 12.2185 140.062 12.227 140.074 12.2406C140.087 12.2542 140.093 12.272 140.093 12.2904M139.714 11.4573C139.745 11.4371 139.771 11.4091 139.788 11.376C139.805 11.3429 139.814 11.3059 139.813 11.2686C139.817 11.2341 139.812 11.1992 139.798 11.1672C139.784 11.1353 139.762 11.1076 139.734 11.0868C139.663 11.0532 139.584 11.0374 139.504 11.0408H139.198V11.5218H139.472C139.56 11.5259 139.646 11.5035 139.721 11.4573" fill="#6E3FA3"/>
<path fill-rule="evenodd" clip-rule="evenodd" d="M45.3472 18.4575C45.3472 21.6752 44.069 24.761 41.7938 27.0362C39.5186 29.3114 36.4327 30.5896 33.2151 30.5896H21.0807V18.4575C21.1246 15.2685 22.4223 12.225 24.6929 9.98544C26.9636 7.74585 30.0246 6.49023 33.2139 6.49023C36.4032 6.49023 39.4643 7.74585 41.735 9.98544C44.0056 12.225 45.3032 15.2685 45.3472 18.4575Z" fill="#6E3FA3"/>
<path fill-rule="evenodd" clip-rule="evenodd" d="M0.394902 20.2476C0.395512 17.5056 1.48504 14.8761 3.42392 12.9372C5.36281 10.9983 7.99233 9.90882 10.7343 9.90821C12.093 9.9064 13.4387 10.1723 14.6946 10.6908C15.9504 11.2093 17.0918 11.9701 18.0535 12.9299C19.0152 13.8897 19.7784 15.0295 20.2994 16.2844C20.8203 17.5392 21.089 18.8844 21.0899 20.243V30.5986H10.7366C9.37776 30.5986 8.03221 30.3308 6.7769 29.8105C5.52158 29.2902 4.38111 28.5276 3.42067 27.5663C2.46023 26.605 1.69865 25.4639 1.17948 24.2081C0.660296 22.9523 0.393692 21.6065 0.394902 20.2476Z" fill="#6E3FA3"/>
<path fill-rule="evenodd" clip-rule="evenodd" d="M12.3613 4.43299C14.6801 2.15205 17.8063 0.879585 21.0589 0.892678C24.3116 0.905771 27.4274 2.20336 29.7278 4.5029C32.0283 6.80244 33.3271 9.9177 33.3415 13.1704C33.3558 16.423 32.0846 19.5496 29.8046 21.8694L21.0829 30.5888L12.3613 21.8694C11.2165 20.7247 10.3084 19.3657 9.6889 17.87C9.06936 16.3743 8.75049 14.7713 8.75049 13.1524C8.75049 11.5334 9.06936 9.93039 9.6889 8.43471C10.3084 6.93903 11.2165 5.58003 12.3613 4.4353V4.43299Z" fill="#40C2CC"/>
<path fill-rule="evenodd" clip-rule="evenodd" d="M31.5306 6.60742C28.6609 7.0094 26.0298 8.42505 24.1131 10.5983C22.1965 12.7716 21.1208 15.559 21.0807 18.4565V30.5885L29.8024 21.8692C31.7745 19.896 33.0192 17.3123 33.3331 14.5403C33.647 11.7682 33.0115 8.97164 31.5306 6.60742Z" fill="#2FA9C0"/>
<path fill-rule="evenodd" clip-rule="evenodd" d="M21.0807 20.243C21.0789 17.501 19.9882 14.872 18.0484 12.934C16.1087 10.9959 13.4787 9.90759 10.7367 9.90821C10.2066 9.90788 9.67725 9.94866 9.15345 10.0302C8.60656 12.1119 8.61497 14.3006 9.17784 16.3781C9.74071 18.4555 10.8384 20.3491 12.3614 21.87L21.083 30.5894V20.2338L21.0807 20.243Z" fill="#1D91B5"/>
</g>
<defs>
<clipPath id="clip0_51_1264">
<rect width="140.552" height="29.7733" fill="white" transform="translate(0.394897 0.816406)"/>
</clipPath>
</defs>
</svg>
