<svg width="163" height="33" viewBox="0 0 163 33" fill="none" xmlns="http://www.w3.org/2000/svg">
<path d="M86.0774 3.1949L78.3241 23.3115C78.2972 23.3827 78.2492 23.444 78.1866 23.4873C78.124 23.5305 78.0497 23.5537 77.9736 23.5537C77.8975 23.5537 77.8232 23.5305 77.7606 23.4873C77.698 23.444 77.65 23.3827 77.6231 23.3115L70.0862 3.21106C69.9757 2.91492 69.7771 2.65974 69.5172 2.47983C69.2573 2.29992 68.9486 2.20392 68.6325 2.20474H66.1643C65.9136 2.20509 65.6667 2.2663 65.4448 2.38311C65.223 2.49992 65.0328 2.66885 64.8906 2.87537C64.7484 3.0819 64.6585 3.31986 64.6285 3.5688C64.5986 3.81775 64.6295 4.07024 64.7187 4.3046L74.8723 31.0099C74.9841 31.3046 75.1833 31.558 75.443 31.7364C75.7028 31.9148 76.0109 32.0096 76.326 32.0082H79.3757C79.6867 32.0082 79.9906 31.9146 80.2476 31.7394C80.5046 31.5642 80.7029 31.3156 80.8165 31.0261L91.2948 4.31752C91.3868 4.08279 91.4201 3.82914 91.3919 3.57861C91.3636 3.32807 91.2747 3.08822 91.1327 2.87987C90.9907 2.67152 90.8 2.50098 90.5772 2.38304C90.3543 2.26511 90.1061 2.20335 89.854 2.20313H87.5215C87.2087 2.20294 86.9032 2.29763 86.6454 2.47471C86.3876 2.65178 86.1896 2.90291 86.0774 3.1949Z" fill="#007CDC"/>
<path d="M94.2555 30.4611V3.75251C94.2555 3.34211 94.4185 2.94851 94.7087 2.65831C94.9989 2.36811 95.3925 2.20508 95.8029 2.20508H98.1273C98.5377 2.20508 98.9313 2.36811 99.2215 2.65831C99.5117 2.94851 99.6747 3.34211 99.6747 3.75251V30.4611C99.6747 30.8715 99.5117 31.2651 99.2215 31.5553C98.9313 31.8455 98.5377 32.0085 98.1273 32.0085H95.8029C95.3925 32.0085 94.9989 31.8455 94.7087 31.5553C94.4185 31.2651 94.2555 30.8715 94.2555 30.4611Z" fill="#007CDC"/>
<g opacity="0.4">
<path d="M40.9661 17.1671C40.9661 11.5395 43.7023 5.6712 50.0116 5.59367V1.53125C41.8771 1.64755 35.4741 7.47546 35.4741 17.3609C35.4741 26.7828 41.6929 32.6931 49.7612 32.6931H50.0067V28.621C44.7103 28.621 40.9612 23.696 40.9612 17.1671" fill="#007CDC"/>
</g>
<g opacity="0.8">
<path d="M64.3051 16.8592C64.3051 7.74581 58.5175 1.52539 49.9582 1.52539H49.7111V5.59427C49.7531 5.59427 49.7918 5.59427 49.8354 5.59427C56.2384 5.59427 58.7631 11.9988 58.7631 17.0482C58.7631 23.7613 54.8864 28.6248 49.7175 28.6248V32.684C56.849 32.5758 64.3115 27.7607 64.3115 16.864" fill="#007CDC"/>
</g>
<path d="M50.0213 1.53125C46.9401 1.53125 43.928 2.44503 41.3661 4.15702C38.8043 5.869 36.8076 8.30229 35.6288 11.1491C34.4499 13.996 34.1418 17.1284 34.7434 20.1504C35.345 23.1723 36.8293 25.948 39.0085 28.1263C41.1877 30.3047 43.964 31.7878 46.9862 32.3881C50.0084 32.9885 53.1408 32.6791 55.9871 31.499C58.8335 30.319 61.2659 28.3214 62.9769 25.7588C64.6878 23.1962 65.6003 20.1838 65.599 17.1025C65.5977 12.972 63.9559 9.01118 61.0346 6.0911C58.1133 3.17102 54.1518 1.53082 50.0213 1.53125ZM50.0213 28.6226C47.7444 28.6226 45.5186 27.9475 43.6253 26.6827C41.7321 25.4178 40.2563 23.62 39.3847 21.5165C38.5131 19.4131 38.2847 17.0984 38.7284 14.8651C39.1721 12.6319 40.2681 10.5803 41.8776 8.96984C43.4872 7.35937 45.5381 6.26229 47.7712 5.8173C50.0042 5.37231 52.319 5.5994 54.4229 6.46985C56.5269 7.34031 58.3255 8.81504 59.5914 10.7076C60.8574 12.6002 61.5337 14.8256 61.535 17.1025C61.535 18.6145 61.2372 20.1117 60.6586 21.5086C60.08 22.9055 59.2319 24.1748 58.1627 25.2439C57.0936 26.313 55.8243 27.1611 54.4274 27.7397C53.0305 28.3184 51.5333 28.6162 50.0213 28.6162" fill="#007CDC"/>
<path d="M1.72456 7.68411C2.33774 6.27812 3.22073 5.00604 4.32353 3.9399C5.4344 2.86174 6.74231 2.00734 8.17596 1.4233L8.20342 1.412C8.2916 1.37676 8.36469 1.31181 8.41004 1.22838C8.45538 1.14494 8.47013 1.04828 8.45173 0.955122C8.43333 0.861962 8.38293 0.778168 8.30927 0.718243C8.23561 0.658317 8.14331 0.626031 8.04836 0.626973H2.14453C1.81637 0.626973 1.50166 0.757331 1.26962 0.98937C1.03758 1.22141 0.907227 1.53612 0.907227 1.86427L0.907227 7.57265C0.907795 7.66757 0.941 7.7594 1.00127 7.83273C1.06154 7.90606 1.1452 7.95643 1.23821 7.97537C1.33121 7.99431 1.42791 7.98068 1.51206 7.93676C1.5962 7.89285 1.66268 7.82132 1.70033 7.73418L1.72456 7.67603" fill="#56B349"/>
<path d="M17.3313 1.89648C9.33728 1.89648 2.95533 7.38842 2.57251 16.8039V30.8325C2.5723 31.0358 2.61218 31.2371 2.68987 31.4249C2.76756 31.6128 2.88153 31.7835 3.02527 31.9272C3.169 32.0709 3.33968 32.1849 3.52752 32.2626C3.71535 32.3403 3.91667 32.3802 4.11994 32.3799H6.48471C6.68805 32.3802 6.88945 32.3403 7.07738 32.2626C7.26531 32.1849 7.43609 32.071 7.57995 31.9273C7.72381 31.7836 7.83794 31.6129 7.91581 31.4251C7.99367 31.2372 8.03375 31.0359 8.03375 30.8325V17.5388C8.03375 11.8724 10.8039 6.97168 17.2085 6.97168C23.6131 6.97168 26.1378 12.3651 26.1378 17.4144V30.8325C26.1378 31.0357 26.1778 31.2369 26.2555 31.4247C26.3333 31.6124 26.4473 31.783 26.591 31.9267C26.7347 32.0704 26.9053 32.1844 27.093 32.2622C27.2808 32.3399 27.482 32.3799 27.6852 32.3799H30.1323C30.3355 32.3799 30.5368 32.3399 30.7245 32.2622C30.9122 32.1844 31.0828 32.0704 31.2265 31.9267C31.3702 31.783 31.4842 31.6124 31.562 31.4247C31.6397 31.2369 31.6798 31.0357 31.6798 30.8325V17.2319C31.6798 8.11852 25.8906 1.8981 17.3313 1.8981" fill="#007CDC"/>
<path d="M119.685 13.1426H119.648C119.455 13.9114 119.263 14.9695 119.069 15.7012L118.512 18.0304H120.922L120.326 15.7012C120.134 14.9695 119.883 13.9114 119.69 13.1426" fill="#3279BD"/>
<path d="M160.886 2.11914H104.997C104.587 2.11914 104.193 2.28212 103.902 2.57228C103.612 2.86243 103.449 3.25602 103.448 3.66657V30.5447C103.449 30.9553 103.612 31.3489 103.902 31.639C104.193 31.9292 104.587 32.0922 104.997 32.0922H160.886C161.089 32.0924 161.29 32.0525 161.478 31.9748C161.666 31.8972 161.837 31.7832 161.981 31.6395C162.125 31.4958 162.239 31.3251 162.317 31.1373C162.395 30.9494 162.435 30.7481 162.435 30.5447V3.66657C162.435 3.46323 162.395 3.26187 162.317 3.07402C162.239 2.88618 162.125 2.71552 161.981 2.5718C161.837 2.42809 161.666 2.31414 161.478 2.23647C161.29 2.1588 161.089 2.11893 160.886 2.11914ZM122.155 23.5926L121.326 20.5898H117.976L117.246 23.5926H113.653L117.427 10.6203H122.046L125.923 23.5926H122.155ZM137.744 23.5926L137.582 18.9341C137.526 17.4804 137.506 15.7391 137.506 13.7184H137.448C137.044 15.4322 136.506 17.3754 136.082 18.8001L134.789 23.3229H132.076L130.998 18.8001C130.651 17.4142 130.267 15.4888 129.958 13.7184H129.919C129.842 15.5469 129.785 17.4723 129.727 18.9341L129.515 23.5926H126.33L127.138 10.6203H131.822L132.67 14.1222C133.035 15.5469 133.42 17.2785 133.689 18.8566H133.747C134.112 17.2785 134.536 15.45 134.92 14.0835L135.902 10.6203H140.464L141.11 23.5926H137.744ZM145.673 23.7848C144.114 23.7848 142.594 23.381 141.863 22.9949L142.517 20.1278C143.565 20.6454 144.716 20.9214 145.885 20.9355C147.078 20.9355 147.661 20.53 147.661 19.8759C147.661 19.2217 147.083 18.8954 145.621 18.3946C143.426 17.6048 141.964 16.4111 141.964 14.4857C141.964 12.1968 143.903 10.4265 147.18 10.4265C148.719 10.4265 149.836 10.714 150.684 11.0726L149.947 13.8719C149.065 13.4675 148.107 13.2576 147.136 13.2565C146.078 13.2565 145.5 13.6425 145.5 14.2256C145.5 14.8717 146.193 15.1302 147.829 15.7456C150.159 16.613 151.197 17.8455 151.197 19.6529C151.197 21.8853 149.466 23.7913 145.673 23.7913" fill="#007CDC"/>
<path d="M160.052 6.67546C160.062 7.06074 159.956 7.44015 159.749 7.76522C159.542 8.09028 159.243 8.34625 158.89 8.50041C158.537 8.65458 158.145 8.69995 157.766 8.63072C157.387 8.56149 157.037 8.38081 156.761 8.11176C156.485 7.84271 156.296 7.4975 156.217 7.12024C156.138 6.74298 156.174 6.35079 156.319 5.99378C156.464 5.63676 156.712 5.33113 157.032 5.11592C157.352 4.90072 157.728 4.78571 158.114 4.78559C158.366 4.78022 158.616 4.82508 158.851 4.91756C159.085 5.01003 159.299 5.14825 159.479 5.32417C159.66 5.50009 159.803 5.71018 159.902 5.94219C160 6.17419 160.051 6.42346 160.052 6.67546ZM156.66 6.67546C156.654 6.87244 156.688 7.06863 156.759 7.25228C156.831 7.43593 156.939 7.60326 157.076 7.74427C157.214 7.88527 157.379 7.99705 157.561 8.0729C157.742 8.14876 157.938 8.18714 158.135 8.18574C158.329 8.18411 158.52 8.1438 158.698 8.06716C158.876 7.99052 159.037 7.87911 159.171 7.73947C159.305 7.59983 159.41 7.43477 159.479 7.25399C159.549 7.07321 159.582 6.88036 159.576 6.68676C159.576 5.84521 158.965 5.16679 158.122 5.16679C157.926 5.16672 157.731 5.20599 157.551 5.28229C157.37 5.35859 157.206 5.47037 157.069 5.61102C156.932 5.75167 156.825 5.91833 156.754 6.10116C156.682 6.28399 156.648 6.47927 156.654 6.67546H156.66ZM157.825 7.66562H157.387V5.77736C157.626 5.73438 157.869 5.7149 158.112 5.71922C158.34 5.70059 158.569 5.74887 158.77 5.85813C158.829 5.91036 158.876 5.97545 158.907 6.04848C158.938 6.12151 158.952 6.20058 158.947 6.27972C158.938 6.38402 158.895 6.48241 158.825 6.56016C158.754 6.63791 158.661 6.69083 158.558 6.71099V6.73361C158.652 6.77131 158.734 6.83418 158.795 6.91536C158.856 6.99655 158.894 7.09292 158.904 7.19396C158.922 7.35807 158.969 7.51769 159.043 7.66562H158.569C158.498 7.52015 158.447 7.36512 158.419 7.20527C158.387 6.99851 158.271 6.90644 158.028 6.90644H157.822L157.825 7.66562ZM157.836 6.59469H158.043C158.285 6.59469 158.482 6.51393 158.482 6.31848C158.482 6.12303 158.355 6.02935 158.078 6.02935C157.997 6.02784 157.916 6.03597 157.836 6.05358V6.59469Z" fill="white"/>
</svg>
