<svg xmlns="http://www.w3.org/2000/svg" width="13.136" height="14.192" viewBox="0 0 13.136 14.192">
  <g id="Group_46" data-name="Group 46" transform="translate(1187.25 -925.5)">
    <path id="Path_128" data-name="Path 128" d="M-1093.94,925.5v1.935H-1104V925.5Z" transform="translate(-80.174)" fill="#7e9ab8"/>
    <path id="Path_129" data-name="Path 129" d="M-1185.005,925.5v1.935h-2.245V925.5Z" fill="#7e9ab8"/>
    <path id="Path_130" data-name="Path 130" d="M-1180.73,1000.893h6.893v8.041h-1.874v-2.744h-3.709v-.165c0-.383,0-.767,0-1.15a1.716,1.716,0,0,0-1.678-1.688,1.716,1.716,0,0,0-1.737,1.581c-.011.147-.009.3-.009.443q0,1.372,0,2.744v.175H-1184v.8h-2.952v-8.039h5.378v.75h.841Zm2.13.5-.877.877.542.547.885-.873Zm-5.088.01-.559.56.868.871.562-.56Zm-.259,3.509v-.813h-1.2v.813Zm5.594,0h1.2v-.814h-1.2Z" transform="translate(-0.29 -72.607)" fill="#7e9ab8"/>
    <path id="Path_131" data-name="Path 131" d="M-1081.817,1088.466h3.695v5.282h-.153q-2.55,0-5.1,0a.218.218,0,0,1-.219-.119c-.354-.595-.718-1.184-1.073-1.778a.488.488,0,0,1-.067-.231c-.006-.4,0-.792,0-1.207h1.157v-.194q0-1.9,0-3.8a.881.881,0,0,1,.507-.866.873.873,0,0,1,1.253.766c.01.656,0,1.312,0,1.968C-1081.817,1088.341-1081.817,1088.391-1081.817,1088.466Z" transform="translate(-98.725 -154.058)" fill="#7e9ab8"/>
  </g>
</svg>
