<svg xmlns="http://www.w3.org/2000/svg" width="10.615" height="14.658" viewBox="0 0 10.615 14.658">
  <g id="Group_44" data-name="Group 44" transform="translate(728.25 -267)">
    <path id="Path_122" data-name="Path 122" d="M-721.174,267v.19q0,1.5,0,3c0,.269.079.348.347.348h3.191v.178q0,5.29,0,10.58c0,.288-.074.361-.366.361h-9.886c-.29,0-.363-.073-.363-.363q0-6.964,0-13.928c0-.293.072-.367.36-.367h6.717Zm-4.263,9.348c-.013.269.038.335.266.387.19.043.378.09.569.127a.312.312,0,0,1,.242.172c.1.186.21.365.319.544a.257.257,0,0,0,.373.124c.209-.087.413-.184.624-.265a.311.311,0,0,1,.2,0c.211.081.415.178.623.265a.258.258,0,0,0,.372-.125c.112-.184.224-.369.326-.558a.286.286,0,0,1,.216-.156c.2-.039.39-.086.584-.13.233-.054.287-.123.269-.364-.014-.2-.048-.4-.052-.6a.429.429,0,0,1,.081-.25c.127-.167.274-.319.411-.479a.263.263,0,0,0,0-.417c-.141-.164-.29-.32-.422-.49a.369.369,0,0,1-.074-.223c.009-.226.042-.45.056-.676a.248.248,0,0,0-.221-.294,3.156,3.156,0,0,0-.431-.095.579.579,0,0,1-.524-.375,2.8,2.8,0,0,0-.214-.367.263.263,0,0,0-.395-.131c-.2.086-.4.181-.609.259a.311.311,0,0,1-.2,0c-.216-.083-.425-.182-.639-.27a.248.248,0,0,0-.349.115,3.684,3.684,0,0,0-.244.423.54.54,0,0,1-.487.351,3.092,3.092,0,0,0-.431.093c-.19.044-.258.128-.245.323.015.22.047.44.056.66a.344.344,0,0,1-.068.209c-.126.161-.267.311-.4.466-.167.191-.168.276-.005.464.134.155.276.3.4.466a.372.372,0,0,1,.073.223C-725.391,275.967-725.42,276.176-725.437,276.348Zm2.747,1.707c0,.477,0,.934,0,1.392a.211.211,0,0,0,.1.144c.316.166.637.323.957.483.283.141.45.04.45-.275q0-1.089,0-2.177c0-.043-.005-.086-.01-.159-.185.276-.283.583-.593.712A1.14,1.14,0,0,1-722.69,278.054Zm-2.021-.607c0,.842,0,1.636,0,2.43a.248.248,0,0,0,.377.228c.2-.09.387-.188.58-.286s.435-.145.524-.295.029-.407.033-.616c0-.021,0-.042,0-.063v-.8a1.143,1.143,0,0,1-.9.129C-724.415,278.055-724.514,277.742-724.711,277.448Zm1.761-7.4h-3.771v.487h3.771Zm-3.777-.527h2.513v-.486h-2.513Z" fill="#7e9ab8"/>
    <path id="Path_123" data-name="Path 123" d="M-548.092,274.878V272.07l2.808,2.808Z" transform="translate(-172.57 -4.857)" fill="#7e9ab8"/>
    <path id="Path_124" data-name="Path 124" d="M-638.245,418.519a1.519,1.519,0,0,1,1.52-1.512,1.519,1.519,0,0,1,1.512,1.52,1.518,1.518,0,0,1-1.52,1.512A1.518,1.518,0,0,1-638.245,418.519Zm1.517-1.007a1.012,1.012,0,0,0-1.012,1.013,1.013,1.013,0,0,0,1,1.008,1.013,1.013,0,0,0,1.02-1.006A1.012,1.012,0,0,0-636.728,417.512Z" transform="translate(-86.214 -143.688)" fill="#7e9ab8"/>
  </g>
</svg>
