<svg width="190" height="189" viewBox="0 0 190 189" fill="none" xmlns="http://www.w3.org/2000/svg">
<g filter="url(#filter0_d_65_1162)">
<circle cx="95" cy="90.3281" r="42.1465" fill="#3196F5"/>
<circle cx="94.9995" cy="90.3296" r="32.4448" fill="white"/>
<path d="M117.352 82.9513C117.464 83.6911 116.937 83.1612 116.937 83.1612C114.789 80.452 117.312 75.9231 117.312 75.9231C117.636 75.4033 117.96 74.9334 118.295 74.5035C113.188 67.1855 104.646 62.3867 94.9483 62.3867C80.0325 62.3867 67.8223 73.7737 66.7178 88.2099C72.3618 85.5106 78.5126 92.1889 78.5126 92.1889L80.9343 94.5582C88.22 101.736 90.3175 101.676 91.3713 100.027C91.3713 100.027 92.8305 97.9373 90.3986 93.6985C87.4499 88.5798 90.6823 84.7908 90.6823 84.7908C99.2649 73.2838 113.005 87.92 113.005 87.92C117.859 92.6987 120.939 94.4882 122.885 94.9981C123.138 93.4785 123.28 91.9289 123.28 90.3393C123.28 86.9702 122.672 83.7411 121.568 80.7519C117.808 79.4822 117.281 82.4814 117.352 82.9613V82.9513Z" fill="#76C4D5"/>
<path d="M104.302 96.5174C98.5865 90.8889 95.2325 89.2893 93.287 89.2793C93.0742 89.2993 91.4529 89.4792 91.767 91.1088C92.0508 92.5284 97.2287 99.2067 91.2503 105.125C82.8703 112.093 73.8722 101.526 73.8722 101.526C71.0856 98.9667 67.7215 95.0578 67.2959 96.3474C70.0926 108.884 81.4111 118.272 94.9488 118.272C105.366 118.272 114.465 112.723 119.39 104.455C112.165 104.885 104.302 96.5174 104.302 96.5174Z" fill="#007496"/>
</g>
<defs>
<filter id="filter0_d_65_1162" x="0.853516" y="0.181641" width="188.293" height="188.293" filterUnits="userSpaceOnUse" color-interpolation-filters="sRGB">
<feFlood flood-opacity="0" result="BackgroundImageFix"/>
<feColorMatrix in="SourceAlpha" type="matrix" values="0 0 0 0 0 0 0 0 0 0 0 0 0 0 0 0 0 0 127 0" result="hardAlpha"/>
<feOffset dy="4"/>
<feGaussianBlur stdDeviation="26"/>
<feComposite in2="hardAlpha" operator="out"/>
<feColorMatrix type="matrix" values="0 0 0 0 0 0 0 0 0 0.515306 0 0 0 0 1 0 0 0 0.87 0"/>
<feBlend mode="normal" in2="BackgroundImageFix" result="effect1_dropShadow_65_1162"/>
<feBlend mode="normal" in="SourceGraphic" in2="effect1_dropShadow_65_1162" result="shape"/>
</filter>
</defs>
</svg>
