<svg width="398" height="351" viewBox="0 0 398 351" fill="none" xmlns="http://www.w3.org/2000/svg">
<rect x="0.359863" y="0.998047" width="397" height="350" rx="11" fill="#E8F4FE"/>
<g filter="url(#filter0_d_63_9936)">
<rect x="88.1099" y="86.1406" width="239.514" height="155.738" rx="8" fill="#FEFEFE"/>
</g>
<rect x="88.1099" y="113.604" width="239.514" height="128.275" rx="11" fill="#C8DBEC" fill-opacity="0.15"/>
<g filter="url(#filter1_d_63_9936)">
<rect x="70.0955" y="126.252" width="154.053" height="65.3027" rx="8" fill="#FEFEFE"/>
</g>
<g filter="url(#filter2_d_63_9936)">
<rect x="233.118" y="126.252" width="66.5107" height="65.3027" rx="8" fill="#FEFEFE"/>
</g>
<g filter="url(#filter3_d_63_9936)">
<rect x="233.118" y="200.555" width="66.5107" height="65.3027" rx="8" fill="#FEFEFE"/>
</g>
<rect x="246.367" y="229.564" width="4.58677" height="17.276" rx="0.795942" fill="#C8DBEC" fill-opacity="0.33"/>
<rect x="255.224" y="236.914" width="4.58677" height="9.92634" rx="0.795942" fill="#C8DBEC" fill-opacity="0.33"/>
<rect x="264.08" y="224.086" width="4.58677" height="22.7543" rx="0.795942" fill="#C8DBEC" fill-opacity="0.33"/>
<rect x="272.937" y="233.545" width="4.58677" height="13.2963" rx="0.795942" fill="#C8DBEC" fill-opacity="0.33"/>
<rect x="281.793" y="229.564" width="4.58677" height="17.276" rx="0.795942" fill="#C8DBEC" fill-opacity="0.33"/>
<g filter="url(#filter4_d_63_9936)">
<rect x="70.0955" y="200.555" width="154.053" height="65.3027" rx="8" fill="#FEFEFE"/>
</g>
<rect width="7.20864" height="7.20864" rx="3.60432" transform="matrix(1 0 0 -1 283.965 102.416)" fill="#C8DBEC"/>
<rect width="7.20864" height="7.20864" rx="3.60432" transform="matrix(1 0 0 -1 296.393 102.416)" fill="#C8DBEC"/>
<rect width="7.20864" height="7.20864" rx="3.60432" transform="matrix(1 0 0 -1 308.821 102.416)" fill="#C8DBEC"/>
<path d="M112.954 98.8227C112.983 99.0183 112.845 98.8782 112.845 98.8782C112.284 98.1618 112.943 96.9642 112.943 96.9642C113.028 96.8268 113.112 96.7025 113.2 96.5888C111.866 94.6537 109.636 93.3848 107.105 93.3848C103.211 93.3848 100.024 96.3958 99.7354 100.213C101.209 99.4994 102.814 101.265 102.814 101.265L103.447 101.892C105.349 103.79 105.896 103.774 106.171 103.338C106.171 103.338 106.552 102.785 105.917 101.665C105.147 100.311 105.991 99.3091 105.991 99.3091C108.232 96.2663 111.819 100.137 111.819 100.137C113.086 101.4 113.89 101.873 114.398 102.008C114.464 101.606 114.501 101.197 114.501 100.776C114.501 99.8854 114.342 99.0315 114.054 98.2411C113.073 97.9053 112.935 98.6984 112.954 98.8253V98.8227Z" fill="#76C4D5"/>
<path d="M109.547 102.412C108.055 100.924 107.179 100.501 106.671 100.498C106.616 100.503 106.192 100.551 106.274 100.982C106.349 101.357 107.7 103.123 106.14 104.688C103.952 106.531 101.603 103.736 101.603 103.736C100.876 103.06 99.9973 102.026 99.8862 102.367C100.616 105.682 103.571 108.165 107.105 108.165C109.824 108.165 112.2 106.697 113.485 104.511C111.599 104.625 109.547 102.412 109.547 102.412Z" fill="#007496"/>
<rect x="119.936" y="97.1426" width="48.1826" height="6.71094" rx="1" fill="#C8DBEC"/>
<g filter="url(#filter5_d_63_9936)">
<path d="M268.655 146.932C268.165 146.866 267.677 147.069 267.376 147.463L262.015 154.507L256.236 156.851C253.277 158.051 251.848 161.433 253.048 164.391C254.103 166.994 256.849 168.408 259.51 167.893L261.735 171.043C262.113 171.577 262.797 171.758 263.377 171.525C263.474 171.486 263.567 171.436 263.657 171.373C264.276 170.934 264.425 170.073 263.984 169.452L262.199 166.924L266.368 165.235L275.121 166.553C275.37 166.592 275.618 166.558 275.844 166.468C276.061 166.38 276.257 166.234 276.408 166.046C276.715 165.656 276.788 165.131 276.603 164.674L269.749 147.78C269.562 147.322 269.147 146.998 268.655 146.932L268.655 146.932ZM255.601 163.355C254.971 161.807 255.722 160.033 257.271 159.404L262.123 157.435L264.406 163.057L259.551 165.026C258.002 165.655 256.228 164.904 255.601 163.355L255.601 163.355ZM273.141 163.47L267.18 162.572L264.455 155.851L268.104 151.054L273.141 163.47Z" fill="#C8DBEC"/>
<path d="M278.739 151.625L275.668 152.87C274.965 153.157 274.625 153.959 274.91 154.665C275.196 155.37 275.999 155.709 276.705 155.423L279.775 154.177C280.482 153.891 280.82 153.089 280.535 152.384C280.247 151.678 279.446 151.338 278.739 151.625L278.739 151.625ZM274.458 149.796C274.631 149.725 274.793 149.617 274.932 149.473L276.7 147.626C277.226 147.077 277.208 146.205 276.657 145.679C276.11 145.153 275.237 145.174 274.712 145.72L272.942 147.569C272.418 148.117 272.435 148.988 272.986 149.515C273.389 149.901 273.971 149.994 274.458 149.796L274.458 149.796ZM281.098 158.467L278.543 158.373C277.783 158.345 277.143 158.939 277.116 159.699C277.089 160.46 277.684 161.099 278.442 161.127L280.998 161.22C281.198 161.228 281.389 161.192 281.565 161.121C282.053 160.924 282.404 160.453 282.424 159.894C282.452 159.132 281.859 158.494 281.098 158.467L281.098 158.467Z" fill="#C8DBEC"/>
</g>
<g filter="url(#filter6_d_63_9936)">
<g filter="url(#filter7_b_63_9936)">
<circle cx="12.9884" cy="12.9884" r="12.9884" transform="matrix(-1 0 0 1 300.544 194.314)" fill="white" fill-opacity="0.01"/>
</g>
<g filter="url(#filter8_d_63_9936)">
<circle cx="12.9884" cy="12.9884" r="11.4884" transform="matrix(-1 0 0 1 300.544 194.314)" stroke="white" stroke-width="3"/>
</g>
<g filter="url(#filter9_d_63_9936)">
<circle cx="10.4969" cy="10.4969" r="9.99695" transform="matrix(-1 0 0 1 298.052 196.807)" stroke="#ECF1F7"/>
</g>
</g>
<g filter="url(#filter10_d_63_9936)">
<rect width="3.85632" height="16.7107" rx="1.92816" transform="matrix(-0.707107 0.707107 0.707107 0.707107 297.005 213.02)" fill="white"/>
</g>
<rect x="84.031" y="140.334" width="30.8027" height="11.6119" rx="1" fill="#EBF1F8"/>
<rect x="84.031" y="154.213" width="30.8027" height="1.00882" rx="0.50441" fill="#EBF1F8"/>
<rect x="84.031" y="164.01" width="30.8027" height="11.6119" rx="1" fill="#EBF1F8"/>
<rect x="84.031" y="177.889" width="30.8027" height="1.00882" rx="0.50441" fill="#EBF1F8"/>
<rect x="130.548" y="140.334" width="30.8027" height="11.6119" rx="1" fill="#EBF1F8"/>
<rect x="130.548" y="154.213" width="30.8027" height="1.00882" rx="0.50441" fill="#EBF1F8"/>
<rect x="130.548" y="164.01" width="30.8027" height="11.6119" rx="1" fill="#EBF1F8"/>
<rect x="130.548" y="177.889" width="30.8027" height="1.00882" rx="0.50441" fill="#EBF1F8"/>
<rect x="177.064" y="140.334" width="30.8027" height="11.6119" rx="1" fill="#EBF1F8"/>
<rect x="177.064" y="154.213" width="30.8027" height="1.00882" rx="0.50441" fill="#EBF1F8"/>
<rect x="177.064" y="164.01" width="30.8027" height="11.6119" rx="1" fill="#EBF1F8"/>
<rect x="177.064" y="177.889" width="30.8027" height="1.00882" rx="0.50441" fill="#EBF1F8"/>
<circle cx="99.4326" cy="235.462" r="16.0224" fill="#C8DBEC"/>
<path d="M120.184 235.462C120.184 239.817 118.813 244.062 116.267 247.595C113.72 251.128 110.127 253.771 105.995 255.148L99.4325 235.462H120.184Z" fill="#EBF1F8"/>
<rect x="132.671" y="232.246" width="3.87453" height="14.5934" rx="0.795942" fill="#ECF2F8"/>
<rect x="140.153" y="238.455" width="3.87453" height="8.38498" rx="0.795942" fill="#ECF2F8"/>
<rect x="147.634" y="227.619" width="3.87453" height="19.221" rx="0.795942" fill="#ECF2F8"/>
<rect x="155.115" y="235.609" width="3.87453" height="11.2316" rx="0.795942" fill="#ECF2F8"/>
<rect x="162.596" y="232.246" width="3.87453" height="14.5934" rx="0.795942" fill="#ECF2F8"/>
<rect x="170.171" y="232.246" width="3.87453" height="14.5934" rx="0.795942" fill="#ECF2F8"/>
<rect x="177.653" y="238.455" width="3.87453" height="8.38498" rx="0.795942" fill="#ECF2F8"/>
<rect x="185.133" y="227.619" width="3.87453" height="19.221" rx="0.795942" fill="#ECF2F8"/>
<rect x="192.615" y="235.609" width="3.87453" height="11.2316" rx="0.795942" fill="#ECF2F8"/>
<rect x="200.096" y="232.246" width="3.87453" height="14.5934" rx="0.795942" fill="#ECF2F8"/>
<g filter="url(#filter11_d_63_9936)">
<rect x="177.064" y="164.01" width="50.8423" height="56.4668" rx="7" fill="#15293F"/>
<path d="M202.486 203.191H203.97V209.127H202.486V203.191Z" fill="#3196F5"/>
<path d="M195.066 208.209V209.127H196.55V208.559L199.235 203.191H197.575L195.066 208.209Z" fill="#3196F5"/>
<path d="M207.219 203.192L209.904 208.56V209.127H211.389V208.209L208.879 203.191L207.219 203.192Z" fill="#3196F5"/>
<path d="M216.582 182.42V180.935H203.969V179.451H202.484V180.935H188.389V182.42H189.873V200.226H188.389V201.71H199.976L202.486 201.708H216.582V200.224H215.097V182.42L216.582 182.42ZM197.292 198.741H195.807V195.774H197.292V198.741ZM200.26 198.741H198.776V194.29H200.26V198.741ZM203.227 198.741H201.743V192.806H203.227V198.741ZM206.194 198.741H204.71V193.548H206.194V198.741ZM209.163 198.741H207.679V190.58H209.163V198.741ZM209.163 185.387H208.792L204.34 191.323H203.002L200.776 189.838H200.606L196.896 194.29H195.809V192.806H196.204L199.914 188.354H201.228L203.454 189.838H203.599L208.05 183.903H209.163L209.163 185.387Z" fill="#3196F5"/>
</g>
<defs>
<filter id="filter0_d_63_9936" x="78.1099" y="86.1406" width="259.514" height="196.738" filterUnits="userSpaceOnUse" color-interpolation-filters="sRGB">
<feFlood flood-opacity="0" result="BackgroundImageFix"/>
<feColorMatrix in="SourceAlpha" type="matrix" values="0 0 0 0 0 0 0 0 0 0 0 0 0 0 0 0 0 0 127 0" result="hardAlpha"/>
<feOffset dy="31"/>
<feGaussianBlur stdDeviation="5"/>
<feComposite in2="hardAlpha" operator="out"/>
<feColorMatrix type="matrix" values="0 0 0 0 0.0875 0 0 0 0 0.47175 0 0 0 0 0.75 0 0 0 0.06 0"/>
<feBlend mode="normal" in2="BackgroundImageFix" result="effect1_dropShadow_63_9936"/>
<feBlend mode="normal" in="SourceGraphic" in2="effect1_dropShadow_63_9936" result="shape"/>
</filter>
<filter id="filter1_d_63_9936" x="49.0955" y="115.252" width="196.053" height="107.303" filterUnits="userSpaceOnUse" color-interpolation-filters="sRGB">
<feFlood flood-opacity="0" result="BackgroundImageFix"/>
<feColorMatrix in="SourceAlpha" type="matrix" values="0 0 0 0 0 0 0 0 0 0 0 0 0 0 0 0 0 0 127 0" result="hardAlpha"/>
<feOffset dy="10"/>
<feGaussianBlur stdDeviation="10.5"/>
<feComposite in2="hardAlpha" operator="out"/>
<feColorMatrix type="matrix" values="0 0 0 0 0.0875 0 0 0 0 0.47175 0 0 0 0 0.75 0 0 0 0.13 0"/>
<feBlend mode="normal" in2="BackgroundImageFix" result="effect1_dropShadow_63_9936"/>
<feBlend mode="normal" in="SourceGraphic" in2="effect1_dropShadow_63_9936" result="shape"/>
</filter>
<filter id="filter2_d_63_9936" x="212.118" y="115.252" width="108.511" height="107.303" filterUnits="userSpaceOnUse" color-interpolation-filters="sRGB">
<feFlood flood-opacity="0" result="BackgroundImageFix"/>
<feColorMatrix in="SourceAlpha" type="matrix" values="0 0 0 0 0 0 0 0 0 0 0 0 0 0 0 0 0 0 127 0" result="hardAlpha"/>
<feOffset dy="10"/>
<feGaussianBlur stdDeviation="10.5"/>
<feComposite in2="hardAlpha" operator="out"/>
<feColorMatrix type="matrix" values="0 0 0 0 0.0875 0 0 0 0 0.47175 0 0 0 0 0.75 0 0 0 0.13 0"/>
<feBlend mode="normal" in2="BackgroundImageFix" result="effect1_dropShadow_63_9936"/>
<feBlend mode="normal" in="SourceGraphic" in2="effect1_dropShadow_63_9936" result="shape"/>
</filter>
<filter id="filter3_d_63_9936" x="212.118" y="189.555" width="108.511" height="107.303" filterUnits="userSpaceOnUse" color-interpolation-filters="sRGB">
<feFlood flood-opacity="0" result="BackgroundImageFix"/>
<feColorMatrix in="SourceAlpha" type="matrix" values="0 0 0 0 0 0 0 0 0 0 0 0 0 0 0 0 0 0 127 0" result="hardAlpha"/>
<feOffset dy="10"/>
<feGaussianBlur stdDeviation="10.5"/>
<feComposite in2="hardAlpha" operator="out"/>
<feColorMatrix type="matrix" values="0 0 0 0 0.0875 0 0 0 0 0.47175 0 0 0 0 0.75 0 0 0 0.13 0"/>
<feBlend mode="normal" in2="BackgroundImageFix" result="effect1_dropShadow_63_9936"/>
<feBlend mode="normal" in="SourceGraphic" in2="effect1_dropShadow_63_9936" result="shape"/>
</filter>
<filter id="filter4_d_63_9936" x="49.0955" y="189.555" width="196.053" height="107.303" filterUnits="userSpaceOnUse" color-interpolation-filters="sRGB">
<feFlood flood-opacity="0" result="BackgroundImageFix"/>
<feColorMatrix in="SourceAlpha" type="matrix" values="0 0 0 0 0 0 0 0 0 0 0 0 0 0 0 0 0 0 127 0" result="hardAlpha"/>
<feOffset dy="10"/>
<feGaussianBlur stdDeviation="10.5"/>
<feComposite in2="hardAlpha" operator="out"/>
<feColorMatrix type="matrix" values="0 0 0 0 0.0875 0 0 0 0 0.47175 0 0 0 0 0.75 0 0 0 0.13 0"/>
<feBlend mode="normal" in2="BackgroundImageFix" result="effect1_dropShadow_63_9936"/>
<feBlend mode="normal" in="SourceGraphic" in2="effect1_dropShadow_63_9936" result="shape"/>
</filter>
<filter id="filter5_d_63_9936" x="249.098" y="145.297" width="46.8514" height="48.4926" filterUnits="userSpaceOnUse" color-interpolation-filters="sRGB">
<feFlood flood-opacity="0" result="BackgroundImageFix"/>
<feColorMatrix in="SourceAlpha" type="matrix" values="0 0 0 0 0 0 0 0 0 0 0 0 0 0 0 0 0 0 127 0" result="hardAlpha"/>
<feOffset dx="5" dy="13.6397"/>
<feGaussianBlur stdDeviation="4.2624"/>
<feComposite in2="hardAlpha" operator="out"/>
<feColorMatrix type="matrix" values="0 0 0 0 0.37625 0 0 0 0 0.381289 0 0 0 0 0.5375 0 0 0 0.18 0"/>
<feBlend mode="normal" in2="BackgroundImageFix" result="effect1_dropShadow_63_9936"/>
<feBlend mode="normal" in="SourceGraphic" in2="effect1_dropShadow_63_9936" result="shape"/>
</filter>
<filter id="filter6_d_63_9936" x="270.567" y="194.314" width="33.9768" height="38.9766" filterUnits="userSpaceOnUse" color-interpolation-filters="sRGB">
<feFlood flood-opacity="0" result="BackgroundImageFix"/>
<feColorMatrix in="SourceAlpha" type="matrix" values="0 0 0 0 0 0 0 0 0 0 0 0 0 0 0 0 0 0 127 0" result="hardAlpha"/>
<feOffset dy="9"/>
<feGaussianBlur stdDeviation="2"/>
<feComposite in2="hardAlpha" operator="out"/>
<feColorMatrix type="matrix" values="0 0 0 0 0.8 0 0 0 0 0.894118 0 0 0 0 0.960784 0 0 0 0.48 0"/>
<feBlend mode="normal" in2="BackgroundImageFix" result="effect1_dropShadow_63_9936"/>
<feBlend mode="normal" in="SourceGraphic" in2="effect1_dropShadow_63_9936" result="shape"/>
</filter>
<filter id="filter7_b_63_9936" x="272.567" y="192.314" width="29.9768" height="29.9766" filterUnits="userSpaceOnUse" color-interpolation-filters="sRGB">
<feFlood flood-opacity="0" result="BackgroundImageFix"/>
<feGaussianBlur in="BackgroundImageFix" stdDeviation="1"/>
<feComposite in2="SourceAlpha" operator="in" result="effect1_backgroundBlur_63_9936"/>
<feBlend mode="normal" in="SourceGraphic" in2="effect1_backgroundBlur_63_9936" result="shape"/>
</filter>
<filter id="filter8_d_63_9936" x="242.536" y="173.723" width="101.478" height="101.478" filterUnits="userSpaceOnUse" color-interpolation-filters="sRGB">
<feFlood flood-opacity="0" result="BackgroundImageFix"/>
<feColorMatrix in="SourceAlpha" type="matrix" values="0 0 0 0 0 0 0 0 0 0 0 0 0 0 0 0 0 0 127 0" result="hardAlpha"/>
<feOffset dx="5.71977" dy="17.1593"/>
<feGaussianBlur stdDeviation="18.8753"/>
<feColorMatrix type="matrix" values="0 0 0 0 0.237639 0 0 0 0 0.2478 0 0 0 0 0.491667 0 0 0 0.18 0"/>
<feBlend mode="normal" in2="BackgroundImageFix" result="effect1_dropShadow_63_9936"/>
<feBlend mode="normal" in="SourceGraphic" in2="effect1_dropShadow_63_9936" result="shape"/>
</filter>
<filter id="filter9_d_63_9936" x="245.028" y="176.215" width="96.4949" height="96.4952" filterUnits="userSpaceOnUse" color-interpolation-filters="sRGB">
<feFlood flood-opacity="0" result="BackgroundImageFix"/>
<feColorMatrix in="SourceAlpha" type="matrix" values="0 0 0 0 0 0 0 0 0 0 0 0 0 0 0 0 0 0 127 0" result="hardAlpha"/>
<feOffset dx="5.71977" dy="17.1593"/>
<feGaussianBlur stdDeviation="18.8753"/>
<feColorMatrix type="matrix" values="0 0 0 0 0.237639 0 0 0 0 0.2478 0 0 0 0 0.491667 0 0 0 0.18 0"/>
<feBlend mode="normal" in2="BackgroundImageFix" result="effect1_dropShadow_63_9936"/>
<feBlend mode="normal" in="SourceGraphic" in2="effect1_dropShadow_63_9936" result="shape"/>
</filter>
<filter id="filter10_d_63_9936" x="291.077" y="213.818" width="20.9458" height="25.9453" filterUnits="userSpaceOnUse" color-interpolation-filters="sRGB">
<feFlood flood-opacity="0" result="BackgroundImageFix"/>
<feColorMatrix in="SourceAlpha" type="matrix" values="0 0 0 0 0 0 0 0 0 0 0 0 0 0 0 0 0 0 127 0" result="hardAlpha"/>
<feOffset dy="9"/>
<feGaussianBlur stdDeviation="2"/>
<feComposite in2="hardAlpha" operator="out"/>
<feColorMatrix type="matrix" values="0 0 0 0 0.8 0 0 0 0 0.894118 0 0 0 0 0.960784 0 0 0 0.48 0"/>
<feBlend mode="normal" in2="BackgroundImageFix" result="effect1_dropShadow_63_9936"/>
<feBlend mode="normal" in="SourceGraphic" in2="effect1_dropShadow_63_9936" result="shape"/>
</filter>
<filter id="filter11_d_63_9936" x="164.064" y="162.01" width="76.8423" height="82.4668" filterUnits="userSpaceOnUse" color-interpolation-filters="sRGB">
<feFlood flood-opacity="0" result="BackgroundImageFix"/>
<feColorMatrix in="SourceAlpha" type="matrix" values="0 0 0 0 0 0 0 0 0 0 0 0 0 0 0 0 0 0 127 0" result="hardAlpha"/>
<feOffset dy="11"/>
<feGaussianBlur stdDeviation="6.5"/>
<feComposite in2="hardAlpha" operator="out"/>
<feColorMatrix type="matrix" values="0 0 0 0 0.112604 0 0 0 0 0.214331 0 0 0 0 0.575 0 0 0 0.37 0"/>
<feBlend mode="normal" in2="BackgroundImageFix" result="effect1_dropShadow_63_9936"/>
<feBlend mode="normal" in="SourceGraphic" in2="effect1_dropShadow_63_9936" result="shape"/>
</filter>
</defs>
</svg>
