<svg width="14" height="14" viewBox="0 0 14 14" fill="none" xmlns="http://www.w3.org/2000/svg">
<path d="M1.54583 7.98047H6.14125V12.5759C6.14125 13.043 6.52546 13.4347 7.00007 13.4347C7.47468 13.4347 7.85889 13.043 7.85889 12.5759V7.98047H12.4543C12.9214 7.98047 13.3131 7.59626 13.3131 7.12165C13.3131 6.64704 12.9214 6.26284 12.4543 6.26284H7.85889V1.66741C7.85889 1.20033 7.47468 0.808594 7.00007 0.808594C6.52546 0.808594 6.14125 1.20033 6.14125 1.66741V6.26284H1.54583C1.07875 6.26284 0.687012 6.64704 0.687012 7.12165C0.687012 7.59626 1.07875 7.98047 1.54583 7.98047Z" fill="white"/>
</svg>
