<svg width="65" height="59" viewBox="0 0 65 59" fill="none" xmlns="http://www.w3.org/2000/svg">
<g filter="url(#filter0_d_49_352)">
<rect x="4.44238" y="1.40234" width="28.3896" height="21.8291" rx="2.375" fill="white" stroke="#15293F" stroke-width="1.25"/>
<path d="M27.358 5.92493C27.3489 5.64894 27.1178 5.43258 26.8418 5.44168L22.3442 5.58995C22.0682 5.59905 21.8519 5.83016 21.861 6.10615C21.8701 6.38214 22.1012 6.5985 22.3772 6.58941L26.375 6.45761L26.5068 10.4554C26.5159 10.7314 26.747 10.9478 27.023 10.9387C27.299 10.9296 27.5154 10.6985 27.5063 10.4225L27.358 5.92493ZM20.012 13.2544L19.647 12.9127L20.012 13.2544ZM10.8044 15.6272L15.3575 10.0461L14.5827 9.41396L10.0296 14.9951L10.8044 15.6272ZM16.1807 10.117L17.9746 13.3064L18.8462 12.8161L17.0523 9.62679L16.1807 10.117ZM20.3771 13.5961L27.2233 6.28312L26.4932 5.59969L19.647 12.9127L20.3771 13.5961ZM17.9746 13.3064C18.4717 14.1901 19.6841 14.3363 20.3771 13.5961L19.647 12.9127C19.4161 13.1594 19.0119 13.1107 18.8462 12.8161L17.9746 13.3064ZM15.3575 10.0461C15.5803 9.77306 16.008 9.80992 16.1807 10.117L17.0523 9.62679C16.5341 8.70543 15.2509 8.59485 14.5827 9.41396L15.3575 10.0461Z" fill="#FF6332"/>
<rect x="9.46191" y="18.3477" width="18.3506" height="1.57129" rx="0.5" fill="#DCDFE4"/>
<rect x="32.8223" y="31.4902" width="28.0712" height="18.7408" rx="2.375" fill="#FCFCFD" stroke="#15293F" stroke-width="1.25"/>
<rect x="36.7783" y="42.2344" width="2.40527" height="3.57695" rx="0.5" fill="#DCDFE4"/>
<rect x="41.2168" y="39.2109" width="2.40527" height="6.59941" rx="0.5" fill="#3196F5"/>
<rect x="45.6553" y="42.2344" width="2.40527" height="3.57695" rx="0.5" fill="#DCDFE4"/>
<rect x="50.0938" y="35.2461" width="2.40527" height="10.5652" rx="0.5" fill="#3196F5"/>
<rect x="54.5322" y="37.7969" width="2.40527" height="8.01542" rx="0.5" fill="#DCDFE4"/>
<path d="M47.7954 29.522C47.9418 29.6684 48.1793 29.6684 48.3257 29.522L50.7122 27.1355C50.8586 26.9891 50.8586 26.7516 50.7122 26.6052C50.5658 26.4587 50.3283 26.4587 50.1819 26.6052L48.0605 28.7265L45.9392 26.6052C45.7928 26.4587 45.5553 26.4587 45.4089 26.6052C45.2625 26.7516 45.2625 26.9891 45.4089 27.1355L47.7954 29.522ZM33.4443 12.6914H45.0605V11.9414H33.4443V12.6914ZM47.6855 15.3164V29.2568H48.4355V15.3164H47.6855ZM45.0605 12.6914C46.5103 12.6914 47.6855 13.8667 47.6855 15.3164H48.4355C48.4355 13.4524 46.9245 11.9414 45.0605 11.9414V12.6914Z" fill="#3196F5"/>
<path d="M18.5283 22.9531V33.0332" stroke="#15293F" stroke-width="0.75"/>
<path d="M24.0723 38.377H32.3389" stroke="#15293F" stroke-width="0.75"/>
<path d="M18.5288 43.5771C21.4011 43.5771 23.7295 41.2487 23.7295 38.3765C23.7295 35.5042 21.4011 33.1758 18.5288 33.1758C15.6566 33.1758 13.3281 35.5042 13.3281 38.3765C13.3281 41.2487 15.6566 43.5771 18.5288 43.5771Z" stroke="#15293F" stroke-width="1.11483"/>
<path d="M15.9277 38.3781L17.6613 40.1117L21.1284 36.6445" stroke="#15293F" stroke-width="1.11483"/>
</g>
<defs>
<filter id="filter0_d_49_352" x="0.817383" y="0.777344" width="63.701" height="58.0781" filterUnits="userSpaceOnUse" color-interpolation-filters="sRGB">
<feFlood flood-opacity="0" result="BackgroundImageFix"/>
<feColorMatrix in="SourceAlpha" type="matrix" values="0 0 0 0 0 0 0 0 0 0 0 0 0 0 0 0 0 0 127 0" result="hardAlpha"/>
<feOffset dy="5"/>
<feGaussianBlur stdDeviation="1.5"/>
<feComposite in2="hardAlpha" operator="out"/>
<feColorMatrix type="matrix" values="0 0 0 0 0.47625 0 0 0 0 0.46875 0 0 0 0 0.5625 0 0 0 0.25 0"/>
<feBlend mode="normal" in2="BackgroundImageFix" result="effect1_dropShadow_49_352"/>
<feBlend mode="normal" in="SourceGraphic" in2="effect1_dropShadow_49_352" result="shape"/>
</filter>
</defs>
</svg>
