<svg width="28" height="28" viewBox="0 0 28 28" fill="none" xmlns="http://www.w3.org/2000/svg">
<path d="M25.8077 14.3499H21.102C21.4258 14.1302 21.6339 13.7602 21.6339 13.3555V8.68455L22.8479 8.21051V11.4363C22.8479 12.1069 23.3913 12.6503 24.0734 12.6503C24.7556 12.6503 25.2874 12.1069 25.2874 11.4363V7.26244L25.7268 7.08901C26.2008 6.91558 26.5014 6.45311 26.5014 5.95595C26.5014 5.45879 26.2008 5.00788 25.7268 4.82289L14.7661 0.556558C14.4886 0.452501 14.1649 0.452501 13.8874 0.556558L2.92677 4.82289C2.45273 5.00788 2.14056 5.45879 2.14056 5.95595C2.14056 6.45311 2.45273 6.91558 2.92677 7.08901L7.01967 8.68455V13.3555C7.01967 13.7602 7.21622 14.1302 7.55151 14.3499H2.83427C1.81683 14.3499 0.984375 15.1823 0.984375 16.1998V20.7436C0.984375 21.761 1.81683 22.5819 2.83427 22.5819H9.11237C9.12393 25.4493 11.471 27.7848 14.3383 27.7848C17.2057 27.7848 19.5527 25.4493 19.5643 22.5819H25.8077C26.8367 22.5819 27.6576 21.761 27.6576 20.7436V16.1998C27.6576 15.1823 26.8367 14.3499 25.8077 14.3499ZM9.44766 12.6503V9.63262L13.8874 11.3553C14.1649 11.4594 14.4886 11.4594 14.7661 11.3553L19.1943 9.63262V12.6503C18.3272 13.0896 16.5004 13.8758 14.3268 13.8758C12.1531 13.8758 10.3264 13.0896 9.44766 12.6503ZM6.71906 5.95595L14.3268 2.99611L21.9229 5.95595L14.3268 8.91579L6.71906 5.95595ZM14.3383 25.4724C12.7428 25.4724 11.4363 24.1775 11.4247 22.5819V22.5588C11.4247 21.6338 11.8641 20.8014 12.5462 20.2695C13.0434 19.8764 13.6562 19.6452 14.3383 19.6452C15.0205 19.6452 15.6333 19.8764 16.1304 20.2695C16.8126 20.8014 17.2519 21.6338 17.2519 22.5588V22.5819C17.2404 24.1775 15.9339 25.4724 14.3383 25.4724ZM25.3452 20.2695H19.044C18.1884 18.5237 16.4079 17.3328 14.3383 17.3328C12.2688 17.3328 10.4882 18.5237 9.64422 20.2695H3.29674V16.6622H25.3452V20.2695Z" fill="white" fill-opacity="0.95"/>
<path d="M15.8762 21.9565L15.1131 21.8524C15.0322 21.8293 14.9513 21.7831 14.9166 21.7021L14.5813 21.0084C14.4772 20.8234 14.1998 20.8234 14.1073 21.02L13.7604 21.7021C13.7257 21.7831 13.6563 21.8409 13.5638 21.8524L12.8008 21.9565C12.5926 21.9912 12.5002 22.2571 12.662 22.4074L12.8354 22.5808L13.2054 22.9508C13.2748 23.0086 13.2979 23.0896 13.2864 23.1821L13.1592 23.9336C13.1245 24.1533 13.3442 24.3151 13.5407 24.2111L14.2229 23.8526C14.2922 23.818 14.3847 23.818 14.4657 23.8526L15.1478 24.2111C15.3444 24.3151 15.564 24.1533 15.5294 23.9336L15.4022 23.1705C15.3791 23.0896 15.4137 23.0086 15.4716 22.9393L15.8415 22.5808L16.0265 22.4074C16.1768 22.2571 16.0959 21.9912 15.8762 21.9565Z" fill="white" fill-opacity="0.95"/>
</svg>
