<svg xmlns="http://www.w3.org/2000/svg" width="17.363" height="14.192" viewBox="0 0 17.363 14.192">
  <g id="Group_50" data-name="Group 50" transform="translate(1178.005 -2118.301)">
    <path id="Path_147" data-name="Path 147" d="M-1175.641,2123.015v.21q0,2.986,0,5.974a.268.268,0,0,0,.167.282,1.129,1.129,0,0,1,.628,1.036c.012.511.007,1.023,0,1.535a.4.4,0,0,1-.456.438q-.73,0-1.461,0a.394.394,0,0,1-.448-.441q-.005-.758,0-1.517a1.138,1.138,0,0,1,.676-1.079.183.183,0,0,0,.11-.2q0-3.2,0-6.4a.178.178,0,0,0-.137-.2c-.37-.133-.738-.276-1.106-.416-.23-.087-.348-.225-.338-.409a.437.437,0,0,1,.336-.394q4.055-1.54,8.108-3.087a.628.628,0,0,1,.48,0q4.044,1.545,8.09,3.081c.194.074.338.181.347.4.007.185-.107.317-.343.407q-4.045,1.541-8.09,3.083a.647.647,0,0,1-.5,0q-2.93-1.122-5.865-2.234C-1175.5,2123.066-1175.552,2123.046-1175.641,2123.015Z" transform="translate(0)" fill="#7e9ab8"/>
    <path id="Path_148" data-name="Path 148" d="M-1113.938,2237.058l1.33.5c1.225.466,2.451.929,3.674,1.4a1.381,1.381,0,0,0,1.041,0q2.37-.91,4.744-1.809l.254-.093v.211q0,2.035,0,4.069c0,.335-.058.419-.367.536q-2.441.93-4.882,1.861a.7.7,0,0,1-.534,0q-2.447-.94-4.9-1.868c-.3-.114-.36-.2-.36-.521q0-2.044,0-4.088Z" transform="translate(-60.907 -112.9)" fill="#7e9ab8"/>
  </g>
</svg>
