<svg width="55" height="55" viewBox="0 0 55 55" fill="none" xmlns="http://www.w3.org/2000/svg">
<rect x="0.0869141" y="0.998047" width="54" height="54" rx="6" fill="#3196F5" fill-opacity="0.11"/>
<path d="M38.5736 28.2151H33.8679C34.1916 27.9954 34.3997 27.6254 34.3997 27.2208V22.5498L35.6137 22.0757V25.3015C35.6137 25.9721 36.1571 26.5155 36.8393 26.5155C37.5214 26.5155 38.0533 25.9721 38.0533 25.3015V21.1277L38.4926 20.9542C38.9667 20.7808 39.2673 20.3183 39.2673 19.8212C39.2673 19.324 38.9667 18.8731 38.4926 18.6881L27.532 14.4218C27.2545 14.3177 26.9308 14.3177 26.6533 14.4218L15.6926 18.6881C15.2186 18.8731 14.9064 19.324 14.9064 19.8212C14.9064 20.3183 15.2186 20.7808 15.6926 20.9542L19.7855 22.5498V27.2208C19.7855 27.6254 19.9821 27.9954 20.3174 28.2151H15.6001C14.5827 28.2151 13.7502 29.0476 13.7502 30.065V34.6088C13.7502 35.6263 14.5827 36.4471 15.6001 36.4471H21.8782C21.8898 39.3145 24.2369 41.65 27.1042 41.65C29.9715 41.65 32.3186 39.3145 32.3302 36.4471H38.5736C39.6026 36.4471 40.4235 35.6263 40.4235 34.6088V30.065C40.4235 29.0476 39.6026 28.2151 38.5736 28.2151ZM22.2135 26.5155V23.4979L26.6533 25.2206C26.9308 25.3246 27.2545 25.3246 27.532 25.2206L31.9602 23.4979V26.5155C31.093 26.9549 29.2663 27.7411 27.0926 27.7411C24.919 27.7411 23.0922 26.9549 22.2135 26.5155ZM19.4849 19.8212L27.0926 16.8613L34.6888 19.8212L27.0926 22.781L19.4849 19.8212ZM27.1042 39.3376C25.5087 39.3376 24.2022 38.0427 24.1906 36.4471V36.424C24.1906 35.4991 24.63 34.6666 25.3121 34.1348C25.8093 33.7417 26.422 33.5104 27.1042 33.5104C27.7863 33.5104 28.3991 33.7417 28.8963 34.1348C29.5784 34.6666 30.0178 35.4991 30.0178 36.424V36.4471C30.0062 38.0427 28.6997 39.3376 27.1042 39.3376ZM38.1111 34.1348H31.8099C30.9543 32.3889 29.1738 31.1981 27.1042 31.1981C25.0346 31.1981 23.2541 32.3889 22.4101 34.1348H16.0626V30.5275H38.1111V34.1348Z" fill="#3196F5"/>
<path d="M28.6421 35.8217L27.879 35.7177C27.7981 35.6946 27.7171 35.6483 27.6825 35.5674L27.3472 34.8737C27.2431 34.6887 26.9656 34.6887 26.8731 34.8852L26.5263 35.5674C26.4916 35.6483 26.4222 35.7061 26.3297 35.7177L25.5666 35.8217C25.3585 35.8564 25.266 36.1223 25.4279 36.2726L25.6013 36.4461L25.9713 36.8161C26.0407 36.8739 26.0638 36.9548 26.0522 37.0473L25.9251 37.7988C25.8904 38.0185 26.11 38.1804 26.3066 38.0763L26.9887 37.7179C27.0581 37.6832 27.1506 37.6832 27.2315 37.7179L27.9137 38.0763C28.1102 38.1804 28.3299 38.0185 28.2952 37.7988L28.1681 37.0357C28.1449 36.9548 28.1796 36.8739 28.2374 36.8045L28.6074 36.4461L28.7924 36.2726C28.9427 36.1223 28.8618 35.8564 28.6421 35.8217Z" fill="#3196F5"/>
</svg>
