<svg width="20" height="20" viewBox="0 0 20 20" fill="none" xmlns="http://www.w3.org/2000/svg">
<path d="M19.0903 17.566L15.7328 14.231C18.3543 10.8725 18.0786 6.08946 15.0653 3.076C13.4786 1.48937 11.3618 0.615234 9.10872 0.615234C6.85453 0.615234 4.73872 1.48942 3.15218 3.076C1.56554 4.66264 0.691406 6.77946 0.691406 9.03254C0.691406 11.2867 1.56559 13.4025 3.15218 14.9891C4.73881 16.5757 6.85564 17.4499 9.10872 17.4499C10.9721 17.4499 12.8122 16.829 14.2837 15.6557L17.6187 19.0374C17.8254 19.244 18.0787 19.3365 18.3545 19.3365C18.6303 19.3365 18.8837 19.2215 19.0903 19.0374C19.5045 18.6465 19.5045 17.9799 19.0903 17.5657L19.0903 17.566ZM15.457 9.03254C15.457 10.7342 14.7904 12.3218 13.5936 13.5175C12.3978 14.7134 10.7879 15.3809 9.10865 15.3809C7.42942 15.3809 5.81942 14.7143 4.62365 13.5175C3.42783 12.3217 2.76028 10.7118 2.76028 9.03254C2.76028 7.33091 3.42691 5.74331 4.62365 4.54754C5.81946 3.35173 7.42942 2.68418 9.10865 2.68418C10.8103 2.68418 12.3979 3.35081 13.5936 4.54754C14.7895 5.74426 15.457 7.331 15.457 9.03254Z" fill="#3196F5"/>
</svg>
