<svg width="59" height="61" viewBox="0 0 59 61" fill="none" xmlns="http://www.w3.org/2000/svg">
<g filter="url(#filter0_d_49_253)">
<rect x="4.2627" y="1.10938" width="32.9229" height="40.8135" rx="2.375" fill="#FCFCFD" stroke="#15293F" stroke-width="1.25"/>
<path d="M49.0239 24.8853C49.1703 25.0317 49.4078 25.0317 49.5542 24.8853L51.9407 22.4988C52.0872 22.3524 52.0872 22.1149 51.9407 21.9685C51.7943 21.822 51.5568 21.822 51.4104 21.9685L49.2891 24.0898L47.1677 21.9685C47.0213 21.822 46.7839 21.822 46.6374 21.9685C46.491 22.1149 46.491 22.3524 46.6374 22.4988L49.0239 24.8853ZM37.8105 8.05469H46.2891V7.30469H37.8105V8.05469ZM48.9141 10.6797V24.6201H49.6641V10.6797H48.9141ZM46.2891 8.05469C47.7388 8.05469 48.9141 9.22994 48.9141 10.6797H49.6641C49.6641 8.81573 48.153 7.30469 46.2891 7.30469V8.05469Z" fill="#3196F5"/>
<circle cx="27.6444" cy="4.52525" r="0.960796" fill="#DCDFE4"/>
<circle cx="30.6006" cy="4.52525" r="0.960796" fill="#DCDFE4"/>
<circle cx="33.5569" cy="4.52525" r="0.960796" fill="#DCDFE4"/>
<rect x="9.71484" y="19.8848" width="5.96543" height="9.46757" rx="0.5" fill="#DCDFE4"/>
<rect x="17.7422" y="19.8848" width="5.96543" height="9.46757" rx="0.5" fill="#DCDFE4"/>
<rect x="25.7686" y="19.8848" width="5.96543" height="9.46757" rx="0.5" fill="#DCDFE4"/>
<rect x="9.71484" y="31.6543" width="16.9688" height="1.57129" rx="0.5" fill="#DCDFE4"/>
<rect x="9.71484" y="35.2148" width="13.0928" height="1.57129" rx="0.5" fill="#DCDFE4"/>
<rect x="9.71484" y="8.36328" width="22.0195" height="9.53125" rx="0.5" fill="#DCDFE4"/>
<rect x="43.9287" y="31.418" width="10.7206" height="9.08093" rx="1.375" stroke="#15293F" stroke-width="1.25"/>
<path d="M45.6787 30.7925V29.8207C45.6787 27.8271 47.2949 26.2109 49.2885 26.2109V26.2109C51.2821 26.2109 52.8982 27.8271 52.8982 29.8207V30.7925" stroke="#15293F" stroke-width="1.25"/>
<path d="M50.433 37.889C50.4092 37.9187 50.3737 37.9362 50.3357 37.9369H48.2454C48.2067 37.9369 48.17 37.9194 48.1458 37.889C48.1225 37.8588 48.1145 37.8196 48.1241 37.7827L48.6143 35.9629C48.339 35.7595 48.1765 35.4379 48.1758 35.0959C48.1758 34.6973 48.3884 34.3293 48.7335 34.1299C49.0787 33.9307 49.5038 33.9307 49.8488 34.1299C50.1939 34.3293 50.4065 34.6973 50.4065 35.0959C50.4056 35.4381 50.2426 35.7597 49.9668 35.9629L50.4538 37.7827C50.4637 37.8196 50.456 37.8588 50.433 37.889Z" fill="#15293F"/>
<path d="M33.7075 38.5786C34.0582 38.2279 34.0582 37.6592 33.7075 37.3085L29.4934 33.0944C29.6905 32.5908 29.6978 32.0327 29.5147 31.5237C29.3315 31.0147 28.9699 30.5894 28.4971 30.3269C28.0242 30.0638 27.4721 29.9815 26.9432 30.095C26.8221 30.1205 26.7976 30.2234 26.8852 30.311L28.2064 31.6322C28.7512 32.177 27.3055 33.6227 26.7607 33.0779L25.4398 31.7563C25.3523 31.6687 25.2494 31.6933 25.2238 31.8144C25.1104 32.3433 25.1927 32.8954 25.4558 33.3682C25.7182 33.841 26.1436 34.2027 26.6526 34.3858C27.1615 34.5689 27.7196 34.5616 28.2233 34.3646L32.4374 38.5786C32.7881 38.9294 33.3568 38.9293 33.7075 38.5786Z" fill="#3196F5"/>
<path d="M20.5625 44.1898V49.0707C20.5625 50.7275 21.9056 52.0707 23.5625 52.0707H46.2891C47.9459 52.0707 49.2891 50.7275 49.2891 49.0707V40.7168" stroke="#15293F" stroke-width="0.75"/>
<circle cx="20.5625" cy="45.5977" r="1.51172" fill="#15293F"/>
</g>
<path d="M20.5648 12.9722C21.2669 12.9722 21.8361 12.4031 21.8361 11.701C21.8361 10.9989 21.2669 10.4297 20.5648 10.4297C19.8627 10.4297 19.2936 10.9989 19.2936 11.701C19.2936 12.4031 19.8627 12.9722 20.5648 12.9722Z" stroke="#FF6332" stroke-width="0.75"/>
<path d="M23.108 16.1505C23.108 14.9218 22.0408 13.9258 20.7243 13.9258C19.4079 13.9258 18.3407 14.9218 18.3407 16.1505" stroke="#FF6332" stroke-width="0.75"/>
<defs>
<filter id="filter0_d_49_253" x="0.637695" y="0.484375" width="57.6366" height="59.9609" filterUnits="userSpaceOnUse" color-interpolation-filters="sRGB">
<feFlood flood-opacity="0" result="BackgroundImageFix"/>
<feColorMatrix in="SourceAlpha" type="matrix" values="0 0 0 0 0 0 0 0 0 0 0 0 0 0 0 0 0 0 127 0" result="hardAlpha"/>
<feOffset dy="5"/>
<feGaussianBlur stdDeviation="1.5"/>
<feComposite in2="hardAlpha" operator="out"/>
<feColorMatrix type="matrix" values="0 0 0 0 0.47625 0 0 0 0 0.46875 0 0 0 0 0.5625 0 0 0 0.25 0"/>
<feBlend mode="normal" in2="BackgroundImageFix" result="effect1_dropShadow_49_253"/>
<feBlend mode="normal" in="SourceGraphic" in2="effect1_dropShadow_49_253" result="shape"/>
</filter>
</defs>
</svg>
