<svg width="26" height="21" viewBox="0 0 26 21" fill="none" xmlns="http://www.w3.org/2000/svg">
<path d="M25.9999 2.77654C25.0451 3.17954 24.0322 3.44407 22.9951 3.56133C24.0754 2.94451 24.9048 1.96775 25.2954 0.803947C24.2685 1.3845 23.145 1.79354 21.9734 2.01339C21.019 1.04479 19.6594 0.439453 18.1547 0.439453C15.2654 0.439453 12.9229 2.67102 12.9229 5.42337C12.9229 5.81406 12.9692 6.1944 13.0584 6.55927C8.71046 6.35135 4.85561 4.36718 2.27525 1.35178C1.82502 2.08788 1.56703 2.94413 1.56703 3.8574C1.56703 5.58659 2.4907 7.11204 3.89439 8.00586C3.0636 7.98107 2.25109 7.7673 1.5247 7.3824C1.5244 7.40327 1.5244 7.42415 1.5244 7.44512C1.5244 9.85993 3.32771 11.8744 5.72091 12.3322C4.95052 12.5318 4.14244 12.5611 3.35839 12.4177C4.02408 14.3977 5.95619 15.8386 8.24539 15.879C6.45493 17.2157 4.19909 18.0125 1.74812 18.0125C1.32578 18.0125 0.909414 17.9889 0.500122 17.9429C2.81533 19.357 5.56522 20.1821 8.51962 20.1821C18.1425 20.1821 23.4045 12.5875 23.4045 6.00138C23.4045 5.78521 23.3996 5.57027 23.3894 5.35656C24.4136 4.65119 25.2976 3.77751 25.9999 2.77654Z" fill="#3196F5"/>
</svg>
