<svg width="55" height="55" viewBox="0 0 55 55" fill="none" xmlns="http://www.w3.org/2000/svg">
<rect x="0.948242" y="0.757812" width="54.0006" height="54.0006" rx="6" fill="#3196F5" fill-opacity="0.11"/>
<path fill-rule="evenodd" clip-rule="evenodd" d="M37.4596 32.9843V32.1733C37.4572 30.9556 36.4716 29.9688 35.2551 29.9652H28.5818V28.4066C30.8473 28.1542 32.8235 26.7548 33.8126 24.7021C34.803 22.6495 34.669 20.232 33.4573 18.3028C32.2444 16.3722 30.126 15.2012 27.8474 15.2012C25.5689 15.2012 23.4505 16.3722 22.2376 18.3028C21.0259 20.2322 20.892 22.6495 21.8823 24.7021C22.8716 26.7546 24.8476 28.154 27.1131 28.4066V29.9652H20.4398C19.2221 29.9676 18.2341 30.9544 18.2329 32.1733V32.9843C16.3836 33.3622 15.1218 35.0775 15.3119 36.9543C15.5009 38.8311 17.081 40.2593 18.9675 40.2593C20.854 40.2593 22.4338 38.8311 22.623 36.9543C22.8132 35.0776 21.5513 33.3624 19.702 32.9843V32.1733C19.7044 31.7678 20.0322 31.44 20.4377 31.4389H27.1134V32.9699C25.2642 33.3467 24.0023 35.062 24.1924 36.9388C24.3814 38.8155 25.9615 40.2437 27.848 40.2437C29.7345 40.2437 31.3143 38.8155 31.5036 36.9388C31.6938 35.062 30.4318 33.3469 28.5826 32.9699V31.4353H35.2559C35.6614 31.4353 35.9903 31.7642 35.9903 32.1697V32.9819C34.1423 33.3587 32.8792 35.0739 33.0693 36.9507C33.2595 38.8286 34.8384 40.2569 36.7249 40.2569C38.6112 40.2569 40.1912 38.8287 40.3814 36.9507C40.5704 35.0739 39.3084 33.3588 37.4604 32.9819L37.4596 32.9843ZM21.1752 36.5884C21.174 37.8156 20.1932 38.818 18.9671 38.8455C17.7411 38.8156 16.7626 37.8156 16.759 36.5884C16.7375 35.9891 16.96 35.4066 17.375 34.9748C17.7913 34.543 18.3655 34.299 18.9659 34.299C19.5652 34.299 20.1393 34.543 20.5556 34.9748C20.9719 35.4066 21.1943 35.9891 21.1716 36.5884H21.1752ZM23.8665 25.0852C22.9503 23.9739 22.5448 22.529 22.7517 21.1044C22.9933 19.364 24.1058 17.8665 25.7026 17.1331C27.2983 16.3987 29.1595 16.529 30.6366 17.4788C32.1151 18.4285 33.0074 20.066 33.0038 21.8233C33.005 23.0147 32.5887 24.169 31.828 25.0851C31.4369 24.2514 30.7945 23.5612 29.9907 23.1127C30.8005 22.2598 31.0242 21.0063 30.5601 19.925C30.096 18.8449 29.0326 18.1439 27.8568 18.1439C26.6798 18.1439 25.6164 18.8449 25.1523 19.925C24.6882 21.0063 24.9119 22.2599 25.7217 23.1127C24.9119 23.5588 24.2636 24.249 23.8665 25.0852ZM29.3257 21.1044C29.3257 21.6989 28.968 22.2347 28.419 22.462C27.87 22.6893 27.2372 22.5637 26.8174 22.1426C26.3963 21.7228 26.2707 21.09 26.498 20.541C26.7265 19.9919 27.2623 19.6343 27.8568 19.6343C28.6678 19.6355 29.3245 20.2922 29.3257 21.1044ZM30.0637 36.604C30.0637 37.8241 29.0757 38.8121 27.8568 38.8121C26.6368 38.8121 25.6488 37.8241 25.6488 36.604C25.6488 35.3851 26.6368 34.3972 27.8568 34.3972C29.0757 34.3972 30.0637 35.3852 30.0637 36.604ZM27.8473 26.9776C26.8461 26.9812 25.8652 26.6905 25.0268 26.1414C25.3964 24.8915 26.5447 24.0338 27.8485 24.0338C29.1523 24.0338 30.3006 24.8915 30.6702 26.1414C29.8317 26.6905 28.8497 26.9811 27.8473 26.9776ZM36.7275 38.8458C35.5014 38.8159 34.523 37.8159 34.5194 36.5887C34.5194 35.3698 35.5086 34.3818 36.7275 34.3818C37.9463 34.3818 38.9355 35.3698 38.9355 36.5887C38.9319 37.8159 37.9535 38.8159 36.7275 38.8458Z" fill="#3196F5"/>
</svg>
