<svg width="18" height="19" viewBox="0 0 18 19" fill="none" xmlns="http://www.w3.org/2000/svg">
<path d="M17.1887 8.51831L2.57917 0.562847C2.29526 0.408194 1.96272 0.353001 1.6398 0.406755C1.31702 0.460509 1.02455 0.619909 0.813957 0.856759C0.603345 1.09377 0.488129 1.39316 0.488281 1.70231V17.6136C0.488129 17.9228 0.603341 18.2221 0.813957 18.4591C1.02457 18.696 1.31704 18.8554 1.6398 18.9091C1.96273 18.9629 2.29527 18.9077 2.57917 18.7531L17.1887 10.7976C17.473 10.6432 17.6906 10.3992 17.8031 10.1084C17.9154 9.81752 17.9154 9.49873 17.8031 9.20779C17.6907 8.91703 17.473 8.67298 17.1887 8.51862V8.51831Z" fill="white"/>
</svg>
