<svg width="744" height="279" viewBox="0 0 744 279" fill="none" xmlns="http://www.w3.org/2000/svg">
<g clip-path="url(#clip0_705_5753)">
<rect width="744" height="279" fill="#F6F7FC"/>
<g clip-path="url(#clip1_705_5753)">
<path d="M574.751 166.043C577.72 166.773 635.633 166.369 635.633 166.369C635.633 166.369 659.682 166.69 693.505 166.69C727.327 166.69 741.608 165.883 741.608 165.883C741.608 165.883 811.51 166.369 815.269 166.043C819.028 165.722 795.026 164.101 782.2 165.075C773.935 162.165 735.599 159.095 713.801 162.486C698.766 160.711 695.209 163.84 695.209 163.84C695.209 163.84 674.717 159.25 634.885 162.45C574.311 160.996 569.49 164.748 574.751 166.043Z" fill="white" fill-opacity="0.61"/>
<path d="M972.989 177.888C969.675 183.232 820.091 181.213 770.955 179.996C738.919 181.368 711.456 180.673 708.843 179.105C706.231 177.538 740.879 177.538 740.879 177.538C740.879 177.538 770.325 171.546 801.684 175.43C816.594 173.185 885.136 172.401 898.212 176.968C909.981 174.159 908.437 177.075 908.437 177.075C908.437 177.075 974.948 174.729 972.989 177.888Z" fill="white" fill-opacity="0.61"/>
<g clip-path="url(#clip2_705_5753)">
<path d="M777.823 105.999C776.328 107.711 747.155 106.758 747.155 106.758C747.155 106.758 735.042 107.51 718.006 107.51C700.97 107.51 693.774 105.616 693.774 105.616C693.774 105.616 658.564 106.751 656.67 105.996C655.756 105.628 658.113 104.55 661.524 103.799C665.16 102.991 669.995 102.547 673.331 103.723C677.494 96.9123 696.803 89.7184 707.782 97.6673C715.353 93.505 717.148 100.843 717.148 100.843C717.148 100.843 727.471 90.0978 747.535 97.5838C755.857 91.9076 770.491 97.9367 775.929 102.501C777.664 103.958 778.464 105.267 777.823 105.999Z" fill="white" fill-opacity="0.63"/>
<path d="M777.823 105.998C776.328 107.709 747.155 106.757 747.155 106.757C747.155 106.757 735.042 107.508 718.006 107.508C700.97 107.508 693.774 105.615 693.774 105.615C693.774 105.615 658.564 106.749 656.67 105.994C655.756 105.626 658.113 104.549 661.524 103.797C669.976 104.757 678.606 105.201 686.917 103.403C690.689 102.587 694.962 101.399 698.146 103.581C699.418 102.815 701.205 103.061 702.218 104.143C703.592 102.978 705.524 102.674 707.315 102.86C709.106 103.042 710.818 103.653 712.552 104.135C717.364 105.467 722.457 105.782 727.395 105.057C732.404 104.321 737.288 102.53 742.351 102.61C743.698 102.632 745.076 102.629 746.264 103.262C746.924 103.615 747.531 104.097 748.252 104.294C749.265 104.575 750.328 104.264 751.36 104.074C755.098 103.391 758.92 104.34 762.711 104.586C767.201 104.879 771.743 104.143 775.929 102.5C777.664 103.957 778.464 105.266 777.823 105.998Z" fill="white" fill-opacity="0.31"/>
</g>
<path d="M680.215 134.138L530.044 118.328L530.044 156.534C530.044 156.637 530.068 156.724 530.172 156.716C534.167 156.416 630.612 149.165 680.216 144.854C680.308 144.846 680.374 144.769 680.374 144.677L680.374 134.315C680.374 134.224 680.305 134.148 680.215 134.138Z" fill="url(#paint0_linear_705_5753)"/>
<path d="M702.346 178.39H679.765L680.732 164.855H701.375L702.346 178.39Z" fill="url(#paint1_linear_705_5753)"/>
<path d="M703.532 194.985H678.575L679.765 178.391H702.346L703.532 194.985Z" fill="url(#paint2_linear_705_5753)"/>
<path d="M691.052 175.252C687.654 175.252 684.903 178.006 684.903 181.401C684.903 184.795 687.654 187.553 691.052 187.553C694.45 187.553 697.204 184.798 697.204 181.401C697.204 178.003 694.45 175.252 691.052 175.252ZM691.052 185.892C688.578 185.892 686.565 183.878 686.565 181.401C686.565 178.923 688.578 176.913 691.052 176.913C693.526 176.913 695.539 178.927 695.539 181.401C695.539 183.874 693.526 185.892 691.052 185.892Z" fill="url(#paint3_linear_705_5753)"/>
<path d="M695.539 181.4C695.539 183.877 693.525 185.891 691.051 185.891C688.578 185.891 686.564 183.877 686.564 181.4C686.564 178.922 688.578 176.912 691.051 176.912C693.525 176.912 695.539 178.926 695.539 181.4Z" fill="#339ABE"/>
<path d="M693.787 214.768H688.322C688.08 214.768 687.883 214.964 687.883 215.206V223.448C687.883 223.69 688.08 223.886 688.322 223.886H693.787C694.03 223.886 694.226 223.69 694.226 223.448V215.206C694.226 214.964 694.03 214.768 693.787 214.768Z" stroke="#231F20" stroke-width="0.184078" stroke-miterlimit="10"/>
<path d="M705.503 157.532V159.772C705.503 159.963 705.348 160.121 705.154 160.121H676.957C676.763 160.121 676.604 159.963 676.604 159.772V157.532C676.604 157.342 676.763 157.184 676.957 157.184H705.154C705.348 157.184 705.503 157.342 705.503 157.532Z" fill="url(#paint4_linear_705_5753)"/>
<path d="M696.082 256.969V266.458C694.464 266.411 692.825 266.386 691.185 266.386H690.926C689.287 266.386 687.647 266.411 686.029 266.458V256.969C686.029 254.2 688.276 251.953 691.045 251.953H691.066C693.835 251.953 696.082 254.2 696.082 256.969Z" fill="#2A2D4A"/>
<path d="M744.857 290.755H637.253C637.253 290.755 653.574 273.917 657.252 271.392C659.212 270.047 664.343 268.305 671.002 266.96C675.486 266.061 680.664 265.347 686.028 265.073C687.646 264.984 689.286 264.936 690.926 264.936H691.185C692.824 264.936 694.464 264.984 696.082 265.073C701.447 265.347 706.621 266.061 711.105 266.96C717.768 268.305 722.899 270.047 724.858 271.392C728.533 273.917 744.857 290.755 744.857 290.755Z" fill="url(#paint5_linear_705_5753)"/>
<path d="M711.105 249.351V267.448C706.621 266.977 701.447 266.603 696.082 266.459V256.97C696.082 254.202 693.835 251.954 691.066 251.954H691.044C688.276 251.954 686.028 254.202 686.028 256.97V266.459C680.664 266.603 675.486 266.977 671.002 267.448V249.351C671.002 248.186 671.948 247.244 673.109 247.244H708.998C710.163 247.244 711.105 248.186 711.105 249.351Z" fill="url(#paint6_linear_705_5753)"/>
<path d="M707.275 247.244H674.835L676.198 228.176H705.909L707.275 247.244Z" fill="url(#paint7_linear_705_5753)"/>
<path d="M705.909 228.176H676.198L677.388 211.582H704.722L705.909 228.176Z" fill="url(#paint8_linear_705_5753)"/>
<path d="M704.722 211.582H677.388L678.574 194.984H703.532L704.722 211.582Z" fill="url(#paint9_linear_705_5753)"/>
<path d="M703.471 160.119H678.636V162.366H703.471V160.119Z" fill="url(#paint10_linear_705_5753)"/>
<path d="M703.471 162.367L701.375 164.855H680.732L678.636 162.367H703.471Z" fill="url(#paint11_linear_705_5753)"/>
<path d="M697.319 154.405H684.792L685.468 149.777C687.097 150.651 688.959 151.147 690.937 151.147C692.915 151.147 694.946 150.604 696.625 149.658L697.319 154.405Z" fill="url(#paint12_linear_705_5753)"/>
<path d="M697.721 157.184H684.389L684.791 154.404H697.319L697.721 157.184Z" fill="url(#paint13_linear_705_5753)"/>
<path d="M690.936 126.369C683.67 126.369 677.779 132.261 677.779 139.527C677.779 144.549 680.594 148.915 684.731 151.13C686.579 152.121 688.693 152.685 690.936 152.685C693.18 152.685 695.486 152.068 697.391 150.995C701.393 148.739 704.094 144.447 704.094 139.527C704.094 132.261 698.203 126.369 690.936 126.369ZM697.065 148.76C695.31 149.935 693.201 150.616 690.936 150.616C688.672 150.616 686.759 149.996 685.053 148.919C681.932 146.956 679.851 143.48 679.851 139.527C679.851 133.415 684.825 128.442 690.936 128.442C697.048 128.442 702.022 133.415 702.022 139.527C702.022 143.378 700.051 146.773 697.065 148.76Z" fill="#B7BAD0"/>
<g filter="url(#filter0_f_705_5753)">
<path d="M690.936 126.369C683.67 126.369 677.779 132.261 677.779 139.527C677.779 144.549 680.594 148.915 684.731 151.13C686.579 152.121 688.693 152.685 690.936 152.685C693.18 152.685 695.486 152.068 697.391 150.995C701.393 148.739 704.094 144.447 704.094 139.527C704.094 132.261 698.203 126.369 690.936 126.369ZM697.065 148.76C695.31 149.935 693.201 150.616 690.936 150.616C688.672 150.616 686.759 149.996 685.053 148.919C681.932 146.956 679.851 143.48 679.851 139.527C679.851 133.415 684.825 128.442 690.936 128.442C697.048 128.442 702.022 133.415 702.022 139.527C702.022 143.378 700.051 146.773 697.065 148.76Z" fill="#2CD9FF"/>
</g>
<path d="M702.021 139.527C702.021 143.378 700.051 146.772 697.064 148.759C695.31 149.934 693.201 150.616 690.936 150.616C688.672 150.616 686.758 149.996 685.053 148.918C681.932 146.956 679.851 143.48 679.851 139.527C679.851 133.415 684.824 128.441 690.936 128.441C697.048 128.441 702.021 133.415 702.021 139.527Z" fill="white"/>
<path d="M719.017 269.961C719.149 269.958 719.228 269.876 719.228 269.763C719.228 269.335 719.026 268.928 719.241 268.534C719.387 268.265 719.677 268.124 719.675 267.747C719.675 267.728 719.658 267.665 719.636 267.598C719.313 267.628 719.017 267.826 718.717 267.984C718.601 268.045 717.963 268.441 717.749 268.931C717.608 269.253 717.564 269.617 717.573 269.955C717.783 270.277 718.725 269.966 719.017 269.96V269.961Z" fill="#B0B0B0"/>
<path d="M720.774 268.495C720.581 268.932 720.867 269.072 720.634 269.372C720.547 269.519 720.497 269.71 720.563 269.793C720.697 269.962 721.268 270.096 721.532 269.99C721.819 269.873 721.959 269.556 722.152 269.315C722.309 269.119 722.424 268.926 722.637 268.778C722.694 268.738 722.882 268.674 723.089 268.605C723.087 268.605 723.086 268.605 723.084 268.604C723.271 268.487 723.55 268.351 723.644 268.137C723.43 267.974 722.372 267.818 721.751 267.907C721.408 267.956 721.069 268.083 720.725 267.992C720.809 268.159 720.836 268.352 720.773 268.496L720.774 268.495Z" fill="#B0B0B0"/>
<path d="M726.101 271.97C726.093 271.199 726.027 270.724 725.742 270.259C725.959 270.786 725.766 271.193 725.331 271.503C725.187 271.606 725.128 271.812 724.944 271.846C724.673 271.896 724.423 271.968 724.229 272.298C724.167 272.405 723.983 272.351 723.876 272.457C723.716 272.616 723.461 272.776 723.262 272.873C722.534 273.226 720.564 273.958 719.755 273.386C719.714 273.357 719.367 272.962 719.427 272.959C720.104 272.925 720.715 272.584 721.202 272.159C721.357 272.022 721.588 271.764 721.782 271.69C722.522 271.411 722.145 271.298 722.244 271.005C722.35 270.695 722.687 270.657 722.974 270.546C723.196 270.46 723.745 270.378 723.804 270.131C723.853 269.92 723.975 269.655 723.884 269.459C723.829 269.343 723.565 269.332 723.444 269.297C723.316 269.247 723.189 269.217 723.056 269.187C722.965 269.165 722.97 269.054 723.032 269.006C723.242 268.848 723.484 268.786 723.732 268.793C723.522 268.724 723.307 268.663 723.089 268.606C722.882 268.675 722.693 268.74 722.636 268.779C722.423 268.926 722.309 269.119 722.151 269.316C721.958 269.558 721.844 269.912 721.557 270.028C721.293 270.135 720.696 269.963 720.563 269.794C720.496 269.71 720.547 269.52 720.634 269.373C720.866 269.074 720.58 268.934 720.774 268.496C720.837 268.352 720.81 268.159 720.726 267.992C720.71 267.988 720.695 267.983 720.678 267.979C720.444 267.902 720.252 267.739 720.023 267.652C719.889 267.601 719.761 267.588 719.635 267.6C719.658 267.668 719.674 267.73 719.674 267.749C719.676 268.126 719.386 268.267 719.241 268.536C719.026 268.93 719.227 269.337 719.227 269.765C719.227 269.878 719.148 269.96 719.017 269.963C718.724 269.969 717.782 270.28 717.572 269.958C717.582 270.344 717.659 270.697 717.741 270.918C717.725 271.122 717.709 271.327 717.697 271.531C717.664 272.062 717.614 272.611 717.793 273.124C718.09 273.975 718.91 274.445 719.667 274.839C719.758 274.887 719.867 274.854 719.912 274.764C719.95 274.764 719.991 274.756 720.034 274.733C720.272 274.604 720.607 274.927 720.952 275.226C722.151 275.152 723.458 274.76 724.547 274.248C724.976 274.046 726.094 273.185 726.093 273.079C726.093 273.079 726.103 272.065 726.102 271.968L726.101 271.97Z" fill="#B9B9B9"/>
<path d="M723.033 269.006C722.971 269.052 722.966 269.165 723.057 269.186C723.19 269.217 723.317 269.246 723.445 269.296C723.567 269.331 723.83 269.341 723.885 269.458C723.976 269.655 723.854 269.919 723.805 270.13C723.746 270.377 723.197 270.459 722.975 270.545C722.687 270.656 722.351 270.694 722.246 271.004C722.146 271.297 722.523 271.409 721.783 271.689C721.589 271.763 721.358 272.021 721.203 272.158C720.715 272.583 720.105 272.924 719.428 272.958C719.368 272.961 719.715 273.356 719.756 273.386C720.566 273.956 722.535 273.225 723.263 272.872C723.462 272.775 723.717 272.615 723.877 272.456C723.984 272.35 724.168 272.404 724.23 272.298C724.424 271.967 724.674 271.896 724.945 271.845C725.128 271.811 725.188 271.605 725.332 271.502C725.767 271.192 725.96 270.785 725.744 270.258C725.638 270.084 725.501 269.911 725.324 269.725C724.871 269.248 724.322 268.986 723.735 268.793C723.487 268.787 723.245 268.848 723.035 269.007L723.033 269.006Z" fill="#B0B0B0"/>
<path d="M720.808 274.243C720.552 273.674 719.964 273.267 719.507 272.87C718.598 272.077 717.807 270.663 717.814 269.903C717.816 269.642 717.719 269.308 717.749 268.934C717.537 269.389 717.518 270.03 717.509 270.255C717.488 270.815 717.54 271.394 717.576 271.932C717.614 272.494 717.605 273.124 717.967 273.588C718.334 274.059 718.848 274.534 719.368 274.83C719.857 275.107 720.95 275.227 720.95 275.227C720.95 275.227 720.919 274.491 720.807 274.243H720.808Z" fill="#7E8890"/>
<path d="M724.077 271.721C723.789 271.891 723.522 272.035 723.431 272.118C723.329 272.212 723.051 272.277 722.931 272.348C722.583 272.552 722.216 272.724 721.833 272.85C721.192 273.061 720.188 273.394 719.596 272.942C719.844 273.461 720.603 274.365 720.705 275.117C720.705 275.119 720.707 275.121 720.707 275.123C720.483 275.033 720.108 274.836 719.92 274.598C719.716 274.341 719.268 273.936 719.031 273.838C718.959 273.808 718.713 273.742 718.64 273.656C718.346 273.314 718.278 273.39 718.16 273.31C717.847 273.099 717.663 272.728 717.604 272.344C717.679 273.137 717.878 273.504 718.013 273.673C718.665 274.485 719.177 274.832 719.836 275.021C720.443 275.195 720.952 275.264 720.952 275.264C720.952 275.264 721.837 275.214 722.424 275.044C722.821 274.929 724.576 274.321 724.927 274.139C725.501 273.844 726.519 273.404 726.581 273.304C726.638 273.004 726.603 272.472 726.58 272.26C726.561 272.076 726.52 271.877 726.465 271.678C725.987 271.774 725.241 271.933 724.876 272.213C724.586 272.057 724.212 271.825 724.08 271.72L724.077 271.721Z" fill="#55616B"/>
<path d="M724.847 271.174C724.674 271.359 724.366 271.554 724.078 271.724C724.211 271.828 724.583 272.061 724.873 272.217C725.238 271.935 725.984 271.776 726.463 271.681C726.298 271.083 725.969 270.324 725.66 270.029C725.543 270.551 725.166 270.833 724.846 271.174H724.847Z" fill="#657583"/>
<path d="M723.944 271.775C723.815 271.736 723.578 271.675 723.375 271.662C723.386 271.714 723.451 271.926 723.487 272.177C723.576 272.798 723.762 273.778 723.777 273.827C723.802 273.904 724.111 273.791 724.144 273.633C724.18 273.46 723.999 272.207 723.944 271.774V271.775Z" fill="#657583"/>
<path d="M729.826 273.427C729.021 272.661 727.81 271.45 726.589 271.582C725.961 271.65 725.27 271.877 724.725 272.169C724.059 272.529 723.313 273.183 722.856 273.651C722.791 273.717 723.032 273.814 723.092 273.828C725.305 274.341 727.592 274.27 729.772 273.632C729.859 273.606 729.895 273.491 729.826 273.425V273.427Z" fill="#B9B9B9"/>
<path d="M728.143 274.03C728.041 273.925 727.858 273.976 727.738 273.986C727.413 274.014 727.088 274.034 726.761 274.039C726.058 274.051 725.319 274.091 724.625 273.988C724.057 273.903 723.125 273.726 722.855 273.652C722.827 273.999 722.775 274.309 722.772 274.658C722.771 274.791 722.839 275.197 722.839 275.197C722.839 275.197 723.253 275.394 723.404 275.45C723.48 275.479 723.557 275.507 723.632 275.533C723.766 275.388 723.833 275.348 724.088 275.373C724.532 275.418 724.839 275.573 724.993 275.09C725.09 274.789 725.057 274.4 725.007 274.096C725.002 274.068 725.027 274.047 725.055 274.06C725.339 274.201 725.435 274.07 725.646 274.256C725.832 274.42 725.895 274.584 725.963 274.812C726.009 274.964 726.066 275.221 726.142 275.366C726.152 275.386 726.164 275.402 726.176 275.419C726.542 275.591 726.974 275.309 727.297 275.647C727.322 275.645 727.346 275.643 727.371 275.641C727.382 275.641 727.384 275.66 727.374 275.662C727.354 275.665 727.335 275.668 727.314 275.671C727.318 275.678 727.319 275.686 727.321 275.694C727.394 275.679 727.468 275.665 727.545 275.649C727.592 275.639 728.122 275.166 728.122 275.119C728.121 274.773 728.208 274.736 728.202 274.391C728.2 274.289 728.223 274.114 728.142 274.031L728.143 274.03Z" fill="#7E8890"/>
<path d="M727.375 275.66C727.387 275.658 727.384 275.638 727.372 275.639C727.349 275.641 727.323 275.643 727.298 275.645C726.975 275.307 726.543 275.589 726.178 275.418C726.166 275.401 726.154 275.384 726.144 275.364C726.068 275.219 726.01 274.962 725.965 274.81C725.896 274.582 725.965 274.239 725.891 274.121C725.741 273.883 725.341 274.2 725.057 274.059C725.031 274.046 725.005 274.068 725.009 274.095C725.059 274.399 725.092 274.788 724.996 275.089C724.841 275.573 724.535 275.418 724.09 275.372C723.835 275.346 723.768 275.387 723.635 275.532C723.884 275.619 724.136 275.698 724.394 275.756C725.557 276.012 726.236 275.908 727.323 275.692C727.322 275.684 727.321 275.676 727.317 275.669C727.337 275.666 727.357 275.663 727.376 275.66H727.375Z" fill="#55616B"/>
<path d="M723.902 268.851C723.886 268.816 723.738 268.236 723.645 268.137C723.513 268.275 723.04 268.351 722.92 268.445C722.474 268.79 722.315 269.073 721.898 269.449C721.742 269.593 721.65 269.969 721.361 269.908C721.084 269.85 720.602 269.696 720.406 269.985C720.804 270.094 720.999 270.201 721.394 270.247C721.557 270.266 721.916 270.183 722.018 270.059C722.264 269.759 722.439 269.538 722.786 269.327C723.125 269.121 723.669 269.252 723.902 268.851Z" fill="#55616B"/>
<path d="M729.954 273.472C729.862 273.457 729.722 273.425 729.648 273.439C729.155 273.536 728.802 273.633 728.308 273.727C728.29 273.73 728.275 273.734 728.259 273.737C728.147 273.668 728.033 273.604 727.917 273.54C727.879 273.52 727.835 273.532 727.812 273.567C727.698 273.742 727.671 273.957 727.745 274.145C727.735 274.173 727.725 274.201 727.716 274.232C727.713 274.241 727.709 274.251 727.705 274.262C727.673 274.285 727.661 274.324 727.666 274.361C727.503 274.757 727.816 275.36 727.82 275.303C728.109 275.363 728.313 275.632 728.575 275.57C728.916 275.489 729.522 275.24 729.862 275.094C729.972 274.616 729.998 273.848 729.954 273.472Z" fill="#55616B"/>
<path d="M729.543 273.362C729.431 273.061 729.246 272.884 729.076 272.871C728.668 272.92 728.117 273.107 727.703 273.037C727.456 272.995 727.161 272.895 726.907 272.932C726.79 272.95 726.722 272.983 726.636 273.058C726.599 273.091 726.607 273.159 726.582 273.192C726.443 273.382 726.294 273.448 726.075 273.518C725.401 273.737 724.559 273.854 723.859 273.839C723.829 273.839 726.078 274.222 726.765 274.16C727.18 274.122 727.583 274.023 727.738 273.629C728.321 273.855 728.928 273.806 729.484 273.504C729.529 273.479 729.56 273.413 729.542 273.363L729.543 273.362Z" fill="#B0B0B0"/>
<path d="M729.954 273.473C729.458 272.974 728.884 272.529 728.304 272.129C728.243 272.327 728.949 272.729 729.34 273.25C729.398 273.327 729.365 273.473 729.079 273.513C728.983 273.527 728.524 273.663 728.205 273.474C727.99 273.346 727.865 273.366 727.619 273.294C727.606 273.505 727.577 273.809 727.395 273.925C727.258 274.012 727.102 274.017 726.948 273.984C726.509 273.998 726.071 274.004 725.632 273.971C724.877 273.915 724.004 273.835 723.254 273.736C724.176 273.98 725.124 274.192 726.103 274.249C726.421 274.267 727.322 274.128 727.326 274.435C727.329 274.637 727.208 275.127 727.45 275.471C727.71 275.476 727.533 274.774 727.613 274.45C727.632 274.409 727.651 274.368 727.674 274.327C727.68 274.314 727.682 274.301 727.681 274.287L727.736 274.249C727.792 274.228 727.799 274.152 727.745 274.127C727.745 274.127 727.747 274.125 727.747 274.124C727.781 274.124 727.817 274.102 727.821 274.058C727.834 273.922 727.832 273.801 727.818 273.679V273.677C727.866 273.717 727.92 273.749 727.987 273.782C727.998 273.787 728.008 273.789 728.019 273.789C728.065 273.82 728.05 273.853 728.098 273.882C728.135 273.905 729.772 273.633 729.954 273.471V273.473Z" fill="#CFCFCF"/>
<path d="M725.067 269.485C725.295 269.661 725.535 270.113 725.341 270.48C725.093 270.952 724.382 271.394 724.278 271.473C723.992 271.41 723.853 271.353 723.84 271.441C723.837 271.459 723.924 271.551 723.935 271.575C723.95 271.601 723.886 271.647 723.831 271.621C723.684 271.549 723.47 271.431 723.351 271.36C723.328 271.346 723.121 271.221 723.089 271.36C723.025 271.639 723.103 271.79 722.907 272.012C722.704 272.243 722.413 272.411 722.147 272.56C721.876 272.711 720.907 273.168 720.316 273.097C720.054 273.065 719.696 272.883 719.52 272.757C719.163 272.504 718.649 271.868 718.385 271.442C718.107 270.992 717.959 270.61 717.853 270.154C717.963 270.225 718.928 270.251 719.212 269.842C718.851 269.965 718.365 270.069 718.078 269.812C718.004 269.746 717.979 269.653 717.986 269.572C718.008 269.311 718.234 269.053 718.35 268.882C718.504 268.656 718.646 268.375 718.829 268.148C719.071 268.021 719.457 267.818 719.602 267.604C718.487 267.71 718.027 268.552 717.718 268.933C717.508 269.617 717.676 270.496 717.997 271.182C718.223 271.667 718.556 272.083 718.927 272.466C719.053 272.597 719.891 273.609 720.077 273.794C720.155 273.898 720.495 274.521 720.524 274.538C720.524 274.329 720.446 273.794 720.665 273.413C721.427 273.162 722.171 272.837 722.9 272.506C723.083 272.422 723.308 272.265 723.484 272.106C723.522 271.976 723.421 271.725 723.42 271.71C723.578 271.782 723.9 271.893 723.955 271.868C723.997 271.849 725.712 270.848 725.752 270.325C725.774 270.027 725.317 269.578 725.067 269.488V269.485Z" fill="#CFCFCF"/>
<path d="M723.644 268.138C723.128 267.679 722.041 267.806 721.417 267.969C721.81 268.006 722.484 267.91 722.967 268.041C723.162 268.093 723.19 268.23 722.956 268.345C722.828 268.407 722.702 268.585 722.596 268.68C722.428 268.828 722.015 269.294 722.002 269.306C721.817 269.48 721.741 269.629 721.5 269.711C721.458 269.726 721.286 269.748 721.235 269.753C721.012 269.773 720.778 269.758 720.614 269.843C720.854 269.858 721.248 270.095 721.632 269.976C721.814 269.919 721.998 269.755 722.155 269.503C722.256 269.341 722.476 269.034 722.611 268.89C722.73 268.764 723.263 268.457 723.305 268.442C723.409 268.403 723.508 268.359 723.609 268.305C723.651 268.283 723.68 268.171 723.644 268.139V268.138Z" fill="#CFCFCF"/>
<path d="M728.114 273.745C728.096 273.678 727.724 273.516 727.727 273.596C727.732 273.694 727.701 273.936 727.687 274.128C727.555 274.304 727.476 274.661 727.458 274.769C727.414 275.032 727.41 275.418 727.49 275.659C727.49 275.659 727.793 275.601 728 275.504C728.151 275.547 728.333 275.627 728.503 275.602C728.448 275.163 728.235 274.199 728.112 273.745H728.114Z" fill="#657583"/>
<path d="M663.951 272.454C664.021 272.649 664.079 272.865 664.116 273.087C664.124 273.065 664.131 273.041 664.139 273.017C664.192 272.861 664.244 272.706 664.296 272.551C664.187 272.474 664.082 272.368 663.982 272.223C663.761 271.899 663.591 271.586 663.155 271.552C662.942 271.535 662.745 271.587 662.563 271.677C663.232 271.501 663.699 271.755 663.951 272.454Z" fill="#7E8890"/>
<path d="M663.29 272.454C663.511 272.586 663.647 272.818 663.809 273.055C664.729 274.401 666.099 272.703 666.94 271.925C666.838 271.6 666.657 271.312 666.425 271.056C665.808 270.786 665.17 270.582 664.476 270.533C663.684 270.478 663.399 271.576 663.291 272.454H663.29Z" fill="#B0B0B0"/>
<path d="M659.624 271.19C659.541 270.447 659.323 269.64 658.81 269.067C658.429 268.641 657.959 268.491 657.461 268.477C656.597 268.945 655.447 269.929 654.783 270.694C654.651 270.846 654.571 271.021 654.528 271.208C655.527 272.019 656.575 272.754 657.734 273.334C658.223 273.579 658.742 273.81 659.285 273.917C659.605 273.051 659.728 272.115 659.624 271.19Z" fill="#B0B0B0"/>
<path d="M663.818 269.48C661.992 268.7 660.05 268.121 658.042 268.233C657.873 268.273 657.676 268.36 657.459 268.476C657.958 268.49 658.427 268.641 658.809 269.067C659.321 269.638 659.539 270.445 659.623 271.189C659.727 272.114 659.603 273.049 659.283 273.916C659.437 273.946 659.592 273.966 659.75 273.975C660.622 274.016 661.098 273.583 661.657 272.992C661.987 272.642 662.42 272.305 662.936 272.346C663.078 272.357 663.191 272.396 663.29 272.454C663.399 271.575 663.683 270.477 664.474 270.532C665.168 270.58 665.807 270.785 666.424 271.055C665.761 270.325 664.679 269.848 663.818 269.48Z" fill="#B9B9B9"/>
<path d="M660.381 273.908C660.194 273.961 659.986 273.985 659.749 273.974C659.038 273.941 658.358 273.647 657.732 273.334C656.575 272.753 655.526 272.02 654.528 271.207C654.432 271.624 654.522 272.099 654.634 272.51C654.783 273.048 654.954 273.594 655.24 274.079C655.945 275.276 657.264 275.419 658.546 275.567C658.931 275.612 659.686 275.683 660.584 275.691C660.558 275.39 660.528 275.088 660.499 274.787C660.472 274.514 660.496 274.165 660.383 273.906L660.381 273.908Z" fill="#7E8890"/>
<path d="M661.627 273.775C661.64 273.515 661.651 273.24 661.681 272.967C661.674 272.975 661.666 272.982 661.658 272.991C661.251 273.421 660.888 273.767 660.383 273.908C660.497 274.166 660.472 274.514 660.499 274.789C660.529 275.089 660.558 275.39 660.584 275.692C660.926 275.695 661.289 275.687 661.66 275.666C661.657 275.657 661.655 275.649 661.654 275.641C661.524 275.049 661.598 274.374 661.627 273.775Z" fill="#B9B9B9"/>
<path d="M666.94 271.923C666.195 272.611 665.036 274.02 664.142 273.4C664.086 273.564 664.032 273.728 663.976 273.892C663.805 274.394 663.66 274.922 663.476 275.425C664.155 275.273 664.795 275.044 665.315 274.701C665.843 274.352 666.812 273.736 666.963 273.001C666.979 272.981 666.99 272.959 666.995 272.936C667.061 272.562 667.036 272.226 666.941 271.922L666.94 271.923Z" fill="#55616B"/>
<path d="M662.546 274.336C662.56 274.057 662.619 273.762 662.604 273.484C662.585 273.104 662.437 272.96 662.228 272.73C662.224 272.73 662.22 272.731 662.217 272.733C662.13 272.758 662.075 272.684 662.082 272.615C661.936 272.718 661.801 272.842 661.68 272.968C661.65 273.241 661.639 273.515 661.626 273.775C661.596 274.375 661.521 275.049 661.652 275.641C661.655 275.65 661.657 275.658 661.658 275.667C661.938 275.651 662.222 275.626 662.505 275.591C662.452 275.192 662.528 274.692 662.546 274.335V274.336Z" fill="#7E8890"/>
<path d="M663.952 273.967C663.913 273.73 663.853 273.503 663.777 273.298C663.511 272.559 663.018 272.291 662.312 272.477C662.233 272.516 662.157 272.563 662.083 272.615C662.075 272.683 662.129 272.757 662.217 272.732C662.221 272.732 662.224 272.731 662.228 272.73C662.436 272.96 662.584 273.102 662.605 273.484C662.619 273.762 662.56 274.055 662.547 274.336C662.53 274.693 662.452 275.193 662.505 275.592C662.833 275.552 663.158 275.498 663.476 275.427C663.651 274.948 663.791 274.448 663.952 273.969V273.967Z" fill="#7E8890"/>
<path d="M665.505 272.878C665.314 273.005 665.133 273.145 664.944 273.273C664.629 273.487 664.297 273.557 664.091 273.191C664.025 273.075 663.844 272.554 663.519 272.307C663.362 272.188 663.107 272.225 662.915 272.25C662.52 272.301 662.157 272.508 661.844 272.739C661.656 272.878 661.11 273.391 660.552 273.578C659.995 273.765 659.427 273.691 659.186 273.661C658.687 273.6 658.056 273.27 657.531 272.99C656.973 272.693 656.563 272.322 656.398 272.249C656.103 272.117 655.22 271.771 654.824 271.378C654.599 271.157 654.722 270.769 654.721 270.771C654.431 271.08 654.416 271.374 654.819 271.735C655.262 272.133 655.844 272.349 656.151 272.598C656.334 272.747 656.549 273.091 656.864 273.212C657.106 273.304 657.529 273.273 657.719 273.321C657.766 273.355 657.816 273.375 657.875 273.381C658.017 273.456 658.172 273.545 658.219 273.628C658.258 273.696 658.457 274.35 658.558 274.62C658.575 274.676 658.595 274.733 658.618 274.79C658.666 274.908 658.624 274.082 658.625 273.945C658.687 273.976 658.763 273.997 658.825 274.013C659.285 274.134 659.776 274.053 660.216 273.891C660.306 274.244 660.534 275.166 660.535 275.166C660.6 274.652 660.647 274.242 660.573 274.011C660.783 273.726 661.145 273.528 661.351 273.372C661.73 273.086 662.122 272.612 662.846 272.658C663.288 272.685 663.708 273.103 663.795 273.521C663.892 273.991 663.689 274.579 663.645 274.923C663.956 274.597 664.493 274.009 664.826 273.707C665.249 273.323 666.147 272.937 666.532 272.316C666.607 272.195 665.715 272.713 665.503 272.876L665.505 272.878Z" fill="#CFCFCF"/>
<path d="M658.695 275.286C658.533 275.215 658.505 275.032 658.341 274.971C658.098 274.881 657.841 274.869 657.585 274.841C657.347 274.815 657.345 274.66 657.278 274.552C657.126 274.315 656.943 274.04 656.702 274.038C656.613 274.038 656.582 274.141 656.634 274.203C656.758 274.344 656.977 274.772 656.78 274.771C656.682 274.771 656.447 274.582 656.359 274.562C656.111 274.483 655.686 274.437 655.232 273.793C655.099 273.606 655.001 273.191 654.793 273.051C654.949 273.516 655.051 273.8 655.194 274.044C655.234 274.141 655.286 274.232 655.368 274.31C655.536 274.533 655.791 274.761 656.04 274.914C656.626 275.275 656.959 275.341 657.116 275.387C657.475 275.489 659.223 275.66 659.606 275.666C659.515 275.453 658.963 275.405 658.694 275.287L658.695 275.286Z" fill="#55616B"/>
<path d="M663.818 269.48C662.829 268.889 661.496 268.443 660.355 268.256C659.811 268.166 659.249 268.146 658.7 268.185C658.207 268.221 657.529 268.208 657.141 268.528C656.896 268.729 656.532 269.024 656.24 269.314C656.795 269.136 656.942 268.949 657.284 268.816C657.457 268.822 657.633 268.635 657.813 268.644C658.171 268.663 658.463 269.083 658.693 269.317C659.282 269.915 659.589 270.755 659.657 271.584C659.85 271.172 659.792 270.573 659.706 270.126C659.646 269.818 659.53 269.427 659.792 269.182C659.916 269.066 660.224 268.999 660.391 268.967C661.452 268.753 663.311 269.615 663.817 269.478L663.818 269.48Z" fill="#CFCFCF"/>
<path d="M698.039 137.165C698.074 137.4 697.909 137.232 697.909 137.232C697.234 136.372 698.027 134.935 698.027 134.935C698.128 134.77 698.23 134.62 698.335 134.484C696.731 132.162 694.048 130.639 691.003 130.639C686.318 130.639 682.483 134.252 682.136 138.834C683.908 137.977 685.84 140.097 685.84 140.097L686.601 140.849C688.889 143.127 689.548 143.108 689.879 142.584C689.879 142.584 690.337 141.921 689.574 140.576C688.647 138.951 689.663 137.749 689.663 137.749C692.358 134.097 696.674 138.742 696.674 138.742C698.198 140.258 699.166 140.826 699.777 140.988C699.857 140.506 699.901 140.014 699.901 139.51C699.901 138.44 699.71 137.416 699.363 136.467C698.182 136.064 698.017 137.016 698.039 137.168V137.165Z" fill="#76C4D5"/>
<path d="M693.94 141.471C692.145 139.685 691.091 139.177 690.48 139.174C690.413 139.18 689.904 139.237 690.003 139.754C690.092 140.205 691.718 142.324 689.841 144.203C687.209 146.414 684.382 143.06 684.382 143.06C683.507 142.248 682.451 141.008 682.317 141.417C683.195 145.396 686.75 148.375 691.002 148.375C694.274 148.375 697.132 146.614 698.679 143.99C696.41 144.127 693.94 141.471 693.94 141.471Z" fill="#007496"/>
<g clip-path="url(#clip3_705_5753)">
<rect x="686.315" y="176.688" width="9.50078" height="9.50078" rx="4.75039" fill="#339ABE"/>
<rect x="684.167" y="174.941" width="22.0117" height="1.96" transform="rotate(30 684.167 174.941)" fill="white" fill-opacity="0.33"/>
<rect x="682.531" y="177.463" width="22.0117" height="0.44303" transform="rotate(30 682.531 177.463)" fill="white" fill-opacity="0.33"/>
</g>
<rect x="686.463" y="176.836" width="9.20388" height="9.20388" rx="4.60194" stroke="white" stroke-opacity="0.27" stroke-width="0.296899"/>
<path d="M705.242 127.556C705.347 127.1 705.596 126.683 705.958 126.358C706.32 126.034 706.778 125.815 707.274 125.731L708.595 125.508L707.274 125.285C706.778 125.201 706.32 124.983 705.958 124.658C705.596 124.334 705.347 123.917 705.242 123.461L704.951 122.195L704.66 123.461C704.555 123.917 704.306 124.334 703.944 124.658C703.582 124.983 703.124 125.201 702.628 125.285L701.307 125.508L702.628 125.731C703.124 125.815 703.582 126.034 703.944 126.358C704.306 126.683 704.555 127.1 704.66 127.556L704.951 128.821L705.242 127.556Z" fill="#09C2FD" fill-opacity="0.25"/>
<path d="M675.531 153.086C675.586 152.847 675.717 152.628 675.906 152.458C676.096 152.287 676.337 152.173 676.597 152.129L677.29 152.012L676.597 151.895C676.337 151.851 676.096 151.736 675.906 151.566C675.717 151.395 675.586 151.177 675.531 150.937L675.378 150.273L675.225 150.937C675.17 151.177 675.039 151.395 674.85 151.566C674.66 151.736 674.419 151.851 674.159 151.895L673.466 152.012L674.159 152.129C674.419 152.173 674.66 152.287 674.85 152.458C675.039 152.628 675.17 152.847 675.225 153.086L675.378 153.75L675.531 153.086Z" fill="#09C2FD" fill-opacity="0.25"/>
</g>
<g filter="url(#filter1_b_705_5753)">
<rect y="270.25" width="744" height="9.08496" fill="url(#paint14_linear_705_5753)" fill-opacity="0.35"/>
</g>
</g>
<defs>
<filter id="filter0_f_705_5753" x="663.528" y="112.118" width="54.8178" height="54.8168" filterUnits="userSpaceOnUse" color-interpolation-filters="sRGB">
<feFlood flood-opacity="0" result="BackgroundImageFix"/>
<feBlend mode="normal" in="SourceGraphic" in2="BackgroundImageFix" result="shape"/>
<feGaussianBlur stdDeviation="7.12559" result="effect1_foregroundBlur_705_5753"/>
</filter>
<filter id="filter1_b_705_5753" x="-2" y="268.25" width="748" height="13.0859" filterUnits="userSpaceOnUse" color-interpolation-filters="sRGB">
<feFlood flood-opacity="0" result="BackgroundImageFix"/>
<feGaussianBlur in="BackgroundImageFix" stdDeviation="1"/>
<feComposite in2="SourceAlpha" operator="in" result="effect1_backgroundBlur_705_5753"/>
<feBlend mode="normal" in="SourceGraphic" in2="effect1_backgroundBlur_705_5753" result="shape"/>
</filter>
<linearGradient id="paint0_linear_705_5753" x1="680.374" y1="137.297" x2="528.864" y2="137.297" gradientUnits="userSpaceOnUse">
<stop stop-color="#74E6FF" stop-opacity="0.3"/>
<stop offset="1" stop-color="#F6F7FC" stop-opacity="0"/>
</linearGradient>
<linearGradient id="paint1_linear_705_5753" x1="679.765" y1="171.623" x2="702.346" y2="171.623" gradientUnits="userSpaceOnUse">
<stop stop-color="#C9CAD2"/>
<stop offset="0.17" stop-color="#9499A9"/>
<stop offset="0.7" stop-color="#E2E0E3"/>
<stop offset="0.9" stop-color="#E1DFE1"/>
<stop offset="1" stop-color="#DCE7E4"/>
</linearGradient>
<linearGradient id="paint2_linear_705_5753" x1="678.575" y1="186.689" x2="703.532" y2="186.689" gradientUnits="userSpaceOnUse">
<stop stop-color="#9FB8C0"/>
<stop offset="0.19" stop-color="#57687B"/>
<stop offset="0.7" stop-color="#C0CDD6"/>
<stop offset="0.9" stop-color="#B2BAC5"/>
<stop offset="1" stop-color="#BACED1"/>
</linearGradient>
<linearGradient id="paint3_linear_705_5753" x1="685.31" y1="180.199" x2="699.041" y2="185.966" gradientUnits="userSpaceOnUse">
<stop stop-color="#E2E3ED"/>
<stop offset="1" stop-color="#E2E3ED" stop-opacity="0"/>
</linearGradient>
<linearGradient id="paint4_linear_705_5753" x1="676.604" y1="158.654" x2="705.503" y2="158.654" gradientUnits="userSpaceOnUse">
<stop stop-color="#9FB8C0"/>
<stop offset="0.19" stop-color="#57687B"/>
<stop offset="0.7" stop-color="#C0CDD6"/>
<stop offset="0.9" stop-color="#B2BAC5"/>
<stop offset="1" stop-color="#BACED1"/>
</linearGradient>
<linearGradient id="paint5_linear_705_5753" x1="691.055" y1="274.001" x2="714.983" y2="246.871" gradientUnits="userSpaceOnUse">
<stop stop-color="#B5C8D8"/>
<stop offset="1" stop-color="#78A3C8"/>
</linearGradient>
<linearGradient id="paint6_linear_705_5753" x1="671.002" y1="257.348" x2="711.105" y2="257.348" gradientUnits="userSpaceOnUse">
<stop stop-color="#9FB8C0"/>
<stop offset="0.17" stop-color="#57687B"/>
<stop offset="0.28" stop-color="#667788"/>
<stop offset="0.48" stop-color="#8F9EAC"/>
<stop offset="0.7" stop-color="#C0CDD6"/>
<stop offset="0.9" stop-color="#B2BAC5"/>
<stop offset="1" stop-color="#BACED1"/>
</linearGradient>
<linearGradient id="paint7_linear_705_5753" x1="674.835" y1="237.712" x2="707.275" y2="237.712" gradientUnits="userSpaceOnUse">
<stop stop-color="#C9CAD2"/>
<stop offset="0.25" stop-color="#9499A9"/>
<stop offset="0.7" stop-color="#E2E0E3"/>
<stop offset="0.9" stop-color="#E1DFE1"/>
<stop offset="1" stop-color="#DCE7E4"/>
</linearGradient>
<linearGradient id="paint8_linear_705_5753" x1="676.198" y1="219.881" x2="705.909" y2="219.881" gradientUnits="userSpaceOnUse">
<stop stop-color="#9FB8C0"/>
<stop offset="0.23" stop-color="#57687B"/>
<stop offset="0.7" stop-color="#C0CDD6"/>
<stop offset="0.9" stop-color="#B2BAC5"/>
<stop offset="1" stop-color="#BACED1"/>
</linearGradient>
<linearGradient id="paint9_linear_705_5753" x1="677.388" y1="203.283" x2="704.722" y2="203.283" gradientUnits="userSpaceOnUse">
<stop stop-color="#C9CAD2"/>
<stop offset="0.22" stop-color="#9499A9"/>
<stop offset="0.7" stop-color="#E2E0E3"/>
<stop offset="0.9" stop-color="#E1DFE1"/>
<stop offset="1" stop-color="#DCE7E4"/>
</linearGradient>
<linearGradient id="paint10_linear_705_5753" x1="678.636" y1="161.245" x2="703.471" y2="161.245" gradientUnits="userSpaceOnUse">
<stop stop-color="#9FB8C0"/>
<stop offset="0.19" stop-color="#57687B"/>
<stop offset="0.7" stop-color="#C0CDD6"/>
<stop offset="0.9" stop-color="#B2BAC5"/>
<stop offset="1" stop-color="#BACED1"/>
</linearGradient>
<linearGradient id="paint11_linear_705_5753" x1="678.636" y1="163.611" x2="703.471" y2="163.611" gradientUnits="userSpaceOnUse">
<stop stop-color="#9FB8C0"/>
<stop offset="0.19" stop-color="#57687B"/>
<stop offset="0.7" stop-color="#C0CDD6"/>
<stop offset="0.9" stop-color="#B2BAC5"/>
<stop offset="1" stop-color="#BACED1"/>
</linearGradient>
<linearGradient id="paint12_linear_705_5753" x1="684.792" y1="152.031" x2="697.319" y2="152.031" gradientUnits="userSpaceOnUse">
<stop stop-color="#C9CAD2"/>
<stop offset="0.17" stop-color="#9499A9"/>
<stop offset="0.7" stop-color="#E2E0E3"/>
<stop offset="0.9" stop-color="#E1DFE1"/>
<stop offset="1" stop-color="#DCE7E4"/>
</linearGradient>
<linearGradient id="paint13_linear_705_5753" x1="684.389" y1="155.796" x2="697.721" y2="155.796" gradientUnits="userSpaceOnUse">
<stop stop-color="#C9CAD2"/>
<stop offset="0.17" stop-color="#9499A9"/>
<stop offset="0.7" stop-color="#E2E0E3"/>
<stop offset="0.9" stop-color="#E1DFE1"/>
<stop offset="1" stop-color="#DCE7E4"/>
</linearGradient>
<linearGradient id="paint14_linear_705_5753" x1="372" y1="270.25" x2="372" y2="279.335" gradientUnits="userSpaceOnUse">
<stop stop-color="#099DFD" stop-opacity="0.31"/>
<stop offset="1" stop-color="#099DFD"/>
</linearGradient>
<clipPath id="clip0_705_5753">
<rect width="744" height="279" fill="white"/>
</clipPath>
<clipPath id="clip1_705_5753">
<rect width="257.115" height="188.234" fill="white" transform="translate(528.862 90.7656)"/>
</clipPath>
<clipPath id="clip2_705_5753">
<rect width="137.168" height="28.5023" fill="white" transform="translate(640.875 79.0078)"/>
</clipPath>
<clipPath id="clip3_705_5753">
<rect x="686.315" y="176.688" width="9.50078" height="9.50078" rx="4.75039" fill="white"/>
</clipPath>
</defs>
</svg>
