<svg width="55" height="55" viewBox="0 0 55 55" fill="none" xmlns="http://www.w3.org/2000/svg">
<rect x="0.345215" y="0.757812" width="54.0006" height="54.0006" rx="6" fill="#3196F5" fill-opacity="0.11"/>
<path d="M21.0704 34.1786C21.0704 34.5421 21.3669 34.805 21.6969 34.805H28.2312C28.1977 34.5086 28.2647 34.2108 28.4297 33.9465L28.6604 33.5508L21.6968 33.5521C21.3668 33.5521 21.0704 33.8486 21.0704 34.1786Z" fill="#3196F5"/>
<path d="M21.6968 30.0189C21.3333 30.0189 21.0703 30.3154 21.0703 30.6454C21.0703 30.9754 21.3668 31.2718 21.6968 31.2718H28.6604C28.6604 30.9083 28.7262 30.4804 28.859 30.0176L21.6968 30.0189Z" fill="#3196F5"/>
<path d="M30.8388 26.4883H21.6968C21.3333 26.4883 21.0703 26.7848 21.0703 27.1148C21.0703 27.4783 21.3668 27.7413 21.6968 27.7413H29.9468C30.2446 27.3133 30.541 26.8841 30.8388 26.4883Z" fill="#3196F5"/>
<path d="M21.6968 24.2132H31.9604C32.324 24.2132 32.5869 23.9167 32.5869 23.5867C32.5869 23.2232 32.2904 22.9603 31.9604 22.9603L21.6968 22.959C21.3333 22.959 21.0703 23.2555 21.0703 23.5855C21.0703 23.949 21.3668 24.2132 21.6968 24.2132Z" fill="#3196F5"/>
<path d="M33.0494 25.6632C33.0494 25.6632 33.0159 25.6967 33.0159 25.7289L32.5544 28.1704L32.1909 26.9174C32.1573 26.8517 32.0594 26.8182 32.0259 26.8839C31.5966 27.4124 31.2009 27.9732 30.8709 28.5004C30.8709 28.5339 30.8373 28.5339 30.8709 28.5661L31.2009 31.0746L30.3101 29.9532C30.2766 29.8874 30.1451 29.9197 30.1451 29.9867C29.7159 31.1417 29.7159 32.1652 30.5087 32.8252L29.4529 34.5745C29.3872 34.706 29.4529 34.871 29.6179 34.871H30.4752C30.5744 34.871 30.6402 34.8052 30.6737 34.706C30.7394 34.4417 30.9044 33.8152 31.1687 33.1874C32.5879 33.7482 33.7094 32.561 34.5343 30.8439C34.5679 30.7782 34.5008 30.6789 34.4351 30.7124L33.0158 30.9109L35.1608 29.2274C35.1608 29.2274 35.1943 29.1939 35.1943 29.1617C35.4251 28.5017 35.5901 27.8081 35.7551 27.1159C35.7551 27.0502 35.7216 26.9844 35.6236 26.9844L34.1051 27.2809L35.9536 25.6967C35.9871 25.6967 35.9871 25.6632 35.9871 25.6309C36.1856 24.3109 36.1856 23.3209 36.0206 23.2217C35.7551 23.1559 34.4016 24.2117 33.0494 25.6632Z" fill="#3196F5"/>
<path d="M39.2539 37.4123H35.8546V30.6796C35.4589 31.6696 35.0296 32.3953 34.6003 32.9561V37.4111L22.5553 37.4124C22.2253 37.4124 21.9289 37.7088 21.9289 38.0388V39.2596C21.9289 40.0188 21.3024 40.6453 20.5096 40.6453C19.7503 40.6453 19.1239 40.0188 19.1239 39.2596V21.5389C19.1239 21.0104 18.9589 20.5489 18.6946 20.1532H23.2153C24.1717 21.0117 25.4595 21.5389 26.8453 21.5389C28.231 21.5389 29.5188 21.0104 30.4753 20.1532H33.181C33.9403 20.1532 34.5667 20.7796 34.5667 21.5389V22.7274C35.0617 22.3639 35.491 22.1667 35.821 22.1332V21.5389C35.821 20.0874 34.6325 18.8989 33.181 18.8989H31.4975C31.9925 18.0739 32.2889 17.1174 32.2889 16.0939C32.2889 13.0582 29.8475 10.6152 26.8103 10.6152C23.8067 10.6152 21.3316 13.0567 21.3316 16.0939C21.3316 17.1174 21.6281 18.0739 22.1231 18.8989H16.4501C14.9986 18.8989 13.8101 20.0874 13.8101 21.5389V22.7596C13.8101 23.0896 14.1065 23.3861 14.4365 23.3861H17.8679V39.2918C17.8679 40.7432 19.0564 41.9318 20.5079 41.9318H37.2385C38.69 41.9318 39.8785 40.7432 39.8785 39.2918V38.071C39.8798 37.7088 39.6156 37.4123 39.2534 37.4123L39.2539 37.4123ZM26.8453 11.8373C29.1888 11.8373 31.0696 13.7515 31.0696 16.0616C31.0696 18.3717 29.1889 20.2846 26.8453 20.2846C24.5017 20.2846 22.6209 18.3703 22.6209 16.0603C22.6209 13.7516 24.5017 11.8373 26.8453 11.8373ZM17.8696 22.1329H15.0646V21.5387C15.0646 20.7794 15.6911 20.1529 16.4503 20.1529C17.2418 20.1529 17.8696 20.7794 17.8696 21.5387V22.1329ZM38.6596 39.2929C38.6596 40.0522 38.0331 40.6787 37.2739 40.6787H22.7538C23.0181 40.2829 23.1496 39.7879 23.1496 39.2929V38.6987H38.6259V39.2929H38.6596Z" fill="#3196F5"/>
<path d="M25.3605 16.5556C25.4262 16.6214 25.4597 16.6871 25.4262 16.7542L25.1955 17.9079C25.1297 18.2044 25.4597 18.4364 25.724 18.3036L26.7475 17.7094C26.8133 17.6758 26.9125 17.6758 26.9783 17.7094L28.0018 18.3036C28.2661 18.4686 28.5961 18.2044 28.5303 17.9079L28.2996 16.7529C28.2996 16.6871 28.2996 16.5879 28.3653 16.5544L29.2239 15.7629C29.4546 15.5644 29.3231 15.1686 29.0254 15.1364L27.8355 14.9714C27.7698 14.9714 27.7041 14.9057 27.6705 14.8399L27.1755 13.7829C27.0441 13.4864 26.647 13.4864 26.5155 13.7829L26.0205 14.8386C25.987 14.9044 25.9213 14.9701 25.8555 14.9701L24.7005 15.1016C24.4041 15.1351 24.2713 15.5309 24.502 15.7281L25.3605 16.5556Z" fill="#3196F5"/>
</svg>
