<svg width="917" height="161" viewBox="0 0 917 161" fill="none" xmlns="http://www.w3.org/2000/svg">
<g filter="url(#filter0_f_288_4821)">
<ellipse cx="492" cy="80.3837" rx="153.809" ry="28.0087" fill="url(#paint0_radial_288_4821)" fill-opacity="0.57"/>
</g>
<circle cx="492" cy="80.3828" r="44" fill="white"/>
<path d="M521.64 70.481C521.788 71.4739 521.089 70.7628 521.089 70.7628C518.241 67.1269 521.586 61.0491 521.586 61.0491C522.016 60.3514 522.446 59.7208 522.889 59.1439C516.118 49.3228 504.791 42.8828 491.933 42.8828C472.155 42.8828 455.965 58.1645 454.5 77.5382C461.984 73.9157 470.14 82.8781 470.14 82.8781L473.351 86.0579C483.011 95.6911 485.793 95.6106 487.19 93.3968C487.19 93.3968 489.125 90.5927 485.9 84.904C481.99 78.0347 486.276 72.9497 486.276 72.9497C497.657 57.5071 515.876 77.1492 515.876 77.1492C522.312 83.5624 526.396 85.9639 528.976 86.6482C529.312 84.6089 529.5 82.5293 529.5 80.396C529.5 75.8746 528.694 71.541 527.229 67.5294C522.245 65.8254 521.546 69.8505 521.64 70.4945V70.481Z" fill="#76C4D5"/>
<path d="M504.334 88.6883C496.756 81.1347 492.309 78.988 489.729 78.9746C489.447 79.0014 487.297 79.2429 487.714 81.4299C488.09 83.335 494.956 92.2974 487.028 100.24C475.917 109.592 463.986 95.4101 463.986 95.4101C460.291 91.9754 455.83 86.7295 455.266 88.4602C458.974 105.285 473.982 117.883 491.933 117.883C505.745 117.883 517.81 110.437 524.34 99.3412C514.76 99.9181 504.334 88.6883 504.334 88.6883Z" fill="#007496"/>
<g opacity="0.5">
<rect width="148.318" height="6.05117" transform="matrix(1 0 0 -1 596.156 83.0547)" fill="url(#paint1_linear_288_4821)"/>
<rect width="6.05117" height="6.05117" transform="matrix(1 0 0 -1 596.156 83.0547)" fill="#7CEAFF"/>
</g>
<g opacity="0.5">
<rect x="391.738" y="83.0547" width="148.318" height="6.05117" transform="rotate(180 391.738 83.0547)" fill="url(#paint2_linear_288_4821)"/>
<rect x="391.738" y="83.0547" width="6.05117" height="6.05117" transform="rotate(180 391.738 83.0547)" fill="#7CEAFF"/>
</g>
<g opacity="0.5">
<rect width="148.318" height="6.05117" transform="matrix(1 0 0 -1 619.668 60.7207)" fill="url(#paint3_linear_288_4821)"/>
<rect width="6.05117" height="6.05117" transform="matrix(1 0 0 -1 619.668 60.7207)" fill="#7D7CFF"/>
</g>
<g opacity="0.5">
<rect x="368.219" y="60.7207" width="148.318" height="6.05117" transform="rotate(180 368.219 60.7207)" fill="url(#paint4_linear_288_4821)"/>
<rect x="368.219" y="60.7207" width="6.05117" height="6.05117" transform="rotate(180 368.219 60.7207)" fill="#7D7CFF"/>
</g>
<g opacity="0.5">
<rect width="148.318" height="6.05117" transform="matrix(1 0 0 -1 662.871 106.096)" fill="url(#paint5_linear_288_4821)"/>
<rect width="6.05117" height="6.05117" transform="matrix(1 0 0 -1 662.871 106.096)" fill="#DEB4AC"/>
</g>
<g opacity="0.5">
<rect x="325.02" y="106.096" width="148.318" height="6.05117" transform="rotate(180 325.02 106.096)" fill="url(#paint6_linear_288_4821)"/>
<rect x="325.02" y="106.096" width="6.05117" height="6.05117" transform="rotate(180 325.02 106.096)" fill="#DEB4AC"/>
</g>
<g opacity="0.5">
<rect x="148.98" y="74.416" width="148.318" height="6.05117" transform="rotate(180 148.98 74.416)" fill="url(#paint7_linear_288_4821)"/>
<rect x="148.98" y="74.416" width="6.05117" height="6.05117" transform="rotate(180 148.98 74.416)" fill="#8BECFF"/>
</g>
<g opacity="0.5">
<rect width="148.318" height="6.05117" transform="matrix(1 0 0 -1 767.984 89.1055)" fill="url(#paint8_linear_288_4821)"/>
<rect width="6.05117" height="6.05117" transform="matrix(1 0 0 -1 767.984 89.1055)" fill="#8BECFF"/>
</g>
<defs>
<filter id="filter0_f_288_4821" x="286.191" y="0.375" width="411.617" height="160.018" filterUnits="userSpaceOnUse" color-interpolation-filters="sRGB">
<feFlood flood-opacity="0" result="BackgroundImageFix"/>
<feBlend mode="normal" in="SourceGraphic" in2="BackgroundImageFix" result="shape"/>
<feGaussianBlur stdDeviation="26" result="effect1_foregroundBlur_288_4821"/>
</filter>
<radialGradient id="paint0_radial_288_4821" cx="0" cy="0" r="1" gradientUnits="userSpaceOnUse" gradientTransform="translate(492 108.392) scale(140.463 771.346)">
<stop stop-color="#1EEDFA"/>
<stop offset="1" stop-color="#1E83FA" stop-opacity="0.35"/>
</radialGradient>
<linearGradient id="paint1_linear_288_4821" x1="1.91153e-07" y1="6.61373" x2="148.318" y2="6.61373" gradientUnits="userSpaceOnUse">
<stop stop-color="#7CEAFF" stop-opacity="0.46"/>
<stop offset="1" stop-color="#7CEAFF" stop-opacity="0"/>
</linearGradient>
<linearGradient id="paint2_linear_288_4821" x1="391.738" y1="89.6684" x2="540.056" y2="89.6684" gradientUnits="userSpaceOnUse">
<stop stop-color="#7CEAFF" stop-opacity="0.46"/>
<stop offset="1" stop-color="#7CEAFF" stop-opacity="0"/>
</linearGradient>
<linearGradient id="paint3_linear_288_4821" x1="1.91153e-07" y1="6.61373" x2="148.318" y2="6.61373" gradientUnits="userSpaceOnUse">
<stop stop-color="#7D7CFF" stop-opacity="0.46"/>
<stop offset="1" stop-color="#7D7CFF" stop-opacity="0"/>
</linearGradient>
<linearGradient id="paint4_linear_288_4821" x1="368.219" y1="67.3344" x2="516.536" y2="67.3344" gradientUnits="userSpaceOnUse">
<stop stop-color="#7D7CFF" stop-opacity="0.46"/>
<stop offset="1" stop-color="#7D7CFF" stop-opacity="0"/>
</linearGradient>
<linearGradient id="paint5_linear_288_4821" x1="1.91153e-07" y1="6.61373" x2="148.318" y2="6.61373" gradientUnits="userSpaceOnUse">
<stop stop-color="#DEB4AC" stop-opacity="0.46"/>
<stop offset="1" stop-color="#DEB4AC" stop-opacity="0"/>
</linearGradient>
<linearGradient id="paint6_linear_288_4821" x1="325.02" y1="112.709" x2="473.337" y2="112.709" gradientUnits="userSpaceOnUse">
<stop stop-color="#DEB4AC" stop-opacity="0.46"/>
<stop offset="1" stop-color="#DEB4AC" stop-opacity="0"/>
</linearGradient>
<linearGradient id="paint7_linear_288_4821" x1="148.98" y1="81.0297" x2="297.298" y2="81.0297" gradientUnits="userSpaceOnUse">
<stop stop-color="#8BECFF" stop-opacity="0.46"/>
<stop offset="1" stop-color="#8BECFF" stop-opacity="0"/>
</linearGradient>
<linearGradient id="paint8_linear_288_4821" x1="1.91153e-07" y1="6.61373" x2="148.318" y2="6.61373" gradientUnits="userSpaceOnUse">
<stop stop-color="#8BECFF" stop-opacity="0.46"/>
<stop offset="1" stop-color="#8BECFF" stop-opacity="0"/>
</linearGradient>
</defs>
</svg>
