<svg width="71" height="70" viewBox="0 0 71 70" fill="none" xmlns="http://www.w3.org/2000/svg">
<rect x="0.289062" width="70" height="70" rx="9" fill="#3196F5" fill-opacity="0.09"/>
<path d="M45.539 36.2603C49.9903 36.2603 53.6024 32.4535 53.6024 27.7923C53.6024 23.5059 50.5299 19.9538 46.5582 19.4143C46.1385 18.4401 45.2093 17.7656 44.1302 17.7656H26.4298C25.3507 17.7656 24.4365 18.4401 24.0018 19.4143C20.0451 19.9388 16.9727 23.4909 16.9727 27.7923C16.9727 32.4235 20.5397 36.1854 24.9461 36.2603C25.6505 37.879 26.6546 39.3328 27.9286 40.5168C28.5431 41.0863 29.2025 41.5659 29.892 41.9706C27.0293 43.1996 24.6313 45.3878 23.1475 48.2804C22.7129 49.1197 22.7579 50.1089 23.2525 50.9182C23.762 51.7425 24.6313 52.2371 25.6055 52.2371H44.9995C45.9587 52.2371 46.843 51.7425 47.3375 50.9182C47.8321 50.1089 47.8771 49.1197 47.4425 48.2804C45.9587 45.3728 43.5307 43.1846 40.6531 41.9556C42.7513 40.6817 44.4749 38.6883 45.554 36.2753L45.539 36.2603ZM50.6048 27.7923C50.6048 30.3252 49.0012 32.4685 46.813 33.083V22.5017C48.9862 23.1162 50.6048 25.2594 50.6048 27.7773V27.7923ZM23.762 33.083C21.5888 32.4685 19.9702 30.3252 19.9702 27.7923C19.9702 25.2594 21.5739 23.1312 23.762 22.5167V33.0979V33.083ZM44.4 49.1497H26.175C28.0635 45.9123 31.5106 43.934 35.2875 43.934C39.0644 43.934 42.5115 45.9123 44.415 49.1497H44.4ZM35.857 40.4419C33.7138 40.6067 31.6305 39.8424 29.9669 38.2986C27.9286 36.4102 26.7596 33.5925 26.7596 30.58V20.7482H43.8155V30.1604C43.8155 35.5859 40.3233 40.0972 35.857 40.4269V40.4419Z" fill="#3196F5"/>
<path d="M38.7495 27.643L37.041 27.3882C36.8461 27.3583 36.6813 27.2384 36.5913 27.0585L35.827 25.4998C35.6021 25.0652 34.9727 25.0652 34.7628 25.4998L33.9985 27.0585C33.9085 27.2384 33.7437 27.3583 33.5488 27.3882L31.8403 27.643C31.3607 27.718 31.1658 28.3175 31.5105 28.6622L32.7545 29.8762C32.8894 30.0111 32.9643 30.2059 32.9194 30.4008L32.6346 32.1093C32.5447 32.5889 33.0543 32.9636 33.4889 32.7388L35.0176 31.9295C35.1975 31.8396 35.3923 31.8396 35.5722 31.9295L37.1009 32.7388C37.5355 32.9636 38.0451 32.6039 37.9552 32.1093L37.6555 30.4008C37.6255 30.2059 37.6854 30.0111 37.8203 29.8762L39.0643 28.6622C39.409 28.3175 39.2142 27.718 38.7346 27.658L38.7495 27.643Z" fill="#3196F5"/>
</svg>
