<svg width="71" height="70" viewBox="0 0 71 70" fill="none" xmlns="http://www.w3.org/2000/svg">
<rect x="0.398438" width="70" height="70" rx="9" fill="#3196F5" fill-opacity="0.09"/>
<path d="M50.237 17.6523H20.5615C19.1827 17.6523 18.0586 18.7614 18.0586 20.1403V23.8572C18.0586 25.2361 19.1827 26.3601 20.5615 26.3601H21.2509V31.3061C21.2509 32.64 21.9853 33.839 23.1993 34.4385L29.689 37.6158L32.6865 39.0846L33.1511 39.3094L32.3118 41.018L28.8197 41.5276C28.1752 41.6175 27.6507 42.0672 27.4558 42.6816C27.246 43.2961 27.4109 43.9706 27.8755 44.4052L30.4084 46.8782L29.8089 50.3703C29.704 51.0148 29.9737 51.6442 30.4983 52.0189C30.7831 52.2437 31.1278 52.3487 31.4875 52.3487C31.7573 52.3487 32.027 52.2887 32.2668 52.1538L35.3992 50.5052L38.5317 52.1538C39.1012 52.4536 39.7906 52.4086 40.3152 52.0189C40.8397 51.6442 41.0945 51.0148 40.9896 50.3703L40.3901 46.8782L42.923 44.4052C43.3876 43.9556 43.5525 43.2961 43.3427 42.6816C43.1478 42.0672 42.6233 41.6175 41.9788 41.5276L38.4867 41.018L37.6474 39.3094L38.127 39.0846L41.1245 37.6158L47.6142 34.4385C48.8132 33.839 49.5625 32.64 49.5625 31.3061V26.3601H50.237C51.6158 26.3601 52.7399 25.2361 52.7399 23.8572V20.1403C52.7399 18.7614 51.6158 17.6523 50.237 17.6523ZM49.7424 23.3626H21.0561V20.6499H49.7424V23.3626ZM24.5332 31.7557C24.3534 31.6658 24.2485 31.5009 24.2485 31.3061V26.3601H29.689V34.2736L24.5332 31.7557ZM37.7973 45.2146C37.3926 45.6192 37.2127 46.1738 37.3177 46.7133L37.5874 48.272L36.1786 47.5226C35.9388 47.4027 35.669 47.3428 35.3992 47.3428C35.1295 47.3428 34.8597 47.4027 34.6199 47.5376L33.2111 48.272L33.4808 46.7283C33.5857 46.1738 33.4059 45.6192 33.0012 45.2146L31.8622 44.1055L33.4209 43.8807C33.9754 43.8057 34.455 43.461 34.6948 42.9514L35.3992 41.5426L36.0887 42.9514C36.3435 43.461 36.8231 43.8057 37.3776 43.8807L38.9363 44.1055L37.7973 45.2146ZM35.744 36.9114C35.744 36.9114 35.729 36.9264 35.714 36.9264C35.6091 36.9114 35.5042 36.8964 35.3992 36.8964C35.2943 36.8964 35.1894 36.9114 35.0995 36.9264C35.0845 36.9114 35.0545 36.9114 35.0396 36.8964L32.6865 35.7424V26.3601H38.127V35.7424L35.744 36.9114ZM46.565 31.3061C46.565 31.5009 46.4601 31.6658 46.2803 31.7557L41.1245 34.2736V26.3601H46.565V31.3061Z" fill="#3196F5"/>
</svg>
