<svg width="71" height="70" viewBox="0 0 71 70" fill="none" xmlns="http://www.w3.org/2000/svg">
<rect x="0.695312" width="70" height="70" rx="9" fill="#3196F5" fill-opacity="0.09"/>
<path d="M50.5846 35.2822H44.4847C44.9043 34.9974 45.1741 34.5178 45.1741 33.9932V27.9382L46.7478 27.3237V31.5053C46.7478 32.3746 47.4522 33.079 48.3365 33.079C49.2208 33.079 49.9102 32.3746 49.9102 31.5053V26.0948L50.4797 25.8699C51.0942 25.6451 51.4839 25.0456 51.4839 24.4012C51.4839 23.7567 51.0942 23.1722 50.4797 22.9324L36.2715 17.4019C35.9118 17.2671 35.4921 17.2671 35.1324 17.4019L20.9242 22.9324C20.3097 23.1722 19.905 23.7567 19.905 24.4012C19.905 25.0456 20.3097 25.6451 20.9242 25.8699L26.2298 27.9382V33.9932C26.2298 34.5178 26.4846 34.9974 26.9192 35.2822H20.8043C19.4854 35.2822 18.4062 36.3613 18.4062 37.6802V43.5703C18.4062 44.8892 19.4854 45.9533 20.8043 45.9533H28.9425C28.9575 49.6703 32 52.6978 35.7169 52.6978C39.4339 52.6978 42.4763 49.6703 42.4913 45.9533H50.5846C51.9185 45.9533 52.9826 44.8892 52.9826 43.5703V37.6802C52.9826 36.3613 51.9185 35.2822 50.5846 35.2822ZM29.3772 33.079V29.1672L35.1324 31.4004C35.4921 31.5353 35.9118 31.5353 36.2715 31.4004L42.0117 29.1672V33.079C40.8877 33.6485 38.5196 34.6677 35.7019 34.6677C32.8843 34.6677 30.5162 33.6485 29.3772 33.079ZM25.8401 24.4012L35.7019 20.5643L45.5488 24.4012L35.7019 28.238L25.8401 24.4012ZM35.7169 49.7002C33.6486 49.7002 31.955 48.0216 31.9401 45.9533V45.9234C31.9401 44.7243 32.5096 43.6452 33.3938 42.9558C34.0383 42.4462 34.8327 42.1465 35.7169 42.1465C36.6012 42.1465 37.3955 42.4462 38.04 42.9558C38.9243 43.6452 39.4938 44.7243 39.4938 45.9234V45.9533C39.4788 48.0216 37.7852 49.7002 35.7169 49.7002ZM49.9851 42.9558H41.8169C40.7078 40.6927 38.3997 39.149 35.7169 39.149C33.0342 39.149 30.7261 40.6927 29.632 42.9558H21.4038V38.2797H49.9851V42.9558Z" fill="#3196F5"/>
<path d="M37.7109 45.1433L36.7217 45.0084C36.6168 44.9785 36.5119 44.9185 36.4669 44.8136L36.0323 43.9143C35.8974 43.6745 35.5377 43.6745 35.4178 43.9293L34.9682 44.8136C34.9232 44.9185 34.8333 44.9935 34.7134 45.0084L33.7242 45.1433C33.4544 45.1883 33.3345 45.533 33.5444 45.7279L33.7692 45.9527L34.2488 46.4323C34.3387 46.5072 34.3687 46.6121 34.3537 46.732L34.1888 47.7062C34.1439 47.991 34.4286 48.2008 34.6834 48.0659L35.5677 47.6013C35.6576 47.5563 35.7775 47.5563 35.8824 47.6013L36.7667 48.0659C37.0215 48.2008 37.3062 47.991 37.2613 47.7062L37.0964 46.717C37.0664 46.6121 37.1114 46.5072 37.1863 46.4173L37.666 45.9527L37.9057 45.7279C38.1006 45.533 37.9957 45.1883 37.7109 45.1433Z" fill="#3196F5"/>
</svg>
