<svg width="71" height="70" viewBox="0 0 71 70" fill="none" xmlns="http://www.w3.org/2000/svg">
<rect x="0.992188" width="70" height="70" rx="9" fill="#3196F5" fill-opacity="0.09"/>
<path d="M53.0825 38.0876C51.8385 37.0535 50.07 36.9036 48.6761 37.7279L40.7926 42.404C40.418 42.6288 39.9833 42.7488 39.5487 42.7488H32.5195C32.2197 42.7488 31.9799 42.5089 31.9799 42.2092C31.9799 41.9094 32.2197 41.6696 32.5195 41.6696H37.99C40.2681 41.6696 42.1266 39.8112 42.1266 37.5331C42.1266 35.2549 40.2681 33.3965 37.99 33.3965H30.4812C28.3529 33.3965 26.2996 34.0859 24.621 35.2999C24.0815 34.7903 23.3471 34.4756 22.5377 34.4756H20.6043C18.9257 34.4756 17.5469 35.8395 17.5469 37.5331V48.8037C17.5469 50.4824 18.9107 51.8612 20.6043 51.8612H22.5377C23.2122 51.8612 23.8267 51.6364 24.3363 51.2617C26.0748 52.6256 28.2181 53.3899 30.4812 53.3899H38.9792C41.4671 53.3899 43.8351 52.4607 45.6636 50.7821L53.3972 43.648C54.1166 42.8836 54.4913 41.8495 54.4314 40.8004C54.3714 39.7512 53.8768 38.762 53.0675 38.0876H53.0825ZM20.5594 48.8037L20.6193 37.4881L22.6127 37.5481V48.8187C22.6127 48.8187 22.5827 48.8787 22.5527 48.8787L20.5594 48.8187V48.8037ZM51.299 41.5048L43.6403 48.5639C42.3664 49.733 40.7177 50.3774 38.9792 50.3774H30.4812C28.6377 50.3774 26.8842 49.658 25.5952 48.3841V38.4023C26.8842 37.1284 28.6377 36.409 30.4812 36.409H37.99C38.6194 36.409 39.129 36.9186 39.129 37.5481C39.129 38.1775 38.6194 38.6871 37.99 38.6871H32.5195C30.5711 38.6871 28.9824 40.2758 28.9824 42.2242C28.9824 44.1726 30.5711 45.7613 32.5195 45.7613H39.5487C40.5229 45.7613 41.4821 45.5065 42.3214 44.9969L50.2049 40.3208C50.5046 40.1409 50.8943 40.1709 51.1491 40.3957C51.3889 40.5905 51.4338 40.8453 51.4488 40.9802C51.4488 41.1151 51.4488 41.3699 51.299 41.5198V41.5048Z" fill="#3196F5"/>
<path d="M45.4536 33.3075C50.0548 33.3075 53.8017 29.5606 53.8017 24.9594C53.8017 20.3582 50.0548 16.6113 45.4536 16.6113C40.8524 16.6113 37.1055 20.3582 37.1055 24.9594C37.1055 29.5606 40.8524 33.3075 45.4536 33.3075ZM45.4536 19.5939C48.4061 19.5939 50.8041 21.9919 50.8041 24.9444C50.8041 27.897 48.4061 30.295 45.4536 30.295C42.501 30.295 40.103 27.897 40.103 24.9444C40.103 21.9919 42.501 19.5939 45.4536 19.5939Z" fill="#3196F5"/>
<path d="M42.4854 24.7341C42.6203 24.869 42.7702 24.9739 42.965 25.0638C43.1449 25.1388 43.3397 25.1837 43.5495 25.1837C43.7594 25.1837 43.9542 25.1388 44.1341 25.0638C44.3139 24.9889 44.4788 24.884 44.6137 24.7341C44.7486 24.5992 44.8535 24.4344 44.9284 24.2545C45.0033 24.0747 45.0483 23.8798 45.0483 23.67C45.0483 23.4602 45.0033 23.2653 44.9284 23.0855C44.8535 22.9056 44.7486 22.7408 44.6137 22.6059C44.4788 22.471 44.3289 22.3661 44.1341 22.2762C43.9542 22.2012 43.7594 22.1562 43.5495 22.1562C43.3397 22.1562 43.1449 22.2012 42.965 22.2762C42.7852 22.3511 42.6203 22.456 42.4854 22.6059C42.3505 22.7408 42.2456 22.9056 42.1707 23.0855C42.0957 23.2653 42.0508 23.4602 42.0508 23.67C42.0508 23.8798 42.0957 24.0747 42.1707 24.2545C42.2456 24.4344 42.3505 24.5992 42.4854 24.7341ZM43.025 23.1604C43.1599 23.0255 43.3397 22.9506 43.5346 22.9506C43.7294 22.9506 43.9092 23.0255 44.0441 23.1604C44.179 23.2953 44.254 23.4752 44.254 23.67C44.254 23.8648 44.179 24.0447 44.0441 24.1796C43.9092 24.3145 43.7294 24.3894 43.5346 24.3894C43.3397 24.3894 43.1599 24.3145 43.025 24.1796C42.8901 24.0447 42.8152 23.8648 42.8152 23.67C42.8152 23.4752 42.8901 23.2953 43.025 23.1604Z" fill="#3196F5"/>
<path d="M46.3096 25.1547C46.1747 25.2896 46.0698 25.4545 45.9949 25.6343C45.92 25.8142 45.875 26.009 45.875 26.2188C45.875 26.4287 45.92 26.6235 45.9949 26.8033C46.0698 26.9832 46.1747 27.1481 46.3096 27.2829C46.4445 27.4178 46.5944 27.5227 46.7892 27.6127C46.9691 27.6876 47.1639 27.7326 47.3738 27.7326C47.5836 27.7326 47.7784 27.6876 47.9583 27.6127C48.1381 27.5377 48.303 27.4328 48.4379 27.2829C48.5728 27.1481 48.6777 26.9832 48.7526 26.8033C48.8276 26.6235 48.8725 26.4287 48.8725 26.2188C48.8725 26.009 48.8276 25.8142 48.7526 25.6343C48.6777 25.4545 48.5728 25.2896 48.4379 25.1547C48.303 25.0198 48.1531 24.9149 47.9583 24.825C47.7784 24.75 47.5836 24.7051 47.3738 24.7051C47.1639 24.7051 46.9691 24.75 46.7892 24.825C46.6094 24.8999 46.4445 25.0048 46.3096 25.1547ZM47.3738 25.4844C47.5836 25.4844 47.7485 25.5594 47.8833 25.6943C48.0182 25.8291 48.0932 26.009 48.0932 26.2038C48.0932 26.3987 48.0182 26.5935 47.8833 26.7284C47.7485 26.8633 47.5686 26.9382 47.3738 26.9382C47.1789 26.9382 46.9991 26.8633 46.8642 26.7284C46.7293 26.5935 46.6544 26.4137 46.6544 26.2038C46.6544 25.994 46.7293 25.8291 46.8642 25.6943C46.9991 25.5594 47.1789 25.4844 47.3738 25.4844Z" fill="#3196F5"/>
<path d="M44.1789 27.8816L47.3263 22.3812L46.6818 22.0215L43.6094 27.5519L44.1789 27.8816Z" fill="#3196F5"/>
</svg>
