<svg width="71" height="70" viewBox="0 0 71 70" fill="none" xmlns="http://www.w3.org/2000/svg">
<rect x="0.585938" width="70" height="70" rx="9" fill="#3196F5" fill-opacity="0.09"/>
<path d="M52.9565 37.3456L47.7109 32.0999C48.6851 30.706 49.2096 29.0574 49.2096 27.3338C49.2096 25.0857 48.3403 22.9724 46.7517 21.3987C45.163 19.8101 43.0497 18.9258 40.8166 18.9258C38.5834 18.9258 36.4552 19.8101 34.8815 21.3987C33.4876 22.7776 32.6483 24.5761 32.4685 26.5095H21.3926C19.3993 26.5095 17.7656 28.1432 17.7656 30.1515V47.4322C17.7656 49.4405 19.3993 51.0742 21.3926 51.0742H41.476C43.4844 51.0742 45.118 49.4405 45.118 47.4322V34.5279C45.2829 34.4529 45.4477 34.348 45.5976 34.2281L50.8433 39.4738C51.143 39.7735 51.5177 39.9084 51.9074 39.9084C52.2971 39.9084 52.6718 39.7586 52.9715 39.4738C53.556 38.8893 53.556 37.9451 52.9715 37.3605L52.9565 37.3456ZM35.421 27.3338C35.421 27.0491 35.436 26.7793 35.496 26.5095C35.6458 25.3705 36.1704 24.3363 36.9947 23.512C38.0139 22.4928 39.3778 21.9233 40.8166 21.9233C42.2554 21.9233 43.6043 22.4928 44.6384 23.512C45.6576 24.5311 46.2121 25.88 46.2121 27.3338C46.2121 28.5178 45.8374 29.6569 45.118 30.5861C44.9831 30.781 44.8183 30.9608 44.6384 31.1407C44.3237 31.4554 43.979 31.7102 43.6192 31.92C43.1546 32.2048 42.6451 32.3996 42.1205 32.5195C40.322 32.9542 38.3286 32.4896 36.9947 31.1407C36.5151 30.6611 36.1404 30.1065 35.8706 29.507C35.6608 29.0274 35.5259 28.5328 35.466 28.0083C35.436 27.7835 35.421 27.5586 35.421 27.3338ZM42.1205 47.4322C42.1205 47.7919 41.8357 48.0767 41.476 48.0767H21.3926C21.0479 48.0767 20.7631 47.7919 20.7631 47.4322V45.229H25.784C26.6083 45.229 27.2828 44.5546 27.2828 43.7303C27.2828 42.906 26.6083 42.2315 25.784 42.2315H20.7631V40.2831H29.0513C29.8756 40.2831 30.5501 39.6237 30.5501 38.7844C30.5501 37.9451 29.8756 37.2856 29.0513 37.2856H20.7631V35.3522H32.3186C33.1429 35.3522 33.8174 34.6778 33.8174 33.8534C33.8174 33.0291 33.1429 32.3547 32.3186 32.3547H20.7631V30.1515C20.7631 29.7918 21.0479 29.507 21.3926 29.507H32.7233C33.083 30.9159 33.8173 32.2048 34.8815 33.2689C36.4552 34.8576 38.5684 35.7269 40.8166 35.7269C41.2512 35.7269 41.7008 35.6969 42.1205 35.607V47.4322Z" fill="#3196F5"/>
</svg>
