<svg width="268" height="48" viewBox="0 0 268 48" fill="none" xmlns="http://www.w3.org/2000/svg">
<g clip-path="url(#clip0_213_6872)">
<path d="M70.5552 37.8147C59.6507 37.8147 54.75 30.8542 54.75 21.2716C54.75 11.689 59.8358 4.36328 70.5552 4.36328C81.2745 4.36328 86.3159 11.5502 86.3159 21.2716C86.3159 30.993 81.504 37.8147 70.5552 37.8147ZM70.5552 34.9662C79.6237 34.9662 82.881 28.4585 82.881 21.2278C82.881 13.997 79.5793 7.21177 70.5552 7.21177C61.531 7.21177 58.1849 13.8582 58.1849 21.2278C58.1849 28.5973 61.531 34.9662 70.5552 34.9662Z" fill="#2D3436"/>
<path d="M93.14 33.9733V46.3606C93.14 47.4488 92.9105 47.6241 91.8593 47.6241H91.1708C90.1196 47.6241 89.8901 47.4415 89.8901 46.3606V18.9713H89.4755C88.0542 18.9713 87.5508 17.8392 87.5508 16.8897C87.5508 16.3054 87.7803 16.3054 88.602 16.3054H90.5267C92.3627 16.3054 93.14 17.0723 93.14 18.8398V19.877C94.6502 17.6201 97.1745 16.0352 100.972 16.0352C107.435 16.0352 111.055 20.5124 111.055 26.9324C111.055 33.3525 107.479 37.6033 100.928 37.6033C97.1227 37.6033 94.6502 36.1571 93.14 33.9879V33.9733ZM100.284 34.6964C105.229 34.6964 107.613 31.3074 107.613 26.874C107.613 22.4406 105.229 18.9202 100.328 18.9202C95.1017 18.9202 92.9031 22.8496 92.9031 26.9251C92.9031 31.0007 95.0129 34.6964 100.276 34.6964H100.284Z" fill="#2D3436"/>
<path d="M116.914 28.2319C117.284 33.4322 120.393 34.8346 125.301 34.8346C128.507 34.8346 130.846 34.0238 132.63 33.0744C133.319 32.7603 133.593 32.8041 133.593 33.4395C133.593 33.9362 133.504 35.4262 131.757 36.2442C130.38 37.0549 128.181 37.7342 125.02 37.7342C118.328 37.7342 113.523 35.1559 113.523 27.3409C113.523 19.9275 117.188 15.998 123.739 15.998C130.291 15.998 133.681 20.205 133.681 26.3914C133.681 27.3847 133.408 28.2465 131.942 28.2465H116.914V28.2319ZM116.958 25.6537H130.476C130.387 21.4029 128.366 18.6932 123.88 18.6932C119.668 18.6932 117.417 21.2714 116.958 25.6537Z" fill="#2D3436"/>
<path d="M156.723 35.2431C157.545 35.2431 157.641 35.2431 157.641 35.6959C157.641 36.6892 156.952 37.4123 155.124 37.4123C153.11 37.4123 152.103 36.2364 152.103 34.111V24.3458C152.103 21.0883 150.778 18.7876 146.929 18.7876C143.079 18.7876 141.251 21.1832 140.925 24.5284V35.9661C140.925 37.0544 140.74 37.2297 139.644 37.2297H139C137.949 37.2297 137.72 37.0471 137.72 35.9661V18.9702H137.261C135.839 18.9702 135.336 17.8381 135.336 16.8886C135.336 16.3043 135.565 16.3043 136.343 16.3043H138.356C140.14 16.3043 140.925 17.0712 140.925 18.8387V19.1528C142.161 17.3926 144.36 15.9902 147.795 15.9902C153.155 15.9902 155.353 19.1528 155.353 24.1267V33.0738C155.353 34.8341 155.672 35.2431 156.73 35.2431H156.723Z" fill="#2D3436"/>
<path d="M167.63 32.7527L174.685 6.48817C175.003 5.35608 175.188 5.22461 176.38 5.22461H177.202C178.349 5.22461 178.579 5.4072 178.897 6.48817L186.137 32.7965L192.963 7.66408L191.911 7.57644C191.223 7.35002 190.401 6.99213 190.401 5.81622C190.401 5.31956 190.675 5.23191 191.364 5.23191H194.895C196.131 5.23191 196.731 5.31956 196.731 6.22523C196.731 6.63424 196.59 7.21855 196.361 8.03657L188.069 36.2439C187.795 37.1934 187.566 37.4198 186.744 37.4198H185.463C184.546 37.4198 184.316 37.1934 184.042 36.2877L176.758 9.70915L169.429 36.3753C169.199 37.1861 168.925 37.4125 168.007 37.4125H166.86C165.986 37.4125 165.713 37.1861 165.483 36.3753L157.096 7.75903L155.445 7.53261C154.801 7.35002 154.164 6.76571 154.164 5.81622C154.164 5.27574 154.438 5.23191 155.126 5.23191H157.74C159.753 5.23191 159.938 5.31956 160.671 8.0804L167.637 32.76L167.63 32.7527Z" fill="#2D3436"/>
<path d="M198.826 16.2969H205.059C211.84 16.2969 214.542 18.8751 214.542 24.6159V33.6142C214.586 34.9727 214.912 35.2868 215.919 35.2868C216.741 35.2868 216.837 35.2868 216.837 35.7396C216.837 36.7329 216.148 37.456 214.32 37.456C212.669 37.456 211.662 36.6891 211.388 35.243C210.152 36.1924 207.857 37.4998 203.504 37.4998C198.737 37.4998 196.449 35.4182 196.449 31.4011C196.449 27.3841 199.107 25.843 204.652 25.843C206.576 25.843 209.093 25.9817 211.292 26.252V25.0761C211.292 20.2848 209.367 19.065 205.111 19.065H200.439C198.7 19.065 197.782 18.0717 197.782 16.8958C197.782 16.3553 197.967 16.3115 198.833 16.3115L198.826 16.2969ZM205.288 28.3628C201.809 28.3628 199.655 28.7718 199.655 31.4377C199.655 34.1036 201.394 34.9216 204.281 34.9216C208.087 34.9216 209.959 33.8333 211.292 32.84V28.728C209.367 28.4139 206.939 28.3628 205.288 28.3628Z" fill="#2D3436"/>
<path d="M223.107 11.3313V16.3052H228.556C229.429 16.3052 229.607 16.349 229.607 16.8895C229.607 17.9778 228.645 19.0587 226.491 19.0587H223.1V30.3139C223.1 33.9293 224.477 34.6524 226.261 34.6524C227.638 34.6524 228.504 34.4259 229.563 33.8416C230.155 33.6152 230.296 33.8416 230.296 34.5647C230.296 35.1052 230.207 35.5142 229.977 35.8721C229.244 36.9092 227.734 37.5009 225.121 37.5009C221.086 37.5009 219.895 35.0614 219.895 31.1758V14.8079C219.895 11.5504 220.946 10.1992 222.412 10.1992C223.056 10.1992 223.1 10.4256 223.1 11.3313H223.107Z" fill="#2D3436"/>
<path d="M235.336 28.2319C235.706 33.4322 238.815 34.8346 243.723 34.8346C246.929 34.8346 249.268 34.0238 251.052 33.0744C251.741 32.7603 252.015 32.8041 252.015 33.4395C252.015 33.9362 251.926 35.4262 250.179 36.2442C248.802 37.0549 246.603 37.7342 243.442 37.7342C236.75 37.7342 231.945 35.1559 231.945 27.3409C231.945 19.9275 235.61 15.998 242.161 15.998C248.713 15.998 252.103 20.205 252.103 26.3914C252.103 27.3847 251.829 28.2465 250.364 28.2465H235.336V28.2319ZM235.38 25.6537H248.898C248.809 21.4029 246.788 18.6932 242.302 18.6932C238.09 18.6932 235.839 21.2714 235.38 25.6537Z" fill="#2D3436"/>
<path d="M259.389 27.6031V35.966C259.389 37.0543 259.159 37.2296 258.108 37.2296H257.42C256.369 37.2296 256.139 37.047 256.139 35.966V18.97H255.636C254.214 18.97 253.711 17.838 253.711 16.8885C253.711 16.3042 253.94 16.3042 254.762 16.3042H256.872C258.612 16.348 259.389 17.1149 259.389 18.8386V19.8319C260.44 16.8008 262.232 15.7637 264.519 15.7637C266.807 15.7637 267.495 16.757 267.495 18.1155C267.495 18.7948 267.406 18.9773 266.762 18.8386C265.985 18.6122 265.482 18.4734 264.564 18.4734C261.129 18.4734 259.478 21.95 259.389 27.6031Z" fill="#2D3436"/>
<path d="M37.4922 15.647C37.5737 16.1875 37.1887 15.8004 37.1887 15.8004C35.6193 13.821 37.4626 10.5124 37.4626 10.5124C37.6995 10.1326 37.9364 9.78933 38.1807 9.47526C34.4496 4.12887 28.209 0.623047 21.1244 0.623047C10.2274 0.623047 1.30691 8.94208 0.5 19.4888C4.62341 17.5168 9.11696 22.3957 9.11696 22.3957L10.8863 24.1267C16.2089 29.3708 17.7413 29.327 18.5112 28.1219C18.5112 28.1219 19.5772 26.5954 17.8006 23.4986C15.6463 19.759 18.0078 16.9909 18.0078 16.9909C24.2781 8.5842 34.3164 19.277 34.3164 19.277C37.8624 22.7682 40.1129 24.0756 41.5342 24.4481C41.7193 23.3379 41.8229 22.2058 41.8229 21.0445C41.8229 18.5831 41.3788 16.224 40.5718 14.0401C37.8254 13.1126 37.4404 15.3037 37.4922 15.6543V15.647Z" fill="#76C4D5"/>
<path d="M27.9572 25.5575C23.782 21.4454 21.3316 20.2768 19.9103 20.2695C19.7548 20.2841 18.5704 20.4156 18.7999 21.6061C19.0071 22.6433 22.79 27.5222 18.4223 31.8461C12.3001 36.9368 5.72635 29.2167 5.72635 29.2167C3.69056 27.3469 1.2328 24.4911 0.921875 25.4333C2.96507 34.5923 11.2341 41.4506 21.1244 41.4506C28.7345 41.4506 35.3823 37.397 38.9801 31.3567C33.7019 31.6708 27.9572 25.5575 27.9572 25.5575Z" fill="#007496"/>
</g>
<defs>
<clipPath id="clip0_213_6872">
<rect width="267" height="47" fill="white" transform="translate(0.5 0.623047)"/>
</clipPath>
</defs>
</svg>
