<svg width="251" height="59" viewBox="0 0 251 59" fill="none" xmlns="http://www.w3.org/2000/svg">
<g clip-path="url(#clip0_215_4591)">
<path d="M39.7086 20.2635L20.3055 0.791016L0.902344 20.2635L10.3883 29.7833L0.902344 39.195L20.3055 58.6675L39.7086 39.195L30.2226 29.6752L39.7086 20.2635ZM21.3834 4.79369L36.2592 19.7226H21.3834V4.79369ZM19.2275 19.7226H4.45959L19.2275 4.79369V19.7226ZM19.2275 35.7333L13.2988 29.7833L19.2275 23.8334V35.7333ZM19.2275 54.6648L4.67518 40.0605H19.2275V54.6648ZM21.3834 40.0605H35.9358L21.3834 54.6648V40.0605ZM21.3834 23.7252L27.3122 29.6752L21.3834 35.7333V23.7252ZM22.4614 21.8862H35.289L28.9291 28.2688L22.4614 21.8862ZM5.42974 21.8862H18.2574L11.8975 28.2688L5.42974 21.8862ZM18.473 38.0051H5.10636L11.7897 31.2979L18.473 38.0051ZM35.5046 38.0051H22.138L28.8213 31.2979L35.5046 38.0051Z" fill="#91D500"/>
<path d="M52.8555 44.2775V15.2852H69.7793V18.0978H55.9815V28.1586H68.378V30.9713H55.9815V41.4648H69.7793V44.2775H52.8555Z" fill="#025157"/>
<path d="M104.059 44.2769L103.628 23.7227L93.3875 41.2479H92.9564L82.608 23.6145L82.2846 44.1688H79.0508L80.1287 14.6355L80.7755 14.5273L93.3875 36.3798L105.676 14.5273L106.323 14.6355L107.401 44.1688H104.059V44.2769Z" fill="#025157"/>
<path d="M117.102 44.2775V15.2852H134.025V18.0978H120.228V28.1586H132.624V30.9713H120.228V41.4648H134.025V44.2775H117.102Z" fill="#025157"/>
<path d="M159.895 44.2771L152.242 32.8099C151.595 32.8099 150.948 32.9181 150.301 32.9181C149.331 32.9181 147.93 32.9181 147.067 32.8099V44.2771H143.941V15.5011C146.097 15.1765 148.253 15.0684 150.625 15.0684C158.063 15.0684 161.728 18.7465 161.728 23.831C161.728 27.8336 159.464 30.9709 155.368 32.269L163.776 44.3852H159.895V44.2771ZM150.948 17.881C149.655 17.881 148.038 17.9892 146.96 18.2056V29.9972C147.93 30.1054 149.331 30.2136 150.517 30.2136C155.907 30.2136 158.278 27.7255 158.278 23.9391C158.278 20.5856 155.691 17.881 150.948 17.881Z" fill="#025157"/>
<path d="M191.377 44.2762L187.927 36.2708H174.992L171.542 44.2762H168.309L181.352 14.6348H181.891L194.934 44.2762H191.377ZM181.46 21.1256L176.178 33.5663H186.849L181.46 21.1256Z" fill="#025157"/>
<path d="M202.047 44.2775V15.2852H205.173V41.4648H218.971V44.2775H202.047Z" fill="#025157"/>
<path d="M234.6 44.6016C231.689 44.6016 228.994 44.3852 226.73 44.1689V15.5011C228.994 15.1765 231.366 15.0684 234.276 15.0684C245.163 15.0684 250.877 22.1001 250.877 29.5645C250.877 37.3535 245.487 44.6016 234.6 44.6016ZM234.6 17.7729C232.875 17.7729 230.934 17.881 229.964 18.0974V41.5725C231.15 41.7889 232.767 41.8971 235.031 41.8971C243.547 41.8971 247.427 36.4881 247.427 29.5645C247.427 22.7492 243.008 17.7729 234.6 17.7729Z" fill="#025157"/>
</g>
<defs>
<clipPath id="clip0_215_4591">
<rect width="249.977" height="57.8765" fill="white" transform="translate(0.902344 0.789062)"/>
</clipPath>
</defs>
</svg>
